M48
; DRILL file {KiCad 8.0.7} date 2025-12-06T16:12:55-0500
; FORMAT={-:-/ absolute / inch / decimal}
; #@! TF.CreationDate,2025-12-06T16:12:55-05:00
; #@! TF.GenerationSoftware,Kicad,Pcbnew,8.0.7
; #@! TF.FileFunction,Plated,1,2,PTH
FMAT,2
INCH
; #@! TA.AperFunction,Plated,PTH,ViaDrill
T1C0.0157
; #@! TA.AperFunction,Plated,PTH,ComponentDrill
T2C0.0394
; #@! TA.AperFunction,Plated,PTH,ComponentDrill
T3C0.0512
; #@! TA.AperFunction,Plated,PTH,ComponentDrill
T4C0.0728
; #@! TA.AperFunction,Plated,PTH,ComponentDrill
T5C0.0748
; #@! TA.AperFunction,Plated,PTH,ComponentDrill
T6C0.0906
; #@! TA.AperFunction,Plated,PTH,ComponentDrill
T7C0.1378
; #@! TA.AperFunction,Plated,PTH,ComponentDrill
T8C0.2520
%
G90
G05
T1
X-1.47Y-0.36
X-1.39Y0.42
X-1.0Y0.44
X-0.79Y-0.68
X-0.76Y0.55
X-0.71Y1.3
X-0.64Y-0.38
X-0.63Y0.0
X-0.63Y-1.36
X-0.625Y-1.275
X-0.5Y-0.78
X-0.31Y-1.19
X-0.11Y-0.9
X0.06Y-1.28
X0.1Y0.85
X0.1Y0.65
X0.1Y0.45
X0.1Y-0.45
X0.1Y-0.65
X0.1Y-0.85
X0.3Y-0.9773
X0.4Y-1.16
X0.42Y1.27
X0.45Y0.75
X0.53Y-0.69
X0.55Y0.825
X0.55Y-0.475
X0.59Y-1.24
X0.62Y0.4
X0.6784Y-0.9303
X0.7Y1.3
X0.7071Y-0.9019
X0.74Y-0.88
X0.74Y-1.3
X0.75Y0.95
X0.77Y-0.91
X0.79Y-1.25
X0.8Y-0.94
X0.81Y0.41
X0.87Y0.0
X0.96Y-1.34
X1.02Y0.63
X1.76Y0.79
X1.76Y0.73
X1.76Y0.67
X1.76Y0.61
X1.76Y0.55
X1.76Y0.49
X1.76Y0.43
X1.76Y0.37
X1.76Y0.31
X1.76Y0.25
X1.76Y-0.21
X1.76Y-0.27
X1.76Y-0.33
X1.76Y-0.39
X1.76Y-0.45
X1.76Y-0.51
X1.76Y-0.57
X1.76Y-0.63
X1.76Y-0.69
X1.76Y-0.75
X1.79Y0.76
X1.79Y0.7
X1.79Y0.64
X1.79Y0.58
X1.79Y0.52
X1.79Y0.46
X1.79Y0.4
X1.79Y0.34
X1.79Y0.28
X1.79Y0.22
X1.79Y-0.24
X1.79Y-0.3
X1.79Y-0.36
X1.79Y-0.42
X1.79Y-0.48
X1.79Y-0.54
X1.79Y-0.6
X1.79Y-0.66
X1.79Y-0.72
X1.79Y-0.78
X2.17Y0.79
X2.17Y0.73
X2.17Y0.67
X2.17Y0.61
X2.17Y0.55
X2.17Y0.49
X2.17Y0.43
X2.17Y0.37
X2.17Y0.31
X2.17Y0.25
X2.17Y-0.21
X2.17Y-0.27
X2.17Y-0.33
X2.17Y-0.39
X2.17Y-0.45
X2.17Y-0.51
X2.17Y-0.57
X2.17Y-0.63
X2.17Y-0.69
X2.17Y-0.75
X2.2Y0.76
X2.2Y0.7
X2.2Y0.64
X2.2Y0.58
X2.2Y0.52
X2.2Y0.46
X2.2Y0.4
X2.2Y0.34
X2.2Y0.28
X2.2Y0.22
X2.2Y-0.24
X2.2Y-0.3
X2.2Y-0.36
X2.2Y-0.42
X2.2Y-0.48
X2.2Y-0.54
X2.2Y-0.6
X2.2Y-0.66
X2.2Y-0.72
X2.2Y-0.78
T2
X-0.9502Y1.45
X-0.9502Y-1.45
X-0.8502Y1.45
X-0.8502Y-1.45
X-0.7502Y1.45
X-0.7502Y-1.45
X-0.6502Y1.45
X-0.6502Y-1.45
X-0.5502Y1.45
X-0.5502Y-1.45
X-0.4502Y1.45
X-0.4502Y-1.45
X-0.3502Y1.45
X-0.3502Y-1.45
X-0.2502Y1.45
X-0.2502Y-1.45
X-0.1502Y1.45
X-0.1502Y-1.45
X-0.0502Y1.45
X-0.0502Y-1.45
X0.0498Y1.45
X0.0498Y-1.45
X0.1498Y1.45
X0.1498Y-1.45
X0.2498Y1.45
X0.2498Y-1.45
X0.3498Y1.45
X0.3498Y-1.45
X0.4498Y1.45
X0.4498Y-1.45
X0.5498Y1.45
X0.5498Y-1.45
X0.6498Y1.45
X0.6498Y-1.45
X0.7498Y1.45
X0.7498Y-1.45
X0.8498Y1.45
X0.8498Y-1.45
X0.9498Y1.45
X0.9498Y-1.45
X1.9547Y0.7943
X1.9547Y0.2057
X1.9547Y-0.2057
X1.9547Y-0.7943
T3
X-1.8114Y0.0
T4
X-0.185Y1.15
X-0.185Y-1.15
X0.0Y1.15
X0.0Y-1.15
X0.185Y1.15
X0.185Y-1.15
T5
X-0.6713Y0.7864
X-0.6713Y-0.5136
X0.8287Y0.7864
X0.8287Y-0.5136
T6
X-1.9413Y0.1299
X-1.9413Y-0.1299
X-1.6815Y0.1299
X-1.6815Y-0.1299
T7
X-1.4Y1.35
X-1.4Y-1.35
X1.3Y1.35
X1.3Y-1.35
T8
X-1.25Y0.0
X1.25Y0.0
T3
G00X-1.1831Y0.6382
M15
G01X-1.1831Y0.6618
M16
G05
G00X-1.1831Y-0.6618
M15
G01X-1.1831Y-0.6382
M16
G05
G00X-1.131Y0.8563
M15
G01X-1.1191Y0.8768
M16
G05
G00X-1.1191Y0.4232
M15
G01X-1.131Y0.4437
M16
G05
G00X-1.131Y-0.4437
M15
G01X-1.1191Y-0.4232
M16
G05
G00X-1.1191Y-0.8768
M15
G01X-1.131Y-0.8563
M16
G05
G00X-0.9768Y1.0191
M15
G01X-0.9563Y1.031
M16
G05
G00X-0.9563Y0.269
M15
G01X-0.9768Y0.2809
M16
G05
G00X-0.9768Y-0.2809
M15
G01X-0.9563Y-0.269
M16
G05
G00X-0.9563Y-1.031
M15
G01X-0.9768Y-1.0191
M16
G05
G00X-0.7618Y1.0831
M15
G01X-0.7382Y1.0831
M16
G05
G00X-0.7382Y0.2169
M15
G01X-0.7618Y0.2169
M16
G05
G00X-0.7618Y-0.2169
M15
G01X-0.7382Y-0.2169
M16
G05
G00X-0.7382Y-1.0831
M15
G01X-0.7618Y-1.0831
M16
G05
G00X-0.5437Y1.031
M15
G01X-0.5232Y1.0191
M16
G05
G00X-0.5232Y0.2809
M15
G01X-0.5437Y0.269
M16
G05
G00X-0.5437Y-0.269
M15
G01X-0.5232Y-0.2809
M16
G05
G00X-0.5232Y-1.0191
M15
G01X-0.5437Y-1.031
M16
G05
G00X-0.3809Y0.8768
M15
G01X-0.369Y0.8563
M16
G05
G00X-0.369Y0.4437
M15
G01X-0.3809Y0.4232
M16
G05
G00X-0.3809Y-0.4232
M15
G01X-0.369Y-0.4437
M16
G05
G00X-0.369Y-0.8563
M15
G01X-0.3809Y-0.8768
M16
G05
G00X-0.3169Y0.6618
M15
G01X-0.3169Y0.6382
M16
G05
G00X-0.3169Y-0.6382
M15
G01X-0.3169Y-0.6618
M16
G05
G00X0.3169Y0.6382
M15
G01X0.3169Y0.6618
M16
G05
G00X0.3169Y-0.6618
M15
G01X0.3169Y-0.6382
M16
G05
G00X0.369Y0.8563
M15
G01X0.3809Y0.8768
M16
G05
G00X0.3809Y0.4232
M15
G01X0.369Y0.4437
M16
G05
G00X0.369Y-0.4437
M15
G01X0.3809Y-0.4232
M16
G05
G00X0.3809Y-0.8768
M15
G01X0.369Y-0.8563
M16
G05
G00X0.5232Y1.0191
M15
G01X0.5437Y1.031
M16
G05
G00X0.5437Y0.269
M15
G01X0.5232Y0.2809
M16
G05
G00X0.5232Y-0.2809
M15
G01X0.5437Y-0.269
M16
G05
G00X0.5437Y-1.031
M15
G01X0.5232Y-1.0191
M16
G05
G00X0.7382Y1.0831
M15
G01X0.7618Y1.0831
M16
G05
G00X0.7618Y0.2169
M15
G01X0.7382Y0.2169
M16
G05
G00X0.7382Y-0.2169
M15
G01X0.7618Y-0.2169
M16
G05
G00X0.7618Y-1.0831
M15
G01X0.7382Y-1.0831
M16
G05
G00X0.9563Y1.031
M15
G01X0.9768Y1.0191
M16
G05
G00X0.9768Y0.2809
M15
G01X0.9563Y0.269
M16
G05
G00X0.9563Y-0.269
M15
G01X0.9768Y-0.2809
M16
G05
G00X0.9768Y-1.0191
M15
G01X0.9563Y-1.031
M16
G05
G00X1.1191Y0.8768
M15
G01X1.131Y0.8563
M16
G05
G00X1.131Y0.4437
M15
G01X1.1191Y0.4232
M16
G05
G00X1.1191Y-0.4232
M15
G01X1.131Y-0.4437
M16
G05
G00X1.131Y-0.8563
M15
G01X1.1191Y-0.8768
M16
G05
G00X1.1831Y0.6618
M15
G01X1.1831Y0.6382
M16
G05
G00X1.1831Y-0.6382
M15
G01X1.1831Y-0.6618
M16
G05
M30
