G04 #@! TF.GenerationSoftware,KiCad,Pcbnew,8.0.7*
G04 #@! TF.CreationDate,2025-12-06T16:12:50-05:00*
G04 #@! TF.ProjectId,TPL-GridSwitch,54504c2d-4772-4696-9453-77697463682e,rev?*
G04 #@! TF.SameCoordinates,Original*
G04 #@! TF.FileFunction,Legend,Top*
G04 #@! TF.FilePolarity,Positive*
%FSLAX46Y46*%
G04 Gerber Fmt 4.6, Leading zero omitted, Abs format (unit mm)*
G04 Created by KiCad (PCBNEW 8.0.7) date 2025-12-06 16:12:50*
%MOMM*%
%LPD*%
G01*
G04 APERTURE LIST*
%ADD10C,0.150000*%
%ADD11C,0.200000*%
%ADD12C,0.152400*%
%ADD13C,0.120000*%
%ADD14C,0.127000*%
G04 APERTURE END LIST*
D10*
X-32121882Y25703823D02*
X-31886118Y22048177D01*
X12495823Y-1914118D02*
X10872177Y-5197882D01*
X-30362118Y24687823D02*
X-33645882Y23064177D01*
X5978118Y25703823D02*
X6213882Y22048177D01*
X-24588177Y-3673882D02*
X-28243823Y-3438118D01*
X13511823Y-3673882D02*
X9856177Y-3438118D01*
X5978118Y-7316177D02*
X6213882Y-10971823D01*
X-24588177Y29346118D02*
X-28243823Y29581882D01*
X7737882Y24687823D02*
X4454118Y23064177D01*
X7737882Y-8332177D02*
X4454118Y-9955823D01*
X13511823Y29346118D02*
X9856177Y29581882D01*
X-32121882Y-7316177D02*
X-31886118Y-10971823D01*
X-30362118Y-8332177D02*
X-33645882Y-9955823D01*
X12495823Y31105882D02*
X10872177Y27822118D01*
X-25604177Y31105882D02*
X-27227823Y27822118D01*
X-25604177Y-1914118D02*
X-27227823Y-5197882D01*
X47516942Y6314839D02*
X47564561Y6267220D01*
X47564561Y6267220D02*
X47612180Y6171982D01*
X47612180Y6171982D02*
X47612180Y5933887D01*
X47612180Y5933887D02*
X47564561Y5838649D01*
X47564561Y5838649D02*
X47516942Y5791030D01*
X47516942Y5791030D02*
X47421704Y5743411D01*
X47421704Y5743411D02*
X47326466Y5743411D01*
X47326466Y5743411D02*
X47183609Y5791030D01*
X47183609Y5791030D02*
X46612180Y6362458D01*
X46612180Y6362458D02*
X46612180Y5743411D01*
X47612180Y5124363D02*
X47612180Y5029125D01*
X47612180Y5029125D02*
X47564561Y4933887D01*
X47564561Y4933887D02*
X47516942Y4886268D01*
X47516942Y4886268D02*
X47421704Y4838649D01*
X47421704Y4838649D02*
X47231228Y4791030D01*
X47231228Y4791030D02*
X46993133Y4791030D01*
X46993133Y4791030D02*
X46802657Y4838649D01*
X46802657Y4838649D02*
X46707419Y4886268D01*
X46707419Y4886268D02*
X46659800Y4933887D01*
X46659800Y4933887D02*
X46612180Y5029125D01*
X46612180Y5029125D02*
X46612180Y5124363D01*
X46612180Y5124363D02*
X46659800Y5219601D01*
X46659800Y5219601D02*
X46707419Y5267220D01*
X46707419Y5267220D02*
X46802657Y5314839D01*
X46802657Y5314839D02*
X46993133Y5362458D01*
X46993133Y5362458D02*
X47231228Y5362458D01*
X47231228Y5362458D02*
X47421704Y5314839D01*
X47421704Y5314839D02*
X47516942Y5267220D01*
X47516942Y5267220D02*
X47564561Y5219601D01*
X47564561Y5219601D02*
X47612180Y5124363D01*
X-40047939Y-9440969D02*
X-40119368Y-9369541D01*
X-40119368Y-9369541D02*
X-40190796Y-9155255D01*
X-40190796Y-9155255D02*
X-40190796Y-9012398D01*
X-40190796Y-9012398D02*
X-40119368Y-8798112D01*
X-40119368Y-8798112D02*
X-39976510Y-8655255D01*
X-39976510Y-8655255D02*
X-39833653Y-8583826D01*
X-39833653Y-8583826D02*
X-39547939Y-8512398D01*
X-39547939Y-8512398D02*
X-39333653Y-8512398D01*
X-39333653Y-8512398D02*
X-39047939Y-8583826D01*
X-39047939Y-8583826D02*
X-38905082Y-8655255D01*
X-38905082Y-8655255D02*
X-38762225Y-8798112D01*
X-38762225Y-8798112D02*
X-38690796Y-9012398D01*
X-38690796Y-9012398D02*
X-38690796Y-9155255D01*
X-38690796Y-9155255D02*
X-38762225Y-9369541D01*
X-38762225Y-9369541D02*
X-38833653Y-9440969D01*
X-40190796Y-10083826D02*
X-38690796Y-10083826D01*
X-40190796Y-10726684D02*
X-39405082Y-10726684D01*
X-39405082Y-10726684D02*
X-39262225Y-10655255D01*
X-39262225Y-10655255D02*
X-39190796Y-10512398D01*
X-39190796Y-10512398D02*
X-39190796Y-10298112D01*
X-39190796Y-10298112D02*
X-39262225Y-10155255D01*
X-39262225Y-10155255D02*
X-39333653Y-10083826D01*
X-40190796Y-12083827D02*
X-39405082Y-12083827D01*
X-39405082Y-12083827D02*
X-39262225Y-12012398D01*
X-39262225Y-12012398D02*
X-39190796Y-11869541D01*
X-39190796Y-11869541D02*
X-39190796Y-11583827D01*
X-39190796Y-11583827D02*
X-39262225Y-11440969D01*
X-40119368Y-12083827D02*
X-40190796Y-11940969D01*
X-40190796Y-11940969D02*
X-40190796Y-11583827D01*
X-40190796Y-11583827D02*
X-40119368Y-11440969D01*
X-40119368Y-11440969D02*
X-39976510Y-11369541D01*
X-39976510Y-11369541D02*
X-39833653Y-11369541D01*
X-39833653Y-11369541D02*
X-39690796Y-11440969D01*
X-39690796Y-11440969D02*
X-39619368Y-11583827D01*
X-39619368Y-11583827D02*
X-39619368Y-11940969D01*
X-39619368Y-11940969D02*
X-39547939Y-12083827D01*
X-40190796Y-12798112D02*
X-39190796Y-12798112D01*
X-39476510Y-12798112D02*
X-39333653Y-12869541D01*
X-39333653Y-12869541D02*
X-39262225Y-12940970D01*
X-39262225Y-12940970D02*
X-39190796Y-13083827D01*
X-39190796Y-13083827D02*
X-39190796Y-13226684D01*
X-40190796Y-13940969D02*
X-40119368Y-13798112D01*
X-40119368Y-13798112D02*
X-39976510Y-13726683D01*
X-39976510Y-13726683D02*
X-38690796Y-13726683D01*
X-40190796Y-14512397D02*
X-39190796Y-14512397D01*
X-38690796Y-14512397D02*
X-38762225Y-14440969D01*
X-38762225Y-14440969D02*
X-38833653Y-14512397D01*
X-38833653Y-14512397D02*
X-38762225Y-14583826D01*
X-38762225Y-14583826D02*
X-38690796Y-14512397D01*
X-38690796Y-14512397D02*
X-38833653Y-14512397D01*
X-40119368Y-15798112D02*
X-40190796Y-15655255D01*
X-40190796Y-15655255D02*
X-40190796Y-15369541D01*
X-40190796Y-15369541D02*
X-40119368Y-15226683D01*
X-40119368Y-15226683D02*
X-39976510Y-15155255D01*
X-39976510Y-15155255D02*
X-39405082Y-15155255D01*
X-39405082Y-15155255D02*
X-39262225Y-15226683D01*
X-39262225Y-15226683D02*
X-39190796Y-15369541D01*
X-39190796Y-15369541D02*
X-39190796Y-15655255D01*
X-39190796Y-15655255D02*
X-39262225Y-15798112D01*
X-39262225Y-15798112D02*
X-39405082Y-15869541D01*
X-39405082Y-15869541D02*
X-39547939Y-15869541D01*
X-39547939Y-15869541D02*
X-39690796Y-15155255D01*
X-40119368Y-16440969D02*
X-40190796Y-16655255D01*
X-40190796Y-16655255D02*
X-40190796Y-17012397D01*
X-40190796Y-17012397D02*
X-40119368Y-17155255D01*
X-40119368Y-17155255D02*
X-40047939Y-17226683D01*
X-40047939Y-17226683D02*
X-39905082Y-17298112D01*
X-39905082Y-17298112D02*
X-39762225Y-17298112D01*
X-39762225Y-17298112D02*
X-39619368Y-17226683D01*
X-39619368Y-17226683D02*
X-39547939Y-17155255D01*
X-39547939Y-17155255D02*
X-39476510Y-17012397D01*
X-39476510Y-17012397D02*
X-39405082Y-16726683D01*
X-39405082Y-16726683D02*
X-39333653Y-16583826D01*
X-39333653Y-16583826D02*
X-39262225Y-16512397D01*
X-39262225Y-16512397D02*
X-39119368Y-16440969D01*
X-39119368Y-16440969D02*
X-38976510Y-16440969D01*
X-38976510Y-16440969D02*
X-38833653Y-16512397D01*
X-38833653Y-16512397D02*
X-38762225Y-16583826D01*
X-38762225Y-16583826D02*
X-38690796Y-16726683D01*
X-38690796Y-16726683D02*
X-38690796Y-17083826D01*
X-38690796Y-17083826D02*
X-38762225Y-17298112D01*
X-39190796Y-17798111D02*
X-40190796Y-18083826D01*
X-40190796Y-18083826D02*
X-39476510Y-18369540D01*
X-39476510Y-18369540D02*
X-40190796Y-18655254D01*
X-40190796Y-18655254D02*
X-39190796Y-18940968D01*
X-40190796Y-19512397D02*
X-39190796Y-19512397D01*
X-38690796Y-19512397D02*
X-38762225Y-19440969D01*
X-38762225Y-19440969D02*
X-38833653Y-19512397D01*
X-38833653Y-19512397D02*
X-38762225Y-19583826D01*
X-38762225Y-19583826D02*
X-38690796Y-19512397D01*
X-38690796Y-19512397D02*
X-38833653Y-19512397D01*
X-39190796Y-20012398D02*
X-39190796Y-20583826D01*
X-38690796Y-20226683D02*
X-39976510Y-20226683D01*
X-39976510Y-20226683D02*
X-40119368Y-20298112D01*
X-40119368Y-20298112D02*
X-40190796Y-20440969D01*
X-40190796Y-20440969D02*
X-40190796Y-20583826D01*
X-40119368Y-21726684D02*
X-40190796Y-21583826D01*
X-40190796Y-21583826D02*
X-40190796Y-21298112D01*
X-40190796Y-21298112D02*
X-40119368Y-21155255D01*
X-40119368Y-21155255D02*
X-40047939Y-21083826D01*
X-40047939Y-21083826D02*
X-39905082Y-21012398D01*
X-39905082Y-21012398D02*
X-39476510Y-21012398D01*
X-39476510Y-21012398D02*
X-39333653Y-21083826D01*
X-39333653Y-21083826D02*
X-39262225Y-21155255D01*
X-39262225Y-21155255D02*
X-39190796Y-21298112D01*
X-39190796Y-21298112D02*
X-39190796Y-21583826D01*
X-39190796Y-21583826D02*
X-39262225Y-21726684D01*
X-40190796Y-22369540D02*
X-38690796Y-22369540D01*
X-40190796Y-23012398D02*
X-39405082Y-23012398D01*
X-39405082Y-23012398D02*
X-39262225Y-22940969D01*
X-39262225Y-22940969D02*
X-39190796Y-22798112D01*
X-39190796Y-22798112D02*
X-39190796Y-22583826D01*
X-39190796Y-22583826D02*
X-39262225Y-22440969D01*
X-39262225Y-22440969D02*
X-39333653Y-22369540D01*
X-39190796Y-24726683D02*
X-40190796Y-25083826D01*
X-40190796Y-25083826D02*
X-39190796Y-25440969D01*
X-40190796Y-26798112D02*
X-40190796Y-25940969D01*
X-40190796Y-26369540D02*
X-38690796Y-26369540D01*
X-38690796Y-26369540D02*
X-38905082Y-26226683D01*
X-38905082Y-26226683D02*
X-39047939Y-26083826D01*
X-39047939Y-26083826D02*
X-39119368Y-25940969D01*
X-41105712Y-8369541D02*
X-41105712Y-9226684D01*
X-42605712Y-8798112D02*
X-41105712Y-8798112D01*
X-42605712Y-10369541D02*
X-41819998Y-10369541D01*
X-41819998Y-10369541D02*
X-41677141Y-10298112D01*
X-41677141Y-10298112D02*
X-41605712Y-10155255D01*
X-41605712Y-10155255D02*
X-41605712Y-9869541D01*
X-41605712Y-9869541D02*
X-41677141Y-9726683D01*
X-42534284Y-10369541D02*
X-42605712Y-10226683D01*
X-42605712Y-10226683D02*
X-42605712Y-9869541D01*
X-42605712Y-9869541D02*
X-42534284Y-9726683D01*
X-42534284Y-9726683D02*
X-42391426Y-9655255D01*
X-42391426Y-9655255D02*
X-42248569Y-9655255D01*
X-42248569Y-9655255D02*
X-42105712Y-9726683D01*
X-42105712Y-9726683D02*
X-42034284Y-9869541D01*
X-42034284Y-9869541D02*
X-42034284Y-10226683D01*
X-42034284Y-10226683D02*
X-41962855Y-10369541D01*
X-42605712Y-11083826D02*
X-41605712Y-11083826D01*
X-41105712Y-11083826D02*
X-41177141Y-11012398D01*
X-41177141Y-11012398D02*
X-41248569Y-11083826D01*
X-41248569Y-11083826D02*
X-41177141Y-11155255D01*
X-41177141Y-11155255D02*
X-41105712Y-11083826D01*
X-41105712Y-11083826D02*
X-41248569Y-11083826D01*
X-41605712Y-11583827D02*
X-41605712Y-12155255D01*
X-41105712Y-11798112D02*
X-42391426Y-11798112D01*
X-42391426Y-11798112D02*
X-42534284Y-11869541D01*
X-42534284Y-11869541D02*
X-42605712Y-12012398D01*
X-42605712Y-12012398D02*
X-42605712Y-12155255D01*
X-42605712Y-13798112D02*
X-41105712Y-13798112D01*
X-41105712Y-13798112D02*
X-41105712Y-14369541D01*
X-41105712Y-14369541D02*
X-41177141Y-14512398D01*
X-41177141Y-14512398D02*
X-41248569Y-14583827D01*
X-41248569Y-14583827D02*
X-41391426Y-14655255D01*
X-41391426Y-14655255D02*
X-41605712Y-14655255D01*
X-41605712Y-14655255D02*
X-41748569Y-14583827D01*
X-41748569Y-14583827D02*
X-41819998Y-14512398D01*
X-41819998Y-14512398D02*
X-41891426Y-14369541D01*
X-41891426Y-14369541D02*
X-41891426Y-13798112D01*
X-42605712Y-15298112D02*
X-41105712Y-15298112D01*
X-42605712Y-15940970D02*
X-41819998Y-15940970D01*
X-41819998Y-15940970D02*
X-41677141Y-15869541D01*
X-41677141Y-15869541D02*
X-41605712Y-15726684D01*
X-41605712Y-15726684D02*
X-41605712Y-15512398D01*
X-41605712Y-15512398D02*
X-41677141Y-15369541D01*
X-41677141Y-15369541D02*
X-41748569Y-15298112D01*
X-42605712Y-16869541D02*
X-42534284Y-16726684D01*
X-42534284Y-16726684D02*
X-42462855Y-16655255D01*
X-42462855Y-16655255D02*
X-42319998Y-16583827D01*
X-42319998Y-16583827D02*
X-41891426Y-16583827D01*
X-41891426Y-16583827D02*
X-41748569Y-16655255D01*
X-41748569Y-16655255D02*
X-41677141Y-16726684D01*
X-41677141Y-16726684D02*
X-41605712Y-16869541D01*
X-41605712Y-16869541D02*
X-41605712Y-17083827D01*
X-41605712Y-17083827D02*
X-41677141Y-17226684D01*
X-41677141Y-17226684D02*
X-41748569Y-17298113D01*
X-41748569Y-17298113D02*
X-41891426Y-17369541D01*
X-41891426Y-17369541D02*
X-42319998Y-17369541D01*
X-42319998Y-17369541D02*
X-42462855Y-17298113D01*
X-42462855Y-17298113D02*
X-42534284Y-17226684D01*
X-42534284Y-17226684D02*
X-42605712Y-17083827D01*
X-42605712Y-17083827D02*
X-42605712Y-16869541D01*
X-41605712Y-17798113D02*
X-41605712Y-18369541D01*
X-41105712Y-18012398D02*
X-42391426Y-18012398D01*
X-42391426Y-18012398D02*
X-42534284Y-18083827D01*
X-42534284Y-18083827D02*
X-42605712Y-18226684D01*
X-42605712Y-18226684D02*
X-42605712Y-18369541D01*
X-42605712Y-19083827D02*
X-42534284Y-18940970D01*
X-42534284Y-18940970D02*
X-42462855Y-18869541D01*
X-42462855Y-18869541D02*
X-42319998Y-18798113D01*
X-42319998Y-18798113D02*
X-41891426Y-18798113D01*
X-41891426Y-18798113D02*
X-41748569Y-18869541D01*
X-41748569Y-18869541D02*
X-41677141Y-18940970D01*
X-41677141Y-18940970D02*
X-41605712Y-19083827D01*
X-41605712Y-19083827D02*
X-41605712Y-19298113D01*
X-41605712Y-19298113D02*
X-41677141Y-19440970D01*
X-41677141Y-19440970D02*
X-41748569Y-19512399D01*
X-41748569Y-19512399D02*
X-41891426Y-19583827D01*
X-41891426Y-19583827D02*
X-42319998Y-19583827D01*
X-42319998Y-19583827D02*
X-42462855Y-19512399D01*
X-42462855Y-19512399D02*
X-42534284Y-19440970D01*
X-42534284Y-19440970D02*
X-42605712Y-19298113D01*
X-42605712Y-19298113D02*
X-42605712Y-19083827D01*
X-41605712Y-20226684D02*
X-42605712Y-20226684D01*
X-41748569Y-20226684D02*
X-41677141Y-20298113D01*
X-41677141Y-20298113D02*
X-41605712Y-20440970D01*
X-41605712Y-20440970D02*
X-41605712Y-20655256D01*
X-41605712Y-20655256D02*
X-41677141Y-20798113D01*
X-41677141Y-20798113D02*
X-41819998Y-20869542D01*
X-41819998Y-20869542D02*
X-42605712Y-20869542D01*
X-42605712Y-23440970D02*
X-42605712Y-22726684D01*
X-42605712Y-22726684D02*
X-41105712Y-22726684D01*
X-42605712Y-24583828D02*
X-41819998Y-24583828D01*
X-41819998Y-24583828D02*
X-41677141Y-24512399D01*
X-41677141Y-24512399D02*
X-41605712Y-24369542D01*
X-41605712Y-24369542D02*
X-41605712Y-24083828D01*
X-41605712Y-24083828D02*
X-41677141Y-23940970D01*
X-42534284Y-24583828D02*
X-42605712Y-24440970D01*
X-42605712Y-24440970D02*
X-42605712Y-24083828D01*
X-42605712Y-24083828D02*
X-42534284Y-23940970D01*
X-42534284Y-23940970D02*
X-42391426Y-23869542D01*
X-42391426Y-23869542D02*
X-42248569Y-23869542D01*
X-42248569Y-23869542D02*
X-42105712Y-23940970D01*
X-42105712Y-23940970D02*
X-42034284Y-24083828D01*
X-42034284Y-24083828D02*
X-42034284Y-24440970D01*
X-42034284Y-24440970D02*
X-41962855Y-24583828D01*
X-42605712Y-25298113D02*
X-41105712Y-25298113D01*
X-41677141Y-25298113D02*
X-41605712Y-25440971D01*
X-41605712Y-25440971D02*
X-41605712Y-25726685D01*
X-41605712Y-25726685D02*
X-41677141Y-25869542D01*
X-41677141Y-25869542D02*
X-41748569Y-25940971D01*
X-41748569Y-25940971D02*
X-41891426Y-26012399D01*
X-41891426Y-26012399D02*
X-42319998Y-26012399D01*
X-42319998Y-26012399D02*
X-42462855Y-25940971D01*
X-42462855Y-25940971D02*
X-42534284Y-25869542D01*
X-42534284Y-25869542D02*
X-42605712Y-25726685D01*
X-42605712Y-25726685D02*
X-42605712Y-25440971D01*
X-42605712Y-25440971D02*
X-42534284Y-25298113D01*
X-43520628Y-8440969D02*
X-43520628Y-9440969D01*
X-43520628Y-9440969D02*
X-45020628Y-8798112D01*
X-43449200Y-11083826D02*
X-45377771Y-9798112D01*
X-43663485Y-11512398D02*
X-43592057Y-11583826D01*
X-43592057Y-11583826D02*
X-43520628Y-11726684D01*
X-43520628Y-11726684D02*
X-43520628Y-12083826D01*
X-43520628Y-12083826D02*
X-43592057Y-12226684D01*
X-43592057Y-12226684D02*
X-43663485Y-12298112D01*
X-43663485Y-12298112D02*
X-43806342Y-12369541D01*
X-43806342Y-12369541D02*
X-43949200Y-12369541D01*
X-43949200Y-12369541D02*
X-44163485Y-12298112D01*
X-44163485Y-12298112D02*
X-45020628Y-11440969D01*
X-45020628Y-11440969D02*
X-45020628Y-12369541D01*
X-44020628Y-13655255D02*
X-45020628Y-13655255D01*
X-43449200Y-13298112D02*
X-44520628Y-12940969D01*
X-44520628Y-12940969D02*
X-44520628Y-13869540D01*
X47516942Y-19339160D02*
X47564561Y-19386779D01*
X47564561Y-19386779D02*
X47612180Y-19482017D01*
X47612180Y-19482017D02*
X47612180Y-19720112D01*
X47612180Y-19720112D02*
X47564561Y-19815350D01*
X47564561Y-19815350D02*
X47516942Y-19862969D01*
X47516942Y-19862969D02*
X47421704Y-19910588D01*
X47421704Y-19910588D02*
X47326466Y-19910588D01*
X47326466Y-19910588D02*
X47183609Y-19862969D01*
X47183609Y-19862969D02*
X46612180Y-19291541D01*
X46612180Y-19291541D02*
X46612180Y-19910588D01*
X47612180Y-20529636D02*
X47612180Y-20624874D01*
X47612180Y-20624874D02*
X47564561Y-20720112D01*
X47564561Y-20720112D02*
X47516942Y-20767731D01*
X47516942Y-20767731D02*
X47421704Y-20815350D01*
X47421704Y-20815350D02*
X47231228Y-20862969D01*
X47231228Y-20862969D02*
X46993133Y-20862969D01*
X46993133Y-20862969D02*
X46802657Y-20815350D01*
X46802657Y-20815350D02*
X46707419Y-20767731D01*
X46707419Y-20767731D02*
X46659800Y-20720112D01*
X46659800Y-20720112D02*
X46612180Y-20624874D01*
X46612180Y-20624874D02*
X46612180Y-20529636D01*
X46612180Y-20529636D02*
X46659800Y-20434398D01*
X46659800Y-20434398D02*
X46707419Y-20386779D01*
X46707419Y-20386779D02*
X46802657Y-20339160D01*
X46802657Y-20339160D02*
X46993133Y-20291541D01*
X46993133Y-20291541D02*
X47231228Y-20291541D01*
X47231228Y-20291541D02*
X47421704Y-20339160D01*
X47421704Y-20339160D02*
X47516942Y-20386779D01*
X47516942Y-20386779D02*
X47564561Y-20434398D01*
X47564561Y-20434398D02*
X47612180Y-20529636D01*
X46612180Y19459411D02*
X46612180Y20030839D01*
X46612180Y19745125D02*
X47612180Y19745125D01*
X47612180Y19745125D02*
X47469323Y19840363D01*
X47469323Y19840363D02*
X47374085Y19935601D01*
X47374085Y19935601D02*
X47326466Y20030839D01*
X-39557712Y23155255D02*
X-38057712Y23155255D01*
X-38057712Y23155255D02*
X-39557712Y22298112D01*
X-39557712Y22298112D02*
X-38057712Y22298112D01*
X-39557712Y21369540D02*
X-39486284Y21512397D01*
X-39486284Y21512397D02*
X-39414855Y21583826D01*
X-39414855Y21583826D02*
X-39271998Y21655254D01*
X-39271998Y21655254D02*
X-38843426Y21655254D01*
X-38843426Y21655254D02*
X-38700569Y21583826D01*
X-38700569Y21583826D02*
X-38629141Y21512397D01*
X-38629141Y21512397D02*
X-38557712Y21369540D01*
X-38557712Y21369540D02*
X-38557712Y21155254D01*
X-38557712Y21155254D02*
X-38629141Y21012397D01*
X-38629141Y21012397D02*
X-38700569Y20940969D01*
X-38700569Y20940969D02*
X-38843426Y20869540D01*
X-38843426Y20869540D02*
X-39271998Y20869540D01*
X-39271998Y20869540D02*
X-39414855Y20940969D01*
X-39414855Y20940969D02*
X-39486284Y21012397D01*
X-39486284Y21012397D02*
X-39557712Y21155254D01*
X-39557712Y21155254D02*
X-39557712Y21369540D01*
X-39557712Y20226683D02*
X-38557712Y20226683D01*
X-38843426Y20226683D02*
X-38700569Y20155254D01*
X-38700569Y20155254D02*
X-38629141Y20083826D01*
X-38629141Y20083826D02*
X-38557712Y19940968D01*
X-38557712Y19940968D02*
X-38557712Y19798111D01*
X-38557712Y19512397D02*
X-38557712Y18940969D01*
X-38057712Y19298112D02*
X-39343426Y19298112D01*
X-39343426Y19298112D02*
X-39486284Y19226683D01*
X-39486284Y19226683D02*
X-39557712Y19083826D01*
X-39557712Y19083826D02*
X-39557712Y18940969D01*
X-39557712Y18440969D02*
X-38057712Y18440969D01*
X-39557712Y17798112D02*
X-38771998Y17798112D01*
X-38771998Y17798112D02*
X-38629141Y17869540D01*
X-38629141Y17869540D02*
X-38557712Y18012397D01*
X-38557712Y18012397D02*
X-38557712Y18226683D01*
X-38557712Y18226683D02*
X-38629141Y18369540D01*
X-38629141Y18369540D02*
X-38700569Y18440969D01*
X-38771998Y15940969D02*
X-38771998Y14798112D01*
X-39200569Y14798112D02*
X-39200569Y15940969D01*
X-39414855Y12083826D02*
X-39486284Y12155254D01*
X-39486284Y12155254D02*
X-39557712Y12369540D01*
X-39557712Y12369540D02*
X-39557712Y12512397D01*
X-39557712Y12512397D02*
X-39486284Y12726683D01*
X-39486284Y12726683D02*
X-39343426Y12869540D01*
X-39343426Y12869540D02*
X-39200569Y12940969D01*
X-39200569Y12940969D02*
X-38914855Y13012397D01*
X-38914855Y13012397D02*
X-38700569Y13012397D01*
X-38700569Y13012397D02*
X-38414855Y12940969D01*
X-38414855Y12940969D02*
X-38271998Y12869540D01*
X-38271998Y12869540D02*
X-38129141Y12726683D01*
X-38129141Y12726683D02*
X-38057712Y12512397D01*
X-38057712Y12512397D02*
X-38057712Y12369540D01*
X-38057712Y12369540D02*
X-38129141Y12155254D01*
X-38129141Y12155254D02*
X-38200569Y12083826D01*
X-39557712Y11226683D02*
X-39486284Y11369540D01*
X-39486284Y11369540D02*
X-39414855Y11440969D01*
X-39414855Y11440969D02*
X-39271998Y11512397D01*
X-39271998Y11512397D02*
X-38843426Y11512397D01*
X-38843426Y11512397D02*
X-38700569Y11440969D01*
X-38700569Y11440969D02*
X-38629141Y11369540D01*
X-38629141Y11369540D02*
X-38557712Y11226683D01*
X-38557712Y11226683D02*
X-38557712Y11012397D01*
X-38557712Y11012397D02*
X-38629141Y10869540D01*
X-38629141Y10869540D02*
X-38700569Y10798112D01*
X-38700569Y10798112D02*
X-38843426Y10726683D01*
X-38843426Y10726683D02*
X-39271998Y10726683D01*
X-39271998Y10726683D02*
X-39414855Y10798112D01*
X-39414855Y10798112D02*
X-39486284Y10869540D01*
X-39486284Y10869540D02*
X-39557712Y11012397D01*
X-39557712Y11012397D02*
X-39557712Y11226683D01*
X-39557712Y10083826D02*
X-38557712Y10083826D01*
X-38843426Y10083826D02*
X-38700569Y10012397D01*
X-38700569Y10012397D02*
X-38629141Y9940969D01*
X-38629141Y9940969D02*
X-38557712Y9798111D01*
X-38557712Y9798111D02*
X-38557712Y9655254D01*
X-39486284Y8583826D02*
X-39557712Y8726683D01*
X-39557712Y8726683D02*
X-39557712Y9012398D01*
X-39557712Y9012398D02*
X-39486284Y9155255D01*
X-39486284Y9155255D02*
X-39343426Y9226683D01*
X-39343426Y9226683D02*
X-38771998Y9226683D01*
X-38771998Y9226683D02*
X-38629141Y9155255D01*
X-38629141Y9155255D02*
X-38557712Y9012398D01*
X-38557712Y9012398D02*
X-38557712Y8726683D01*
X-38557712Y8726683D02*
X-38629141Y8583826D01*
X-38629141Y8583826D02*
X-38771998Y8512398D01*
X-38771998Y8512398D02*
X-38914855Y8512398D01*
X-38914855Y8512398D02*
X-39057712Y9226683D01*
X-41901200Y23440969D02*
X-41972628Y23226684D01*
X-41972628Y23226684D02*
X-41972628Y22869541D01*
X-41972628Y22869541D02*
X-41901200Y22726684D01*
X-41901200Y22726684D02*
X-41829771Y22655255D01*
X-41829771Y22655255D02*
X-41686914Y22583826D01*
X-41686914Y22583826D02*
X-41544057Y22583826D01*
X-41544057Y22583826D02*
X-41401200Y22655255D01*
X-41401200Y22655255D02*
X-41329771Y22726684D01*
X-41329771Y22726684D02*
X-41258342Y22869541D01*
X-41258342Y22869541D02*
X-41186914Y23155255D01*
X-41186914Y23155255D02*
X-41115485Y23298112D01*
X-41115485Y23298112D02*
X-41044057Y23369541D01*
X-41044057Y23369541D02*
X-40901200Y23440969D01*
X-40901200Y23440969D02*
X-40758342Y23440969D01*
X-40758342Y23440969D02*
X-40615485Y23369541D01*
X-40615485Y23369541D02*
X-40544057Y23298112D01*
X-40544057Y23298112D02*
X-40472628Y23155255D01*
X-40472628Y23155255D02*
X-40472628Y22798112D01*
X-40472628Y22798112D02*
X-40544057Y22583826D01*
X-41972628Y21726684D02*
X-41901200Y21869541D01*
X-41901200Y21869541D02*
X-41829771Y21940970D01*
X-41829771Y21940970D02*
X-41686914Y22012398D01*
X-41686914Y22012398D02*
X-41258342Y22012398D01*
X-41258342Y22012398D02*
X-41115485Y21940970D01*
X-41115485Y21940970D02*
X-41044057Y21869541D01*
X-41044057Y21869541D02*
X-40972628Y21726684D01*
X-40972628Y21726684D02*
X-40972628Y21512398D01*
X-40972628Y21512398D02*
X-41044057Y21369541D01*
X-41044057Y21369541D02*
X-41115485Y21298113D01*
X-41115485Y21298113D02*
X-41258342Y21226684D01*
X-41258342Y21226684D02*
X-41686914Y21226684D01*
X-41686914Y21226684D02*
X-41829771Y21298113D01*
X-41829771Y21298113D02*
X-41901200Y21369541D01*
X-41901200Y21369541D02*
X-41972628Y21512398D01*
X-41972628Y21512398D02*
X-41972628Y21726684D01*
X-40972628Y19940970D02*
X-41972628Y19940970D01*
X-40972628Y20583827D02*
X-41758342Y20583827D01*
X-41758342Y20583827D02*
X-41901200Y20512398D01*
X-41901200Y20512398D02*
X-41972628Y20369541D01*
X-41972628Y20369541D02*
X-41972628Y20155255D01*
X-41972628Y20155255D02*
X-41901200Y20012398D01*
X-41901200Y20012398D02*
X-41829771Y19940970D01*
X-40972628Y19440969D02*
X-40972628Y18869541D01*
X-40472628Y19226684D02*
X-41758342Y19226684D01*
X-41758342Y19226684D02*
X-41901200Y19155255D01*
X-41901200Y19155255D02*
X-41972628Y19012398D01*
X-41972628Y19012398D02*
X-41972628Y18869541D01*
X-41972628Y18369541D02*
X-40472628Y18369541D01*
X-41972628Y17726684D02*
X-41186914Y17726684D01*
X-41186914Y17726684D02*
X-41044057Y17798112D01*
X-41044057Y17798112D02*
X-40972628Y17940969D01*
X-40972628Y17940969D02*
X-40972628Y18155255D01*
X-40972628Y18155255D02*
X-41044057Y18298112D01*
X-41044057Y18298112D02*
X-41115485Y18369541D01*
X-41186914Y15869541D02*
X-41186914Y14726684D01*
X-41615485Y14726684D02*
X-41615485Y15869541D01*
X-41829771Y12012398D02*
X-41901200Y12083826D01*
X-41901200Y12083826D02*
X-41972628Y12298112D01*
X-41972628Y12298112D02*
X-41972628Y12440969D01*
X-41972628Y12440969D02*
X-41901200Y12655255D01*
X-41901200Y12655255D02*
X-41758342Y12798112D01*
X-41758342Y12798112D02*
X-41615485Y12869541D01*
X-41615485Y12869541D02*
X-41329771Y12940969D01*
X-41329771Y12940969D02*
X-41115485Y12940969D01*
X-41115485Y12940969D02*
X-40829771Y12869541D01*
X-40829771Y12869541D02*
X-40686914Y12798112D01*
X-40686914Y12798112D02*
X-40544057Y12655255D01*
X-40544057Y12655255D02*
X-40472628Y12440969D01*
X-40472628Y12440969D02*
X-40472628Y12298112D01*
X-40472628Y12298112D02*
X-40544057Y12083826D01*
X-40544057Y12083826D02*
X-40615485Y12012398D01*
X-41972628Y11155255D02*
X-41901200Y11298112D01*
X-41901200Y11298112D02*
X-41758342Y11369541D01*
X-41758342Y11369541D02*
X-40472628Y11369541D01*
X-41972628Y9940970D02*
X-41186914Y9940970D01*
X-41186914Y9940970D02*
X-41044057Y10012398D01*
X-41044057Y10012398D02*
X-40972628Y10155255D01*
X-40972628Y10155255D02*
X-40972628Y10440970D01*
X-40972628Y10440970D02*
X-41044057Y10583827D01*
X-41901200Y9940970D02*
X-41972628Y10083827D01*
X-41972628Y10083827D02*
X-41972628Y10440970D01*
X-41972628Y10440970D02*
X-41901200Y10583827D01*
X-41901200Y10583827D02*
X-41758342Y10655255D01*
X-41758342Y10655255D02*
X-41615485Y10655255D01*
X-41615485Y10655255D02*
X-41472628Y10583827D01*
X-41472628Y10583827D02*
X-41401200Y10440970D01*
X-41401200Y10440970D02*
X-41401200Y10083827D01*
X-41401200Y10083827D02*
X-41329771Y9940970D01*
X-41972628Y8583827D02*
X-40472628Y8583827D01*
X-41901200Y8583827D02*
X-41972628Y8726684D01*
X-41972628Y8726684D02*
X-41972628Y9012398D01*
X-41972628Y9012398D02*
X-41901200Y9155255D01*
X-41901200Y9155255D02*
X-41829771Y9226684D01*
X-41829771Y9226684D02*
X-41686914Y9298112D01*
X-41686914Y9298112D02*
X-41258342Y9298112D01*
X-41258342Y9298112D02*
X-41115485Y9226684D01*
X-41115485Y9226684D02*
X-41044057Y9155255D01*
X-41044057Y9155255D02*
X-40972628Y9012398D01*
X-40972628Y9012398D02*
X-40972628Y8726684D01*
X-40972628Y8726684D02*
X-41044057Y8583827D01*
X-29340111Y-36551485D02*
X-29268683Y-36480057D01*
X-29268683Y-36480057D02*
X-29125826Y-36408628D01*
X-29125826Y-36408628D02*
X-28768683Y-36408628D01*
X-28768683Y-36408628D02*
X-28625826Y-36480057D01*
X-28625826Y-36480057D02*
X-28554397Y-36551485D01*
X-28554397Y-36551485D02*
X-28482968Y-36694342D01*
X-28482968Y-36694342D02*
X-28482968Y-36837200D01*
X-28482968Y-36837200D02*
X-28554397Y-37051485D01*
X-28554397Y-37051485D02*
X-29411540Y-37908628D01*
X-29411540Y-37908628D02*
X-28482968Y-37908628D01*
X-27554397Y-36408628D02*
X-27411540Y-36408628D01*
X-27411540Y-36408628D02*
X-27268683Y-36480057D01*
X-27268683Y-36480057D02*
X-27197255Y-36551485D01*
X-27197255Y-36551485D02*
X-27125826Y-36694342D01*
X-27125826Y-36694342D02*
X-27054397Y-36980057D01*
X-27054397Y-36980057D02*
X-27054397Y-37337200D01*
X-27054397Y-37337200D02*
X-27125826Y-37622914D01*
X-27125826Y-37622914D02*
X-27197255Y-37765771D01*
X-27197255Y-37765771D02*
X-27268683Y-37837200D01*
X-27268683Y-37837200D02*
X-27411540Y-37908628D01*
X-27411540Y-37908628D02*
X-27554397Y-37908628D01*
X-27554397Y-37908628D02*
X-27697255Y-37837200D01*
X-27697255Y-37837200D02*
X-27768683Y-37765771D01*
X-27768683Y-37765771D02*
X-27840112Y-37622914D01*
X-27840112Y-37622914D02*
X-27911540Y-37337200D01*
X-27911540Y-37337200D02*
X-27911540Y-36980057D01*
X-27911540Y-36980057D02*
X-27840112Y-36694342D01*
X-27840112Y-36694342D02*
X-27768683Y-36551485D01*
X-27768683Y-36551485D02*
X-27697255Y-36480057D01*
X-27697255Y-36480057D02*
X-27554397Y-36408628D01*
X27911541Y-37908628D02*
X27054398Y-37908628D01*
X27482969Y-37908628D02*
X27482969Y-36408628D01*
X27482969Y-36408628D02*
X27340112Y-36622914D01*
X27340112Y-36622914D02*
X27197255Y-36765771D01*
X27197255Y-36765771D02*
X27054398Y-36837200D01*
D11*
G36*
X41978782Y14094004D02*
G01*
X42051071Y14021715D01*
X42128495Y13866868D01*
X42128495Y13628368D01*
X42051071Y13473521D01*
X41978782Y13401232D01*
X41823935Y13323809D01*
X41299722Y13323809D01*
X41144874Y13401232D01*
X41072584Y13473523D01*
X40995161Y13628369D01*
X40995161Y13866868D01*
X41072584Y14021714D01*
X41144874Y14094004D01*
X41299722Y14171428D01*
X41823935Y14171428D01*
X41978782Y14094004D01*
G37*
G36*
X43217139Y8806349D02*
G01*
X40572939Y8806349D01*
X40572939Y10005223D01*
X40797082Y10005223D01*
X40797082Y9966205D01*
X40812014Y9930157D01*
X40839604Y9902567D01*
X40875652Y9887635D01*
X40895161Y9885714D01*
X41996597Y9885714D01*
X42051071Y9831239D01*
X42128495Y9676392D01*
X42128495Y9437892D01*
X42058721Y9298344D01*
X41919173Y9228571D01*
X40895161Y9228571D01*
X40875652Y9226650D01*
X40839604Y9211718D01*
X40812014Y9184128D01*
X40797082Y9148080D01*
X40797082Y9109062D01*
X40812014Y9073014D01*
X40839604Y9045424D01*
X40875652Y9030492D01*
X40895161Y9028571D01*
X41942780Y9028571D01*
X41962289Y9030492D01*
X41965609Y9031867D01*
X41969193Y9032122D01*
X41987501Y9039128D01*
X42177979Y9134366D01*
X42181243Y9136420D01*
X42182780Y9136933D01*
X42184694Y9138592D01*
X42194569Y9144809D01*
X42202784Y9154281D01*
X42212257Y9162497D01*
X42218471Y9172370D01*
X42220133Y9174286D01*
X42220645Y9175824D01*
X42222700Y9179088D01*
X42317938Y9369564D01*
X42324944Y9387872D01*
X42325198Y9391455D01*
X42326574Y9394776D01*
X42328495Y9414285D01*
X42328495Y9700000D01*
X42326574Y9719509D01*
X42325198Y9722829D01*
X42324944Y9726413D01*
X42317938Y9744721D01*
X42247442Y9885714D01*
X42895161Y9885714D01*
X42914670Y9887635D01*
X42950718Y9902567D01*
X42978308Y9930157D01*
X42993240Y9966205D01*
X42993240Y10005223D01*
X42978308Y10041271D01*
X42950718Y10068861D01*
X42914670Y10083793D01*
X42895161Y10085714D01*
X40895161Y10085714D01*
X40875652Y10083793D01*
X40839604Y10068861D01*
X40812014Y10041271D01*
X40797082Y10005223D01*
X40572939Y10005223D01*
X40572939Y10842857D01*
X40795161Y10842857D01*
X40795161Y10652381D01*
X40797082Y10632872D01*
X40812014Y10596824D01*
X40839604Y10569234D01*
X40875652Y10554302D01*
X40914670Y10554302D01*
X40950718Y10569234D01*
X40978308Y10596824D01*
X40993240Y10632872D01*
X40995161Y10652381D01*
X40995161Y10819249D01*
X41064934Y10958796D01*
X41204484Y11028571D01*
X42128495Y11028571D01*
X42128495Y10652381D01*
X42130416Y10632872D01*
X42145348Y10596824D01*
X42172938Y10569234D01*
X42208986Y10554302D01*
X42248004Y10554302D01*
X42284052Y10569234D01*
X42311642Y10596824D01*
X42326574Y10632872D01*
X42328495Y10652381D01*
X42328495Y11028571D01*
X42895161Y11028571D01*
X42914670Y11030492D01*
X42950718Y11045424D01*
X42978308Y11073014D01*
X42993240Y11109062D01*
X42993240Y11148080D01*
X42978308Y11184128D01*
X42950718Y11211718D01*
X42914670Y11226650D01*
X42895161Y11228571D01*
X42328495Y11228571D01*
X42328495Y11414285D01*
X42326574Y11433794D01*
X42311642Y11469842D01*
X42284052Y11497432D01*
X42248004Y11512364D01*
X42208986Y11512364D01*
X42172938Y11497432D01*
X42145348Y11469842D01*
X42130416Y11433794D01*
X42128495Y11414285D01*
X42128495Y11228571D01*
X41180876Y11228571D01*
X41161367Y11226650D01*
X41158046Y11225274D01*
X41154463Y11225020D01*
X41136155Y11218014D01*
X40945679Y11122776D01*
X40942415Y11120721D01*
X40940877Y11120209D01*
X40938961Y11118547D01*
X40929088Y11112333D01*
X40920872Y11102860D01*
X40911400Y11094645D01*
X40905183Y11084770D01*
X40903524Y11082856D01*
X40903011Y11081319D01*
X40900957Y11078055D01*
X40805718Y10887579D01*
X40798712Y10869270D01*
X40798457Y10865686D01*
X40797082Y10862366D01*
X40795161Y10842857D01*
X40572939Y10842857D01*
X40572939Y12386175D01*
X40797082Y12386175D01*
X40797082Y12347157D01*
X40812014Y12311109D01*
X40839604Y12283519D01*
X40875652Y12268587D01*
X40895161Y12266666D01*
X41823935Y12266666D01*
X41978782Y12189242D01*
X42051071Y12116953D01*
X42128495Y11962106D01*
X42128495Y11795237D01*
X42130416Y11775728D01*
X42145348Y11739680D01*
X42172938Y11712090D01*
X42208986Y11697158D01*
X42248004Y11697158D01*
X42284052Y11712090D01*
X42311642Y11739680D01*
X42326574Y11775728D01*
X42328495Y11795237D01*
X42328495Y11985714D01*
X42326574Y12005223D01*
X42325198Y12008543D01*
X42324944Y12012127D01*
X42317938Y12030435D01*
X42222700Y12220911D01*
X42217413Y12229309D01*
X42216404Y12231747D01*
X42214152Y12234490D01*
X42212257Y12237502D01*
X42210259Y12239234D01*
X42203968Y12246901D01*
X42184203Y12266666D01*
X42228495Y12266666D01*
X42248004Y12268587D01*
X42284052Y12283519D01*
X42311642Y12311109D01*
X42326574Y12347157D01*
X42326574Y12386175D01*
X42311642Y12422223D01*
X42284052Y12449813D01*
X42248004Y12464745D01*
X42228495Y12466666D01*
X40895161Y12466666D01*
X40875652Y12464745D01*
X40839604Y12449813D01*
X40812014Y12422223D01*
X40797082Y12386175D01*
X40572939Y12386175D01*
X40572939Y13890476D01*
X40795161Y13890476D01*
X40795161Y13604761D01*
X40797082Y13585252D01*
X40798457Y13581931D01*
X40798712Y13578348D01*
X40805718Y13560039D01*
X40900957Y13369563D01*
X40906243Y13361164D01*
X40907253Y13358728D01*
X40909504Y13355984D01*
X40911400Y13352973D01*
X40913397Y13351240D01*
X40919689Y13343574D01*
X41014927Y13248336D01*
X41022593Y13242044D01*
X41024326Y13240047D01*
X41027337Y13238151D01*
X41030081Y13235900D01*
X41032518Y13234890D01*
X41040917Y13229604D01*
X41231393Y13134366D01*
X41249701Y13127360D01*
X41253284Y13127105D01*
X41256605Y13125730D01*
X41276114Y13123809D01*
X41847542Y13123809D01*
X41867051Y13125730D01*
X41870371Y13127105D01*
X41873955Y13127360D01*
X41892263Y13134366D01*
X42082741Y13229604D01*
X42091139Y13234890D01*
X42093576Y13235900D01*
X42096319Y13238151D01*
X42099331Y13240047D01*
X42101063Y13242044D01*
X42108730Y13248336D01*
X42203968Y13343574D01*
X42210259Y13351240D01*
X42212257Y13352973D01*
X42214152Y13355984D01*
X42216404Y13358728D01*
X42217413Y13361165D01*
X42222700Y13369564D01*
X42317938Y13560040D01*
X42324944Y13578348D01*
X42325198Y13581931D01*
X42326574Y13585252D01*
X42328495Y13604761D01*
X42328495Y13890476D01*
X42326574Y13909985D01*
X42325198Y13913305D01*
X42324944Y13916889D01*
X42317938Y13935197D01*
X42222700Y14125673D01*
X42217413Y14134071D01*
X42216404Y14136509D01*
X42214152Y14139252D01*
X42212257Y14142264D01*
X42210259Y14143996D01*
X42203968Y14151663D01*
X42108730Y14246901D01*
X42101063Y14253192D01*
X42099331Y14255190D01*
X42096319Y14257085D01*
X42093576Y14259337D01*
X42091139Y14260346D01*
X42082741Y14265633D01*
X41892263Y14360871D01*
X41873955Y14367877D01*
X41870371Y14368131D01*
X41867051Y14369507D01*
X41847542Y14371428D01*
X41276114Y14371428D01*
X41256605Y14369507D01*
X41253284Y14368131D01*
X41249701Y14367877D01*
X41231393Y14360871D01*
X41040917Y14265633D01*
X41032518Y14260346D01*
X41030081Y14259337D01*
X41027337Y14257085D01*
X41024326Y14255190D01*
X41022593Y14253192D01*
X41014927Y14246901D01*
X40919689Y14151663D01*
X40913397Y14143996D01*
X40911400Y14142264D01*
X40909504Y14139252D01*
X40907253Y14136509D01*
X40906243Y14134072D01*
X40900957Y14125674D01*
X40805718Y13935198D01*
X40798712Y13916889D01*
X40798457Y13913305D01*
X40797082Y13909985D01*
X40795161Y13890476D01*
X40572939Y13890476D01*
X40572939Y15135556D01*
X40795405Y15135556D01*
X40797082Y15122362D01*
X40797082Y15109062D01*
X40799521Y15103173D01*
X40800325Y15096849D01*
X40806925Y15085299D01*
X40812014Y15073014D01*
X40816521Y15068506D01*
X40819684Y15062972D01*
X40830198Y15054829D01*
X40839604Y15045424D01*
X40845494Y15042984D01*
X40850533Y15039082D01*
X40863361Y15035583D01*
X40875652Y15030492D01*
X40885629Y15029509D01*
X40888176Y15028815D01*
X40890143Y15029065D01*
X40895161Y15028571D01*
X42895161Y15028571D01*
X42914670Y15030492D01*
X42950718Y15045424D01*
X42978308Y15073014D01*
X42993240Y15109062D01*
X42993240Y15148080D01*
X42978308Y15184128D01*
X42950718Y15211718D01*
X42914670Y15226650D01*
X42895161Y15228571D01*
X41271717Y15228571D01*
X42944775Y16184604D01*
X42948885Y16187522D01*
X42950718Y16188281D01*
X42952584Y16190147D01*
X42960760Y16195951D01*
X42968902Y16206465D01*
X42978308Y16215871D01*
X42980747Y16221761D01*
X42984650Y16226800D01*
X42988148Y16239628D01*
X42993240Y16251919D01*
X42993240Y16258294D01*
X42994917Y16264443D01*
X42993240Y16277633D01*
X42993240Y16290937D01*
X42990799Y16296828D01*
X42989996Y16303150D01*
X42983398Y16314695D01*
X42978308Y16326985D01*
X42973800Y16331492D01*
X42970638Y16337027D01*
X42960123Y16345169D01*
X42950718Y16354575D01*
X42944827Y16357014D01*
X42939789Y16360917D01*
X42926961Y16364415D01*
X42914670Y16369507D01*
X42904690Y16370489D01*
X42902145Y16371184D01*
X42900178Y16370933D01*
X42895161Y16371428D01*
X40895161Y16371428D01*
X40875652Y16369507D01*
X40839604Y16354575D01*
X40812014Y16326985D01*
X40797082Y16290937D01*
X40797082Y16251919D01*
X40812014Y16215871D01*
X40839604Y16188281D01*
X40875652Y16173349D01*
X40895161Y16171428D01*
X42518605Y16171428D01*
X40845547Y15215395D01*
X40841436Y15212476D01*
X40839604Y15211718D01*
X40837737Y15209851D01*
X40829562Y15204048D01*
X40821419Y15193533D01*
X40812014Y15184128D01*
X40809574Y15178237D01*
X40805672Y15173199D01*
X40802173Y15160370D01*
X40797082Y15148080D01*
X40797082Y15141704D01*
X40795405Y15135556D01*
X40572939Y15135556D01*
X40572939Y16593650D01*
X43217139Y16593650D01*
X43217139Y8806349D01*
G37*
G36*
X41978782Y-10925042D02*
G01*
X42051071Y-10997331D01*
X42128495Y-11152178D01*
X42128495Y-11390678D01*
X42051071Y-11545525D01*
X41978782Y-11617814D01*
X41823935Y-11695238D01*
X41299722Y-11695238D01*
X41144874Y-11617814D01*
X41072584Y-11545524D01*
X40995161Y-11390678D01*
X40995161Y-11152179D01*
X41072584Y-10997333D01*
X41144874Y-10925042D01*
X41299722Y-10847619D01*
X41823935Y-10847619D01*
X41978782Y-10925042D01*
G37*
G36*
X43217383Y-16784127D02*
G01*
X40572939Y-16784127D01*
X40572939Y-15585253D01*
X40797082Y-15585253D01*
X40797082Y-15624271D01*
X40812014Y-15660319D01*
X40839604Y-15687909D01*
X40875652Y-15702841D01*
X40895161Y-15704762D01*
X41996597Y-15704762D01*
X42051071Y-15759236D01*
X42128495Y-15914083D01*
X42128495Y-16152583D01*
X42058721Y-16292131D01*
X41919173Y-16361905D01*
X40895161Y-16361905D01*
X40875652Y-16363826D01*
X40839604Y-16378758D01*
X40812014Y-16406348D01*
X40797082Y-16442396D01*
X40797082Y-16481414D01*
X40812014Y-16517462D01*
X40839604Y-16545052D01*
X40875652Y-16559984D01*
X40895161Y-16561905D01*
X41942780Y-16561905D01*
X41962289Y-16559984D01*
X41965609Y-16558608D01*
X41969193Y-16558354D01*
X41987501Y-16551348D01*
X42177979Y-16456110D01*
X42181243Y-16454055D01*
X42182780Y-16453543D01*
X42184694Y-16451883D01*
X42194569Y-16445667D01*
X42202784Y-16436194D01*
X42212257Y-16427979D01*
X42218471Y-16418105D01*
X42220133Y-16416190D01*
X42220645Y-16414651D01*
X42222700Y-16411388D01*
X42317938Y-16220912D01*
X42324944Y-16202604D01*
X42325198Y-16199020D01*
X42326574Y-16195700D01*
X42328495Y-16176191D01*
X42328495Y-15890476D01*
X42326574Y-15870967D01*
X42325198Y-15867646D01*
X42324944Y-15864063D01*
X42317938Y-15845755D01*
X42247442Y-15704762D01*
X42895161Y-15704762D01*
X42914670Y-15702841D01*
X42950718Y-15687909D01*
X42978308Y-15660319D01*
X42993240Y-15624271D01*
X42993240Y-15585253D01*
X42978308Y-15549205D01*
X42950718Y-15521615D01*
X42914670Y-15506683D01*
X42895161Y-15504762D01*
X40895161Y-15504762D01*
X40875652Y-15506683D01*
X40839604Y-15521615D01*
X40812014Y-15549205D01*
X40797082Y-15585253D01*
X40572939Y-15585253D01*
X40572939Y-14747619D01*
X40795161Y-14747619D01*
X40795161Y-14938095D01*
X40797082Y-14957604D01*
X40812014Y-14993652D01*
X40839604Y-15021242D01*
X40875652Y-15036174D01*
X40914670Y-15036174D01*
X40950718Y-15021242D01*
X40978308Y-14993652D01*
X40993240Y-14957604D01*
X40995161Y-14938095D01*
X40995161Y-14771227D01*
X41064934Y-14631679D01*
X41204484Y-14561905D01*
X42128495Y-14561905D01*
X42128495Y-14938095D01*
X42130416Y-14957604D01*
X42145348Y-14993652D01*
X42172938Y-15021242D01*
X42208986Y-15036174D01*
X42248004Y-15036174D01*
X42284052Y-15021242D01*
X42311642Y-14993652D01*
X42326574Y-14957604D01*
X42328495Y-14938095D01*
X42328495Y-14561905D01*
X42895161Y-14561905D01*
X42914670Y-14559984D01*
X42950718Y-14545052D01*
X42978308Y-14517462D01*
X42993240Y-14481414D01*
X42993240Y-14442396D01*
X42978308Y-14406348D01*
X42950718Y-14378758D01*
X42914670Y-14363826D01*
X42895161Y-14361905D01*
X42328495Y-14361905D01*
X42328495Y-14176191D01*
X42326574Y-14156682D01*
X42311642Y-14120634D01*
X42284052Y-14093044D01*
X42248004Y-14078112D01*
X42208986Y-14078112D01*
X42172938Y-14093044D01*
X42145348Y-14120634D01*
X42130416Y-14156682D01*
X42128495Y-14176191D01*
X42128495Y-14361905D01*
X41180876Y-14361905D01*
X41161367Y-14363826D01*
X41158046Y-14365201D01*
X41154463Y-14365456D01*
X41136155Y-14372462D01*
X40945679Y-14467700D01*
X40942415Y-14469754D01*
X40940877Y-14470267D01*
X40938961Y-14471928D01*
X40929088Y-14478143D01*
X40920872Y-14487615D01*
X40911400Y-14495831D01*
X40905183Y-14505705D01*
X40903524Y-14507620D01*
X40903011Y-14509156D01*
X40900957Y-14512421D01*
X40805718Y-14702897D01*
X40798712Y-14721206D01*
X40798457Y-14724789D01*
X40797082Y-14728110D01*
X40795161Y-14747619D01*
X40572939Y-14747619D01*
X40572939Y-12938095D01*
X40795161Y-12938095D01*
X40795161Y-13223810D01*
X40797082Y-13243319D01*
X40798457Y-13246639D01*
X40798712Y-13250223D01*
X40805718Y-13268532D01*
X40877103Y-13411302D01*
X40875652Y-13411445D01*
X40839604Y-13426377D01*
X40812014Y-13453967D01*
X40797082Y-13490015D01*
X40797082Y-13529033D01*
X40812014Y-13565081D01*
X40839604Y-13592671D01*
X40875652Y-13607603D01*
X40895161Y-13609524D01*
X42228495Y-13609524D01*
X42248004Y-13607603D01*
X42284052Y-13592671D01*
X42311642Y-13565081D01*
X42326574Y-13529033D01*
X42326574Y-13490015D01*
X42311642Y-13453967D01*
X42284052Y-13426377D01*
X42248004Y-13411445D01*
X42228495Y-13409524D01*
X41127060Y-13409524D01*
X41072584Y-13355048D01*
X40995161Y-13200202D01*
X40995161Y-12961703D01*
X41064934Y-12822155D01*
X41204484Y-12752381D01*
X42228495Y-12752381D01*
X42248004Y-12750460D01*
X42284052Y-12735528D01*
X42311642Y-12707938D01*
X42326574Y-12671890D01*
X42326574Y-12632872D01*
X42311642Y-12596824D01*
X42284052Y-12569234D01*
X42248004Y-12554302D01*
X42228495Y-12552381D01*
X41180876Y-12552381D01*
X41161367Y-12554302D01*
X41158046Y-12555677D01*
X41154463Y-12555932D01*
X41136155Y-12562938D01*
X40945679Y-12658176D01*
X40942415Y-12660230D01*
X40940877Y-12660743D01*
X40938961Y-12662404D01*
X40929088Y-12668619D01*
X40920872Y-12678091D01*
X40911400Y-12686307D01*
X40905183Y-12696181D01*
X40903524Y-12698096D01*
X40903011Y-12699632D01*
X40900957Y-12702897D01*
X40805718Y-12893373D01*
X40798712Y-12911682D01*
X40798457Y-12915265D01*
X40797082Y-12918586D01*
X40795161Y-12938095D01*
X40572939Y-12938095D01*
X40572939Y-11128571D01*
X40795161Y-11128571D01*
X40795161Y-11414286D01*
X40797082Y-11433795D01*
X40798457Y-11437115D01*
X40798712Y-11440699D01*
X40805718Y-11459008D01*
X40900957Y-11649484D01*
X40906243Y-11657882D01*
X40907253Y-11660319D01*
X40909504Y-11663062D01*
X40911400Y-11666074D01*
X40913397Y-11667806D01*
X40919689Y-11675473D01*
X41014927Y-11770711D01*
X41022593Y-11777002D01*
X41024326Y-11779000D01*
X41027337Y-11780895D01*
X41030081Y-11783147D01*
X41032518Y-11784156D01*
X41040917Y-11789443D01*
X41231393Y-11884681D01*
X41249701Y-11891687D01*
X41253284Y-11891941D01*
X41256605Y-11893317D01*
X41276114Y-11895238D01*
X41847542Y-11895238D01*
X41867051Y-11893317D01*
X41870371Y-11891941D01*
X41873955Y-11891687D01*
X41892263Y-11884681D01*
X42082741Y-11789443D01*
X42091139Y-11784156D01*
X42093576Y-11783147D01*
X42096319Y-11780895D01*
X42099331Y-11779000D01*
X42101063Y-11777002D01*
X42108730Y-11770711D01*
X42203968Y-11675473D01*
X42210259Y-11667806D01*
X42212257Y-11666074D01*
X42214152Y-11663062D01*
X42216404Y-11660319D01*
X42217413Y-11657881D01*
X42222700Y-11649483D01*
X42317938Y-11459007D01*
X42324944Y-11440699D01*
X42325198Y-11437115D01*
X42326574Y-11433795D01*
X42328495Y-11414286D01*
X42328495Y-11128571D01*
X42326574Y-11109062D01*
X42325198Y-11105741D01*
X42324944Y-11102158D01*
X42317938Y-11083850D01*
X42222700Y-10893374D01*
X42217413Y-10884975D01*
X42216404Y-10882538D01*
X42214152Y-10879794D01*
X42212257Y-10876783D01*
X42210259Y-10875050D01*
X42203968Y-10867384D01*
X42108730Y-10772146D01*
X42101063Y-10765854D01*
X42099331Y-10763857D01*
X42096319Y-10761961D01*
X42093576Y-10759710D01*
X42091139Y-10758700D01*
X42082741Y-10753414D01*
X41892263Y-10658176D01*
X41873955Y-10651170D01*
X41870371Y-10650915D01*
X41867051Y-10649540D01*
X41847542Y-10647619D01*
X41276114Y-10647619D01*
X41256605Y-10649540D01*
X41253284Y-10650915D01*
X41249701Y-10651170D01*
X41231393Y-10658176D01*
X41040917Y-10753414D01*
X41032518Y-10758700D01*
X41030081Y-10759710D01*
X41027337Y-10761961D01*
X41024326Y-10763857D01*
X41022593Y-10765854D01*
X41014927Y-10772146D01*
X40919689Y-10867384D01*
X40913397Y-10875050D01*
X40911400Y-10876783D01*
X40909504Y-10879794D01*
X40907253Y-10882538D01*
X40906243Y-10884974D01*
X40900957Y-10893373D01*
X40805718Y-11083849D01*
X40798712Y-11102158D01*
X40798457Y-11105741D01*
X40797082Y-11109062D01*
X40795161Y-11128571D01*
X40572939Y-11128571D01*
X40572939Y-9128571D01*
X40795161Y-9128571D01*
X40795161Y-9604762D01*
X40797082Y-9624271D01*
X40798457Y-9627591D01*
X40798712Y-9631175D01*
X40805718Y-9649484D01*
X40900957Y-9839960D01*
X40906243Y-9848358D01*
X40907253Y-9850795D01*
X40909504Y-9853538D01*
X40911400Y-9856550D01*
X40913397Y-9858282D01*
X40919689Y-9865949D01*
X41014927Y-9961187D01*
X41022593Y-9967478D01*
X41024326Y-9969476D01*
X41027337Y-9971371D01*
X41030081Y-9973623D01*
X41032518Y-9974632D01*
X41040917Y-9979919D01*
X41231393Y-10075157D01*
X41249701Y-10082163D01*
X41253284Y-10082417D01*
X41256605Y-10083793D01*
X41276114Y-10085714D01*
X41466590Y-10085714D01*
X41486099Y-10083793D01*
X41489419Y-10082417D01*
X41493003Y-10082163D01*
X41511311Y-10075157D01*
X41701788Y-9979919D01*
X41710186Y-9974632D01*
X41712623Y-9973623D01*
X41715366Y-9971371D01*
X41718378Y-9969476D01*
X41720110Y-9967478D01*
X41727777Y-9961187D01*
X41823015Y-9865949D01*
X41829306Y-9858282D01*
X41831304Y-9856550D01*
X41833199Y-9853538D01*
X41835451Y-9850795D01*
X41836460Y-9848357D01*
X41841747Y-9839959D01*
X41936985Y-9649483D01*
X41937530Y-9648056D01*
X41937961Y-9647476D01*
X41940884Y-9639293D01*
X41943991Y-9631175D01*
X41944042Y-9630454D01*
X41944556Y-9629016D01*
X42037131Y-9258714D01*
X42120203Y-9092571D01*
X42192493Y-9020280D01*
X42347341Y-8942857D01*
X42490602Y-8942857D01*
X42645448Y-9020280D01*
X42717737Y-9092569D01*
X42795161Y-9247416D01*
X42795161Y-9683773D01*
X42705055Y-9954091D01*
X42700708Y-9973207D01*
X42703474Y-10012127D01*
X42720924Y-10047026D01*
X42750400Y-10072591D01*
X42787416Y-10084929D01*
X42826336Y-10082163D01*
X42861235Y-10064713D01*
X42886800Y-10035237D01*
X42894791Y-10017337D01*
X42990029Y-9731623D01*
X42992228Y-9721951D01*
X42993240Y-9719509D01*
X42993588Y-9715970D01*
X42994376Y-9712507D01*
X42994188Y-9709873D01*
X42995161Y-9700000D01*
X42995161Y-9223809D01*
X42993240Y-9204300D01*
X42991864Y-9200979D01*
X42991610Y-9197396D01*
X42984604Y-9179088D01*
X42889366Y-8988612D01*
X42884079Y-8980213D01*
X42883070Y-8977776D01*
X42880818Y-8975032D01*
X42878923Y-8972021D01*
X42876925Y-8970288D01*
X42870634Y-8962622D01*
X42775396Y-8867384D01*
X42767729Y-8861092D01*
X42765997Y-8859095D01*
X42762985Y-8857199D01*
X42760242Y-8854948D01*
X42757805Y-8853938D01*
X42749407Y-8848652D01*
X42558930Y-8753414D01*
X42540622Y-8746408D01*
X42537038Y-8746153D01*
X42533718Y-8744778D01*
X42514209Y-8742857D01*
X42323733Y-8742857D01*
X42304224Y-8744778D01*
X42300903Y-8746153D01*
X42297320Y-8746408D01*
X42279012Y-8753414D01*
X42088536Y-8848652D01*
X42080137Y-8853938D01*
X42077700Y-8854948D01*
X42074956Y-8857199D01*
X42071945Y-8859095D01*
X42070212Y-8861092D01*
X42062546Y-8867384D01*
X41967308Y-8962622D01*
X41961016Y-8970288D01*
X41959019Y-8972021D01*
X41957123Y-8975032D01*
X41954872Y-8977776D01*
X41953862Y-8980212D01*
X41948576Y-8988611D01*
X41853337Y-9179087D01*
X41852790Y-9180515D01*
X41852361Y-9181095D01*
X41849442Y-9189265D01*
X41846331Y-9197396D01*
X41846279Y-9198118D01*
X41845766Y-9199556D01*
X41753190Y-9569856D01*
X41670118Y-9736001D01*
X41597829Y-9808291D01*
X41442983Y-9885714D01*
X41299722Y-9885714D01*
X41144874Y-9808290D01*
X41072584Y-9736000D01*
X40995161Y-9581154D01*
X40995161Y-9144798D01*
X41085268Y-8874480D01*
X41089615Y-8855365D01*
X41086849Y-8816445D01*
X41069399Y-8781546D01*
X41039923Y-8755981D01*
X41002908Y-8743642D01*
X40963988Y-8746408D01*
X40929089Y-8763858D01*
X40903523Y-8793334D01*
X40895532Y-8811234D01*
X40800293Y-9096948D01*
X40798093Y-9106620D01*
X40797082Y-9109062D01*
X40796733Y-9112599D01*
X40795946Y-9116063D01*
X40796133Y-9118697D01*
X40795161Y-9128571D01*
X40572939Y-9128571D01*
X40572939Y-8520635D01*
X43217383Y-8520635D01*
X43217383Y-16784127D01*
G37*
D10*
X46612180Y-5940588D02*
X46612180Y-5369160D01*
X46612180Y-5654874D02*
X47612180Y-5654874D01*
X47612180Y-5654874D02*
X47469323Y-5559636D01*
X47469323Y-5559636D02*
X47374085Y-5464398D01*
X47374085Y-5464398D02*
X47326466Y-5369160D01*
X-5710873Y-8231302D02*
X-5246587Y-9035468D01*
X-5246587Y-9035468D02*
X-5991458Y-8888170D01*
X-5991458Y-8888170D02*
X-5884316Y-9073747D01*
X-5884316Y-9073747D02*
X-5874746Y-9233179D01*
X-5874746Y-9233179D02*
X-5900891Y-9330752D01*
X-5900891Y-9330752D02*
X-5988894Y-9464040D01*
X-5988894Y-9464040D02*
X-6298189Y-9642611D01*
X-6298189Y-9642611D02*
X-6457621Y-9652181D01*
X-6457621Y-9652181D02*
X-6555195Y-9626036D01*
X-6555195Y-9626036D02*
X-6688482Y-9538032D01*
X-6688482Y-9538032D02*
X-6902768Y-9166879D01*
X-6902768Y-9166879D02*
X-6912337Y-9007446D01*
X-6912337Y-9007446D02*
X-6886193Y-8909873D01*
X-31197231Y-23853120D02*
X-31340088Y-23605685D01*
X-31340088Y-23605685D02*
X-31473376Y-23517681D01*
X-31473376Y-23517681D02*
X-31570949Y-23491536D01*
X-31570949Y-23491536D02*
X-31827955Y-23474961D01*
X-31827955Y-23474961D02*
X-32111105Y-23555959D01*
X-32111105Y-23555959D02*
X-32605976Y-23841674D01*
X-32605976Y-23841674D02*
X-32693980Y-23974961D01*
X-32693980Y-23974961D02*
X-32720125Y-24072534D01*
X-32720125Y-24072534D02*
X-32710555Y-24231967D01*
X-32710555Y-24231967D02*
X-32567698Y-24479403D01*
X-32567698Y-24479403D02*
X-32434410Y-24567406D01*
X-32434410Y-24567406D02*
X-32336837Y-24593551D01*
X-32336837Y-24593551D02*
X-32177405Y-24583981D01*
X-32177405Y-24583981D02*
X-31868110Y-24405410D01*
X-31868110Y-24405410D02*
X-31780107Y-24272122D01*
X-31780107Y-24272122D02*
X-31753962Y-24174549D01*
X-31753962Y-24174549D02*
X-31763531Y-24015117D01*
X-31763531Y-24015117D02*
X-31906389Y-23767681D01*
X-31906389Y-23767681D02*
X-32039676Y-23679677D01*
X-32039676Y-23679677D02*
X-32137249Y-23653533D01*
X-32137249Y-23653533D02*
X-32296682Y-23663102D01*
X-26393121Y-4362768D02*
X-27135428Y-4791339D01*
X-26764274Y-4577054D02*
X-27514274Y-3278016D01*
X-27514274Y-3278016D02*
X-27530849Y-3535021D01*
X-27530849Y-3535021D02*
X-27583139Y-3730167D01*
X-27583139Y-3730167D02*
X-27671142Y-3863455D01*
X-26576821Y-2901734D02*
X-26550676Y-2804160D01*
X-26550676Y-2804160D02*
X-26462673Y-2670873D01*
X-26462673Y-2670873D02*
X-26153378Y-2492301D01*
X-26153378Y-2492301D02*
X-25993946Y-2482732D01*
X-25993946Y-2482732D02*
X-25896372Y-2508877D01*
X-25896372Y-2508877D02*
X-25763085Y-2596880D01*
X-25763085Y-2596880D02*
X-25691656Y-2720598D01*
X-25691656Y-2720598D02*
X-25646372Y-2941889D01*
X-25646372Y-2941889D02*
X-25960108Y-4112768D01*
X-25960108Y-4112768D02*
X-25155942Y-3648482D01*
X-33241371Y-16795713D02*
X-33241371Y-17652856D01*
X-33241371Y-17224285D02*
X-34741371Y-17224285D01*
X-34741371Y-17224285D02*
X-34527085Y-17367142D01*
X-34527085Y-17367142D02*
X-34384228Y-17509999D01*
X-34384228Y-17509999D02*
X-34312800Y-17652856D01*
X-34741371Y-15867142D02*
X-34741371Y-15724285D01*
X-34741371Y-15724285D02*
X-34669942Y-15581428D01*
X-34669942Y-15581428D02*
X-34598514Y-15510000D01*
X-34598514Y-15510000D02*
X-34455657Y-15438571D01*
X-34455657Y-15438571D02*
X-34169942Y-15367142D01*
X-34169942Y-15367142D02*
X-33812800Y-15367142D01*
X-33812800Y-15367142D02*
X-33527085Y-15438571D01*
X-33527085Y-15438571D02*
X-33384228Y-15510000D01*
X-33384228Y-15510000D02*
X-33312800Y-15581428D01*
X-33312800Y-15581428D02*
X-33241371Y-15724285D01*
X-33241371Y-15724285D02*
X-33241371Y-15867142D01*
X-33241371Y-15867142D02*
X-33312800Y-16010000D01*
X-33312800Y-16010000D02*
X-33384228Y-16081428D01*
X-33384228Y-16081428D02*
X-33527085Y-16152857D01*
X-33527085Y-16152857D02*
X-33812800Y-16224285D01*
X-33812800Y-16224285D02*
X-34169942Y-16224285D01*
X-34169942Y-16224285D02*
X-34455657Y-16152857D01*
X-34455657Y-16152857D02*
X-34598514Y-16081428D01*
X-34598514Y-16081428D02*
X-34669942Y-16010000D01*
X-34669942Y-16010000D02*
X-34741371Y-15867142D01*
X-3858628Y-16795715D02*
X-4858628Y-16795715D01*
X-3287200Y-16438572D02*
X-4358628Y-16081429D01*
X-4358628Y-16081429D02*
X-4358628Y-17010000D01*
X-26450539Y-29613824D02*
X-26362536Y-29747111D01*
X-26362536Y-29747111D02*
X-26336391Y-29844684D01*
X-26336391Y-29844684D02*
X-26345961Y-30004117D01*
X-26345961Y-30004117D02*
X-26381675Y-30065976D01*
X-26381675Y-30065976D02*
X-26514962Y-30153979D01*
X-26514962Y-30153979D02*
X-26612536Y-30180124D01*
X-26612536Y-30180124D02*
X-26771968Y-30170554D01*
X-26771968Y-30170554D02*
X-27019404Y-30027697D01*
X-27019404Y-30027697D02*
X-27107407Y-29894410D01*
X-27107407Y-29894410D02*
X-27133552Y-29796836D01*
X-27133552Y-29796836D02*
X-27123982Y-29637404D01*
X-27123982Y-29637404D02*
X-27088268Y-29575545D01*
X-27088268Y-29575545D02*
X-26954981Y-29487542D01*
X-26954981Y-29487542D02*
X-26857407Y-29461397D01*
X-26857407Y-29461397D02*
X-26697975Y-29470967D01*
X-26697975Y-29470967D02*
X-26450539Y-29613824D01*
X-26450539Y-29613824D02*
X-26291107Y-29623393D01*
X-26291107Y-29623393D02*
X-26193534Y-29597249D01*
X-26193534Y-29597249D02*
X-26060246Y-29509245D01*
X-26060246Y-29509245D02*
X-25917389Y-29261809D01*
X-25917389Y-29261809D02*
X-25907820Y-29102377D01*
X-25907820Y-29102377D02*
X-25933964Y-29004804D01*
X-25933964Y-29004804D02*
X-26021968Y-28871516D01*
X-26021968Y-28871516D02*
X-26269404Y-28728659D01*
X-26269404Y-28728659D02*
X-26428836Y-28719089D01*
X-26428836Y-28719089D02*
X-26526409Y-28745234D01*
X-26526409Y-28745234D02*
X-26659697Y-28833238D01*
X-26659697Y-28833238D02*
X-26802554Y-29080674D01*
X-26802554Y-29080674D02*
X-26812123Y-29240106D01*
X-26812123Y-29240106D02*
X-26785979Y-29337679D01*
X-26785979Y-29337679D02*
X-26697975Y-29470967D01*
X-5639445Y-24664981D02*
X-5282302Y-24046391D01*
X-5282302Y-24046391D02*
X-5865177Y-23627389D01*
X-5865177Y-23627389D02*
X-5839032Y-23724962D01*
X-5839032Y-23724962D02*
X-5848602Y-23884395D01*
X-5848602Y-23884395D02*
X-6027173Y-24193689D01*
X-6027173Y-24193689D02*
X-6160461Y-24281693D01*
X-6160461Y-24281693D02*
X-6258034Y-24307838D01*
X-6258034Y-24307838D02*
X-6417466Y-24298268D01*
X-6417466Y-24298268D02*
X-6726761Y-24119697D01*
X-6726761Y-24119697D02*
X-6814765Y-23986409D01*
X-6814765Y-23986409D02*
X-6840910Y-23888836D01*
X-6840910Y-23888836D02*
X-6831340Y-23729404D01*
X-6831340Y-23729404D02*
X-6652768Y-23420109D01*
X-6652768Y-23420109D02*
X-6519481Y-23332105D01*
X-6519481Y-23332105D02*
X-6421908Y-23305961D01*
X-11451750Y-30241984D02*
X-11204314Y-30099126D01*
X-11204314Y-30099126D02*
X-11116311Y-29965839D01*
X-11116311Y-29965839D02*
X-11090166Y-29868266D01*
X-11090166Y-29868266D02*
X-11073591Y-29611260D01*
X-11073591Y-29611260D02*
X-11154589Y-29328110D01*
X-11154589Y-29328110D02*
X-11440304Y-28833238D01*
X-11440304Y-28833238D02*
X-11573591Y-28745235D01*
X-11573591Y-28745235D02*
X-11671164Y-28719090D01*
X-11671164Y-28719090D02*
X-11830596Y-28728660D01*
X-11830596Y-28728660D02*
X-12078032Y-28871517D01*
X-12078032Y-28871517D02*
X-12166036Y-29004804D01*
X-12166036Y-29004804D02*
X-12192181Y-29102378D01*
X-12192181Y-29102378D02*
X-12182611Y-29261810D01*
X-12182611Y-29261810D02*
X-12004040Y-29571105D01*
X-12004040Y-29571105D02*
X-11870752Y-29659108D01*
X-11870752Y-29659108D02*
X-11773179Y-29685253D01*
X-11773179Y-29685253D02*
X-11613747Y-29675683D01*
X-11613747Y-29675683D02*
X-11366311Y-29532826D01*
X-11366311Y-29532826D02*
X-11278307Y-29399539D01*
X-11278307Y-29399539D02*
X-11252162Y-29301965D01*
X-11252162Y-29301965D02*
X-11261732Y-29142533D01*
X-31482945Y-9661749D02*
X-31911516Y-10404057D01*
X-31697231Y-10032903D02*
X-32996269Y-9282903D01*
X-32996269Y-9282903D02*
X-32882120Y-9513764D01*
X-32882120Y-9513764D02*
X-32829831Y-9708910D01*
X-32829831Y-9708910D02*
X-32839401Y-9868342D01*
X-30768659Y-8424570D02*
X-31197231Y-9166878D01*
X-30982945Y-8795724D02*
X-32281983Y-8045724D01*
X-32281983Y-8045724D02*
X-32167835Y-8276585D01*
X-32167835Y-8276585D02*
X-32115546Y-8471731D01*
X-32115546Y-8471731D02*
X-32125115Y-8631164D01*
X-18550000Y-32201371D02*
X-19550000Y-32201371D01*
X-19550000Y-32201371D02*
X-18907143Y-30701371D01*
X-18621427Y-2318628D02*
X-19478570Y-2318628D01*
X-19049999Y-2318628D02*
X-19049999Y-818628D01*
X-19049999Y-818628D02*
X-19192856Y-1032914D01*
X-19192856Y-1032914D02*
X-19335713Y-1175771D01*
X-19335713Y-1175771D02*
X-19478570Y-1247200D01*
X-11646895Y-2830305D02*
X-11549322Y-2804161D01*
X-11549322Y-2804161D02*
X-11389890Y-2813730D01*
X-11389890Y-2813730D02*
X-11080595Y-2992302D01*
X-11080595Y-2992302D02*
X-10992592Y-3125589D01*
X-10992592Y-3125589D02*
X-10966447Y-3223163D01*
X-10966447Y-3223163D02*
X-10976017Y-3382595D01*
X-10976017Y-3382595D02*
X-11047445Y-3506313D01*
X-11047445Y-3506313D02*
X-11216447Y-3656175D01*
X-11216447Y-3656175D02*
X-12387326Y-3969911D01*
X-12387326Y-3969911D02*
X-11583159Y-4434197D01*
X26453104Y-2830305D02*
X26550677Y-2804161D01*
X26550677Y-2804161D02*
X26710109Y-2813730D01*
X26710109Y-2813730D02*
X27019404Y-2992302D01*
X27019404Y-2992302D02*
X27107407Y-3125589D01*
X27107407Y-3125589D02*
X27133552Y-3223163D01*
X27133552Y-3223163D02*
X27123982Y-3382595D01*
X27123982Y-3382595D02*
X27052554Y-3506313D01*
X27052554Y-3506313D02*
X26883552Y-3656175D01*
X26883552Y-3656175D02*
X25712673Y-3969911D01*
X25712673Y-3969911D02*
X26516840Y-4434197D01*
X11706878Y-4362768D02*
X10964571Y-4791339D01*
X11335725Y-4577054D02*
X10585725Y-3278016D01*
X10585725Y-3278016D02*
X10569150Y-3535021D01*
X10569150Y-3535021D02*
X10516860Y-3730167D01*
X10516860Y-3730167D02*
X10428857Y-3863455D01*
X11523178Y-2901734D02*
X11549323Y-2804160D01*
X11549323Y-2804160D02*
X11637326Y-2670873D01*
X11637326Y-2670873D02*
X11946621Y-2492301D01*
X11946621Y-2492301D02*
X12106053Y-2482732D01*
X12106053Y-2482732D02*
X12203627Y-2508877D01*
X12203627Y-2508877D02*
X12336914Y-2596880D01*
X12336914Y-2596880D02*
X12408343Y-2720598D01*
X12408343Y-2720598D02*
X12453627Y-2941889D01*
X12453627Y-2941889D02*
X12139891Y-4112768D01*
X12139891Y-4112768D02*
X12944057Y-3648482D01*
X6902768Y-23853120D02*
X6759911Y-23605685D01*
X6759911Y-23605685D02*
X6626623Y-23517681D01*
X6626623Y-23517681D02*
X6529050Y-23491536D01*
X6529050Y-23491536D02*
X6272044Y-23474961D01*
X6272044Y-23474961D02*
X5988894Y-23555959D01*
X5988894Y-23555959D02*
X5494023Y-23841674D01*
X5494023Y-23841674D02*
X5406019Y-23974961D01*
X5406019Y-23974961D02*
X5379874Y-24072534D01*
X5379874Y-24072534D02*
X5389444Y-24231967D01*
X5389444Y-24231967D02*
X5532301Y-24479403D01*
X5532301Y-24479403D02*
X5665589Y-24567406D01*
X5665589Y-24567406D02*
X5763162Y-24593551D01*
X5763162Y-24593551D02*
X5922594Y-24583981D01*
X5922594Y-24583981D02*
X6231889Y-24405410D01*
X6231889Y-24405410D02*
X6319892Y-24272122D01*
X6319892Y-24272122D02*
X6346037Y-24174549D01*
X6346037Y-24174549D02*
X6336468Y-24015117D01*
X6336468Y-24015117D02*
X6193610Y-23767681D01*
X6193610Y-23767681D02*
X6060323Y-23679677D01*
X6060323Y-23679677D02*
X5962750Y-23653533D01*
X5962750Y-23653533D02*
X5803317Y-23663102D01*
X4858628Y-16795713D02*
X4858628Y-17652856D01*
X4858628Y-17224285D02*
X3358628Y-17224285D01*
X3358628Y-17224285D02*
X3572914Y-17367142D01*
X3572914Y-17367142D02*
X3715771Y-17509999D01*
X3715771Y-17509999D02*
X3787200Y-17652856D01*
X3358628Y-15867142D02*
X3358628Y-15724285D01*
X3358628Y-15724285D02*
X3430057Y-15581428D01*
X3430057Y-15581428D02*
X3501485Y-15510000D01*
X3501485Y-15510000D02*
X3644342Y-15438571D01*
X3644342Y-15438571D02*
X3930057Y-15367142D01*
X3930057Y-15367142D02*
X4287200Y-15367142D01*
X4287200Y-15367142D02*
X4572914Y-15438571D01*
X4572914Y-15438571D02*
X4715771Y-15510000D01*
X4715771Y-15510000D02*
X4787200Y-15581428D01*
X4787200Y-15581428D02*
X4858628Y-15724285D01*
X4858628Y-15724285D02*
X4858628Y-15867142D01*
X4858628Y-15867142D02*
X4787200Y-16010000D01*
X4787200Y-16010000D02*
X4715771Y-16081428D01*
X4715771Y-16081428D02*
X4572914Y-16152857D01*
X4572914Y-16152857D02*
X4287200Y-16224285D01*
X4287200Y-16224285D02*
X3930057Y-16224285D01*
X3930057Y-16224285D02*
X3644342Y-16152857D01*
X3644342Y-16152857D02*
X3501485Y-16081428D01*
X3501485Y-16081428D02*
X3430057Y-16010000D01*
X3430057Y-16010000D02*
X3358628Y-15867142D01*
X19549999Y-32201371D02*
X18549999Y-32201371D01*
X18549999Y-32201371D02*
X19192856Y-30701371D01*
X34241371Y-16795715D02*
X33241371Y-16795715D01*
X34812800Y-16438572D02*
X33741371Y-16081429D01*
X33741371Y-16081429D02*
X33741371Y-17010000D01*
X19478572Y-2318628D02*
X18621429Y-2318628D01*
X19050000Y-2318628D02*
X19050000Y-818628D01*
X19050000Y-818628D02*
X18907143Y-1032914D01*
X18907143Y-1032914D02*
X18764286Y-1175771D01*
X18764286Y-1175771D02*
X18621429Y-1247200D01*
X32460554Y-24664981D02*
X32817697Y-24046391D01*
X32817697Y-24046391D02*
X32234822Y-23627389D01*
X32234822Y-23627389D02*
X32260967Y-23724962D01*
X32260967Y-23724962D02*
X32251397Y-23884395D01*
X32251397Y-23884395D02*
X32072826Y-24193689D01*
X32072826Y-24193689D02*
X31939538Y-24281693D01*
X31939538Y-24281693D02*
X31841965Y-24307838D01*
X31841965Y-24307838D02*
X31682533Y-24298268D01*
X31682533Y-24298268D02*
X31373238Y-24119697D01*
X31373238Y-24119697D02*
X31285234Y-23986409D01*
X31285234Y-23986409D02*
X31259089Y-23888836D01*
X31259089Y-23888836D02*
X31268659Y-23729404D01*
X31268659Y-23729404D02*
X31447231Y-23420109D01*
X31447231Y-23420109D02*
X31580518Y-23332105D01*
X31580518Y-23332105D02*
X31678091Y-23305961D01*
X26648249Y-30241984D02*
X26895685Y-30099126D01*
X26895685Y-30099126D02*
X26983688Y-29965839D01*
X26983688Y-29965839D02*
X27009833Y-29868266D01*
X27009833Y-29868266D02*
X27026408Y-29611260D01*
X27026408Y-29611260D02*
X26945410Y-29328110D01*
X26945410Y-29328110D02*
X26659695Y-28833238D01*
X26659695Y-28833238D02*
X26526408Y-28745235D01*
X26526408Y-28745235D02*
X26428835Y-28719090D01*
X26428835Y-28719090D02*
X26269403Y-28728660D01*
X26269403Y-28728660D02*
X26021967Y-28871517D01*
X26021967Y-28871517D02*
X25933963Y-29004804D01*
X25933963Y-29004804D02*
X25907818Y-29102378D01*
X25907818Y-29102378D02*
X25917388Y-29261810D01*
X25917388Y-29261810D02*
X26095959Y-29571105D01*
X26095959Y-29571105D02*
X26229247Y-29659108D01*
X26229247Y-29659108D02*
X26326820Y-29685253D01*
X26326820Y-29685253D02*
X26486252Y-29675683D01*
X26486252Y-29675683D02*
X26733688Y-29532826D01*
X26733688Y-29532826D02*
X26821692Y-29399539D01*
X26821692Y-29399539D02*
X26847837Y-29301965D01*
X26847837Y-29301965D02*
X26838267Y-29142533D01*
X11649460Y-29613824D02*
X11737463Y-29747111D01*
X11737463Y-29747111D02*
X11763608Y-29844684D01*
X11763608Y-29844684D02*
X11754038Y-30004117D01*
X11754038Y-30004117D02*
X11718324Y-30065976D01*
X11718324Y-30065976D02*
X11585037Y-30153979D01*
X11585037Y-30153979D02*
X11487463Y-30180124D01*
X11487463Y-30180124D02*
X11328031Y-30170554D01*
X11328031Y-30170554D02*
X11080595Y-30027697D01*
X11080595Y-30027697D02*
X10992592Y-29894410D01*
X10992592Y-29894410D02*
X10966447Y-29796836D01*
X10966447Y-29796836D02*
X10976017Y-29637404D01*
X10976017Y-29637404D02*
X11011731Y-29575545D01*
X11011731Y-29575545D02*
X11145018Y-29487542D01*
X11145018Y-29487542D02*
X11242592Y-29461397D01*
X11242592Y-29461397D02*
X11402024Y-29470967D01*
X11402024Y-29470967D02*
X11649460Y-29613824D01*
X11649460Y-29613824D02*
X11808892Y-29623393D01*
X11808892Y-29623393D02*
X11906465Y-29597249D01*
X11906465Y-29597249D02*
X12039753Y-29509245D01*
X12039753Y-29509245D02*
X12182610Y-29261809D01*
X12182610Y-29261809D02*
X12192179Y-29102377D01*
X12192179Y-29102377D02*
X12166035Y-29004804D01*
X12166035Y-29004804D02*
X12078031Y-28871516D01*
X12078031Y-28871516D02*
X11830595Y-28728659D01*
X11830595Y-28728659D02*
X11671163Y-28719089D01*
X11671163Y-28719089D02*
X11573590Y-28745234D01*
X11573590Y-28745234D02*
X11440302Y-28833238D01*
X11440302Y-28833238D02*
X11297445Y-29080674D01*
X11297445Y-29080674D02*
X11287876Y-29240106D01*
X11287876Y-29240106D02*
X11314020Y-29337679D01*
X11314020Y-29337679D02*
X11402024Y-29470967D01*
X6617054Y-9661749D02*
X6188483Y-10404057D01*
X6402768Y-10032903D02*
X5103730Y-9282903D01*
X5103730Y-9282903D02*
X5217879Y-9513764D01*
X5217879Y-9513764D02*
X5270168Y-9708910D01*
X5270168Y-9708910D02*
X5260598Y-9868342D01*
X7331340Y-8424570D02*
X6902768Y-9166878D01*
X7117054Y-8795724D02*
X5818016Y-8045724D01*
X5818016Y-8045724D02*
X5932164Y-8276585D01*
X5932164Y-8276585D02*
X5984453Y-8471731D01*
X5984453Y-8471731D02*
X5974884Y-8631164D01*
X32389126Y-8231302D02*
X32853412Y-9035468D01*
X32853412Y-9035468D02*
X32108541Y-8888170D01*
X32108541Y-8888170D02*
X32215683Y-9073747D01*
X32215683Y-9073747D02*
X32225253Y-9233179D01*
X32225253Y-9233179D02*
X32199108Y-9330752D01*
X32199108Y-9330752D02*
X32111105Y-9464040D01*
X32111105Y-9464040D02*
X31801810Y-9642611D01*
X31801810Y-9642611D02*
X31642378Y-9652181D01*
X31642378Y-9652181D02*
X31544804Y-9626036D01*
X31544804Y-9626036D02*
X31411517Y-9538032D01*
X31411517Y-9538032D02*
X31197231Y-9166879D01*
X31197231Y-9166879D02*
X31187662Y-9007446D01*
X31187662Y-9007446D02*
X31213806Y-8909873D01*
X-5639445Y8355018D02*
X-5282302Y8973608D01*
X-5282302Y8973608D02*
X-5865177Y9392610D01*
X-5865177Y9392610D02*
X-5839032Y9295037D01*
X-5839032Y9295037D02*
X-5848602Y9135604D01*
X-5848602Y9135604D02*
X-6027173Y8826310D01*
X-6027173Y8826310D02*
X-6160461Y8738306D01*
X-6160461Y8738306D02*
X-6258034Y8712161D01*
X-6258034Y8712161D02*
X-6417466Y8721731D01*
X-6417466Y8721731D02*
X-6726761Y8900302D01*
X-6726761Y8900302D02*
X-6814765Y9033590D01*
X-6814765Y9033590D02*
X-6840910Y9131163D01*
X-6840910Y9131163D02*
X-6831340Y9290595D01*
X-6831340Y9290595D02*
X-6652768Y9599890D01*
X-6652768Y9599890D02*
X-6519481Y9687894D01*
X-6519481Y9687894D02*
X-6421908Y9714038D01*
X-18550000Y818628D02*
X-19550000Y818628D01*
X-19550000Y818628D02*
X-18907143Y2318628D01*
X-31197231Y9166879D02*
X-31340088Y9414314D01*
X-31340088Y9414314D02*
X-31473376Y9502318D01*
X-31473376Y9502318D02*
X-31570949Y9528463D01*
X-31570949Y9528463D02*
X-31827955Y9545038D01*
X-31827955Y9545038D02*
X-32111105Y9464040D01*
X-32111105Y9464040D02*
X-32605976Y9178325D01*
X-32605976Y9178325D02*
X-32693980Y9045038D01*
X-32693980Y9045038D02*
X-32720125Y8947465D01*
X-32720125Y8947465D02*
X-32710555Y8788032D01*
X-32710555Y8788032D02*
X-32567698Y8540596D01*
X-32567698Y8540596D02*
X-32434410Y8452593D01*
X-32434410Y8452593D02*
X-32336837Y8426448D01*
X-32336837Y8426448D02*
X-32177405Y8436018D01*
X-32177405Y8436018D02*
X-31868110Y8614589D01*
X-31868110Y8614589D02*
X-31780107Y8747877D01*
X-31780107Y8747877D02*
X-31753962Y8845450D01*
X-31753962Y8845450D02*
X-31763531Y9004882D01*
X-31763531Y9004882D02*
X-31906389Y9252318D01*
X-31906389Y9252318D02*
X-32039676Y9340322D01*
X-32039676Y9340322D02*
X-32137249Y9366466D01*
X-32137249Y9366466D02*
X-32296682Y9356897D01*
X-31482945Y23358250D02*
X-31911516Y22615942D01*
X-31697231Y22987096D02*
X-32996269Y23737096D01*
X-32996269Y23737096D02*
X-32882120Y23506235D01*
X-32882120Y23506235D02*
X-32829831Y23311089D01*
X-32829831Y23311089D02*
X-32839401Y23151657D01*
X-30768659Y24595429D02*
X-31197231Y23853121D01*
X-30982945Y24224275D02*
X-32281983Y24974275D01*
X-32281983Y24974275D02*
X-32167835Y24743414D01*
X-32167835Y24743414D02*
X-32115546Y24548268D01*
X-32115546Y24548268D02*
X-32125115Y24388835D01*
X-18621427Y30701371D02*
X-19478570Y30701371D01*
X-19049999Y30701371D02*
X-19049999Y32201371D01*
X-19049999Y32201371D02*
X-19192856Y31987085D01*
X-19192856Y31987085D02*
X-19335713Y31844228D01*
X-19335713Y31844228D02*
X-19478570Y31772800D01*
X-11646895Y30189694D02*
X-11549322Y30215838D01*
X-11549322Y30215838D02*
X-11389890Y30206269D01*
X-11389890Y30206269D02*
X-11080595Y30027697D01*
X-11080595Y30027697D02*
X-10992592Y29894410D01*
X-10992592Y29894410D02*
X-10966447Y29796836D01*
X-10966447Y29796836D02*
X-10976017Y29637404D01*
X-10976017Y29637404D02*
X-11047445Y29513686D01*
X-11047445Y29513686D02*
X-11216447Y29363824D01*
X-11216447Y29363824D02*
X-12387326Y29050088D01*
X-12387326Y29050088D02*
X-11583159Y28585802D01*
X-3858628Y16224285D02*
X-4858628Y16224285D01*
X-3287200Y16581427D02*
X-4358628Y16938570D01*
X-4358628Y16938570D02*
X-4358628Y16009999D01*
X-26450539Y3406175D02*
X-26362536Y3272888D01*
X-26362536Y3272888D02*
X-26336391Y3175315D01*
X-26336391Y3175315D02*
X-26345961Y3015882D01*
X-26345961Y3015882D02*
X-26381675Y2954023D01*
X-26381675Y2954023D02*
X-26514962Y2866020D01*
X-26514962Y2866020D02*
X-26612536Y2839875D01*
X-26612536Y2839875D02*
X-26771968Y2849445D01*
X-26771968Y2849445D02*
X-27019404Y2992302D01*
X-27019404Y2992302D02*
X-27107407Y3125589D01*
X-27107407Y3125589D02*
X-27133552Y3223163D01*
X-27133552Y3223163D02*
X-27123982Y3382595D01*
X-27123982Y3382595D02*
X-27088268Y3444454D01*
X-27088268Y3444454D02*
X-26954981Y3532457D01*
X-26954981Y3532457D02*
X-26857407Y3558602D01*
X-26857407Y3558602D02*
X-26697975Y3549032D01*
X-26697975Y3549032D02*
X-26450539Y3406175D01*
X-26450539Y3406175D02*
X-26291107Y3396606D01*
X-26291107Y3396606D02*
X-26193534Y3422750D01*
X-26193534Y3422750D02*
X-26060246Y3510754D01*
X-26060246Y3510754D02*
X-25917389Y3758190D01*
X-25917389Y3758190D02*
X-25907820Y3917622D01*
X-25907820Y3917622D02*
X-25933964Y4015195D01*
X-25933964Y4015195D02*
X-26021968Y4148483D01*
X-26021968Y4148483D02*
X-26269404Y4291340D01*
X-26269404Y4291340D02*
X-26428836Y4300910D01*
X-26428836Y4300910D02*
X-26526409Y4274765D01*
X-26526409Y4274765D02*
X-26659697Y4186761D01*
X-26659697Y4186761D02*
X-26802554Y3939325D01*
X-26802554Y3939325D02*
X-26812123Y3779893D01*
X-26812123Y3779893D02*
X-26785979Y3682320D01*
X-26785979Y3682320D02*
X-26697975Y3549032D01*
X-26393121Y28657231D02*
X-27135428Y28228660D01*
X-26764274Y28442945D02*
X-27514274Y29741983D01*
X-27514274Y29741983D02*
X-27530849Y29484978D01*
X-27530849Y29484978D02*
X-27583139Y29289832D01*
X-27583139Y29289832D02*
X-27671142Y29156544D01*
X-26576821Y30118265D02*
X-26550676Y30215839D01*
X-26550676Y30215839D02*
X-26462673Y30349126D01*
X-26462673Y30349126D02*
X-26153378Y30527698D01*
X-26153378Y30527698D02*
X-25993946Y30537267D01*
X-25993946Y30537267D02*
X-25896372Y30511122D01*
X-25896372Y30511122D02*
X-25763085Y30423119D01*
X-25763085Y30423119D02*
X-25691656Y30299401D01*
X-25691656Y30299401D02*
X-25646372Y30078110D01*
X-25646372Y30078110D02*
X-25960108Y28907231D01*
X-25960108Y28907231D02*
X-25155942Y29371517D01*
X-33241371Y16224286D02*
X-33241371Y15367143D01*
X-33241371Y15795714D02*
X-34741371Y15795714D01*
X-34741371Y15795714D02*
X-34527085Y15652857D01*
X-34527085Y15652857D02*
X-34384228Y15510000D01*
X-34384228Y15510000D02*
X-34312800Y15367143D01*
X-34741371Y17152857D02*
X-34741371Y17295714D01*
X-34741371Y17295714D02*
X-34669942Y17438571D01*
X-34669942Y17438571D02*
X-34598514Y17510000D01*
X-34598514Y17510000D02*
X-34455657Y17581428D01*
X-34455657Y17581428D02*
X-34169942Y17652857D01*
X-34169942Y17652857D02*
X-33812800Y17652857D01*
X-33812800Y17652857D02*
X-33527085Y17581428D01*
X-33527085Y17581428D02*
X-33384228Y17510000D01*
X-33384228Y17510000D02*
X-33312800Y17438571D01*
X-33312800Y17438571D02*
X-33241371Y17295714D01*
X-33241371Y17295714D02*
X-33241371Y17152857D01*
X-33241371Y17152857D02*
X-33312800Y17010000D01*
X-33312800Y17010000D02*
X-33384228Y16938571D01*
X-33384228Y16938571D02*
X-33527085Y16867142D01*
X-33527085Y16867142D02*
X-33812800Y16795714D01*
X-33812800Y16795714D02*
X-34169942Y16795714D01*
X-34169942Y16795714D02*
X-34455657Y16867142D01*
X-34455657Y16867142D02*
X-34598514Y16938571D01*
X-34598514Y16938571D02*
X-34669942Y17010000D01*
X-34669942Y17010000D02*
X-34741371Y17152857D01*
X-11451750Y2778015D02*
X-11204314Y2920873D01*
X-11204314Y2920873D02*
X-11116311Y3054160D01*
X-11116311Y3054160D02*
X-11090166Y3151733D01*
X-11090166Y3151733D02*
X-11073591Y3408739D01*
X-11073591Y3408739D02*
X-11154589Y3691889D01*
X-11154589Y3691889D02*
X-11440304Y4186761D01*
X-11440304Y4186761D02*
X-11573591Y4274764D01*
X-11573591Y4274764D02*
X-11671164Y4300909D01*
X-11671164Y4300909D02*
X-11830596Y4291339D01*
X-11830596Y4291339D02*
X-12078032Y4148482D01*
X-12078032Y4148482D02*
X-12166036Y4015195D01*
X-12166036Y4015195D02*
X-12192181Y3917621D01*
X-12192181Y3917621D02*
X-12182611Y3758189D01*
X-12182611Y3758189D02*
X-12004040Y3448894D01*
X-12004040Y3448894D02*
X-11870752Y3360891D01*
X-11870752Y3360891D02*
X-11773179Y3334746D01*
X-11773179Y3334746D02*
X-11613747Y3344316D01*
X-11613747Y3344316D02*
X-11366311Y3487173D01*
X-11366311Y3487173D02*
X-11278307Y3620460D01*
X-11278307Y3620460D02*
X-11252162Y3718034D01*
X-11252162Y3718034D02*
X-11261732Y3877466D01*
X-5710873Y24788697D02*
X-5246587Y23984531D01*
X-5246587Y23984531D02*
X-5991458Y24131829D01*
X-5991458Y24131829D02*
X-5884316Y23946252D01*
X-5884316Y23946252D02*
X-5874746Y23786820D01*
X-5874746Y23786820D02*
X-5900891Y23689247D01*
X-5900891Y23689247D02*
X-5988894Y23555959D01*
X-5988894Y23555959D02*
X-6298189Y23377388D01*
X-6298189Y23377388D02*
X-6457621Y23367818D01*
X-6457621Y23367818D02*
X-6555195Y23393963D01*
X-6555195Y23393963D02*
X-6688482Y23481967D01*
X-6688482Y23481967D02*
X-6902768Y23853120D01*
X-6902768Y23853120D02*
X-6912337Y24012553D01*
X-6912337Y24012553D02*
X-6886193Y24110126D01*
X32460554Y8355018D02*
X32817697Y8973608D01*
X32817697Y8973608D02*
X32234822Y9392610D01*
X32234822Y9392610D02*
X32260967Y9295037D01*
X32260967Y9295037D02*
X32251397Y9135604D01*
X32251397Y9135604D02*
X32072826Y8826310D01*
X32072826Y8826310D02*
X31939538Y8738306D01*
X31939538Y8738306D02*
X31841965Y8712161D01*
X31841965Y8712161D02*
X31682533Y8721731D01*
X31682533Y8721731D02*
X31373238Y8900302D01*
X31373238Y8900302D02*
X31285234Y9033590D01*
X31285234Y9033590D02*
X31259089Y9131163D01*
X31259089Y9131163D02*
X31268659Y9290595D01*
X31268659Y9290595D02*
X31447231Y9599890D01*
X31447231Y9599890D02*
X31580518Y9687894D01*
X31580518Y9687894D02*
X31678091Y9714038D01*
X26648249Y2778015D02*
X26895685Y2920873D01*
X26895685Y2920873D02*
X26983688Y3054160D01*
X26983688Y3054160D02*
X27009833Y3151733D01*
X27009833Y3151733D02*
X27026408Y3408739D01*
X27026408Y3408739D02*
X26945410Y3691889D01*
X26945410Y3691889D02*
X26659695Y4186761D01*
X26659695Y4186761D02*
X26526408Y4274764D01*
X26526408Y4274764D02*
X26428835Y4300909D01*
X26428835Y4300909D02*
X26269403Y4291339D01*
X26269403Y4291339D02*
X26021967Y4148482D01*
X26021967Y4148482D02*
X25933963Y4015195D01*
X25933963Y4015195D02*
X25907818Y3917621D01*
X25907818Y3917621D02*
X25917388Y3758189D01*
X25917388Y3758189D02*
X26095959Y3448894D01*
X26095959Y3448894D02*
X26229247Y3360891D01*
X26229247Y3360891D02*
X26326820Y3334746D01*
X26326820Y3334746D02*
X26486252Y3344316D01*
X26486252Y3344316D02*
X26733688Y3487173D01*
X26733688Y3487173D02*
X26821692Y3620460D01*
X26821692Y3620460D02*
X26847837Y3718034D01*
X26847837Y3718034D02*
X26838267Y3877466D01*
X19478572Y30701371D02*
X18621429Y30701371D01*
X19050000Y30701371D02*
X19050000Y32201371D01*
X19050000Y32201371D02*
X18907143Y31987085D01*
X18907143Y31987085D02*
X18764286Y31844228D01*
X18764286Y31844228D02*
X18621429Y31772800D01*
X6902768Y9166879D02*
X6759911Y9414314D01*
X6759911Y9414314D02*
X6626623Y9502318D01*
X6626623Y9502318D02*
X6529050Y9528463D01*
X6529050Y9528463D02*
X6272044Y9545038D01*
X6272044Y9545038D02*
X5988894Y9464040D01*
X5988894Y9464040D02*
X5494023Y9178325D01*
X5494023Y9178325D02*
X5406019Y9045038D01*
X5406019Y9045038D02*
X5379874Y8947465D01*
X5379874Y8947465D02*
X5389444Y8788032D01*
X5389444Y8788032D02*
X5532301Y8540596D01*
X5532301Y8540596D02*
X5665589Y8452593D01*
X5665589Y8452593D02*
X5763162Y8426448D01*
X5763162Y8426448D02*
X5922594Y8436018D01*
X5922594Y8436018D02*
X6231889Y8614589D01*
X6231889Y8614589D02*
X6319892Y8747877D01*
X6319892Y8747877D02*
X6346037Y8845450D01*
X6346037Y8845450D02*
X6336468Y9004882D01*
X6336468Y9004882D02*
X6193610Y9252318D01*
X6193610Y9252318D02*
X6060323Y9340322D01*
X6060323Y9340322D02*
X5962750Y9366466D01*
X5962750Y9366466D02*
X5803317Y9356897D01*
X34241371Y16224285D02*
X33241371Y16224285D01*
X34812800Y16581427D02*
X33741371Y16938570D01*
X33741371Y16938570D02*
X33741371Y16009999D01*
X32389126Y24788697D02*
X32853412Y23984531D01*
X32853412Y23984531D02*
X32108541Y24131829D01*
X32108541Y24131829D02*
X32215683Y23946252D01*
X32215683Y23946252D02*
X32225253Y23786820D01*
X32225253Y23786820D02*
X32199108Y23689247D01*
X32199108Y23689247D02*
X32111105Y23555959D01*
X32111105Y23555959D02*
X31801810Y23377388D01*
X31801810Y23377388D02*
X31642378Y23367818D01*
X31642378Y23367818D02*
X31544804Y23393963D01*
X31544804Y23393963D02*
X31411517Y23481967D01*
X31411517Y23481967D02*
X31197231Y23853120D01*
X31197231Y23853120D02*
X31187662Y24012553D01*
X31187662Y24012553D02*
X31213806Y24110126D01*
X26453104Y30189694D02*
X26550677Y30215838D01*
X26550677Y30215838D02*
X26710109Y30206269D01*
X26710109Y30206269D02*
X27019404Y30027697D01*
X27019404Y30027697D02*
X27107407Y29894410D01*
X27107407Y29894410D02*
X27133552Y29796836D01*
X27133552Y29796836D02*
X27123982Y29637404D01*
X27123982Y29637404D02*
X27052554Y29513686D01*
X27052554Y29513686D02*
X26883552Y29363824D01*
X26883552Y29363824D02*
X25712673Y29050088D01*
X25712673Y29050088D02*
X26516840Y28585802D01*
X11706878Y28657231D02*
X10964571Y28228660D01*
X11335725Y28442945D02*
X10585725Y29741983D01*
X10585725Y29741983D02*
X10569150Y29484978D01*
X10569150Y29484978D02*
X10516860Y29289832D01*
X10516860Y29289832D02*
X10428857Y29156544D01*
X11523178Y30118265D02*
X11549323Y30215839D01*
X11549323Y30215839D02*
X11637326Y30349126D01*
X11637326Y30349126D02*
X11946621Y30527698D01*
X11946621Y30527698D02*
X12106053Y30537267D01*
X12106053Y30537267D02*
X12203627Y30511122D01*
X12203627Y30511122D02*
X12336914Y30423119D01*
X12336914Y30423119D02*
X12408343Y30299401D01*
X12408343Y30299401D02*
X12453627Y30078110D01*
X12453627Y30078110D02*
X12139891Y28907231D01*
X12139891Y28907231D02*
X12944057Y29371517D01*
X4858628Y16224286D02*
X4858628Y15367143D01*
X4858628Y15795714D02*
X3358628Y15795714D01*
X3358628Y15795714D02*
X3572914Y15652857D01*
X3572914Y15652857D02*
X3715771Y15510000D01*
X3715771Y15510000D02*
X3787200Y15367143D01*
X3358628Y17152857D02*
X3358628Y17295714D01*
X3358628Y17295714D02*
X3430057Y17438571D01*
X3430057Y17438571D02*
X3501485Y17510000D01*
X3501485Y17510000D02*
X3644342Y17581428D01*
X3644342Y17581428D02*
X3930057Y17652857D01*
X3930057Y17652857D02*
X4287200Y17652857D01*
X4287200Y17652857D02*
X4572914Y17581428D01*
X4572914Y17581428D02*
X4715771Y17510000D01*
X4715771Y17510000D02*
X4787200Y17438571D01*
X4787200Y17438571D02*
X4858628Y17295714D01*
X4858628Y17295714D02*
X4858628Y17152857D01*
X4858628Y17152857D02*
X4787200Y17010000D01*
X4787200Y17010000D02*
X4715771Y16938571D01*
X4715771Y16938571D02*
X4572914Y16867142D01*
X4572914Y16867142D02*
X4287200Y16795714D01*
X4287200Y16795714D02*
X3930057Y16795714D01*
X3930057Y16795714D02*
X3644342Y16867142D01*
X3644342Y16867142D02*
X3501485Y16938571D01*
X3501485Y16938571D02*
X3430057Y17010000D01*
X3430057Y17010000D02*
X3358628Y17152857D01*
X6617054Y23358250D02*
X6188483Y22615942D01*
X6402768Y22987096D02*
X5103730Y23737096D01*
X5103730Y23737096D02*
X5217879Y23506235D01*
X5217879Y23506235D02*
X5270168Y23311089D01*
X5270168Y23311089D02*
X5260598Y23151657D01*
X7331340Y24595429D02*
X6902768Y23853121D01*
X7117054Y24224275D02*
X5818016Y24974275D01*
X5818016Y24974275D02*
X5932164Y24743414D01*
X5932164Y24743414D02*
X5984453Y24548268D01*
X5984453Y24548268D02*
X5974884Y24388835D01*
X19549999Y818628D02*
X18549999Y818628D01*
X18549999Y818628D02*
X19192856Y2318628D01*
X11649460Y3406175D02*
X11737463Y3272888D01*
X11737463Y3272888D02*
X11763608Y3175315D01*
X11763608Y3175315D02*
X11754038Y3015882D01*
X11754038Y3015882D02*
X11718324Y2954023D01*
X11718324Y2954023D02*
X11585037Y2866020D01*
X11585037Y2866020D02*
X11487463Y2839875D01*
X11487463Y2839875D02*
X11328031Y2849445D01*
X11328031Y2849445D02*
X11080595Y2992302D01*
X11080595Y2992302D02*
X10992592Y3125589D01*
X10992592Y3125589D02*
X10966447Y3223163D01*
X10966447Y3223163D02*
X10976017Y3382595D01*
X10976017Y3382595D02*
X11011731Y3444454D01*
X11011731Y3444454D02*
X11145018Y3532457D01*
X11145018Y3532457D02*
X11242592Y3558602D01*
X11242592Y3558602D02*
X11402024Y3549032D01*
X11402024Y3549032D02*
X11649460Y3406175D01*
X11649460Y3406175D02*
X11808892Y3396606D01*
X11808892Y3396606D02*
X11906465Y3422750D01*
X11906465Y3422750D02*
X12039753Y3510754D01*
X12039753Y3510754D02*
X12182610Y3758190D01*
X12182610Y3758190D02*
X12192179Y3917622D01*
X12192179Y3917622D02*
X12166035Y4015195D01*
X12166035Y4015195D02*
X12078031Y4148483D01*
X12078031Y4148483D02*
X11830595Y4291340D01*
X11830595Y4291340D02*
X11671163Y4300910D01*
X11671163Y4300910D02*
X11573590Y4274765D01*
X11573590Y4274765D02*
X11440302Y4186761D01*
X11440302Y4186761D02*
X11297445Y3939325D01*
X11297445Y3939325D02*
X11287876Y3779893D01*
X11287876Y3779893D02*
X11314020Y3682320D01*
X11314020Y3682320D02*
X11402024Y3549032D01*
D11*
X53290000Y5125000D02*
X51000000Y5125000D01*
X53290000Y5125000D02*
X53290000Y7450000D01*
X48310000Y7450000D02*
X48310000Y5525000D01*
X53290000Y17950000D02*
X53290000Y20275000D01*
X48310000Y19875000D02*
X48310000Y17950000D01*
X53290000Y20275000D02*
X51000000Y20275000D01*
X47700000Y17450000D02*
G75*
G02*
X47500000Y17450000I-100000J0D01*
G01*
X47500000Y17450000D02*
G75*
G02*
X47700000Y17450000I100000J0D01*
G01*
D12*
X-5850000Y-16510000D02*
G75*
G02*
X-32250000Y-16510000I-13200000J0D01*
G01*
X-32250000Y-16510000D02*
G75*
G02*
X-5850000Y-16510000I13200000J0D01*
G01*
D13*
X62746000Y-20525000D02*
X63346000Y-20525000D01*
X62746000Y-20415000D02*
X62746000Y-20525000D01*
X60156000Y-17650000D02*
X60556000Y-17450000D01*
X60556000Y-17450000D02*
X60156000Y-17250000D01*
X60156000Y-17250000D02*
X60156000Y-17650000D01*
X62746000Y-4985000D02*
X62746000Y-4875000D01*
X62746000Y-4875000D02*
X63346000Y-4875000D01*
D11*
X53290000Y-20275000D02*
X51000000Y-20275000D01*
X53290000Y-20275000D02*
X53290000Y-17950000D01*
X48310000Y-17950000D02*
X48310000Y-19875000D01*
X53290000Y-7450000D02*
X53290000Y-5125000D01*
X48310000Y-5525000D02*
X48310000Y-7450000D01*
X53290000Y-5125000D02*
X51000000Y-5125000D01*
X47700000Y-7950000D02*
G75*
G02*
X47500000Y-7950000I-100000J0D01*
G01*
X47500000Y-7950000D02*
G75*
G02*
X47700000Y-7950000I100000J0D01*
G01*
D12*
X32250000Y-16510000D02*
G75*
G02*
X5850000Y-16510000I-13200000J0D01*
G01*
X5850000Y-16510000D02*
G75*
G02*
X32250000Y-16510000I13200000J0D01*
G01*
D13*
X-50581878Y-4826000D02*
X-58455878Y-4826000D01*
X-50581878Y4826000D02*
X-58455878Y4826000D01*
X-41009879Y2500000D02*
G75*
G02*
X-41009879Y-2500000I-4999999J-2500000D01*
G01*
X-43509878Y-4999999D02*
G75*
G02*
X-48509878Y-4999999I-2500000J4999999D01*
G01*
X-48509878Y4999999D02*
G75*
G02*
X-43509878Y4999999I2500000J-4999999D01*
G01*
D14*
X6350000Y25780000D02*
X6350000Y27500000D01*
X6350000Y25780000D02*
X-6350000Y25780000D01*
X6350000Y30920000D02*
X6350000Y32640000D01*
X-6350000Y25780000D02*
X-6350000Y27500000D01*
X-6350000Y30920000D02*
X-6350000Y32640000D01*
X-6350000Y32640000D02*
X6350000Y32640000D01*
D12*
X-5850000Y16510000D02*
G75*
G02*
X-32250000Y16510000I-13200000J0D01*
G01*
X-32250000Y16510000D02*
G75*
G02*
X-5850000Y16510000I13200000J0D01*
G01*
X32250000Y16510000D02*
G75*
G02*
X5850000Y16510000I-13200000J0D01*
G01*
X5850000Y16510000D02*
G75*
G02*
X32250000Y16510000I13200000J0D01*
G01*
D14*
X6350000Y-32640000D02*
X6350000Y-30920000D01*
X6350000Y-32640000D02*
X-6350000Y-32640000D01*
X6350000Y-27500000D02*
X6350000Y-25780000D01*
X-6350000Y-32640000D02*
X-6350000Y-30920000D01*
X-6350000Y-27500000D02*
X-6350000Y-25780000D01*
X-6350000Y-25780000D02*
X6350000Y-25780000D01*
D13*
X62746000Y4875000D02*
X63346000Y4875000D01*
X62746000Y4985000D02*
X62746000Y4875000D01*
X60156000Y7750000D02*
X60556000Y7950000D01*
X60556000Y7950000D02*
X60156000Y8150000D01*
X60156000Y8150000D02*
X60156000Y7750000D01*
X62746000Y20415000D02*
X62746000Y20525000D01*
X62746000Y20525000D02*
X63346000Y20525000D01*
M02*
