G04 #@! TF.GenerationSoftware,KiCad,Pcbnew,7.0.10*
G04 #@! TF.CreationDate,2024-07-19T13:30:28-04:00*
G04 #@! TF.ProjectId,CanDoIt-v1,43616e44-6f49-4742-9d76-312e6b696361,rev?*
G04 #@! TF.SameCoordinates,Original*
G04 #@! TF.FileFunction,Copper,L1,Top*
G04 #@! TF.FilePolarity,Positive*
%FSLAX46Y46*%
G04 Gerber Fmt 4.6, Leading zero omitted, Abs format (unit mm)*
G04 Created by KiCad (PCBNEW 7.0.10) date 2024-07-19 13:30:28*
%MOMM*%
%LPD*%
G01*
G04 APERTURE LIST*
G04 #@! TA.AperFunction,NonConductor*
%ADD10C,3.048000*%
G04 #@! TD*
G04 #@! TA.AperFunction,SMDPad,CuDef*
%ADD11R,1.500000X0.300000*%
G04 #@! TD*
G04 #@! TA.AperFunction,ComponentPad*
%ADD12C,1.500000*%
G04 #@! TD*
G04 #@! TA.AperFunction,ComponentPad*
%ADD13C,1.208000*%
G04 #@! TD*
G04 #@! TA.AperFunction,ViaPad*
%ADD14C,0.500000*%
G04 #@! TD*
G04 #@! TA.AperFunction,Conductor*
%ADD15C,0.203200*%
G04 #@! TD*
G04 APERTURE END LIST*
D10*
X17800000Y0D02*
G75*
G03*
X-17800000Y0I-17800000J0D01*
G01*
X-17800000Y0D02*
G75*
G03*
X17800000Y0I17800000J0D01*
G01*
D11*
X6450000Y-4750000D03*
X2750000Y-4750000D03*
X6450000Y-4250000D03*
X2750000Y-4250000D03*
X6450000Y-3750000D03*
X2750000Y-3750000D03*
X6450000Y-3250000D03*
X2750000Y-3250000D03*
X6450000Y-2750000D03*
X2750000Y-2750000D03*
X6450000Y-2250000D03*
X2750000Y-2250000D03*
X6450000Y-1750000D03*
X2750000Y-1750000D03*
X6450000Y-1250000D03*
X2750000Y-1250000D03*
X6450000Y-750000D03*
X2750000Y-750000D03*
X6450000Y-250000D03*
X2750000Y-250000D03*
X6450000Y250000D03*
X2750000Y250000D03*
X6450000Y750000D03*
X2750000Y750000D03*
X6450000Y1250000D03*
X2750000Y1250000D03*
X6450000Y1750000D03*
X2750000Y1750000D03*
X6450000Y2250000D03*
X2750000Y2250000D03*
X6450000Y2750000D03*
X2750000Y2750000D03*
X6450000Y3250000D03*
X2750000Y3250000D03*
X6450000Y3750000D03*
X2750000Y3750000D03*
X6450000Y4250000D03*
X2750000Y4250000D03*
X6450000Y4750000D03*
X2750000Y4750000D03*
D12*
X5750000Y7475000D03*
X5750000Y-7475000D03*
D11*
X-6450000Y4750000D03*
X-2750000Y4750000D03*
X-6450000Y4250000D03*
X-2750000Y4250000D03*
X-6450000Y3750000D03*
X-2750000Y3750000D03*
X-6450000Y3250000D03*
X-2750000Y3250000D03*
X-6450000Y2750000D03*
X-2750000Y2750000D03*
X-6450000Y2250000D03*
X-2750000Y2250000D03*
X-6450000Y1750000D03*
X-2750000Y1750000D03*
X-6450000Y1250000D03*
X-2750000Y1250000D03*
X-6450000Y750000D03*
X-2750000Y750000D03*
X-6450000Y250000D03*
X-2750000Y250000D03*
X-6450000Y-250000D03*
X-2750000Y-250000D03*
X-6450000Y-750000D03*
X-2750000Y-750000D03*
X-6450000Y-1250000D03*
X-2750000Y-1250000D03*
X-6450000Y-1750000D03*
X-2750000Y-1750000D03*
X-6450000Y-2250000D03*
X-2750000Y-2250000D03*
X-6450000Y-2750000D03*
X-2750000Y-2750000D03*
X-6450000Y-3250000D03*
X-2750000Y-3250000D03*
X-6450000Y-3750000D03*
X-2750000Y-3750000D03*
X-6450000Y-4250000D03*
X-2750000Y-4250000D03*
X-6450000Y-4750000D03*
X-2750000Y-4750000D03*
D12*
X-5750000Y-7475000D03*
X-5750000Y7475000D03*
D13*
X18460000Y-44120000D03*
X18460000Y-41870000D03*
X16485000Y-43000000D03*
X3835000Y-43000000D03*
X1860000Y-44120000D03*
X1860000Y-41870000D03*
X-1860000Y-44120000D03*
X-1860000Y-41870000D03*
X-3835000Y-43000000D03*
X-16485000Y-43000000D03*
X-18460000Y-44120000D03*
X-18460000Y-41870000D03*
D14*
X-9398000Y5334000D03*
X-9652000Y4318000D03*
X-9906000Y3302000D03*
X-10160000Y2286000D03*
X-10414000Y1270000D03*
X-10668000Y254000D03*
X-10922000Y-762000D03*
X-11176000Y-1778000D03*
X-11430000Y-2794000D03*
X-11684000Y-3810000D03*
X-11938000Y-4826000D03*
X-12192000Y-5842000D03*
X-12446000Y-6858000D03*
X-12700000Y-7874000D03*
X-12954000Y-8890000D03*
X8128000Y10414000D03*
X8382000Y9398000D03*
X8636000Y8382000D03*
X8890000Y7366000D03*
X9144000Y6350000D03*
X9398000Y5334000D03*
X9652000Y4318000D03*
X9906000Y3302000D03*
X10160000Y2286000D03*
X10414000Y1270000D03*
X10668000Y254000D03*
X10922000Y-762000D03*
X11176000Y-1778000D03*
X11430000Y-2794000D03*
X11684000Y-3810000D03*
X-8128000Y10414000D03*
X-8382000Y9398000D03*
X-8636000Y8382000D03*
X-8890000Y7366000D03*
X-9144000Y6350000D03*
X12954000Y-8890000D03*
X12700000Y-7874000D03*
X12446000Y-6858000D03*
X12192000Y-5842000D03*
X11938000Y-4826000D03*
D15*
X-7378776Y2250000D02*
X-6414000Y2250000D01*
X-9144000Y4015224D02*
X-7378776Y2250000D01*
X-9144000Y5080000D02*
X-9144000Y4015224D01*
X-9398000Y5334000D02*
X-9144000Y5080000D01*
X-7534070Y1750000D02*
X-6414000Y1750000D01*
X-9652000Y3867930D02*
X-7534070Y1750000D01*
X-9652000Y4318000D02*
X-9652000Y3867930D01*
X-9906000Y3302000D02*
X-7854000Y1250000D01*
X-7854000Y1250000D02*
X-6414000Y1250000D01*
X-10160000Y2286000D02*
X-8624000Y750000D01*
X-8624000Y750000D02*
X-6414000Y750000D01*
X-9394000Y250000D02*
X-6414000Y250000D01*
X-10414000Y1270000D02*
X-9394000Y250000D01*
X-10164000Y-250000D02*
X-6414000Y-250000D01*
X-10668000Y254000D02*
X-10164000Y-250000D01*
X-10910000Y-750000D02*
X-6414000Y-750000D01*
X-10922000Y-762000D02*
X-10910000Y-750000D01*
X-10648000Y-1250000D02*
X-6414000Y-1250000D01*
X-11176000Y-1778000D02*
X-10648000Y-1250000D01*
X-11395236Y-2794000D02*
X-10351236Y-1750000D01*
X-10351236Y-1750000D02*
X-6414000Y-1750000D01*
X-11430000Y-2794000D02*
X-11395236Y-2794000D01*
X-11684000Y-3810000D02*
X-11649236Y-3810000D01*
X-10089236Y-2250000D02*
X-6414000Y-2250000D01*
X-11649236Y-3810000D02*
X-10089236Y-2250000D01*
X-11938000Y-4826000D02*
X-11903236Y-4826000D01*
X-9827236Y-2750000D02*
X-6414000Y-2750000D01*
X-11903236Y-4826000D02*
X-9827236Y-2750000D01*
X-12108000Y-5842000D02*
X-9516000Y-3250000D01*
X-12192000Y-5842000D02*
X-12108000Y-5842000D01*
X-9516000Y-3250000D02*
X-6414000Y-3250000D01*
X-12446000Y-6858000D02*
X-12362000Y-6858000D01*
X-9254000Y-3750000D02*
X-6414000Y-3750000D01*
X-12362000Y-6858000D02*
X-9254000Y-3750000D01*
X-12616000Y-7874000D02*
X-8992000Y-4250000D01*
X-8992000Y-4250000D02*
X-6414000Y-4250000D01*
X-12700000Y-7874000D02*
X-12616000Y-7874000D01*
X-8730000Y-4750000D02*
X-6414000Y-4750000D01*
X-12954000Y-8890000D02*
X-12870000Y-8890000D01*
X-12870000Y-8890000D02*
X-8730000Y-4750000D01*
X7366000Y9652000D02*
X7366000Y4820894D01*
X8128000Y10414000D02*
X7366000Y9652000D01*
X7295106Y4750000D02*
X5990000Y4750000D01*
X7366000Y4820894D02*
X7295106Y4750000D01*
X7721600Y4673600D02*
X7298000Y4250000D01*
X7298000Y4250000D02*
X5990000Y4250000D01*
X7721600Y8737600D02*
X7721600Y4673600D01*
X8382000Y9398000D02*
X7721600Y8737600D01*
X8077200Y4493412D02*
X7333788Y3750000D01*
X8077200Y7823200D02*
X8077200Y4493412D01*
X7333788Y3750000D02*
X5990000Y3750000D01*
X8636000Y8382000D02*
X8077200Y7823200D01*
X8432800Y6908800D02*
X8432800Y4346118D01*
X8890000Y7366000D02*
X8432800Y6908800D01*
X8432800Y4346118D02*
X7336682Y3250000D01*
X7336682Y3250000D02*
X5990000Y3250000D01*
X8788400Y5994400D02*
X8788400Y4198824D01*
X7339576Y2750000D02*
X5990000Y2750000D01*
X9144000Y6350000D02*
X8788400Y5994400D01*
X8788400Y4198824D02*
X7339576Y2750000D01*
X9398000Y5334000D02*
X9144000Y5080000D01*
X7342470Y2250000D02*
X5990000Y2250000D01*
X9144000Y4051530D02*
X7342470Y2250000D01*
X9144000Y5080000D02*
X9144000Y4051530D01*
X9652000Y4318000D02*
X9652000Y4056636D01*
X7345364Y1750000D02*
X5990000Y1750000D01*
X9652000Y4056636D02*
X7345364Y1750000D01*
X7854000Y1250000D02*
X5990000Y1250000D01*
X9906000Y3302000D02*
X7854000Y1250000D01*
X10160000Y2286000D02*
X8624000Y750000D01*
X8624000Y750000D02*
X5990000Y750000D01*
X7159764Y254000D02*
X7155764Y250000D01*
X9398000Y254000D02*
X7159764Y254000D01*
X10414000Y1270000D02*
X9398000Y254000D01*
X7155764Y250000D02*
X5990000Y250000D01*
X10668000Y254000D02*
X10164000Y-250000D01*
X10164000Y-250000D02*
X5990000Y-250000D01*
X10910000Y-750000D02*
X5990000Y-750000D01*
X10922000Y-762000D02*
X10910000Y-750000D01*
X11176000Y-1778000D02*
X10648000Y-1250000D01*
X10648000Y-1250000D02*
X5990000Y-1250000D01*
X11430000Y-2794000D02*
X10386000Y-1750000D01*
X10386000Y-1750000D02*
X5990000Y-1750000D01*
X11684000Y-3810000D02*
X10124000Y-2250000D01*
X10124000Y-2250000D02*
X5990000Y-2250000D01*
X-7366000Y4834000D02*
X-7282000Y4750000D01*
X-7282000Y4750000D02*
X-6414000Y4750000D01*
X-8128000Y10414000D02*
X-7366000Y9652000D01*
X-7366000Y9652000D02*
X-7366000Y4834000D01*
X-7367200Y4250000D02*
X-6414000Y4250000D01*
X-7721600Y4604400D02*
X-7367200Y4250000D01*
X-7721600Y8737600D02*
X-7721600Y4604400D01*
X-8382000Y9398000D02*
X-7721600Y8737600D01*
X-8636000Y8382000D02*
X-8077200Y7823200D01*
X-8077200Y4457106D02*
X-7370094Y3750000D01*
X-8077200Y7823200D02*
X-8077200Y4457106D01*
X-7370094Y3750000D02*
X-6414000Y3750000D01*
X-8890000Y7366000D02*
X-8432800Y6908800D01*
X-8432800Y6908800D02*
X-8432800Y4309812D01*
X-7372988Y3250000D02*
X-6414000Y3250000D01*
X-8432800Y4309812D02*
X-7372988Y3250000D01*
X-8788400Y5994400D02*
X-8788400Y4162518D01*
X-9144000Y6350000D02*
X-8788400Y5994400D01*
X-8788400Y4162518D02*
X-7375882Y2750000D01*
X-7375882Y2750000D02*
X-6414000Y2750000D01*
X12954000Y-8890000D02*
X8814000Y-4750000D01*
X8814000Y-4750000D02*
X5990000Y-4750000D01*
X12700000Y-7874000D02*
X9076000Y-4250000D01*
X9076000Y-4250000D02*
X5990000Y-4250000D01*
X9338000Y-3750000D02*
X5990000Y-3750000D01*
X12446000Y-6858000D02*
X9338000Y-3750000D01*
X12192000Y-5842000D02*
X9600000Y-3250000D01*
X9600000Y-3250000D02*
X5990000Y-3250000D01*
X11938000Y-4826000D02*
X9862000Y-2750000D01*
X9862000Y-2750000D02*
X5990000Y-2750000D01*
G04 #@! TA.AperFunction,Conductor*
G36*
X403197Y16067179D02*
G01*
X454556Y16064615D01*
X1198580Y16027483D01*
X1203582Y16027108D01*
X1995998Y15947815D01*
X2000975Y15947191D01*
X2788444Y15828500D01*
X2793384Y15827629D01*
X3573961Y15669831D01*
X3578851Y15668715D01*
X4350590Y15472206D01*
X4355418Y15470848D01*
X5116422Y15236110D01*
X5121177Y15234512D01*
X5869505Y14962142D01*
X5874174Y14960310D01*
X6608027Y14650966D01*
X6612600Y14648902D01*
X7330094Y14303375D01*
X7334557Y14301087D01*
X8033946Y13920219D01*
X8038290Y13917711D01*
X8717815Y13502463D01*
X8722029Y13499742D01*
X9380026Y13051126D01*
X9384099Y13048198D01*
X10018929Y12567334D01*
X10022839Y12564215D01*
X10302165Y12329832D01*
X10632890Y12052321D01*
X10636650Y12049002D01*
X11220427Y11507338D01*
X11224018Y11503836D01*
X11780075Y10933738D01*
X11783487Y10930061D01*
X12310442Y10332948D01*
X12313666Y10329105D01*
X12810182Y9706495D01*
X12813211Y9702497D01*
X13278092Y9055886D01*
X13280918Y9051741D01*
X13712990Y8382763D01*
X13715605Y8378483D01*
X14113785Y7688816D01*
X14116184Y7684411D01*
X14479503Y6975731D01*
X14481679Y6971211D01*
X14809205Y6245339D01*
X14811154Y6240717D01*
X15102108Y5499378D01*
X15103823Y5494665D01*
X15357450Y4739782D01*
X15358929Y4734989D01*
X15574620Y3968378D01*
X15575858Y3963517D01*
X15753067Y3187110D01*
X15754061Y3182193D01*
X15892352Y2397910D01*
X15893099Y2392950D01*
X15992119Y1602784D01*
X15992619Y1597793D01*
X16052133Y803639D01*
X16052383Y798629D01*
X16072237Y2508D01*
X16072237Y-2508D01*
X16052383Y-798629D01*
X16052133Y-803639D01*
X15992619Y-1597793D01*
X15992119Y-1602784D01*
X15893099Y-2392950D01*
X15892352Y-2397910D01*
X15754061Y-3182193D01*
X15753067Y-3187110D01*
X15575858Y-3963517D01*
X15574620Y-3968378D01*
X15358929Y-4734989D01*
X15357450Y-4739782D01*
X15103823Y-5494665D01*
X15102108Y-5499378D01*
X14811154Y-6240717D01*
X14809205Y-6245339D01*
X14481679Y-6971211D01*
X14479503Y-6975731D01*
X14116184Y-7684411D01*
X14113785Y-7688816D01*
X13715605Y-8378483D01*
X13712989Y-8382763D01*
X13524545Y-8674530D01*
X13476325Y-8713778D01*
X13414244Y-8717187D01*
X13362016Y-8683454D01*
X13348530Y-8661740D01*
X13339603Y-8642192D01*
X13339601Y-8642190D01*
X13339601Y-8642189D01*
X13254165Y-8543591D01*
X13144412Y-8473057D01*
X13019232Y-8436300D01*
X13019231Y-8436300D01*
X13006844Y-8436300D01*
X12947713Y-8417087D01*
X12911168Y-8366787D01*
X12911168Y-8304613D01*
X12947713Y-8254313D01*
X12952446Y-8251076D01*
X13000165Y-8220409D01*
X13085601Y-8121811D01*
X13139798Y-8003136D01*
X13158365Y-7874000D01*
X13139798Y-7744864D01*
X13085601Y-7626189D01*
X13000165Y-7527591D01*
X12890412Y-7457057D01*
X12765232Y-7420300D01*
X12765231Y-7420300D01*
X12752844Y-7420300D01*
X12693713Y-7401087D01*
X12657168Y-7350787D01*
X12657168Y-7288613D01*
X12693713Y-7238313D01*
X12698446Y-7235076D01*
X12746165Y-7204409D01*
X12831601Y-7105811D01*
X12885798Y-6987136D01*
X12904365Y-6858000D01*
X12885798Y-6728864D01*
X12831601Y-6610189D01*
X12746165Y-6511591D01*
X12636412Y-6441057D01*
X12511232Y-6404300D01*
X12511231Y-6404300D01*
X12498844Y-6404300D01*
X12439713Y-6385087D01*
X12403168Y-6334787D01*
X12403168Y-6272613D01*
X12439713Y-6222313D01*
X12444446Y-6219076D01*
X12492165Y-6188409D01*
X12577601Y-6089811D01*
X12631798Y-5971136D01*
X12650365Y-5842000D01*
X12631798Y-5712864D01*
X12577601Y-5594189D01*
X12498879Y-5503339D01*
X12492166Y-5495592D01*
X12492165Y-5495591D01*
X12382412Y-5425057D01*
X12257232Y-5388300D01*
X12257231Y-5388300D01*
X12244844Y-5388300D01*
X12185713Y-5369087D01*
X12149168Y-5318787D01*
X12149168Y-5256613D01*
X12185713Y-5206313D01*
X12190446Y-5203076D01*
X12238165Y-5172409D01*
X12323601Y-5073811D01*
X12377798Y-4955136D01*
X12396365Y-4826000D01*
X12377798Y-4696864D01*
X12323601Y-4578189D01*
X12238165Y-4479591D01*
X12128412Y-4409057D01*
X12003232Y-4372300D01*
X12003231Y-4372300D01*
X11990844Y-4372300D01*
X11931713Y-4353087D01*
X11895168Y-4302787D01*
X11895168Y-4240613D01*
X11931713Y-4190313D01*
X11936446Y-4187076D01*
X11984165Y-4156409D01*
X12069601Y-4057811D01*
X12123798Y-3939136D01*
X12142365Y-3810000D01*
X12123798Y-3680864D01*
X12069601Y-3562189D01*
X11984165Y-3463591D01*
X11874412Y-3393057D01*
X11749232Y-3356300D01*
X11749231Y-3356300D01*
X11736844Y-3356300D01*
X11677713Y-3337087D01*
X11641168Y-3286787D01*
X11641168Y-3224613D01*
X11677713Y-3174313D01*
X11682446Y-3171076D01*
X11730165Y-3140409D01*
X11815601Y-3041811D01*
X11869798Y-2923136D01*
X11888365Y-2794000D01*
X11869798Y-2664864D01*
X11815601Y-2546189D01*
X11730165Y-2447591D01*
X11620412Y-2377057D01*
X11495232Y-2340300D01*
X11495231Y-2340300D01*
X11482844Y-2340300D01*
X11423713Y-2321087D01*
X11387168Y-2270787D01*
X11387168Y-2208613D01*
X11423713Y-2158313D01*
X11428446Y-2155076D01*
X11476165Y-2124409D01*
X11561601Y-2025811D01*
X11615798Y-1907136D01*
X11634365Y-1778000D01*
X11615798Y-1648864D01*
X11561601Y-1530189D01*
X11476165Y-1431591D01*
X11366412Y-1361057D01*
X11241232Y-1324300D01*
X11241231Y-1324300D01*
X11228844Y-1324300D01*
X11169713Y-1305087D01*
X11133168Y-1254787D01*
X11133168Y-1192613D01*
X11169713Y-1142313D01*
X11174446Y-1139076D01*
X11222165Y-1108409D01*
X11307601Y-1009811D01*
X11361798Y-891136D01*
X11380365Y-762000D01*
X11361798Y-632864D01*
X11307601Y-514189D01*
X11222165Y-415591D01*
X11112412Y-345057D01*
X10987232Y-308300D01*
X10974844Y-308300D01*
X10915713Y-289087D01*
X10879168Y-238787D01*
X10879168Y-176613D01*
X10915713Y-126313D01*
X10920446Y-123076D01*
X10968165Y-92409D01*
X11053601Y6189D01*
X11107798Y124864D01*
X11126365Y254000D01*
X11107798Y383136D01*
X11053601Y501811D01*
X10968165Y600409D01*
X10858412Y670943D01*
X10733232Y707700D01*
X10720844Y707700D01*
X10661713Y726913D01*
X10625168Y777213D01*
X10625168Y839387D01*
X10661713Y889687D01*
X10666446Y892923D01*
X10714165Y923591D01*
X10799601Y1022189D01*
X10853798Y1140864D01*
X10872365Y1270000D01*
X10853798Y1399136D01*
X10799601Y1517811D01*
X10714165Y1616409D01*
X10604412Y1686943D01*
X10479232Y1723700D01*
X10466844Y1723700D01*
X10407713Y1742913D01*
X10371168Y1793213D01*
X10371168Y1855387D01*
X10407713Y1905687D01*
X10412446Y1908923D01*
X10460165Y1939591D01*
X10545601Y2038189D01*
X10599798Y2156864D01*
X10618365Y2286000D01*
X10599798Y2415136D01*
X10545601Y2533811D01*
X10460165Y2632409D01*
X10350412Y2702943D01*
X10225232Y2739700D01*
X10212844Y2739700D01*
X10153713Y2758913D01*
X10117168Y2809213D01*
X10117168Y2871387D01*
X10153713Y2921687D01*
X10158446Y2924923D01*
X10206165Y2955591D01*
X10291601Y3054189D01*
X10345798Y3172864D01*
X10364365Y3302000D01*
X10345798Y3431136D01*
X10291601Y3549811D01*
X10206165Y3648409D01*
X10096412Y3718943D01*
X9978888Y3753451D01*
X9927568Y3788544D01*
X9906674Y3847102D01*
X9913426Y3886315D01*
X9919672Y3902438D01*
X9930483Y3922948D01*
X9936124Y3931183D01*
X9937519Y3937113D01*
X9959419Y3979962D01*
X10037601Y4070189D01*
X10051215Y4100000D01*
X10091798Y4188864D01*
X10110365Y4318000D01*
X10091798Y4447136D01*
X10037601Y4565811D01*
X9952165Y4664409D01*
X9842412Y4734943D01*
X9717232Y4771700D01*
X9704844Y4771700D01*
X9645713Y4790913D01*
X9609168Y4841213D01*
X9609168Y4903387D01*
X9645713Y4953687D01*
X9650446Y4956923D01*
X9698165Y4987591D01*
X9783601Y5086189D01*
X9786201Y5091881D01*
X9823343Y5173213D01*
X9837798Y5204864D01*
X9854991Y5324445D01*
X9856365Y5333999D01*
X9856365Y5334000D01*
X9846903Y5399809D01*
X9837798Y5463136D01*
X9783601Y5581811D01*
X9698165Y5680409D01*
X9588412Y5750943D01*
X9463232Y5787700D01*
X9450844Y5787700D01*
X9391713Y5806913D01*
X9355168Y5857213D01*
X9355168Y5919387D01*
X9391713Y5969687D01*
X9396446Y5972923D01*
X9444165Y6003591D01*
X9529601Y6102189D01*
X9583798Y6220864D01*
X9602365Y6350000D01*
X9583798Y6479136D01*
X9529601Y6597811D01*
X9444165Y6696409D01*
X9334412Y6766943D01*
X9209232Y6803700D01*
X9196844Y6803700D01*
X9137713Y6822913D01*
X9101168Y6873213D01*
X9101168Y6935387D01*
X9137713Y6985687D01*
X9142446Y6988923D01*
X9190165Y7019591D01*
X9275601Y7118189D01*
X9329798Y7236864D01*
X9348365Y7366000D01*
X9329798Y7495136D01*
X9275601Y7613811D01*
X9190165Y7712409D01*
X9080412Y7782943D01*
X8955232Y7819700D01*
X8942844Y7819700D01*
X8883713Y7838913D01*
X8847168Y7889213D01*
X8847168Y7951387D01*
X8883713Y8001687D01*
X8888446Y8004923D01*
X8936165Y8035591D01*
X9021601Y8134189D01*
X9075798Y8252864D01*
X9094365Y8382000D01*
X9075798Y8511136D01*
X9021601Y8629811D01*
X8936165Y8728409D01*
X8826412Y8798943D01*
X8701232Y8835700D01*
X8688844Y8835700D01*
X8629713Y8854913D01*
X8593168Y8905213D01*
X8593168Y8967387D01*
X8629713Y9017687D01*
X8634446Y9020923D01*
X8682165Y9051591D01*
X8767601Y9150189D01*
X8821798Y9268864D01*
X8840365Y9398000D01*
X8821798Y9527136D01*
X8767601Y9645811D01*
X8682165Y9744409D01*
X8572412Y9814943D01*
X8447232Y9851700D01*
X8434844Y9851700D01*
X8375713Y9870913D01*
X8339168Y9921213D01*
X8339168Y9983387D01*
X8375713Y10033687D01*
X8380446Y10036923D01*
X8428165Y10067591D01*
X8513601Y10166189D01*
X8567798Y10284864D01*
X8586365Y10414000D01*
X8567798Y10543136D01*
X8513601Y10661811D01*
X8428165Y10760409D01*
X8318412Y10830943D01*
X8193232Y10867700D01*
X8062768Y10867700D01*
X7937588Y10830943D01*
X7827835Y10760409D01*
X7742399Y10661811D01*
X7742398Y10661809D01*
X7742397Y10661808D01*
X7688201Y10543135D01*
X7669932Y10416068D01*
X7642499Y10360273D01*
X7641491Y10359250D01*
X7196940Y9914699D01*
X7185507Y9906480D01*
X7186269Y9905473D01*
X7178830Y9899855D01*
X7178829Y9899855D01*
X7178827Y9899853D01*
X7146697Y9864608D01*
X7143488Y9861247D01*
X7130115Y9847874D01*
X7130048Y9847776D01*
X7121403Y9836862D01*
X7101932Y9815503D01*
X7101932Y9815502D01*
X7098327Y9806197D01*
X7087516Y9785687D01*
X7081876Y9777453D01*
X7081875Y9777452D01*
X7075259Y9749322D01*
X7071140Y9736020D01*
X7060700Y9709070D01*
X7060700Y9709069D01*
X7060700Y9699091D01*
X7058028Y9676058D01*
X7055743Y9666345D01*
X7055743Y9666341D01*
X7059735Y9637727D01*
X7060700Y9623828D01*
X7060700Y8075723D01*
X7041487Y8016592D01*
X6991187Y7980047D01*
X6929013Y7980047D01*
X6878713Y8016592D01*
X6868925Y8033208D01*
X6836666Y8102386D01*
X6836664Y8102389D01*
X6793124Y8164570D01*
X6233077Y7604523D01*
X6209493Y7684844D01*
X6131761Y7805798D01*
X6023100Y7899952D01*
X5892315Y7959680D01*
X5882532Y7961086D01*
X6439570Y8518125D01*
X6439571Y8518125D01*
X6377390Y8561665D01*
X6179161Y8654101D01*
X5967890Y8710711D01*
X5750002Y8729775D01*
X5749998Y8729775D01*
X5532109Y8710711D01*
X5320838Y8654101D01*
X5122618Y8561669D01*
X5122604Y8561661D01*
X5060427Y8518125D01*
X5617465Y7961086D01*
X5607685Y7959680D01*
X5476900Y7899952D01*
X5368239Y7805798D01*
X5290507Y7684844D01*
X5266922Y7604521D01*
X4706874Y8164570D01*
X4706873Y8164570D01*
X4663336Y8102391D01*
X4663329Y8102379D01*
X4570898Y7904161D01*
X4514288Y7692890D01*
X4495225Y7475001D01*
X4495225Y7474998D01*
X4514288Y7257109D01*
X4570898Y7045838D01*
X4663329Y6847619D01*
X4663336Y6847607D01*
X4706873Y6785428D01*
X4706874Y6785428D01*
X5266922Y7345476D01*
X5290507Y7265156D01*
X5368239Y7144202D01*
X5476900Y7050048D01*
X5607685Y6990320D01*
X5617466Y6988913D01*
X5060428Y6431874D01*
X5060428Y6431873D01*
X5122607Y6388336D01*
X5122619Y6388329D01*
X5320838Y6295898D01*
X5532109Y6239288D01*
X5749998Y6220225D01*
X5750002Y6220225D01*
X5967890Y6239288D01*
X6179161Y6295898D01*
X6377382Y6388330D01*
X6377390Y6388335D01*
X6439570Y6431874D01*
X5882532Y6988913D01*
X5892315Y6990320D01*
X6023100Y7050048D01*
X6131761Y7144202D01*
X6209493Y7265156D01*
X6233076Y7345475D01*
X6793124Y6785428D01*
X6836664Y6847609D01*
X6836669Y6847617D01*
X6868926Y6916791D01*
X6911329Y6962262D01*
X6972361Y6974125D01*
X7028709Y6947849D01*
X7058852Y6893470D01*
X7060700Y6874275D01*
X7060700Y5204300D01*
X7041487Y5145169D01*
X6991187Y5108624D01*
X6960100Y5103700D01*
X5679936Y5103700D01*
X5620520Y5091881D01*
X5553140Y5046860D01*
X5523057Y5001838D01*
X5508118Y4979479D01*
X5496300Y4920063D01*
X5496300Y4579935D01*
X5508296Y4519625D01*
X5508296Y4480375D01*
X5496300Y4420064D01*
X5496300Y4079935D01*
X5508296Y4019625D01*
X5508296Y3980375D01*
X5496300Y3920064D01*
X5496300Y3579935D01*
X5508296Y3519625D01*
X5508296Y3480375D01*
X5496300Y3420064D01*
X5496300Y3079935D01*
X5508296Y3019625D01*
X5508296Y2980375D01*
X5496300Y2920064D01*
X5496300Y2579935D01*
X5508296Y2519625D01*
X5508296Y2480375D01*
X5496300Y2420064D01*
X5496300Y2079935D01*
X5508296Y2019625D01*
X5508296Y1980375D01*
X5496300Y1920064D01*
X5496300Y1579935D01*
X5508296Y1519625D01*
X5508296Y1480375D01*
X5496300Y1420064D01*
X5496300Y1079935D01*
X5508296Y1019625D01*
X5508296Y980375D01*
X5496300Y920064D01*
X5496300Y579935D01*
X5508296Y519625D01*
X5508296Y480375D01*
X5496300Y420064D01*
X5496300Y79935D01*
X5508296Y19625D01*
X5508296Y-19625D01*
X5496300Y-79935D01*
X5496300Y-420064D01*
X5508296Y-480375D01*
X5508296Y-519625D01*
X5496300Y-579935D01*
X5496300Y-920064D01*
X5508296Y-980375D01*
X5508296Y-1019625D01*
X5496300Y-1079935D01*
X5496300Y-1420064D01*
X5508296Y-1480375D01*
X5508296Y-1519625D01*
X5496300Y-1579935D01*
X5496300Y-1920064D01*
X5508296Y-1980375D01*
X5508296Y-2019625D01*
X5496300Y-2079935D01*
X5496300Y-2420064D01*
X5508296Y-2480375D01*
X5508296Y-2519625D01*
X5496300Y-2579935D01*
X5496300Y-2920064D01*
X5508296Y-2980375D01*
X5508296Y-3019625D01*
X5496300Y-3079935D01*
X5496300Y-3420064D01*
X5508296Y-3480375D01*
X5508296Y-3519625D01*
X5496300Y-3579935D01*
X5496300Y-3920064D01*
X5508296Y-3980375D01*
X5508296Y-4019625D01*
X5496300Y-4079935D01*
X5496300Y-4420064D01*
X5508296Y-4480375D01*
X5508296Y-4519625D01*
X5496300Y-4579935D01*
X5496300Y-4920063D01*
X5508118Y-4979479D01*
X5508119Y-4979480D01*
X5553140Y-5046860D01*
X5620520Y-5091881D01*
X5679936Y-5103700D01*
X5679937Y-5103700D01*
X7220063Y-5103700D01*
X7220064Y-5103700D01*
X7279480Y-5091881D01*
X7301424Y-5077219D01*
X7308855Y-5072254D01*
X7364745Y-5055300D01*
X8645871Y-5055300D01*
X8705002Y-5074513D01*
X8717006Y-5084765D01*
X12467491Y-8835250D01*
X12495717Y-8890648D01*
X12495932Y-8892068D01*
X12514201Y-9019135D01*
X12568397Y-9137808D01*
X12568398Y-9137809D01*
X12568399Y-9137811D01*
X12653835Y-9236409D01*
X12763588Y-9306943D01*
X12888768Y-9343700D01*
X12888774Y-9343700D01*
X12889870Y-9343858D01*
X12890705Y-9344268D01*
X12895672Y-9345727D01*
X12895419Y-9346585D01*
X12945668Y-9371285D01*
X12974687Y-9426272D01*
X12965844Y-9487814D01*
X12957243Y-9502159D01*
X12813218Y-9702487D01*
X12810189Y-9706486D01*
X12313666Y-10329105D01*
X12310442Y-10332948D01*
X11783487Y-10930061D01*
X11780075Y-10933738D01*
X11224018Y-11503836D01*
X11220427Y-11507338D01*
X10636650Y-12049002D01*
X10632890Y-12052321D01*
X10482651Y-12178387D01*
X10022839Y-12564215D01*
X10018929Y-12567334D01*
X9384099Y-13048198D01*
X9380026Y-13051126D01*
X8722029Y-13499742D01*
X8717815Y-13502463D01*
X8038290Y-13917711D01*
X8033946Y-13920219D01*
X7334557Y-14301087D01*
X7330094Y-14303375D01*
X6612600Y-14648902D01*
X6608027Y-14650966D01*
X5874174Y-14960310D01*
X5869505Y-14962142D01*
X5121177Y-15234512D01*
X5116422Y-15236110D01*
X4355418Y-15470848D01*
X4350590Y-15472206D01*
X3578851Y-15668715D01*
X3573961Y-15669831D01*
X2793384Y-15827629D01*
X2788444Y-15828500D01*
X2000975Y-15947191D01*
X1995998Y-15947815D01*
X1203582Y-16027108D01*
X1198580Y-16027483D01*
X454556Y-16064615D01*
X403197Y-16067179D01*
X398185Y-16067304D01*
X-398185Y-16067304D01*
X-403197Y-16067179D01*
X-454556Y-16064615D01*
X-1198580Y-16027483D01*
X-1203582Y-16027108D01*
X-1995998Y-15947815D01*
X-2000975Y-15947191D01*
X-2788444Y-15828500D01*
X-2793384Y-15827629D01*
X-3573961Y-15669831D01*
X-3578851Y-15668715D01*
X-4350590Y-15472206D01*
X-4355418Y-15470848D01*
X-5116422Y-15236110D01*
X-5121177Y-15234512D01*
X-5869505Y-14962142D01*
X-5874174Y-14960310D01*
X-6608027Y-14650966D01*
X-6612600Y-14648902D01*
X-7330094Y-14303375D01*
X-7334557Y-14301087D01*
X-8033946Y-13920219D01*
X-8038290Y-13917711D01*
X-8717815Y-13502463D01*
X-8722029Y-13499742D01*
X-9380026Y-13051126D01*
X-9384099Y-13048198D01*
X-10018929Y-12567334D01*
X-10022839Y-12564215D01*
X-10482651Y-12178387D01*
X-10632890Y-12052321D01*
X-10636650Y-12049002D01*
X-11220427Y-11507338D01*
X-11224018Y-11503836D01*
X-11780075Y-10933738D01*
X-11783487Y-10930061D01*
X-12310442Y-10332948D01*
X-12313666Y-10329105D01*
X-12810189Y-9706486D01*
X-12813218Y-9702487D01*
X-12957243Y-9502159D01*
X-12976161Y-9442933D01*
X-12956653Y-9383898D01*
X-12906171Y-9347605D01*
X-12889870Y-9343858D01*
X-12888774Y-9343700D01*
X-12888768Y-9343700D01*
X-12763588Y-9306943D01*
X-12653835Y-9236409D01*
X-12568399Y-9137811D01*
X-12568398Y-9137809D01*
X-12568397Y-9137808D01*
X-12514202Y-9019136D01*
X-12510037Y-8990171D01*
X-12482603Y-8934377D01*
X-12481596Y-8933355D01*
X-11023242Y-7475001D01*
X-7004775Y-7475001D01*
X-6985711Y-7692890D01*
X-6929101Y-7904161D01*
X-6836665Y-8102390D01*
X-6793125Y-8164570D01*
X-6233077Y-7604523D01*
X-6209493Y-7684844D01*
X-6131761Y-7805798D01*
X-6023100Y-7899952D01*
X-5892315Y-7959680D01*
X-5882533Y-7961086D01*
X-6439570Y-8518125D01*
X-6439571Y-8518125D01*
X-6377390Y-8561665D01*
X-6179161Y-8654101D01*
X-5967890Y-8710711D01*
X-5750002Y-8729775D01*
X-5749998Y-8729775D01*
X-5532109Y-8710711D01*
X-5320838Y-8654101D01*
X-5122617Y-8561669D01*
X-5122609Y-8561664D01*
X-5060428Y-8518124D01*
X-5617466Y-7961086D01*
X-5607685Y-7959680D01*
X-5476900Y-7899952D01*
X-5368239Y-7805798D01*
X-5290507Y-7684844D01*
X-5266922Y-7604521D01*
X-4706874Y-8164570D01*
X-4663335Y-8102390D01*
X-4663330Y-8102382D01*
X-4570898Y-7904161D01*
X-4514288Y-7692890D01*
X-4495225Y-7475001D01*
X4495225Y-7475001D01*
X4514288Y-7692890D01*
X4570898Y-7904161D01*
X4663330Y-8102382D01*
X4663335Y-8102390D01*
X4706874Y-8164570D01*
X5266922Y-7604521D01*
X5290507Y-7684844D01*
X5368239Y-7805798D01*
X5476900Y-7899952D01*
X5607685Y-7959680D01*
X5617466Y-7961086D01*
X5060428Y-8518124D01*
X5122609Y-8561664D01*
X5122617Y-8561669D01*
X5320838Y-8654101D01*
X5532109Y-8710711D01*
X5749998Y-8729775D01*
X5750002Y-8729775D01*
X5967890Y-8710711D01*
X6179161Y-8654101D01*
X6377390Y-8561665D01*
X6439570Y-8518125D01*
X5882533Y-7961086D01*
X5892315Y-7959680D01*
X6023100Y-7899952D01*
X6131761Y-7805798D01*
X6209493Y-7684844D01*
X6233077Y-7604523D01*
X6793125Y-8164570D01*
X6836665Y-8102390D01*
X6929101Y-7904161D01*
X6985711Y-7692890D01*
X7004775Y-7475001D01*
X7004775Y-7474998D01*
X6985711Y-7257109D01*
X6929101Y-7045838D01*
X6836669Y-6847618D01*
X6836661Y-6847604D01*
X6793124Y-6785427D01*
X6233076Y-7345475D01*
X6209493Y-7265156D01*
X6131761Y-7144202D01*
X6023100Y-7050048D01*
X5892315Y-6990320D01*
X5882530Y-6988913D01*
X6439570Y-6431874D01*
X6377390Y-6388335D01*
X6377382Y-6388330D01*
X6179161Y-6295898D01*
X5967890Y-6239288D01*
X5750002Y-6220225D01*
X5749998Y-6220225D01*
X5532109Y-6239288D01*
X5320838Y-6295898D01*
X5122613Y-6388332D01*
X5122605Y-6388337D01*
X5060428Y-6431873D01*
X5060428Y-6431874D01*
X5617467Y-6988913D01*
X5607685Y-6990320D01*
X5476900Y-7050048D01*
X5368239Y-7144202D01*
X5290507Y-7265156D01*
X5266922Y-7345476D01*
X4706874Y-6785428D01*
X4706873Y-6785428D01*
X4663337Y-6847605D01*
X4663332Y-6847613D01*
X4570898Y-7045838D01*
X4514288Y-7257109D01*
X4495225Y-7474998D01*
X4495225Y-7475001D01*
X-4495225Y-7475001D01*
X-4495225Y-7474998D01*
X-4514288Y-7257109D01*
X-4570898Y-7045838D01*
X-4663332Y-6847613D01*
X-4663337Y-6847605D01*
X-4706873Y-6785428D01*
X-4706874Y-6785428D01*
X-5266922Y-7345476D01*
X-5290507Y-7265156D01*
X-5368239Y-7144202D01*
X-5476900Y-7050048D01*
X-5607685Y-6990320D01*
X-5617467Y-6988913D01*
X-5060428Y-6431874D01*
X-5060428Y-6431873D01*
X-5122607Y-6388336D01*
X-5122619Y-6388329D01*
X-5320838Y-6295898D01*
X-5532109Y-6239288D01*
X-5749998Y-6220225D01*
X-5750002Y-6220225D01*
X-5967890Y-6239288D01*
X-6179161Y-6295898D01*
X-6377379Y-6388329D01*
X-6377391Y-6388336D01*
X-6439570Y-6431873D01*
X-6439570Y-6431874D01*
X-5882530Y-6988913D01*
X-5892315Y-6990320D01*
X-6023100Y-7050048D01*
X-6131761Y-7144202D01*
X-6209493Y-7265156D01*
X-6233076Y-7345475D01*
X-6793125Y-6785427D01*
X-6836661Y-6847604D01*
X-6836669Y-6847618D01*
X-6929101Y-7045838D01*
X-6985711Y-7257109D01*
X-7004775Y-7474998D01*
X-7004775Y-7475001D01*
X-11023242Y-7475001D01*
X-9597904Y-6049663D01*
X-4729272Y-6049663D01*
X-4699230Y-6245773D01*
X-4630325Y-6431820D01*
X-4525380Y-6600189D01*
X-4388691Y-6743986D01*
X-4225854Y-6857324D01*
X-4043535Y-6935563D01*
X-3849199Y-6975500D01*
X-3849198Y-6975500D01*
X-3700526Y-6975500D01*
X-3552620Y-6960459D01*
X-3552615Y-6960458D01*
X-3412970Y-6916644D01*
X-3363322Y-6901067D01*
X-3189854Y-6804784D01*
X-3039318Y-6675553D01*
X-2980982Y-6600189D01*
X-2917879Y-6518668D01*
X-2875304Y-6431874D01*
X-2830505Y-6340544D01*
X-2805968Y-6245779D01*
X-2780775Y-6148476D01*
X-2780775Y-6148475D01*
X-2775764Y-6049663D01*
X2770728Y-6049663D01*
X2800351Y-6243041D01*
X2800770Y-6245772D01*
X2800772Y-6245779D01*
X2835869Y-6340542D01*
X2869675Y-6431820D01*
X2923808Y-6518668D01*
X2974621Y-6600190D01*
X3096933Y-6728863D01*
X3111309Y-6743986D01*
X3274146Y-6857324D01*
X3274148Y-6857325D01*
X3274150Y-6857326D01*
X3347073Y-6888619D01*
X3456465Y-6935563D01*
X3650801Y-6975500D01*
X3650802Y-6975500D01*
X3799474Y-6975500D01*
X3947379Y-6960459D01*
X3947384Y-6960458D01*
X4037380Y-6932221D01*
X4136678Y-6901067D01*
X4310146Y-6804784D01*
X4460682Y-6675553D01*
X4582122Y-6518666D01*
X4669495Y-6340544D01*
X4719224Y-6148480D01*
X4729272Y-5950337D01*
X4699230Y-5754227D01*
X4630325Y-5568180D01*
X4525380Y-5399811D01*
X4388691Y-5256014D01*
X4225854Y-5142676D01*
X4225852Y-5142675D01*
X4225849Y-5142673D01*
X4058232Y-5070743D01*
X4011469Y-5029768D01*
X3997722Y-4969133D01*
X3997881Y-4967540D01*
X4000000Y-4947834D01*
X4000000Y-4900000D01*
X2900000Y-4900000D01*
X2900000Y-5411648D01*
X2916126Y-5443298D01*
X2907084Y-5503339D01*
X2830505Y-5659455D01*
X2830504Y-5659457D01*
X2780775Y-5851523D01*
X2780775Y-5851524D01*
X2774710Y-5971136D01*
X2770728Y-6049663D01*
X-2775764Y-6049663D01*
X-2770728Y-5950339D01*
X-2770728Y-5950336D01*
X-2800770Y-5754227D01*
X-2800772Y-5754220D01*
X-2869675Y-5568180D01*
X-2869677Y-5568175D01*
X-2903616Y-5513724D01*
X-2918589Y-5453380D01*
X-2900000Y-5407522D01*
X-2900000Y-4900000D01*
X-2600000Y-4900000D01*
X-2600000Y-5400000D01*
X-1952172Y-5400000D01*
X-1892624Y-5393597D01*
X-1892619Y-5393596D01*
X-1757914Y-5343355D01*
X-1757912Y-5343354D01*
X-1642811Y-5257188D01*
X-1556645Y-5142087D01*
X-1556644Y-5142085D01*
X-1506403Y-5007380D01*
X-1506402Y-5007375D01*
X-1500000Y-4947827D01*
X-1500000Y-4900000D01*
X1500000Y-4900000D01*
X1500000Y-4947827D01*
X1506402Y-5007375D01*
X1506403Y-5007380D01*
X1556644Y-5142085D01*
X1556645Y-5142087D01*
X1642811Y-5257188D01*
X1757912Y-5343354D01*
X1757914Y-5343355D01*
X1892619Y-5393596D01*
X1892624Y-5393597D01*
X1952172Y-5400000D01*
X2600000Y-5400000D01*
X2600000Y-4900000D01*
X1500000Y-4900000D01*
X-1500000Y-4900000D01*
X-2600000Y-4900000D01*
X-2900000Y-4900000D01*
X-4000000Y-4900000D01*
X-4000000Y-4947833D01*
X-3997565Y-4970476D01*
X-4010345Y-5031323D01*
X-4056449Y-5073037D01*
X-4067472Y-5077219D01*
X-4136676Y-5098932D01*
X-4136677Y-5098932D01*
X-4136678Y-5098933D01*
X-4310146Y-5195216D01*
X-4319295Y-5203070D01*
X-4380969Y-5256016D01*
X-4460682Y-5324447D01*
X-4582122Y-5481334D01*
X-4669495Y-5659456D01*
X-4719224Y-5851520D01*
X-4729272Y-6049663D01*
X-9597904Y-6049663D01*
X-8633006Y-5084765D01*
X-8577608Y-5056539D01*
X-8561871Y-5055300D01*
X-7364745Y-5055300D01*
X-7308855Y-5072254D01*
X-7301424Y-5077219D01*
X-7279480Y-5091881D01*
X-7220064Y-5103700D01*
X-7220063Y-5103700D01*
X-5679937Y-5103700D01*
X-5679936Y-5103700D01*
X-5620520Y-5091881D01*
X-5553140Y-5046860D01*
X-5508119Y-4979480D01*
X-5508118Y-4979479D01*
X-5496300Y-4920063D01*
X-5496300Y-4579935D01*
X-5508296Y-4519625D01*
X-5508296Y-4480375D01*
X-5496300Y-4420064D01*
X-5496300Y-4400000D01*
X-4000000Y-4400000D01*
X-4000000Y-4447826D01*
X-3995546Y-4489244D01*
X-3995546Y-4510756D01*
X-4000000Y-4552173D01*
X-4000000Y-4600000D01*
X-2900000Y-4600000D01*
X-2900000Y-4400000D01*
X-2600000Y-4400000D01*
X-2600000Y-4600000D01*
X-1500000Y-4600000D01*
X-1500000Y-4552169D01*
X-1504452Y-4510752D01*
X-1504452Y-4489248D01*
X-1500000Y-4447830D01*
X-1500000Y-4400000D01*
X1500000Y-4400000D01*
X1500000Y-4447830D01*
X1504452Y-4489248D01*
X1504452Y-4510752D01*
X1500000Y-4552169D01*
X1500000Y-4600000D01*
X2600000Y-4600000D01*
X2600000Y-4400000D01*
X2900000Y-4400000D01*
X2900000Y-4600000D01*
X4000000Y-4600000D01*
X4000000Y-4552173D01*
X3995546Y-4510756D01*
X3995546Y-4489244D01*
X4000000Y-4447826D01*
X4000000Y-4400000D01*
X2900000Y-4400000D01*
X2600000Y-4400000D01*
X1500000Y-4400000D01*
X-1500000Y-4400000D01*
X-2600000Y-4400000D01*
X-2900000Y-4400000D01*
X-4000000Y-4400000D01*
X-5496300Y-4400000D01*
X-5496300Y-4079935D01*
X-5508296Y-4019625D01*
X-5508296Y-3980375D01*
X-5496300Y-3920064D01*
X-5496300Y-3900000D01*
X-4000000Y-3900000D01*
X-4000000Y-3947826D01*
X-3995546Y-3989244D01*
X-3995546Y-4010756D01*
X-4000000Y-4052173D01*
X-4000000Y-4100000D01*
X-2900000Y-4100000D01*
X-2900000Y-3900000D01*
X-2600000Y-3900000D01*
X-2600000Y-4100000D01*
X-1500000Y-4100000D01*
X-1500000Y-4052169D01*
X-1504452Y-4010752D01*
X-1504452Y-3989248D01*
X-1500000Y-3947830D01*
X-1500000Y-3900000D01*
X1500000Y-3900000D01*
X1500000Y-3947830D01*
X1504452Y-3989248D01*
X1504452Y-4010752D01*
X1500000Y-4052169D01*
X1500000Y-4100000D01*
X2600000Y-4100000D01*
X2600000Y-3900000D01*
X2900000Y-3900000D01*
X2900000Y-4100000D01*
X4000000Y-4100000D01*
X4000000Y-4052173D01*
X3995546Y-4010756D01*
X3995546Y-3989244D01*
X4000000Y-3947826D01*
X4000000Y-3900000D01*
X2900000Y-3900000D01*
X2600000Y-3900000D01*
X1500000Y-3900000D01*
X-1500000Y-3900000D01*
X-2600000Y-3900000D01*
X-2900000Y-3900000D01*
X-4000000Y-3900000D01*
X-5496300Y-3900000D01*
X-5496300Y-3579935D01*
X-5508296Y-3519625D01*
X-5508296Y-3480375D01*
X-5496300Y-3420064D01*
X-5496300Y-3400000D01*
X-4000000Y-3400000D01*
X-4000000Y-3447826D01*
X-3995546Y-3489244D01*
X-3995546Y-3510756D01*
X-4000000Y-3552173D01*
X-4000000Y-3600000D01*
X-2900000Y-3600000D01*
X-2900000Y-3400000D01*
X-2600000Y-3400000D01*
X-2600000Y-3600000D01*
X-1500000Y-3600000D01*
X-1500000Y-3552169D01*
X-1504452Y-3510752D01*
X-1504452Y-3489248D01*
X-1500000Y-3447830D01*
X-1500000Y-3400000D01*
X1500000Y-3400000D01*
X1500000Y-3447830D01*
X1504452Y-3489248D01*
X1504452Y-3510752D01*
X1500000Y-3552169D01*
X1500000Y-3600000D01*
X2600000Y-3600000D01*
X2600000Y-3400000D01*
X2900000Y-3400000D01*
X2900000Y-3600000D01*
X4000000Y-3600000D01*
X4000000Y-3552173D01*
X3995546Y-3510756D01*
X3995546Y-3489244D01*
X4000000Y-3447826D01*
X4000000Y-3400000D01*
X2900000Y-3400000D01*
X2600000Y-3400000D01*
X1500000Y-3400000D01*
X-1500000Y-3400000D01*
X-2600000Y-3400000D01*
X-2900000Y-3400000D01*
X-4000000Y-3400000D01*
X-5496300Y-3400000D01*
X-5496300Y-3079935D01*
X-5508296Y-3019625D01*
X-5508296Y-2980375D01*
X-5496300Y-2920064D01*
X-5496300Y-2900000D01*
X-4000000Y-2900000D01*
X-4000000Y-2947826D01*
X-3995546Y-2989244D01*
X-3995546Y-3010756D01*
X-4000000Y-3052173D01*
X-4000000Y-3100000D01*
X-2900000Y-3100000D01*
X-2900000Y-2900000D01*
X-2600000Y-2900000D01*
X-2600000Y-3100000D01*
X-1500000Y-3100000D01*
X-1500000Y-3052169D01*
X-1504452Y-3010752D01*
X-1504452Y-2989248D01*
X-1500000Y-2947830D01*
X-1500000Y-2900000D01*
X1500000Y-2900000D01*
X1500000Y-2947830D01*
X1504452Y-2989248D01*
X1504452Y-3010752D01*
X1500000Y-3052169D01*
X1500000Y-3100000D01*
X2600000Y-3100000D01*
X2600000Y-2900000D01*
X2900000Y-2900000D01*
X2900000Y-3100000D01*
X4000000Y-3100000D01*
X4000000Y-3052173D01*
X3995546Y-3010756D01*
X3995546Y-2989244D01*
X4000000Y-2947826D01*
X4000000Y-2900000D01*
X2900000Y-2900000D01*
X2600000Y-2900000D01*
X1500000Y-2900000D01*
X-1500000Y-2900000D01*
X-2600000Y-2900000D01*
X-2900000Y-2900000D01*
X-4000000Y-2900000D01*
X-5496300Y-2900000D01*
X-5496300Y-2579935D01*
X-5508296Y-2519625D01*
X-5508296Y-2480375D01*
X-5496300Y-2420064D01*
X-5496300Y-2400000D01*
X-4000000Y-2400000D01*
X-4000000Y-2447826D01*
X-3995546Y-2489244D01*
X-3995546Y-2510756D01*
X-4000000Y-2552173D01*
X-4000000Y-2600000D01*
X-2900000Y-2600000D01*
X-2900000Y-2400000D01*
X-2600000Y-2400000D01*
X-2600000Y-2600000D01*
X-1500000Y-2600000D01*
X-1500000Y-2552169D01*
X-1504452Y-2510752D01*
X-1504452Y-2489248D01*
X-1500000Y-2447830D01*
X-1500000Y-2400000D01*
X1500000Y-2400000D01*
X1500000Y-2447830D01*
X1504452Y-2489248D01*
X1504452Y-2510752D01*
X1500000Y-2552169D01*
X1500000Y-2600000D01*
X2600000Y-2600000D01*
X2600000Y-2400000D01*
X2900000Y-2400000D01*
X2900000Y-2600000D01*
X4000000Y-2600000D01*
X4000000Y-2552173D01*
X3995546Y-2510756D01*
X3995546Y-2489244D01*
X4000000Y-2447826D01*
X4000000Y-2400000D01*
X2900000Y-2400000D01*
X2600000Y-2400000D01*
X1500000Y-2400000D01*
X-1500000Y-2400000D01*
X-2600000Y-2400000D01*
X-2900000Y-2400000D01*
X-4000000Y-2400000D01*
X-5496300Y-2400000D01*
X-5496300Y-2079935D01*
X-5508296Y-2019625D01*
X-5508296Y-1980375D01*
X-5496300Y-1920064D01*
X-5496300Y-1900000D01*
X-4000000Y-1900000D01*
X-4000000Y-1947826D01*
X-3995546Y-1989244D01*
X-3995546Y-2010756D01*
X-4000000Y-2052173D01*
X-4000000Y-2100000D01*
X-2900000Y-2100000D01*
X-2900000Y-1900000D01*
X-2600000Y-1900000D01*
X-2600000Y-2100000D01*
X-1500000Y-2100000D01*
X-1500000Y-2052169D01*
X-1504452Y-2010752D01*
X-1504452Y-1989248D01*
X-1500000Y-1947830D01*
X-1500000Y-1900000D01*
X1500000Y-1900000D01*
X1500000Y-1947830D01*
X1504452Y-1989248D01*
X1504452Y-2010752D01*
X1500000Y-2052169D01*
X1500000Y-2100000D01*
X2600000Y-2100000D01*
X2600000Y-1900000D01*
X2900000Y-1900000D01*
X2900000Y-2100000D01*
X4000000Y-2100000D01*
X4000000Y-2052173D01*
X3995546Y-2010756D01*
X3995546Y-1989244D01*
X4000000Y-1947826D01*
X4000000Y-1900000D01*
X2900000Y-1900000D01*
X2600000Y-1900000D01*
X1500000Y-1900000D01*
X-1500000Y-1900000D01*
X-2600000Y-1900000D01*
X-2900000Y-1900000D01*
X-4000000Y-1900000D01*
X-5496300Y-1900000D01*
X-5496300Y-1579935D01*
X-5508296Y-1519625D01*
X-5508296Y-1480375D01*
X-5496300Y-1420064D01*
X-5496300Y-1400000D01*
X-4000000Y-1400000D01*
X-4000000Y-1447826D01*
X-3995546Y-1489244D01*
X-3995546Y-1510756D01*
X-4000000Y-1552173D01*
X-4000000Y-1600000D01*
X-2900000Y-1600000D01*
X-2900000Y-1400000D01*
X-2600000Y-1400000D01*
X-2600000Y-1600000D01*
X-1500000Y-1600000D01*
X-1500000Y-1552169D01*
X-1504452Y-1510752D01*
X-1504452Y-1489248D01*
X-1500000Y-1447830D01*
X-1500000Y-1400000D01*
X1500000Y-1400000D01*
X1500000Y-1447830D01*
X1504452Y-1489248D01*
X1504452Y-1510752D01*
X1500000Y-1552169D01*
X1500000Y-1600000D01*
X2600000Y-1600000D01*
X2600000Y-1400000D01*
X2900000Y-1400000D01*
X2900000Y-1600000D01*
X4000000Y-1600000D01*
X4000000Y-1552173D01*
X3995546Y-1510756D01*
X3995546Y-1489244D01*
X4000000Y-1447826D01*
X4000000Y-1400000D01*
X2900000Y-1400000D01*
X2600000Y-1400000D01*
X1500000Y-1400000D01*
X-1500000Y-1400000D01*
X-2600000Y-1400000D01*
X-2900000Y-1400000D01*
X-4000000Y-1400000D01*
X-5496300Y-1400000D01*
X-5496300Y-1079935D01*
X-5508296Y-1019625D01*
X-5508296Y-980375D01*
X-5496300Y-920064D01*
X-5496300Y-900000D01*
X-4000000Y-900000D01*
X-4000000Y-947826D01*
X-3995546Y-989244D01*
X-3995546Y-1010756D01*
X-4000000Y-1052173D01*
X-4000000Y-1100000D01*
X-2900000Y-1100000D01*
X-2900000Y-900000D01*
X-2600000Y-900000D01*
X-2600000Y-1100000D01*
X-1500000Y-1100000D01*
X-1500000Y-1052169D01*
X-1504452Y-1010752D01*
X-1504452Y-989248D01*
X-1500000Y-947830D01*
X-1500000Y-900000D01*
X1500000Y-900000D01*
X1500000Y-947830D01*
X1504452Y-989248D01*
X1504452Y-1010752D01*
X1500000Y-1052169D01*
X1500000Y-1100000D01*
X2600000Y-1100000D01*
X2600000Y-900000D01*
X2900000Y-900000D01*
X2900000Y-1100000D01*
X4000000Y-1100000D01*
X4000000Y-1052173D01*
X3995546Y-1010756D01*
X3995546Y-989244D01*
X4000000Y-947826D01*
X4000000Y-900000D01*
X2900000Y-900000D01*
X2600000Y-900000D01*
X1500000Y-900000D01*
X-1500000Y-900000D01*
X-2600000Y-900000D01*
X-2900000Y-900000D01*
X-4000000Y-900000D01*
X-5496300Y-900000D01*
X-5496300Y-579935D01*
X-5508296Y-519625D01*
X-5508296Y-480375D01*
X-5496300Y-420064D01*
X-5496300Y-400000D01*
X-4000000Y-400000D01*
X-4000000Y-447826D01*
X-3995546Y-489244D01*
X-3995546Y-510756D01*
X-4000000Y-552173D01*
X-4000000Y-600000D01*
X-2900000Y-600000D01*
X-2900000Y-400000D01*
X-2600000Y-400000D01*
X-2600000Y-600000D01*
X-1500000Y-600000D01*
X-1500000Y-552169D01*
X-1504452Y-510752D01*
X-1504452Y-489248D01*
X-1500000Y-447830D01*
X-1500000Y-400000D01*
X1500000Y-400000D01*
X1500000Y-447830D01*
X1504452Y-489248D01*
X1504452Y-510752D01*
X1500000Y-552169D01*
X1500000Y-600000D01*
X2600000Y-600000D01*
X2600000Y-400000D01*
X2900000Y-400000D01*
X2900000Y-600000D01*
X4000000Y-600000D01*
X4000000Y-552173D01*
X3995546Y-510756D01*
X3995546Y-489244D01*
X4000000Y-447826D01*
X4000000Y-400000D01*
X2900000Y-400000D01*
X2600000Y-400000D01*
X1500000Y-400000D01*
X-1500000Y-400000D01*
X-2600000Y-400000D01*
X-2900000Y-400000D01*
X-4000000Y-400000D01*
X-5496300Y-400000D01*
X-5496300Y-79935D01*
X-5508296Y-19625D01*
X-5508296Y19625D01*
X-5496300Y79935D01*
X-5496300Y100000D01*
X-4000000Y100000D01*
X-4000000Y52173D01*
X-3995546Y10756D01*
X-3995546Y-10756D01*
X-4000000Y-52173D01*
X-4000000Y-100000D01*
X-2900000Y-100000D01*
X-2900000Y100000D01*
X-2600000Y100000D01*
X-2600000Y-100000D01*
X-1500000Y-100000D01*
X-1500000Y-52169D01*
X-1504452Y-10752D01*
X-1504452Y10752D01*
X-1500000Y52169D01*
X-1500000Y100000D01*
X1500000Y100000D01*
X1500000Y52169D01*
X1504452Y10752D01*
X1504452Y-10752D01*
X1500000Y-52169D01*
X1500000Y-100000D01*
X2600000Y-100000D01*
X2600000Y100000D01*
X2900000Y100000D01*
X2900000Y-100000D01*
X4000000Y-100000D01*
X4000000Y-52173D01*
X3995546Y-10756D01*
X3995546Y10756D01*
X4000000Y52173D01*
X4000000Y100000D01*
X2900000Y100000D01*
X2600000Y100000D01*
X1500000Y100000D01*
X-1500000Y100000D01*
X-2600000Y100000D01*
X-2900000Y100000D01*
X-4000000Y100000D01*
X-5496300Y100000D01*
X-5496300Y420064D01*
X-5508296Y480375D01*
X-5508296Y519625D01*
X-5496300Y579935D01*
X-5496300Y600000D01*
X-4000000Y600000D01*
X-4000000Y552173D01*
X-3995546Y510756D01*
X-3995546Y489244D01*
X-4000000Y447826D01*
X-4000000Y400000D01*
X-2900000Y400000D01*
X-2900000Y600000D01*
X-2600000Y600000D01*
X-2600000Y400000D01*
X-1500000Y400000D01*
X-1500000Y447830D01*
X-1504452Y489248D01*
X-1504452Y510752D01*
X-1500000Y552169D01*
X-1500000Y600000D01*
X1500000Y600000D01*
X1500000Y552169D01*
X1504452Y510752D01*
X1504452Y489248D01*
X1500000Y447830D01*
X1500000Y400000D01*
X2600000Y400000D01*
X2600000Y600000D01*
X2900000Y600000D01*
X2900000Y400000D01*
X4000000Y400000D01*
X4000000Y447826D01*
X3995546Y489244D01*
X3995546Y510756D01*
X4000000Y552173D01*
X4000000Y600000D01*
X2900000Y600000D01*
X2600000Y600000D01*
X1500000Y600000D01*
X-1500000Y600000D01*
X-2600000Y600000D01*
X-2900000Y600000D01*
X-4000000Y600000D01*
X-5496300Y600000D01*
X-5496300Y920064D01*
X-5508296Y980375D01*
X-5508296Y1019625D01*
X-5496300Y1079935D01*
X-5496300Y1100000D01*
X-4000000Y1100000D01*
X-4000000Y1052173D01*
X-3995546Y1010756D01*
X-3995546Y989244D01*
X-4000000Y947826D01*
X-4000000Y900000D01*
X-2900000Y900000D01*
X-2900000Y1100000D01*
X-2600000Y1100000D01*
X-2600000Y900000D01*
X-1500000Y900000D01*
X-1500000Y947830D01*
X-1504452Y989248D01*
X-1504452Y1010752D01*
X-1500000Y1052169D01*
X-1500000Y1100000D01*
X1500000Y1100000D01*
X1500000Y1052169D01*
X1504452Y1010752D01*
X1504452Y989248D01*
X1500000Y947830D01*
X1500000Y900000D01*
X2600000Y900000D01*
X2600000Y1100000D01*
X2900000Y1100000D01*
X2900000Y900000D01*
X4000000Y900000D01*
X4000000Y947826D01*
X3995546Y989244D01*
X3995546Y1010756D01*
X4000000Y1052173D01*
X4000000Y1100000D01*
X2900000Y1100000D01*
X2600000Y1100000D01*
X1500000Y1100000D01*
X-1500000Y1100000D01*
X-2600000Y1100000D01*
X-2900000Y1100000D01*
X-4000000Y1100000D01*
X-5496300Y1100000D01*
X-5496300Y1420064D01*
X-5508296Y1480375D01*
X-5508296Y1519625D01*
X-5496300Y1579935D01*
X-5496300Y1600000D01*
X-4000000Y1600000D01*
X-4000000Y1552173D01*
X-3995546Y1510756D01*
X-3995546Y1489244D01*
X-4000000Y1447826D01*
X-4000000Y1400000D01*
X-2900000Y1400000D01*
X-2900000Y1600000D01*
X-2600000Y1600000D01*
X-2600000Y1400000D01*
X-1500000Y1400000D01*
X-1500000Y1447830D01*
X-1504452Y1489248D01*
X-1504452Y1510752D01*
X-1500000Y1552169D01*
X-1500000Y1600000D01*
X1500000Y1600000D01*
X1500000Y1552169D01*
X1504452Y1510752D01*
X1504452Y1489248D01*
X1500000Y1447830D01*
X1500000Y1400000D01*
X2600000Y1400000D01*
X2600000Y1600000D01*
X2900000Y1600000D01*
X2900000Y1400000D01*
X4000000Y1400000D01*
X4000000Y1447826D01*
X3995546Y1489244D01*
X3995546Y1510756D01*
X4000000Y1552173D01*
X4000000Y1600000D01*
X2900000Y1600000D01*
X2600000Y1600000D01*
X1500000Y1600000D01*
X-1500000Y1600000D01*
X-2600000Y1600000D01*
X-2900000Y1600000D01*
X-4000000Y1600000D01*
X-5496300Y1600000D01*
X-5496300Y1920064D01*
X-5508296Y1980375D01*
X-5508296Y2019625D01*
X-5496300Y2079935D01*
X-5496300Y2100000D01*
X-4000000Y2100000D01*
X-4000000Y2052173D01*
X-3995546Y2010756D01*
X-3995546Y1989244D01*
X-4000000Y1947826D01*
X-4000000Y1900000D01*
X-2900000Y1900000D01*
X-2900000Y2100000D01*
X-2600000Y2100000D01*
X-2600000Y1900000D01*
X-1500000Y1900000D01*
X-1500000Y1947830D01*
X-1504452Y1989248D01*
X-1504452Y2010752D01*
X-1500000Y2052169D01*
X-1500000Y2100000D01*
X1500000Y2100000D01*
X1500000Y2052169D01*
X1504452Y2010752D01*
X1504452Y1989248D01*
X1500000Y1947830D01*
X1500000Y1900000D01*
X2600000Y1900000D01*
X2600000Y2100000D01*
X2900000Y2100000D01*
X2900000Y1900000D01*
X4000000Y1900000D01*
X4000000Y1947826D01*
X3995546Y1989244D01*
X3995546Y2010756D01*
X4000000Y2052173D01*
X4000000Y2100000D01*
X2900000Y2100000D01*
X2600000Y2100000D01*
X1500000Y2100000D01*
X-1500000Y2100000D01*
X-2600000Y2100000D01*
X-2900000Y2100000D01*
X-4000000Y2100000D01*
X-5496300Y2100000D01*
X-5496300Y2420064D01*
X-5508296Y2480375D01*
X-5508296Y2519625D01*
X-5496300Y2579935D01*
X-5496300Y2600000D01*
X-4000000Y2600000D01*
X-4000000Y2552173D01*
X-3995546Y2510756D01*
X-3995546Y2489244D01*
X-4000000Y2447826D01*
X-4000000Y2400000D01*
X-2900000Y2400000D01*
X-2900000Y2600000D01*
X-2600000Y2600000D01*
X-2600000Y2400000D01*
X-1500000Y2400000D01*
X-1500000Y2447830D01*
X-1504452Y2489248D01*
X-1504452Y2510752D01*
X-1500000Y2552169D01*
X-1500000Y2600000D01*
X1500000Y2600000D01*
X1500000Y2552169D01*
X1504452Y2510752D01*
X1504452Y2489248D01*
X1500000Y2447830D01*
X1500000Y2400000D01*
X2600000Y2400000D01*
X2600000Y2600000D01*
X2900000Y2600000D01*
X2900000Y2400000D01*
X4000000Y2400000D01*
X4000000Y2447826D01*
X3995546Y2489244D01*
X3995546Y2510756D01*
X4000000Y2552173D01*
X4000000Y2600000D01*
X2900000Y2600000D01*
X2600000Y2600000D01*
X1500000Y2600000D01*
X-1500000Y2600000D01*
X-2600000Y2600000D01*
X-2900000Y2600000D01*
X-4000000Y2600000D01*
X-5496300Y2600000D01*
X-5496300Y2920064D01*
X-5508296Y2980375D01*
X-5508296Y3019625D01*
X-5496300Y3079935D01*
X-5496300Y3100000D01*
X-4000000Y3100000D01*
X-4000000Y3052173D01*
X-3995546Y3010756D01*
X-3995546Y2989244D01*
X-4000000Y2947826D01*
X-4000000Y2900000D01*
X-2900000Y2900000D01*
X-2900000Y3100000D01*
X-2600000Y3100000D01*
X-2600000Y2900000D01*
X-1500000Y2900000D01*
X-1500000Y2947830D01*
X-1504452Y2989248D01*
X-1504452Y3010752D01*
X-1500000Y3052169D01*
X-1500000Y3100000D01*
X1500000Y3100000D01*
X1500000Y3052169D01*
X1504452Y3010752D01*
X1504452Y2989248D01*
X1500000Y2947830D01*
X1500000Y2900000D01*
X2600000Y2900000D01*
X2600000Y3100000D01*
X2900000Y3100000D01*
X2900000Y2900000D01*
X4000000Y2900000D01*
X4000000Y2947826D01*
X3995546Y2989244D01*
X3995546Y3010756D01*
X4000000Y3052173D01*
X4000000Y3100000D01*
X2900000Y3100000D01*
X2600000Y3100000D01*
X1500000Y3100000D01*
X-1500000Y3100000D01*
X-2600000Y3100000D01*
X-2900000Y3100000D01*
X-4000000Y3100000D01*
X-5496300Y3100000D01*
X-5496300Y3420064D01*
X-5508296Y3480375D01*
X-5508296Y3519625D01*
X-5496300Y3579935D01*
X-5496300Y3600000D01*
X-4000000Y3600000D01*
X-4000000Y3552173D01*
X-3995546Y3510756D01*
X-3995546Y3489244D01*
X-4000000Y3447826D01*
X-4000000Y3400000D01*
X-2900000Y3400000D01*
X-2900000Y3600000D01*
X-2600000Y3600000D01*
X-2600000Y3400000D01*
X-1500000Y3400000D01*
X-1500000Y3447830D01*
X-1504452Y3489248D01*
X-1504452Y3510752D01*
X-1500000Y3552169D01*
X-1500000Y3600000D01*
X1500000Y3600000D01*
X1500000Y3552169D01*
X1504452Y3510752D01*
X1504452Y3489248D01*
X1500000Y3447830D01*
X1500000Y3400000D01*
X2600000Y3400000D01*
X2600000Y3600000D01*
X2900000Y3600000D01*
X2900000Y3400000D01*
X4000000Y3400000D01*
X4000000Y3447826D01*
X3995546Y3489244D01*
X3995546Y3510756D01*
X4000000Y3552173D01*
X4000000Y3600000D01*
X2900000Y3600000D01*
X2600000Y3600000D01*
X1500000Y3600000D01*
X-1500000Y3600000D01*
X-2600000Y3600000D01*
X-2900000Y3600000D01*
X-4000000Y3600000D01*
X-5496300Y3600000D01*
X-5496300Y3920064D01*
X-5508296Y3980375D01*
X-5508296Y4019625D01*
X-5496300Y4079935D01*
X-5496300Y4100000D01*
X-4000000Y4100000D01*
X-4000000Y4052173D01*
X-3995546Y4010756D01*
X-3995546Y3989244D01*
X-4000000Y3947826D01*
X-4000000Y3900000D01*
X-2900000Y3900000D01*
X-2900000Y4100000D01*
X-2600000Y4100000D01*
X-2600000Y3900000D01*
X-1500000Y3900000D01*
X-1500000Y3947830D01*
X-1504452Y3989248D01*
X-1504452Y4010752D01*
X-1500000Y4052169D01*
X-1500000Y4100000D01*
X1500000Y4100000D01*
X1500000Y4052169D01*
X1504452Y4010752D01*
X1504452Y3989248D01*
X1500000Y3947830D01*
X1500000Y3900000D01*
X2600000Y3900000D01*
X2600000Y4100000D01*
X2900000Y4100000D01*
X2900000Y3900000D01*
X4000000Y3900000D01*
X4000000Y3947826D01*
X3995546Y3989244D01*
X3995546Y4010756D01*
X4000000Y4052173D01*
X4000000Y4100000D01*
X2900000Y4100000D01*
X2600000Y4100000D01*
X1500000Y4100000D01*
X-1500000Y4100000D01*
X-2600000Y4100000D01*
X-2900000Y4100000D01*
X-4000000Y4100000D01*
X-5496300Y4100000D01*
X-5496300Y4420064D01*
X-5508296Y4480375D01*
X-5508296Y4519625D01*
X-5496300Y4579935D01*
X-5496300Y4600000D01*
X-4000000Y4600000D01*
X-4000000Y4552173D01*
X-3995546Y4510756D01*
X-3995546Y4489244D01*
X-4000000Y4447826D01*
X-4000000Y4400000D01*
X-2900000Y4400000D01*
X-2900000Y4600000D01*
X-2600000Y4600000D01*
X-2600000Y4400000D01*
X-1500000Y4400000D01*
X-1500000Y4447830D01*
X-1504452Y4489248D01*
X-1504452Y4510752D01*
X-1500000Y4552169D01*
X-1500000Y4600000D01*
X1500000Y4600000D01*
X1500000Y4552169D01*
X1504452Y4510752D01*
X1504452Y4489248D01*
X1500000Y4447830D01*
X1500000Y4400000D01*
X2600000Y4400000D01*
X2600000Y4600000D01*
X2900000Y4600000D01*
X2900000Y4400000D01*
X4000000Y4400000D01*
X4000000Y4447826D01*
X3995546Y4489244D01*
X3995546Y4510756D01*
X4000000Y4552173D01*
X4000000Y4600000D01*
X2900000Y4600000D01*
X2600000Y4600000D01*
X1500000Y4600000D01*
X-1500000Y4600000D01*
X-2600000Y4600000D01*
X-2900000Y4600000D01*
X-4000000Y4600000D01*
X-5496300Y4600000D01*
X-5496300Y4920063D01*
X-5508118Y4979479D01*
X-5523057Y5001838D01*
X-5553140Y5046860D01*
X-5620520Y5091881D01*
X-5679936Y5103700D01*
X-5679937Y5103700D01*
X-6960100Y5103700D01*
X-7019231Y5122913D01*
X-7055776Y5173213D01*
X-7060700Y5204300D01*
X-7060700Y5950337D01*
X-4729272Y5950337D01*
X-4699230Y5754227D01*
X-4630325Y5568180D01*
X-4525380Y5399811D01*
X-4388691Y5256014D01*
X-4225854Y5142676D01*
X-4225852Y5142675D01*
X-4225849Y5142673D01*
X-4058232Y5070743D01*
X-4011469Y5029768D01*
X-3997722Y4969133D01*
X-3997881Y4967540D01*
X-4000000Y4947834D01*
X-4000000Y4900000D01*
X-2900000Y4900000D01*
X-2900000Y5400000D01*
X-2600000Y5400000D01*
X-2600000Y4900000D01*
X-1500000Y4900000D01*
X1500000Y4900000D01*
X2600000Y4900000D01*
X2600000Y5400000D01*
X1952172Y5400000D01*
X1892624Y5393597D01*
X1892619Y5393596D01*
X1757914Y5343355D01*
X1757912Y5343354D01*
X1642811Y5257188D01*
X1556645Y5142087D01*
X1556644Y5142085D01*
X1506403Y5007380D01*
X1506402Y5007375D01*
X1500000Y4947827D01*
X1500000Y4900000D01*
X-1500000Y4900000D01*
X-1500000Y4947827D01*
X-1506402Y5007375D01*
X-1506403Y5007380D01*
X-1556644Y5142085D01*
X-1556645Y5142087D01*
X-1642811Y5257188D01*
X-1757912Y5343354D01*
X-1757914Y5343355D01*
X-1892619Y5393596D01*
X-1892624Y5393597D01*
X-1952172Y5400000D01*
X-2600000Y5400000D01*
X-2900000Y5400000D01*
X-2900000Y5411648D01*
X-2916126Y5443298D01*
X-2907084Y5503339D01*
X-2830505Y5659455D01*
X-2830504Y5659457D01*
X-2780775Y5851523D01*
X-2780775Y5851524D01*
X-2775764Y5950337D01*
X2770728Y5950337D01*
X2785866Y5851520D01*
X2800770Y5754227D01*
X2800772Y5754220D01*
X2869675Y5568180D01*
X2869677Y5568175D01*
X2903616Y5513724D01*
X2918589Y5453380D01*
X2900000Y5407522D01*
X2900000Y4900000D01*
X4000000Y4900000D01*
X4000000Y4947833D01*
X3997565Y4970476D01*
X4010345Y5031323D01*
X4056449Y5073037D01*
X4067472Y5077219D01*
X4136676Y5098932D01*
X4179882Y5122913D01*
X4310146Y5195216D01*
X4380967Y5256014D01*
X4460680Y5324445D01*
X4468076Y5333999D01*
X4582122Y5481334D01*
X4669495Y5659456D01*
X4719224Y5851520D01*
X4729272Y6049663D01*
X4699230Y6245773D01*
X4630325Y6431820D01*
X4525380Y6600189D01*
X4388691Y6743986D01*
X4225854Y6857324D01*
X4043535Y6935563D01*
X3849199Y6975500D01*
X3700527Y6975500D01*
X3700526Y6975500D01*
X3552620Y6960459D01*
X3552615Y6960458D01*
X3413439Y6916791D01*
X3363322Y6901067D01*
X3189854Y6804784D01*
X3119033Y6743986D01*
X3039319Y6675554D01*
X2917879Y6518668D01*
X2917878Y6518666D01*
X2875304Y6431873D01*
X2830505Y6340544D01*
X2830504Y6340542D01*
X2780775Y6148476D01*
X2780775Y6148475D01*
X2771874Y5972930D01*
X2770728Y5950337D01*
X-2775764Y5950337D01*
X-2770728Y6049660D01*
X-2770728Y6049663D01*
X-2799777Y6239288D01*
X-2800770Y6245773D01*
X-2869675Y6431820D01*
X-2974620Y6600189D01*
X-3111309Y6743986D01*
X-3274146Y6857324D01*
X-3274148Y6857325D01*
X-3274150Y6857326D01*
X-3347073Y6888619D01*
X-3456465Y6935563D01*
X-3650801Y6975500D01*
X-3799473Y6975500D01*
X-3799474Y6975500D01*
X-3947379Y6960459D01*
X-3947384Y6960458D01*
X-4026730Y6935563D01*
X-4136678Y6901067D01*
X-4310146Y6804784D01*
X-4460682Y6675553D01*
X-4582122Y6518666D01*
X-4669495Y6340544D01*
X-4719224Y6148480D01*
X-4729272Y5950337D01*
X-7060700Y5950337D01*
X-7060700Y6874275D01*
X-7041487Y6933406D01*
X-6991187Y6969951D01*
X-6929013Y6969951D01*
X-6878713Y6933406D01*
X-6868926Y6916791D01*
X-6836669Y6847617D01*
X-6836664Y6847609D01*
X-6793124Y6785428D01*
X-6233076Y7345475D01*
X-6209493Y7265156D01*
X-6131761Y7144202D01*
X-6023100Y7050048D01*
X-5892315Y6990320D01*
X-5882532Y6988913D01*
X-6439570Y6431874D01*
X-6377390Y6388335D01*
X-6377382Y6388330D01*
X-6179161Y6295898D01*
X-5967890Y6239288D01*
X-5750002Y6220225D01*
X-5749998Y6220225D01*
X-5532109Y6239288D01*
X-5320838Y6295898D01*
X-5122619Y6388329D01*
X-5122607Y6388336D01*
X-5060428Y6431873D01*
X-5060428Y6431874D01*
X-5617466Y6988913D01*
X-5607685Y6990320D01*
X-5476900Y7050048D01*
X-5368239Y7144202D01*
X-5290507Y7265156D01*
X-5266922Y7345476D01*
X-4706874Y6785428D01*
X-4706873Y6785428D01*
X-4663336Y6847607D01*
X-4663329Y6847619D01*
X-4570898Y7045838D01*
X-4514288Y7257109D01*
X-4495225Y7474998D01*
X-4495225Y7475001D01*
X-4514288Y7692890D01*
X-4570898Y7904161D01*
X-4663329Y8102379D01*
X-4663336Y8102391D01*
X-4706873Y8164570D01*
X-4706874Y8164570D01*
X-5266922Y7604521D01*
X-5290507Y7684844D01*
X-5368239Y7805798D01*
X-5476900Y7899952D01*
X-5607685Y7959680D01*
X-5617465Y7961086D01*
X-5060428Y8518124D01*
X-5122609Y8561664D01*
X-5122617Y8561669D01*
X-5320838Y8654101D01*
X-5532109Y8710711D01*
X-5749998Y8729775D01*
X-5750002Y8729775D01*
X-5967890Y8710711D01*
X-6179161Y8654101D01*
X-6377381Y8561669D01*
X-6377389Y8561664D01*
X-6439570Y8518124D01*
X-5882532Y7961086D01*
X-5892315Y7959680D01*
X-6023100Y7899952D01*
X-6131761Y7805798D01*
X-6209493Y7684844D01*
X-6233077Y7604523D01*
X-6793124Y8164570D01*
X-6836664Y8102389D01*
X-6836666Y8102386D01*
X-6868925Y8033208D01*
X-6911328Y7987736D01*
X-6972360Y7975873D01*
X-7028709Y8002149D01*
X-7058852Y8056528D01*
X-7060700Y8075723D01*
X-7060700Y9585788D01*
X-7058444Y9599686D01*
X-7059678Y9599858D01*
X-7058390Y9609090D01*
X-7060593Y9656744D01*
X-7060700Y9661389D01*
X-7060700Y9680286D01*
X-7060702Y9680303D01*
X-7060721Y9680405D01*
X-7062324Y9694228D01*
X-7063660Y9723105D01*
X-7063660Y9723108D01*
X-7067693Y9732240D01*
X-7074552Y9754390D01*
X-7076384Y9764194D01*
X-7076386Y9764199D01*
X-7091599Y9788770D01*
X-7098093Y9801090D01*
X-7109766Y9827525D01*
X-7116823Y9834582D01*
X-7131219Y9852757D01*
X-7136472Y9861241D01*
X-7138654Y9862889D01*
X-7159534Y9878656D01*
X-7170042Y9887801D01*
X-7641491Y10359250D01*
X-7669717Y10414648D01*
X-7669932Y10416068D01*
X-7688201Y10543135D01*
X-7742397Y10661808D01*
X-7742398Y10661809D01*
X-7742399Y10661811D01*
X-7827835Y10760409D01*
X-7937588Y10830943D01*
X-8062768Y10867700D01*
X-8193232Y10867700D01*
X-8318412Y10830943D01*
X-8428165Y10760409D01*
X-8513601Y10661811D01*
X-8567798Y10543136D01*
X-8586365Y10414000D01*
X-8567798Y10284864D01*
X-8513601Y10166189D01*
X-8428165Y10067591D01*
X-8380454Y10036929D01*
X-8341098Y9988798D01*
X-8337549Y9926725D01*
X-8371163Y9874421D01*
X-8429101Y9851864D01*
X-8434844Y9851700D01*
X-8447232Y9851700D01*
X-8572412Y9814943D01*
X-8682165Y9744409D01*
X-8767601Y9645811D01*
X-8821798Y9527136D01*
X-8840365Y9398000D01*
X-8821798Y9268864D01*
X-8767601Y9150189D01*
X-8682165Y9051591D01*
X-8634454Y9020929D01*
X-8595098Y8972798D01*
X-8591549Y8910725D01*
X-8625163Y8858421D01*
X-8683101Y8835864D01*
X-8688844Y8835700D01*
X-8701232Y8835700D01*
X-8826412Y8798943D01*
X-8936165Y8728409D01*
X-9021601Y8629811D01*
X-9075798Y8511136D01*
X-9094365Y8382000D01*
X-9075798Y8252864D01*
X-9021601Y8134189D01*
X-8936165Y8035591D01*
X-8888454Y8004929D01*
X-8849098Y7956798D01*
X-8845549Y7894725D01*
X-8879163Y7842421D01*
X-8937101Y7819864D01*
X-8942844Y7819700D01*
X-8955232Y7819700D01*
X-9080412Y7782943D01*
X-9190165Y7712409D01*
X-9275601Y7613811D01*
X-9329798Y7495136D01*
X-9348365Y7366000D01*
X-9329798Y7236864D01*
X-9275601Y7118189D01*
X-9190165Y7019591D01*
X-9142454Y6988929D01*
X-9103098Y6940798D01*
X-9099549Y6878725D01*
X-9133163Y6826421D01*
X-9191101Y6803864D01*
X-9196844Y6803700D01*
X-9209232Y6803700D01*
X-9334412Y6766943D01*
X-9444165Y6696409D01*
X-9529601Y6597811D01*
X-9583798Y6479136D01*
X-9602365Y6350000D01*
X-9583798Y6220864D01*
X-9529601Y6102189D01*
X-9444165Y6003591D01*
X-9396454Y5972929D01*
X-9357098Y5924798D01*
X-9353549Y5862725D01*
X-9387163Y5810421D01*
X-9445101Y5787864D01*
X-9450844Y5787700D01*
X-9463232Y5787700D01*
X-9588412Y5750943D01*
X-9698165Y5680409D01*
X-9783601Y5581811D01*
X-9837798Y5463136D01*
X-9846903Y5399809D01*
X-9856365Y5334000D01*
X-9856365Y5333999D01*
X-9854991Y5324445D01*
X-9837798Y5204864D01*
X-9823343Y5173213D01*
X-9786201Y5091881D01*
X-9783601Y5086189D01*
X-9698165Y4987591D01*
X-9650454Y4956929D01*
X-9611098Y4908798D01*
X-9607549Y4846725D01*
X-9641163Y4794421D01*
X-9699101Y4771864D01*
X-9704844Y4771700D01*
X-9717232Y4771700D01*
X-9842412Y4734943D01*
X-9952165Y4664409D01*
X-10037601Y4565811D01*
X-10091798Y4447136D01*
X-10110365Y4318000D01*
X-10091798Y4188864D01*
X-10037601Y4070189D01*
X-9981870Y4005872D01*
X-9957669Y3948604D01*
X-9957300Y3939995D01*
X-9957300Y3934141D01*
X-9959567Y3920244D01*
X-9958322Y3920071D01*
X-9959608Y3910844D01*
X-9959610Y3910840D01*
X-9958791Y3893132D01*
X-9957407Y3863193D01*
X-9957300Y3858548D01*
X-9957300Y3835098D01*
X-9976513Y3775967D01*
X-10026813Y3739422D01*
X-10029522Y3738583D01*
X-10096412Y3718943D01*
X-10206165Y3648409D01*
X-10291601Y3549811D01*
X-10345798Y3431136D01*
X-10364365Y3302000D01*
X-10345798Y3172864D01*
X-10291601Y3054189D01*
X-10206165Y2955591D01*
X-10158454Y2924929D01*
X-10119098Y2876798D01*
X-10115549Y2814725D01*
X-10149163Y2762421D01*
X-10207101Y2739864D01*
X-10212844Y2739700D01*
X-10225232Y2739700D01*
X-10350412Y2702943D01*
X-10460165Y2632409D01*
X-10545601Y2533811D01*
X-10599798Y2415136D01*
X-10618365Y2286000D01*
X-10599798Y2156864D01*
X-10545601Y2038189D01*
X-10460165Y1939591D01*
X-10412454Y1908929D01*
X-10373098Y1860798D01*
X-10369549Y1798725D01*
X-10403163Y1746421D01*
X-10461101Y1723864D01*
X-10466844Y1723700D01*
X-10479232Y1723700D01*
X-10604412Y1686943D01*
X-10714165Y1616409D01*
X-10799601Y1517811D01*
X-10853798Y1399136D01*
X-10872365Y1270000D01*
X-10853798Y1140864D01*
X-10799601Y1022189D01*
X-10714165Y923591D01*
X-10666454Y892929D01*
X-10627098Y844798D01*
X-10623549Y782725D01*
X-10657163Y730421D01*
X-10715101Y707864D01*
X-10720844Y707700D01*
X-10733232Y707700D01*
X-10858412Y670943D01*
X-10968165Y600409D01*
X-11053601Y501811D01*
X-11107798Y383136D01*
X-11126365Y254000D01*
X-11107798Y124864D01*
X-11053601Y6189D01*
X-10968165Y-92409D01*
X-10920454Y-123070D01*
X-10881098Y-171202D01*
X-10877549Y-233275D01*
X-10911163Y-285579D01*
X-10969101Y-308136D01*
X-10974844Y-308300D01*
X-10987232Y-308300D01*
X-11112412Y-345057D01*
X-11222165Y-415591D01*
X-11307601Y-514189D01*
X-11361798Y-632864D01*
X-11380365Y-762000D01*
X-11361798Y-891136D01*
X-11307601Y-1009811D01*
X-11222165Y-1108409D01*
X-11174454Y-1139070D01*
X-11135098Y-1187202D01*
X-11131549Y-1249275D01*
X-11165163Y-1301579D01*
X-11223101Y-1324136D01*
X-11228844Y-1324300D01*
X-11241232Y-1324300D01*
X-11366412Y-1361057D01*
X-11476165Y-1431591D01*
X-11561601Y-1530189D01*
X-11615798Y-1648864D01*
X-11634365Y-1778000D01*
X-11615798Y-1907136D01*
X-11561601Y-2025811D01*
X-11476165Y-2124409D01*
X-11428454Y-2155070D01*
X-11389098Y-2203202D01*
X-11385549Y-2265275D01*
X-11419163Y-2317579D01*
X-11477101Y-2340136D01*
X-11482844Y-2340300D01*
X-11495232Y-2340300D01*
X-11620412Y-2377057D01*
X-11730165Y-2447591D01*
X-11815601Y-2546189D01*
X-11869798Y-2664864D01*
X-11888365Y-2794000D01*
X-11869798Y-2923136D01*
X-11815601Y-3041811D01*
X-11730165Y-3140409D01*
X-11682454Y-3171070D01*
X-11643098Y-3219202D01*
X-11639549Y-3281275D01*
X-11673163Y-3333579D01*
X-11731101Y-3356136D01*
X-11736844Y-3356300D01*
X-11749232Y-3356300D01*
X-11874412Y-3393057D01*
X-11984165Y-3463591D01*
X-12069601Y-3562189D01*
X-12123798Y-3680864D01*
X-12142365Y-3810000D01*
X-12123798Y-3939136D01*
X-12069601Y-4057811D01*
X-11984165Y-4156409D01*
X-11936454Y-4187070D01*
X-11897098Y-4235202D01*
X-11893549Y-4297275D01*
X-11927163Y-4349579D01*
X-11985101Y-4372136D01*
X-11990844Y-4372300D01*
X-12003232Y-4372300D01*
X-12128412Y-4409057D01*
X-12238165Y-4479591D01*
X-12323601Y-4578189D01*
X-12377798Y-4696864D01*
X-12396365Y-4826000D01*
X-12377798Y-4955136D01*
X-12323601Y-5073811D01*
X-12238165Y-5172409D01*
X-12190454Y-5203070D01*
X-12151098Y-5251202D01*
X-12147549Y-5313275D01*
X-12181163Y-5365579D01*
X-12239101Y-5388136D01*
X-12244844Y-5388300D01*
X-12257232Y-5388300D01*
X-12382412Y-5425057D01*
X-12492165Y-5495591D01*
X-12492166Y-5495592D01*
X-12498879Y-5503339D01*
X-12577601Y-5594189D01*
X-12631798Y-5712864D01*
X-12650365Y-5842000D01*
X-12631798Y-5971136D01*
X-12577601Y-6089811D01*
X-12492165Y-6188409D01*
X-12444454Y-6219070D01*
X-12405098Y-6267202D01*
X-12401549Y-6329275D01*
X-12435163Y-6381579D01*
X-12493101Y-6404136D01*
X-12498844Y-6404300D01*
X-12511232Y-6404300D01*
X-12636412Y-6441057D01*
X-12746165Y-6511591D01*
X-12831601Y-6610189D01*
X-12885798Y-6728864D01*
X-12904365Y-6858000D01*
X-12885798Y-6987136D01*
X-12831601Y-7105811D01*
X-12746165Y-7204409D01*
X-12698454Y-7235070D01*
X-12659098Y-7283202D01*
X-12655549Y-7345275D01*
X-12689163Y-7397579D01*
X-12747101Y-7420136D01*
X-12752844Y-7420300D01*
X-12765232Y-7420300D01*
X-12890412Y-7457057D01*
X-13000165Y-7527591D01*
X-13085601Y-7626189D01*
X-13139798Y-7744864D01*
X-13158365Y-7874000D01*
X-13139798Y-8003136D01*
X-13085601Y-8121811D01*
X-13000165Y-8220409D01*
X-12952454Y-8251070D01*
X-12913098Y-8299202D01*
X-12909549Y-8361275D01*
X-12943163Y-8413579D01*
X-13001101Y-8436136D01*
X-13006844Y-8436300D01*
X-13019232Y-8436300D01*
X-13144412Y-8473057D01*
X-13254165Y-8543591D01*
X-13339601Y-8642189D01*
X-13339601Y-8642190D01*
X-13339603Y-8642192D01*
X-13348530Y-8661740D01*
X-13390570Y-8707547D01*
X-13451506Y-8719894D01*
X-13508062Y-8694066D01*
X-13524545Y-8674530D01*
X-13712989Y-8382763D01*
X-13715605Y-8378483D01*
X-14113785Y-7688816D01*
X-14116184Y-7684411D01*
X-14479503Y-6975731D01*
X-14481679Y-6971211D01*
X-14809205Y-6245339D01*
X-14811154Y-6240717D01*
X-15102108Y-5499378D01*
X-15103823Y-5494665D01*
X-15357450Y-4739782D01*
X-15358929Y-4734989D01*
X-15574620Y-3968378D01*
X-15575858Y-3963517D01*
X-15753067Y-3187110D01*
X-15754061Y-3182193D01*
X-15892352Y-2397910D01*
X-15893099Y-2392950D01*
X-15992119Y-1602784D01*
X-15992619Y-1597793D01*
X-16052133Y-803639D01*
X-16052383Y-798629D01*
X-16072237Y-2508D01*
X-16072237Y2508D01*
X-16052383Y798629D01*
X-16052133Y803639D01*
X-15992619Y1597793D01*
X-15992119Y1602784D01*
X-15893099Y2392950D01*
X-15892352Y2397910D01*
X-15754061Y3182193D01*
X-15753067Y3187110D01*
X-15575858Y3963517D01*
X-15574620Y3968378D01*
X-15358929Y4734989D01*
X-15357450Y4739782D01*
X-15103823Y5494665D01*
X-15102108Y5499378D01*
X-14811154Y6240717D01*
X-14809205Y6245339D01*
X-14481679Y6971211D01*
X-14479503Y6975731D01*
X-14116184Y7684411D01*
X-14113785Y7688816D01*
X-13715605Y8378483D01*
X-13712990Y8382763D01*
X-13280918Y9051741D01*
X-13278092Y9055886D01*
X-12813211Y9702497D01*
X-12810182Y9706495D01*
X-12313666Y10329105D01*
X-12310442Y10332948D01*
X-11783487Y10930061D01*
X-11780075Y10933738D01*
X-11224018Y11503836D01*
X-11220427Y11507338D01*
X-10636650Y12049002D01*
X-10632890Y12052321D01*
X-10302165Y12329832D01*
X-10022839Y12564215D01*
X-10018929Y12567334D01*
X-9384099Y13048198D01*
X-9380026Y13051126D01*
X-8722029Y13499742D01*
X-8717815Y13502463D01*
X-8038290Y13917711D01*
X-8033946Y13920219D01*
X-7334557Y14301087D01*
X-7330094Y14303375D01*
X-6612600Y14648902D01*
X-6608027Y14650966D01*
X-5874174Y14960310D01*
X-5869505Y14962142D01*
X-5121177Y15234512D01*
X-5116422Y15236110D01*
X-4355418Y15470848D01*
X-4350590Y15472206D01*
X-3578851Y15668715D01*
X-3573961Y15669831D01*
X-2793384Y15827629D01*
X-2788444Y15828500D01*
X-2000975Y15947191D01*
X-1995998Y15947815D01*
X-1203582Y16027108D01*
X-1198580Y16027483D01*
X-454556Y16064615D01*
X-403197Y16067179D01*
X-398185Y16067304D01*
X398185Y16067304D01*
X403197Y16067179D01*
G37*
G04 #@! TD.AperFunction*
G04 #@! TA.AperFunction,Conductor*
G36*
X20863279Y22859285D02*
G01*
X20866854Y22859050D01*
X20943364Y22854035D01*
X20943960Y22853994D01*
X21123034Y22841186D01*
X21135482Y22839509D01*
X21248536Y22817022D01*
X21250295Y22816656D01*
X21391516Y22785935D01*
X21402468Y22782895D01*
X21518008Y22743675D01*
X21520829Y22742671D01*
X21649911Y22694525D01*
X21659249Y22690493D01*
X21771059Y22635354D01*
X21774776Y22633424D01*
X21893393Y22568655D01*
X21901072Y22564006D01*
X22005802Y22494027D01*
X22010199Y22490915D01*
X22117436Y22410638D01*
X22123478Y22405739D01*
X22218545Y22322368D01*
X22223350Y22317868D01*
X22317868Y22223350D01*
X22322368Y22218545D01*
X22405739Y22123478D01*
X22410638Y22117436D01*
X22490915Y22010199D01*
X22494027Y22005802D01*
X22564006Y21901072D01*
X22568655Y21893393D01*
X22633424Y21774776D01*
X22635354Y21771059D01*
X22690493Y21659249D01*
X22694525Y21649911D01*
X22742671Y21520829D01*
X22743675Y21518008D01*
X22782895Y21402468D01*
X22785935Y21391516D01*
X22816656Y21250295D01*
X22817022Y21248536D01*
X22839509Y21135482D01*
X22841186Y21123034D01*
X22853994Y20943960D01*
X22854035Y20943364D01*
X22859285Y20863281D01*
X22859500Y20856700D01*
X22859500Y-43716700D01*
X22859285Y-43723281D01*
X22854035Y-43803364D01*
X22853994Y-43803960D01*
X22841186Y-43983034D01*
X22839509Y-43995482D01*
X22817022Y-44108536D01*
X22816656Y-44110295D01*
X22785935Y-44251516D01*
X22782895Y-44262468D01*
X22743675Y-44378008D01*
X22742671Y-44380829D01*
X22694525Y-44509911D01*
X22690493Y-44519249D01*
X22635354Y-44631059D01*
X22633424Y-44634776D01*
X22568655Y-44753393D01*
X22564006Y-44761072D01*
X22494027Y-44865802D01*
X22490915Y-44870199D01*
X22410638Y-44977436D01*
X22405739Y-44983478D01*
X22322368Y-45078545D01*
X22317868Y-45083350D01*
X22223350Y-45177868D01*
X22218545Y-45182368D01*
X22123478Y-45265739D01*
X22117436Y-45270638D01*
X22010199Y-45350915D01*
X22005802Y-45354027D01*
X21901072Y-45424006D01*
X21893393Y-45428655D01*
X21774776Y-45493424D01*
X21771059Y-45495354D01*
X21659249Y-45550493D01*
X21649911Y-45554525D01*
X21520829Y-45602671D01*
X21518008Y-45603675D01*
X21402468Y-45642895D01*
X21391516Y-45645935D01*
X21250295Y-45676656D01*
X21248536Y-45677022D01*
X21135482Y-45699509D01*
X21123034Y-45701186D01*
X20943960Y-45713994D01*
X20943364Y-45714035D01*
X20866854Y-45719050D01*
X20863279Y-45719285D01*
X20856700Y-45719500D01*
X-20856700Y-45719500D01*
X-20863279Y-45719285D01*
X-20866854Y-45719050D01*
X-20943364Y-45714035D01*
X-20943960Y-45713994D01*
X-21123034Y-45701186D01*
X-21135482Y-45699509D01*
X-21248536Y-45677022D01*
X-21250295Y-45676656D01*
X-21391516Y-45645935D01*
X-21402468Y-45642895D01*
X-21518008Y-45603675D01*
X-21520829Y-45602671D01*
X-21649911Y-45554525D01*
X-21659248Y-45550493D01*
X-21771057Y-45495355D01*
X-21774776Y-45493424D01*
X-21893400Y-45428650D01*
X-21901077Y-45424002D01*
X-22005791Y-45354035D01*
X-22010188Y-45350923D01*
X-22117436Y-45270638D01*
X-22123479Y-45265739D01*
X-22218551Y-45182363D01*
X-22223356Y-45177863D01*
X-22317863Y-45083356D01*
X-22322363Y-45078551D01*
X-22341135Y-45057146D01*
X-19043592Y-45057146D01*
X-18954205Y-45112492D01*
X-18763418Y-45186404D01*
X-18562302Y-45224000D01*
X-18357697Y-45224000D01*
X-18156581Y-45186404D01*
X-17965798Y-45112494D01*
X-17876406Y-45057146D01*
X-2443592Y-45057146D01*
X-2354205Y-45112492D01*
X-2163418Y-45186404D01*
X-1962302Y-45224000D01*
X-1757697Y-45224000D01*
X-1556581Y-45186404D01*
X-1365798Y-45112494D01*
X-1276406Y-45057146D01*
X1276406Y-45057146D01*
X1365798Y-45112494D01*
X1556581Y-45186404D01*
X1757697Y-45224000D01*
X1962302Y-45224000D01*
X2163418Y-45186404D01*
X2354205Y-45112492D01*
X2443592Y-45057146D01*
X17876405Y-45057146D01*
X17965798Y-45112494D01*
X18156581Y-45186404D01*
X18357697Y-45224000D01*
X18562302Y-45224000D01*
X18763418Y-45186404D01*
X18954205Y-45112492D01*
X19043592Y-45057146D01*
X18460000Y-44473553D01*
X17876405Y-45057146D01*
X2443592Y-45057146D01*
X1860000Y-44473553D01*
X1276406Y-45057146D01*
X-1276406Y-45057146D01*
X-1860000Y-44473553D01*
X-2443592Y-45057146D01*
X-17876406Y-45057146D01*
X-18460000Y-44473553D01*
X-19043592Y-45057146D01*
X-22341135Y-45057146D01*
X-22405739Y-44983479D01*
X-22410638Y-44977436D01*
X-22490923Y-44870188D01*
X-22494035Y-44865791D01*
X-22564002Y-44761077D01*
X-22568650Y-44753400D01*
X-22633424Y-44634776D01*
X-22635355Y-44631057D01*
X-22690493Y-44519248D01*
X-22694525Y-44509911D01*
X-22742671Y-44380829D01*
X-22743675Y-44378008D01*
X-22782895Y-44262468D01*
X-22785935Y-44251516D01*
X-22814545Y-44120000D01*
X-19568729Y-44120000D01*
X-19549852Y-44323724D01*
X-19549852Y-44323725D01*
X-19493859Y-44520520D01*
X-19493858Y-44520522D01*
X-19402658Y-44703674D01*
X-19402657Y-44703677D01*
X-19400322Y-44706767D01*
X-19400321Y-44706767D01*
X-18813553Y-44119999D01*
X-19400320Y-43533231D01*
X-19402659Y-43536327D01*
X-19402663Y-43536334D01*
X-19493858Y-43719477D01*
X-19493859Y-43719479D01*
X-19549852Y-43916274D01*
X-19549852Y-43916275D01*
X-19568729Y-44120000D01*
X-22814545Y-44120000D01*
X-22816656Y-44110295D01*
X-22817022Y-44108536D01*
X-22839509Y-43995482D01*
X-22841186Y-43983034D01*
X-22853994Y-43803960D01*
X-22854035Y-43803364D01*
X-22859285Y-43723281D01*
X-22859500Y-43716700D01*
X-22859500Y-43182853D01*
X-19043593Y-43182853D01*
X-18460000Y-43766447D01*
X-18456447Y-43770000D01*
X-18489005Y-43770000D01*
X-18575216Y-43784386D01*
X-18677947Y-43839981D01*
X-18757060Y-43925921D01*
X-18803982Y-44032892D01*
X-18813628Y-44149302D01*
X-18784953Y-44262538D01*
X-18721064Y-44360327D01*
X-18628885Y-44432072D01*
X-18518405Y-44470000D01*
X-18430995Y-44470000D01*
X-18344784Y-44455614D01*
X-18242053Y-44400019D01*
X-18162940Y-44314079D01*
X-18116018Y-44207108D01*
X-18108619Y-44117826D01*
X-17519678Y-44706767D01*
X-17517335Y-44703665D01*
X-17426143Y-44520527D01*
X-17426140Y-44520520D01*
X-17370147Y-44323725D01*
X-17370147Y-44323724D01*
X-17351270Y-44119999D01*
X-17369395Y-43924388D01*
X-17355720Y-43863736D01*
X-17309006Y-43822706D01*
X-17247097Y-43816970D01*
X-17201449Y-43840763D01*
X-17153160Y-43884785D01*
X-17153156Y-43884788D01*
X-16979201Y-43992494D01*
X-16788418Y-44066404D01*
X-16587302Y-44104000D01*
X-16382697Y-44104000D01*
X-16181581Y-44066404D01*
X-15990798Y-43992494D01*
X-15901406Y-43937146D01*
X-15901405Y-43937145D01*
X-16488551Y-43350000D01*
X-16455995Y-43350000D01*
X-16369784Y-43335614D01*
X-16267053Y-43280019D01*
X-16187940Y-43194079D01*
X-16141018Y-43087108D01*
X-16133800Y-42999999D01*
X-16131446Y-42999999D01*
X-15544678Y-43586767D01*
X-15542335Y-43583665D01*
X-15451143Y-43400527D01*
X-15451140Y-43400520D01*
X-15395147Y-43203725D01*
X-15395147Y-43203724D01*
X-15376270Y-43000000D01*
X-4943729Y-43000000D01*
X-4924852Y-43203724D01*
X-4924852Y-43203725D01*
X-4868859Y-43400520D01*
X-4868858Y-43400522D01*
X-4777658Y-43583674D01*
X-4777657Y-43583677D01*
X-4775322Y-43586767D01*
X-4775321Y-43586767D01*
X-4188553Y-42999999D01*
X-4775320Y-42413231D01*
X-4777659Y-42416327D01*
X-4777663Y-42416334D01*
X-4868858Y-42599477D01*
X-4868859Y-42599479D01*
X-4924852Y-42796274D01*
X-4924852Y-42796275D01*
X-4943729Y-43000000D01*
X-15376270Y-43000000D01*
X-15395147Y-42796275D01*
X-15395147Y-42796274D01*
X-15451140Y-42599479D01*
X-15451141Y-42599477D01*
X-15542342Y-42416323D01*
X-15544677Y-42413231D01*
X-15544678Y-42413231D01*
X-16131446Y-42999999D01*
X-16133800Y-42999999D01*
X-16131372Y-42970698D01*
X-16160047Y-42857462D01*
X-16223936Y-42759673D01*
X-16316115Y-42687928D01*
X-16426595Y-42650000D01*
X-16488553Y-42650000D01*
X-15953555Y-42115002D01*
X-15391492Y-42115002D01*
X-15385946Y-42150019D01*
X-15371646Y-42240304D01*
X-15314050Y-42353342D01*
X-15224342Y-42443050D01*
X-15111304Y-42500646D01*
X-15049138Y-42510492D01*
X-14986003Y-42520492D01*
X-14986000Y-42520492D01*
X-14985997Y-42520492D01*
X-14910817Y-42508584D01*
X-14860696Y-42500646D01*
X-14747658Y-42443050D01*
X-14657950Y-42353342D01*
X-14600354Y-42240304D01*
X-14600353Y-42240301D01*
X-14580508Y-42115002D01*
X-14375492Y-42115002D01*
X-14369946Y-42150019D01*
X-14355646Y-42240304D01*
X-14298050Y-42353342D01*
X-14208342Y-42443050D01*
X-14095304Y-42500646D01*
X-14033138Y-42510492D01*
X-13970003Y-42520492D01*
X-13970000Y-42520492D01*
X-13969997Y-42520492D01*
X-13894817Y-42508584D01*
X-13844696Y-42500646D01*
X-13731658Y-42443050D01*
X-13641950Y-42353342D01*
X-13584354Y-42240304D01*
X-13584353Y-42240301D01*
X-13564508Y-42115002D01*
X-13359492Y-42115002D01*
X-13353946Y-42150019D01*
X-13339646Y-42240304D01*
X-13282050Y-42353342D01*
X-13192342Y-42443050D01*
X-13079304Y-42500646D01*
X-13017138Y-42510492D01*
X-12954003Y-42520492D01*
X-12954000Y-42520492D01*
X-12953997Y-42520492D01*
X-12878817Y-42508584D01*
X-12828696Y-42500646D01*
X-12715658Y-42443050D01*
X-12625950Y-42353342D01*
X-12568354Y-42240304D01*
X-12568353Y-42240301D01*
X-12548508Y-42115002D01*
X-12343492Y-42115002D01*
X-12337946Y-42150019D01*
X-12323646Y-42240304D01*
X-12266050Y-42353342D01*
X-12176342Y-42443050D01*
X-12063304Y-42500646D01*
X-12001138Y-42510492D01*
X-11938003Y-42520492D01*
X-11938000Y-42520492D01*
X-11937997Y-42520492D01*
X-11862817Y-42508584D01*
X-11812696Y-42500646D01*
X-11699658Y-42443050D01*
X-11609950Y-42353342D01*
X-11552354Y-42240304D01*
X-11552353Y-42240301D01*
X-11532508Y-42115002D01*
X-11327492Y-42115002D01*
X-11321946Y-42150019D01*
X-11307646Y-42240304D01*
X-11250050Y-42353342D01*
X-11160342Y-42443050D01*
X-11047304Y-42500646D01*
X-10985138Y-42510492D01*
X-10922003Y-42520492D01*
X-10922000Y-42520492D01*
X-10921997Y-42520492D01*
X-10846817Y-42508584D01*
X-10796696Y-42500646D01*
X-10683658Y-42443050D01*
X-10593950Y-42353342D01*
X-10536354Y-42240304D01*
X-10536353Y-42240301D01*
X-10516508Y-42115002D01*
X-10311492Y-42115002D01*
X-10305946Y-42150019D01*
X-10291646Y-42240304D01*
X-10234050Y-42353342D01*
X-10144342Y-42443050D01*
X-10031304Y-42500646D01*
X-9969138Y-42510492D01*
X-9906003Y-42520492D01*
X-9906000Y-42520492D01*
X-9905997Y-42520492D01*
X-9830817Y-42508584D01*
X-9780696Y-42500646D01*
X-9667658Y-42443050D01*
X-9577950Y-42353342D01*
X-9520354Y-42240304D01*
X-9520353Y-42240301D01*
X-9500508Y-42115002D01*
X-9295492Y-42115002D01*
X-9289946Y-42150019D01*
X-9275646Y-42240304D01*
X-9218050Y-42353342D01*
X-9128342Y-42443050D01*
X-9015304Y-42500646D01*
X-8953138Y-42510492D01*
X-8890003Y-42520492D01*
X-8890000Y-42520492D01*
X-8889997Y-42520492D01*
X-8814817Y-42508584D01*
X-8764696Y-42500646D01*
X-8651658Y-42443050D01*
X-8561950Y-42353342D01*
X-8504354Y-42240304D01*
X-8504353Y-42240301D01*
X-8484508Y-42115002D01*
X-8279492Y-42115002D01*
X-8273946Y-42150019D01*
X-8259646Y-42240304D01*
X-8202050Y-42353342D01*
X-8112342Y-42443050D01*
X-7999304Y-42500646D01*
X-7937138Y-42510492D01*
X-7874003Y-42520492D01*
X-7874000Y-42520492D01*
X-7873997Y-42520492D01*
X-7798817Y-42508584D01*
X-7748696Y-42500646D01*
X-7635658Y-42443050D01*
X-7545950Y-42353342D01*
X-7488354Y-42240304D01*
X-7488353Y-42240301D01*
X-7468508Y-42115002D01*
X-7263492Y-42115002D01*
X-7257946Y-42150019D01*
X-7243646Y-42240304D01*
X-7186050Y-42353342D01*
X-7096342Y-42443050D01*
X-6983304Y-42500646D01*
X-6921138Y-42510492D01*
X-6858003Y-42520492D01*
X-6858000Y-42520492D01*
X-6857997Y-42520492D01*
X-6782817Y-42508584D01*
X-6732696Y-42500646D01*
X-6619658Y-42443050D01*
X-6529950Y-42353342D01*
X-6472354Y-42240304D01*
X-6472353Y-42240301D01*
X-6452508Y-42115002D01*
X-6247492Y-42115002D01*
X-6241946Y-42150019D01*
X-6227646Y-42240304D01*
X-6170050Y-42353342D01*
X-6080342Y-42443050D01*
X-5967304Y-42500646D01*
X-5905138Y-42510492D01*
X-5842003Y-42520492D01*
X-5842000Y-42520492D01*
X-5841997Y-42520492D01*
X-5766817Y-42508584D01*
X-5716696Y-42500646D01*
X-5603658Y-42443050D01*
X-5513950Y-42353342D01*
X-5456354Y-42240304D01*
X-5456353Y-42240301D01*
X-5436508Y-42115002D01*
X-5436508Y-42114997D01*
X-5444767Y-42062853D01*
X-4418593Y-42062853D01*
X-3835000Y-42646447D01*
X-3831447Y-42650000D01*
X-3864005Y-42650000D01*
X-3950216Y-42664386D01*
X-4052947Y-42719981D01*
X-4132060Y-42805921D01*
X-4178982Y-42912892D01*
X-4188628Y-43029302D01*
X-4159953Y-43142538D01*
X-4096064Y-43240327D01*
X-4003885Y-43312072D01*
X-3893405Y-43350000D01*
X-3831446Y-43350000D01*
X-4418592Y-43937146D01*
X-4329205Y-43992492D01*
X-4138418Y-44066404D01*
X-3937302Y-44104000D01*
X-3732697Y-44104000D01*
X-3531581Y-44066404D01*
X-3340798Y-43992494D01*
X-3166843Y-43884788D01*
X-3166839Y-43884785D01*
X-3118549Y-43840762D01*
X-3061907Y-43815124D01*
X-3001013Y-43827675D01*
X-2959126Y-43873622D01*
X-2950604Y-43924388D01*
X-2968729Y-44120000D01*
X-2949852Y-44323724D01*
X-2949852Y-44323725D01*
X-2893859Y-44520520D01*
X-2893858Y-44520522D01*
X-2802658Y-44703674D01*
X-2802657Y-44703677D01*
X-2800322Y-44706767D01*
X-2800321Y-44706767D01*
X-2210987Y-44117433D01*
X-2213628Y-44149302D01*
X-2184953Y-44262538D01*
X-2121064Y-44360327D01*
X-2028885Y-44432072D01*
X-1918405Y-44470000D01*
X-1830995Y-44470000D01*
X-1744784Y-44455614D01*
X-1642053Y-44400019D01*
X-1562940Y-44314079D01*
X-1516018Y-44207108D01*
X-1508800Y-44119999D01*
X-1506446Y-44119999D01*
X-919678Y-44706767D01*
X-917335Y-44703665D01*
X-826143Y-44520527D01*
X-826140Y-44520520D01*
X-770147Y-44323725D01*
X-770147Y-44323724D01*
X-751270Y-44120000D01*
X751270Y-44120000D01*
X770147Y-44323724D01*
X770147Y-44323725D01*
X826140Y-44520520D01*
X826143Y-44520527D01*
X917335Y-44703665D01*
X919678Y-44706767D01*
X1506446Y-44119999D01*
X919678Y-43533231D01*
X919677Y-43533231D01*
X917342Y-43536323D01*
X826141Y-43719477D01*
X826140Y-43719479D01*
X770147Y-43916274D01*
X770147Y-43916275D01*
X751270Y-44120000D01*
X-751270Y-44120000D01*
X-770147Y-43916275D01*
X-770147Y-43916274D01*
X-826140Y-43719479D01*
X-826141Y-43719477D01*
X-917342Y-43536323D01*
X-919677Y-43533231D01*
X-919678Y-43533231D01*
X-1506446Y-44119999D01*
X-1508800Y-44119999D01*
X-1506372Y-44090698D01*
X-1535047Y-43977462D01*
X-1598936Y-43879673D01*
X-1691115Y-43807928D01*
X-1801595Y-43770000D01*
X-1863553Y-43770000D01*
X-1860000Y-43766447D01*
X-1276406Y-43182853D01*
X-1276406Y-43182852D01*
X-1365790Y-43127509D01*
X-1365798Y-43127505D01*
X-1465689Y-43088807D01*
X-1513887Y-43049530D01*
X-1529793Y-42989425D01*
X-1507333Y-42931450D01*
X-1465689Y-42901193D01*
X-1365798Y-42862494D01*
X-1276406Y-42807146D01*
X-1276405Y-42807145D01*
X1276405Y-42807145D01*
X1276406Y-42807146D01*
X1365798Y-42862494D01*
X1465689Y-42901193D01*
X1513887Y-42940470D01*
X1529793Y-43000575D01*
X1507333Y-43058550D01*
X1465689Y-43088807D01*
X1365798Y-43127505D01*
X1365790Y-43127509D01*
X1276406Y-43182852D01*
X1276406Y-43182853D01*
X1860000Y-43766447D01*
X1863553Y-43770000D01*
X1830995Y-43770000D01*
X1744784Y-43784386D01*
X1642053Y-43839981D01*
X1562940Y-43925921D01*
X1516018Y-44032892D01*
X1506372Y-44149302D01*
X1535047Y-44262538D01*
X1598936Y-44360327D01*
X1691115Y-44432072D01*
X1801595Y-44470000D01*
X1889005Y-44470000D01*
X1975216Y-44455614D01*
X2077947Y-44400019D01*
X2157060Y-44314079D01*
X2203982Y-44207108D01*
X2211380Y-44117826D01*
X2800321Y-44706767D01*
X2800322Y-44706767D01*
X2802657Y-44703677D01*
X2802658Y-44703674D01*
X2893858Y-44520522D01*
X2893859Y-44520520D01*
X2949852Y-44323725D01*
X2949852Y-44323724D01*
X2968729Y-44120000D01*
X2950604Y-43924388D01*
X2964279Y-43863736D01*
X3010993Y-43822706D01*
X3072902Y-43816970D01*
X3118549Y-43840762D01*
X3166839Y-43884785D01*
X3166843Y-43884788D01*
X3340798Y-43992494D01*
X3531581Y-44066404D01*
X3732697Y-44104000D01*
X3937302Y-44104000D01*
X4138418Y-44066404D01*
X4329205Y-43992492D01*
X4418592Y-43937146D01*
X4418591Y-43937145D01*
X15901405Y-43937145D01*
X15901406Y-43937146D01*
X15990798Y-43992494D01*
X16181581Y-44066404D01*
X16382697Y-44104000D01*
X16587302Y-44104000D01*
X16788418Y-44066404D01*
X16979201Y-43992494D01*
X17153156Y-43884788D01*
X17153160Y-43884785D01*
X17201449Y-43840763D01*
X17258091Y-43815124D01*
X17318985Y-43827675D01*
X17360872Y-43873621D01*
X17369395Y-43924388D01*
X17351270Y-44119999D01*
X17370147Y-44323724D01*
X17370147Y-44323725D01*
X17426140Y-44520520D01*
X17426143Y-44520527D01*
X17517335Y-44703665D01*
X17519678Y-44706767D01*
X18109012Y-44117433D01*
X18106372Y-44149302D01*
X18135047Y-44262538D01*
X18198936Y-44360327D01*
X18291115Y-44432072D01*
X18401595Y-44470000D01*
X18489005Y-44470000D01*
X18575216Y-44455614D01*
X18677947Y-44400019D01*
X18757060Y-44314079D01*
X18803982Y-44207108D01*
X18811200Y-44119999D01*
X18813553Y-44119999D01*
X19400321Y-44706767D01*
X19400322Y-44706767D01*
X19402657Y-44703677D01*
X19402658Y-44703674D01*
X19493858Y-44520522D01*
X19493859Y-44520520D01*
X19549852Y-44323725D01*
X19549852Y-44323724D01*
X19568729Y-44120000D01*
X19549852Y-43916275D01*
X19549852Y-43916274D01*
X19493859Y-43719479D01*
X19493858Y-43719477D01*
X19402663Y-43536334D01*
X19402659Y-43536327D01*
X19400320Y-43533231D01*
X18813553Y-44119999D01*
X18811200Y-44119999D01*
X18813628Y-44090698D01*
X18784953Y-43977462D01*
X18721064Y-43879673D01*
X18628885Y-43807928D01*
X18518405Y-43770000D01*
X18456447Y-43770000D01*
X18460000Y-43766447D01*
X19043593Y-43182853D01*
X19043592Y-43182852D01*
X18954209Y-43127509D01*
X18954192Y-43127500D01*
X18854309Y-43088805D01*
X18806111Y-43049529D01*
X18790205Y-42989424D01*
X18812665Y-42931448D01*
X18854309Y-42901192D01*
X18954205Y-42862492D01*
X19043592Y-42807146D01*
X18456446Y-42220000D01*
X18489005Y-42220000D01*
X18575216Y-42205614D01*
X18677947Y-42150019D01*
X18757060Y-42064079D01*
X18803982Y-41957108D01*
X18811200Y-41869999D01*
X18813553Y-41869999D01*
X19400321Y-42456767D01*
X19400322Y-42456767D01*
X19402657Y-42453677D01*
X19402658Y-42453674D01*
X19493858Y-42270522D01*
X19493859Y-42270520D01*
X19549852Y-42073725D01*
X19549852Y-42073724D01*
X19568729Y-41870000D01*
X19549852Y-41666275D01*
X19549852Y-41666274D01*
X19493859Y-41469479D01*
X19493858Y-41469477D01*
X19402663Y-41286334D01*
X19402659Y-41286327D01*
X19400320Y-41283231D01*
X18813553Y-41869999D01*
X18811200Y-41869999D01*
X18813628Y-41840698D01*
X18784953Y-41727462D01*
X18721064Y-41629673D01*
X18628885Y-41557928D01*
X18518405Y-41520000D01*
X18456447Y-41520000D01*
X18460000Y-41516447D01*
X19043593Y-40932853D01*
X19043592Y-40932852D01*
X18954209Y-40877509D01*
X18954201Y-40877505D01*
X18763418Y-40803595D01*
X18562303Y-40766000D01*
X18357697Y-40766000D01*
X18156581Y-40803595D01*
X17965798Y-40877505D01*
X17965792Y-40877508D01*
X17919661Y-40906070D01*
X17859272Y-40920862D01*
X17801722Y-40897333D01*
X17781331Y-40873751D01*
X17685380Y-40719811D01*
X17548691Y-40576014D01*
X17385854Y-40462676D01*
X17385852Y-40462675D01*
X17385849Y-40462673D01*
X17203540Y-40384439D01*
X17203538Y-40384438D01*
X17203535Y-40384437D01*
X17203532Y-40384436D01*
X17203531Y-40384436D01*
X17082389Y-40359541D01*
X17009199Y-40344500D01*
X16860527Y-40344500D01*
X16860526Y-40344500D01*
X16712620Y-40359540D01*
X16712615Y-40359541D01*
X16523323Y-40418932D01*
X16349853Y-40515216D01*
X16349852Y-40515217D01*
X16199319Y-40644445D01*
X16077879Y-40801331D01*
X15990505Y-40979455D01*
X15990504Y-40979457D01*
X15940775Y-41171523D01*
X15940775Y-41171524D01*
X15930728Y-41369660D01*
X15930728Y-41369663D01*
X15960770Y-41565773D01*
X16029675Y-41751820D01*
X16051571Y-41786949D01*
X16086207Y-41842518D01*
X16101180Y-41902862D01*
X16077824Y-41960483D01*
X16037176Y-41989537D01*
X15990801Y-42007503D01*
X15990790Y-42007509D01*
X15901406Y-42062852D01*
X15901406Y-42062853D01*
X16488553Y-42650000D01*
X16455995Y-42650000D01*
X16369784Y-42664386D01*
X16267053Y-42719981D01*
X16187940Y-42805921D01*
X16141018Y-42912892D01*
X16131372Y-43029302D01*
X16160047Y-43142538D01*
X16223936Y-43240327D01*
X16316115Y-43312072D01*
X16426595Y-43350000D01*
X16488551Y-43350000D01*
X15901405Y-43937145D01*
X4418591Y-43937145D01*
X3831446Y-43350000D01*
X3864005Y-43350000D01*
X3950216Y-43335614D01*
X4052947Y-43280019D01*
X4132060Y-43194079D01*
X4178982Y-43087108D01*
X4186200Y-42999999D01*
X4188553Y-42999999D01*
X4775321Y-43586767D01*
X4775322Y-43586767D01*
X4777657Y-43583677D01*
X4777658Y-43583674D01*
X4868858Y-43400522D01*
X4868859Y-43400520D01*
X4924852Y-43203725D01*
X4924852Y-43203724D01*
X4943729Y-43000000D01*
X4924852Y-42796275D01*
X4924852Y-42796274D01*
X4868859Y-42599479D01*
X4868858Y-42599477D01*
X4777663Y-42416334D01*
X4777659Y-42416327D01*
X4775320Y-42413231D01*
X4188553Y-42999999D01*
X4186200Y-42999999D01*
X4188628Y-42970698D01*
X4159953Y-42857462D01*
X4096064Y-42759673D01*
X4003885Y-42687928D01*
X3893405Y-42650000D01*
X3831447Y-42650000D01*
X3835000Y-42646447D01*
X4366444Y-42115002D01*
X5512508Y-42115002D01*
X5532353Y-42240301D01*
X5532354Y-42240304D01*
X5589950Y-42353342D01*
X5679658Y-42443050D01*
X5792696Y-42500646D01*
X5842817Y-42508584D01*
X5917997Y-42520492D01*
X5918000Y-42520492D01*
X5918003Y-42520492D01*
X5981138Y-42510492D01*
X6043304Y-42500646D01*
X6156342Y-42443050D01*
X6246050Y-42353342D01*
X6303646Y-42240304D01*
X6317946Y-42150019D01*
X6323492Y-42115002D01*
X6528508Y-42115002D01*
X6548353Y-42240301D01*
X6548354Y-42240304D01*
X6605950Y-42353342D01*
X6695658Y-42443050D01*
X6808696Y-42500646D01*
X6858817Y-42508584D01*
X6933997Y-42520492D01*
X6934000Y-42520492D01*
X6934003Y-42520492D01*
X6997138Y-42510492D01*
X7059304Y-42500646D01*
X7172342Y-42443050D01*
X7262050Y-42353342D01*
X7319646Y-42240304D01*
X7333946Y-42150019D01*
X7339492Y-42115002D01*
X7544508Y-42115002D01*
X7564353Y-42240301D01*
X7564354Y-42240304D01*
X7621950Y-42353342D01*
X7711658Y-42443050D01*
X7824696Y-42500646D01*
X7874817Y-42508584D01*
X7949997Y-42520492D01*
X7950000Y-42520492D01*
X7950003Y-42520492D01*
X8013138Y-42510492D01*
X8075304Y-42500646D01*
X8188342Y-42443050D01*
X8278050Y-42353342D01*
X8335646Y-42240304D01*
X8349946Y-42150019D01*
X8355492Y-42115002D01*
X8560508Y-42115002D01*
X8580353Y-42240301D01*
X8580354Y-42240304D01*
X8637950Y-42353342D01*
X8727658Y-42443050D01*
X8840696Y-42500646D01*
X8890817Y-42508584D01*
X8965997Y-42520492D01*
X8966000Y-42520492D01*
X8966003Y-42520492D01*
X9029138Y-42510492D01*
X9091304Y-42500646D01*
X9204342Y-42443050D01*
X9294050Y-42353342D01*
X9351646Y-42240304D01*
X9365946Y-42150019D01*
X9371492Y-42115002D01*
X9576508Y-42115002D01*
X9596353Y-42240301D01*
X9596354Y-42240304D01*
X9653950Y-42353342D01*
X9743658Y-42443050D01*
X9856696Y-42500646D01*
X9906817Y-42508584D01*
X9981997Y-42520492D01*
X9982000Y-42520492D01*
X9982003Y-42520492D01*
X10045138Y-42510492D01*
X10107304Y-42500646D01*
X10220342Y-42443050D01*
X10310050Y-42353342D01*
X10367646Y-42240304D01*
X10381946Y-42150019D01*
X10387492Y-42115002D01*
X10592508Y-42115002D01*
X10612353Y-42240301D01*
X10612354Y-42240304D01*
X10669950Y-42353342D01*
X10759658Y-42443050D01*
X10872696Y-42500646D01*
X10922817Y-42508584D01*
X10997997Y-42520492D01*
X10998000Y-42520492D01*
X10998003Y-42520492D01*
X11061138Y-42510492D01*
X11123304Y-42500646D01*
X11236342Y-42443050D01*
X11326050Y-42353342D01*
X11383646Y-42240304D01*
X11397946Y-42150019D01*
X11403492Y-42115002D01*
X11608508Y-42115002D01*
X11628353Y-42240301D01*
X11628354Y-42240304D01*
X11685950Y-42353342D01*
X11775658Y-42443050D01*
X11888696Y-42500646D01*
X11938817Y-42508584D01*
X12013997Y-42520492D01*
X12014000Y-42520492D01*
X12014003Y-42520492D01*
X12077138Y-42510492D01*
X12139304Y-42500646D01*
X12252342Y-42443050D01*
X12342050Y-42353342D01*
X12399646Y-42240304D01*
X12413946Y-42150019D01*
X12419492Y-42115002D01*
X12624508Y-42115002D01*
X12644353Y-42240301D01*
X12644354Y-42240304D01*
X12701950Y-42353342D01*
X12791658Y-42443050D01*
X12904696Y-42500646D01*
X12954817Y-42508584D01*
X13029997Y-42520492D01*
X13030000Y-42520492D01*
X13030003Y-42520492D01*
X13093138Y-42510492D01*
X13155304Y-42500646D01*
X13268342Y-42443050D01*
X13358050Y-42353342D01*
X13415646Y-42240304D01*
X13429946Y-42150019D01*
X13435492Y-42115002D01*
X13640508Y-42115002D01*
X13660353Y-42240301D01*
X13660354Y-42240304D01*
X13717950Y-42353342D01*
X13807658Y-42443050D01*
X13920696Y-42500646D01*
X13970817Y-42508584D01*
X14045997Y-42520492D01*
X14046000Y-42520492D01*
X14046003Y-42520492D01*
X14109138Y-42510492D01*
X14171304Y-42500646D01*
X14284342Y-42443050D01*
X14374050Y-42353342D01*
X14431646Y-42240304D01*
X14445946Y-42150019D01*
X14451492Y-42115002D01*
X14656508Y-42115002D01*
X14676353Y-42240301D01*
X14676354Y-42240304D01*
X14733950Y-42353342D01*
X14823658Y-42443050D01*
X14936696Y-42500646D01*
X14986817Y-42508584D01*
X15061997Y-42520492D01*
X15062000Y-42520492D01*
X15062003Y-42520492D01*
X15125138Y-42510492D01*
X15187304Y-42500646D01*
X15300342Y-42443050D01*
X15319770Y-42423621D01*
X15375165Y-42395396D01*
X15436574Y-42405121D01*
X15480538Y-42449084D01*
X15490266Y-42510492D01*
X15480957Y-42539598D01*
X15451143Y-42599472D01*
X15451140Y-42599479D01*
X15395147Y-42796274D01*
X15395147Y-42796275D01*
X15376270Y-43000000D01*
X15395147Y-43203724D01*
X15395147Y-43203725D01*
X15451140Y-43400520D01*
X15451143Y-43400527D01*
X15542335Y-43583665D01*
X15544678Y-43586767D01*
X16131446Y-42999999D01*
X15544677Y-42413230D01*
X15530028Y-42414248D01*
X15469708Y-42399179D01*
X15429766Y-42351531D01*
X15425458Y-42289507D01*
X15433423Y-42268218D01*
X15447646Y-42240304D01*
X15447646Y-42240301D01*
X15450693Y-42221067D01*
X15461946Y-42150019D01*
X15467492Y-42115002D01*
X15467492Y-42114997D01*
X15450467Y-42007509D01*
X15447646Y-41989696D01*
X15390050Y-41876658D01*
X15300342Y-41786950D01*
X15300341Y-41786949D01*
X15187304Y-41729354D01*
X15187301Y-41729353D01*
X15062003Y-41709508D01*
X15061997Y-41709508D01*
X14936698Y-41729353D01*
X14936695Y-41729354D01*
X14823658Y-41786949D01*
X14733949Y-41876658D01*
X14676354Y-41989695D01*
X14676353Y-41989698D01*
X14656508Y-42114997D01*
X14656508Y-42115002D01*
X14451492Y-42115002D01*
X14451492Y-42114997D01*
X14434467Y-42007509D01*
X14431646Y-41989696D01*
X14374050Y-41876658D01*
X14284342Y-41786950D01*
X14284341Y-41786949D01*
X14171304Y-41729354D01*
X14171301Y-41729353D01*
X14046003Y-41709508D01*
X14045997Y-41709508D01*
X13920698Y-41729353D01*
X13920695Y-41729354D01*
X13807658Y-41786949D01*
X13717949Y-41876658D01*
X13660354Y-41989695D01*
X13660353Y-41989698D01*
X13640508Y-42114997D01*
X13640508Y-42115002D01*
X13435492Y-42115002D01*
X13435492Y-42114997D01*
X13418467Y-42007509D01*
X13415646Y-41989696D01*
X13358050Y-41876658D01*
X13268342Y-41786950D01*
X13268341Y-41786949D01*
X13155304Y-41729354D01*
X13155301Y-41729353D01*
X13030003Y-41709508D01*
X13029997Y-41709508D01*
X12904698Y-41729353D01*
X12904695Y-41729354D01*
X12791658Y-41786949D01*
X12701949Y-41876658D01*
X12644354Y-41989695D01*
X12644353Y-41989698D01*
X12624508Y-42114997D01*
X12624508Y-42115002D01*
X12419492Y-42115002D01*
X12419492Y-42114997D01*
X12402467Y-42007509D01*
X12399646Y-41989696D01*
X12342050Y-41876658D01*
X12252342Y-41786950D01*
X12252341Y-41786949D01*
X12139304Y-41729354D01*
X12139301Y-41729353D01*
X12014003Y-41709508D01*
X12013997Y-41709508D01*
X11888698Y-41729353D01*
X11888695Y-41729354D01*
X11775658Y-41786949D01*
X11685949Y-41876658D01*
X11628354Y-41989695D01*
X11628353Y-41989698D01*
X11608508Y-42114997D01*
X11608508Y-42115002D01*
X11403492Y-42115002D01*
X11403492Y-42114997D01*
X11386467Y-42007509D01*
X11383646Y-41989696D01*
X11326050Y-41876658D01*
X11236342Y-41786950D01*
X11236341Y-41786949D01*
X11123304Y-41729354D01*
X11123301Y-41729353D01*
X10998003Y-41709508D01*
X10997997Y-41709508D01*
X10872698Y-41729353D01*
X10872695Y-41729354D01*
X10759658Y-41786949D01*
X10669949Y-41876658D01*
X10612354Y-41989695D01*
X10612353Y-41989698D01*
X10592508Y-42114997D01*
X10592508Y-42115002D01*
X10387492Y-42115002D01*
X10387492Y-42114997D01*
X10370467Y-42007509D01*
X10367646Y-41989696D01*
X10310050Y-41876658D01*
X10220342Y-41786950D01*
X10220341Y-41786949D01*
X10107304Y-41729354D01*
X10107301Y-41729353D01*
X9982003Y-41709508D01*
X9981997Y-41709508D01*
X9856698Y-41729353D01*
X9856695Y-41729354D01*
X9743658Y-41786949D01*
X9653949Y-41876658D01*
X9596354Y-41989695D01*
X9596353Y-41989698D01*
X9576508Y-42114997D01*
X9576508Y-42115002D01*
X9371492Y-42115002D01*
X9371492Y-42114997D01*
X9354467Y-42007509D01*
X9351646Y-41989696D01*
X9294050Y-41876658D01*
X9204342Y-41786950D01*
X9204341Y-41786949D01*
X9091304Y-41729354D01*
X9091301Y-41729353D01*
X8966003Y-41709508D01*
X8965997Y-41709508D01*
X8840698Y-41729353D01*
X8840695Y-41729354D01*
X8727658Y-41786949D01*
X8637949Y-41876658D01*
X8580354Y-41989695D01*
X8580353Y-41989698D01*
X8560508Y-42114997D01*
X8560508Y-42115002D01*
X8355492Y-42115002D01*
X8355492Y-42114997D01*
X8338467Y-42007509D01*
X8335646Y-41989696D01*
X8278050Y-41876658D01*
X8188342Y-41786950D01*
X8188341Y-41786949D01*
X8075304Y-41729354D01*
X8075301Y-41729353D01*
X7950003Y-41709508D01*
X7949997Y-41709508D01*
X7824698Y-41729353D01*
X7824695Y-41729354D01*
X7711658Y-41786949D01*
X7621949Y-41876658D01*
X7564354Y-41989695D01*
X7564353Y-41989698D01*
X7544508Y-42114997D01*
X7544508Y-42115002D01*
X7339492Y-42115002D01*
X7339492Y-42114997D01*
X7322467Y-42007509D01*
X7319646Y-41989696D01*
X7262050Y-41876658D01*
X7172342Y-41786950D01*
X7172341Y-41786949D01*
X7059304Y-41729354D01*
X7059301Y-41729353D01*
X6934003Y-41709508D01*
X6933997Y-41709508D01*
X6808698Y-41729353D01*
X6808695Y-41729354D01*
X6695658Y-41786949D01*
X6605949Y-41876658D01*
X6548354Y-41989695D01*
X6548353Y-41989698D01*
X6528508Y-42114997D01*
X6528508Y-42115002D01*
X6323492Y-42115002D01*
X6323492Y-42114997D01*
X6306467Y-42007509D01*
X6303646Y-41989696D01*
X6246050Y-41876658D01*
X6156342Y-41786950D01*
X6156341Y-41786949D01*
X6043304Y-41729354D01*
X6043301Y-41729353D01*
X5918003Y-41709508D01*
X5917997Y-41709508D01*
X5792698Y-41729353D01*
X5792695Y-41729354D01*
X5679658Y-41786949D01*
X5589949Y-41876658D01*
X5532354Y-41989695D01*
X5532353Y-41989698D01*
X5512508Y-42114997D01*
X5512508Y-42115002D01*
X4366444Y-42115002D01*
X4418593Y-42062853D01*
X4418592Y-42062852D01*
X4329209Y-42007509D01*
X4329201Y-42007505D01*
X4287441Y-41991327D01*
X4239243Y-41952050D01*
X4223337Y-41891945D01*
X4241196Y-41844108D01*
X4239420Y-41843002D01*
X4242119Y-41838670D01*
X4242119Y-41838669D01*
X4242122Y-41838666D01*
X4329495Y-41660544D01*
X4379224Y-41468480D01*
X4389272Y-41270337D01*
X4359230Y-41074227D01*
X4290325Y-40888180D01*
X4185380Y-40719811D01*
X4048691Y-40576014D01*
X3885854Y-40462676D01*
X3885852Y-40462675D01*
X3885849Y-40462673D01*
X3703540Y-40384439D01*
X3703538Y-40384438D01*
X3703535Y-40384437D01*
X3703532Y-40384436D01*
X3703531Y-40384436D01*
X3582389Y-40359541D01*
X3509199Y-40344500D01*
X3360527Y-40344500D01*
X3360526Y-40344500D01*
X3212620Y-40359540D01*
X3212615Y-40359541D01*
X3023323Y-40418932D01*
X2849853Y-40515216D01*
X2849852Y-40515217D01*
X2699319Y-40644445D01*
X2577878Y-40801332D01*
X2577877Y-40801333D01*
X2545999Y-40866321D01*
X2502708Y-40910947D01*
X2441454Y-40921605D01*
X2402723Y-40907548D01*
X2354201Y-40877505D01*
X2163418Y-40803595D01*
X1962303Y-40766000D01*
X1757697Y-40766000D01*
X1556581Y-40803595D01*
X1365798Y-40877505D01*
X1365790Y-40877509D01*
X1276406Y-40932852D01*
X1276406Y-40932853D01*
X1863553Y-41520000D01*
X1830995Y-41520000D01*
X1744784Y-41534386D01*
X1642053Y-41589981D01*
X1562940Y-41675921D01*
X1516018Y-41782892D01*
X1506372Y-41899302D01*
X1535047Y-42012538D01*
X1598936Y-42110327D01*
X1691115Y-42182072D01*
X1801595Y-42220000D01*
X1863551Y-42220000D01*
X1276405Y-42807145D01*
X-1276405Y-42807145D01*
X-1863551Y-42220000D01*
X-1830995Y-42220000D01*
X-1744784Y-42205614D01*
X-1642053Y-42150019D01*
X-1562940Y-42064079D01*
X-1516018Y-41957108D01*
X-1508800Y-41869999D01*
X-1506446Y-41869999D01*
X-919678Y-42456767D01*
X-917335Y-42453665D01*
X-826143Y-42270527D01*
X-826140Y-42270520D01*
X-770147Y-42073725D01*
X-770147Y-42073724D01*
X-751270Y-41870000D01*
X751270Y-41870000D01*
X770147Y-42073724D01*
X770147Y-42073725D01*
X826140Y-42270520D01*
X826143Y-42270527D01*
X917335Y-42453665D01*
X919678Y-42456767D01*
X1506446Y-41869999D01*
X919678Y-41283231D01*
X919677Y-41283231D01*
X917342Y-41286323D01*
X826141Y-41469477D01*
X826140Y-41469479D01*
X770147Y-41666274D01*
X770147Y-41666275D01*
X751270Y-41870000D01*
X-751270Y-41870000D01*
X-770147Y-41666275D01*
X-770147Y-41666274D01*
X-826140Y-41469479D01*
X-826141Y-41469477D01*
X-917342Y-41286323D01*
X-919677Y-41283231D01*
X-919678Y-41283231D01*
X-1506446Y-41869999D01*
X-1508800Y-41869999D01*
X-1506372Y-41840698D01*
X-1535047Y-41727462D01*
X-1598936Y-41629673D01*
X-1691115Y-41557928D01*
X-1801595Y-41520000D01*
X-1863553Y-41520000D01*
X-1276406Y-40932853D01*
X-1276406Y-40932852D01*
X-1365790Y-40877509D01*
X-1365798Y-40877505D01*
X-1556581Y-40803595D01*
X-1757697Y-40766000D01*
X-1962303Y-40766000D01*
X-2163418Y-40803595D01*
X-2354201Y-40877505D01*
X-2354209Y-40877509D01*
X-2400336Y-40906069D01*
X-2460724Y-40920862D01*
X-2518275Y-40897334D01*
X-2538667Y-40873751D01*
X-2634617Y-40719814D01*
X-2634620Y-40719811D01*
X-2771306Y-40576016D01*
X-2934150Y-40462673D01*
X-3116459Y-40384439D01*
X-3116468Y-40384436D01*
X-3242996Y-40358434D01*
X-3310801Y-40344500D01*
X-3459473Y-40344500D01*
X-3459474Y-40344500D01*
X-3607379Y-40359540D01*
X-3607384Y-40359541D01*
X-3796676Y-40418932D01*
X-3970146Y-40515216D01*
X-3970147Y-40515217D01*
X-4120680Y-40644445D01*
X-4214771Y-40766000D01*
X-4242122Y-40801334D01*
X-4329495Y-40979456D01*
X-4379224Y-41171520D01*
X-4389272Y-41369663D01*
X-4359230Y-41565773D01*
X-4290325Y-41751820D01*
X-4233790Y-41842520D01*
X-4218818Y-41902861D01*
X-4242173Y-41960481D01*
X-4282823Y-41989537D01*
X-4329195Y-42007502D01*
X-4329209Y-42007509D01*
X-4418592Y-42062852D01*
X-4418593Y-42062853D01*
X-5444767Y-42062853D01*
X-5456353Y-41989698D01*
X-5456354Y-41989695D01*
X-5513949Y-41876658D01*
X-5603658Y-41786949D01*
X-5716695Y-41729354D01*
X-5716698Y-41729353D01*
X-5841997Y-41709508D01*
X-5842003Y-41709508D01*
X-5967301Y-41729353D01*
X-5967304Y-41729354D01*
X-6080341Y-41786949D01*
X-6080342Y-41786950D01*
X-6170050Y-41876658D01*
X-6227646Y-41989696D01*
X-6230467Y-42007509D01*
X-6247492Y-42114997D01*
X-6247492Y-42115002D01*
X-6452508Y-42115002D01*
X-6452508Y-42114997D01*
X-6472353Y-41989698D01*
X-6472354Y-41989695D01*
X-6529949Y-41876658D01*
X-6619658Y-41786949D01*
X-6732695Y-41729354D01*
X-6732698Y-41729353D01*
X-6857997Y-41709508D01*
X-6858003Y-41709508D01*
X-6983301Y-41729353D01*
X-6983304Y-41729354D01*
X-7096341Y-41786949D01*
X-7096342Y-41786950D01*
X-7186050Y-41876658D01*
X-7243646Y-41989696D01*
X-7246467Y-42007509D01*
X-7263492Y-42114997D01*
X-7263492Y-42115002D01*
X-7468508Y-42115002D01*
X-7468508Y-42114997D01*
X-7488353Y-41989698D01*
X-7488354Y-41989695D01*
X-7545949Y-41876658D01*
X-7635658Y-41786949D01*
X-7748695Y-41729354D01*
X-7748698Y-41729353D01*
X-7873997Y-41709508D01*
X-7874003Y-41709508D01*
X-7999301Y-41729353D01*
X-7999304Y-41729354D01*
X-8112341Y-41786949D01*
X-8112342Y-41786950D01*
X-8202050Y-41876658D01*
X-8259646Y-41989696D01*
X-8262467Y-42007509D01*
X-8279492Y-42114997D01*
X-8279492Y-42115002D01*
X-8484508Y-42115002D01*
X-8484508Y-42114997D01*
X-8504353Y-41989698D01*
X-8504354Y-41989695D01*
X-8561949Y-41876658D01*
X-8651658Y-41786949D01*
X-8764695Y-41729354D01*
X-8764698Y-41729353D01*
X-8889997Y-41709508D01*
X-8890003Y-41709508D01*
X-9015301Y-41729353D01*
X-9015304Y-41729354D01*
X-9128341Y-41786949D01*
X-9128342Y-41786950D01*
X-9218050Y-41876658D01*
X-9275646Y-41989696D01*
X-9278467Y-42007509D01*
X-9295492Y-42114997D01*
X-9295492Y-42115002D01*
X-9500508Y-42115002D01*
X-9500508Y-42114997D01*
X-9520353Y-41989698D01*
X-9520354Y-41989695D01*
X-9577949Y-41876658D01*
X-9667658Y-41786949D01*
X-9780695Y-41729354D01*
X-9780698Y-41729353D01*
X-9905997Y-41709508D01*
X-9906003Y-41709508D01*
X-10031301Y-41729353D01*
X-10031304Y-41729354D01*
X-10144341Y-41786949D01*
X-10144342Y-41786950D01*
X-10234050Y-41876658D01*
X-10291646Y-41989696D01*
X-10294467Y-42007509D01*
X-10311492Y-42114997D01*
X-10311492Y-42115002D01*
X-10516508Y-42115002D01*
X-10516508Y-42114997D01*
X-10536353Y-41989698D01*
X-10536354Y-41989695D01*
X-10593949Y-41876658D01*
X-10683658Y-41786949D01*
X-10796695Y-41729354D01*
X-10796698Y-41729353D01*
X-10921997Y-41709508D01*
X-10922003Y-41709508D01*
X-11047301Y-41729353D01*
X-11047304Y-41729354D01*
X-11160341Y-41786949D01*
X-11160342Y-41786950D01*
X-11250050Y-41876658D01*
X-11307646Y-41989696D01*
X-11310467Y-42007509D01*
X-11327492Y-42114997D01*
X-11327492Y-42115002D01*
X-11532508Y-42115002D01*
X-11532508Y-42114997D01*
X-11552353Y-41989698D01*
X-11552354Y-41989695D01*
X-11609949Y-41876658D01*
X-11699658Y-41786949D01*
X-11812695Y-41729354D01*
X-11812698Y-41729353D01*
X-11937997Y-41709508D01*
X-11938003Y-41709508D01*
X-12063301Y-41729353D01*
X-12063304Y-41729354D01*
X-12176341Y-41786949D01*
X-12176342Y-41786950D01*
X-12266050Y-41876658D01*
X-12323646Y-41989696D01*
X-12326467Y-42007509D01*
X-12343492Y-42114997D01*
X-12343492Y-42115002D01*
X-12548508Y-42115002D01*
X-12548508Y-42114997D01*
X-12568353Y-41989698D01*
X-12568354Y-41989695D01*
X-12625949Y-41876658D01*
X-12715658Y-41786949D01*
X-12828695Y-41729354D01*
X-12828698Y-41729353D01*
X-12953997Y-41709508D01*
X-12954003Y-41709508D01*
X-13079301Y-41729353D01*
X-13079304Y-41729354D01*
X-13192341Y-41786949D01*
X-13192342Y-41786950D01*
X-13282050Y-41876658D01*
X-13339646Y-41989696D01*
X-13342467Y-42007509D01*
X-13359492Y-42114997D01*
X-13359492Y-42115002D01*
X-13564508Y-42115002D01*
X-13564508Y-42114997D01*
X-13584353Y-41989698D01*
X-13584354Y-41989695D01*
X-13641949Y-41876658D01*
X-13731658Y-41786949D01*
X-13844695Y-41729354D01*
X-13844698Y-41729353D01*
X-13969997Y-41709508D01*
X-13970003Y-41709508D01*
X-14095301Y-41729353D01*
X-14095304Y-41729354D01*
X-14208341Y-41786949D01*
X-14208342Y-41786950D01*
X-14298050Y-41876658D01*
X-14355646Y-41989696D01*
X-14358467Y-42007509D01*
X-14375492Y-42114997D01*
X-14375492Y-42115002D01*
X-14580508Y-42115002D01*
X-14580508Y-42114997D01*
X-14600353Y-41989698D01*
X-14600354Y-41989695D01*
X-14657949Y-41876658D01*
X-14747658Y-41786949D01*
X-14860695Y-41729354D01*
X-14860698Y-41729353D01*
X-14985997Y-41709508D01*
X-14986003Y-41709508D01*
X-15111301Y-41729353D01*
X-15111304Y-41729354D01*
X-15224341Y-41786949D01*
X-15224342Y-41786950D01*
X-15314050Y-41876658D01*
X-15371646Y-41989696D01*
X-15374467Y-42007509D01*
X-15391492Y-42114997D01*
X-15391492Y-42115002D01*
X-15953555Y-42115002D01*
X-15901406Y-42062853D01*
X-15901406Y-42062852D01*
X-15990790Y-42007509D01*
X-15990804Y-42007502D01*
X-16032559Y-41991326D01*
X-16080756Y-41952050D01*
X-16096662Y-41891945D01*
X-16078813Y-41844103D01*
X-16080580Y-41843002D01*
X-16077880Y-41838670D01*
X-15990505Y-41660544D01*
X-15990504Y-41660542D01*
X-15940775Y-41468476D01*
X-15940775Y-41468475D01*
X-15930728Y-41270339D01*
X-15930728Y-41270336D01*
X-15960770Y-41074227D01*
X-15960772Y-41074220D01*
X-16029674Y-40888182D01*
X-16134621Y-40719809D01*
X-16271306Y-40576016D01*
X-16434150Y-40462673D01*
X-16616459Y-40384439D01*
X-16616468Y-40384436D01*
X-16742996Y-40358434D01*
X-16810801Y-40344500D01*
X-16959473Y-40344500D01*
X-16959474Y-40344500D01*
X-17107379Y-40359540D01*
X-17107384Y-40359541D01*
X-17296676Y-40418932D01*
X-17470146Y-40515216D01*
X-17470147Y-40515217D01*
X-17620680Y-40644445D01*
X-17742121Y-40801332D01*
X-17773998Y-40866318D01*
X-17817288Y-40910946D01*
X-17878542Y-40921604D01*
X-17917274Y-40907548D01*
X-17965792Y-40877508D01*
X-17965798Y-40877505D01*
X-18156581Y-40803595D01*
X-18357697Y-40766000D01*
X-18562303Y-40766000D01*
X-18763418Y-40803595D01*
X-18954201Y-40877505D01*
X-18954209Y-40877509D01*
X-19043592Y-40932852D01*
X-19043593Y-40932853D01*
X-18460000Y-41516447D01*
X-18456447Y-41520000D01*
X-18489005Y-41520000D01*
X-18575216Y-41534386D01*
X-18677947Y-41589981D01*
X-18757060Y-41675921D01*
X-18803982Y-41782892D01*
X-18813628Y-41899302D01*
X-18784953Y-42012538D01*
X-18721064Y-42110327D01*
X-18628885Y-42182072D01*
X-18518405Y-42220000D01*
X-18456446Y-42220000D01*
X-19043592Y-42807146D01*
X-18954205Y-42862492D01*
X-18854309Y-42901192D01*
X-18806112Y-42940468D01*
X-18790205Y-43000573D01*
X-18812664Y-43058549D01*
X-18854309Y-43088805D01*
X-18954192Y-43127500D01*
X-18954209Y-43127509D01*
X-19043592Y-43182852D01*
X-19043593Y-43182853D01*
X-22859500Y-43182853D01*
X-22859500Y-41870000D01*
X-19568729Y-41870000D01*
X-19549852Y-42073724D01*
X-19549852Y-42073725D01*
X-19493859Y-42270520D01*
X-19493858Y-42270522D01*
X-19402658Y-42453674D01*
X-19402657Y-42453677D01*
X-19400322Y-42456767D01*
X-19400321Y-42456767D01*
X-18813553Y-41869999D01*
X-19400320Y-41283231D01*
X-19402659Y-41286327D01*
X-19402663Y-41286334D01*
X-19493858Y-41469477D01*
X-19493859Y-41469479D01*
X-19549852Y-41666274D01*
X-19549852Y-41666275D01*
X-19568729Y-41870000D01*
X-22859500Y-41870000D01*
X-22859500Y-39321000D01*
X-14883492Y-39321000D01*
X-14863646Y-39446304D01*
X-14806050Y-39559342D01*
X-14716342Y-39649050D01*
X-14603304Y-39706646D01*
X-14540652Y-39716569D01*
X-14478003Y-39726492D01*
X-14478000Y-39726492D01*
X-14477997Y-39726492D01*
X-14402817Y-39714584D01*
X-14352696Y-39706646D01*
X-14239658Y-39649050D01*
X-14149950Y-39559342D01*
X-14092354Y-39446304D01*
X-14092353Y-39446301D01*
X-14072508Y-39321002D01*
X-14072508Y-39321000D01*
X-12851492Y-39321000D01*
X-12831646Y-39446304D01*
X-12774050Y-39559342D01*
X-12684342Y-39649050D01*
X-12571304Y-39706646D01*
X-12508652Y-39716569D01*
X-12446003Y-39726492D01*
X-12446000Y-39726492D01*
X-12445997Y-39726492D01*
X-12370817Y-39714584D01*
X-12320696Y-39706646D01*
X-12207658Y-39649050D01*
X-12117950Y-39559342D01*
X-12060354Y-39446304D01*
X-12060353Y-39446301D01*
X-12040508Y-39321002D01*
X-12040508Y-39321000D01*
X-10819492Y-39321000D01*
X-10799646Y-39446304D01*
X-10742050Y-39559342D01*
X-10652342Y-39649050D01*
X-10539304Y-39706646D01*
X-10476652Y-39716569D01*
X-10414003Y-39726492D01*
X-10414000Y-39726492D01*
X-10413997Y-39726492D01*
X-10338817Y-39714584D01*
X-10288696Y-39706646D01*
X-10175658Y-39649050D01*
X-10085950Y-39559342D01*
X-10028354Y-39446304D01*
X-10028353Y-39446301D01*
X-10008508Y-39321002D01*
X-10008508Y-39321000D01*
X-8787492Y-39321000D01*
X-8767646Y-39446304D01*
X-8710050Y-39559342D01*
X-8620342Y-39649050D01*
X-8507304Y-39706646D01*
X-8444652Y-39716569D01*
X-8382003Y-39726492D01*
X-8382000Y-39726492D01*
X-8381997Y-39726492D01*
X-8306817Y-39714584D01*
X-8256696Y-39706646D01*
X-8143658Y-39649050D01*
X-8053950Y-39559342D01*
X-7996354Y-39446304D01*
X-7996353Y-39446301D01*
X-7976508Y-39321002D01*
X-7976508Y-39321000D01*
X-6755492Y-39321000D01*
X-6735646Y-39446304D01*
X-6678050Y-39559342D01*
X-6588342Y-39649050D01*
X-6475304Y-39706646D01*
X-6412652Y-39716569D01*
X-6350003Y-39726492D01*
X-6350000Y-39726492D01*
X-6349997Y-39726492D01*
X-6274817Y-39714584D01*
X-6224696Y-39706646D01*
X-6111658Y-39649050D01*
X-6021950Y-39559342D01*
X-5964354Y-39446304D01*
X-5964353Y-39446301D01*
X-5944508Y-39321002D01*
X6020508Y-39321002D01*
X6040353Y-39446301D01*
X6040354Y-39446304D01*
X6097950Y-39559342D01*
X6187658Y-39649050D01*
X6300696Y-39706646D01*
X6350817Y-39714584D01*
X6425997Y-39726492D01*
X6426000Y-39726492D01*
X6426003Y-39726492D01*
X6488652Y-39716569D01*
X6551304Y-39706646D01*
X6664342Y-39649050D01*
X6754050Y-39559342D01*
X6811646Y-39446304D01*
X6831492Y-39321002D01*
X8052508Y-39321002D01*
X8072353Y-39446301D01*
X8072354Y-39446304D01*
X8129950Y-39559342D01*
X8219658Y-39649050D01*
X8332696Y-39706646D01*
X8382817Y-39714584D01*
X8457997Y-39726492D01*
X8458000Y-39726492D01*
X8458003Y-39726492D01*
X8520652Y-39716569D01*
X8583304Y-39706646D01*
X8696342Y-39649050D01*
X8786050Y-39559342D01*
X8843646Y-39446304D01*
X8863492Y-39321002D01*
X10084508Y-39321002D01*
X10104353Y-39446301D01*
X10104354Y-39446304D01*
X10161950Y-39559342D01*
X10251658Y-39649050D01*
X10364696Y-39706646D01*
X10414817Y-39714584D01*
X10489997Y-39726492D01*
X10490000Y-39726492D01*
X10490003Y-39726492D01*
X10552652Y-39716569D01*
X10615304Y-39706646D01*
X10728342Y-39649050D01*
X10818050Y-39559342D01*
X10875646Y-39446304D01*
X10895492Y-39321002D01*
X12116508Y-39321002D01*
X12136353Y-39446301D01*
X12136354Y-39446304D01*
X12193950Y-39559342D01*
X12283658Y-39649050D01*
X12396696Y-39706646D01*
X12446817Y-39714584D01*
X12521997Y-39726492D01*
X12522000Y-39726492D01*
X12522003Y-39726492D01*
X12584652Y-39716569D01*
X12647304Y-39706646D01*
X12760342Y-39649050D01*
X12850050Y-39559342D01*
X12907646Y-39446304D01*
X12927492Y-39321002D01*
X14148508Y-39321002D01*
X14168353Y-39446301D01*
X14168354Y-39446304D01*
X14225950Y-39559342D01*
X14315658Y-39649050D01*
X14428696Y-39706646D01*
X14478817Y-39714584D01*
X14553997Y-39726492D01*
X14554000Y-39726492D01*
X14554003Y-39726492D01*
X14616652Y-39716569D01*
X14679304Y-39706646D01*
X14792342Y-39649050D01*
X14882050Y-39559342D01*
X14939646Y-39446304D01*
X14959492Y-39321000D01*
X14939646Y-39195696D01*
X14882050Y-39082658D01*
X14792342Y-38992950D01*
X14792341Y-38992949D01*
X14679304Y-38935354D01*
X14679301Y-38935353D01*
X14554003Y-38915508D01*
X14553997Y-38915508D01*
X14428698Y-38935353D01*
X14428695Y-38935354D01*
X14315658Y-38992949D01*
X14225949Y-39082658D01*
X14168354Y-39195695D01*
X14168353Y-39195698D01*
X14148508Y-39320997D01*
X14148508Y-39321002D01*
X12927492Y-39321002D01*
X12927492Y-39321000D01*
X12907646Y-39195696D01*
X12850050Y-39082658D01*
X12760342Y-38992950D01*
X12760341Y-38992949D01*
X12647304Y-38935354D01*
X12647301Y-38935353D01*
X12522003Y-38915508D01*
X12521997Y-38915508D01*
X12396698Y-38935353D01*
X12396695Y-38935354D01*
X12283658Y-38992949D01*
X12193949Y-39082658D01*
X12136354Y-39195695D01*
X12136353Y-39195698D01*
X12116508Y-39320997D01*
X12116508Y-39321002D01*
X10895492Y-39321002D01*
X10895492Y-39321000D01*
X10875646Y-39195696D01*
X10818050Y-39082658D01*
X10728342Y-38992950D01*
X10728341Y-38992949D01*
X10615304Y-38935354D01*
X10615301Y-38935353D01*
X10490003Y-38915508D01*
X10489997Y-38915508D01*
X10364698Y-38935353D01*
X10364695Y-38935354D01*
X10251658Y-38992949D01*
X10161949Y-39082658D01*
X10104354Y-39195695D01*
X10104353Y-39195698D01*
X10084508Y-39320997D01*
X10084508Y-39321002D01*
X8863492Y-39321002D01*
X8863492Y-39321000D01*
X8843646Y-39195696D01*
X8786050Y-39082658D01*
X8696342Y-38992950D01*
X8696341Y-38992949D01*
X8583304Y-38935354D01*
X8583301Y-38935353D01*
X8458003Y-38915508D01*
X8457997Y-38915508D01*
X8332698Y-38935353D01*
X8332695Y-38935354D01*
X8219658Y-38992949D01*
X8129949Y-39082658D01*
X8072354Y-39195695D01*
X8072353Y-39195698D01*
X8052508Y-39320997D01*
X8052508Y-39321002D01*
X6831492Y-39321002D01*
X6831492Y-39321000D01*
X6811646Y-39195696D01*
X6754050Y-39082658D01*
X6664342Y-38992950D01*
X6664341Y-38992949D01*
X6551304Y-38935354D01*
X6551301Y-38935353D01*
X6426003Y-38915508D01*
X6425997Y-38915508D01*
X6300698Y-38935353D01*
X6300695Y-38935354D01*
X6187658Y-38992949D01*
X6097949Y-39082658D01*
X6040354Y-39195695D01*
X6040353Y-39195698D01*
X6020508Y-39320997D01*
X6020508Y-39321002D01*
X-5944508Y-39321002D01*
X-5944508Y-39320997D01*
X-5964353Y-39195698D01*
X-5964354Y-39195695D01*
X-6021949Y-39082658D01*
X-6111658Y-38992949D01*
X-6224695Y-38935354D01*
X-6224698Y-38935353D01*
X-6349997Y-38915508D01*
X-6350003Y-38915508D01*
X-6475301Y-38935353D01*
X-6475304Y-38935354D01*
X-6588341Y-38992949D01*
X-6588342Y-38992950D01*
X-6678050Y-39082658D01*
X-6735646Y-39195696D01*
X-6755492Y-39321000D01*
X-7976508Y-39321000D01*
X-7976508Y-39320997D01*
X-7996353Y-39195698D01*
X-7996354Y-39195695D01*
X-8053949Y-39082658D01*
X-8143658Y-38992949D01*
X-8256695Y-38935354D01*
X-8256698Y-38935353D01*
X-8381997Y-38915508D01*
X-8382003Y-38915508D01*
X-8507301Y-38935353D01*
X-8507304Y-38935354D01*
X-8620341Y-38992949D01*
X-8620342Y-38992950D01*
X-8710050Y-39082658D01*
X-8767646Y-39195696D01*
X-8787492Y-39321000D01*
X-10008508Y-39321000D01*
X-10008508Y-39320997D01*
X-10028353Y-39195698D01*
X-10028354Y-39195695D01*
X-10085949Y-39082658D01*
X-10175658Y-38992949D01*
X-10288695Y-38935354D01*
X-10288698Y-38935353D01*
X-10413997Y-38915508D01*
X-10414003Y-38915508D01*
X-10539301Y-38935353D01*
X-10539304Y-38935354D01*
X-10652341Y-38992949D01*
X-10652342Y-38992950D01*
X-10742050Y-39082658D01*
X-10799646Y-39195696D01*
X-10819492Y-39321000D01*
X-12040508Y-39321000D01*
X-12040508Y-39320997D01*
X-12060353Y-39195698D01*
X-12060354Y-39195695D01*
X-12117949Y-39082658D01*
X-12207658Y-38992949D01*
X-12320695Y-38935354D01*
X-12320698Y-38935353D01*
X-12445997Y-38915508D01*
X-12446003Y-38915508D01*
X-12571301Y-38935353D01*
X-12571304Y-38935354D01*
X-12684341Y-38992949D01*
X-12684342Y-38992950D01*
X-12774050Y-39082658D01*
X-12831646Y-39195696D01*
X-12851492Y-39321000D01*
X-14072508Y-39321000D01*
X-14072508Y-39320997D01*
X-14092353Y-39195698D01*
X-14092354Y-39195695D01*
X-14149949Y-39082658D01*
X-14239658Y-38992949D01*
X-14352695Y-38935354D01*
X-14352698Y-38935353D01*
X-14477997Y-38915508D01*
X-14478003Y-38915508D01*
X-14603301Y-38935353D01*
X-14603304Y-38935354D01*
X-14716341Y-38992949D01*
X-14716342Y-38992950D01*
X-14806050Y-39082658D01*
X-14863646Y-39195696D01*
X-14883492Y-39321000D01*
X-22859500Y-39321000D01*
X-22859500Y-38813000D01*
X-13867492Y-38813000D01*
X-13847646Y-38938304D01*
X-13790050Y-39051342D01*
X-13700342Y-39141050D01*
X-13587304Y-39198646D01*
X-13524652Y-39208569D01*
X-13462003Y-39218492D01*
X-13462000Y-39218492D01*
X-13461997Y-39218492D01*
X-13386817Y-39206584D01*
X-13336696Y-39198646D01*
X-13223658Y-39141050D01*
X-13133950Y-39051342D01*
X-13104197Y-38992950D01*
X-13076354Y-38938304D01*
X-13076353Y-38938301D01*
X-13056508Y-38813002D01*
X-13056508Y-38813000D01*
X-11835492Y-38813000D01*
X-11815646Y-38938304D01*
X-11758050Y-39051342D01*
X-11668342Y-39141050D01*
X-11555304Y-39198646D01*
X-11492652Y-39208569D01*
X-11430003Y-39218492D01*
X-11430000Y-39218492D01*
X-11429997Y-39218492D01*
X-11354817Y-39206584D01*
X-11304696Y-39198646D01*
X-11191658Y-39141050D01*
X-11101950Y-39051342D01*
X-11072197Y-38992950D01*
X-11044354Y-38938304D01*
X-11044353Y-38938301D01*
X-11024508Y-38813002D01*
X-11024508Y-38813000D01*
X-9803492Y-38813000D01*
X-9783646Y-38938304D01*
X-9726050Y-39051342D01*
X-9636342Y-39141050D01*
X-9523304Y-39198646D01*
X-9460652Y-39208569D01*
X-9398003Y-39218492D01*
X-9398000Y-39218492D01*
X-9397997Y-39218492D01*
X-9322817Y-39206584D01*
X-9272696Y-39198646D01*
X-9159658Y-39141050D01*
X-9069950Y-39051342D01*
X-9040197Y-38992950D01*
X-9012354Y-38938304D01*
X-9012353Y-38938301D01*
X-8992508Y-38813002D01*
X-8992508Y-38813000D01*
X-7771492Y-38813000D01*
X-7751646Y-38938304D01*
X-7694050Y-39051342D01*
X-7604342Y-39141050D01*
X-7491304Y-39198646D01*
X-7428652Y-39208569D01*
X-7366003Y-39218492D01*
X-7366000Y-39218492D01*
X-7365997Y-39218492D01*
X-7290817Y-39206584D01*
X-7240696Y-39198646D01*
X-7127658Y-39141050D01*
X-7037950Y-39051342D01*
X-7008197Y-38992950D01*
X-6980354Y-38938304D01*
X-6980353Y-38938301D01*
X-6960508Y-38813002D01*
X-6960508Y-38813000D01*
X-5739492Y-38813000D01*
X-5719646Y-38938304D01*
X-5662050Y-39051342D01*
X-5572342Y-39141050D01*
X-5459304Y-39198646D01*
X-5396652Y-39208569D01*
X-5334003Y-39218492D01*
X-5334000Y-39218492D01*
X-5333997Y-39218492D01*
X-5258817Y-39206584D01*
X-5208696Y-39198646D01*
X-5095658Y-39141050D01*
X-5005950Y-39051342D01*
X-4976197Y-38992950D01*
X-4948354Y-38938304D01*
X-4948353Y-38938301D01*
X-4928508Y-38813002D01*
X5004508Y-38813002D01*
X5024353Y-38938301D01*
X5024354Y-38938304D01*
X5052197Y-38992950D01*
X5081950Y-39051342D01*
X5171658Y-39141050D01*
X5284696Y-39198646D01*
X5334817Y-39206584D01*
X5409997Y-39218492D01*
X5410000Y-39218492D01*
X5410003Y-39218492D01*
X5472652Y-39208569D01*
X5535304Y-39198646D01*
X5648342Y-39141050D01*
X5738050Y-39051342D01*
X5795646Y-38938304D01*
X5815492Y-38813002D01*
X7036508Y-38813002D01*
X7056353Y-38938301D01*
X7056354Y-38938304D01*
X7084197Y-38992950D01*
X7113950Y-39051342D01*
X7203658Y-39141050D01*
X7316696Y-39198646D01*
X7366817Y-39206584D01*
X7441997Y-39218492D01*
X7442000Y-39218492D01*
X7442003Y-39218492D01*
X7504652Y-39208569D01*
X7567304Y-39198646D01*
X7680342Y-39141050D01*
X7770050Y-39051342D01*
X7827646Y-38938304D01*
X7847492Y-38813002D01*
X9068508Y-38813002D01*
X9088353Y-38938301D01*
X9088354Y-38938304D01*
X9116197Y-38992950D01*
X9145950Y-39051342D01*
X9235658Y-39141050D01*
X9348696Y-39198646D01*
X9398817Y-39206584D01*
X9473997Y-39218492D01*
X9474000Y-39218492D01*
X9474003Y-39218492D01*
X9536652Y-39208569D01*
X9599304Y-39198646D01*
X9712342Y-39141050D01*
X9802050Y-39051342D01*
X9859646Y-38938304D01*
X9879492Y-38813002D01*
X11100508Y-38813002D01*
X11120353Y-38938301D01*
X11120354Y-38938304D01*
X11148197Y-38992950D01*
X11177950Y-39051342D01*
X11267658Y-39141050D01*
X11380696Y-39198646D01*
X11430817Y-39206584D01*
X11505997Y-39218492D01*
X11506000Y-39218492D01*
X11506003Y-39218492D01*
X11568652Y-39208569D01*
X11631304Y-39198646D01*
X11744342Y-39141050D01*
X11834050Y-39051342D01*
X11891646Y-38938304D01*
X11911492Y-38813002D01*
X13132508Y-38813002D01*
X13152353Y-38938301D01*
X13152354Y-38938304D01*
X13180197Y-38992950D01*
X13209950Y-39051342D01*
X13299658Y-39141050D01*
X13412696Y-39198646D01*
X13462817Y-39206584D01*
X13537997Y-39218492D01*
X13538000Y-39218492D01*
X13538003Y-39218492D01*
X13600652Y-39208569D01*
X13663304Y-39198646D01*
X13776342Y-39141050D01*
X13866050Y-39051342D01*
X13923646Y-38938304D01*
X13943492Y-38813000D01*
X13923646Y-38687696D01*
X13866050Y-38574658D01*
X13776342Y-38484950D01*
X13776341Y-38484949D01*
X13663304Y-38427354D01*
X13663301Y-38427353D01*
X13538003Y-38407508D01*
X13537997Y-38407508D01*
X13412698Y-38427353D01*
X13412695Y-38427354D01*
X13299658Y-38484949D01*
X13209949Y-38574658D01*
X13152354Y-38687695D01*
X13152353Y-38687698D01*
X13132508Y-38812997D01*
X13132508Y-38813002D01*
X11911492Y-38813002D01*
X11911492Y-38813000D01*
X11891646Y-38687696D01*
X11834050Y-38574658D01*
X11744342Y-38484950D01*
X11744341Y-38484949D01*
X11631304Y-38427354D01*
X11631301Y-38427353D01*
X11506003Y-38407508D01*
X11505997Y-38407508D01*
X11380698Y-38427353D01*
X11380695Y-38427354D01*
X11267658Y-38484949D01*
X11177949Y-38574658D01*
X11120354Y-38687695D01*
X11120353Y-38687698D01*
X11100508Y-38812997D01*
X11100508Y-38813002D01*
X9879492Y-38813002D01*
X9879492Y-38813000D01*
X9859646Y-38687696D01*
X9802050Y-38574658D01*
X9712342Y-38484950D01*
X9712341Y-38484949D01*
X9599304Y-38427354D01*
X9599301Y-38427353D01*
X9474003Y-38407508D01*
X9473997Y-38407508D01*
X9348698Y-38427353D01*
X9348695Y-38427354D01*
X9235658Y-38484949D01*
X9145949Y-38574658D01*
X9088354Y-38687695D01*
X9088353Y-38687698D01*
X9068508Y-38812997D01*
X9068508Y-38813002D01*
X7847492Y-38813002D01*
X7847492Y-38813000D01*
X7827646Y-38687696D01*
X7770050Y-38574658D01*
X7680342Y-38484950D01*
X7680341Y-38484949D01*
X7567304Y-38427354D01*
X7567301Y-38427353D01*
X7442003Y-38407508D01*
X7441997Y-38407508D01*
X7316698Y-38427353D01*
X7316695Y-38427354D01*
X7203658Y-38484949D01*
X7113949Y-38574658D01*
X7056354Y-38687695D01*
X7056353Y-38687698D01*
X7036508Y-38812997D01*
X7036508Y-38813002D01*
X5815492Y-38813002D01*
X5815492Y-38813000D01*
X5795646Y-38687696D01*
X5738050Y-38574658D01*
X5648342Y-38484950D01*
X5648341Y-38484949D01*
X5535304Y-38427354D01*
X5535301Y-38427353D01*
X5410003Y-38407508D01*
X5409997Y-38407508D01*
X5284698Y-38427353D01*
X5284695Y-38427354D01*
X5171658Y-38484949D01*
X5081949Y-38574658D01*
X5024354Y-38687695D01*
X5024353Y-38687698D01*
X5004508Y-38812997D01*
X5004508Y-38813002D01*
X-4928508Y-38813002D01*
X-4928508Y-38812997D01*
X-4948353Y-38687698D01*
X-4948354Y-38687695D01*
X-5005949Y-38574658D01*
X-5095658Y-38484949D01*
X-5208695Y-38427354D01*
X-5208698Y-38427353D01*
X-5333997Y-38407508D01*
X-5334003Y-38407508D01*
X-5459301Y-38427353D01*
X-5459304Y-38427354D01*
X-5572341Y-38484949D01*
X-5572342Y-38484950D01*
X-5662050Y-38574658D01*
X-5719646Y-38687696D01*
X-5739492Y-38813000D01*
X-6960508Y-38813000D01*
X-6960508Y-38812997D01*
X-6980353Y-38687698D01*
X-6980354Y-38687695D01*
X-7037949Y-38574658D01*
X-7127658Y-38484949D01*
X-7240695Y-38427354D01*
X-7240698Y-38427353D01*
X-7365997Y-38407508D01*
X-7366003Y-38407508D01*
X-7491301Y-38427353D01*
X-7491304Y-38427354D01*
X-7604341Y-38484949D01*
X-7604342Y-38484950D01*
X-7694050Y-38574658D01*
X-7751646Y-38687696D01*
X-7771492Y-38813000D01*
X-8992508Y-38813000D01*
X-8992508Y-38812997D01*
X-9012353Y-38687698D01*
X-9012354Y-38687695D01*
X-9069949Y-38574658D01*
X-9159658Y-38484949D01*
X-9272695Y-38427354D01*
X-9272698Y-38427353D01*
X-9397997Y-38407508D01*
X-9398003Y-38407508D01*
X-9523301Y-38427353D01*
X-9523304Y-38427354D01*
X-9636341Y-38484949D01*
X-9636342Y-38484950D01*
X-9726050Y-38574658D01*
X-9783646Y-38687696D01*
X-9803492Y-38813000D01*
X-11024508Y-38813000D01*
X-11024508Y-38812997D01*
X-11044353Y-38687698D01*
X-11044354Y-38687695D01*
X-11101949Y-38574658D01*
X-11191658Y-38484949D01*
X-11304695Y-38427354D01*
X-11304698Y-38427353D01*
X-11429997Y-38407508D01*
X-11430003Y-38407508D01*
X-11555301Y-38427353D01*
X-11555304Y-38427354D01*
X-11668341Y-38484949D01*
X-11668342Y-38484950D01*
X-11758050Y-38574658D01*
X-11815646Y-38687696D01*
X-11835492Y-38813000D01*
X-13056508Y-38813000D01*
X-13056508Y-38812997D01*
X-13076353Y-38687698D01*
X-13076354Y-38687695D01*
X-13133949Y-38574658D01*
X-13223658Y-38484949D01*
X-13336695Y-38427354D01*
X-13336698Y-38427353D01*
X-13461997Y-38407508D01*
X-13462003Y-38407508D01*
X-13587301Y-38427353D01*
X-13587304Y-38427354D01*
X-13700341Y-38484949D01*
X-13700342Y-38484950D01*
X-13790050Y-38574658D01*
X-13847646Y-38687696D01*
X-13867492Y-38813000D01*
X-22859500Y-38813000D01*
X-22859500Y-16812428D01*
X-18769250Y-16812428D01*
X-18730121Y-17097108D01*
X-18652594Y-17373808D01*
X-18538111Y-17637375D01*
X-18388805Y-17882897D01*
X-18207458Y-18105803D01*
X-17997448Y-18301939D01*
X-17762686Y-18467651D01*
X-17507547Y-18599854D01*
X-17236782Y-18696084D01*
X-16955436Y-18754548D01*
X-16955426Y-18754548D01*
X-16955424Y-18754549D01*
X-16758481Y-18768020D01*
X-16740502Y-18769250D01*
X-16740495Y-18769250D01*
X-16597005Y-18769250D01*
X-16596998Y-18769250D01*
X-16596971Y-18769248D01*
X-16596968Y-18769248D01*
X-16382075Y-18754549D01*
X-16382071Y-18754548D01*
X-16382064Y-18754548D01*
X-16100718Y-18696084D01*
X-15829953Y-18599854D01*
X-15574814Y-18467651D01*
X-15340052Y-18301939D01*
X-15130042Y-18105803D01*
X-14948695Y-17882897D01*
X-14799389Y-17637375D01*
X-14799387Y-17637372D01*
X-14799387Y-17637371D01*
X-14684909Y-17373817D01*
X-14607379Y-17097107D01*
X-14568250Y-16812434D01*
X-14568250Y-16525065D01*
X-14607379Y-16240392D01*
X-14684909Y-15963682D01*
X-14799387Y-15700128D01*
X-14799387Y-15700127D01*
X-14948693Y-15454605D01*
X-14948695Y-15454602D01*
X-15130042Y-15231696D01*
X-15340049Y-15035563D01*
X-15574807Y-14869853D01*
X-15574820Y-14869845D01*
X-15829954Y-14737645D01*
X-16076576Y-14649996D01*
X-16100718Y-14641416D01*
X-16100718Y-14641415D01*
X-16100724Y-14641414D01*
X-16382061Y-14582952D01*
X-16382075Y-14582950D01*
X-16596968Y-14568251D01*
X-16596993Y-14568250D01*
X-16596998Y-14568250D01*
X-16740502Y-14568250D01*
X-16740506Y-14568250D01*
X-16740531Y-14568251D01*
X-16955424Y-14582950D01*
X-16955438Y-14582952D01*
X-17236774Y-14641414D01*
X-17236775Y-14641414D01*
X-17236778Y-14641415D01*
X-17236782Y-14641416D01*
X-17406764Y-14701827D01*
X-17507545Y-14737645D01*
X-17762679Y-14869845D01*
X-17762682Y-14869847D01*
X-17762686Y-14869849D01*
X-17997448Y-15035561D01*
X-18207458Y-15231697D01*
X-18388805Y-15454603D01*
X-18538111Y-15700125D01*
X-18652594Y-15963692D01*
X-18730121Y-16240392D01*
X-18769250Y-16525072D01*
X-18769250Y-16812428D01*
X-22859500Y-16812428D01*
X-22859500Y0D01*
X-19532618Y0D01*
X-19512950Y-876328D01*
X-19460864Y-1648863D01*
X-19453984Y-1750903D01*
X-19434924Y-1920064D01*
X-19355843Y-2621927D01*
X-19218721Y-3487684D01*
X-19199832Y-3579935D01*
X-19062537Y-4250483D01*
X-19042894Y-4346416D01*
X-18828718Y-5196396D01*
X-18576624Y-6035911D01*
X-18289198Y-6857326D01*
X-18287117Y-6863272D01*
X-18287110Y-6863291D01*
X-18242007Y-6975731D01*
X-17960785Y-7676808D01*
X-17598281Y-8474885D01*
X-17200336Y-9255896D01*
X-16767752Y-10018266D01*
X-16301401Y-10760460D01*
X-15802220Y-11480985D01*
X-15271216Y-12178388D01*
X-14709457Y-12851266D01*
X-14118076Y-13498263D01*
X-13498263Y-14118076D01*
X-12851266Y-14709457D01*
X-12178388Y-15271216D01*
X-11480985Y-15802220D01*
X-10760460Y-16301401D01*
X-10404500Y-16525065D01*
X-10018289Y-16767738D01*
X-10018266Y-16767752D01*
X-9255896Y-17200336D01*
X-8474885Y-17598281D01*
X-7676808Y-17960785D01*
X-7194872Y-18154102D01*
X-6863291Y-18287110D01*
X-6863278Y-18287114D01*
X-6863270Y-18287118D01*
X-6035911Y-18576624D01*
X-5196396Y-18828718D01*
X-4346416Y-19042894D01*
X-4346408Y-19042896D01*
X-3886894Y-19136981D01*
X-3487684Y-19218721D01*
X-2621927Y-19355843D01*
X-2093090Y-19415428D01*
X-1750903Y-19453984D01*
X-1750892Y-19453984D01*
X-1750890Y-19453985D01*
X-876328Y-19512950D01*
X0Y-19532618D01*
X876328Y-19512950D01*
X1750890Y-19453985D01*
X1750892Y-19453984D01*
X1750903Y-19453984D01*
X2093090Y-19415428D01*
X2621927Y-19355843D01*
X3487684Y-19218721D01*
X3886894Y-19136981D01*
X4346408Y-19042896D01*
X4346416Y-19042894D01*
X5196396Y-18828718D01*
X6035911Y-18576624D01*
X6863270Y-18287118D01*
X6863278Y-18287114D01*
X6863291Y-18287110D01*
X7194872Y-18154102D01*
X7676808Y-17960785D01*
X8474885Y-17598281D01*
X9255896Y-17200336D01*
X9939520Y-16812434D01*
X14568250Y-16812434D01*
X14607379Y-17097107D01*
X14684909Y-17373817D01*
X14799387Y-17637371D01*
X14799387Y-17637372D01*
X14799389Y-17637375D01*
X14948695Y-17882897D01*
X15130042Y-18105803D01*
X15340052Y-18301939D01*
X15574814Y-18467651D01*
X15829953Y-18599854D01*
X16100718Y-18696084D01*
X16382064Y-18754548D01*
X16382071Y-18754548D01*
X16382075Y-18754549D01*
X16596968Y-18769248D01*
X16596971Y-18769248D01*
X16596998Y-18769250D01*
X16597005Y-18769250D01*
X16740495Y-18769250D01*
X16740502Y-18769250D01*
X16758481Y-18768020D01*
X16955424Y-18754549D01*
X16955426Y-18754548D01*
X16955436Y-18754548D01*
X17236782Y-18696084D01*
X17507547Y-18599854D01*
X17762686Y-18467651D01*
X17997448Y-18301939D01*
X18207458Y-18105803D01*
X18388805Y-17882897D01*
X18538111Y-17637375D01*
X18652594Y-17373808D01*
X18730121Y-17097108D01*
X18769250Y-16812428D01*
X18769250Y-16525072D01*
X18730121Y-16240392D01*
X18652594Y-15963692D01*
X18538111Y-15700125D01*
X18388805Y-15454603D01*
X18207458Y-15231697D01*
X17997448Y-15035561D01*
X17762686Y-14869849D01*
X17762682Y-14869847D01*
X17762679Y-14869845D01*
X17507545Y-14737645D01*
X17406764Y-14701827D01*
X17236782Y-14641416D01*
X17236778Y-14641415D01*
X17236775Y-14641414D01*
X16955438Y-14582952D01*
X16955424Y-14582950D01*
X16740531Y-14568251D01*
X16740506Y-14568250D01*
X16740502Y-14568250D01*
X16596998Y-14568250D01*
X16596993Y-14568250D01*
X16596968Y-14568251D01*
X16382075Y-14582950D01*
X16382061Y-14582952D01*
X16100725Y-14641414D01*
X16100724Y-14641414D01*
X16100718Y-14641415D01*
X16100718Y-14641416D01*
X16076576Y-14649996D01*
X15829954Y-14737645D01*
X15574820Y-14869845D01*
X15574807Y-14869853D01*
X15340049Y-15035563D01*
X15130042Y-15231696D01*
X14948695Y-15454602D01*
X14948693Y-15454605D01*
X14799387Y-15700127D01*
X14799387Y-15700128D01*
X14684909Y-15963682D01*
X14607379Y-16240392D01*
X14568250Y-16525065D01*
X14568250Y-16812434D01*
X9939520Y-16812434D01*
X10018266Y-16767752D01*
X10018289Y-16767738D01*
X10404500Y-16525065D01*
X10760460Y-16301401D01*
X11480985Y-15802220D01*
X12178388Y-15271216D01*
X12851266Y-14709457D01*
X13498263Y-14118076D01*
X14118076Y-13498263D01*
X14709457Y-12851266D01*
X15271216Y-12178388D01*
X15802220Y-11480985D01*
X16301401Y-10760460D01*
X16767752Y-10018266D01*
X17200336Y-9255896D01*
X17598281Y-8474885D01*
X17960785Y-7676808D01*
X18242007Y-6975731D01*
X18287110Y-6863291D01*
X18287117Y-6863272D01*
X18289198Y-6857326D01*
X18576624Y-6035911D01*
X18828718Y-5196396D01*
X19042894Y-4346416D01*
X19062537Y-4250483D01*
X19199832Y-3579935D01*
X19218721Y-3487684D01*
X19355843Y-2621927D01*
X19434924Y-1920064D01*
X19453984Y-1750903D01*
X19460864Y-1648863D01*
X19512950Y-876328D01*
X19532618Y0D01*
X19512950Y876328D01*
X19453985Y1750890D01*
X19449216Y1793213D01*
X19408243Y2156864D01*
X19355843Y2621927D01*
X19218721Y3487684D01*
X19126700Y3937113D01*
X19042896Y4346408D01*
X19009139Y4480375D01*
X18828718Y5196396D01*
X18576624Y6035911D01*
X18287118Y6863270D01*
X18265649Y6916791D01*
X18085459Y7366000D01*
X17960785Y7676808D01*
X17598281Y8474885D01*
X17200336Y9255896D01*
X16767752Y10018266D01*
X16758062Y10033687D01*
X16552855Y10360273D01*
X16301401Y10760460D01*
X15802220Y11480985D01*
X15271216Y12178388D01*
X14709457Y12851266D01*
X14118076Y13498263D01*
X13498263Y14118076D01*
X12851266Y14709457D01*
X12178388Y15271216D01*
X11480985Y15802220D01*
X10760460Y16301401D01*
X10404500Y16525065D01*
X14568250Y16525065D01*
X14607379Y16240392D01*
X14684909Y15963682D01*
X14799387Y15700128D01*
X14799387Y15700127D01*
X14948693Y15454605D01*
X14948695Y15454602D01*
X15130042Y15231696D01*
X15340049Y15035563D01*
X15574807Y14869853D01*
X15574820Y14869845D01*
X15829954Y14737645D01*
X16054584Y14657811D01*
X16079654Y14648902D01*
X16100724Y14641414D01*
X16382061Y14582952D01*
X16382075Y14582950D01*
X16596968Y14568251D01*
X16596993Y14568250D01*
X16596998Y14568250D01*
X16597005Y14568250D01*
X16740495Y14568250D01*
X16740502Y14568250D01*
X16740506Y14568250D01*
X16740531Y14568251D01*
X16955424Y14582950D01*
X16955438Y14582952D01*
X17236774Y14641414D01*
X17236775Y14641414D01*
X17236778Y14641415D01*
X17236782Y14641416D01*
X17428231Y14709457D01*
X17507545Y14737645D01*
X17762679Y14869845D01*
X17762682Y14869847D01*
X17762686Y14869849D01*
X17997448Y15035561D01*
X18207458Y15231697D01*
X18388805Y15454603D01*
X18538111Y15700125D01*
X18652594Y15963692D01*
X18730121Y16240392D01*
X18769250Y16525072D01*
X18769250Y16812428D01*
X18730121Y17097108D01*
X18652594Y17373808D01*
X18538111Y17637375D01*
X18388805Y17882897D01*
X18207458Y18105803D01*
X17997448Y18301939D01*
X17762686Y18467651D01*
X17507547Y18599854D01*
X17236782Y18696084D01*
X16955436Y18754548D01*
X16955426Y18754548D01*
X16955424Y18754549D01*
X16740531Y18769248D01*
X16740502Y18769250D01*
X16596998Y18769250D01*
X16596971Y18769248D01*
X16596968Y18769248D01*
X16382075Y18754549D01*
X16382071Y18754548D01*
X16382064Y18754548D01*
X16100718Y18696084D01*
X15829953Y18599854D01*
X15574814Y18467651D01*
X15340052Y18301939D01*
X15340049Y18301936D01*
X15130042Y18105803D01*
X14948695Y17882897D01*
X14948693Y17882894D01*
X14799387Y17637372D01*
X14799387Y17637371D01*
X14684909Y17373817D01*
X14607379Y17097107D01*
X14568250Y16812434D01*
X14568250Y16525065D01*
X10404500Y16525065D01*
X10347481Y16560892D01*
X10018289Y16767738D01*
X10018266Y16767752D01*
X9939520Y16812434D01*
X9255896Y17200336D01*
X8474885Y17598281D01*
X7676808Y17960785D01*
X7194872Y18154102D01*
X6863291Y18287110D01*
X6863272Y18287117D01*
X6863270Y18287118D01*
X6035911Y18576624D01*
X5196396Y18828718D01*
X4346416Y19042894D01*
X4346415Y19042894D01*
X4346408Y19042896D01*
X3886894Y19136981D01*
X3487684Y19218721D01*
X2621927Y19355843D01*
X2093090Y19415428D01*
X1750903Y19453984D01*
X1750892Y19453984D01*
X1750890Y19453985D01*
X876328Y19512950D01*
X0Y19532618D01*
X-876328Y19512950D01*
X-1750890Y19453985D01*
X-1750892Y19453984D01*
X-1750903Y19453984D01*
X-2093090Y19415428D01*
X-2621927Y19355843D01*
X-3487684Y19218721D01*
X-3886894Y19136981D01*
X-4346408Y19042896D01*
X-4346415Y19042894D01*
X-4346416Y19042894D01*
X-5196396Y18828718D01*
X-6035911Y18576624D01*
X-6863270Y18287118D01*
X-6863272Y18287117D01*
X-6863291Y18287110D01*
X-7194872Y18154102D01*
X-7676808Y17960785D01*
X-8474885Y17598281D01*
X-9255896Y17200336D01*
X-9939520Y16812434D01*
X-10018266Y16767752D01*
X-10018289Y16767738D01*
X-10347481Y16560892D01*
X-10760460Y16301401D01*
X-11480985Y15802220D01*
X-12178388Y15271216D01*
X-12851266Y14709457D01*
X-13498263Y14118076D01*
X-14118076Y13498263D01*
X-14709457Y12851266D01*
X-15271216Y12178388D01*
X-15802220Y11480985D01*
X-16301401Y10760460D01*
X-16552855Y10360273D01*
X-16758062Y10033687D01*
X-16767752Y10018266D01*
X-17200336Y9255896D01*
X-17598281Y8474885D01*
X-17960785Y7676808D01*
X-18085459Y7366000D01*
X-18265649Y6916791D01*
X-18287118Y6863270D01*
X-18576624Y6035911D01*
X-18828718Y5196396D01*
X-19009139Y4480375D01*
X-19042896Y4346408D01*
X-19126700Y3937113D01*
X-19218721Y3487684D01*
X-19355843Y2621927D01*
X-19408243Y2156864D01*
X-19449216Y1793213D01*
X-19453985Y1750890D01*
X-19512950Y876328D01*
X-19532618Y0D01*
X-22859500Y0D01*
X-22859500Y16525072D01*
X-18769250Y16525072D01*
X-18730121Y16240392D01*
X-18652594Y15963692D01*
X-18538111Y15700125D01*
X-18388805Y15454603D01*
X-18207458Y15231697D01*
X-17997448Y15035561D01*
X-17762686Y14869849D01*
X-17762682Y14869847D01*
X-17762679Y14869845D01*
X-17507545Y14737645D01*
X-17428231Y14709457D01*
X-17236782Y14641416D01*
X-17236778Y14641415D01*
X-17236775Y14641414D01*
X-16955438Y14582952D01*
X-16955424Y14582950D01*
X-16740531Y14568251D01*
X-16740506Y14568250D01*
X-16740502Y14568250D01*
X-16740495Y14568250D01*
X-16597005Y14568250D01*
X-16596998Y14568250D01*
X-16596993Y14568250D01*
X-16596968Y14568251D01*
X-16382075Y14582950D01*
X-16382061Y14582952D01*
X-16100725Y14641414D01*
X-16100724Y14641414D01*
X-16079654Y14648902D01*
X-16054584Y14657811D01*
X-15829954Y14737645D01*
X-15574820Y14869845D01*
X-15574807Y14869853D01*
X-15340049Y15035563D01*
X-15130042Y15231696D01*
X-14948695Y15454602D01*
X-14948693Y15454605D01*
X-14799387Y15700127D01*
X-14799387Y15700128D01*
X-14684909Y15963682D01*
X-14607379Y16240392D01*
X-14568250Y16525065D01*
X-14568250Y16812434D01*
X-14607379Y17097107D01*
X-14684909Y17373817D01*
X-14799387Y17637371D01*
X-14799387Y17637372D01*
X-14948693Y17882894D01*
X-14948695Y17882897D01*
X-15130042Y18105803D01*
X-15340049Y18301936D01*
X-15340052Y18301939D01*
X-15574814Y18467651D01*
X-15829953Y18599854D01*
X-16100718Y18696084D01*
X-16382064Y18754548D01*
X-16382071Y18754548D01*
X-16382075Y18754549D01*
X-16596968Y18769248D01*
X-16596971Y18769248D01*
X-16596998Y18769250D01*
X-16740502Y18769250D01*
X-16740531Y18769248D01*
X-16955424Y18754549D01*
X-16955426Y18754548D01*
X-16955436Y18754548D01*
X-17236782Y18696084D01*
X-17507547Y18599854D01*
X-17762686Y18467651D01*
X-17997448Y18301939D01*
X-18207458Y18105803D01*
X-18388805Y17882897D01*
X-18538111Y17637375D01*
X-18652594Y17373808D01*
X-18730121Y17097108D01*
X-18769250Y16812428D01*
X-18769250Y16525072D01*
X-22859500Y16525072D01*
X-22859500Y20856700D01*
X-22859285Y20863281D01*
X-22854035Y20943364D01*
X-22853994Y20943960D01*
X-22841186Y21123034D01*
X-22839509Y21135482D01*
X-22817022Y21248536D01*
X-22816656Y21250295D01*
X-22785935Y21391516D01*
X-22782895Y21402468D01*
X-22743675Y21518008D01*
X-22742671Y21520829D01*
X-22694525Y21649911D01*
X-22690493Y21659248D01*
X-22635355Y21771057D01*
X-22633424Y21774776D01*
X-22568650Y21893400D01*
X-22564002Y21901077D01*
X-22494035Y22005791D01*
X-22490923Y22010188D01*
X-22410638Y22117436D01*
X-22405739Y22123479D01*
X-22322363Y22218551D01*
X-22317863Y22223356D01*
X-22223356Y22317863D01*
X-22218551Y22322363D01*
X-22123479Y22405739D01*
X-22117436Y22410638D01*
X-22010188Y22490923D01*
X-22005791Y22494035D01*
X-21901077Y22564002D01*
X-21893400Y22568650D01*
X-21774776Y22633424D01*
X-21771057Y22635355D01*
X-21659248Y22690493D01*
X-21649911Y22694525D01*
X-21520829Y22742671D01*
X-21518008Y22743675D01*
X-21402468Y22782895D01*
X-21391516Y22785935D01*
X-21250295Y22816656D01*
X-21248536Y22817022D01*
X-21135482Y22839509D01*
X-21123034Y22841186D01*
X-20943960Y22853994D01*
X-20943364Y22854035D01*
X-20866854Y22859050D01*
X-20863279Y22859285D01*
X-20856700Y22859500D01*
X20856700Y22859500D01*
X20863279Y22859285D01*
G37*
G04 #@! TD.AperFunction*
M02*
