G04 #@! TF.GenerationSoftware,KiCad,Pcbnew,7.0.10*
G04 #@! TF.CreationDate,2024-07-19T13:30:29-04:00*
G04 #@! TF.ProjectId,CanDoIt-v1,43616e44-6f49-4742-9d76-312e6b696361,rev?*
G04 #@! TF.SameCoordinates,Original*
G04 #@! TF.FileFunction,Soldermask,Bot*
G04 #@! TF.FilePolarity,Negative*
%FSLAX46Y46*%
G04 Gerber Fmt 4.6, Leading zero omitted, Abs format (unit mm)*
G04 Created by KiCad (PCBNEW 7.0.10) date 2024-07-19 13:30:29*
%MOMM*%
%LPD*%
G01*
G04 APERTURE LIST*
G04 Aperture macros list*
%AMRoundRect*
0 Rectangle with rounded corners*
0 $1 Rounding radius*
0 $2 $3 $4 $5 $6 $7 $8 $9 X,Y pos of 4 corners*
0 Add a 4 corners polygon primitive as box body*
4,1,4,$2,$3,$4,$5,$6,$7,$8,$9,$2,$3,0*
0 Add four circle primitives for the rounded corners*
1,1,$1+$1,$2,$3*
1,1,$1+$1,$4,$5*
1,1,$1+$1,$6,$7*
1,1,$1+$1,$8,$9*
0 Add four rect primitives between the rounded corners*
20,1,$1+$1,$2,$3,$4,$5,0*
20,1,$1+$1,$4,$5,$6,$7,0*
20,1,$1+$1,$6,$7,$8,$9,0*
20,1,$1+$1,$8,$9,$2,$3,0*%
G04 Aperture macros list end*
%ADD10C,0.200000*%
%ADD11C,3.700000*%
%ADD12C,1.550000*%
%ADD13C,1.600000*%
%ADD14RoundRect,0.050000X0.150000X0.900000X-0.150000X0.900000X-0.150000X-0.900000X0.150000X-0.900000X0*%
%ADD15RoundRect,0.050000X0.150000X0.815000X-0.150000X0.815000X-0.150000X-0.815000X0.150000X-0.815000X0*%
%ADD16C,1.308000*%
G04 APERTURE END LIST*
D10*
X4142857Y-26224361D02*
X4238095Y-26319600D01*
X4238095Y-26319600D02*
X4523809Y-26414838D01*
X4523809Y-26414838D02*
X4714285Y-26414838D01*
X4714285Y-26414838D02*
X5000000Y-26319600D01*
X5000000Y-26319600D02*
X5190476Y-26129123D01*
X5190476Y-26129123D02*
X5285714Y-25938647D01*
X5285714Y-25938647D02*
X5380952Y-25557695D01*
X5380952Y-25557695D02*
X5380952Y-25271980D01*
X5380952Y-25271980D02*
X5285714Y-24891028D01*
X5285714Y-24891028D02*
X5190476Y-24700552D01*
X5190476Y-24700552D02*
X5000000Y-24510076D01*
X5000000Y-24510076D02*
X4714285Y-24414838D01*
X4714285Y-24414838D02*
X4523809Y-24414838D01*
X4523809Y-24414838D02*
X4238095Y-24510076D01*
X4238095Y-24510076D02*
X4142857Y-24605314D01*
X2428571Y-26414838D02*
X2428571Y-25367219D01*
X2428571Y-25367219D02*
X2523809Y-25176742D01*
X2523809Y-25176742D02*
X2714285Y-25081504D01*
X2714285Y-25081504D02*
X3095238Y-25081504D01*
X3095238Y-25081504D02*
X3285714Y-25176742D01*
X2428571Y-26319600D02*
X2619047Y-26414838D01*
X2619047Y-26414838D02*
X3095238Y-26414838D01*
X3095238Y-26414838D02*
X3285714Y-26319600D01*
X3285714Y-26319600D02*
X3380952Y-26129123D01*
X3380952Y-26129123D02*
X3380952Y-25938647D01*
X3380952Y-25938647D02*
X3285714Y-25748171D01*
X3285714Y-25748171D02*
X3095238Y-25652933D01*
X3095238Y-25652933D02*
X2619047Y-25652933D01*
X2619047Y-25652933D02*
X2428571Y-25557695D01*
X1476190Y-25081504D02*
X1476190Y-26414838D01*
X1476190Y-25271980D02*
X1380952Y-25176742D01*
X1380952Y-25176742D02*
X1190476Y-25081504D01*
X1190476Y-25081504D02*
X904761Y-25081504D01*
X904761Y-25081504D02*
X714285Y-25176742D01*
X714285Y-25176742D02*
X619047Y-25367219D01*
X619047Y-25367219D02*
X619047Y-26414838D01*
X-333333Y-26414838D02*
X-333333Y-24414838D01*
X-333333Y-24414838D02*
X-809523Y-24414838D01*
X-809523Y-24414838D02*
X-1095238Y-24510076D01*
X-1095238Y-24510076D02*
X-1285714Y-24700552D01*
X-1285714Y-24700552D02*
X-1380952Y-24891028D01*
X-1380952Y-24891028D02*
X-1476190Y-25271980D01*
X-1476190Y-25271980D02*
X-1476190Y-25557695D01*
X-1476190Y-25557695D02*
X-1380952Y-25938647D01*
X-1380952Y-25938647D02*
X-1285714Y-26129123D01*
X-1285714Y-26129123D02*
X-1095238Y-26319600D01*
X-1095238Y-26319600D02*
X-809523Y-26414838D01*
X-809523Y-26414838D02*
X-333333Y-26414838D01*
X-2619047Y-26414838D02*
X-2428571Y-26319600D01*
X-2428571Y-26319600D02*
X-2333333Y-26224361D01*
X-2333333Y-26224361D02*
X-2238095Y-26033885D01*
X-2238095Y-26033885D02*
X-2238095Y-25462457D01*
X-2238095Y-25462457D02*
X-2333333Y-25271980D01*
X-2333333Y-25271980D02*
X-2428571Y-25176742D01*
X-2428571Y-25176742D02*
X-2619047Y-25081504D01*
X-2619047Y-25081504D02*
X-2904762Y-25081504D01*
X-2904762Y-25081504D02*
X-3095238Y-25176742D01*
X-3095238Y-25176742D02*
X-3190476Y-25271980D01*
X-3190476Y-25271980D02*
X-3285714Y-25462457D01*
X-3285714Y-25462457D02*
X-3285714Y-26033885D01*
X-3285714Y-26033885D02*
X-3190476Y-26224361D01*
X-3190476Y-26224361D02*
X-3095238Y-26319600D01*
X-3095238Y-26319600D02*
X-2904762Y-26414838D01*
X-2904762Y-26414838D02*
X-2619047Y-26414838D01*
X-4142857Y-26414838D02*
X-4142857Y-24414838D01*
X-4809524Y-25081504D02*
X-5571428Y-25081504D01*
X-5095238Y-24414838D02*
X-5095238Y-26129123D01*
X-5095238Y-26129123D02*
X-5190476Y-26319600D01*
X-5190476Y-26319600D02*
X-5380952Y-26414838D01*
X-5380952Y-26414838D02*
X-5571428Y-26414838D01*
D11*
X16668750Y16668750D03*
D12*
X3750000Y6000000D03*
X3750000Y-6000000D03*
D13*
X5750000Y7475000D03*
X5750000Y-7475000D03*
D11*
X16668750Y-16668750D03*
D12*
X-3750000Y-6000000D03*
X-3750000Y6000000D03*
D13*
X-5750000Y-7475000D03*
X-5750000Y7475000D03*
D11*
X-16668750Y-16668750D03*
X-16668750Y16668750D03*
D12*
X16910000Y-41320000D03*
X3410000Y-41320000D03*
D14*
X14910000Y-40720000D03*
D15*
X14910000Y-43385000D03*
D14*
X14410000Y-40720000D03*
D15*
X14410000Y-43385000D03*
D14*
X13910000Y-40720000D03*
D15*
X13910000Y-43385000D03*
D14*
X13410000Y-40720000D03*
D15*
X13410000Y-43385000D03*
D14*
X12910000Y-40720000D03*
D15*
X12910000Y-43385000D03*
D14*
X12410000Y-40720000D03*
D15*
X12410000Y-43385000D03*
D14*
X11910000Y-40720000D03*
D15*
X11910000Y-43385000D03*
D14*
X11410000Y-40720000D03*
D15*
X11410000Y-43385000D03*
D14*
X10910000Y-40720000D03*
D15*
X10910000Y-43385000D03*
D14*
X10410000Y-40720000D03*
D15*
X10410000Y-43385000D03*
D14*
X9910000Y-40720000D03*
D15*
X9910000Y-43385000D03*
D14*
X9410000Y-40720000D03*
D15*
X9410000Y-43385000D03*
D14*
X8910000Y-40720000D03*
D15*
X8910000Y-43385000D03*
D14*
X8410000Y-40720000D03*
D15*
X8410000Y-43385000D03*
D14*
X7910000Y-40720000D03*
D15*
X7910000Y-43385000D03*
D14*
X7410000Y-40720000D03*
D15*
X7410000Y-43385000D03*
D14*
X6910000Y-40720000D03*
D15*
X6910000Y-43385000D03*
D14*
X6410000Y-40720000D03*
D15*
X6410000Y-43385000D03*
D14*
X5910000Y-40720000D03*
D15*
X5910000Y-43385000D03*
D14*
X5410000Y-40720000D03*
D15*
X5410000Y-43385000D03*
D16*
X18460000Y-44120000D03*
X18460000Y-41870000D03*
X16485000Y-43000000D03*
X3835000Y-43000000D03*
X1860000Y-44120000D03*
X1860000Y-41870000D03*
D12*
X-3410000Y-41320000D03*
X-16910000Y-41320000D03*
D14*
X-5410000Y-40720000D03*
D15*
X-5410000Y-43385000D03*
D14*
X-5910000Y-40720000D03*
D15*
X-5910000Y-43385000D03*
D14*
X-6410000Y-40720000D03*
D15*
X-6410000Y-43385000D03*
D14*
X-6910000Y-40720000D03*
D15*
X-6910000Y-43385000D03*
D14*
X-7410000Y-40720000D03*
D15*
X-7410000Y-43385000D03*
D14*
X-7910000Y-40720000D03*
D15*
X-7910000Y-43385000D03*
D14*
X-8410000Y-40720000D03*
D15*
X-8410000Y-43385000D03*
D14*
X-8910000Y-40720000D03*
D15*
X-8910000Y-43385000D03*
D14*
X-9410000Y-40720000D03*
D15*
X-9410000Y-43385000D03*
D14*
X-9910000Y-40720000D03*
D15*
X-9910000Y-43385000D03*
D14*
X-10410000Y-40720000D03*
D15*
X-10410000Y-43385000D03*
D14*
X-10910000Y-40720000D03*
D15*
X-10910000Y-43385000D03*
D14*
X-11410000Y-40720000D03*
D15*
X-11410000Y-43385000D03*
D14*
X-11910000Y-40720000D03*
D15*
X-11910000Y-43385000D03*
D14*
X-12410000Y-40720000D03*
D15*
X-12410000Y-43385000D03*
D14*
X-12910000Y-40720000D03*
D15*
X-12910000Y-43385000D03*
D14*
X-13410000Y-40720000D03*
D15*
X-13410000Y-43385000D03*
D14*
X-13910000Y-40720000D03*
D15*
X-13910000Y-43385000D03*
D14*
X-14410000Y-40720000D03*
D15*
X-14410000Y-43385000D03*
D14*
X-14910000Y-40720000D03*
D15*
X-14910000Y-43385000D03*
D16*
X-1860000Y-44120000D03*
X-1860000Y-41870000D03*
X-3835000Y-43000000D03*
X-16485000Y-43000000D03*
X-18460000Y-44120000D03*
X-18460000Y-41870000D03*
M02*
