G04 #@! TF.GenerationSoftware,KiCad,Pcbnew,7.0.10*
G04 #@! TF.CreationDate,2024-07-19T13:30:28-04:00*
G04 #@! TF.ProjectId,CanDoIt-v1,43616e44-6f49-4742-9d76-312e6b696361,rev?*
G04 #@! TF.SameCoordinates,Original*
G04 #@! TF.FileFunction,Copper,L2,Inr*
G04 #@! TF.FilePolarity,Positive*
%FSLAX46Y46*%
G04 Gerber Fmt 4.6, Leading zero omitted, Abs format (unit mm)*
G04 Created by KiCad (PCBNEW 7.0.10) date 2024-07-19 13:30:28*
%MOMM*%
%LPD*%
G01*
G04 APERTURE LIST*
G04 #@! TA.AperFunction,ComponentPad*
%ADD10C,1.500000*%
G04 #@! TD*
G04 #@! TA.AperFunction,ComponentPad*
%ADD11C,1.208000*%
G04 #@! TD*
G04 #@! TA.AperFunction,ViaPad*
%ADD12C,0.500000*%
G04 #@! TD*
G04 #@! TA.AperFunction,Conductor*
%ADD13C,0.203200*%
G04 #@! TD*
G04 APERTURE END LIST*
D10*
X5750000Y7475000D03*
X5750000Y-7475000D03*
X-5750000Y-7475000D03*
X-5750000Y7475000D03*
D11*
X18460000Y-44120000D03*
X18460000Y-41870000D03*
X16485000Y-43000000D03*
X3835000Y-43000000D03*
X1860000Y-44120000D03*
X1860000Y-41870000D03*
X-1860000Y-44120000D03*
X-1860000Y-41870000D03*
X-3835000Y-43000000D03*
X-16485000Y-43000000D03*
X-18460000Y-44120000D03*
X-18460000Y-41870000D03*
D12*
X-9652000Y4318000D03*
X-8382000Y-39321000D03*
X-10160000Y2286000D03*
X-9398000Y-38813000D03*
X-10668000Y254000D03*
X-10414000Y-39321000D03*
X-11176000Y-1778000D03*
X-11430000Y-38813000D03*
X-11684000Y-3810000D03*
X-12446000Y-39321000D03*
X-12192000Y-5842000D03*
X-13462000Y-38813000D03*
X-12700000Y-7874000D03*
X-14478000Y-39321000D03*
X8128000Y10414000D03*
X5410000Y-38813000D03*
X8636000Y8382000D03*
X6426000Y-39321000D03*
X9144000Y6350000D03*
X7442000Y-38813000D03*
X9652000Y4318000D03*
X8458000Y-39321000D03*
X10160000Y2286000D03*
X9474000Y-38813000D03*
X10668000Y254000D03*
X10490000Y-39321000D03*
X11176000Y-1778000D03*
X11506000Y-38813000D03*
X11684000Y-3810000D03*
X12522000Y-39321000D03*
X-8128000Y10414000D03*
X-5334000Y-38813000D03*
X-8636000Y8382000D03*
X-6350000Y-39321000D03*
X-9144000Y6350000D03*
X-7366000Y-38813000D03*
X12700000Y-7874000D03*
X14554000Y-39321000D03*
X12192000Y-5842000D03*
X13538000Y-38813000D03*
D13*
X-9398000Y-36854500D02*
X-9398000Y-19806894D01*
X-8382000Y-39321000D02*
X-8382000Y-37870500D01*
X-9398000Y-19806894D02*
X-2032000Y-12440894D01*
X-8382000Y-37870500D02*
X-9398000Y-36854500D01*
X-2032000Y-2524682D02*
X-8874682Y4318000D01*
X-8874682Y4318000D02*
X-9652000Y4318000D01*
X-2032000Y-12440894D02*
X-2032000Y-2524682D01*
X-2540000Y-2519576D02*
X-2540000Y-12446000D01*
X-9144000Y3302000D02*
X-8361576Y3302000D01*
X-9398000Y-37846000D02*
X-9398000Y-38813000D01*
X-8361576Y3302000D02*
X-2540000Y-2519576D01*
X-2540000Y-12446000D02*
X-9906000Y-19812000D01*
X-9906000Y-37338000D02*
X-9398000Y-37846000D01*
X-10160000Y2286000D02*
X-9144000Y3302000D01*
X-9906000Y-19812000D02*
X-9906000Y-37338000D01*
X-10414000Y0D02*
X-10668000Y254000D01*
X-10414000Y-39321000D02*
X-10414000Y0D01*
X-10922000Y-2032000D02*
X-10922000Y-37289000D01*
X-11176000Y-1778000D02*
X-10922000Y-2032000D01*
X-10922000Y-37289000D02*
X-11430000Y-37797000D01*
X-11430000Y-37797000D02*
X-11430000Y-38813000D01*
X-12446000Y-39321000D02*
X-12446000Y-37821500D01*
X-11430000Y-4064000D02*
X-11684000Y-3810000D01*
X-12446000Y-37821500D02*
X-11430000Y-36805500D01*
X-11430000Y-36805500D02*
X-11430000Y-4064000D01*
X-11938000Y-6096000D02*
X-12192000Y-5842000D01*
X-13462000Y-38813000D02*
X-13462000Y-37870500D01*
X-13462000Y-37870500D02*
X-11938000Y-36346500D01*
X-11938000Y-36346500D02*
X-11938000Y-6096000D01*
X-14478000Y-37860250D02*
X-14478000Y-39321000D01*
X-12446000Y-8128000D02*
X-12446000Y-35828250D01*
X-12700000Y-7874000D02*
X-12446000Y-8128000D01*
X-12446000Y-35828250D02*
X-14478000Y-37860250D01*
X508000Y-2550212D02*
X508000Y-12425576D01*
X5410000Y-37810553D02*
X5410000Y-38813000D01*
X8128000Y10414000D02*
X7874000Y10160000D01*
X508000Y-12425576D02*
X7874000Y-19791576D01*
X7874000Y10160000D02*
X7874000Y4815788D01*
X7874000Y-19791576D02*
X7874000Y-35346553D01*
X7874000Y-35346553D02*
X5410000Y-37810553D01*
X7874000Y4815788D02*
X508000Y-2550212D01*
X1016000Y-12430682D02*
X8382000Y-19796682D01*
X8382000Y8128000D02*
X8382000Y4820894D01*
X1016000Y-2545106D02*
X1016000Y-12430682D01*
X8382000Y-35890000D02*
X6426000Y-37846000D01*
X6426000Y-37846000D02*
X6426000Y-39321000D01*
X8382000Y-19796682D02*
X8382000Y-35890000D01*
X8636000Y8382000D02*
X8382000Y8128000D01*
X8382000Y4820894D02*
X1016000Y-2545106D01*
X9144000Y6350000D02*
X8890000Y6096000D01*
X1524000Y-12435788D02*
X8890000Y-19801788D01*
X8890000Y6096000D02*
X8890000Y4826000D01*
X1524000Y-2540000D02*
X1524000Y-12435788D01*
X8890000Y4826000D02*
X1524000Y-2540000D01*
X7442000Y-37846000D02*
X7442000Y-38813000D01*
X8890000Y-36398000D02*
X7442000Y-37846000D01*
X8890000Y-19801788D02*
X8890000Y-36398000D01*
X9398000Y-19806894D02*
X9398000Y-36906000D01*
X9652000Y4318000D02*
X8884894Y4318000D01*
X2032000Y-12440894D02*
X9398000Y-19806894D01*
X9398000Y-36906000D02*
X8458000Y-37846000D01*
X8458000Y-37846000D02*
X8458000Y-39321000D01*
X2032000Y-2534894D02*
X2032000Y-12440894D01*
X8884894Y4318000D02*
X2032000Y-2534894D01*
X8117788Y3048000D02*
X2540000Y-2529788D01*
X9398000Y3048000D02*
X8117788Y3048000D01*
X9474000Y-37770000D02*
X9474000Y-38813000D01*
X2540000Y-2529788D02*
X2540000Y-12446000D01*
X10160000Y2286000D02*
X9398000Y3048000D01*
X2540000Y-12446000D02*
X9906000Y-19812000D01*
X9906000Y-37338000D02*
X9474000Y-37770000D01*
X9906000Y-19812000D02*
X9906000Y-37338000D01*
X10668000Y254000D02*
X10414000Y0D01*
X10414000Y0D02*
X10414000Y-37721000D01*
X10490000Y-37797000D02*
X10490000Y-39321000D01*
X10414000Y-37721000D02*
X10490000Y-37797000D01*
X10922000Y-2032000D02*
X10922000Y-37213000D01*
X11176000Y-1778000D02*
X10922000Y-2032000D01*
X10922000Y-37213000D02*
X11506000Y-37797000D01*
X11506000Y-37797000D02*
X11506000Y-38813000D01*
X11430000Y-36705000D02*
X12522000Y-37797000D01*
X11684000Y-3810000D02*
X11430000Y-4064000D01*
X11430000Y-4064000D02*
X11430000Y-36705000D01*
X12522000Y-37797000D02*
X12522000Y-39321000D01*
X-508000Y-2540000D02*
X-508000Y-12425576D01*
X-508000Y-12425576D02*
X-7874000Y-19791576D01*
X-7874000Y4826000D02*
X-508000Y-2540000D01*
X-8128000Y10414000D02*
X-7874000Y10160000D01*
X-7874000Y10160000D02*
X-7874000Y4826000D01*
X-7874000Y-35306000D02*
X-5334000Y-37846000D01*
X-7874000Y-19791576D02*
X-7874000Y-35306000D01*
X-5334000Y-37846000D02*
X-5334000Y-38813000D01*
X-8382000Y8128000D02*
X-8636000Y8382000D01*
X-8382000Y-19796682D02*
X-1016000Y-12430682D01*
X-8382000Y4831106D02*
X-8382000Y8128000D01*
X-6350000Y-37870500D02*
X-8382000Y-35838500D01*
X-1016000Y-2534894D02*
X-8382000Y4831106D01*
X-8382000Y-35838500D02*
X-8382000Y-19796682D01*
X-1016000Y-12430682D02*
X-1016000Y-2534894D01*
X-6350000Y-39321000D02*
X-6350000Y-37870500D01*
X-8890000Y6096000D02*
X-8890000Y4836212D01*
X-7366000Y-37868065D02*
X-7366000Y-38813000D01*
X-1524000Y-12435788D02*
X-8890000Y-19801788D01*
X-9144000Y6350000D02*
X-8890000Y6096000D01*
X-8890000Y-36344065D02*
X-7366000Y-37868065D01*
X-8890000Y-19801788D02*
X-8890000Y-36344065D01*
X-8890000Y4836212D02*
X-1524000Y-2529788D01*
X-1524000Y-2529788D02*
X-1524000Y-12435788D01*
X12446000Y-8128000D02*
X12446000Y-35814000D01*
X12446000Y-35814000D02*
X14554000Y-37922000D01*
X14554000Y-37922000D02*
X14554000Y-39321000D01*
X12700000Y-7874000D02*
X12446000Y-8128000D01*
X12192000Y-5842000D02*
X11938000Y-6096000D01*
X13538000Y-37797000D02*
X13538000Y-38813000D01*
X11938000Y-6096000D02*
X11938000Y-36197000D01*
X11938000Y-36197000D02*
X13538000Y-37797000D01*
G04 #@! TA.AperFunction,Conductor*
G36*
X20863279Y22859285D02*
G01*
X20866854Y22859050D01*
X20943364Y22854035D01*
X20943960Y22853994D01*
X21123034Y22841186D01*
X21135482Y22839509D01*
X21248536Y22817022D01*
X21250295Y22816656D01*
X21391516Y22785935D01*
X21402468Y22782895D01*
X21518008Y22743675D01*
X21520829Y22742671D01*
X21649911Y22694525D01*
X21659249Y22690493D01*
X21771059Y22635354D01*
X21774776Y22633424D01*
X21893393Y22568655D01*
X21901072Y22564006D01*
X22005802Y22494027D01*
X22010199Y22490915D01*
X22117436Y22410638D01*
X22123478Y22405739D01*
X22218545Y22322368D01*
X22223350Y22317868D01*
X22317868Y22223350D01*
X22322368Y22218545D01*
X22405739Y22123478D01*
X22410638Y22117436D01*
X22490915Y22010199D01*
X22494027Y22005802D01*
X22564006Y21901072D01*
X22568655Y21893393D01*
X22633424Y21774776D01*
X22635354Y21771059D01*
X22690493Y21659249D01*
X22694525Y21649911D01*
X22742671Y21520829D01*
X22743675Y21518008D01*
X22782895Y21402468D01*
X22785935Y21391516D01*
X22816656Y21250295D01*
X22817022Y21248536D01*
X22839509Y21135482D01*
X22841186Y21123034D01*
X22853994Y20943960D01*
X22854035Y20943364D01*
X22859285Y20863281D01*
X22859500Y20856700D01*
X22859500Y-43716700D01*
X22859285Y-43723281D01*
X22854035Y-43803364D01*
X22853994Y-43803960D01*
X22841186Y-43983034D01*
X22839509Y-43995482D01*
X22817022Y-44108536D01*
X22816656Y-44110295D01*
X22785935Y-44251516D01*
X22782895Y-44262468D01*
X22743675Y-44378008D01*
X22742671Y-44380829D01*
X22694525Y-44509911D01*
X22690493Y-44519249D01*
X22635354Y-44631059D01*
X22633424Y-44634776D01*
X22568655Y-44753393D01*
X22564006Y-44761072D01*
X22494027Y-44865802D01*
X22490915Y-44870199D01*
X22410638Y-44977436D01*
X22405739Y-44983478D01*
X22322368Y-45078545D01*
X22317868Y-45083350D01*
X22223350Y-45177868D01*
X22218545Y-45182368D01*
X22123478Y-45265739D01*
X22117436Y-45270638D01*
X22010199Y-45350915D01*
X22005802Y-45354027D01*
X21901072Y-45424006D01*
X21893393Y-45428655D01*
X21774776Y-45493424D01*
X21771059Y-45495354D01*
X21659249Y-45550493D01*
X21649911Y-45554525D01*
X21520829Y-45602671D01*
X21518008Y-45603675D01*
X21402468Y-45642895D01*
X21391516Y-45645935D01*
X21250295Y-45676656D01*
X21248536Y-45677022D01*
X21135482Y-45699509D01*
X21123034Y-45701186D01*
X20943960Y-45713994D01*
X20943364Y-45714035D01*
X20866854Y-45719050D01*
X20863279Y-45719285D01*
X20856700Y-45719500D01*
X-20856700Y-45719500D01*
X-20863279Y-45719285D01*
X-20866854Y-45719050D01*
X-20943364Y-45714035D01*
X-20943960Y-45713994D01*
X-21123034Y-45701186D01*
X-21135482Y-45699509D01*
X-21248536Y-45677022D01*
X-21250295Y-45676656D01*
X-21391516Y-45645935D01*
X-21402468Y-45642895D01*
X-21518008Y-45603675D01*
X-21520829Y-45602671D01*
X-21649911Y-45554525D01*
X-21659248Y-45550493D01*
X-21771057Y-45495355D01*
X-21774776Y-45493424D01*
X-21893400Y-45428650D01*
X-21901077Y-45424002D01*
X-22005791Y-45354035D01*
X-22010188Y-45350923D01*
X-22117436Y-45270638D01*
X-22123479Y-45265739D01*
X-22218551Y-45182363D01*
X-22223356Y-45177863D01*
X-22317863Y-45083356D01*
X-22322363Y-45078551D01*
X-22341135Y-45057146D01*
X-19043592Y-45057146D01*
X-18954205Y-45112492D01*
X-18763418Y-45186404D01*
X-18562302Y-45224000D01*
X-18357697Y-45224000D01*
X-18156581Y-45186404D01*
X-17965798Y-45112494D01*
X-17876406Y-45057146D01*
X-2443592Y-45057146D01*
X-2354205Y-45112492D01*
X-2163418Y-45186404D01*
X-1962302Y-45224000D01*
X-1757697Y-45224000D01*
X-1556581Y-45186404D01*
X-1365798Y-45112494D01*
X-1276406Y-45057146D01*
X1276406Y-45057146D01*
X1365798Y-45112494D01*
X1556581Y-45186404D01*
X1757697Y-45224000D01*
X1962302Y-45224000D01*
X2163418Y-45186404D01*
X2354205Y-45112492D01*
X2443592Y-45057146D01*
X17876405Y-45057146D01*
X17965798Y-45112494D01*
X18156581Y-45186404D01*
X18357697Y-45224000D01*
X18562302Y-45224000D01*
X18763418Y-45186404D01*
X18954205Y-45112492D01*
X19043592Y-45057146D01*
X18460000Y-44473553D01*
X17876405Y-45057146D01*
X2443592Y-45057146D01*
X1860000Y-44473553D01*
X1276406Y-45057146D01*
X-1276406Y-45057146D01*
X-1860000Y-44473553D01*
X-2443592Y-45057146D01*
X-17876406Y-45057146D01*
X-18460000Y-44473553D01*
X-19043592Y-45057146D01*
X-22341135Y-45057146D01*
X-22405739Y-44983479D01*
X-22410638Y-44977436D01*
X-22490923Y-44870188D01*
X-22494035Y-44865791D01*
X-22564002Y-44761077D01*
X-22568650Y-44753400D01*
X-22633424Y-44634776D01*
X-22635355Y-44631057D01*
X-22690493Y-44519248D01*
X-22694525Y-44509911D01*
X-22742671Y-44380829D01*
X-22743675Y-44378008D01*
X-22782895Y-44262468D01*
X-22785935Y-44251516D01*
X-22814545Y-44120000D01*
X-19568729Y-44120000D01*
X-19549852Y-44323724D01*
X-19549852Y-44323725D01*
X-19493859Y-44520520D01*
X-19493858Y-44520522D01*
X-19402658Y-44703674D01*
X-19402657Y-44703677D01*
X-19400322Y-44706767D01*
X-19400321Y-44706767D01*
X-18813553Y-44119999D01*
X-19400320Y-43533231D01*
X-19402659Y-43536327D01*
X-19402663Y-43536334D01*
X-19493858Y-43719477D01*
X-19493859Y-43719479D01*
X-19549852Y-43916274D01*
X-19549852Y-43916275D01*
X-19568729Y-44120000D01*
X-22814545Y-44120000D01*
X-22816656Y-44110295D01*
X-22817022Y-44108536D01*
X-22839509Y-43995482D01*
X-22841186Y-43983034D01*
X-22853994Y-43803960D01*
X-22854035Y-43803364D01*
X-22859285Y-43723281D01*
X-22859500Y-43716700D01*
X-22859500Y-43182853D01*
X-19043593Y-43182853D01*
X-18460000Y-43766447D01*
X-18456447Y-43770000D01*
X-18489005Y-43770000D01*
X-18575216Y-43784386D01*
X-18677947Y-43839981D01*
X-18757060Y-43925921D01*
X-18803982Y-44032892D01*
X-18813628Y-44149302D01*
X-18784953Y-44262538D01*
X-18721064Y-44360327D01*
X-18628885Y-44432072D01*
X-18518405Y-44470000D01*
X-18430995Y-44470000D01*
X-18344784Y-44455614D01*
X-18242053Y-44400019D01*
X-18162940Y-44314079D01*
X-18116018Y-44207108D01*
X-18108619Y-44117826D01*
X-17519678Y-44706767D01*
X-17517335Y-44703665D01*
X-17426143Y-44520527D01*
X-17426140Y-44520520D01*
X-17370147Y-44323725D01*
X-17370147Y-44323724D01*
X-17351270Y-44119999D01*
X-17369395Y-43924388D01*
X-17355720Y-43863736D01*
X-17309006Y-43822706D01*
X-17247097Y-43816970D01*
X-17201449Y-43840763D01*
X-17153160Y-43884785D01*
X-17153156Y-43884788D01*
X-16979201Y-43992494D01*
X-16788418Y-44066404D01*
X-16587302Y-44104000D01*
X-16382697Y-44104000D01*
X-16181581Y-44066404D01*
X-15990798Y-43992494D01*
X-15901406Y-43937146D01*
X-15901405Y-43937145D01*
X-16488551Y-43350000D01*
X-16455995Y-43350000D01*
X-16369784Y-43335614D01*
X-16267053Y-43280019D01*
X-16187940Y-43194079D01*
X-16141018Y-43087108D01*
X-16133800Y-42999999D01*
X-16131446Y-42999999D01*
X-15544678Y-43586767D01*
X-15542335Y-43583665D01*
X-15451143Y-43400527D01*
X-15451140Y-43400520D01*
X-15395147Y-43203725D01*
X-15395147Y-43203724D01*
X-15376270Y-43000000D01*
X-4943729Y-43000000D01*
X-4924852Y-43203724D01*
X-4924852Y-43203725D01*
X-4868859Y-43400520D01*
X-4868858Y-43400522D01*
X-4777658Y-43583674D01*
X-4777657Y-43583677D01*
X-4775322Y-43586767D01*
X-4775321Y-43586767D01*
X-4188553Y-42999999D01*
X-4775320Y-42413231D01*
X-4777659Y-42416327D01*
X-4777663Y-42416334D01*
X-4868858Y-42599477D01*
X-4868859Y-42599479D01*
X-4924852Y-42796274D01*
X-4924852Y-42796275D01*
X-4943729Y-43000000D01*
X-15376270Y-43000000D01*
X-15395147Y-42796275D01*
X-15395147Y-42796274D01*
X-15451140Y-42599479D01*
X-15451141Y-42599477D01*
X-15542342Y-42416323D01*
X-15544677Y-42413231D01*
X-15544678Y-42413231D01*
X-16131446Y-42999999D01*
X-16133800Y-42999999D01*
X-16131372Y-42970698D01*
X-16160047Y-42857462D01*
X-16223936Y-42759673D01*
X-16316115Y-42687928D01*
X-16426595Y-42650000D01*
X-16488553Y-42650000D01*
X-15953555Y-42115002D01*
X-15391492Y-42115002D01*
X-15385946Y-42150019D01*
X-15371646Y-42240304D01*
X-15314050Y-42353342D01*
X-15224342Y-42443050D01*
X-15111304Y-42500646D01*
X-15049138Y-42510492D01*
X-14986003Y-42520492D01*
X-14986000Y-42520492D01*
X-14985997Y-42520492D01*
X-14910817Y-42508584D01*
X-14860696Y-42500646D01*
X-14747658Y-42443050D01*
X-14657950Y-42353342D01*
X-14600354Y-42240304D01*
X-14600353Y-42240301D01*
X-14580508Y-42115002D01*
X-14375492Y-42115002D01*
X-14369946Y-42150019D01*
X-14355646Y-42240304D01*
X-14298050Y-42353342D01*
X-14208342Y-42443050D01*
X-14095304Y-42500646D01*
X-14033138Y-42510492D01*
X-13970003Y-42520492D01*
X-13970000Y-42520492D01*
X-13969997Y-42520492D01*
X-13894817Y-42508584D01*
X-13844696Y-42500646D01*
X-13731658Y-42443050D01*
X-13641950Y-42353342D01*
X-13584354Y-42240304D01*
X-13584353Y-42240301D01*
X-13564508Y-42115002D01*
X-13359492Y-42115002D01*
X-13353946Y-42150019D01*
X-13339646Y-42240304D01*
X-13282050Y-42353342D01*
X-13192342Y-42443050D01*
X-13079304Y-42500646D01*
X-13017138Y-42510492D01*
X-12954003Y-42520492D01*
X-12954000Y-42520492D01*
X-12953997Y-42520492D01*
X-12878817Y-42508584D01*
X-12828696Y-42500646D01*
X-12715658Y-42443050D01*
X-12625950Y-42353342D01*
X-12568354Y-42240304D01*
X-12568353Y-42240301D01*
X-12548508Y-42115002D01*
X-12343492Y-42115002D01*
X-12337946Y-42150019D01*
X-12323646Y-42240304D01*
X-12266050Y-42353342D01*
X-12176342Y-42443050D01*
X-12063304Y-42500646D01*
X-12001138Y-42510492D01*
X-11938003Y-42520492D01*
X-11938000Y-42520492D01*
X-11937997Y-42520492D01*
X-11862817Y-42508584D01*
X-11812696Y-42500646D01*
X-11699658Y-42443050D01*
X-11609950Y-42353342D01*
X-11552354Y-42240304D01*
X-11552353Y-42240301D01*
X-11532508Y-42115002D01*
X-11327492Y-42115002D01*
X-11321946Y-42150019D01*
X-11307646Y-42240304D01*
X-11250050Y-42353342D01*
X-11160342Y-42443050D01*
X-11047304Y-42500646D01*
X-10985138Y-42510492D01*
X-10922003Y-42520492D01*
X-10922000Y-42520492D01*
X-10921997Y-42520492D01*
X-10846817Y-42508584D01*
X-10796696Y-42500646D01*
X-10683658Y-42443050D01*
X-10593950Y-42353342D01*
X-10536354Y-42240304D01*
X-10536353Y-42240301D01*
X-10516508Y-42115002D01*
X-10311492Y-42115002D01*
X-10305946Y-42150019D01*
X-10291646Y-42240304D01*
X-10234050Y-42353342D01*
X-10144342Y-42443050D01*
X-10031304Y-42500646D01*
X-9969138Y-42510492D01*
X-9906003Y-42520492D01*
X-9906000Y-42520492D01*
X-9905997Y-42520492D01*
X-9830817Y-42508584D01*
X-9780696Y-42500646D01*
X-9667658Y-42443050D01*
X-9577950Y-42353342D01*
X-9520354Y-42240304D01*
X-9520353Y-42240301D01*
X-9500508Y-42115002D01*
X-9295492Y-42115002D01*
X-9289946Y-42150019D01*
X-9275646Y-42240304D01*
X-9218050Y-42353342D01*
X-9128342Y-42443050D01*
X-9015304Y-42500646D01*
X-8953138Y-42510492D01*
X-8890003Y-42520492D01*
X-8890000Y-42520492D01*
X-8889997Y-42520492D01*
X-8814817Y-42508584D01*
X-8764696Y-42500646D01*
X-8651658Y-42443050D01*
X-8561950Y-42353342D01*
X-8504354Y-42240304D01*
X-8504353Y-42240301D01*
X-8484508Y-42115002D01*
X-8279492Y-42115002D01*
X-8273946Y-42150019D01*
X-8259646Y-42240304D01*
X-8202050Y-42353342D01*
X-8112342Y-42443050D01*
X-7999304Y-42500646D01*
X-7937138Y-42510492D01*
X-7874003Y-42520492D01*
X-7874000Y-42520492D01*
X-7873997Y-42520492D01*
X-7798817Y-42508584D01*
X-7748696Y-42500646D01*
X-7635658Y-42443050D01*
X-7545950Y-42353342D01*
X-7488354Y-42240304D01*
X-7488353Y-42240301D01*
X-7468508Y-42115002D01*
X-7263492Y-42115002D01*
X-7257946Y-42150019D01*
X-7243646Y-42240304D01*
X-7186050Y-42353342D01*
X-7096342Y-42443050D01*
X-6983304Y-42500646D01*
X-6921138Y-42510492D01*
X-6858003Y-42520492D01*
X-6858000Y-42520492D01*
X-6857997Y-42520492D01*
X-6782817Y-42508584D01*
X-6732696Y-42500646D01*
X-6619658Y-42443050D01*
X-6529950Y-42353342D01*
X-6472354Y-42240304D01*
X-6472353Y-42240301D01*
X-6452508Y-42115002D01*
X-6247492Y-42115002D01*
X-6241946Y-42150019D01*
X-6227646Y-42240304D01*
X-6170050Y-42353342D01*
X-6080342Y-42443050D01*
X-5967304Y-42500646D01*
X-5905138Y-42510492D01*
X-5842003Y-42520492D01*
X-5842000Y-42520492D01*
X-5841997Y-42520492D01*
X-5766817Y-42508584D01*
X-5716696Y-42500646D01*
X-5603658Y-42443050D01*
X-5513950Y-42353342D01*
X-5456354Y-42240304D01*
X-5456353Y-42240301D01*
X-5436508Y-42115002D01*
X-5436508Y-42114997D01*
X-5444767Y-42062853D01*
X-4418593Y-42062853D01*
X-3835000Y-42646447D01*
X-3831447Y-42650000D01*
X-3864005Y-42650000D01*
X-3950216Y-42664386D01*
X-4052947Y-42719981D01*
X-4132060Y-42805921D01*
X-4178982Y-42912892D01*
X-4188628Y-43029302D01*
X-4159953Y-43142538D01*
X-4096064Y-43240327D01*
X-4003885Y-43312072D01*
X-3893405Y-43350000D01*
X-3831446Y-43350000D01*
X-4418592Y-43937146D01*
X-4329205Y-43992492D01*
X-4138418Y-44066404D01*
X-3937302Y-44104000D01*
X-3732697Y-44104000D01*
X-3531581Y-44066404D01*
X-3340798Y-43992494D01*
X-3166843Y-43884788D01*
X-3166839Y-43884785D01*
X-3118549Y-43840762D01*
X-3061907Y-43815124D01*
X-3001013Y-43827675D01*
X-2959126Y-43873622D01*
X-2950604Y-43924388D01*
X-2968729Y-44120000D01*
X-2949852Y-44323724D01*
X-2949852Y-44323725D01*
X-2893859Y-44520520D01*
X-2893858Y-44520522D01*
X-2802658Y-44703674D01*
X-2802657Y-44703677D01*
X-2800322Y-44706767D01*
X-2800321Y-44706767D01*
X-2210987Y-44117433D01*
X-2213628Y-44149302D01*
X-2184953Y-44262538D01*
X-2121064Y-44360327D01*
X-2028885Y-44432072D01*
X-1918405Y-44470000D01*
X-1830995Y-44470000D01*
X-1744784Y-44455614D01*
X-1642053Y-44400019D01*
X-1562940Y-44314079D01*
X-1516018Y-44207108D01*
X-1508800Y-44119999D01*
X-1506446Y-44119999D01*
X-919678Y-44706767D01*
X-917335Y-44703665D01*
X-826143Y-44520527D01*
X-826140Y-44520520D01*
X-770147Y-44323725D01*
X-770147Y-44323724D01*
X-751270Y-44120000D01*
X751270Y-44120000D01*
X770147Y-44323724D01*
X770147Y-44323725D01*
X826140Y-44520520D01*
X826143Y-44520527D01*
X917335Y-44703665D01*
X919678Y-44706767D01*
X1506446Y-44119999D01*
X919678Y-43533231D01*
X919677Y-43533231D01*
X917342Y-43536323D01*
X826141Y-43719477D01*
X826140Y-43719479D01*
X770147Y-43916274D01*
X770147Y-43916275D01*
X751270Y-44120000D01*
X-751270Y-44120000D01*
X-770147Y-43916275D01*
X-770147Y-43916274D01*
X-826140Y-43719479D01*
X-826141Y-43719477D01*
X-917342Y-43536323D01*
X-919677Y-43533231D01*
X-919678Y-43533231D01*
X-1506446Y-44119999D01*
X-1508800Y-44119999D01*
X-1506372Y-44090698D01*
X-1535047Y-43977462D01*
X-1598936Y-43879673D01*
X-1691115Y-43807928D01*
X-1801595Y-43770000D01*
X-1863553Y-43770000D01*
X-1860000Y-43766447D01*
X-1276406Y-43182853D01*
X-1276406Y-43182852D01*
X-1365790Y-43127509D01*
X-1365798Y-43127505D01*
X-1465689Y-43088807D01*
X-1513887Y-43049530D01*
X-1529793Y-42989425D01*
X-1507333Y-42931450D01*
X-1465689Y-42901193D01*
X-1365798Y-42862494D01*
X-1276406Y-42807146D01*
X-1276405Y-42807145D01*
X1276405Y-42807145D01*
X1276406Y-42807146D01*
X1365798Y-42862494D01*
X1465689Y-42901193D01*
X1513887Y-42940470D01*
X1529793Y-43000575D01*
X1507333Y-43058550D01*
X1465689Y-43088807D01*
X1365798Y-43127505D01*
X1365790Y-43127509D01*
X1276406Y-43182852D01*
X1276406Y-43182853D01*
X1860000Y-43766447D01*
X1863553Y-43770000D01*
X1830995Y-43770000D01*
X1744784Y-43784386D01*
X1642053Y-43839981D01*
X1562940Y-43925921D01*
X1516018Y-44032892D01*
X1506372Y-44149302D01*
X1535047Y-44262538D01*
X1598936Y-44360327D01*
X1691115Y-44432072D01*
X1801595Y-44470000D01*
X1889005Y-44470000D01*
X1975216Y-44455614D01*
X2077947Y-44400019D01*
X2157060Y-44314079D01*
X2203982Y-44207108D01*
X2211380Y-44117826D01*
X2800321Y-44706767D01*
X2800322Y-44706767D01*
X2802657Y-44703677D01*
X2802658Y-44703674D01*
X2893858Y-44520522D01*
X2893859Y-44520520D01*
X2949852Y-44323725D01*
X2949852Y-44323724D01*
X2968729Y-44120000D01*
X2950604Y-43924388D01*
X2964279Y-43863736D01*
X3010993Y-43822706D01*
X3072902Y-43816970D01*
X3118549Y-43840762D01*
X3166839Y-43884785D01*
X3166843Y-43884788D01*
X3340798Y-43992494D01*
X3531581Y-44066404D01*
X3732697Y-44104000D01*
X3937302Y-44104000D01*
X4138418Y-44066404D01*
X4329205Y-43992492D01*
X4418592Y-43937146D01*
X4418591Y-43937145D01*
X15901405Y-43937145D01*
X15901406Y-43937146D01*
X15990798Y-43992494D01*
X16181581Y-44066404D01*
X16382697Y-44104000D01*
X16587302Y-44104000D01*
X16788418Y-44066404D01*
X16979201Y-43992494D01*
X17153156Y-43884788D01*
X17153160Y-43884785D01*
X17201449Y-43840763D01*
X17258091Y-43815124D01*
X17318985Y-43827675D01*
X17360872Y-43873621D01*
X17369395Y-43924388D01*
X17351270Y-44119999D01*
X17370147Y-44323724D01*
X17370147Y-44323725D01*
X17426140Y-44520520D01*
X17426143Y-44520527D01*
X17517335Y-44703665D01*
X17519678Y-44706767D01*
X18109012Y-44117433D01*
X18106372Y-44149302D01*
X18135047Y-44262538D01*
X18198936Y-44360327D01*
X18291115Y-44432072D01*
X18401595Y-44470000D01*
X18489005Y-44470000D01*
X18575216Y-44455614D01*
X18677947Y-44400019D01*
X18757060Y-44314079D01*
X18803982Y-44207108D01*
X18811200Y-44119999D01*
X18813553Y-44119999D01*
X19400321Y-44706767D01*
X19400322Y-44706767D01*
X19402657Y-44703677D01*
X19402658Y-44703674D01*
X19493858Y-44520522D01*
X19493859Y-44520520D01*
X19549852Y-44323725D01*
X19549852Y-44323724D01*
X19568729Y-44120000D01*
X19549852Y-43916275D01*
X19549852Y-43916274D01*
X19493859Y-43719479D01*
X19493858Y-43719477D01*
X19402663Y-43536334D01*
X19402659Y-43536327D01*
X19400320Y-43533231D01*
X18813553Y-44119999D01*
X18811200Y-44119999D01*
X18813628Y-44090698D01*
X18784953Y-43977462D01*
X18721064Y-43879673D01*
X18628885Y-43807928D01*
X18518405Y-43770000D01*
X18456447Y-43770000D01*
X18460000Y-43766447D01*
X19043593Y-43182853D01*
X19043592Y-43182852D01*
X18954209Y-43127509D01*
X18954192Y-43127500D01*
X18854309Y-43088805D01*
X18806111Y-43049529D01*
X18790205Y-42989424D01*
X18812665Y-42931448D01*
X18854309Y-42901192D01*
X18954205Y-42862492D01*
X19043592Y-42807146D01*
X18456446Y-42220000D01*
X18489005Y-42220000D01*
X18575216Y-42205614D01*
X18677947Y-42150019D01*
X18757060Y-42064079D01*
X18803982Y-41957108D01*
X18811200Y-41869999D01*
X18813553Y-41869999D01*
X19400321Y-42456767D01*
X19400322Y-42456767D01*
X19402657Y-42453677D01*
X19402658Y-42453674D01*
X19493858Y-42270522D01*
X19493859Y-42270520D01*
X19549852Y-42073725D01*
X19549852Y-42073724D01*
X19568729Y-41870000D01*
X19549852Y-41666275D01*
X19549852Y-41666274D01*
X19493859Y-41469479D01*
X19493858Y-41469477D01*
X19402663Y-41286334D01*
X19402659Y-41286327D01*
X19400320Y-41283231D01*
X18813553Y-41869999D01*
X18811200Y-41869999D01*
X18813628Y-41840698D01*
X18784953Y-41727462D01*
X18721064Y-41629673D01*
X18628885Y-41557928D01*
X18518405Y-41520000D01*
X18456447Y-41520000D01*
X18460000Y-41516447D01*
X19043593Y-40932853D01*
X19043592Y-40932852D01*
X18954209Y-40877509D01*
X18954201Y-40877505D01*
X18763418Y-40803595D01*
X18562303Y-40766000D01*
X18357697Y-40766000D01*
X18156581Y-40803595D01*
X17965798Y-40877505D01*
X17965792Y-40877508D01*
X17919661Y-40906070D01*
X17859272Y-40920862D01*
X17801722Y-40897333D01*
X17781331Y-40873751D01*
X17685380Y-40719811D01*
X17548691Y-40576014D01*
X17385854Y-40462676D01*
X17385852Y-40462675D01*
X17385849Y-40462673D01*
X17203540Y-40384439D01*
X17203538Y-40384438D01*
X17203535Y-40384437D01*
X17203532Y-40384436D01*
X17203531Y-40384436D01*
X17082389Y-40359541D01*
X17009199Y-40344500D01*
X16860527Y-40344500D01*
X16860526Y-40344500D01*
X16712620Y-40359540D01*
X16712615Y-40359541D01*
X16523323Y-40418932D01*
X16349853Y-40515216D01*
X16349852Y-40515217D01*
X16199319Y-40644445D01*
X16077879Y-40801331D01*
X15990505Y-40979455D01*
X15990504Y-40979457D01*
X15940775Y-41171523D01*
X15940775Y-41171524D01*
X15930728Y-41369660D01*
X15930728Y-41369663D01*
X15960770Y-41565773D01*
X16029675Y-41751820D01*
X16051571Y-41786949D01*
X16086207Y-41842518D01*
X16101180Y-41902862D01*
X16077824Y-41960483D01*
X16037176Y-41989537D01*
X15990801Y-42007503D01*
X15990790Y-42007509D01*
X15901406Y-42062852D01*
X15901406Y-42062853D01*
X16488553Y-42650000D01*
X16455995Y-42650000D01*
X16369784Y-42664386D01*
X16267053Y-42719981D01*
X16187940Y-42805921D01*
X16141018Y-42912892D01*
X16131372Y-43029302D01*
X16160047Y-43142538D01*
X16223936Y-43240327D01*
X16316115Y-43312072D01*
X16426595Y-43350000D01*
X16488551Y-43350000D01*
X15901405Y-43937145D01*
X4418591Y-43937145D01*
X3831446Y-43350000D01*
X3864005Y-43350000D01*
X3950216Y-43335614D01*
X4052947Y-43280019D01*
X4132060Y-43194079D01*
X4178982Y-43087108D01*
X4186200Y-42999999D01*
X4188553Y-42999999D01*
X4775321Y-43586767D01*
X4775322Y-43586767D01*
X4777657Y-43583677D01*
X4777658Y-43583674D01*
X4868858Y-43400522D01*
X4868859Y-43400520D01*
X4924852Y-43203725D01*
X4924852Y-43203724D01*
X4943729Y-43000000D01*
X4924852Y-42796275D01*
X4924852Y-42796274D01*
X4868859Y-42599479D01*
X4868858Y-42599477D01*
X4777663Y-42416334D01*
X4777659Y-42416327D01*
X4775320Y-42413231D01*
X4188553Y-42999999D01*
X4186200Y-42999999D01*
X4188628Y-42970698D01*
X4159953Y-42857462D01*
X4096064Y-42759673D01*
X4003885Y-42687928D01*
X3893405Y-42650000D01*
X3831447Y-42650000D01*
X3835000Y-42646447D01*
X4366444Y-42115002D01*
X5512508Y-42115002D01*
X5532353Y-42240301D01*
X5532354Y-42240304D01*
X5589950Y-42353342D01*
X5679658Y-42443050D01*
X5792696Y-42500646D01*
X5842817Y-42508584D01*
X5917997Y-42520492D01*
X5918000Y-42520492D01*
X5918003Y-42520492D01*
X5981138Y-42510492D01*
X6043304Y-42500646D01*
X6156342Y-42443050D01*
X6246050Y-42353342D01*
X6303646Y-42240304D01*
X6317946Y-42150019D01*
X6323492Y-42115002D01*
X6528508Y-42115002D01*
X6548353Y-42240301D01*
X6548354Y-42240304D01*
X6605950Y-42353342D01*
X6695658Y-42443050D01*
X6808696Y-42500646D01*
X6858817Y-42508584D01*
X6933997Y-42520492D01*
X6934000Y-42520492D01*
X6934003Y-42520492D01*
X6997138Y-42510492D01*
X7059304Y-42500646D01*
X7172342Y-42443050D01*
X7262050Y-42353342D01*
X7319646Y-42240304D01*
X7333946Y-42150019D01*
X7339492Y-42115002D01*
X7544508Y-42115002D01*
X7564353Y-42240301D01*
X7564354Y-42240304D01*
X7621950Y-42353342D01*
X7711658Y-42443050D01*
X7824696Y-42500646D01*
X7874817Y-42508584D01*
X7949997Y-42520492D01*
X7950000Y-42520492D01*
X7950003Y-42520492D01*
X8013138Y-42510492D01*
X8075304Y-42500646D01*
X8188342Y-42443050D01*
X8278050Y-42353342D01*
X8335646Y-42240304D01*
X8349946Y-42150019D01*
X8355492Y-42115002D01*
X8560508Y-42115002D01*
X8580353Y-42240301D01*
X8580354Y-42240304D01*
X8637950Y-42353342D01*
X8727658Y-42443050D01*
X8840696Y-42500646D01*
X8890817Y-42508584D01*
X8965997Y-42520492D01*
X8966000Y-42520492D01*
X8966003Y-42520492D01*
X9029138Y-42510492D01*
X9091304Y-42500646D01*
X9204342Y-42443050D01*
X9294050Y-42353342D01*
X9351646Y-42240304D01*
X9365946Y-42150019D01*
X9371492Y-42115002D01*
X9576508Y-42115002D01*
X9596353Y-42240301D01*
X9596354Y-42240304D01*
X9653950Y-42353342D01*
X9743658Y-42443050D01*
X9856696Y-42500646D01*
X9906817Y-42508584D01*
X9981997Y-42520492D01*
X9982000Y-42520492D01*
X9982003Y-42520492D01*
X10045138Y-42510492D01*
X10107304Y-42500646D01*
X10220342Y-42443050D01*
X10310050Y-42353342D01*
X10367646Y-42240304D01*
X10381946Y-42150019D01*
X10387492Y-42115002D01*
X10592508Y-42115002D01*
X10612353Y-42240301D01*
X10612354Y-42240304D01*
X10669950Y-42353342D01*
X10759658Y-42443050D01*
X10872696Y-42500646D01*
X10922817Y-42508584D01*
X10997997Y-42520492D01*
X10998000Y-42520492D01*
X10998003Y-42520492D01*
X11061138Y-42510492D01*
X11123304Y-42500646D01*
X11236342Y-42443050D01*
X11326050Y-42353342D01*
X11383646Y-42240304D01*
X11397946Y-42150019D01*
X11403492Y-42115002D01*
X11608508Y-42115002D01*
X11628353Y-42240301D01*
X11628354Y-42240304D01*
X11685950Y-42353342D01*
X11775658Y-42443050D01*
X11888696Y-42500646D01*
X11938817Y-42508584D01*
X12013997Y-42520492D01*
X12014000Y-42520492D01*
X12014003Y-42520492D01*
X12077138Y-42510492D01*
X12139304Y-42500646D01*
X12252342Y-42443050D01*
X12342050Y-42353342D01*
X12399646Y-42240304D01*
X12413946Y-42150019D01*
X12419492Y-42115002D01*
X12624508Y-42115002D01*
X12644353Y-42240301D01*
X12644354Y-42240304D01*
X12701950Y-42353342D01*
X12791658Y-42443050D01*
X12904696Y-42500646D01*
X12954817Y-42508584D01*
X13029997Y-42520492D01*
X13030000Y-42520492D01*
X13030003Y-42520492D01*
X13093138Y-42510492D01*
X13155304Y-42500646D01*
X13268342Y-42443050D01*
X13358050Y-42353342D01*
X13415646Y-42240304D01*
X13429946Y-42150019D01*
X13435492Y-42115002D01*
X13640508Y-42115002D01*
X13660353Y-42240301D01*
X13660354Y-42240304D01*
X13717950Y-42353342D01*
X13807658Y-42443050D01*
X13920696Y-42500646D01*
X13970817Y-42508584D01*
X14045997Y-42520492D01*
X14046000Y-42520492D01*
X14046003Y-42520492D01*
X14109138Y-42510492D01*
X14171304Y-42500646D01*
X14284342Y-42443050D01*
X14374050Y-42353342D01*
X14431646Y-42240304D01*
X14445946Y-42150019D01*
X14451492Y-42115002D01*
X14656508Y-42115002D01*
X14676353Y-42240301D01*
X14676354Y-42240304D01*
X14733950Y-42353342D01*
X14823658Y-42443050D01*
X14936696Y-42500646D01*
X14986817Y-42508584D01*
X15061997Y-42520492D01*
X15062000Y-42520492D01*
X15062003Y-42520492D01*
X15125138Y-42510492D01*
X15187304Y-42500646D01*
X15300342Y-42443050D01*
X15319770Y-42423621D01*
X15375165Y-42395396D01*
X15436574Y-42405121D01*
X15480538Y-42449084D01*
X15490266Y-42510492D01*
X15480957Y-42539598D01*
X15451143Y-42599472D01*
X15451140Y-42599479D01*
X15395147Y-42796274D01*
X15395147Y-42796275D01*
X15376270Y-43000000D01*
X15395147Y-43203724D01*
X15395147Y-43203725D01*
X15451140Y-43400520D01*
X15451143Y-43400527D01*
X15542335Y-43583665D01*
X15544678Y-43586767D01*
X16131446Y-42999999D01*
X15544677Y-42413230D01*
X15530028Y-42414248D01*
X15469708Y-42399179D01*
X15429766Y-42351531D01*
X15425458Y-42289507D01*
X15433423Y-42268218D01*
X15447646Y-42240304D01*
X15447646Y-42240301D01*
X15450693Y-42221067D01*
X15461946Y-42150019D01*
X15467492Y-42115002D01*
X15467492Y-42114997D01*
X15450467Y-42007509D01*
X15447646Y-41989696D01*
X15390050Y-41876658D01*
X15300342Y-41786950D01*
X15300341Y-41786949D01*
X15187304Y-41729354D01*
X15187301Y-41729353D01*
X15062003Y-41709508D01*
X15061997Y-41709508D01*
X14936698Y-41729353D01*
X14936695Y-41729354D01*
X14823658Y-41786949D01*
X14733949Y-41876658D01*
X14676354Y-41989695D01*
X14676353Y-41989698D01*
X14656508Y-42114997D01*
X14656508Y-42115002D01*
X14451492Y-42115002D01*
X14451492Y-42114997D01*
X14434467Y-42007509D01*
X14431646Y-41989696D01*
X14374050Y-41876658D01*
X14284342Y-41786950D01*
X14284341Y-41786949D01*
X14171304Y-41729354D01*
X14171301Y-41729353D01*
X14046003Y-41709508D01*
X14045997Y-41709508D01*
X13920698Y-41729353D01*
X13920695Y-41729354D01*
X13807658Y-41786949D01*
X13717949Y-41876658D01*
X13660354Y-41989695D01*
X13660353Y-41989698D01*
X13640508Y-42114997D01*
X13640508Y-42115002D01*
X13435492Y-42115002D01*
X13435492Y-42114997D01*
X13418467Y-42007509D01*
X13415646Y-41989696D01*
X13358050Y-41876658D01*
X13268342Y-41786950D01*
X13268341Y-41786949D01*
X13155304Y-41729354D01*
X13155301Y-41729353D01*
X13030003Y-41709508D01*
X13029997Y-41709508D01*
X12904698Y-41729353D01*
X12904695Y-41729354D01*
X12791658Y-41786949D01*
X12701949Y-41876658D01*
X12644354Y-41989695D01*
X12644353Y-41989698D01*
X12624508Y-42114997D01*
X12624508Y-42115002D01*
X12419492Y-42115002D01*
X12419492Y-42114997D01*
X12402467Y-42007509D01*
X12399646Y-41989696D01*
X12342050Y-41876658D01*
X12252342Y-41786950D01*
X12252341Y-41786949D01*
X12139304Y-41729354D01*
X12139301Y-41729353D01*
X12014003Y-41709508D01*
X12013997Y-41709508D01*
X11888698Y-41729353D01*
X11888695Y-41729354D01*
X11775658Y-41786949D01*
X11685949Y-41876658D01*
X11628354Y-41989695D01*
X11628353Y-41989698D01*
X11608508Y-42114997D01*
X11608508Y-42115002D01*
X11403492Y-42115002D01*
X11403492Y-42114997D01*
X11386467Y-42007509D01*
X11383646Y-41989696D01*
X11326050Y-41876658D01*
X11236342Y-41786950D01*
X11236341Y-41786949D01*
X11123304Y-41729354D01*
X11123301Y-41729353D01*
X10998003Y-41709508D01*
X10997997Y-41709508D01*
X10872698Y-41729353D01*
X10872695Y-41729354D01*
X10759658Y-41786949D01*
X10669949Y-41876658D01*
X10612354Y-41989695D01*
X10612353Y-41989698D01*
X10592508Y-42114997D01*
X10592508Y-42115002D01*
X10387492Y-42115002D01*
X10387492Y-42114997D01*
X10370467Y-42007509D01*
X10367646Y-41989696D01*
X10310050Y-41876658D01*
X10220342Y-41786950D01*
X10220341Y-41786949D01*
X10107304Y-41729354D01*
X10107301Y-41729353D01*
X9982003Y-41709508D01*
X9981997Y-41709508D01*
X9856698Y-41729353D01*
X9856695Y-41729354D01*
X9743658Y-41786949D01*
X9653949Y-41876658D01*
X9596354Y-41989695D01*
X9596353Y-41989698D01*
X9576508Y-42114997D01*
X9576508Y-42115002D01*
X9371492Y-42115002D01*
X9371492Y-42114997D01*
X9354467Y-42007509D01*
X9351646Y-41989696D01*
X9294050Y-41876658D01*
X9204342Y-41786950D01*
X9204341Y-41786949D01*
X9091304Y-41729354D01*
X9091301Y-41729353D01*
X8966003Y-41709508D01*
X8965997Y-41709508D01*
X8840698Y-41729353D01*
X8840695Y-41729354D01*
X8727658Y-41786949D01*
X8637949Y-41876658D01*
X8580354Y-41989695D01*
X8580353Y-41989698D01*
X8560508Y-42114997D01*
X8560508Y-42115002D01*
X8355492Y-42115002D01*
X8355492Y-42114997D01*
X8338467Y-42007509D01*
X8335646Y-41989696D01*
X8278050Y-41876658D01*
X8188342Y-41786950D01*
X8188341Y-41786949D01*
X8075304Y-41729354D01*
X8075301Y-41729353D01*
X7950003Y-41709508D01*
X7949997Y-41709508D01*
X7824698Y-41729353D01*
X7824695Y-41729354D01*
X7711658Y-41786949D01*
X7621949Y-41876658D01*
X7564354Y-41989695D01*
X7564353Y-41989698D01*
X7544508Y-42114997D01*
X7544508Y-42115002D01*
X7339492Y-42115002D01*
X7339492Y-42114997D01*
X7322467Y-42007509D01*
X7319646Y-41989696D01*
X7262050Y-41876658D01*
X7172342Y-41786950D01*
X7172341Y-41786949D01*
X7059304Y-41729354D01*
X7059301Y-41729353D01*
X6934003Y-41709508D01*
X6933997Y-41709508D01*
X6808698Y-41729353D01*
X6808695Y-41729354D01*
X6695658Y-41786949D01*
X6605949Y-41876658D01*
X6548354Y-41989695D01*
X6548353Y-41989698D01*
X6528508Y-42114997D01*
X6528508Y-42115002D01*
X6323492Y-42115002D01*
X6323492Y-42114997D01*
X6306467Y-42007509D01*
X6303646Y-41989696D01*
X6246050Y-41876658D01*
X6156342Y-41786950D01*
X6156341Y-41786949D01*
X6043304Y-41729354D01*
X6043301Y-41729353D01*
X5918003Y-41709508D01*
X5917997Y-41709508D01*
X5792698Y-41729353D01*
X5792695Y-41729354D01*
X5679658Y-41786949D01*
X5589949Y-41876658D01*
X5532354Y-41989695D01*
X5532353Y-41989698D01*
X5512508Y-42114997D01*
X5512508Y-42115002D01*
X4366444Y-42115002D01*
X4418593Y-42062853D01*
X4418592Y-42062852D01*
X4329209Y-42007509D01*
X4329201Y-42007505D01*
X4287441Y-41991327D01*
X4239243Y-41952050D01*
X4223337Y-41891945D01*
X4241196Y-41844108D01*
X4239420Y-41843002D01*
X4242119Y-41838670D01*
X4242119Y-41838669D01*
X4242122Y-41838666D01*
X4329495Y-41660544D01*
X4379224Y-41468480D01*
X4389272Y-41270337D01*
X4359230Y-41074227D01*
X4290325Y-40888180D01*
X4185380Y-40719811D01*
X4048691Y-40576014D01*
X3885854Y-40462676D01*
X3885852Y-40462675D01*
X3885849Y-40462673D01*
X3703540Y-40384439D01*
X3703538Y-40384438D01*
X3703535Y-40384437D01*
X3703532Y-40384436D01*
X3703531Y-40384436D01*
X3582389Y-40359541D01*
X3509199Y-40344500D01*
X3360527Y-40344500D01*
X3360526Y-40344500D01*
X3212620Y-40359540D01*
X3212615Y-40359541D01*
X3023323Y-40418932D01*
X2849853Y-40515216D01*
X2849852Y-40515217D01*
X2699319Y-40644445D01*
X2577878Y-40801332D01*
X2577877Y-40801333D01*
X2545999Y-40866321D01*
X2502708Y-40910947D01*
X2441454Y-40921605D01*
X2402723Y-40907548D01*
X2354201Y-40877505D01*
X2163418Y-40803595D01*
X1962303Y-40766000D01*
X1757697Y-40766000D01*
X1556581Y-40803595D01*
X1365798Y-40877505D01*
X1365790Y-40877509D01*
X1276406Y-40932852D01*
X1276406Y-40932853D01*
X1863553Y-41520000D01*
X1830995Y-41520000D01*
X1744784Y-41534386D01*
X1642053Y-41589981D01*
X1562940Y-41675921D01*
X1516018Y-41782892D01*
X1506372Y-41899302D01*
X1535047Y-42012538D01*
X1598936Y-42110327D01*
X1691115Y-42182072D01*
X1801595Y-42220000D01*
X1863551Y-42220000D01*
X1276405Y-42807145D01*
X-1276405Y-42807145D01*
X-1863551Y-42220000D01*
X-1830995Y-42220000D01*
X-1744784Y-42205614D01*
X-1642053Y-42150019D01*
X-1562940Y-42064079D01*
X-1516018Y-41957108D01*
X-1508800Y-41869999D01*
X-1506446Y-41869999D01*
X-919678Y-42456767D01*
X-917335Y-42453665D01*
X-826143Y-42270527D01*
X-826140Y-42270520D01*
X-770147Y-42073725D01*
X-770147Y-42073724D01*
X-751270Y-41870000D01*
X751270Y-41870000D01*
X770147Y-42073724D01*
X770147Y-42073725D01*
X826140Y-42270520D01*
X826143Y-42270527D01*
X917335Y-42453665D01*
X919678Y-42456767D01*
X1506446Y-41869999D01*
X919678Y-41283231D01*
X919677Y-41283231D01*
X917342Y-41286323D01*
X826141Y-41469477D01*
X826140Y-41469479D01*
X770147Y-41666274D01*
X770147Y-41666275D01*
X751270Y-41870000D01*
X-751270Y-41870000D01*
X-770147Y-41666275D01*
X-770147Y-41666274D01*
X-826140Y-41469479D01*
X-826141Y-41469477D01*
X-917342Y-41286323D01*
X-919677Y-41283231D01*
X-919678Y-41283231D01*
X-1506446Y-41869999D01*
X-1508800Y-41869999D01*
X-1506372Y-41840698D01*
X-1535047Y-41727462D01*
X-1598936Y-41629673D01*
X-1691115Y-41557928D01*
X-1801595Y-41520000D01*
X-1863553Y-41520000D01*
X-1276406Y-40932853D01*
X-1276406Y-40932852D01*
X-1365790Y-40877509D01*
X-1365798Y-40877505D01*
X-1556581Y-40803595D01*
X-1757697Y-40766000D01*
X-1962303Y-40766000D01*
X-2163418Y-40803595D01*
X-2354201Y-40877505D01*
X-2354209Y-40877509D01*
X-2400336Y-40906069D01*
X-2460724Y-40920862D01*
X-2518275Y-40897334D01*
X-2538667Y-40873751D01*
X-2634617Y-40719814D01*
X-2634620Y-40719811D01*
X-2771306Y-40576016D01*
X-2934150Y-40462673D01*
X-3116459Y-40384439D01*
X-3116468Y-40384436D01*
X-3242996Y-40358434D01*
X-3310801Y-40344500D01*
X-3459473Y-40344500D01*
X-3459474Y-40344500D01*
X-3607379Y-40359540D01*
X-3607384Y-40359541D01*
X-3796676Y-40418932D01*
X-3970146Y-40515216D01*
X-3970147Y-40515217D01*
X-4120680Y-40644445D01*
X-4214771Y-40766000D01*
X-4242122Y-40801334D01*
X-4329495Y-40979456D01*
X-4379224Y-41171520D01*
X-4389272Y-41369663D01*
X-4359230Y-41565773D01*
X-4290325Y-41751820D01*
X-4233790Y-41842520D01*
X-4218818Y-41902861D01*
X-4242173Y-41960481D01*
X-4282823Y-41989537D01*
X-4329195Y-42007502D01*
X-4329209Y-42007509D01*
X-4418592Y-42062852D01*
X-4418593Y-42062853D01*
X-5444767Y-42062853D01*
X-5456353Y-41989698D01*
X-5456354Y-41989695D01*
X-5513949Y-41876658D01*
X-5603658Y-41786949D01*
X-5716695Y-41729354D01*
X-5716698Y-41729353D01*
X-5841997Y-41709508D01*
X-5842003Y-41709508D01*
X-5967301Y-41729353D01*
X-5967304Y-41729354D01*
X-6080341Y-41786949D01*
X-6080342Y-41786950D01*
X-6170050Y-41876658D01*
X-6227646Y-41989696D01*
X-6230467Y-42007509D01*
X-6247492Y-42114997D01*
X-6247492Y-42115002D01*
X-6452508Y-42115002D01*
X-6452508Y-42114997D01*
X-6472353Y-41989698D01*
X-6472354Y-41989695D01*
X-6529949Y-41876658D01*
X-6619658Y-41786949D01*
X-6732695Y-41729354D01*
X-6732698Y-41729353D01*
X-6857997Y-41709508D01*
X-6858003Y-41709508D01*
X-6983301Y-41729353D01*
X-6983304Y-41729354D01*
X-7096341Y-41786949D01*
X-7096342Y-41786950D01*
X-7186050Y-41876658D01*
X-7243646Y-41989696D01*
X-7246467Y-42007509D01*
X-7263492Y-42114997D01*
X-7263492Y-42115002D01*
X-7468508Y-42115002D01*
X-7468508Y-42114997D01*
X-7488353Y-41989698D01*
X-7488354Y-41989695D01*
X-7545949Y-41876658D01*
X-7635658Y-41786949D01*
X-7748695Y-41729354D01*
X-7748698Y-41729353D01*
X-7873997Y-41709508D01*
X-7874003Y-41709508D01*
X-7999301Y-41729353D01*
X-7999304Y-41729354D01*
X-8112341Y-41786949D01*
X-8112342Y-41786950D01*
X-8202050Y-41876658D01*
X-8259646Y-41989696D01*
X-8262467Y-42007509D01*
X-8279492Y-42114997D01*
X-8279492Y-42115002D01*
X-8484508Y-42115002D01*
X-8484508Y-42114997D01*
X-8504353Y-41989698D01*
X-8504354Y-41989695D01*
X-8561949Y-41876658D01*
X-8651658Y-41786949D01*
X-8764695Y-41729354D01*
X-8764698Y-41729353D01*
X-8889997Y-41709508D01*
X-8890003Y-41709508D01*
X-9015301Y-41729353D01*
X-9015304Y-41729354D01*
X-9128341Y-41786949D01*
X-9128342Y-41786950D01*
X-9218050Y-41876658D01*
X-9275646Y-41989696D01*
X-9278467Y-42007509D01*
X-9295492Y-42114997D01*
X-9295492Y-42115002D01*
X-9500508Y-42115002D01*
X-9500508Y-42114997D01*
X-9520353Y-41989698D01*
X-9520354Y-41989695D01*
X-9577949Y-41876658D01*
X-9667658Y-41786949D01*
X-9780695Y-41729354D01*
X-9780698Y-41729353D01*
X-9905997Y-41709508D01*
X-9906003Y-41709508D01*
X-10031301Y-41729353D01*
X-10031304Y-41729354D01*
X-10144341Y-41786949D01*
X-10144342Y-41786950D01*
X-10234050Y-41876658D01*
X-10291646Y-41989696D01*
X-10294467Y-42007509D01*
X-10311492Y-42114997D01*
X-10311492Y-42115002D01*
X-10516508Y-42115002D01*
X-10516508Y-42114997D01*
X-10536353Y-41989698D01*
X-10536354Y-41989695D01*
X-10593949Y-41876658D01*
X-10683658Y-41786949D01*
X-10796695Y-41729354D01*
X-10796698Y-41729353D01*
X-10921997Y-41709508D01*
X-10922003Y-41709508D01*
X-11047301Y-41729353D01*
X-11047304Y-41729354D01*
X-11160341Y-41786949D01*
X-11160342Y-41786950D01*
X-11250050Y-41876658D01*
X-11307646Y-41989696D01*
X-11310467Y-42007509D01*
X-11327492Y-42114997D01*
X-11327492Y-42115002D01*
X-11532508Y-42115002D01*
X-11532508Y-42114997D01*
X-11552353Y-41989698D01*
X-11552354Y-41989695D01*
X-11609949Y-41876658D01*
X-11699658Y-41786949D01*
X-11812695Y-41729354D01*
X-11812698Y-41729353D01*
X-11937997Y-41709508D01*
X-11938003Y-41709508D01*
X-12063301Y-41729353D01*
X-12063304Y-41729354D01*
X-12176341Y-41786949D01*
X-12176342Y-41786950D01*
X-12266050Y-41876658D01*
X-12323646Y-41989696D01*
X-12326467Y-42007509D01*
X-12343492Y-42114997D01*
X-12343492Y-42115002D01*
X-12548508Y-42115002D01*
X-12548508Y-42114997D01*
X-12568353Y-41989698D01*
X-12568354Y-41989695D01*
X-12625949Y-41876658D01*
X-12715658Y-41786949D01*
X-12828695Y-41729354D01*
X-12828698Y-41729353D01*
X-12953997Y-41709508D01*
X-12954003Y-41709508D01*
X-13079301Y-41729353D01*
X-13079304Y-41729354D01*
X-13192341Y-41786949D01*
X-13192342Y-41786950D01*
X-13282050Y-41876658D01*
X-13339646Y-41989696D01*
X-13342467Y-42007509D01*
X-13359492Y-42114997D01*
X-13359492Y-42115002D01*
X-13564508Y-42115002D01*
X-13564508Y-42114997D01*
X-13584353Y-41989698D01*
X-13584354Y-41989695D01*
X-13641949Y-41876658D01*
X-13731658Y-41786949D01*
X-13844695Y-41729354D01*
X-13844698Y-41729353D01*
X-13969997Y-41709508D01*
X-13970003Y-41709508D01*
X-14095301Y-41729353D01*
X-14095304Y-41729354D01*
X-14208341Y-41786949D01*
X-14208342Y-41786950D01*
X-14298050Y-41876658D01*
X-14355646Y-41989696D01*
X-14358467Y-42007509D01*
X-14375492Y-42114997D01*
X-14375492Y-42115002D01*
X-14580508Y-42115002D01*
X-14580508Y-42114997D01*
X-14600353Y-41989698D01*
X-14600354Y-41989695D01*
X-14657949Y-41876658D01*
X-14747658Y-41786949D01*
X-14860695Y-41729354D01*
X-14860698Y-41729353D01*
X-14985997Y-41709508D01*
X-14986003Y-41709508D01*
X-15111301Y-41729353D01*
X-15111304Y-41729354D01*
X-15224341Y-41786949D01*
X-15224342Y-41786950D01*
X-15314050Y-41876658D01*
X-15371646Y-41989696D01*
X-15374467Y-42007509D01*
X-15391492Y-42114997D01*
X-15391492Y-42115002D01*
X-15953555Y-42115002D01*
X-15901406Y-42062853D01*
X-15901406Y-42062852D01*
X-15990790Y-42007509D01*
X-15990804Y-42007502D01*
X-16032559Y-41991326D01*
X-16080756Y-41952050D01*
X-16096662Y-41891945D01*
X-16078813Y-41844103D01*
X-16080580Y-41843002D01*
X-16077880Y-41838670D01*
X-15990505Y-41660544D01*
X-15990504Y-41660542D01*
X-15940775Y-41468476D01*
X-15940775Y-41468475D01*
X-15930728Y-41270339D01*
X-15930728Y-41270336D01*
X-15960770Y-41074227D01*
X-15960772Y-41074220D01*
X-16029674Y-40888182D01*
X-16134621Y-40719809D01*
X-16271306Y-40576016D01*
X-16434150Y-40462673D01*
X-16616459Y-40384439D01*
X-16616468Y-40384436D01*
X-16742996Y-40358434D01*
X-16810801Y-40344500D01*
X-16959473Y-40344500D01*
X-16959474Y-40344500D01*
X-17107379Y-40359540D01*
X-17107384Y-40359541D01*
X-17296676Y-40418932D01*
X-17470146Y-40515216D01*
X-17470147Y-40515217D01*
X-17620680Y-40644445D01*
X-17742121Y-40801332D01*
X-17773998Y-40866318D01*
X-17817288Y-40910946D01*
X-17878542Y-40921604D01*
X-17917274Y-40907548D01*
X-17965792Y-40877508D01*
X-17965798Y-40877505D01*
X-18156581Y-40803595D01*
X-18357697Y-40766000D01*
X-18562303Y-40766000D01*
X-18763418Y-40803595D01*
X-18954201Y-40877505D01*
X-18954209Y-40877509D01*
X-19043592Y-40932852D01*
X-19043593Y-40932853D01*
X-18460000Y-41516447D01*
X-18456447Y-41520000D01*
X-18489005Y-41520000D01*
X-18575216Y-41534386D01*
X-18677947Y-41589981D01*
X-18757060Y-41675921D01*
X-18803982Y-41782892D01*
X-18813628Y-41899302D01*
X-18784953Y-42012538D01*
X-18721064Y-42110327D01*
X-18628885Y-42182072D01*
X-18518405Y-42220000D01*
X-18456446Y-42220000D01*
X-19043592Y-42807146D01*
X-18954205Y-42862492D01*
X-18854309Y-42901192D01*
X-18806112Y-42940468D01*
X-18790205Y-43000573D01*
X-18812664Y-43058549D01*
X-18854309Y-43088805D01*
X-18954192Y-43127500D01*
X-18954209Y-43127509D01*
X-19043592Y-43182852D01*
X-19043593Y-43182853D01*
X-22859500Y-43182853D01*
X-22859500Y-41870000D01*
X-19568729Y-41870000D01*
X-19549852Y-42073724D01*
X-19549852Y-42073725D01*
X-19493859Y-42270520D01*
X-19493858Y-42270522D01*
X-19402658Y-42453674D01*
X-19402657Y-42453677D01*
X-19400322Y-42456767D01*
X-19400321Y-42456767D01*
X-18813553Y-41869999D01*
X-19400320Y-41283231D01*
X-19402659Y-41286327D01*
X-19402663Y-41286334D01*
X-19493858Y-41469477D01*
X-19493859Y-41469479D01*
X-19549852Y-41666274D01*
X-19549852Y-41666275D01*
X-19568729Y-41870000D01*
X-22859500Y-41870000D01*
X-22859500Y-39321000D01*
X-14936365Y-39321000D01*
X-14917798Y-39450136D01*
X-14863601Y-39568811D01*
X-14778165Y-39667409D01*
X-14668412Y-39737943D01*
X-14543232Y-39774700D01*
X-14543231Y-39774700D01*
X-14412769Y-39774700D01*
X-14412768Y-39774700D01*
X-14287588Y-39737943D01*
X-14177835Y-39667409D01*
X-14092399Y-39568811D01*
X-14092398Y-39568809D01*
X-14092397Y-39568808D01*
X-14038202Y-39450136D01*
X-14019635Y-39321000D01*
X-14019635Y-39320999D01*
X-14038202Y-39191863D01*
X-14092397Y-39073191D01*
X-14110425Y-39052385D01*
X-14148129Y-39008872D01*
X-14172331Y-38951604D01*
X-14172700Y-38942995D01*
X-14172700Y-38028379D01*
X-14153487Y-37969248D01*
X-14143235Y-37957244D01*
X-13939271Y-37753280D01*
X-13883873Y-37725054D01*
X-13822465Y-37734780D01*
X-13778501Y-37778744D01*
X-13768775Y-37840152D01*
X-13770207Y-37847440D01*
X-13772257Y-37856156D01*
X-13769744Y-37874171D01*
X-13768265Y-37884771D01*
X-13767300Y-37898671D01*
X-13767300Y-38434995D01*
X-13786513Y-38494126D01*
X-13791864Y-38500866D01*
X-13847601Y-38565189D01*
X-13901798Y-38683864D01*
X-13920365Y-38813000D01*
X-13901798Y-38942136D01*
X-13847601Y-39060811D01*
X-13762165Y-39159409D01*
X-13652412Y-39229943D01*
X-13527232Y-39266700D01*
X-13527231Y-39266700D01*
X-13396769Y-39266700D01*
X-13396768Y-39266700D01*
X-13271588Y-39229943D01*
X-13161835Y-39159409D01*
X-13076399Y-39060811D01*
X-13076398Y-39060809D01*
X-13076397Y-39060808D01*
X-13022202Y-38942136D01*
X-13003635Y-38813000D01*
X-13003635Y-38812999D01*
X-13022202Y-38683863D01*
X-13076397Y-38565191D01*
X-13094425Y-38544385D01*
X-13132129Y-38500872D01*
X-13156331Y-38443604D01*
X-13156700Y-38434995D01*
X-13156700Y-38038629D01*
X-13137487Y-37979498D01*
X-13127235Y-37967494D01*
X-12924901Y-37765160D01*
X-12869503Y-37736934D01*
X-12808095Y-37746660D01*
X-12764131Y-37790624D01*
X-12754131Y-37822396D01*
X-12752265Y-37835772D01*
X-12751300Y-37849671D01*
X-12751300Y-38942995D01*
X-12770513Y-39002126D01*
X-12775864Y-39008866D01*
X-12831601Y-39073189D01*
X-12885798Y-39191864D01*
X-12904365Y-39321000D01*
X-12885798Y-39450136D01*
X-12831601Y-39568811D01*
X-12746165Y-39667409D01*
X-12636412Y-39737943D01*
X-12511232Y-39774700D01*
X-12511231Y-39774700D01*
X-12380769Y-39774700D01*
X-12380768Y-39774700D01*
X-12255588Y-39737943D01*
X-12145835Y-39667409D01*
X-12060399Y-39568811D01*
X-12060398Y-39568809D01*
X-12060397Y-39568808D01*
X-12006202Y-39450136D01*
X-11987635Y-39321000D01*
X-11987635Y-39320999D01*
X-12006202Y-39191863D01*
X-12060397Y-39073191D01*
X-12078425Y-39052385D01*
X-12116129Y-39008872D01*
X-12140331Y-38951604D01*
X-12140700Y-38942995D01*
X-12140700Y-37989629D01*
X-12121487Y-37930498D01*
X-12111235Y-37918494D01*
X-11911900Y-37719159D01*
X-11856502Y-37690933D01*
X-11795094Y-37700659D01*
X-11751130Y-37744623D01*
X-11741130Y-37776396D01*
X-11740256Y-37782655D01*
X-11740257Y-37782656D01*
X-11739898Y-37785230D01*
X-11736265Y-37811273D01*
X-11735300Y-37825171D01*
X-11735300Y-38434995D01*
X-11754513Y-38494126D01*
X-11759864Y-38500866D01*
X-11815601Y-38565189D01*
X-11869798Y-38683864D01*
X-11888365Y-38813000D01*
X-11869798Y-38942136D01*
X-11815601Y-39060811D01*
X-11730165Y-39159409D01*
X-11620412Y-39229943D01*
X-11495232Y-39266700D01*
X-11495231Y-39266700D01*
X-11364769Y-39266700D01*
X-11364768Y-39266700D01*
X-11239588Y-39229943D01*
X-11129835Y-39159409D01*
X-11044399Y-39060811D01*
X-11044398Y-39060809D01*
X-11044397Y-39060808D01*
X-10990202Y-38942136D01*
X-10971635Y-38813000D01*
X-10971635Y-38812999D01*
X-10990202Y-38683863D01*
X-11044397Y-38565191D01*
X-11062425Y-38544385D01*
X-11100129Y-38500872D01*
X-11124331Y-38443604D01*
X-11124700Y-38434995D01*
X-11124700Y-37965129D01*
X-11105487Y-37905998D01*
X-11095235Y-37893994D01*
X-10934532Y-37733291D01*
X-10891033Y-37689793D01*
X-10835637Y-37661568D01*
X-10774229Y-37671294D01*
X-10730265Y-37715258D01*
X-10719300Y-37760929D01*
X-10719300Y-38942995D01*
X-10738513Y-39002126D01*
X-10743864Y-39008866D01*
X-10799601Y-39073189D01*
X-10853798Y-39191864D01*
X-10872365Y-39321000D01*
X-10853798Y-39450136D01*
X-10799601Y-39568811D01*
X-10714165Y-39667409D01*
X-10604412Y-39737943D01*
X-10479232Y-39774700D01*
X-10479231Y-39774700D01*
X-10348769Y-39774700D01*
X-10348768Y-39774700D01*
X-10223588Y-39737943D01*
X-10113835Y-39667409D01*
X-10028399Y-39568811D01*
X-10028398Y-39568809D01*
X-10028397Y-39568808D01*
X-9974202Y-39450136D01*
X-9955635Y-39321000D01*
X-9955635Y-39320999D01*
X-9974202Y-39191863D01*
X-10028397Y-39073191D01*
X-10046425Y-39052385D01*
X-10084129Y-39008872D01*
X-10108331Y-38951604D01*
X-10108700Y-38942995D01*
X-10108700Y-37809928D01*
X-10089487Y-37750797D01*
X-10039187Y-37714252D01*
X-9977013Y-37714252D01*
X-9936966Y-37738792D01*
X-9732764Y-37942994D01*
X-9704539Y-37998391D01*
X-9703300Y-38014128D01*
X-9703300Y-38434995D01*
X-9722513Y-38494126D01*
X-9727864Y-38500866D01*
X-9783601Y-38565189D01*
X-9837798Y-38683864D01*
X-9856365Y-38813000D01*
X-9837798Y-38942136D01*
X-9783601Y-39060811D01*
X-9698165Y-39159409D01*
X-9588412Y-39229943D01*
X-9463232Y-39266700D01*
X-9463231Y-39266700D01*
X-9332769Y-39266700D01*
X-9332768Y-39266700D01*
X-9207588Y-39229943D01*
X-9097835Y-39159409D01*
X-9012399Y-39060811D01*
X-9012398Y-39060809D01*
X-9012397Y-39060808D01*
X-8958202Y-38942136D01*
X-8939635Y-38813000D01*
X-8939635Y-38812999D01*
X-8958202Y-38683863D01*
X-9012397Y-38565191D01*
X-9030425Y-38544385D01*
X-9068129Y-38500872D01*
X-9092331Y-38443604D01*
X-9092700Y-38434995D01*
X-9092700Y-37912209D01*
X-9090432Y-37898316D01*
X-9091679Y-37898143D01*
X-9090391Y-37888911D01*
X-9092593Y-37841276D01*
X-9092700Y-37836631D01*
X-9092700Y-37834428D01*
X-9073487Y-37775297D01*
X-9023187Y-37738752D01*
X-8961013Y-37738752D01*
X-8920966Y-37763291D01*
X-8716763Y-37967494D01*
X-8688539Y-38022891D01*
X-8687300Y-38038628D01*
X-8687300Y-38942995D01*
X-8706513Y-39002126D01*
X-8711864Y-39008866D01*
X-8767601Y-39073189D01*
X-8821798Y-39191864D01*
X-8840365Y-39321000D01*
X-8821798Y-39450136D01*
X-8767601Y-39568811D01*
X-8682165Y-39667409D01*
X-8572412Y-39737943D01*
X-8447232Y-39774700D01*
X-8447231Y-39774700D01*
X-8316769Y-39774700D01*
X-8316768Y-39774700D01*
X-8191588Y-39737943D01*
X-8081835Y-39667409D01*
X-7996399Y-39568811D01*
X-7996398Y-39568809D01*
X-7996397Y-39568808D01*
X-7942202Y-39450136D01*
X-7923635Y-39321000D01*
X-7923635Y-39320999D01*
X-7942202Y-39191863D01*
X-7996397Y-39073191D01*
X-8014425Y-39052385D01*
X-8052129Y-39008872D01*
X-8076331Y-38951604D01*
X-8076700Y-38942995D01*
X-8076700Y-37936711D01*
X-8074432Y-37922814D01*
X-8075678Y-37922641D01*
X-8074390Y-37913411D01*
X-8075072Y-37898671D01*
X-8076593Y-37865763D01*
X-8076700Y-37861118D01*
X-8076700Y-37842207D01*
X-8076840Y-37840695D01*
X-8076700Y-37840074D01*
X-8076700Y-37837563D01*
X-8076133Y-37837563D01*
X-8063157Y-37780045D01*
X-8016439Y-37739020D01*
X-7954529Y-37733291D01*
X-7905534Y-37760288D01*
X-7700763Y-37965059D01*
X-7672539Y-38020456D01*
X-7671300Y-38036193D01*
X-7671300Y-38434995D01*
X-7690513Y-38494126D01*
X-7695864Y-38500866D01*
X-7751601Y-38565189D01*
X-7805798Y-38683864D01*
X-7824365Y-38813000D01*
X-7805798Y-38942136D01*
X-7751601Y-39060811D01*
X-7666165Y-39159409D01*
X-7556412Y-39229943D01*
X-7431232Y-39266700D01*
X-7431231Y-39266700D01*
X-7300769Y-39266700D01*
X-7300768Y-39266700D01*
X-7175588Y-39229943D01*
X-7065835Y-39159409D01*
X-6980399Y-39060811D01*
X-6980398Y-39060809D01*
X-6980397Y-39060808D01*
X-6926202Y-38942136D01*
X-6907635Y-38813000D01*
X-6907635Y-38812999D01*
X-6926202Y-38683863D01*
X-6980397Y-38565191D01*
X-6998425Y-38544385D01*
X-7036129Y-38500872D01*
X-7060331Y-38443604D01*
X-7060700Y-38434995D01*
X-7060700Y-37934280D01*
X-7058432Y-37920385D01*
X-7059678Y-37920212D01*
X-7058390Y-37910979D01*
X-7060593Y-37863328D01*
X-7060700Y-37858683D01*
X-7060700Y-37835128D01*
X-7058436Y-37835128D01*
X-7046638Y-37782938D01*
X-6999901Y-37741935D01*
X-6937988Y-37736233D01*
X-6889037Y-37763220D01*
X-6684763Y-37967495D01*
X-6656539Y-38022891D01*
X-6655300Y-38038628D01*
X-6655300Y-38942995D01*
X-6674513Y-39002126D01*
X-6679864Y-39008866D01*
X-6735601Y-39073189D01*
X-6789798Y-39191864D01*
X-6808365Y-39321000D01*
X-6789798Y-39450136D01*
X-6735601Y-39568811D01*
X-6650165Y-39667409D01*
X-6540412Y-39737943D01*
X-6415232Y-39774700D01*
X-6415231Y-39774700D01*
X-6284769Y-39774700D01*
X-6284768Y-39774700D01*
X-6159588Y-39737943D01*
X-6049835Y-39667409D01*
X-5964399Y-39568811D01*
X-5964398Y-39568809D01*
X-5964397Y-39568808D01*
X-5910202Y-39450136D01*
X-5891635Y-39321000D01*
X-5891635Y-39320999D01*
X-5910202Y-39191863D01*
X-5964397Y-39073191D01*
X-5982425Y-39052385D01*
X-6020129Y-39008872D01*
X-6044331Y-38951604D01*
X-6044700Y-38942995D01*
X-6044700Y-37936711D01*
X-6042432Y-37922814D01*
X-6043678Y-37922641D01*
X-6042390Y-37913411D01*
X-6043072Y-37898671D01*
X-6044593Y-37865763D01*
X-6044700Y-37861118D01*
X-6044700Y-37842207D01*
X-6044725Y-37842074D01*
X-6046326Y-37828264D01*
X-6047074Y-37812096D01*
X-6030614Y-37752140D01*
X-5982057Y-37713310D01*
X-5919949Y-37710436D01*
X-5875448Y-37736310D01*
X-5668763Y-37942995D01*
X-5640539Y-37998391D01*
X-5639300Y-38014128D01*
X-5639300Y-38434995D01*
X-5658513Y-38494126D01*
X-5663864Y-38500866D01*
X-5719601Y-38565189D01*
X-5773798Y-38683864D01*
X-5792365Y-38813000D01*
X-5773798Y-38942136D01*
X-5719601Y-39060811D01*
X-5634165Y-39159409D01*
X-5524412Y-39229943D01*
X-5399232Y-39266700D01*
X-5399231Y-39266700D01*
X-5268769Y-39266700D01*
X-5268768Y-39266700D01*
X-5143588Y-39229943D01*
X-5033835Y-39159409D01*
X-4948399Y-39060811D01*
X-4948398Y-39060809D01*
X-4948397Y-39060808D01*
X-4894202Y-38942136D01*
X-4875635Y-38813000D01*
X-4875635Y-38812999D01*
X-4894202Y-38683863D01*
X-4948397Y-38565191D01*
X-4966425Y-38544385D01*
X-5004129Y-38500872D01*
X-5028331Y-38443604D01*
X-5028700Y-38434995D01*
X-5028700Y-37912215D01*
X-5026432Y-37898320D01*
X-5027678Y-37898147D01*
X-5026390Y-37888914D01*
X-5026582Y-37884771D01*
X-5028593Y-37841263D01*
X-5028700Y-37836618D01*
X-5028700Y-37817707D01*
X-5028725Y-37817574D01*
X-5030325Y-37803766D01*
X-5031661Y-37774896D01*
X-5031662Y-37774890D01*
X-5035694Y-37765758D01*
X-5042549Y-37743618D01*
X-5044383Y-37733806D01*
X-5044384Y-37733804D01*
X-5059599Y-37709231D01*
X-5066094Y-37696909D01*
X-5077766Y-37670473D01*
X-5084830Y-37663409D01*
X-5099213Y-37645250D01*
X-5104469Y-37636761D01*
X-5104471Y-37636759D01*
X-5127533Y-37619343D01*
X-5138039Y-37610200D01*
X-7539235Y-35209005D01*
X-7567461Y-35153607D01*
X-7568700Y-35137870D01*
X-7568700Y-19959705D01*
X-7549487Y-19900574D01*
X-7539235Y-19888570D01*
X-338940Y-12688275D01*
X-327507Y-12680056D01*
X-328269Y-12679049D01*
X-320830Y-12673431D01*
X-320829Y-12673431D01*
X-288697Y-12638184D01*
X-285488Y-12634823D01*
X-272113Y-12621448D01*
X-272048Y-12621352D01*
X-263399Y-12610433D01*
X-254891Y-12601100D01*
X-243933Y-12589080D01*
X-240327Y-12579773D01*
X-229514Y-12559261D01*
X-223876Y-12551030D01*
X-223875Y-12551029D01*
X-217258Y-12522896D01*
X-213138Y-12509592D01*
X-202700Y-12482649D01*
X-202700Y-12472662D01*
X-200028Y-12449633D01*
X-197744Y-12439920D01*
X-197744Y-12439916D01*
X-201735Y-12411308D01*
X-202700Y-12397410D01*
X-202700Y-2606211D01*
X-200432Y-2592314D01*
X-201678Y-2592141D01*
X-200390Y-2582911D01*
X-202565Y-2535870D01*
X197743Y-2535870D01*
X201735Y-2564483D01*
X202700Y-2578383D01*
X202700Y-12359364D01*
X200444Y-12373262D01*
X201678Y-12373434D01*
X200390Y-12382665D01*
X202593Y-12430311D01*
X202700Y-12434957D01*
X202700Y-12453872D01*
X202722Y-12453985D01*
X204325Y-12467809D01*
X205660Y-12496680D01*
X205662Y-12496685D01*
X209692Y-12505813D01*
X216550Y-12527958D01*
X218384Y-12537772D01*
X218385Y-12537773D01*
X233599Y-12562345D01*
X240092Y-12574663D01*
X251765Y-12601100D01*
X258823Y-12608158D01*
X273219Y-12626333D01*
X278473Y-12634818D01*
X282930Y-12638184D01*
X301532Y-12652231D01*
X312042Y-12661377D01*
X7539235Y-19888570D01*
X7567461Y-19943968D01*
X7568700Y-19959705D01*
X7568700Y-35178423D01*
X7549487Y-35237554D01*
X7539235Y-35249558D01*
X5240936Y-37547856D01*
X5229528Y-37556098D01*
X5230269Y-37557079D01*
X5222827Y-37562699D01*
X5190696Y-37597944D01*
X5187493Y-37601299D01*
X5174114Y-37614679D01*
X5174112Y-37614682D01*
X5174036Y-37614793D01*
X5165406Y-37625686D01*
X5145935Y-37647046D01*
X5145930Y-37647053D01*
X5142322Y-37656366D01*
X5131517Y-37676864D01*
X5125878Y-37685095D01*
X5125876Y-37685101D01*
X5119257Y-37713237D01*
X5115138Y-37726537D01*
X5104700Y-37753481D01*
X5104700Y-37763461D01*
X5102028Y-37786492D01*
X5099743Y-37796205D01*
X5099743Y-37796211D01*
X5103735Y-37824824D01*
X5104700Y-37838724D01*
X5104700Y-38434995D01*
X5085487Y-38494126D01*
X5080135Y-38500866D01*
X5042425Y-38544385D01*
X5024397Y-38565191D01*
X4970202Y-38683863D01*
X4951635Y-38812999D01*
X4951635Y-38813000D01*
X4970202Y-38942136D01*
X5024397Y-39060808D01*
X5024398Y-39060809D01*
X5024399Y-39060811D01*
X5109835Y-39159409D01*
X5219588Y-39229943D01*
X5344768Y-39266700D01*
X5344769Y-39266700D01*
X5475231Y-39266700D01*
X5475232Y-39266700D01*
X5600412Y-39229943D01*
X5710165Y-39159409D01*
X5795601Y-39060811D01*
X5849798Y-38942136D01*
X5868365Y-38813000D01*
X5849798Y-38683864D01*
X5795601Y-38565189D01*
X5739870Y-38500872D01*
X5715669Y-38443604D01*
X5715300Y-38434995D01*
X5715300Y-37978682D01*
X5734513Y-37919551D01*
X5744765Y-37907547D01*
X5845156Y-37807156D01*
X5950145Y-37702166D01*
X6005540Y-37673942D01*
X6066949Y-37683668D01*
X6110913Y-37727631D01*
X6119145Y-37779608D01*
X6120700Y-37779608D01*
X6120700Y-37798908D01*
X6118028Y-37821939D01*
X6115743Y-37831652D01*
X6115743Y-37831658D01*
X6119735Y-37860271D01*
X6120700Y-37874171D01*
X6120700Y-38942995D01*
X6101487Y-39002126D01*
X6096135Y-39008866D01*
X6058425Y-39052385D01*
X6040397Y-39073191D01*
X5986202Y-39191863D01*
X5967635Y-39320999D01*
X5967635Y-39321000D01*
X5986202Y-39450136D01*
X6040397Y-39568808D01*
X6040398Y-39568809D01*
X6040399Y-39568811D01*
X6125835Y-39667409D01*
X6235588Y-39737943D01*
X6360768Y-39774700D01*
X6360769Y-39774700D01*
X6491231Y-39774700D01*
X6491232Y-39774700D01*
X6616412Y-39737943D01*
X6726165Y-39667409D01*
X6811601Y-39568811D01*
X6865798Y-39450136D01*
X6884365Y-39321000D01*
X6865798Y-39191864D01*
X6811601Y-39073189D01*
X6755870Y-39008872D01*
X6731669Y-38951604D01*
X6731300Y-38942995D01*
X6731300Y-38014128D01*
X6750513Y-37954997D01*
X6760759Y-37942999D01*
X6961577Y-37742181D01*
X7016974Y-37713956D01*
X7078382Y-37723682D01*
X7122346Y-37767646D01*
X7131000Y-37822289D01*
X7132174Y-37822344D01*
X7131910Y-37828036D01*
X7132072Y-37829054D01*
X7131799Y-37830440D01*
X7131743Y-37831658D01*
X7135735Y-37860271D01*
X7136700Y-37874171D01*
X7136700Y-38434995D01*
X7117487Y-38494126D01*
X7112135Y-38500866D01*
X7074425Y-38544385D01*
X7056397Y-38565191D01*
X7002202Y-38683863D01*
X6983635Y-38812999D01*
X6983635Y-38813000D01*
X7002202Y-38942136D01*
X7056397Y-39060808D01*
X7056398Y-39060809D01*
X7056399Y-39060811D01*
X7141835Y-39159409D01*
X7251588Y-39229943D01*
X7376768Y-39266700D01*
X7376769Y-39266700D01*
X7507231Y-39266700D01*
X7507232Y-39266700D01*
X7632412Y-39229943D01*
X7742165Y-39159409D01*
X7827601Y-39060811D01*
X7881798Y-38942136D01*
X7900365Y-38813000D01*
X7881798Y-38683864D01*
X7827601Y-38565189D01*
X7771870Y-38500872D01*
X7747669Y-38443604D01*
X7747300Y-38434995D01*
X7747300Y-38014129D01*
X7766513Y-37954998D01*
X7776765Y-37942994D01*
X7877070Y-37842689D01*
X7977578Y-37742180D01*
X8032973Y-37713956D01*
X8094382Y-37723682D01*
X8138346Y-37767645D01*
X8147000Y-37822289D01*
X8148174Y-37822344D01*
X8147910Y-37828036D01*
X8148072Y-37829054D01*
X8147799Y-37830440D01*
X8147743Y-37831658D01*
X8151735Y-37860271D01*
X8152700Y-37874171D01*
X8152700Y-38942995D01*
X8133487Y-39002126D01*
X8128135Y-39008866D01*
X8090425Y-39052385D01*
X8072397Y-39073191D01*
X8018202Y-39191863D01*
X7999635Y-39320999D01*
X7999635Y-39321000D01*
X8018202Y-39450136D01*
X8072397Y-39568808D01*
X8072398Y-39568809D01*
X8072399Y-39568811D01*
X8157835Y-39667409D01*
X8267588Y-39737943D01*
X8392768Y-39774700D01*
X8392769Y-39774700D01*
X8523231Y-39774700D01*
X8523232Y-39774700D01*
X8648412Y-39737943D01*
X8758165Y-39667409D01*
X8843601Y-39568811D01*
X8897798Y-39450136D01*
X8916365Y-39321000D01*
X8897798Y-39191864D01*
X8843601Y-39073189D01*
X8787870Y-39008872D01*
X8763669Y-38951604D01*
X8763300Y-38942995D01*
X8763300Y-38014128D01*
X8782513Y-37954997D01*
X8792759Y-37942999D01*
X8996966Y-37738792D01*
X9052363Y-37710567D01*
X9113771Y-37720293D01*
X9157735Y-37764257D01*
X9168700Y-37809928D01*
X9168700Y-38434995D01*
X9149487Y-38494126D01*
X9144135Y-38500866D01*
X9106425Y-38544385D01*
X9088397Y-38565191D01*
X9034202Y-38683863D01*
X9015635Y-38812999D01*
X9015635Y-38813000D01*
X9034202Y-38942136D01*
X9088397Y-39060808D01*
X9088398Y-39060809D01*
X9088399Y-39060811D01*
X9173835Y-39159409D01*
X9283588Y-39229943D01*
X9408768Y-39266700D01*
X9408769Y-39266700D01*
X9539231Y-39266700D01*
X9539232Y-39266700D01*
X9664412Y-39229943D01*
X9774165Y-39159409D01*
X9859601Y-39060811D01*
X9913798Y-38942136D01*
X9932365Y-38813000D01*
X9913798Y-38683864D01*
X9859601Y-38565189D01*
X9803870Y-38500872D01*
X9779669Y-38443604D01*
X9779300Y-38434995D01*
X9779300Y-37938129D01*
X9798513Y-37878998D01*
X9808765Y-37866994D01*
X9874522Y-37801237D01*
X9940535Y-37735223D01*
X9995930Y-37706999D01*
X10057339Y-37716725D01*
X10101303Y-37760688D01*
X10109595Y-37783325D01*
X10111660Y-37792106D01*
X10115692Y-37801237D01*
X10122550Y-37823382D01*
X10124384Y-37833196D01*
X10126503Y-37836618D01*
X10139599Y-37857769D01*
X10146092Y-37870087D01*
X10157765Y-37896524D01*
X10163034Y-37904216D01*
X10161113Y-37905531D01*
X10183461Y-37949392D01*
X10184700Y-37965129D01*
X10184700Y-38942995D01*
X10165487Y-39002126D01*
X10160135Y-39008866D01*
X10122425Y-39052385D01*
X10104397Y-39073191D01*
X10050202Y-39191863D01*
X10031635Y-39320999D01*
X10031635Y-39321000D01*
X10050202Y-39450136D01*
X10104397Y-39568808D01*
X10104398Y-39568809D01*
X10104399Y-39568811D01*
X10189835Y-39667409D01*
X10299588Y-39737943D01*
X10424768Y-39774700D01*
X10424769Y-39774700D01*
X10555231Y-39774700D01*
X10555232Y-39774700D01*
X10680412Y-39737943D01*
X10790165Y-39667409D01*
X10875601Y-39568811D01*
X10929798Y-39450136D01*
X10948365Y-39321000D01*
X10929798Y-39191864D01*
X10875601Y-39073189D01*
X10819870Y-39008872D01*
X10795669Y-38951604D01*
X10795300Y-38942995D01*
X10795300Y-37863211D01*
X10797567Y-37849314D01*
X10796322Y-37849141D01*
X10797608Y-37839914D01*
X10797610Y-37839910D01*
X10795407Y-37792254D01*
X10795300Y-37787618D01*
X10795300Y-37764060D01*
X10796726Y-37764060D01*
X10809081Y-37709245D01*
X10855792Y-37668212D01*
X10917700Y-37662471D01*
X10966715Y-37689474D01*
X11171235Y-37893994D01*
X11199461Y-37949392D01*
X11200700Y-37965129D01*
X11200700Y-38434995D01*
X11181487Y-38494126D01*
X11176135Y-38500866D01*
X11138425Y-38544385D01*
X11120397Y-38565191D01*
X11066202Y-38683863D01*
X11047635Y-38812999D01*
X11047635Y-38813000D01*
X11066202Y-38942136D01*
X11120397Y-39060808D01*
X11120398Y-39060809D01*
X11120399Y-39060811D01*
X11205835Y-39159409D01*
X11315588Y-39229943D01*
X11440768Y-39266700D01*
X11440769Y-39266700D01*
X11571231Y-39266700D01*
X11571232Y-39266700D01*
X11696412Y-39229943D01*
X11806165Y-39159409D01*
X11891601Y-39060811D01*
X11945798Y-38942136D01*
X11964365Y-38813000D01*
X11945798Y-38683864D01*
X11891601Y-38565189D01*
X11835870Y-38500872D01*
X11811669Y-38443604D01*
X11811300Y-38434995D01*
X11811300Y-37863212D01*
X11813567Y-37849316D01*
X11812322Y-37849143D01*
X11813608Y-37839914D01*
X11813610Y-37839910D01*
X11811407Y-37792254D01*
X11811300Y-37787609D01*
X11811300Y-37764060D01*
X11812726Y-37764060D01*
X11825081Y-37709245D01*
X11871792Y-37668212D01*
X11933700Y-37662471D01*
X11982715Y-37689474D01*
X12187235Y-37893994D01*
X12215461Y-37949392D01*
X12216700Y-37965129D01*
X12216700Y-38942995D01*
X12197487Y-39002126D01*
X12192135Y-39008866D01*
X12154425Y-39052385D01*
X12136397Y-39073191D01*
X12082202Y-39191863D01*
X12063635Y-39320999D01*
X12063635Y-39321000D01*
X12082202Y-39450136D01*
X12136397Y-39568808D01*
X12136398Y-39568809D01*
X12136399Y-39568811D01*
X12221835Y-39667409D01*
X12331588Y-39737943D01*
X12456768Y-39774700D01*
X12456769Y-39774700D01*
X12587231Y-39774700D01*
X12587232Y-39774700D01*
X12712412Y-39737943D01*
X12822165Y-39667409D01*
X12907601Y-39568811D01*
X12961798Y-39450136D01*
X12980365Y-39321000D01*
X12961798Y-39191864D01*
X12907601Y-39073189D01*
X12851870Y-39008872D01*
X12827669Y-38951604D01*
X12827300Y-38942995D01*
X12827300Y-37863211D01*
X12829567Y-37849314D01*
X12828322Y-37849141D01*
X12829608Y-37839914D01*
X12829610Y-37839910D01*
X12827407Y-37792254D01*
X12827300Y-37787618D01*
X12827300Y-37764060D01*
X12828726Y-37764060D01*
X12841081Y-37709245D01*
X12887792Y-37668212D01*
X12949700Y-37662471D01*
X12998715Y-37689474D01*
X13203235Y-37893994D01*
X13231461Y-37949392D01*
X13232700Y-37965129D01*
X13232700Y-38434995D01*
X13213487Y-38494126D01*
X13208135Y-38500866D01*
X13170425Y-38544385D01*
X13152397Y-38565191D01*
X13098202Y-38683863D01*
X13079635Y-38812999D01*
X13079635Y-38813000D01*
X13098202Y-38942136D01*
X13152397Y-39060808D01*
X13152398Y-39060809D01*
X13152399Y-39060811D01*
X13237835Y-39159409D01*
X13347588Y-39229943D01*
X13472768Y-39266700D01*
X13472769Y-39266700D01*
X13603231Y-39266700D01*
X13603232Y-39266700D01*
X13728412Y-39229943D01*
X13838165Y-39159409D01*
X13923601Y-39060811D01*
X13977798Y-38942136D01*
X13996365Y-38813000D01*
X13977798Y-38683864D01*
X13923601Y-38565189D01*
X13867870Y-38500872D01*
X13843669Y-38443604D01*
X13843300Y-38434995D01*
X13843300Y-37885929D01*
X13862513Y-37826798D01*
X13912813Y-37790253D01*
X13974987Y-37790253D01*
X14015035Y-37814794D01*
X14219235Y-38018994D01*
X14247461Y-38074392D01*
X14248700Y-38090129D01*
X14248700Y-38942995D01*
X14229487Y-39002126D01*
X14224135Y-39008866D01*
X14186425Y-39052385D01*
X14168397Y-39073191D01*
X14114202Y-39191863D01*
X14095635Y-39320999D01*
X14095635Y-39321000D01*
X14114202Y-39450136D01*
X14168397Y-39568808D01*
X14168398Y-39568809D01*
X14168399Y-39568811D01*
X14253835Y-39667409D01*
X14363588Y-39737943D01*
X14488768Y-39774700D01*
X14488769Y-39774700D01*
X14619231Y-39774700D01*
X14619232Y-39774700D01*
X14744412Y-39737943D01*
X14854165Y-39667409D01*
X14939601Y-39568811D01*
X14993798Y-39450136D01*
X15012365Y-39321000D01*
X14993798Y-39191864D01*
X14939601Y-39073189D01*
X14883870Y-39008872D01*
X14859669Y-38951604D01*
X14859300Y-38942995D01*
X14859300Y-37988211D01*
X14861567Y-37974314D01*
X14860322Y-37974141D01*
X14861608Y-37964914D01*
X14861610Y-37964910D01*
X14859407Y-37917263D01*
X14859300Y-37912618D01*
X14859300Y-37893709D01*
X14859280Y-37893603D01*
X14857672Y-37879754D01*
X14856338Y-37850891D01*
X14852307Y-37841762D01*
X14845447Y-37819606D01*
X14843615Y-37809802D01*
X14828400Y-37785230D01*
X14821904Y-37772906D01*
X14810234Y-37746475D01*
X14803176Y-37739417D01*
X14788781Y-37721244D01*
X14783527Y-37712758D01*
X14760463Y-37695340D01*
X14749959Y-37686200D01*
X12780765Y-35717006D01*
X12752539Y-35661608D01*
X12751300Y-35645871D01*
X12751300Y-16812434D01*
X14568250Y-16812434D01*
X14607379Y-17097107D01*
X14684909Y-17373817D01*
X14799387Y-17637371D01*
X14799387Y-17637372D01*
X14799389Y-17637375D01*
X14948695Y-17882897D01*
X15130042Y-18105803D01*
X15340052Y-18301939D01*
X15574814Y-18467651D01*
X15829953Y-18599854D01*
X16100718Y-18696084D01*
X16382064Y-18754548D01*
X16382071Y-18754548D01*
X16382075Y-18754549D01*
X16596968Y-18769248D01*
X16596971Y-18769248D01*
X16596998Y-18769250D01*
X16597005Y-18769250D01*
X16740495Y-18769250D01*
X16740502Y-18769250D01*
X16758481Y-18768020D01*
X16955424Y-18754549D01*
X16955426Y-18754548D01*
X16955436Y-18754548D01*
X17236782Y-18696084D01*
X17507547Y-18599854D01*
X17762686Y-18467651D01*
X17997448Y-18301939D01*
X18207458Y-18105803D01*
X18388805Y-17882897D01*
X18538111Y-17637375D01*
X18652594Y-17373808D01*
X18730121Y-17097108D01*
X18769250Y-16812428D01*
X18769250Y-16525072D01*
X18730121Y-16240392D01*
X18652594Y-15963692D01*
X18538111Y-15700125D01*
X18388805Y-15454603D01*
X18207458Y-15231697D01*
X17997448Y-15035561D01*
X17762686Y-14869849D01*
X17762682Y-14869847D01*
X17762679Y-14869845D01*
X17507545Y-14737645D01*
X17406764Y-14701827D01*
X17236782Y-14641416D01*
X17236778Y-14641415D01*
X17236775Y-14641414D01*
X16955438Y-14582952D01*
X16955424Y-14582950D01*
X16740531Y-14568251D01*
X16740506Y-14568250D01*
X16740502Y-14568250D01*
X16596998Y-14568250D01*
X16596993Y-14568250D01*
X16596968Y-14568251D01*
X16382075Y-14582950D01*
X16382061Y-14582952D01*
X16100725Y-14641414D01*
X16100724Y-14641414D01*
X15829954Y-14737645D01*
X15574820Y-14869845D01*
X15574807Y-14869853D01*
X15340049Y-15035563D01*
X15130042Y-15231696D01*
X14948695Y-15454602D01*
X14948693Y-15454605D01*
X14799387Y-15700127D01*
X14799387Y-15700128D01*
X14684909Y-15963682D01*
X14607379Y-16240392D01*
X14568250Y-16525065D01*
X14568250Y-16812434D01*
X12751300Y-16812434D01*
X12751300Y-9381175D01*
X12770513Y-9322044D01*
X12820813Y-9285499D01*
X12867637Y-9281814D01*
X12953997Y-9295492D01*
X12954000Y-9295492D01*
X12954003Y-9295492D01*
X13017094Y-9285499D01*
X13079304Y-9275646D01*
X13192342Y-9218050D01*
X13282050Y-9128342D01*
X13339646Y-9015304D01*
X13359492Y-8890000D01*
X13339646Y-8764696D01*
X13282050Y-8651658D01*
X13192342Y-8561950D01*
X13192341Y-8561949D01*
X13079304Y-8504354D01*
X13079301Y-8504353D01*
X12954003Y-8484508D01*
X12953999Y-8484508D01*
X12928808Y-8488497D01*
X12867400Y-8478769D01*
X12823437Y-8434803D01*
X12813713Y-8373394D01*
X12841941Y-8317998D01*
X12884736Y-8292609D01*
X12890412Y-8290943D01*
X13000165Y-8220409D01*
X13085601Y-8121811D01*
X13139798Y-8003136D01*
X13158365Y-7874000D01*
X13139798Y-7744864D01*
X13085601Y-7626189D01*
X13000165Y-7527591D01*
X12890412Y-7457057D01*
X12765232Y-7420300D01*
X12643631Y-7420300D01*
X12584500Y-7401087D01*
X12577617Y-7391614D01*
X12558060Y-7429999D01*
X12515269Y-7455388D01*
X12509592Y-7457054D01*
X12509588Y-7457056D01*
X12432602Y-7506532D01*
X12399835Y-7527591D01*
X12399834Y-7527591D01*
X12398289Y-7528585D01*
X12338157Y-7544391D01*
X12280219Y-7521834D01*
X12246605Y-7469530D01*
X12243300Y-7443955D01*
X12243300Y-7349175D01*
X12262513Y-7290044D01*
X12312813Y-7253499D01*
X12359637Y-7249814D01*
X12445997Y-7263492D01*
X12446000Y-7263492D01*
X12446003Y-7263492D01*
X12471188Y-7259503D01*
X12532596Y-7269229D01*
X12549648Y-7286281D01*
X12584500Y-7238313D01*
X12597959Y-7230065D01*
X12648701Y-7204210D01*
X12684342Y-7186050D01*
X12774050Y-7096342D01*
X12831646Y-6983304D01*
X12851492Y-6858000D01*
X12851385Y-6857326D01*
X12833434Y-6743986D01*
X12831646Y-6732696D01*
X12774050Y-6619658D01*
X12684342Y-6529950D01*
X12684341Y-6529949D01*
X12571304Y-6472354D01*
X12571301Y-6472353D01*
X12446003Y-6452508D01*
X12445999Y-6452508D01*
X12420808Y-6456497D01*
X12359400Y-6446769D01*
X12315437Y-6402803D01*
X12305713Y-6341394D01*
X12333941Y-6285998D01*
X12376736Y-6260609D01*
X12382412Y-6258943D01*
X12492165Y-6188409D01*
X12577601Y-6089811D01*
X12631798Y-5971136D01*
X12650365Y-5842000D01*
X12631798Y-5712864D01*
X12577601Y-5594189D01*
X12492165Y-5495591D01*
X12382412Y-5425057D01*
X12257232Y-5388300D01*
X12135631Y-5388300D01*
X12076500Y-5369087D01*
X12069617Y-5359614D01*
X12050060Y-5397999D01*
X12007269Y-5423388D01*
X12001592Y-5425054D01*
X12001588Y-5425056D01*
X11924602Y-5474532D01*
X11891835Y-5495591D01*
X11891834Y-5495591D01*
X11890289Y-5496585D01*
X11830157Y-5512391D01*
X11772219Y-5489834D01*
X11738605Y-5437530D01*
X11735300Y-5411955D01*
X11735300Y-5317175D01*
X11754513Y-5258044D01*
X11804813Y-5221499D01*
X11851637Y-5217814D01*
X11937997Y-5231492D01*
X11938000Y-5231492D01*
X11938003Y-5231492D01*
X11963188Y-5227503D01*
X12024596Y-5237229D01*
X12041648Y-5254281D01*
X12076500Y-5206313D01*
X12089959Y-5198065D01*
X12140701Y-5172210D01*
X12176342Y-5154050D01*
X12266050Y-5064342D01*
X12323646Y-4951304D01*
X12343492Y-4826000D01*
X12323646Y-4700696D01*
X12266050Y-4587658D01*
X12176342Y-4497950D01*
X12176341Y-4497949D01*
X12063304Y-4440354D01*
X12063301Y-4440353D01*
X11938003Y-4420508D01*
X11937999Y-4420508D01*
X11912808Y-4424497D01*
X11851400Y-4414769D01*
X11807437Y-4370803D01*
X11797713Y-4309394D01*
X11825941Y-4253998D01*
X11868736Y-4228609D01*
X11874412Y-4226943D01*
X11984165Y-4156409D01*
X12069601Y-4057811D01*
X12123798Y-3939136D01*
X12142365Y-3810000D01*
X12123798Y-3680864D01*
X12069601Y-3562189D01*
X11984165Y-3463591D01*
X11874412Y-3393057D01*
X11749232Y-3356300D01*
X11627631Y-3356300D01*
X11568500Y-3337087D01*
X11561617Y-3327614D01*
X11542060Y-3365999D01*
X11499269Y-3391388D01*
X11493592Y-3393054D01*
X11493588Y-3393056D01*
X11416602Y-3442532D01*
X11383835Y-3463591D01*
X11383834Y-3463591D01*
X11382289Y-3464585D01*
X11322157Y-3480391D01*
X11264219Y-3457834D01*
X11230605Y-3405530D01*
X11227300Y-3379955D01*
X11227300Y-3285175D01*
X11246513Y-3226044D01*
X11296813Y-3189499D01*
X11343637Y-3185814D01*
X11429997Y-3199492D01*
X11430000Y-3199492D01*
X11430003Y-3199492D01*
X11455188Y-3195503D01*
X11516596Y-3205229D01*
X11533648Y-3222281D01*
X11568500Y-3174313D01*
X11581959Y-3166065D01*
X11632701Y-3140210D01*
X11668342Y-3122050D01*
X11758050Y-3032342D01*
X11815646Y-2919304D01*
X11835492Y-2794000D01*
X11815646Y-2668696D01*
X11758050Y-2555658D01*
X11668342Y-2465950D01*
X11668341Y-2465949D01*
X11555304Y-2408354D01*
X11555301Y-2408353D01*
X11430003Y-2388508D01*
X11429999Y-2388508D01*
X11404808Y-2392497D01*
X11343400Y-2382769D01*
X11299437Y-2338803D01*
X11289713Y-2277394D01*
X11317941Y-2221998D01*
X11360736Y-2196609D01*
X11366412Y-2194943D01*
X11476165Y-2124409D01*
X11561601Y-2025811D01*
X11615798Y-1907136D01*
X11634365Y-1778000D01*
X11615798Y-1648864D01*
X11561601Y-1530189D01*
X11476165Y-1431591D01*
X11366412Y-1361057D01*
X11241232Y-1324300D01*
X11119631Y-1324300D01*
X11060500Y-1305087D01*
X11053617Y-1295614D01*
X11034060Y-1333999D01*
X10991269Y-1359388D01*
X10985592Y-1361054D01*
X10985588Y-1361056D01*
X10908602Y-1410532D01*
X10875835Y-1431591D01*
X10875834Y-1431591D01*
X10874289Y-1432585D01*
X10814157Y-1448391D01*
X10756219Y-1425834D01*
X10722605Y-1373530D01*
X10719300Y-1347955D01*
X10719300Y-1253175D01*
X10738513Y-1194044D01*
X10788813Y-1157499D01*
X10835637Y-1153814D01*
X10921997Y-1167492D01*
X10922000Y-1167492D01*
X10922003Y-1167492D01*
X10947188Y-1163503D01*
X11008596Y-1173229D01*
X11025648Y-1190281D01*
X11060500Y-1142313D01*
X11073959Y-1134065D01*
X11124701Y-1108210D01*
X11160342Y-1090050D01*
X11250050Y-1000342D01*
X11307646Y-887304D01*
X11327492Y-762000D01*
X11307646Y-636696D01*
X11250050Y-523658D01*
X11160342Y-433950D01*
X11160341Y-433949D01*
X11047304Y-376354D01*
X11047301Y-376353D01*
X10922003Y-356508D01*
X10921999Y-356508D01*
X10896808Y-360497D01*
X10835400Y-350769D01*
X10791437Y-306803D01*
X10781713Y-245394D01*
X10809941Y-189998D01*
X10852736Y-164609D01*
X10858412Y-162943D01*
X10968165Y-92409D01*
X11053601Y6189D01*
X11107798Y124864D01*
X11126365Y254000D01*
X11107798Y383136D01*
X11053601Y501811D01*
X10968165Y600409D01*
X10858412Y670943D01*
X10733232Y707700D01*
X10611631Y707700D01*
X10552500Y726913D01*
X10545618Y736384D01*
X10526058Y697998D01*
X10483262Y672609D01*
X10477588Y670943D01*
X10367835Y600409D01*
X10282399Y501811D01*
X10282398Y501809D01*
X10282397Y501808D01*
X10228201Y383135D01*
X10209932Y256068D01*
X10182499Y200273D01*
X10181491Y199250D01*
X10178115Y195874D01*
X10178048Y195776D01*
X10169403Y184862D01*
X10149932Y163503D01*
X10149932Y163502D01*
X10146327Y154197D01*
X10135516Y133687D01*
X10129876Y125453D01*
X10129875Y125452D01*
X10123259Y97322D01*
X10119139Y84015D01*
X10108700Y57069D01*
X10108700Y47091D01*
X10106028Y24058D01*
X10103743Y14345D01*
X10103743Y14341D01*
X10107735Y-14272D01*
X10108700Y-28171D01*
X10108700Y-19340071D01*
X10089487Y-19399202D01*
X10039187Y-19435747D01*
X9977013Y-19435747D01*
X9936965Y-19411206D01*
X2874765Y-12349006D01*
X2846539Y-12293608D01*
X2845300Y-12277871D01*
X2845300Y-7475001D01*
X4495225Y-7475001D01*
X4514288Y-7692890D01*
X4570898Y-7904161D01*
X4663330Y-8102382D01*
X4663335Y-8102390D01*
X4706874Y-8164570D01*
X5266922Y-7604521D01*
X5290507Y-7684844D01*
X5368239Y-7805798D01*
X5476900Y-7899952D01*
X5607685Y-7959680D01*
X5617466Y-7961086D01*
X5060428Y-8518124D01*
X5122609Y-8561664D01*
X5122617Y-8561669D01*
X5320838Y-8654101D01*
X5532109Y-8710711D01*
X5749998Y-8729775D01*
X5750002Y-8729775D01*
X5967890Y-8710711D01*
X6179161Y-8654101D01*
X6377390Y-8561665D01*
X6439570Y-8518125D01*
X5882533Y-7961086D01*
X5892315Y-7959680D01*
X6023100Y-7899952D01*
X6131761Y-7805798D01*
X6209493Y-7684844D01*
X6233077Y-7604523D01*
X6793125Y-8164570D01*
X6836665Y-8102390D01*
X6929101Y-7904161D01*
X6985711Y-7692890D01*
X7004775Y-7475001D01*
X7004775Y-7474998D01*
X6985711Y-7257109D01*
X6929101Y-7045838D01*
X6836669Y-6847618D01*
X6836661Y-6847604D01*
X6793124Y-6785427D01*
X6233076Y-7345475D01*
X6209493Y-7265156D01*
X6131761Y-7144202D01*
X6023100Y-7050048D01*
X5892315Y-6990320D01*
X5882530Y-6988913D01*
X6439570Y-6431874D01*
X6377390Y-6388335D01*
X6377382Y-6388330D01*
X6179161Y-6295898D01*
X5967890Y-6239288D01*
X5750002Y-6220225D01*
X5749998Y-6220225D01*
X5532109Y-6239288D01*
X5320838Y-6295898D01*
X5122613Y-6388332D01*
X5122605Y-6388337D01*
X5060428Y-6431873D01*
X5060428Y-6431874D01*
X5617467Y-6988913D01*
X5607685Y-6990320D01*
X5476900Y-7050048D01*
X5368239Y-7144202D01*
X5290507Y-7265156D01*
X5266922Y-7345476D01*
X4706874Y-6785428D01*
X4706873Y-6785428D01*
X4663337Y-6847605D01*
X4663332Y-6847613D01*
X4570898Y-7045838D01*
X4514288Y-7257109D01*
X4495225Y-7474998D01*
X4495225Y-7475001D01*
X2845300Y-7475001D01*
X2845300Y-6715991D01*
X2864513Y-6656860D01*
X2914813Y-6620315D01*
X2976987Y-6620315D01*
X3018813Y-6646680D01*
X3111309Y-6743986D01*
X3274146Y-6857324D01*
X3274148Y-6857325D01*
X3274150Y-6857326D01*
X3347073Y-6888619D01*
X3456465Y-6935563D01*
X3650801Y-6975500D01*
X3650802Y-6975500D01*
X3799474Y-6975500D01*
X3947379Y-6960459D01*
X3947384Y-6960458D01*
X4037380Y-6932221D01*
X4136678Y-6901067D01*
X4310146Y-6804784D01*
X4460682Y-6675553D01*
X4582122Y-6518666D01*
X4669495Y-6340544D01*
X4719224Y-6148480D01*
X4729272Y-5950337D01*
X4699230Y-5754227D01*
X4630325Y-5568180D01*
X4525380Y-5399811D01*
X4388691Y-5256014D01*
X4225854Y-5142676D01*
X4225852Y-5142675D01*
X4225849Y-5142673D01*
X4043540Y-5064439D01*
X4043538Y-5064438D01*
X4043535Y-5064437D01*
X4043532Y-5064436D01*
X4043531Y-5064436D01*
X3922389Y-5039541D01*
X3849199Y-5024500D01*
X3700527Y-5024500D01*
X3700526Y-5024500D01*
X3552620Y-5039540D01*
X3552615Y-5039541D01*
X3363323Y-5098932D01*
X3189853Y-5195216D01*
X3189852Y-5195217D01*
X3039320Y-5324444D01*
X3025451Y-5342362D01*
X2974062Y-5377360D01*
X2911917Y-5375468D01*
X2862752Y-5337410D01*
X2845300Y-5280782D01*
X2845300Y-2697917D01*
X2864513Y-2638786D01*
X2874765Y-2626782D01*
X6771545Y1269997D01*
X10008508Y1269997D01*
X10028353Y1144698D01*
X10028354Y1144695D01*
X10085949Y1031658D01*
X10175658Y941949D01*
X10288695Y884354D01*
X10288698Y884353D01*
X10413997Y864508D01*
X10414000Y864508D01*
X10439190Y868497D01*
X10500599Y858769D01*
X10517648Y841718D01*
X10552500Y889687D01*
X10565959Y897935D01*
X10652341Y941949D01*
X10742050Y1031658D01*
X10799645Y1144695D01*
X10799646Y1144696D01*
X10819492Y1270000D01*
X10799646Y1395304D01*
X10742050Y1508342D01*
X10652342Y1598050D01*
X10539304Y1655646D01*
X10476652Y1665569D01*
X10414003Y1675492D01*
X10413997Y1675492D01*
X10388811Y1671503D01*
X10327402Y1681229D01*
X10310350Y1698280D01*
X10275500Y1650313D01*
X10262041Y1642065D01*
X10175658Y1598050D01*
X10085949Y1508341D01*
X10028354Y1395304D01*
X10028353Y1395301D01*
X10008508Y1270002D01*
X10008508Y1269997D01*
X6771545Y1269997D01*
X8214783Y2713235D01*
X8270181Y2741461D01*
X8285918Y2742700D01*
X9229871Y2742700D01*
X9289002Y2723487D01*
X9301006Y2713235D01*
X9673491Y2340748D01*
X9701717Y2285350D01*
X9701932Y2283930D01*
X9720201Y2156864D01*
X9774397Y2038191D01*
X9859833Y1939592D01*
X9969587Y1869057D01*
X10032178Y1850678D01*
X10094768Y1832300D01*
X10094769Y1832300D01*
X10216369Y1832300D01*
X10275500Y1813087D01*
X10282381Y1803615D01*
X10301939Y1841999D01*
X10344732Y1867389D01*
X10350410Y1869056D01*
X10350411Y1869056D01*
X10405288Y1904324D01*
X10460165Y1939591D01*
X10545601Y2038189D01*
X10599798Y2156864D01*
X10615695Y2267432D01*
X10618365Y2285999D01*
X10618365Y2286000D01*
X10599798Y2415136D01*
X10545601Y2533811D01*
X10460165Y2632409D01*
X10350412Y2702943D01*
X10225232Y2739700D01*
X10225231Y2739700D01*
X10179729Y2739700D01*
X10120598Y2758913D01*
X10108595Y2769164D01*
X10103242Y2774515D01*
X10082907Y2794851D01*
X10054681Y2850247D01*
X10064406Y2911656D01*
X10108369Y2955620D01*
X10108370Y2955621D01*
X10144341Y2973949D01*
X10234050Y3063658D01*
X10291645Y3176695D01*
X10291646Y3176696D01*
X10311492Y3302000D01*
X10291646Y3427304D01*
X10234050Y3540342D01*
X10144342Y3630050D01*
X10031304Y3687646D01*
X9968652Y3697569D01*
X9906003Y3707492D01*
X9905997Y3707492D01*
X9880811Y3703503D01*
X9819402Y3713229D01*
X9802350Y3730280D01*
X9767500Y3682313D01*
X9754041Y3674065D01*
X9667658Y3630050D01*
X9577949Y3540341D01*
X9516759Y3420249D01*
X9515641Y3420818D01*
X9483806Y3377005D01*
X9424674Y3357794D01*
X9420032Y3357901D01*
X9412350Y3358255D01*
X9412344Y3358257D01*
X9383728Y3354265D01*
X9369829Y3353300D01*
X8594823Y3353300D01*
X8535692Y3372513D01*
X8499147Y3422813D01*
X8499147Y3484987D01*
X8523688Y3525035D01*
X8981888Y3983235D01*
X9037286Y4011461D01*
X9053023Y4012700D01*
X9270271Y4012700D01*
X9329402Y3993487D01*
X9346300Y3977978D01*
X9351832Y3971593D01*
X9461587Y3901057D01*
X9524178Y3882678D01*
X9586768Y3864300D01*
X9586769Y3864300D01*
X9708369Y3864300D01*
X9767500Y3845087D01*
X9774381Y3835615D01*
X9793939Y3873999D01*
X9836732Y3899389D01*
X9842410Y3901056D01*
X9842411Y3901056D01*
X9897288Y3936324D01*
X9952165Y3971591D01*
X10037601Y4070189D01*
X10091798Y4188864D01*
X10110365Y4318000D01*
X10091798Y4447136D01*
X10037601Y4565811D01*
X9952165Y4664409D01*
X9842412Y4734943D01*
X9717232Y4771700D01*
X9595631Y4771700D01*
X9536500Y4790913D01*
X9529618Y4800384D01*
X9510058Y4761998D01*
X9467262Y4736609D01*
X9461588Y4734943D01*
X9351835Y4664409D01*
X9351832Y4664405D01*
X9347832Y4661835D01*
X9287701Y4646029D01*
X9229763Y4668586D01*
X9196148Y4720890D01*
X9194556Y4764951D01*
X9195300Y4768930D01*
X9195300Y4778913D01*
X9197972Y4801943D01*
X9200255Y4811651D01*
X9200256Y4811656D01*
X9197882Y4828669D01*
X9208740Y4889885D01*
X9253507Y4933031D01*
X9313253Y4941930D01*
X9398000Y4928508D01*
X9423190Y4932497D01*
X9484599Y4922769D01*
X9501648Y4905718D01*
X9536500Y4953687D01*
X9549959Y4961935D01*
X9636341Y5005949D01*
X9726050Y5095658D01*
X9750007Y5142676D01*
X9783646Y5208696D01*
X9803492Y5334000D01*
X9783646Y5459304D01*
X9726050Y5572342D01*
X9636342Y5662050D01*
X9523304Y5719646D01*
X9460652Y5729569D01*
X9398003Y5739492D01*
X9397997Y5739492D01*
X9372811Y5735503D01*
X9311402Y5745229D01*
X9267439Y5789193D01*
X9257713Y5850602D01*
X9285939Y5905999D01*
X9328732Y5931389D01*
X9334410Y5933056D01*
X9334411Y5933056D01*
X9389288Y5968324D01*
X9444165Y6003591D01*
X9529601Y6102189D01*
X9583798Y6220864D01*
X9602365Y6350000D01*
X9583798Y6479136D01*
X9529601Y6597811D01*
X9444165Y6696409D01*
X9334412Y6766943D01*
X9209232Y6803700D01*
X9087631Y6803700D01*
X9028500Y6822913D01*
X9021618Y6832384D01*
X9002058Y6793998D01*
X8959262Y6768609D01*
X8953588Y6766943D01*
X8843835Y6696409D01*
X8843832Y6696405D01*
X8842289Y6695414D01*
X8782158Y6679608D01*
X8724220Y6702165D01*
X8690605Y6754469D01*
X8687300Y6780044D01*
X8687300Y6874824D01*
X8706513Y6933955D01*
X8756813Y6970500D01*
X8803636Y6974186D01*
X8890000Y6960508D01*
X8915190Y6964497D01*
X8976599Y6954769D01*
X8993648Y6937718D01*
X9028500Y6985687D01*
X9041959Y6993935D01*
X9128341Y7037949D01*
X9218050Y7127658D01*
X9275645Y7240695D01*
X9275646Y7240696D01*
X9295492Y7366000D01*
X9275646Y7491304D01*
X9218050Y7604342D01*
X9128342Y7694050D01*
X9015304Y7751646D01*
X8952652Y7761569D01*
X8890003Y7771492D01*
X8889997Y7771492D01*
X8864811Y7767503D01*
X8803402Y7777229D01*
X8759439Y7821193D01*
X8749713Y7882602D01*
X8777939Y7937999D01*
X8820732Y7963389D01*
X8826410Y7965056D01*
X8826411Y7965056D01*
X8881288Y8000324D01*
X8936165Y8035591D01*
X9021601Y8134189D01*
X9075798Y8252864D01*
X9094365Y8382000D01*
X9075798Y8511136D01*
X9021601Y8629811D01*
X8936165Y8728409D01*
X8826412Y8798943D01*
X8701232Y8835700D01*
X8579631Y8835700D01*
X8520500Y8854913D01*
X8513618Y8864384D01*
X8494058Y8825998D01*
X8451262Y8800609D01*
X8445588Y8798943D01*
X8335835Y8728409D01*
X8335832Y8728405D01*
X8334289Y8727414D01*
X8274158Y8711608D01*
X8216220Y8734165D01*
X8182605Y8786469D01*
X8179300Y8812044D01*
X8179300Y8906824D01*
X8198513Y8965955D01*
X8248813Y9002500D01*
X8295636Y9006186D01*
X8382000Y8992508D01*
X8407190Y8996497D01*
X8468599Y8986769D01*
X8485648Y8969718D01*
X8520500Y9017687D01*
X8533959Y9025935D01*
X8620341Y9069949D01*
X8710050Y9159658D01*
X8767645Y9272695D01*
X8767646Y9272696D01*
X8787492Y9398000D01*
X8767646Y9523304D01*
X8710050Y9636342D01*
X8620342Y9726050D01*
X8507304Y9783646D01*
X8444652Y9793569D01*
X8382003Y9803492D01*
X8381997Y9803492D01*
X8356811Y9799503D01*
X8295402Y9809229D01*
X8251439Y9853193D01*
X8241713Y9914602D01*
X8269939Y9969999D01*
X8312732Y9995389D01*
X8318410Y9997056D01*
X8318411Y9997056D01*
X8373288Y10032324D01*
X8428165Y10067591D01*
X8513601Y10166189D01*
X8567798Y10284864D01*
X8586365Y10414000D01*
X8567798Y10543136D01*
X8513601Y10661811D01*
X8428165Y10760409D01*
X8318412Y10830943D01*
X8193232Y10867700D01*
X8062768Y10867700D01*
X7937588Y10830943D01*
X7827835Y10760409D01*
X7742399Y10661811D01*
X7742398Y10661809D01*
X7742397Y10661808D01*
X7688201Y10543135D01*
X7669932Y10416068D01*
X7642499Y10360273D01*
X7641491Y10359250D01*
X7638115Y10355874D01*
X7638048Y10355776D01*
X7629403Y10344862D01*
X7609932Y10323503D01*
X7609932Y10323502D01*
X7606327Y10314197D01*
X7595516Y10293687D01*
X7589876Y10285453D01*
X7589875Y10285452D01*
X7583259Y10257322D01*
X7579139Y10244015D01*
X7568700Y10217069D01*
X7568700Y10207091D01*
X7566028Y10184058D01*
X7563743Y10174345D01*
X7563743Y10174341D01*
X7567735Y10145727D01*
X7568700Y10131828D01*
X7568700Y4983917D01*
X7549487Y4924786D01*
X7539235Y4912782D01*
X338936Y-2287515D01*
X327528Y-2295757D01*
X328269Y-2296738D01*
X320827Y-2302358D01*
X288696Y-2337603D01*
X285493Y-2340958D01*
X272114Y-2354338D01*
X272112Y-2354341D01*
X272036Y-2354452D01*
X263406Y-2365345D01*
X243935Y-2386705D01*
X243930Y-2386712D01*
X240322Y-2396025D01*
X229517Y-2416523D01*
X223878Y-2424754D01*
X223876Y-2424760D01*
X217257Y-2452896D01*
X213138Y-2466196D01*
X202700Y-2493140D01*
X202700Y-2503120D01*
X200028Y-2526151D01*
X197743Y-2535864D01*
X197743Y-2535870D01*
X-202565Y-2535870D01*
X-202593Y-2535263D01*
X-202700Y-2530618D01*
X-202700Y-2511707D01*
X-202725Y-2511574D01*
X-204325Y-2497766D01*
X-205661Y-2468896D01*
X-205662Y-2468890D01*
X-209694Y-2459758D01*
X-216549Y-2437618D01*
X-218383Y-2427806D01*
X-218384Y-2427804D01*
X-233599Y-2403231D01*
X-240094Y-2390909D01*
X-251766Y-2364473D01*
X-258830Y-2357409D01*
X-273213Y-2339250D01*
X-278469Y-2330761D01*
X-278471Y-2330759D01*
X-301533Y-2313343D01*
X-312039Y-2304200D01*
X-7539235Y4922994D01*
X-7567461Y4978392D01*
X-7568700Y4994129D01*
X-7568700Y5950337D01*
X-4729272Y5950337D01*
X-4699230Y5754227D01*
X-4630325Y5568180D01*
X-4525380Y5399811D01*
X-4388691Y5256014D01*
X-4225854Y5142676D01*
X-4225852Y5142675D01*
X-4225849Y5142673D01*
X-4043540Y5064439D01*
X-4043535Y5064437D01*
X-4043532Y5064436D01*
X-4043531Y5064436D01*
X-3953338Y5045901D01*
X-3849199Y5024500D01*
X-3849198Y5024500D01*
X-3700526Y5024500D01*
X-3552620Y5039540D01*
X-3552615Y5039541D01*
X-3363323Y5098932D01*
X-3189853Y5195216D01*
X-3189852Y5195217D01*
X-3039319Y5324445D01*
X-2917879Y5481331D01*
X-2830505Y5659455D01*
X-2830504Y5659457D01*
X-2780775Y5851523D01*
X-2780775Y5851524D01*
X-2775764Y5950337D01*
X2770728Y5950337D01*
X2795414Y5789193D01*
X2800770Y5754227D01*
X2800772Y5754220D01*
X2869674Y5568182D01*
X2974621Y5399809D01*
X3111306Y5256016D01*
X3274150Y5142673D01*
X3456459Y5064439D01*
X3456468Y5064436D01*
X3577615Y5039540D01*
X3650801Y5024500D01*
X3650802Y5024500D01*
X3799474Y5024500D01*
X3947379Y5039540D01*
X3947384Y5039541D01*
X4136676Y5098932D01*
X4310146Y5195216D01*
X4310147Y5195217D01*
X4460680Y5324445D01*
X4468077Y5334000D01*
X4565067Y5459301D01*
X4582120Y5481331D01*
X4582120Y5481332D01*
X4582122Y5481334D01*
X4669495Y5659456D01*
X4719224Y5851520D01*
X4729272Y6049663D01*
X4699230Y6245773D01*
X4630325Y6431820D01*
X4525380Y6600189D01*
X4388691Y6743986D01*
X4225854Y6857324D01*
X4043535Y6935563D01*
X3849199Y6975500D01*
X3700527Y6975500D01*
X3700526Y6975500D01*
X3552620Y6960459D01*
X3552615Y6960458D01*
X3425241Y6920494D01*
X3363322Y6901067D01*
X3189854Y6804784D01*
X3131244Y6754469D01*
X3039319Y6675554D01*
X2917879Y6518668D01*
X2917878Y6518666D01*
X2875304Y6431873D01*
X2830505Y6340544D01*
X2830504Y6340542D01*
X2780775Y6148476D01*
X2780775Y6148475D01*
X2770728Y5950339D01*
X2770728Y5950337D01*
X-2775764Y5950337D01*
X-2770728Y6049660D01*
X-2770728Y6049663D01*
X-2800770Y6245772D01*
X-2800772Y6245779D01*
X-2869674Y6431817D01*
X-2869675Y6431820D01*
X-2974620Y6600189D01*
X-3071555Y6702165D01*
X-3111306Y6743983D01*
X-3111309Y6743986D01*
X-3274146Y6857324D01*
X-3274148Y6857325D01*
X-3274150Y6857326D01*
X-3376080Y6901067D01*
X-3456465Y6935563D01*
X-3650801Y6975500D01*
X-3799473Y6975500D01*
X-3799474Y6975500D01*
X-3947379Y6960459D01*
X-3947384Y6960458D01*
X-4019861Y6937718D01*
X-4136678Y6901067D01*
X-4310146Y6804784D01*
X-4460682Y6675553D01*
X-4582122Y6518666D01*
X-4669495Y6340544D01*
X-4719224Y6148480D01*
X-4729272Y5950337D01*
X-7568700Y5950337D01*
X-7568700Y7474998D01*
X-7004775Y7474998D01*
X-6985711Y7257109D01*
X-6929101Y7045838D01*
X-6836669Y6847617D01*
X-6836664Y6847609D01*
X-6793124Y6785428D01*
X-6233076Y7345475D01*
X-6209493Y7265156D01*
X-6131761Y7144202D01*
X-6023100Y7050048D01*
X-5892315Y6990320D01*
X-5882532Y6988913D01*
X-6439570Y6431874D01*
X-6377390Y6388335D01*
X-6377382Y6388330D01*
X-6179161Y6295898D01*
X-5967890Y6239288D01*
X-5750002Y6220225D01*
X-5749998Y6220225D01*
X-5532109Y6239288D01*
X-5320838Y6295898D01*
X-5122619Y6388329D01*
X-5122607Y6388336D01*
X-5060428Y6431873D01*
X-5060428Y6431874D01*
X-5617466Y6988913D01*
X-5607685Y6990320D01*
X-5476900Y7050048D01*
X-5368239Y7144202D01*
X-5290507Y7265156D01*
X-5266922Y7345476D01*
X-4706874Y6785428D01*
X-4706873Y6785428D01*
X-4663336Y6847607D01*
X-4663329Y6847619D01*
X-4570898Y7045838D01*
X-4514288Y7257109D01*
X-4495225Y7474998D01*
X4495225Y7474998D01*
X4514288Y7257109D01*
X4570898Y7045838D01*
X4663329Y6847619D01*
X4663336Y6847607D01*
X4706873Y6785428D01*
X4706874Y6785428D01*
X5266922Y7345476D01*
X5290507Y7265156D01*
X5368239Y7144202D01*
X5476900Y7050048D01*
X5607685Y6990320D01*
X5617466Y6988913D01*
X5060428Y6431874D01*
X5060428Y6431873D01*
X5122607Y6388336D01*
X5122619Y6388329D01*
X5320838Y6295898D01*
X5532109Y6239288D01*
X5749998Y6220225D01*
X5750002Y6220225D01*
X5967890Y6239288D01*
X6179161Y6295898D01*
X6377382Y6388330D01*
X6377390Y6388335D01*
X6439570Y6431874D01*
X5882532Y6988913D01*
X5892315Y6990320D01*
X6023100Y7050048D01*
X6131761Y7144202D01*
X6209493Y7265156D01*
X6233076Y7345475D01*
X6793124Y6785428D01*
X6836664Y6847609D01*
X6836669Y6847617D01*
X6929101Y7045838D01*
X6985711Y7257109D01*
X7004775Y7474998D01*
X7004775Y7475001D01*
X6985711Y7692890D01*
X6929101Y7904161D01*
X6836669Y8102381D01*
X6836664Y8102389D01*
X6793124Y8164570D01*
X6233077Y7604523D01*
X6209493Y7684844D01*
X6131761Y7805798D01*
X6023100Y7899952D01*
X5892315Y7959680D01*
X5882532Y7961086D01*
X6439570Y8518125D01*
X6439571Y8518125D01*
X6377390Y8561665D01*
X6179161Y8654101D01*
X5967890Y8710711D01*
X5750002Y8729775D01*
X5749998Y8729775D01*
X5532109Y8710711D01*
X5320838Y8654101D01*
X5122618Y8561669D01*
X5122604Y8561661D01*
X5060427Y8518125D01*
X5617465Y7961086D01*
X5607685Y7959680D01*
X5476900Y7899952D01*
X5368239Y7805798D01*
X5290507Y7684844D01*
X5266922Y7604521D01*
X4706874Y8164570D01*
X4706873Y8164570D01*
X4663336Y8102391D01*
X4663329Y8102379D01*
X4570898Y7904161D01*
X4514288Y7692890D01*
X4495225Y7475001D01*
X4495225Y7474998D01*
X-4495225Y7474998D01*
X-4495225Y7475001D01*
X-4514288Y7692890D01*
X-4570898Y7904161D01*
X-4663329Y8102379D01*
X-4663336Y8102391D01*
X-4706873Y8164570D01*
X-4706874Y8164570D01*
X-5266922Y7604521D01*
X-5290507Y7684844D01*
X-5368239Y7805798D01*
X-5476900Y7899952D01*
X-5607685Y7959680D01*
X-5617465Y7961086D01*
X-5060428Y8518124D01*
X-5122609Y8561664D01*
X-5122617Y8561669D01*
X-5320838Y8654101D01*
X-5532109Y8710711D01*
X-5749998Y8729775D01*
X-5750002Y8729775D01*
X-5967890Y8710711D01*
X-6179161Y8654101D01*
X-6377381Y8561669D01*
X-6377389Y8561664D01*
X-6439570Y8518124D01*
X-5882532Y7961086D01*
X-5892315Y7959680D01*
X-6023100Y7899952D01*
X-6131761Y7805798D01*
X-6209493Y7684844D01*
X-6233077Y7604523D01*
X-6793124Y8164570D01*
X-6836664Y8102389D01*
X-6836669Y8102381D01*
X-6929101Y7904161D01*
X-6985711Y7692890D01*
X-7004775Y7475001D01*
X-7004775Y7474998D01*
X-7568700Y7474998D01*
X-7568700Y10093788D01*
X-7566444Y10107686D01*
X-7567678Y10107859D01*
X-7566390Y10117088D01*
X-7567072Y10131828D01*
X-7568593Y10164735D01*
X-7568700Y10169381D01*
X-7568700Y10188286D01*
X-7568702Y10188303D01*
X-7568722Y10188409D01*
X-7570325Y10202233D01*
X-7571660Y10231104D01*
X-7571662Y10231109D01*
X-7575692Y10240237D01*
X-7582550Y10262382D01*
X-7584384Y10272196D01*
X-7592228Y10284863D01*
X-7599599Y10296769D01*
X-7606092Y10309087D01*
X-7617765Y10335524D01*
X-7624823Y10342582D01*
X-7639219Y10360757D01*
X-7644472Y10369241D01*
X-7645876Y10370781D01*
X-7647319Y10373839D01*
X-7649380Y10377167D01*
X-7649000Y10377401D01*
X-7671106Y10424236D01*
X-7688201Y10543135D01*
X-7742397Y10661808D01*
X-7742398Y10661809D01*
X-7742399Y10661811D01*
X-7827835Y10760409D01*
X-7937588Y10830943D01*
X-8062768Y10867700D01*
X-8193232Y10867700D01*
X-8318412Y10830943D01*
X-8428165Y10760409D01*
X-8513601Y10661811D01*
X-8567798Y10543136D01*
X-8586365Y10414000D01*
X-8567798Y10284864D01*
X-8513601Y10166189D01*
X-8428165Y10067591D01*
X-8373288Y10032324D01*
X-8318411Y9997056D01*
X-8312732Y9995389D01*
X-8261409Y9960295D01*
X-8240515Y9901737D01*
X-8258032Y9842081D01*
X-8307267Y9804114D01*
X-8356811Y9799503D01*
X-8381997Y9803492D01*
X-8382003Y9803492D01*
X-8444652Y9793569D01*
X-8507304Y9783646D01*
X-8620342Y9726050D01*
X-8710050Y9636342D01*
X-8767646Y9523304D01*
X-8787492Y9398000D01*
X-8767646Y9272696D01*
X-8767645Y9272695D01*
X-8710050Y9159658D01*
X-8620341Y9069949D01*
X-8533959Y9025935D01*
X-8489996Y8981971D01*
X-8487774Y8967946D01*
X-8456736Y8991883D01*
X-8407190Y8996497D01*
X-8382000Y8992508D01*
X-8295636Y9006186D01*
X-8234228Y8996459D01*
X-8190264Y8952494D01*
X-8179300Y8906824D01*
X-8179300Y8812044D01*
X-8198513Y8752913D01*
X-8248813Y8716368D01*
X-8310987Y8716368D01*
X-8334289Y8727414D01*
X-8335832Y8728405D01*
X-8335835Y8728409D01*
X-8445588Y8798943D01*
X-8451262Y8800609D01*
X-8502587Y8835700D01*
X-8512393Y8863179D01*
X-8563894Y8836938D01*
X-8579631Y8835700D01*
X-8701232Y8835700D01*
X-8826412Y8798943D01*
X-8936165Y8728409D01*
X-9021601Y8629811D01*
X-9075798Y8511136D01*
X-9094365Y8382000D01*
X-9075798Y8252864D01*
X-9021601Y8134189D01*
X-8936165Y8035591D01*
X-8881288Y8000324D01*
X-8826411Y7965056D01*
X-8820732Y7963389D01*
X-8769409Y7928295D01*
X-8748515Y7869737D01*
X-8766032Y7810081D01*
X-8815267Y7772114D01*
X-8864811Y7767503D01*
X-8889997Y7771492D01*
X-8890003Y7771492D01*
X-8952652Y7761569D01*
X-9015304Y7751646D01*
X-9128342Y7694050D01*
X-9218050Y7604342D01*
X-9275646Y7491304D01*
X-9295492Y7366000D01*
X-9275646Y7240696D01*
X-9275645Y7240695D01*
X-9218050Y7127658D01*
X-9128341Y7037949D01*
X-9041959Y6993935D01*
X-8997996Y6949971D01*
X-8995774Y6935946D01*
X-8964736Y6959883D01*
X-8915190Y6964497D01*
X-8890000Y6960508D01*
X-8803636Y6974186D01*
X-8742228Y6964459D01*
X-8698264Y6920494D01*
X-8687300Y6874824D01*
X-8687300Y6780044D01*
X-8706513Y6720913D01*
X-8756813Y6684368D01*
X-8818987Y6684368D01*
X-8842289Y6695414D01*
X-8843832Y6696405D01*
X-8843835Y6696409D01*
X-8953588Y6766943D01*
X-8959262Y6768609D01*
X-9010587Y6803700D01*
X-9020393Y6831179D01*
X-9071894Y6804938D01*
X-9087631Y6803700D01*
X-9209232Y6803700D01*
X-9334412Y6766943D01*
X-9444165Y6696409D01*
X-9529601Y6597811D01*
X-9583798Y6479136D01*
X-9602365Y6350000D01*
X-9583798Y6220864D01*
X-9529601Y6102189D01*
X-9444165Y6003591D01*
X-9389288Y5968324D01*
X-9334411Y5933056D01*
X-9328732Y5931389D01*
X-9277409Y5896295D01*
X-9256515Y5837737D01*
X-9274032Y5778081D01*
X-9323267Y5740114D01*
X-9372811Y5735503D01*
X-9397997Y5739492D01*
X-9398003Y5739492D01*
X-9460652Y5729569D01*
X-9523304Y5719646D01*
X-9636342Y5662050D01*
X-9726050Y5572342D01*
X-9783646Y5459304D01*
X-9803492Y5334000D01*
X-9783646Y5208696D01*
X-9750007Y5142676D01*
X-9726050Y5095658D01*
X-9636341Y5005949D01*
X-9549959Y4961935D01*
X-9505996Y4917971D01*
X-9503774Y4903946D01*
X-9472736Y4927883D01*
X-9423190Y4932497D01*
X-9398000Y4928508D01*
X-9312370Y4942070D01*
X-9250962Y4932343D01*
X-9206998Y4888379D01*
X-9196141Y4847354D01*
X-9195407Y4831476D01*
X-9195300Y4826830D01*
X-9195300Y4807921D01*
X-9195280Y4807815D01*
X-9193672Y4793972D01*
X-9192338Y4765103D01*
X-9191907Y4755791D01*
X-9193962Y4755695D01*
X-9198121Y4705786D01*
X-9238716Y4658694D01*
X-9299238Y4644456D01*
X-9344028Y4663249D01*
X-9345783Y4660519D01*
X-9351833Y4664407D01*
X-9351835Y4664409D01*
X-9461588Y4734943D01*
X-9467262Y4736609D01*
X-9518587Y4771700D01*
X-9528393Y4799179D01*
X-9579894Y4772938D01*
X-9595631Y4771700D01*
X-9717232Y4771700D01*
X-9842412Y4734943D01*
X-9952165Y4664409D01*
X-10037601Y4565811D01*
X-10091798Y4447136D01*
X-10110365Y4318000D01*
X-10091798Y4188864D01*
X-10037601Y4070189D01*
X-9952165Y3971591D01*
X-9897288Y3936324D01*
X-9842411Y3901056D01*
X-9836732Y3899389D01*
X-9785409Y3864295D01*
X-9775606Y3836821D01*
X-9724106Y3863062D01*
X-9708369Y3864300D01*
X-9586769Y3864300D01*
X-9586768Y3864300D01*
X-9524178Y3882678D01*
X-9461587Y3901057D01*
X-9351832Y3971593D01*
X-9351831Y3971593D01*
X-9346300Y3977978D01*
X-9293058Y4010085D01*
X-9270271Y4012700D01*
X-9042811Y4012700D01*
X-8983680Y3993487D01*
X-8971676Y3983235D01*
X-8767476Y3779035D01*
X-8739250Y3723637D01*
X-8748976Y3662229D01*
X-8792940Y3618265D01*
X-8838611Y3607300D01*
X-9077789Y3607300D01*
X-9091685Y3609567D01*
X-9091859Y3608322D01*
X-9101086Y3609608D01*
X-9101090Y3609610D01*
X-9148497Y3607417D01*
X-9148735Y3607407D01*
X-9153381Y3607300D01*
X-9172289Y3607300D01*
X-9172411Y3607277D01*
X-9186234Y3605672D01*
X-9215109Y3604338D01*
X-9224235Y3600308D01*
X-9246387Y3593448D01*
X-9256197Y3591615D01*
X-9280771Y3576398D01*
X-9293089Y3569905D01*
X-9319525Y3558234D01*
X-9326579Y3551178D01*
X-9344759Y3536778D01*
X-9353242Y3531527D01*
X-9370660Y3508460D01*
X-9379793Y3497964D01*
X-9398853Y3478904D01*
X-9454249Y3450680D01*
X-9515657Y3460406D01*
X-9559621Y3504370D01*
X-9577950Y3540342D01*
X-9667658Y3630050D01*
X-9754041Y3674065D01*
X-9798004Y3718029D01*
X-9800224Y3732051D01*
X-9831267Y3708114D01*
X-9880811Y3703503D01*
X-9905997Y3707492D01*
X-9906003Y3707492D01*
X-9968652Y3697569D01*
X-10031304Y3687646D01*
X-10144342Y3630050D01*
X-10234050Y3540342D01*
X-10291646Y3427304D01*
X-10311492Y3302000D01*
X-10291646Y3176696D01*
X-10291645Y3176695D01*
X-10234050Y3063658D01*
X-10144341Y2973949D01*
X-10108370Y2955621D01*
X-10064407Y2911657D01*
X-10054681Y2850248D01*
X-10082906Y2794852D01*
X-10103242Y2774515D01*
X-10108595Y2769164D01*
X-10163994Y2740938D01*
X-10179729Y2739700D01*
X-10225232Y2739700D01*
X-10350412Y2702943D01*
X-10460165Y2632409D01*
X-10545601Y2533811D01*
X-10599798Y2415136D01*
X-10618365Y2286000D01*
X-10618365Y2285999D01*
X-10615695Y2267432D01*
X-10599798Y2156864D01*
X-10545601Y2038189D01*
X-10460165Y1939591D01*
X-10405288Y1904324D01*
X-10350411Y1869056D01*
X-10344732Y1867389D01*
X-10293409Y1832295D01*
X-10283606Y1804821D01*
X-10232106Y1831062D01*
X-10216369Y1832300D01*
X-10094769Y1832300D01*
X-10094768Y1832300D01*
X-10032178Y1850678D01*
X-9969587Y1869057D01*
X-9859833Y1939592D01*
X-9774397Y2038191D01*
X-9720201Y2156864D01*
X-9701932Y2283930D01*
X-9674499Y2339725D01*
X-9673491Y2340748D01*
X-9047006Y2967235D01*
X-8991608Y2995461D01*
X-8975871Y2996700D01*
X-8529705Y2996700D01*
X-8470574Y2977487D01*
X-8458570Y2967235D01*
X-2874765Y-2616570D01*
X-2846539Y-2671968D01*
X-2845300Y-2687705D01*
X-2845300Y-5284008D01*
X-2864513Y-5343139D01*
X-2914813Y-5379684D01*
X-2976987Y-5379684D01*
X-3018814Y-5353318D01*
X-3111306Y-5256016D01*
X-3274150Y-5142673D01*
X-3456459Y-5064439D01*
X-3456468Y-5064436D01*
X-3582996Y-5038434D01*
X-3650801Y-5024500D01*
X-3799473Y-5024500D01*
X-3799474Y-5024500D01*
X-3947379Y-5039540D01*
X-3947384Y-5039541D01*
X-4136676Y-5098932D01*
X-4136677Y-5098932D01*
X-4136678Y-5098933D01*
X-4310146Y-5195216D01*
X-4340762Y-5221499D01*
X-4409818Y-5280782D01*
X-4460682Y-5324447D01*
X-4483030Y-5353318D01*
X-4574189Y-5471086D01*
X-4582122Y-5481334D01*
X-4669495Y-5659456D01*
X-4719224Y-5851520D01*
X-4729272Y-6049663D01*
X-4699230Y-6245773D01*
X-4630325Y-6431820D01*
X-4525380Y-6600189D01*
X-4388691Y-6743986D01*
X-4225854Y-6857324D01*
X-4043535Y-6935563D01*
X-3849199Y-6975500D01*
X-3849198Y-6975500D01*
X-3700526Y-6975500D01*
X-3552620Y-6960459D01*
X-3552615Y-6960458D01*
X-3412970Y-6916644D01*
X-3363322Y-6901067D01*
X-3189854Y-6804784D01*
X-3039318Y-6675553D01*
X-3025450Y-6657638D01*
X-2974064Y-6622640D01*
X-2911919Y-6624530D01*
X-2862753Y-6662587D01*
X-2845300Y-6719217D01*
X-2845300Y-12277871D01*
X-2864513Y-12337002D01*
X-2874765Y-12349006D01*
X-9936965Y-19411206D01*
X-9992363Y-19439432D01*
X-10053771Y-19429706D01*
X-10097735Y-19385742D01*
X-10108700Y-19340071D01*
X-10108700Y-7475001D01*
X-7004775Y-7475001D01*
X-6985711Y-7692890D01*
X-6929101Y-7904161D01*
X-6836665Y-8102390D01*
X-6793125Y-8164570D01*
X-6233077Y-7604523D01*
X-6209493Y-7684844D01*
X-6131761Y-7805798D01*
X-6023100Y-7899952D01*
X-5892315Y-7959680D01*
X-5882533Y-7961086D01*
X-6439570Y-8518125D01*
X-6439571Y-8518125D01*
X-6377390Y-8561665D01*
X-6179161Y-8654101D01*
X-5967890Y-8710711D01*
X-5750002Y-8729775D01*
X-5749998Y-8729775D01*
X-5532109Y-8710711D01*
X-5320838Y-8654101D01*
X-5122617Y-8561669D01*
X-5122609Y-8561664D01*
X-5060428Y-8518124D01*
X-5617466Y-7961086D01*
X-5607685Y-7959680D01*
X-5476900Y-7899952D01*
X-5368239Y-7805798D01*
X-5290507Y-7684844D01*
X-5266922Y-7604521D01*
X-4706874Y-8164570D01*
X-4663335Y-8102390D01*
X-4663330Y-8102382D01*
X-4570898Y-7904161D01*
X-4514288Y-7692890D01*
X-4495225Y-7475001D01*
X-4495225Y-7474998D01*
X-4514288Y-7257109D01*
X-4570898Y-7045838D01*
X-4663332Y-6847613D01*
X-4663337Y-6847605D01*
X-4706873Y-6785428D01*
X-4706874Y-6785428D01*
X-5266922Y-7345476D01*
X-5290507Y-7265156D01*
X-5368239Y-7144202D01*
X-5476900Y-7050048D01*
X-5607685Y-6990320D01*
X-5617467Y-6988913D01*
X-5060428Y-6431874D01*
X-5060428Y-6431873D01*
X-5122607Y-6388336D01*
X-5122619Y-6388329D01*
X-5320838Y-6295898D01*
X-5532109Y-6239288D01*
X-5749998Y-6220225D01*
X-5750002Y-6220225D01*
X-5967890Y-6239288D01*
X-6179161Y-6295898D01*
X-6377379Y-6388329D01*
X-6377391Y-6388336D01*
X-6439570Y-6431873D01*
X-6439570Y-6431874D01*
X-5882530Y-6988913D01*
X-5892315Y-6990320D01*
X-6023100Y-7050048D01*
X-6131761Y-7144202D01*
X-6209493Y-7265156D01*
X-6233076Y-7345475D01*
X-6793125Y-6785427D01*
X-6836661Y-6847604D01*
X-6836669Y-6847618D01*
X-6929101Y-7045838D01*
X-6985711Y-7257109D01*
X-7004775Y-7474998D01*
X-7004775Y-7475001D01*
X-10108700Y-7475001D01*
X-10108700Y-66215D01*
X-10106432Y-52320D01*
X-10107678Y-52147D01*
X-10106390Y-42914D01*
X-10108593Y4736D01*
X-10108700Y9381D01*
X-10108700Y28286D01*
X-10108702Y28303D01*
X-10108722Y28409D01*
X-10110325Y42233D01*
X-10111660Y71104D01*
X-10111662Y71109D01*
X-10115692Y80237D01*
X-10122550Y102382D01*
X-10124384Y112196D01*
X-10132228Y124863D01*
X-10139599Y136769D01*
X-10146092Y149087D01*
X-10157765Y175524D01*
X-10164823Y182582D01*
X-10179219Y200757D01*
X-10184472Y209241D01*
X-10185876Y210781D01*
X-10187319Y213839D01*
X-10189380Y217167D01*
X-10189000Y217401D01*
X-10211106Y264236D01*
X-10228201Y383135D01*
X-10282397Y501808D01*
X-10282398Y501809D01*
X-10282399Y501811D01*
X-10367835Y600409D01*
X-10477588Y670943D01*
X-10483262Y672609D01*
X-10534587Y707700D01*
X-10544393Y735179D01*
X-10595894Y708938D01*
X-10611631Y707700D01*
X-10733232Y707700D01*
X-10858412Y670943D01*
X-10968165Y600409D01*
X-11053601Y501811D01*
X-11107798Y383136D01*
X-11126365Y254000D01*
X-11107798Y124864D01*
X-11053601Y6189D01*
X-10968165Y-92409D01*
X-10858412Y-162943D01*
X-10852736Y-164609D01*
X-10801413Y-199698D01*
X-10780515Y-258255D01*
X-10798027Y-317912D01*
X-10847261Y-355882D01*
X-10896808Y-360497D01*
X-10921999Y-356508D01*
X-10922003Y-356508D01*
X-11047301Y-376353D01*
X-11047304Y-376354D01*
X-11160341Y-433949D01*
X-11160342Y-433950D01*
X-11250050Y-523658D01*
X-11307646Y-636696D01*
X-11327492Y-762000D01*
X-11307646Y-887304D01*
X-11250050Y-1000342D01*
X-11160342Y-1090050D01*
X-11124701Y-1108210D01*
X-11073959Y-1134065D01*
X-11029996Y-1178029D01*
X-11027774Y-1192052D01*
X-10996730Y-1168114D01*
X-10947188Y-1163503D01*
X-10922003Y-1167492D01*
X-10922000Y-1167492D01*
X-10921997Y-1167492D01*
X-10835637Y-1153814D01*
X-10774228Y-1163540D01*
X-10730265Y-1207504D01*
X-10719300Y-1253175D01*
X-10719300Y-1347955D01*
X-10738513Y-1407086D01*
X-10788813Y-1443631D01*
X-10850987Y-1443631D01*
X-10874289Y-1432585D01*
X-10875834Y-1431591D01*
X-10875835Y-1431591D01*
X-10908602Y-1410532D01*
X-10985588Y-1361056D01*
X-10985592Y-1361054D01*
X-10991269Y-1359388D01*
X-11042592Y-1324293D01*
X-11052393Y-1296820D01*
X-11103894Y-1323062D01*
X-11119631Y-1324300D01*
X-11241232Y-1324300D01*
X-11366412Y-1361057D01*
X-11476165Y-1431591D01*
X-11561601Y-1530189D01*
X-11615798Y-1648864D01*
X-11634365Y-1778000D01*
X-11615798Y-1907136D01*
X-11561601Y-2025811D01*
X-11476165Y-2124409D01*
X-11366412Y-2194943D01*
X-11360736Y-2196609D01*
X-11309413Y-2231698D01*
X-11288515Y-2290255D01*
X-11306027Y-2349912D01*
X-11355261Y-2387882D01*
X-11404808Y-2392497D01*
X-11429999Y-2388508D01*
X-11430003Y-2388508D01*
X-11555301Y-2408353D01*
X-11555304Y-2408354D01*
X-11668341Y-2465949D01*
X-11668342Y-2465950D01*
X-11758050Y-2555658D01*
X-11815646Y-2668696D01*
X-11835492Y-2794000D01*
X-11815646Y-2919304D01*
X-11758050Y-3032342D01*
X-11668342Y-3122050D01*
X-11632701Y-3140210D01*
X-11581959Y-3166065D01*
X-11537996Y-3210029D01*
X-11535774Y-3224052D01*
X-11504730Y-3200114D01*
X-11455188Y-3195503D01*
X-11430003Y-3199492D01*
X-11430000Y-3199492D01*
X-11429997Y-3199492D01*
X-11343637Y-3185814D01*
X-11282228Y-3195540D01*
X-11238265Y-3239504D01*
X-11227300Y-3285175D01*
X-11227300Y-3379955D01*
X-11246513Y-3439086D01*
X-11296813Y-3475631D01*
X-11358987Y-3475631D01*
X-11382289Y-3464585D01*
X-11383834Y-3463591D01*
X-11383835Y-3463591D01*
X-11416602Y-3442532D01*
X-11493588Y-3393056D01*
X-11493592Y-3393054D01*
X-11499269Y-3391388D01*
X-11550592Y-3356293D01*
X-11560393Y-3328820D01*
X-11611894Y-3355062D01*
X-11627631Y-3356300D01*
X-11749232Y-3356300D01*
X-11874412Y-3393057D01*
X-11984165Y-3463591D01*
X-12069601Y-3562189D01*
X-12123798Y-3680864D01*
X-12142365Y-3810000D01*
X-12123798Y-3939136D01*
X-12069601Y-4057811D01*
X-11984165Y-4156409D01*
X-11874412Y-4226943D01*
X-11868736Y-4228609D01*
X-11817413Y-4263698D01*
X-11796515Y-4322255D01*
X-11814027Y-4381912D01*
X-11863261Y-4419882D01*
X-11912808Y-4424497D01*
X-11937999Y-4420508D01*
X-11938003Y-4420508D01*
X-12063301Y-4440353D01*
X-12063304Y-4440354D01*
X-12176341Y-4497949D01*
X-12176342Y-4497950D01*
X-12266050Y-4587658D01*
X-12323646Y-4700696D01*
X-12343492Y-4826000D01*
X-12323646Y-4951304D01*
X-12266050Y-5064342D01*
X-12176342Y-5154050D01*
X-12140701Y-5172210D01*
X-12089959Y-5198065D01*
X-12045996Y-5242029D01*
X-12043774Y-5256052D01*
X-12012730Y-5232114D01*
X-11963188Y-5227503D01*
X-11938003Y-5231492D01*
X-11938000Y-5231492D01*
X-11937997Y-5231492D01*
X-11851637Y-5217814D01*
X-11790228Y-5227540D01*
X-11746265Y-5271504D01*
X-11735300Y-5317175D01*
X-11735300Y-5411955D01*
X-11754513Y-5471086D01*
X-11804813Y-5507631D01*
X-11866987Y-5507631D01*
X-11890289Y-5496585D01*
X-11891834Y-5495591D01*
X-11891835Y-5495591D01*
X-11924602Y-5474532D01*
X-12001588Y-5425056D01*
X-12001592Y-5425054D01*
X-12007269Y-5423388D01*
X-12058592Y-5388293D01*
X-12068393Y-5360820D01*
X-12119894Y-5387062D01*
X-12135631Y-5388300D01*
X-12257232Y-5388300D01*
X-12382412Y-5425057D01*
X-12492165Y-5495591D01*
X-12577601Y-5594189D01*
X-12631798Y-5712864D01*
X-12650365Y-5842000D01*
X-12631798Y-5971136D01*
X-12577601Y-6089811D01*
X-12492165Y-6188409D01*
X-12382412Y-6258943D01*
X-12376736Y-6260609D01*
X-12325413Y-6295698D01*
X-12304515Y-6354255D01*
X-12322027Y-6413912D01*
X-12371261Y-6451882D01*
X-12420808Y-6456497D01*
X-12445999Y-6452508D01*
X-12446003Y-6452508D01*
X-12571301Y-6472353D01*
X-12571304Y-6472354D01*
X-12684341Y-6529949D01*
X-12684342Y-6529950D01*
X-12774050Y-6619658D01*
X-12831646Y-6732696D01*
X-12833434Y-6743986D01*
X-12851385Y-6857326D01*
X-12851492Y-6858000D01*
X-12831646Y-6983304D01*
X-12774050Y-7096342D01*
X-12684342Y-7186050D01*
X-12648701Y-7204210D01*
X-12597959Y-7230065D01*
X-12553996Y-7274029D01*
X-12551774Y-7288052D01*
X-12520730Y-7264114D01*
X-12471188Y-7259503D01*
X-12446003Y-7263492D01*
X-12446000Y-7263492D01*
X-12445997Y-7263492D01*
X-12359637Y-7249814D01*
X-12298228Y-7259540D01*
X-12254265Y-7303504D01*
X-12243300Y-7349175D01*
X-12243300Y-7443955D01*
X-12262513Y-7503086D01*
X-12312813Y-7539631D01*
X-12374987Y-7539631D01*
X-12398289Y-7528585D01*
X-12399834Y-7527591D01*
X-12399835Y-7527591D01*
X-12432602Y-7506532D01*
X-12509588Y-7457056D01*
X-12509592Y-7457054D01*
X-12515269Y-7455388D01*
X-12566592Y-7420293D01*
X-12576393Y-7392820D01*
X-12627894Y-7419062D01*
X-12643631Y-7420300D01*
X-12765232Y-7420300D01*
X-12890412Y-7457057D01*
X-13000165Y-7527591D01*
X-13085601Y-7626189D01*
X-13139798Y-7744864D01*
X-13158365Y-7874000D01*
X-13139798Y-8003136D01*
X-13085601Y-8121811D01*
X-13000165Y-8220409D01*
X-12890412Y-8290943D01*
X-12884736Y-8292609D01*
X-12833413Y-8327698D01*
X-12812515Y-8386255D01*
X-12830027Y-8445912D01*
X-12879261Y-8483882D01*
X-12928808Y-8488497D01*
X-12953999Y-8484508D01*
X-12954003Y-8484508D01*
X-13079301Y-8504353D01*
X-13079304Y-8504354D01*
X-13192341Y-8561949D01*
X-13192342Y-8561950D01*
X-13282050Y-8651658D01*
X-13339646Y-8764696D01*
X-13359492Y-8890000D01*
X-13339646Y-9015304D01*
X-13282050Y-9128342D01*
X-13192342Y-9218050D01*
X-13079304Y-9275646D01*
X-13017094Y-9285499D01*
X-12954003Y-9295492D01*
X-12954000Y-9295492D01*
X-12953997Y-9295492D01*
X-12867637Y-9281814D01*
X-12806228Y-9291540D01*
X-12762265Y-9335504D01*
X-12751300Y-9381175D01*
X-12751300Y-35660121D01*
X-12770513Y-35719252D01*
X-12780765Y-35731256D01*
X-14647061Y-37597552D01*
X-14658484Y-37605785D01*
X-14657734Y-37606779D01*
X-14665170Y-37612394D01*
X-14665171Y-37612395D01*
X-14696759Y-37647046D01*
X-14697300Y-37647639D01*
X-14700510Y-37651001D01*
X-14713883Y-37664374D01*
X-14713948Y-37664470D01*
X-14722594Y-37675384D01*
X-14742067Y-37696746D01*
X-14745673Y-37706055D01*
X-14756483Y-37726562D01*
X-14762124Y-37734797D01*
X-14768741Y-37762934D01*
X-14772861Y-37776235D01*
X-14783299Y-37803177D01*
X-14783300Y-37803179D01*
X-14783300Y-37813158D01*
X-14785972Y-37836189D01*
X-14787165Y-37841263D01*
X-14788257Y-37845906D01*
X-14784314Y-37874171D01*
X-14784265Y-37874521D01*
X-14783300Y-37888421D01*
X-14783300Y-38942995D01*
X-14802513Y-39002126D01*
X-14807864Y-39008866D01*
X-14863601Y-39073189D01*
X-14917798Y-39191864D01*
X-14936365Y-39321000D01*
X-22859500Y-39321000D01*
X-22859500Y-16812428D01*
X-18769250Y-16812428D01*
X-18730121Y-17097108D01*
X-18652594Y-17373808D01*
X-18538111Y-17637375D01*
X-18388805Y-17882897D01*
X-18207458Y-18105803D01*
X-17997448Y-18301939D01*
X-17762686Y-18467651D01*
X-17507547Y-18599854D01*
X-17236782Y-18696084D01*
X-16955436Y-18754548D01*
X-16955426Y-18754548D01*
X-16955424Y-18754549D01*
X-16758481Y-18768020D01*
X-16740502Y-18769250D01*
X-16740495Y-18769250D01*
X-16597005Y-18769250D01*
X-16596998Y-18769250D01*
X-16596971Y-18769248D01*
X-16596968Y-18769248D01*
X-16382075Y-18754549D01*
X-16382071Y-18754548D01*
X-16382064Y-18754548D01*
X-16100718Y-18696084D01*
X-15829953Y-18599854D01*
X-15574814Y-18467651D01*
X-15340052Y-18301939D01*
X-15130042Y-18105803D01*
X-14948695Y-17882897D01*
X-14799389Y-17637375D01*
X-14799387Y-17637372D01*
X-14799387Y-17637371D01*
X-14684909Y-17373817D01*
X-14607379Y-17097107D01*
X-14568250Y-16812434D01*
X-14568250Y-16525065D01*
X-14607379Y-16240392D01*
X-14684909Y-15963682D01*
X-14799387Y-15700128D01*
X-14799387Y-15700127D01*
X-14948693Y-15454605D01*
X-14948695Y-15454602D01*
X-15130042Y-15231696D01*
X-15340049Y-15035563D01*
X-15574807Y-14869853D01*
X-15574820Y-14869845D01*
X-15829954Y-14737645D01*
X-16100724Y-14641414D01*
X-16382061Y-14582952D01*
X-16382075Y-14582950D01*
X-16596968Y-14568251D01*
X-16596993Y-14568250D01*
X-16596998Y-14568250D01*
X-16740502Y-14568250D01*
X-16740506Y-14568250D01*
X-16740531Y-14568251D01*
X-16955424Y-14582950D01*
X-16955438Y-14582952D01*
X-17236774Y-14641414D01*
X-17236775Y-14641414D01*
X-17236778Y-14641415D01*
X-17236782Y-14641416D01*
X-17406764Y-14701827D01*
X-17507545Y-14737645D01*
X-17762679Y-14869845D01*
X-17762682Y-14869847D01*
X-17762686Y-14869849D01*
X-17997448Y-15035561D01*
X-18207458Y-15231697D01*
X-18388805Y-15454603D01*
X-18538111Y-15700125D01*
X-18652594Y-15963692D01*
X-18730121Y-16240392D01*
X-18769250Y-16525072D01*
X-18769250Y-16812428D01*
X-22859500Y-16812428D01*
X-22859500Y1270000D01*
X-10819492Y1270000D01*
X-10799646Y1144696D01*
X-10799645Y1144695D01*
X-10742050Y1031658D01*
X-10652341Y941949D01*
X-10565959Y897935D01*
X-10521996Y853971D01*
X-10519774Y839946D01*
X-10488736Y863883D01*
X-10439190Y868497D01*
X-10414000Y864508D01*
X-10413997Y864508D01*
X-10288698Y884353D01*
X-10288695Y884354D01*
X-10175658Y941949D01*
X-10085949Y1031658D01*
X-10028354Y1144695D01*
X-10028353Y1144698D01*
X-10008508Y1269997D01*
X-10008508Y1270002D01*
X-10028353Y1395301D01*
X-10028354Y1395304D01*
X-10085949Y1508341D01*
X-10175658Y1598050D01*
X-10262041Y1642065D01*
X-10306004Y1686029D01*
X-10308224Y1700051D01*
X-10339267Y1676114D01*
X-10388811Y1671503D01*
X-10413997Y1675492D01*
X-10414003Y1675492D01*
X-10476652Y1665569D01*
X-10539304Y1655646D01*
X-10652342Y1598050D01*
X-10742050Y1508342D01*
X-10799646Y1395304D01*
X-10819492Y1270000D01*
X-22859500Y1270000D01*
X-22859500Y16525072D01*
X-18769250Y16525072D01*
X-18730121Y16240392D01*
X-18652594Y15963692D01*
X-18538111Y15700125D01*
X-18388805Y15454603D01*
X-18207458Y15231697D01*
X-17997448Y15035561D01*
X-17762686Y14869849D01*
X-17762682Y14869847D01*
X-17762679Y14869845D01*
X-17507545Y14737645D01*
X-17406764Y14701827D01*
X-17236782Y14641416D01*
X-17236778Y14641415D01*
X-17236775Y14641414D01*
X-16955438Y14582952D01*
X-16955424Y14582950D01*
X-16740531Y14568251D01*
X-16740506Y14568250D01*
X-16740502Y14568250D01*
X-16740495Y14568250D01*
X-16597005Y14568250D01*
X-16596998Y14568250D01*
X-16596993Y14568250D01*
X-16596968Y14568251D01*
X-16382075Y14582950D01*
X-16382061Y14582952D01*
X-16100725Y14641414D01*
X-16100724Y14641414D01*
X-15829954Y14737645D01*
X-15574820Y14869845D01*
X-15574807Y14869853D01*
X-15340049Y15035563D01*
X-15130042Y15231696D01*
X-14948695Y15454602D01*
X-14948693Y15454605D01*
X-14799387Y15700127D01*
X-14799387Y15700128D01*
X-14684909Y15963682D01*
X-14607379Y16240392D01*
X-14568250Y16525065D01*
X14568250Y16525065D01*
X14607379Y16240392D01*
X14684909Y15963682D01*
X14799387Y15700128D01*
X14799387Y15700127D01*
X14948693Y15454605D01*
X14948695Y15454602D01*
X15130042Y15231696D01*
X15340049Y15035563D01*
X15574807Y14869853D01*
X15574820Y14869845D01*
X15829954Y14737645D01*
X16100724Y14641414D01*
X16382061Y14582952D01*
X16382075Y14582950D01*
X16596968Y14568251D01*
X16596993Y14568250D01*
X16596998Y14568250D01*
X16597005Y14568250D01*
X16740495Y14568250D01*
X16740502Y14568250D01*
X16740506Y14568250D01*
X16740531Y14568251D01*
X16955424Y14582950D01*
X16955438Y14582952D01*
X17236774Y14641414D01*
X17236775Y14641414D01*
X17236778Y14641415D01*
X17236782Y14641416D01*
X17406764Y14701827D01*
X17507545Y14737645D01*
X17762679Y14869845D01*
X17762682Y14869847D01*
X17762686Y14869849D01*
X17997448Y15035561D01*
X18207458Y15231697D01*
X18388805Y15454603D01*
X18538111Y15700125D01*
X18652594Y15963692D01*
X18730121Y16240392D01*
X18769250Y16525072D01*
X18769250Y16812428D01*
X18730121Y17097108D01*
X18652594Y17373808D01*
X18538111Y17637375D01*
X18388805Y17882897D01*
X18207458Y18105803D01*
X17997448Y18301939D01*
X17762686Y18467651D01*
X17507547Y18599854D01*
X17236782Y18696084D01*
X16955436Y18754548D01*
X16955426Y18754548D01*
X16955424Y18754549D01*
X16740531Y18769248D01*
X16740502Y18769250D01*
X16596998Y18769250D01*
X16596971Y18769248D01*
X16596968Y18769248D01*
X16382075Y18754549D01*
X16382071Y18754548D01*
X16382064Y18754548D01*
X16100718Y18696084D01*
X15829953Y18599854D01*
X15574814Y18467651D01*
X15340052Y18301939D01*
X15340049Y18301936D01*
X15130042Y18105803D01*
X14948695Y17882897D01*
X14948693Y17882894D01*
X14799387Y17637372D01*
X14799387Y17637371D01*
X14684909Y17373817D01*
X14607379Y17097107D01*
X14568250Y16812434D01*
X14568250Y16525065D01*
X-14568250Y16525065D01*
X-14568250Y16812434D01*
X-14607379Y17097107D01*
X-14684909Y17373817D01*
X-14799387Y17637371D01*
X-14799387Y17637372D01*
X-14948693Y17882894D01*
X-14948695Y17882897D01*
X-15130042Y18105803D01*
X-15340049Y18301936D01*
X-15340052Y18301939D01*
X-15574814Y18467651D01*
X-15829953Y18599854D01*
X-16100718Y18696084D01*
X-16382064Y18754548D01*
X-16382071Y18754548D01*
X-16382075Y18754549D01*
X-16596968Y18769248D01*
X-16596971Y18769248D01*
X-16596998Y18769250D01*
X-16740502Y18769250D01*
X-16740531Y18769248D01*
X-16955424Y18754549D01*
X-16955426Y18754548D01*
X-16955436Y18754548D01*
X-17236782Y18696084D01*
X-17507547Y18599854D01*
X-17762686Y18467651D01*
X-17997448Y18301939D01*
X-18207458Y18105803D01*
X-18388805Y17882897D01*
X-18538111Y17637375D01*
X-18652594Y17373808D01*
X-18730121Y17097108D01*
X-18769250Y16812428D01*
X-18769250Y16525072D01*
X-22859500Y16525072D01*
X-22859500Y20856700D01*
X-22859285Y20863281D01*
X-22854035Y20943364D01*
X-22853994Y20943960D01*
X-22841186Y21123034D01*
X-22839509Y21135482D01*
X-22817022Y21248536D01*
X-22816656Y21250295D01*
X-22785935Y21391516D01*
X-22782895Y21402468D01*
X-22743675Y21518008D01*
X-22742671Y21520829D01*
X-22694525Y21649911D01*
X-22690493Y21659248D01*
X-22635355Y21771057D01*
X-22633424Y21774776D01*
X-22568650Y21893400D01*
X-22564002Y21901077D01*
X-22494035Y22005791D01*
X-22490923Y22010188D01*
X-22410638Y22117436D01*
X-22405739Y22123479D01*
X-22322363Y22218551D01*
X-22317863Y22223356D01*
X-22223356Y22317863D01*
X-22218551Y22322363D01*
X-22123479Y22405739D01*
X-22117436Y22410638D01*
X-22010188Y22490923D01*
X-22005791Y22494035D01*
X-21901077Y22564002D01*
X-21893400Y22568650D01*
X-21774776Y22633424D01*
X-21771057Y22635355D01*
X-21659248Y22690493D01*
X-21649911Y22694525D01*
X-21520829Y22742671D01*
X-21518008Y22743675D01*
X-21402468Y22782895D01*
X-21391516Y22785935D01*
X-21250295Y22816656D01*
X-21248536Y22817022D01*
X-21135482Y22839509D01*
X-21123034Y22841186D01*
X-20943960Y22853994D01*
X-20943364Y22854035D01*
X-20866854Y22859050D01*
X-20863279Y22859285D01*
X-20856700Y22859500D01*
X20856700Y22859500D01*
X20863279Y22859285D01*
G37*
G04 #@! TD.AperFunction*
M02*
