G04 #@! TF.GenerationSoftware,KiCad,Pcbnew,7.0.10*
G04 #@! TF.CreationDate,2024-07-19T13:30:29-04:00*
G04 #@! TF.ProjectId,CanDoIt-v1,43616e44-6f49-4742-9d76-312e6b696361,rev?*
G04 #@! TF.SameCoordinates,Original*
G04 #@! TF.FileFunction,Legend,Bot*
G04 #@! TF.FilePolarity,Positive*
%FSLAX46Y46*%
G04 Gerber Fmt 4.6, Leading zero omitted, Abs format (unit mm)*
G04 Created by KiCad (PCBNEW 7.0.10) date 2024-07-19 13:30:29*
%MOMM*%
%LPD*%
G01*
G04 APERTURE LIST*
%ADD10C,0.800000*%
%ADD11C,0.200000*%
%ADD12C,0.150000*%
G04 APERTURE END LIST*
D10*
X17800000Y0D02*
G75*
G03*
X-17800000Y0I-17800000J0D01*
G01*
X-17800000Y0D02*
G75*
G03*
X17800000Y0I17800000J0D01*
G01*
D11*
G36*
X11422194Y-34519644D02*
G01*
X11470671Y-34568120D01*
X11524285Y-34675348D01*
X11524285Y-35056707D01*
X11470671Y-35163934D01*
X11422191Y-35212414D01*
X11314964Y-35266028D01*
X11147892Y-35266028D01*
X11040663Y-35212414D01*
X10992187Y-35163937D01*
X10938571Y-35056705D01*
X10938571Y-34675350D01*
X10992186Y-34568120D01*
X11040662Y-34519643D01*
X11147892Y-34466028D01*
X11314963Y-34466028D01*
X11422194Y-34519644D01*
G37*
G36*
X13367142Y-35680314D02*
G01*
X7024285Y-35680314D01*
X7024285Y-35366028D01*
X7238571Y-35366028D01*
X7257669Y-35424807D01*
X7307669Y-35461134D01*
X7369473Y-35461134D01*
X7419473Y-35424807D01*
X7438571Y-35366028D01*
X7438571Y-34603920D01*
X7484534Y-34511992D01*
X7576463Y-34466028D01*
X7743534Y-34466028D01*
X7850765Y-34519644D01*
X7881428Y-34550306D01*
X7881428Y-35366028D01*
X7900526Y-35424807D01*
X7950526Y-35461134D01*
X8012330Y-35461134D01*
X8062330Y-35424807D01*
X8071388Y-35396930D01*
X8386322Y-35396930D01*
X8422649Y-35446930D01*
X8481428Y-35466028D01*
X8624285Y-35466028D01*
X8646208Y-35458904D01*
X8669006Y-35455471D01*
X8811863Y-35384043D01*
X8812429Y-35383484D01*
X8813216Y-35383354D01*
X8830279Y-35366028D01*
X9452857Y-35366028D01*
X9471955Y-35424807D01*
X9521955Y-35461134D01*
X9583759Y-35461134D01*
X9633759Y-35424807D01*
X9637578Y-35413050D01*
X9722421Y-35455471D01*
X9745218Y-35458904D01*
X9767142Y-35466028D01*
X9981428Y-35466028D01*
X10003351Y-35458904D01*
X10026149Y-35455471D01*
X10169006Y-35384043D01*
X10169572Y-35383484D01*
X10170359Y-35383354D01*
X10191536Y-35361851D01*
X10213039Y-35340674D01*
X10213169Y-35339887D01*
X10213728Y-35339321D01*
X10285157Y-35196463D01*
X10288590Y-35173665D01*
X10295714Y-35151742D01*
X10295714Y-35080314D01*
X10738571Y-35080314D01*
X10745694Y-35102237D01*
X10749128Y-35125036D01*
X10820557Y-35267892D01*
X10831931Y-35279440D01*
X10839289Y-35293881D01*
X10910717Y-35365310D01*
X10925158Y-35372668D01*
X10936707Y-35384043D01*
X11079564Y-35455471D01*
X11102361Y-35458904D01*
X11124285Y-35466028D01*
X11338571Y-35466028D01*
X11360494Y-35458904D01*
X11383292Y-35455471D01*
X11526149Y-35384043D01*
X11537696Y-35372669D01*
X11552139Y-35365311D01*
X11623568Y-35293882D01*
X11630926Y-35279439D01*
X11642300Y-35267892D01*
X11713728Y-35125035D01*
X11717161Y-35102237D01*
X11724285Y-35080314D01*
X12095713Y-35080314D01*
X12102836Y-35102237D01*
X12106270Y-35125036D01*
X12177699Y-35267892D01*
X12189072Y-35279439D01*
X12196431Y-35293882D01*
X12267860Y-35365311D01*
X12282302Y-35372669D01*
X12293850Y-35384043D01*
X12436707Y-35455471D01*
X12459504Y-35458904D01*
X12481428Y-35466028D01*
X12838571Y-35466028D01*
X12853986Y-35461019D01*
X12870194Y-35460896D01*
X13084479Y-35389468D01*
X13134202Y-35352763D01*
X13152853Y-35293841D01*
X13133309Y-35235209D01*
X13083035Y-35199262D01*
X13021233Y-35199732D01*
X12822344Y-35266028D01*
X12505035Y-35266028D01*
X12397807Y-35212414D01*
X12349327Y-35163934D01*
X12295713Y-35056705D01*
X12295713Y-34961065D01*
X12349327Y-34853836D01*
X12397807Y-34805356D01*
X12516333Y-34746092D01*
X12791395Y-34677328D01*
X12800841Y-34671417D01*
X12811864Y-34669757D01*
X12954720Y-34598328D01*
X12966268Y-34586953D01*
X12980709Y-34579596D01*
X13052138Y-34508168D01*
X13059496Y-34493726D01*
X13070871Y-34482178D01*
X13142299Y-34339321D01*
X13145732Y-34316523D01*
X13152856Y-34294600D01*
X13152856Y-34151742D01*
X13145732Y-34129818D01*
X13142299Y-34107021D01*
X13070871Y-33964164D01*
X13059496Y-33952615D01*
X13052138Y-33938174D01*
X12980709Y-33866746D01*
X12966268Y-33859388D01*
X12954720Y-33848014D01*
X12811864Y-33776585D01*
X12789065Y-33773151D01*
X12767142Y-33766028D01*
X12409999Y-33766028D01*
X12394583Y-33771036D01*
X12378376Y-33771160D01*
X12164090Y-33842589D01*
X12114367Y-33879294D01*
X12095715Y-33938216D01*
X12115260Y-33996848D01*
X12165534Y-34032795D01*
X12227336Y-34032325D01*
X12426226Y-33966028D01*
X12743534Y-33966028D01*
X12850765Y-34019644D01*
X12899242Y-34068120D01*
X12952856Y-34175348D01*
X12952856Y-34270993D01*
X12899242Y-34378221D01*
X12850765Y-34426697D01*
X12732235Y-34485963D01*
X12457175Y-34554728D01*
X12447728Y-34560638D01*
X12436706Y-34562299D01*
X12293849Y-34633728D01*
X12282301Y-34645102D01*
X12267860Y-34652460D01*
X12196431Y-34723889D01*
X12189072Y-34738331D01*
X12177699Y-34749879D01*
X12106270Y-34892735D01*
X12102836Y-34915533D01*
X12095713Y-34937457D01*
X12095713Y-35080314D01*
X11724285Y-35080314D01*
X11724285Y-34651742D01*
X11717161Y-34629818D01*
X11713728Y-34607021D01*
X11642300Y-34464164D01*
X11630925Y-34452615D01*
X11623567Y-34438174D01*
X11552138Y-34366746D01*
X11537697Y-34359388D01*
X11526149Y-34348014D01*
X11383293Y-34276585D01*
X11360494Y-34273151D01*
X11338571Y-34266028D01*
X11124285Y-34266028D01*
X11102361Y-34273151D01*
X11079563Y-34276585D01*
X10936706Y-34348014D01*
X10925156Y-34359389D01*
X10910717Y-34366747D01*
X10839289Y-34438174D01*
X10831930Y-34452616D01*
X10820557Y-34464164D01*
X10749128Y-34607020D01*
X10745694Y-34629818D01*
X10738571Y-34651742D01*
X10738571Y-35080314D01*
X10295714Y-35080314D01*
X10295714Y-34366028D01*
X10276616Y-34307249D01*
X10226616Y-34270922D01*
X10164812Y-34270922D01*
X10114812Y-34307249D01*
X10095714Y-34366028D01*
X10095714Y-35128135D01*
X10049749Y-35220064D01*
X9957821Y-35266028D01*
X9790749Y-35266028D01*
X9683520Y-35212414D01*
X9652857Y-35181750D01*
X9652857Y-34366028D01*
X9633759Y-34307249D01*
X9583759Y-34270922D01*
X9521955Y-34270922D01*
X9471955Y-34307249D01*
X9452857Y-34366028D01*
X9452857Y-35366028D01*
X8830279Y-35366028D01*
X8834393Y-35361851D01*
X8855896Y-35340674D01*
X8856026Y-35339887D01*
X8856585Y-35339321D01*
X8928014Y-35196463D01*
X8931447Y-35173665D01*
X8938571Y-35151742D01*
X8938571Y-34466028D01*
X9052856Y-34466028D01*
X9111635Y-34446930D01*
X9147962Y-34396930D01*
X9147962Y-34335126D01*
X9111635Y-34285126D01*
X9052856Y-34266028D01*
X8938571Y-34266028D01*
X8938571Y-33866028D01*
X8919473Y-33807249D01*
X8869473Y-33770922D01*
X8807669Y-33770922D01*
X8757669Y-33807249D01*
X8738571Y-33866028D01*
X8738571Y-34266028D01*
X8481428Y-34266028D01*
X8422649Y-34285126D01*
X8386322Y-34335126D01*
X8386322Y-34396930D01*
X8422649Y-34446930D01*
X8481428Y-34466028D01*
X8738571Y-34466028D01*
X8738571Y-35128135D01*
X8692606Y-35220064D01*
X8600678Y-35266028D01*
X8481428Y-35266028D01*
X8422649Y-35285126D01*
X8386322Y-35335126D01*
X8386322Y-35396930D01*
X8071388Y-35396930D01*
X8081428Y-35366028D01*
X8081428Y-33866028D01*
X8062330Y-33807249D01*
X8012330Y-33770922D01*
X7950526Y-33770922D01*
X7900526Y-33807249D01*
X7881428Y-33866028D01*
X7881428Y-34311367D01*
X7811864Y-34276585D01*
X7789065Y-34273151D01*
X7767142Y-34266028D01*
X7552856Y-34266028D01*
X7530932Y-34273151D01*
X7508134Y-34276585D01*
X7365277Y-34348014D01*
X7364709Y-34348572D01*
X7363925Y-34348703D01*
X7342762Y-34370189D01*
X7321245Y-34391383D01*
X7321114Y-34392169D01*
X7320556Y-34392736D01*
X7249128Y-34535593D01*
X7245694Y-34558390D01*
X7238571Y-34580314D01*
X7238571Y-35366028D01*
X7024285Y-35366028D01*
X7024285Y-33551742D01*
X13367142Y-33551742D01*
X13367142Y-35680314D01*
G37*
D12*
X857142Y-27620342D02*
X571428Y-28420342D01*
X571428Y-28420342D02*
X285713Y-27620342D01*
X-800000Y-28420342D02*
X-114286Y-28420342D01*
X-457143Y-28420342D02*
X-457143Y-27220342D01*
X-457143Y-27220342D02*
X-342857Y-27391771D01*
X-342857Y-27391771D02*
X-228572Y-27506057D01*
X-228572Y-27506057D02*
X-114286Y-27563200D01*
X7114285Y-29098342D02*
X6428571Y-29098342D01*
X6771428Y-30298342D02*
X6771428Y-29098342D01*
X5514285Y-30298342D02*
X5514285Y-29669771D01*
X5514285Y-29669771D02*
X5571427Y-29555485D01*
X5571427Y-29555485D02*
X5685713Y-29498342D01*
X5685713Y-29498342D02*
X5914285Y-29498342D01*
X5914285Y-29498342D02*
X6028570Y-29555485D01*
X5514285Y-30241200D02*
X5628570Y-30298342D01*
X5628570Y-30298342D02*
X5914285Y-30298342D01*
X5914285Y-30298342D02*
X6028570Y-30241200D01*
X6028570Y-30241200D02*
X6085713Y-30126914D01*
X6085713Y-30126914D02*
X6085713Y-30012628D01*
X6085713Y-30012628D02*
X6028570Y-29898342D01*
X6028570Y-29898342D02*
X5914285Y-29841200D01*
X5914285Y-29841200D02*
X5628570Y-29841200D01*
X5628570Y-29841200D02*
X5514285Y-29784057D01*
X4942856Y-30298342D02*
X4942856Y-29498342D01*
X4942856Y-29098342D02*
X4999999Y-29155485D01*
X4999999Y-29155485D02*
X4942856Y-29212628D01*
X4942856Y-29212628D02*
X4885713Y-29155485D01*
X4885713Y-29155485D02*
X4942856Y-29098342D01*
X4942856Y-29098342D02*
X4942856Y-29212628D01*
X4542856Y-29498342D02*
X4085713Y-29498342D01*
X4371427Y-29098342D02*
X4371427Y-30126914D01*
X4371427Y-30126914D02*
X4314284Y-30241200D01*
X4314284Y-30241200D02*
X4199999Y-30298342D01*
X4199999Y-30298342D02*
X4085713Y-30298342D01*
X2771427Y-30298342D02*
X2771427Y-29098342D01*
X2771427Y-29098342D02*
X2314284Y-29098342D01*
X2314284Y-29098342D02*
X2199999Y-29155485D01*
X2199999Y-29155485D02*
X2142856Y-29212628D01*
X2142856Y-29212628D02*
X2085713Y-29326914D01*
X2085713Y-29326914D02*
X2085713Y-29498342D01*
X2085713Y-29498342D02*
X2142856Y-29612628D01*
X2142856Y-29612628D02*
X2199999Y-29669771D01*
X2199999Y-29669771D02*
X2314284Y-29726914D01*
X2314284Y-29726914D02*
X2771427Y-29726914D01*
X1571427Y-30298342D02*
X1571427Y-29098342D01*
X1057142Y-30298342D02*
X1057142Y-29669771D01*
X1057142Y-29669771D02*
X1114284Y-29555485D01*
X1114284Y-29555485D02*
X1228570Y-29498342D01*
X1228570Y-29498342D02*
X1399999Y-29498342D01*
X1399999Y-29498342D02*
X1514284Y-29555485D01*
X1514284Y-29555485D02*
X1571427Y-29612628D01*
X314285Y-30298342D02*
X428570Y-30241200D01*
X428570Y-30241200D02*
X485713Y-30184057D01*
X485713Y-30184057D02*
X542856Y-30069771D01*
X542856Y-30069771D02*
X542856Y-29726914D01*
X542856Y-29726914D02*
X485713Y-29612628D01*
X485713Y-29612628D02*
X428570Y-29555485D01*
X428570Y-29555485D02*
X314285Y-29498342D01*
X314285Y-29498342D02*
X142856Y-29498342D01*
X142856Y-29498342D02*
X28570Y-29555485D01*
X28570Y-29555485D02*
X-28572Y-29612628D01*
X-28572Y-29612628D02*
X-85714Y-29726914D01*
X-85714Y-29726914D02*
X-85714Y-30069771D01*
X-85714Y-30069771D02*
X-28572Y-30184057D01*
X-28572Y-30184057D02*
X28570Y-30241200D01*
X28570Y-30241200D02*
X142856Y-30298342D01*
X142856Y-30298342D02*
X314285Y-30298342D01*
X-428571Y-29498342D02*
X-885714Y-29498342D01*
X-600000Y-29098342D02*
X-600000Y-30126914D01*
X-600000Y-30126914D02*
X-657143Y-30241200D01*
X-657143Y-30241200D02*
X-771428Y-30298342D01*
X-771428Y-30298342D02*
X-885714Y-30298342D01*
X-1457142Y-30298342D02*
X-1342857Y-30241200D01*
X-1342857Y-30241200D02*
X-1285714Y-30184057D01*
X-1285714Y-30184057D02*
X-1228571Y-30069771D01*
X-1228571Y-30069771D02*
X-1228571Y-29726914D01*
X-1228571Y-29726914D02*
X-1285714Y-29612628D01*
X-1285714Y-29612628D02*
X-1342857Y-29555485D01*
X-1342857Y-29555485D02*
X-1457142Y-29498342D01*
X-1457142Y-29498342D02*
X-1628571Y-29498342D01*
X-1628571Y-29498342D02*
X-1742857Y-29555485D01*
X-1742857Y-29555485D02*
X-1800000Y-29612628D01*
X-1800000Y-29612628D02*
X-1857142Y-29726914D01*
X-1857142Y-29726914D02*
X-1857142Y-30069771D01*
X-1857142Y-30069771D02*
X-1800000Y-30184057D01*
X-1800000Y-30184057D02*
X-1742857Y-30241200D01*
X-1742857Y-30241200D02*
X-1628571Y-30298342D01*
X-1628571Y-30298342D02*
X-1457142Y-30298342D01*
X-2371428Y-29498342D02*
X-2371428Y-30298342D01*
X-2371428Y-29612628D02*
X-2428571Y-29555485D01*
X-2428571Y-29555485D02*
X-2542856Y-29498342D01*
X-2542856Y-29498342D02*
X-2714285Y-29498342D01*
X-2714285Y-29498342D02*
X-2828571Y-29555485D01*
X-2828571Y-29555485D02*
X-2885714Y-29669771D01*
X-2885714Y-29669771D02*
X-2885714Y-30298342D01*
X-4942856Y-30298342D02*
X-4371428Y-30298342D01*
X-4371428Y-30298342D02*
X-4371428Y-29098342D01*
X-5857143Y-30298342D02*
X-5857143Y-29669771D01*
X-5857143Y-29669771D02*
X-5800000Y-29555485D01*
X-5800000Y-29555485D02*
X-5685714Y-29498342D01*
X-5685714Y-29498342D02*
X-5457143Y-29498342D01*
X-5457143Y-29498342D02*
X-5342857Y-29555485D01*
X-5857143Y-30241200D02*
X-5742857Y-30298342D01*
X-5742857Y-30298342D02*
X-5457143Y-30298342D01*
X-5457143Y-30298342D02*
X-5342857Y-30241200D01*
X-5342857Y-30241200D02*
X-5285714Y-30126914D01*
X-5285714Y-30126914D02*
X-5285714Y-30012628D01*
X-5285714Y-30012628D02*
X-5342857Y-29898342D01*
X-5342857Y-29898342D02*
X-5457143Y-29841200D01*
X-5457143Y-29841200D02*
X-5742857Y-29841200D01*
X-5742857Y-29841200D02*
X-5857143Y-29784057D01*
X-6428571Y-30298342D02*
X-6428571Y-29098342D01*
X-6428571Y-29555485D02*
X-6542857Y-29498342D01*
X-6542857Y-29498342D02*
X-6771428Y-29498342D01*
X-6771428Y-29498342D02*
X-6885714Y-29555485D01*
X-6885714Y-29555485D02*
X-6942857Y-29612628D01*
X-6942857Y-29612628D02*
X-6999999Y-29726914D01*
X-6999999Y-29726914D02*
X-6999999Y-30069771D01*
X-6999999Y-30069771D02*
X-6942857Y-30184057D01*
X-6942857Y-30184057D02*
X-6885714Y-30241200D01*
X-6885714Y-30241200D02*
X-6771428Y-30298342D01*
X-6771428Y-30298342D02*
X-6542857Y-30298342D01*
X-6542857Y-30298342D02*
X-6428571Y-30241200D01*
X3885713Y-31030342D02*
X3885713Y-31887485D01*
X3885713Y-31887485D02*
X3942856Y-32058914D01*
X3942856Y-32058914D02*
X4057142Y-32173200D01*
X4057142Y-32173200D02*
X4228570Y-32230342D01*
X4228570Y-32230342D02*
X4342856Y-32230342D01*
X2799999Y-31430342D02*
X2799999Y-32230342D01*
X3314284Y-31430342D02*
X3314284Y-32058914D01*
X3314284Y-32058914D02*
X3257141Y-32173200D01*
X3257141Y-32173200D02*
X3142856Y-32230342D01*
X3142856Y-32230342D02*
X2971427Y-32230342D01*
X2971427Y-32230342D02*
X2857141Y-32173200D01*
X2857141Y-32173200D02*
X2799999Y-32116057D01*
X2057142Y-32230342D02*
X2171427Y-32173200D01*
X2171427Y-32173200D02*
X2228570Y-32058914D01*
X2228570Y-32058914D02*
X2228570Y-31030342D01*
X1714285Y-31430342D02*
X1428571Y-32230342D01*
X1142856Y-31430342D02*
X1428571Y-32230342D01*
X1428571Y-32230342D02*
X1542856Y-32516057D01*
X1542856Y-32516057D02*
X1599999Y-32573200D01*
X1599999Y-32573200D02*
X1714285Y-32630342D01*
X-171429Y-31144628D02*
X-228572Y-31087485D01*
X-228572Y-31087485D02*
X-342858Y-31030342D01*
X-342858Y-31030342D02*
X-628572Y-31030342D01*
X-628572Y-31030342D02*
X-742858Y-31087485D01*
X-742858Y-31087485D02*
X-800000Y-31144628D01*
X-800000Y-31144628D02*
X-857143Y-31258914D01*
X-857143Y-31258914D02*
X-857143Y-31373200D01*
X-857143Y-31373200D02*
X-800000Y-31544628D01*
X-800000Y-31544628D02*
X-114286Y-32230342D01*
X-114286Y-32230342D02*
X-857143Y-32230342D01*
X-1600000Y-31030342D02*
X-1714286Y-31030342D01*
X-1714286Y-31030342D02*
X-1828572Y-31087485D01*
X-1828572Y-31087485D02*
X-1885715Y-31144628D01*
X-1885715Y-31144628D02*
X-1942857Y-31258914D01*
X-1942857Y-31258914D02*
X-2000000Y-31487485D01*
X-2000000Y-31487485D02*
X-2000000Y-31773200D01*
X-2000000Y-31773200D02*
X-1942857Y-32001771D01*
X-1942857Y-32001771D02*
X-1885715Y-32116057D01*
X-1885715Y-32116057D02*
X-1828572Y-32173200D01*
X-1828572Y-32173200D02*
X-1714286Y-32230342D01*
X-1714286Y-32230342D02*
X-1600000Y-32230342D01*
X-1600000Y-32230342D02*
X-1485715Y-32173200D01*
X-1485715Y-32173200D02*
X-1428572Y-32116057D01*
X-1428572Y-32116057D02*
X-1371429Y-32001771D01*
X-1371429Y-32001771D02*
X-1314286Y-31773200D01*
X-1314286Y-31773200D02*
X-1314286Y-31487485D01*
X-1314286Y-31487485D02*
X-1371429Y-31258914D01*
X-1371429Y-31258914D02*
X-1428572Y-31144628D01*
X-1428572Y-31144628D02*
X-1485715Y-31087485D01*
X-1485715Y-31087485D02*
X-1600000Y-31030342D01*
X-2457143Y-31144628D02*
X-2514286Y-31087485D01*
X-2514286Y-31087485D02*
X-2628572Y-31030342D01*
X-2628572Y-31030342D02*
X-2914286Y-31030342D01*
X-2914286Y-31030342D02*
X-3028572Y-31087485D01*
X-3028572Y-31087485D02*
X-3085714Y-31144628D01*
X-3085714Y-31144628D02*
X-3142857Y-31258914D01*
X-3142857Y-31258914D02*
X-3142857Y-31373200D01*
X-3142857Y-31373200D02*
X-3085714Y-31544628D01*
X-3085714Y-31544628D02*
X-2400000Y-32230342D01*
X-2400000Y-32230342D02*
X-3142857Y-32230342D01*
X-4171429Y-31430342D02*
X-4171429Y-32230342D01*
X-3885714Y-30973200D02*
X-3600000Y-31830342D01*
X-3600000Y-31830342D02*
X-4342857Y-31830342D01*
D11*
G36*
X-9183519Y-34519644D02*
G01*
X-9135042Y-34568120D01*
X-9081429Y-34675348D01*
X-9081429Y-35056707D01*
X-9135042Y-35163934D01*
X-9183522Y-35212414D01*
X-9290750Y-35266028D01*
X-9457822Y-35266028D01*
X-9565049Y-35212414D01*
X-9613529Y-35163934D01*
X-9667143Y-35056707D01*
X-9667143Y-34675348D01*
X-9613529Y-34568120D01*
X-9565052Y-34519643D01*
X-9457822Y-34466028D01*
X-9290751Y-34466028D01*
X-9183519Y-34519644D01*
G37*
G36*
X-7167142Y-35680314D02*
G01*
X-13152858Y-35680314D01*
X-13152858Y-35366028D01*
X-12938572Y-35366028D01*
X-12919474Y-35424807D01*
X-12869474Y-35461134D01*
X-12807670Y-35461134D01*
X-12757670Y-35424807D01*
X-12738572Y-35366028D01*
X-12738572Y-34603922D01*
X-12692606Y-34511992D01*
X-12600679Y-34466028D01*
X-12433608Y-34466028D01*
X-12326376Y-34519644D01*
X-12295714Y-34550306D01*
X-12295714Y-35366028D01*
X-12276616Y-35424807D01*
X-12226616Y-35461134D01*
X-12164812Y-35461134D01*
X-12114812Y-35424807D01*
X-12105754Y-35396930D01*
X-11790820Y-35396930D01*
X-11754493Y-35446930D01*
X-11695714Y-35466028D01*
X-11552857Y-35466028D01*
X-11530933Y-35458904D01*
X-11508136Y-35455471D01*
X-11365279Y-35384043D01*
X-11364712Y-35383484D01*
X-11363926Y-35383354D01*
X-11342748Y-35361851D01*
X-11321246Y-35340674D01*
X-11321115Y-35339887D01*
X-11320557Y-35339321D01*
X-11249128Y-35196463D01*
X-11245694Y-35173665D01*
X-11238571Y-35151742D01*
X-11238571Y-34466028D01*
X-11124286Y-34466028D01*
X-11065507Y-34446930D01*
X-11029180Y-34396930D01*
X-10933678Y-34396930D01*
X-10897351Y-34446930D01*
X-10838572Y-34466028D01*
X-10719323Y-34466028D01*
X-10612091Y-34519644D01*
X-10563615Y-34568119D01*
X-10510000Y-34675349D01*
X-10510000Y-35366028D01*
X-10490902Y-35424807D01*
X-10440902Y-35461134D01*
X-10379098Y-35461134D01*
X-10329098Y-35424807D01*
X-10310000Y-35366028D01*
X-10310000Y-35080314D01*
X-9867143Y-35080314D01*
X-9860019Y-35102237D01*
X-9856586Y-35125035D01*
X-9785158Y-35267892D01*
X-9773784Y-35279439D01*
X-9766426Y-35293882D01*
X-9694997Y-35365311D01*
X-9680554Y-35372669D01*
X-9669007Y-35384043D01*
X-9526150Y-35455471D01*
X-9503352Y-35458904D01*
X-9481429Y-35466028D01*
X-9267143Y-35466028D01*
X-9245219Y-35458904D01*
X-9222422Y-35455471D01*
X-9079565Y-35384043D01*
X-9068017Y-35372669D01*
X-9054982Y-35366028D01*
X-8438571Y-35366028D01*
X-8436826Y-35371396D01*
X-8437976Y-35376924D01*
X-8427416Y-35400360D01*
X-8419473Y-35424807D01*
X-8414905Y-35428125D01*
X-8412587Y-35433271D01*
X-8390272Y-35446022D01*
X-8369473Y-35461134D01*
X-8363828Y-35461134D01*
X-8358926Y-35463935D01*
X-8333372Y-35461134D01*
X-8307669Y-35461134D01*
X-8303102Y-35457816D01*
X-8297491Y-35457201D01*
X-8278467Y-35439918D01*
X-8257669Y-35424807D01*
X-8255924Y-35419437D01*
X-8251747Y-35415642D01*
X-7581428Y-34242583D01*
X-7581428Y-35366028D01*
X-7562330Y-35424807D01*
X-7512330Y-35461134D01*
X-7450526Y-35461134D01*
X-7400526Y-35424807D01*
X-7381428Y-35366028D01*
X-7381428Y-33866028D01*
X-7383172Y-33860659D01*
X-7382023Y-33855132D01*
X-7392583Y-33831694D01*
X-7400526Y-33807249D01*
X-7405092Y-33803930D01*
X-7407412Y-33798784D01*
X-7429730Y-33786030D01*
X-7450526Y-33770922D01*
X-7456171Y-33770922D01*
X-7461073Y-33768121D01*
X-7486627Y-33770922D01*
X-7512330Y-33770922D01*
X-7516896Y-33774239D01*
X-7522508Y-33774855D01*
X-7541531Y-33792137D01*
X-7562330Y-33807249D01*
X-7564074Y-33812618D01*
X-7568252Y-33816414D01*
X-8238571Y-34989472D01*
X-8238571Y-33866028D01*
X-8257669Y-33807249D01*
X-8307669Y-33770922D01*
X-8369473Y-33770922D01*
X-8419473Y-33807249D01*
X-8438571Y-33866028D01*
X-8438571Y-35366028D01*
X-9054982Y-35366028D01*
X-9053575Y-35365311D01*
X-8982146Y-35293882D01*
X-8974787Y-35279439D01*
X-8963414Y-35267892D01*
X-8891986Y-35125035D01*
X-8888552Y-35102237D01*
X-8881429Y-35080314D01*
X-8881429Y-34651742D01*
X-8888552Y-34629818D01*
X-8891986Y-34607021D01*
X-8963414Y-34464164D01*
X-8974788Y-34452615D01*
X-8982147Y-34438174D01*
X-9053576Y-34366746D01*
X-9068016Y-34359388D01*
X-9079565Y-34348014D01*
X-9222421Y-34276585D01*
X-9245219Y-34273151D01*
X-9267143Y-34266028D01*
X-9481429Y-34266028D01*
X-9503352Y-34273151D01*
X-9526151Y-34276585D01*
X-9669008Y-34348014D01*
X-9680556Y-34359388D01*
X-9694996Y-34366746D01*
X-9766425Y-34438174D01*
X-9773783Y-34452615D01*
X-9785158Y-34464164D01*
X-9856586Y-34607021D01*
X-9860019Y-34629818D01*
X-9867143Y-34651742D01*
X-9867143Y-35080314D01*
X-10310000Y-35080314D01*
X-10310000Y-34366028D01*
X-10329098Y-34307249D01*
X-10379098Y-34270922D01*
X-10440902Y-34270922D01*
X-10490902Y-34307249D01*
X-10505114Y-34350991D01*
X-10508137Y-34348014D01*
X-10650993Y-34276585D01*
X-10673791Y-34273151D01*
X-10695715Y-34266028D01*
X-10838572Y-34266028D01*
X-10897351Y-34285126D01*
X-10933678Y-34335126D01*
X-10933678Y-34396930D01*
X-11029180Y-34396930D01*
X-11029180Y-34335126D01*
X-11065507Y-34285126D01*
X-11124286Y-34266028D01*
X-11238571Y-34266028D01*
X-11238571Y-33866028D01*
X-11257669Y-33807249D01*
X-11307669Y-33770922D01*
X-11369473Y-33770922D01*
X-11419473Y-33807249D01*
X-11438571Y-33866028D01*
X-11438571Y-34266028D01*
X-11695714Y-34266028D01*
X-11754493Y-34285126D01*
X-11790820Y-34335126D01*
X-11790820Y-34396930D01*
X-11754493Y-34446930D01*
X-11695714Y-34466028D01*
X-11438571Y-34466028D01*
X-11438571Y-35128135D01*
X-11484535Y-35220064D01*
X-11576464Y-35266028D01*
X-11695714Y-35266028D01*
X-11754493Y-35285126D01*
X-11790820Y-35335126D01*
X-11790820Y-35396930D01*
X-12105754Y-35396930D01*
X-12095714Y-35366028D01*
X-12095714Y-33866028D01*
X-12114812Y-33807249D01*
X-12164812Y-33770922D01*
X-12226616Y-33770922D01*
X-12276616Y-33807249D01*
X-12295714Y-33866028D01*
X-12295714Y-34311367D01*
X-12365278Y-34276585D01*
X-12388076Y-34273151D01*
X-12410000Y-34266028D01*
X-12624286Y-34266028D01*
X-12646209Y-34273151D01*
X-12669008Y-34276585D01*
X-12811865Y-34348014D01*
X-12812432Y-34348572D01*
X-12813217Y-34348703D01*
X-12834379Y-34370189D01*
X-12855897Y-34391383D01*
X-12856027Y-34392169D01*
X-12856586Y-34392736D01*
X-12928015Y-34535592D01*
X-12931448Y-34558390D01*
X-12938572Y-34580314D01*
X-12938572Y-35366028D01*
X-13152858Y-35366028D01*
X-13152858Y-33553835D01*
X-7167142Y-33553835D01*
X-7167142Y-35680314D01*
G37*
X19010000Y-45220000D02*
X19010000Y-45720000D01*
X19010000Y-40770000D02*
X19010000Y-40320000D01*
X19010000Y-40320000D02*
X17990000Y-40320000D01*
X2330000Y-40320000D02*
X1310000Y-40320000D01*
X1310000Y-45720000D02*
X1310000Y-45220000D01*
X1310000Y-40320000D02*
X1310000Y-40770000D01*
X15010000Y-39270000D02*
G75*
G03*
X14810000Y-39270000I-100000J0D01*
G01*
X14810000Y-39270000D02*
G75*
G03*
X15010000Y-39270000I100000J0D01*
G01*
X-1310000Y-45220000D02*
X-1310000Y-45720000D01*
X-1310000Y-40770000D02*
X-1310000Y-40320000D01*
X-1310000Y-40320000D02*
X-2330000Y-40320000D01*
X-17990000Y-40320000D02*
X-19010000Y-40320000D01*
X-19010000Y-45720000D02*
X-19010000Y-45220000D01*
X-19010000Y-40320000D02*
X-19010000Y-40770000D01*
X-5310000Y-39270000D02*
G75*
G03*
X-5510000Y-39270000I-100000J0D01*
G01*
X-5510000Y-39270000D02*
G75*
G03*
X-5310000Y-39270000I100000J0D01*
G01*
M02*
