G04 #@! TF.GenerationSoftware,KiCad,Pcbnew,7.0.10*
G04 #@! TF.CreationDate,2024-07-19T13:30:29-04:00*
G04 #@! TF.ProjectId,CanDoIt-v1,43616e44-6f49-4742-9d76-312e6b696361,rev?*
G04 #@! TF.SameCoordinates,Original*
G04 #@! TF.FileFunction,Copper,L4,Bot*
G04 #@! TF.FilePolarity,Positive*
%FSLAX46Y46*%
G04 Gerber Fmt 4.6, Leading zero omitted, Abs format (unit mm)*
G04 Created by KiCad (PCBNEW 7.0.10) date 2024-07-19 13:30:29*
%MOMM*%
%LPD*%
G01*
G04 APERTURE LIST*
G04 #@! TA.AperFunction,ComponentPad*
%ADD10C,1.500000*%
G04 #@! TD*
G04 #@! TA.AperFunction,SMDPad,CuDef*
%ADD11R,0.300000X1.800000*%
G04 #@! TD*
G04 #@! TA.AperFunction,SMDPad,CuDef*
%ADD12R,0.300000X1.630000*%
G04 #@! TD*
G04 #@! TA.AperFunction,ComponentPad*
%ADD13C,1.208000*%
G04 #@! TD*
G04 #@! TA.AperFunction,ViaPad*
%ADD14C,0.500000*%
G04 #@! TD*
G04 #@! TA.AperFunction,Conductor*
%ADD15C,0.203200*%
G04 #@! TD*
G04 APERTURE END LIST*
D10*
X5750000Y7475000D03*
X5750000Y-7475000D03*
X-5750000Y-7475000D03*
X-5750000Y7475000D03*
D11*
X14910000Y-40720000D03*
D12*
X14910000Y-43385000D03*
D11*
X14410000Y-40720000D03*
D12*
X14410000Y-43385000D03*
D11*
X13910000Y-40720000D03*
D12*
X13910000Y-43385000D03*
D11*
X13410000Y-40720000D03*
D12*
X13410000Y-43385000D03*
D11*
X12910000Y-40720000D03*
D12*
X12910000Y-43385000D03*
D11*
X12410000Y-40720000D03*
D12*
X12410000Y-43385000D03*
D11*
X11910000Y-40720000D03*
D12*
X11910000Y-43385000D03*
D11*
X11410000Y-40720000D03*
D12*
X11410000Y-43385000D03*
D11*
X10910000Y-40720000D03*
D12*
X10910000Y-43385000D03*
D11*
X10410000Y-40720000D03*
D12*
X10410000Y-43385000D03*
D11*
X9910000Y-40720000D03*
D12*
X9910000Y-43385000D03*
D11*
X9410000Y-40720000D03*
D12*
X9410000Y-43385000D03*
D11*
X8910000Y-40720000D03*
D12*
X8910000Y-43385000D03*
D11*
X8410000Y-40720000D03*
D12*
X8410000Y-43385000D03*
D11*
X7910000Y-40720000D03*
D12*
X7910000Y-43385000D03*
D11*
X7410000Y-40720000D03*
D12*
X7410000Y-43385000D03*
D11*
X6910000Y-40720000D03*
D12*
X6910000Y-43385000D03*
D11*
X6410000Y-40720000D03*
D12*
X6410000Y-43385000D03*
D11*
X5910000Y-40720000D03*
D12*
X5910000Y-43385000D03*
D11*
X5410000Y-40720000D03*
D12*
X5410000Y-43385000D03*
D13*
X18460000Y-44120000D03*
X18460000Y-41870000D03*
X16485000Y-43000000D03*
X3835000Y-43000000D03*
X1860000Y-44120000D03*
X1860000Y-41870000D03*
D11*
X-5410000Y-40720000D03*
D12*
X-5410000Y-43385000D03*
D11*
X-5910000Y-40720000D03*
D12*
X-5910000Y-43385000D03*
D11*
X-6410000Y-40720000D03*
D12*
X-6410000Y-43385000D03*
D11*
X-6910000Y-40720000D03*
D12*
X-6910000Y-43385000D03*
D11*
X-7410000Y-40720000D03*
D12*
X-7410000Y-43385000D03*
D11*
X-7910000Y-40720000D03*
D12*
X-7910000Y-43385000D03*
D11*
X-8410000Y-40720000D03*
D12*
X-8410000Y-43385000D03*
D11*
X-8910000Y-40720000D03*
D12*
X-8910000Y-43385000D03*
D11*
X-9410000Y-40720000D03*
D12*
X-9410000Y-43385000D03*
D11*
X-9910000Y-40720000D03*
D12*
X-9910000Y-43385000D03*
D11*
X-10410000Y-40720000D03*
D12*
X-10410000Y-43385000D03*
D11*
X-10910000Y-40720000D03*
D12*
X-10910000Y-43385000D03*
D11*
X-11410000Y-40720000D03*
D12*
X-11410000Y-43385000D03*
D11*
X-11910000Y-40720000D03*
D12*
X-11910000Y-43385000D03*
D11*
X-12410000Y-40720000D03*
D12*
X-12410000Y-43385000D03*
D11*
X-12910000Y-40720000D03*
D12*
X-12910000Y-43385000D03*
D11*
X-13410000Y-40720000D03*
D12*
X-13410000Y-43385000D03*
D11*
X-13910000Y-40720000D03*
D12*
X-13910000Y-43385000D03*
D11*
X-14410000Y-40720000D03*
D12*
X-14410000Y-43385000D03*
D11*
X-14910000Y-40720000D03*
D12*
X-14910000Y-43385000D03*
D13*
X-1860000Y-44120000D03*
X-1860000Y-41870000D03*
X-3835000Y-43000000D03*
X-16485000Y-43000000D03*
X-18460000Y-44120000D03*
X-18460000Y-41870000D03*
D14*
X-7874000Y-42115000D03*
X-8382000Y-39321000D03*
X-8890000Y-42115000D03*
X-9398000Y-38813000D03*
X-9906000Y-42115000D03*
X-10414000Y-39321000D03*
X-10922000Y-42115000D03*
X-11430000Y-38813000D03*
X-11938000Y-42115000D03*
X-12446000Y-39321000D03*
X-12954000Y-42115000D03*
X-13462000Y-38813000D03*
X-13970000Y-42115000D03*
X-14478000Y-39321000D03*
X-14986000Y-42115000D03*
X5410000Y-38813000D03*
X5918000Y-42115000D03*
X6426000Y-39321000D03*
X6934000Y-42115000D03*
X7442000Y-38813000D03*
X7950000Y-42115000D03*
X8458000Y-39321000D03*
X8966000Y-42115000D03*
X9474000Y-38813000D03*
X9982000Y-42115000D03*
X10490000Y-39321000D03*
X10998000Y-42115000D03*
X11506000Y-38813000D03*
X12014000Y-42115000D03*
X12522000Y-39321000D03*
X-5334000Y-38813000D03*
X-5842000Y-42115000D03*
X-6350000Y-39321000D03*
X-6858000Y-42115000D03*
X-7366000Y-38813000D03*
X15062000Y-42115000D03*
X14554000Y-39321000D03*
X14046000Y-42115000D03*
X13538000Y-38813000D03*
X13030000Y-42115000D03*
D15*
X-7910000Y-40773000D02*
X-7910000Y-42079000D01*
X-7910000Y-42079000D02*
X-7874000Y-42115000D01*
X-8410000Y-39349000D02*
X-8382000Y-39321000D01*
X-8410000Y-40773000D02*
X-8410000Y-39349000D01*
X-8910000Y-40773000D02*
X-8910000Y-42095000D01*
X-8910000Y-42095000D02*
X-8890000Y-42115000D01*
X-9410000Y-38825000D02*
X-9398000Y-38813000D01*
X-9410000Y-40773000D02*
X-9410000Y-38825000D01*
X-9910000Y-40773000D02*
X-9910000Y-42111000D01*
X-9910000Y-42111000D02*
X-9906000Y-42115000D01*
X-10410000Y-40773000D02*
X-10410000Y-39325000D01*
X-10410000Y-39325000D02*
X-10414000Y-39321000D01*
X-10910000Y-40773000D02*
X-10910000Y-42103000D01*
X-10910000Y-42103000D02*
X-10922000Y-42115000D01*
X-11410000Y-38833000D02*
X-11430000Y-38813000D01*
X-11410000Y-40773000D02*
X-11410000Y-38833000D01*
X-11910000Y-40773000D02*
X-11910000Y-42087000D01*
X-11910000Y-42087000D02*
X-11938000Y-42115000D01*
X-12410000Y-40773000D02*
X-12410000Y-39357000D01*
X-12410000Y-39357000D02*
X-12446000Y-39321000D01*
X-12910000Y-40773000D02*
X-12910000Y-42071000D01*
X-12910000Y-42071000D02*
X-12954000Y-42115000D01*
X-13410000Y-40773000D02*
X-13410000Y-38865000D01*
X-13410000Y-38865000D02*
X-13462000Y-38813000D01*
X-13910000Y-40773000D02*
X-13910000Y-42055000D01*
X-13910000Y-42055000D02*
X-13970000Y-42115000D01*
X-14410000Y-39389000D02*
X-14478000Y-39321000D01*
X-14410000Y-40773000D02*
X-14410000Y-39389000D01*
X-14910000Y-40773000D02*
X-14910000Y-42039000D01*
X-14910000Y-42039000D02*
X-14986000Y-42115000D01*
X5410000Y-40720000D02*
X5410000Y-38813000D01*
X5918000Y-40728000D02*
X5918000Y-42115000D01*
X5910000Y-40720000D02*
X5918000Y-40728000D01*
X6410000Y-40720000D02*
X6410000Y-39337000D01*
X6410000Y-39337000D02*
X6426000Y-39321000D01*
X6934000Y-40744000D02*
X6934000Y-42115000D01*
X6910000Y-40720000D02*
X6934000Y-40744000D01*
X7410000Y-40697000D02*
X7410000Y-38845000D01*
X7410000Y-38845000D02*
X7442000Y-38813000D01*
X7910000Y-42075000D02*
X7950000Y-42115000D01*
X7910000Y-40720000D02*
X7910000Y-42075000D01*
X8410000Y-39369000D02*
X8458000Y-39321000D01*
X8410000Y-40720000D02*
X8410000Y-39369000D01*
X8910000Y-40720000D02*
X8910000Y-42059000D01*
X8910000Y-42059000D02*
X8966000Y-42115000D01*
X9410000Y-40720000D02*
X9410000Y-38877000D01*
X9410000Y-38877000D02*
X9474000Y-38813000D01*
X9910000Y-40720000D02*
X9910000Y-42043000D01*
X9910000Y-42043000D02*
X9982000Y-42115000D01*
X10410000Y-40720000D02*
X10410000Y-39401000D01*
X10410000Y-39401000D02*
X10490000Y-39321000D01*
X10910000Y-42027000D02*
X10998000Y-42115000D01*
X10910000Y-40720000D02*
X10910000Y-42027000D01*
X11410000Y-38909000D02*
X11506000Y-38813000D01*
X11410000Y-40720000D02*
X11410000Y-38909000D01*
X11910000Y-40720000D02*
X11910000Y-42011000D01*
X11910000Y-42011000D02*
X12014000Y-42115000D01*
X12410000Y-40720000D02*
X12410000Y-39433000D01*
X12410000Y-39433000D02*
X12522000Y-39321000D01*
X-5410000Y-40773000D02*
X-5410000Y-38889000D01*
X-5410000Y-38889000D02*
X-5334000Y-38813000D01*
X-5910000Y-42047000D02*
X-5842000Y-42115000D01*
X-5910000Y-40773000D02*
X-5910000Y-42047000D01*
X-6410000Y-40773000D02*
X-6410000Y-39381000D01*
X-6410000Y-39381000D02*
X-6350000Y-39321000D01*
X-6910000Y-40773000D02*
X-6910000Y-42063000D01*
X-6910000Y-42063000D02*
X-6858000Y-42115000D01*
X-7410000Y-40773000D02*
X-7410000Y-38857000D01*
X-7410000Y-38857000D02*
X-7366000Y-38813000D01*
X14910000Y-40720000D02*
X14910000Y-41963000D01*
X14910000Y-41963000D02*
X15062000Y-42115000D01*
X14410000Y-40720000D02*
X14410000Y-39465000D01*
X14410000Y-39465000D02*
X14554000Y-39321000D01*
X13910000Y-41979000D02*
X14046000Y-42115000D01*
X13910000Y-40720000D02*
X13910000Y-41979000D01*
X13410000Y-40720000D02*
X13410000Y-38941000D01*
X13410000Y-38941000D02*
X13538000Y-38813000D01*
X12910000Y-40720000D02*
X12910000Y-41995000D01*
X12910000Y-41995000D02*
X13030000Y-42115000D01*
G04 #@! TA.AperFunction,Conductor*
G36*
X20863279Y22859285D02*
G01*
X20866854Y22859050D01*
X20943364Y22854035D01*
X20943960Y22853994D01*
X21123034Y22841186D01*
X21135482Y22839509D01*
X21248536Y22817022D01*
X21250295Y22816656D01*
X21391516Y22785935D01*
X21402468Y22782895D01*
X21518008Y22743675D01*
X21520829Y22742671D01*
X21649911Y22694525D01*
X21659249Y22690493D01*
X21771059Y22635354D01*
X21774776Y22633424D01*
X21893393Y22568655D01*
X21901072Y22564006D01*
X22005802Y22494027D01*
X22010199Y22490915D01*
X22117436Y22410638D01*
X22123478Y22405739D01*
X22218545Y22322368D01*
X22223350Y22317868D01*
X22317868Y22223350D01*
X22322368Y22218545D01*
X22405739Y22123478D01*
X22410638Y22117436D01*
X22490915Y22010199D01*
X22494027Y22005802D01*
X22564006Y21901072D01*
X22568655Y21893393D01*
X22633424Y21774776D01*
X22635354Y21771059D01*
X22690493Y21659249D01*
X22694525Y21649911D01*
X22742671Y21520829D01*
X22743675Y21518008D01*
X22782895Y21402468D01*
X22785935Y21391516D01*
X22816656Y21250295D01*
X22817022Y21248536D01*
X22839509Y21135482D01*
X22841186Y21123034D01*
X22853994Y20943960D01*
X22854035Y20943364D01*
X22859285Y20863281D01*
X22859500Y20856700D01*
X22859500Y-43716700D01*
X22859285Y-43723281D01*
X22854035Y-43803364D01*
X22853994Y-43803960D01*
X22841186Y-43983034D01*
X22839509Y-43995482D01*
X22817022Y-44108536D01*
X22816656Y-44110295D01*
X22785935Y-44251516D01*
X22782895Y-44262468D01*
X22743675Y-44378008D01*
X22742671Y-44380829D01*
X22694525Y-44509911D01*
X22690493Y-44519249D01*
X22635354Y-44631059D01*
X22633424Y-44634776D01*
X22568655Y-44753393D01*
X22564006Y-44761072D01*
X22494027Y-44865802D01*
X22490915Y-44870199D01*
X22410638Y-44977436D01*
X22405739Y-44983478D01*
X22322368Y-45078545D01*
X22317868Y-45083350D01*
X22223350Y-45177868D01*
X22218545Y-45182368D01*
X22123478Y-45265739D01*
X22117436Y-45270638D01*
X22010199Y-45350915D01*
X22005802Y-45354027D01*
X21901072Y-45424006D01*
X21893393Y-45428655D01*
X21774776Y-45493424D01*
X21771059Y-45495354D01*
X21659249Y-45550493D01*
X21649911Y-45554525D01*
X21520829Y-45602671D01*
X21518008Y-45603675D01*
X21402468Y-45642895D01*
X21391516Y-45645935D01*
X21250295Y-45676656D01*
X21248536Y-45677022D01*
X21135482Y-45699509D01*
X21123034Y-45701186D01*
X20943960Y-45713994D01*
X20943364Y-45714035D01*
X20866854Y-45719050D01*
X20863279Y-45719285D01*
X20856700Y-45719500D01*
X-20856700Y-45719500D01*
X-20863279Y-45719285D01*
X-20866854Y-45719050D01*
X-20943364Y-45714035D01*
X-20943960Y-45713994D01*
X-21123034Y-45701186D01*
X-21135482Y-45699509D01*
X-21248536Y-45677022D01*
X-21250295Y-45676656D01*
X-21391516Y-45645935D01*
X-21402468Y-45642895D01*
X-21518008Y-45603675D01*
X-21520829Y-45602671D01*
X-21649911Y-45554525D01*
X-21659248Y-45550493D01*
X-21771057Y-45495355D01*
X-21774776Y-45493424D01*
X-21893400Y-45428650D01*
X-21901077Y-45424002D01*
X-22005791Y-45354035D01*
X-22010188Y-45350923D01*
X-22117436Y-45270638D01*
X-22123479Y-45265739D01*
X-22218551Y-45182363D01*
X-22223356Y-45177863D01*
X-22317863Y-45083356D01*
X-22322363Y-45078551D01*
X-22341135Y-45057146D01*
X-19043592Y-45057146D01*
X-18954205Y-45112492D01*
X-18763418Y-45186404D01*
X-18562302Y-45224000D01*
X-18357697Y-45224000D01*
X-18156581Y-45186404D01*
X-17965798Y-45112494D01*
X-17876406Y-45057146D01*
X-2443592Y-45057146D01*
X-2354205Y-45112492D01*
X-2163418Y-45186404D01*
X-1962302Y-45224000D01*
X-1757697Y-45224000D01*
X-1556581Y-45186404D01*
X-1365798Y-45112494D01*
X-1276406Y-45057146D01*
X1276406Y-45057146D01*
X1365798Y-45112494D01*
X1556581Y-45186404D01*
X1757697Y-45224000D01*
X1962302Y-45224000D01*
X2163418Y-45186404D01*
X2354205Y-45112492D01*
X2443592Y-45057146D01*
X17876405Y-45057146D01*
X17965798Y-45112494D01*
X18156581Y-45186404D01*
X18357697Y-45224000D01*
X18562302Y-45224000D01*
X18763418Y-45186404D01*
X18954205Y-45112492D01*
X19043592Y-45057146D01*
X18460000Y-44473553D01*
X17876405Y-45057146D01*
X2443592Y-45057146D01*
X1860000Y-44473553D01*
X1276406Y-45057146D01*
X-1276406Y-45057146D01*
X-1860000Y-44473553D01*
X-2443592Y-45057146D01*
X-17876406Y-45057146D01*
X-18460000Y-44473553D01*
X-19043592Y-45057146D01*
X-22341135Y-45057146D01*
X-22405739Y-44983479D01*
X-22410638Y-44977436D01*
X-22490923Y-44870188D01*
X-22494035Y-44865791D01*
X-22564002Y-44761077D01*
X-22568650Y-44753400D01*
X-22633424Y-44634776D01*
X-22635355Y-44631057D01*
X-22690493Y-44519248D01*
X-22694525Y-44509911D01*
X-22742671Y-44380829D01*
X-22743675Y-44378008D01*
X-22782895Y-44262468D01*
X-22785935Y-44251516D01*
X-22814545Y-44120000D01*
X-19568729Y-44120000D01*
X-19549852Y-44323724D01*
X-19549852Y-44323725D01*
X-19493859Y-44520520D01*
X-19493858Y-44520522D01*
X-19402658Y-44703674D01*
X-19402657Y-44703677D01*
X-19400322Y-44706767D01*
X-19400321Y-44706767D01*
X-18813553Y-44119999D01*
X-19400320Y-43533231D01*
X-19402659Y-43536327D01*
X-19402663Y-43536334D01*
X-19493858Y-43719477D01*
X-19493859Y-43719479D01*
X-19549852Y-43916274D01*
X-19549852Y-43916275D01*
X-19568729Y-44120000D01*
X-22814545Y-44120000D01*
X-22816656Y-44110295D01*
X-22817022Y-44108536D01*
X-22839509Y-43995482D01*
X-22841186Y-43983034D01*
X-22853994Y-43803960D01*
X-22854035Y-43803364D01*
X-22859285Y-43723281D01*
X-22859500Y-43716700D01*
X-22859500Y-43182853D01*
X-19043593Y-43182853D01*
X-18460000Y-43766447D01*
X-18456447Y-43770000D01*
X-18489005Y-43770000D01*
X-18575216Y-43784386D01*
X-18677947Y-43839981D01*
X-18757060Y-43925921D01*
X-18803982Y-44032892D01*
X-18813628Y-44149302D01*
X-18784953Y-44262538D01*
X-18721064Y-44360327D01*
X-18628885Y-44432072D01*
X-18518405Y-44470000D01*
X-18430995Y-44470000D01*
X-18344784Y-44455614D01*
X-18242053Y-44400019D01*
X-18162940Y-44314079D01*
X-18116018Y-44207108D01*
X-18108619Y-44117826D01*
X-17519678Y-44706767D01*
X-17517335Y-44703665D01*
X-17426143Y-44520527D01*
X-17426140Y-44520520D01*
X-17370147Y-44323725D01*
X-17370147Y-44323724D01*
X-17351270Y-44119999D01*
X-17369395Y-43924388D01*
X-17355720Y-43863736D01*
X-17309006Y-43822706D01*
X-17247097Y-43816970D01*
X-17201449Y-43840763D01*
X-17153160Y-43884785D01*
X-17153156Y-43884788D01*
X-16979201Y-43992494D01*
X-16788418Y-44066404D01*
X-16587302Y-44104000D01*
X-16382697Y-44104000D01*
X-16181581Y-44066404D01*
X-15990798Y-43992494D01*
X-15901406Y-43937146D01*
X-15901405Y-43937145D01*
X-16488551Y-43350000D01*
X-16455995Y-43350000D01*
X-16369784Y-43335614D01*
X-16267053Y-43280019D01*
X-16187940Y-43194079D01*
X-16141018Y-43087108D01*
X-16133800Y-42999999D01*
X-16131446Y-42999999D01*
X-15568307Y-43563139D01*
X-15540081Y-43618537D01*
X-15549807Y-43679945D01*
X-15556986Y-43689826D01*
X-15560000Y-43697102D01*
X-15560000Y-44247827D01*
X-15553597Y-44307375D01*
X-15553596Y-44307380D01*
X-15503355Y-44442085D01*
X-15503354Y-44442087D01*
X-15417188Y-44557188D01*
X-15302087Y-44643354D01*
X-15302085Y-44643355D01*
X-15167380Y-44693596D01*
X-15167375Y-44693597D01*
X-15107828Y-44700000D01*
X-15060000Y-44700000D01*
X-15060000Y-43535000D01*
X-14760000Y-43535000D01*
X-14760000Y-44700000D01*
X-14712174Y-44700000D01*
X-14670756Y-44695546D01*
X-14649244Y-44695546D01*
X-14607826Y-44700000D01*
X-14560000Y-44700000D01*
X-14560000Y-43535000D01*
X-14260000Y-43535000D01*
X-14260000Y-44700000D01*
X-14212174Y-44700000D01*
X-14170756Y-44695546D01*
X-14149244Y-44695546D01*
X-14107826Y-44700000D01*
X-14060000Y-44700000D01*
X-14060000Y-43535000D01*
X-13760000Y-43535000D01*
X-13760000Y-44700000D01*
X-13712174Y-44700000D01*
X-13670756Y-44695546D01*
X-13649244Y-44695546D01*
X-13607826Y-44700000D01*
X-13560000Y-44700000D01*
X-13560000Y-43535000D01*
X-13260000Y-43535000D01*
X-13260000Y-44700000D01*
X-13212174Y-44700000D01*
X-13170756Y-44695546D01*
X-13149244Y-44695546D01*
X-13107826Y-44700000D01*
X-13060000Y-44700000D01*
X-13060000Y-43535000D01*
X-12760000Y-43535000D01*
X-12760000Y-44700000D01*
X-12712174Y-44700000D01*
X-12670756Y-44695546D01*
X-12649244Y-44695546D01*
X-12607826Y-44700000D01*
X-12560000Y-44700000D01*
X-12560000Y-43535000D01*
X-12260000Y-43535000D01*
X-12260000Y-44700000D01*
X-12212174Y-44700000D01*
X-12170756Y-44695546D01*
X-12149244Y-44695546D01*
X-12107826Y-44700000D01*
X-12060000Y-44700000D01*
X-12060000Y-43535000D01*
X-11760000Y-43535000D01*
X-11760000Y-44700000D01*
X-11712174Y-44700000D01*
X-11670756Y-44695546D01*
X-11649244Y-44695546D01*
X-11607826Y-44700000D01*
X-11560000Y-44700000D01*
X-11560000Y-43535000D01*
X-11260000Y-43535000D01*
X-11260000Y-44700000D01*
X-11212174Y-44700000D01*
X-11170756Y-44695546D01*
X-11149244Y-44695546D01*
X-11107826Y-44700000D01*
X-11060000Y-44700000D01*
X-11060000Y-43535000D01*
X-10760000Y-43535000D01*
X-10760000Y-44700000D01*
X-10712174Y-44700000D01*
X-10670756Y-44695546D01*
X-10649244Y-44695546D01*
X-10607826Y-44700000D01*
X-10560000Y-44700000D01*
X-10560000Y-43535000D01*
X-10260000Y-43535000D01*
X-10260000Y-44700000D01*
X-10212174Y-44700000D01*
X-10170756Y-44695546D01*
X-10149244Y-44695546D01*
X-10107826Y-44700000D01*
X-10060000Y-44700000D01*
X-10060000Y-43535000D01*
X-9760000Y-43535000D01*
X-9760000Y-44700000D01*
X-9712174Y-44700000D01*
X-9670756Y-44695546D01*
X-9649244Y-44695546D01*
X-9607826Y-44700000D01*
X-9560000Y-44700000D01*
X-9560000Y-43535000D01*
X-9260000Y-43535000D01*
X-9260000Y-44700000D01*
X-9212174Y-44700000D01*
X-9170756Y-44695546D01*
X-9149244Y-44695546D01*
X-9107826Y-44700000D01*
X-9060000Y-44700000D01*
X-9060000Y-43535000D01*
X-8760000Y-43535000D01*
X-8760000Y-44700000D01*
X-8712174Y-44700000D01*
X-8670756Y-44695546D01*
X-8649244Y-44695546D01*
X-8607826Y-44700000D01*
X-8560000Y-44700000D01*
X-8560000Y-43535000D01*
X-8260000Y-43535000D01*
X-8260000Y-44700000D01*
X-8212174Y-44700000D01*
X-8170756Y-44695546D01*
X-8149244Y-44695546D01*
X-8107826Y-44700000D01*
X-8060000Y-44700000D01*
X-8060000Y-43535000D01*
X-7760000Y-43535000D01*
X-7760000Y-44700000D01*
X-7712174Y-44700000D01*
X-7670756Y-44695546D01*
X-7649244Y-44695546D01*
X-7607826Y-44700000D01*
X-7560000Y-44700000D01*
X-7560000Y-43535000D01*
X-7260000Y-43535000D01*
X-7260000Y-44700000D01*
X-7212174Y-44700000D01*
X-7170756Y-44695546D01*
X-7149244Y-44695546D01*
X-7107826Y-44700000D01*
X-7060000Y-44700000D01*
X-7060000Y-43535000D01*
X-6760000Y-43535000D01*
X-6760000Y-44700000D01*
X-6712174Y-44700000D01*
X-6670756Y-44695546D01*
X-6649244Y-44695546D01*
X-6607826Y-44700000D01*
X-6560000Y-44700000D01*
X-6560000Y-43535000D01*
X-6260000Y-43535000D01*
X-6260000Y-44700000D01*
X-6212174Y-44700000D01*
X-6170756Y-44695546D01*
X-6149244Y-44695546D01*
X-6107826Y-44700000D01*
X-6060000Y-44700000D01*
X-6060000Y-43535000D01*
X-5760000Y-43535000D01*
X-5760000Y-44700000D01*
X-5712174Y-44700000D01*
X-5670756Y-44695546D01*
X-5649244Y-44695546D01*
X-5607826Y-44700000D01*
X-5560000Y-44700000D01*
X-5560000Y-43535000D01*
X-5760000Y-43535000D01*
X-6060000Y-43535000D01*
X-6260000Y-43535000D01*
X-6560000Y-43535000D01*
X-6760000Y-43535000D01*
X-7060000Y-43535000D01*
X-7260000Y-43535000D01*
X-7560000Y-43535000D01*
X-7760000Y-43535000D01*
X-8060000Y-43535000D01*
X-8260000Y-43535000D01*
X-8560000Y-43535000D01*
X-8760000Y-43535000D01*
X-9060000Y-43535000D01*
X-9260000Y-43535000D01*
X-9560000Y-43535000D01*
X-9760000Y-43535000D01*
X-10060000Y-43535000D01*
X-10260000Y-43535000D01*
X-10560000Y-43535000D01*
X-10760000Y-43535000D01*
X-11060000Y-43535000D01*
X-11260000Y-43535000D01*
X-11560000Y-43535000D01*
X-11760000Y-43535000D01*
X-12060000Y-43535000D01*
X-12260000Y-43535000D01*
X-12560000Y-43535000D01*
X-12760000Y-43535000D01*
X-13060000Y-43535000D01*
X-13260000Y-43535000D01*
X-13560000Y-43535000D01*
X-13760000Y-43535000D01*
X-14060000Y-43535000D01*
X-14260000Y-43535000D01*
X-14560000Y-43535000D01*
X-14760000Y-43535000D01*
X-15060000Y-43535000D01*
X-15060000Y-43335600D01*
X-15040787Y-43276469D01*
X-14990487Y-43239924D01*
X-14959400Y-43235000D01*
X-5360600Y-43235000D01*
X-5301469Y-43254213D01*
X-5264924Y-43304513D01*
X-5260000Y-43335600D01*
X-5260000Y-44700000D01*
X-5212172Y-44700000D01*
X-5152624Y-44693597D01*
X-5152619Y-44693596D01*
X-5017914Y-44643355D01*
X-5017912Y-44643354D01*
X-4902811Y-44557188D01*
X-4816645Y-44442087D01*
X-4816644Y-44442085D01*
X-4766403Y-44307380D01*
X-4766402Y-44307375D01*
X-4760000Y-44247827D01*
X-4760000Y-43697102D01*
X-4767658Y-43678615D01*
X-4765747Y-43677823D01*
X-4779920Y-43650003D01*
X-4770188Y-43588595D01*
X-4751692Y-43563139D01*
X-4188553Y-43000000D01*
X-4188553Y-42999999D01*
X-4775000Y-42413552D01*
X-4798121Y-42377576D01*
X-4816645Y-42327912D01*
X-4902811Y-42212811D01*
X-5017912Y-42126645D01*
X-5017914Y-42126644D01*
X-5152619Y-42076403D01*
X-5152624Y-42076402D01*
X-5212172Y-42070000D01*
X-5302935Y-42070000D01*
X-5324931Y-42062853D01*
X-4418593Y-42062853D01*
X-3835000Y-42646447D01*
X-3831447Y-42650000D01*
X-3864005Y-42650000D01*
X-3950216Y-42664386D01*
X-4052947Y-42719981D01*
X-4132060Y-42805921D01*
X-4178982Y-42912892D01*
X-4188628Y-43029302D01*
X-4159953Y-43142538D01*
X-4096064Y-43240327D01*
X-4003885Y-43312072D01*
X-3893405Y-43350000D01*
X-3831446Y-43350000D01*
X-4418592Y-43937146D01*
X-4329205Y-43992492D01*
X-4138418Y-44066404D01*
X-3937302Y-44104000D01*
X-3732697Y-44104000D01*
X-3531581Y-44066404D01*
X-3340798Y-43992494D01*
X-3166843Y-43884788D01*
X-3166839Y-43884785D01*
X-3118549Y-43840762D01*
X-3061907Y-43815124D01*
X-3001013Y-43827675D01*
X-2959126Y-43873622D01*
X-2950604Y-43924388D01*
X-2968729Y-44120000D01*
X-2949852Y-44323724D01*
X-2949852Y-44323725D01*
X-2893859Y-44520520D01*
X-2893858Y-44520522D01*
X-2802658Y-44703674D01*
X-2802657Y-44703677D01*
X-2800322Y-44706767D01*
X-2800321Y-44706767D01*
X-2210987Y-44117433D01*
X-2213628Y-44149302D01*
X-2184953Y-44262538D01*
X-2121064Y-44360327D01*
X-2028885Y-44432072D01*
X-1918405Y-44470000D01*
X-1830995Y-44470000D01*
X-1744784Y-44455614D01*
X-1642053Y-44400019D01*
X-1562940Y-44314079D01*
X-1516018Y-44207108D01*
X-1508800Y-44119999D01*
X-1506446Y-44119999D01*
X-919678Y-44706767D01*
X-917335Y-44703665D01*
X-826143Y-44520527D01*
X-826140Y-44520520D01*
X-770147Y-44323725D01*
X-770147Y-44323724D01*
X-751270Y-44120000D01*
X751270Y-44120000D01*
X770147Y-44323724D01*
X770147Y-44323725D01*
X826140Y-44520520D01*
X826143Y-44520527D01*
X917335Y-44703665D01*
X919678Y-44706767D01*
X1506446Y-44119999D01*
X919678Y-43533231D01*
X919677Y-43533231D01*
X917342Y-43536323D01*
X826141Y-43719477D01*
X826140Y-43719479D01*
X770147Y-43916274D01*
X770147Y-43916275D01*
X751270Y-44120000D01*
X-751270Y-44120000D01*
X-770147Y-43916275D01*
X-770147Y-43916274D01*
X-826140Y-43719479D01*
X-826141Y-43719477D01*
X-917342Y-43536323D01*
X-919677Y-43533231D01*
X-919678Y-43533231D01*
X-1506446Y-44119999D01*
X-1508800Y-44119999D01*
X-1506372Y-44090698D01*
X-1535047Y-43977462D01*
X-1598936Y-43879673D01*
X-1691115Y-43807928D01*
X-1801595Y-43770000D01*
X-1863553Y-43770000D01*
X-1860000Y-43766447D01*
X-1276406Y-43182853D01*
X-1276406Y-43182852D01*
X-1365790Y-43127509D01*
X-1365798Y-43127505D01*
X-1465689Y-43088807D01*
X-1513887Y-43049530D01*
X-1529793Y-42989425D01*
X-1507333Y-42931450D01*
X-1465689Y-42901193D01*
X-1365798Y-42862494D01*
X-1276406Y-42807146D01*
X-1276405Y-42807145D01*
X1276405Y-42807145D01*
X1276406Y-42807146D01*
X1365798Y-42862494D01*
X1465689Y-42901193D01*
X1513887Y-42940470D01*
X1529793Y-43000575D01*
X1507333Y-43058550D01*
X1465689Y-43088807D01*
X1365798Y-43127505D01*
X1365790Y-43127509D01*
X1276406Y-43182852D01*
X1276406Y-43182853D01*
X1860000Y-43766447D01*
X1863553Y-43770000D01*
X1830995Y-43770000D01*
X1744784Y-43784386D01*
X1642053Y-43839981D01*
X1562940Y-43925921D01*
X1516018Y-44032892D01*
X1506372Y-44149302D01*
X1535047Y-44262538D01*
X1598936Y-44360327D01*
X1691115Y-44432072D01*
X1801595Y-44470000D01*
X1889005Y-44470000D01*
X1975216Y-44455614D01*
X2077947Y-44400019D01*
X2157060Y-44314079D01*
X2203982Y-44207108D01*
X2211380Y-44117826D01*
X2800321Y-44706767D01*
X2800322Y-44706767D01*
X2802657Y-44703677D01*
X2802658Y-44703674D01*
X2893858Y-44520522D01*
X2893859Y-44520520D01*
X2949852Y-44323725D01*
X2949852Y-44323724D01*
X2968729Y-44120000D01*
X2950604Y-43924388D01*
X2964279Y-43863736D01*
X3010993Y-43822706D01*
X3072902Y-43816970D01*
X3118549Y-43840762D01*
X3166839Y-43884785D01*
X3166843Y-43884788D01*
X3340798Y-43992494D01*
X3531581Y-44066404D01*
X3732697Y-44104000D01*
X3937302Y-44104000D01*
X4138418Y-44066404D01*
X4329205Y-43992492D01*
X4418592Y-43937146D01*
X3831446Y-43350000D01*
X3864005Y-43350000D01*
X3950216Y-43335614D01*
X4052947Y-43280019D01*
X4132060Y-43194079D01*
X4178982Y-43087108D01*
X4186200Y-43000000D01*
X4188553Y-43000000D01*
X4751692Y-43563139D01*
X4779918Y-43618537D01*
X4770192Y-43679945D01*
X4763014Y-43689825D01*
X4760000Y-43697102D01*
X4760000Y-44247827D01*
X4766402Y-44307375D01*
X4766403Y-44307380D01*
X4816644Y-44442085D01*
X4816645Y-44442087D01*
X4902811Y-44557188D01*
X5017912Y-44643354D01*
X5017914Y-44643355D01*
X5152619Y-44693596D01*
X5152624Y-44693597D01*
X5212172Y-44700000D01*
X5260000Y-44700000D01*
X5260000Y-43535000D01*
X5560000Y-43535000D01*
X5560000Y-44700000D01*
X5607826Y-44700000D01*
X5649244Y-44695546D01*
X5670756Y-44695546D01*
X5712174Y-44700000D01*
X5760000Y-44700000D01*
X5760000Y-43535000D01*
X6060000Y-43535000D01*
X6060000Y-44700000D01*
X6107826Y-44700000D01*
X6149244Y-44695546D01*
X6170756Y-44695546D01*
X6212174Y-44700000D01*
X6260000Y-44700000D01*
X6260000Y-43535000D01*
X6560000Y-43535000D01*
X6560000Y-44700000D01*
X6607826Y-44700000D01*
X6649244Y-44695546D01*
X6670756Y-44695546D01*
X6712174Y-44700000D01*
X6760000Y-44700000D01*
X6760000Y-43535000D01*
X7060000Y-43535000D01*
X7060000Y-44700000D01*
X7107826Y-44700000D01*
X7149244Y-44695546D01*
X7170756Y-44695546D01*
X7212174Y-44700000D01*
X7260000Y-44700000D01*
X7260000Y-43535000D01*
X7560000Y-43535000D01*
X7560000Y-44700000D01*
X7607826Y-44700000D01*
X7649244Y-44695546D01*
X7670756Y-44695546D01*
X7712174Y-44700000D01*
X7760000Y-44700000D01*
X7760000Y-43535000D01*
X8060000Y-43535000D01*
X8060000Y-44700000D01*
X8107826Y-44700000D01*
X8149244Y-44695546D01*
X8170756Y-44695546D01*
X8212174Y-44700000D01*
X8260000Y-44700000D01*
X8260000Y-43535000D01*
X8560000Y-43535000D01*
X8560000Y-44700000D01*
X8607826Y-44700000D01*
X8649244Y-44695546D01*
X8670756Y-44695546D01*
X8712174Y-44700000D01*
X8760000Y-44700000D01*
X8760000Y-43535000D01*
X9060000Y-43535000D01*
X9060000Y-44700000D01*
X9107826Y-44700000D01*
X9149244Y-44695546D01*
X9170756Y-44695546D01*
X9212174Y-44700000D01*
X9260000Y-44700000D01*
X9260000Y-43535000D01*
X9560000Y-43535000D01*
X9560000Y-44700000D01*
X9607826Y-44700000D01*
X9649244Y-44695546D01*
X9670756Y-44695546D01*
X9712174Y-44700000D01*
X9760000Y-44700000D01*
X9760000Y-43535000D01*
X10060000Y-43535000D01*
X10060000Y-44700000D01*
X10107826Y-44700000D01*
X10149244Y-44695546D01*
X10170756Y-44695546D01*
X10212174Y-44700000D01*
X10260000Y-44700000D01*
X10260000Y-43535000D01*
X10560000Y-43535000D01*
X10560000Y-44700000D01*
X10607826Y-44700000D01*
X10649244Y-44695546D01*
X10670756Y-44695546D01*
X10712174Y-44700000D01*
X10760000Y-44700000D01*
X10760000Y-43535000D01*
X11060000Y-43535000D01*
X11060000Y-44700000D01*
X11107826Y-44700000D01*
X11149244Y-44695546D01*
X11170756Y-44695546D01*
X11212174Y-44700000D01*
X11260000Y-44700000D01*
X11260000Y-43535000D01*
X11560000Y-43535000D01*
X11560000Y-44700000D01*
X11607826Y-44700000D01*
X11649244Y-44695546D01*
X11670756Y-44695546D01*
X11712174Y-44700000D01*
X11760000Y-44700000D01*
X11760000Y-43535000D01*
X12060000Y-43535000D01*
X12060000Y-44700000D01*
X12107826Y-44700000D01*
X12149244Y-44695546D01*
X12170756Y-44695546D01*
X12212174Y-44700000D01*
X12260000Y-44700000D01*
X12260000Y-43535000D01*
X12560000Y-43535000D01*
X12560000Y-44700000D01*
X12607826Y-44700000D01*
X12649244Y-44695546D01*
X12670756Y-44695546D01*
X12712174Y-44700000D01*
X12760000Y-44700000D01*
X12760000Y-43535000D01*
X13060000Y-43535000D01*
X13060000Y-44700000D01*
X13107826Y-44700000D01*
X13149244Y-44695546D01*
X13170756Y-44695546D01*
X13212174Y-44700000D01*
X13260000Y-44700000D01*
X13260000Y-43535000D01*
X13560000Y-43535000D01*
X13560000Y-44700000D01*
X13607826Y-44700000D01*
X13649244Y-44695546D01*
X13670756Y-44695546D01*
X13712174Y-44700000D01*
X13760000Y-44700000D01*
X13760000Y-43535000D01*
X14060000Y-43535000D01*
X14060000Y-44700000D01*
X14107826Y-44700000D01*
X14149244Y-44695546D01*
X14170756Y-44695546D01*
X14212174Y-44700000D01*
X14260000Y-44700000D01*
X14260000Y-43535000D01*
X14560000Y-43535000D01*
X14560000Y-44700000D01*
X14607826Y-44700000D01*
X14649244Y-44695546D01*
X14670756Y-44695546D01*
X14712174Y-44700000D01*
X14760000Y-44700000D01*
X14760000Y-43535000D01*
X14560000Y-43535000D01*
X14260000Y-43535000D01*
X14060000Y-43535000D01*
X13760000Y-43535000D01*
X13560000Y-43535000D01*
X13260000Y-43535000D01*
X13060000Y-43535000D01*
X12760000Y-43535000D01*
X12560000Y-43535000D01*
X12260000Y-43535000D01*
X12060000Y-43535000D01*
X11760000Y-43535000D01*
X11560000Y-43535000D01*
X11260000Y-43535000D01*
X11060000Y-43535000D01*
X10760000Y-43535000D01*
X10560000Y-43535000D01*
X10260000Y-43535000D01*
X10060000Y-43535000D01*
X9760000Y-43535000D01*
X9560000Y-43535000D01*
X9260000Y-43535000D01*
X9060000Y-43535000D01*
X8760000Y-43535000D01*
X8560000Y-43535000D01*
X8260000Y-43535000D01*
X8060000Y-43535000D01*
X7760000Y-43535000D01*
X7560000Y-43535000D01*
X7260000Y-43535000D01*
X7060000Y-43535000D01*
X6760000Y-43535000D01*
X6560000Y-43535000D01*
X6260000Y-43535000D01*
X6060000Y-43535000D01*
X5760000Y-43535000D01*
X5560000Y-43535000D01*
X5260000Y-43535000D01*
X5260000Y-42133079D01*
X5265081Y-42117439D01*
X5260000Y-42096920D01*
X5260000Y-42070000D01*
X5212172Y-42070000D01*
X5152624Y-42076402D01*
X5152619Y-42076403D01*
X5017914Y-42126644D01*
X5017912Y-42126645D01*
X4902811Y-42212811D01*
X4816645Y-42327912D01*
X4798121Y-42377576D01*
X4775000Y-42413552D01*
X4188553Y-42999999D01*
X4188553Y-43000000D01*
X4186200Y-43000000D01*
X4188628Y-42970698D01*
X4159953Y-42857462D01*
X4096064Y-42759673D01*
X4003885Y-42687928D01*
X3893405Y-42650000D01*
X3831447Y-42650000D01*
X3835000Y-42646447D01*
X4418593Y-42062853D01*
X4418592Y-42062852D01*
X4329209Y-42007509D01*
X4329201Y-42007505D01*
X4287441Y-41991327D01*
X4239243Y-41952050D01*
X4223337Y-41891945D01*
X4241196Y-41844108D01*
X4239420Y-41843002D01*
X4242119Y-41838670D01*
X4242119Y-41838669D01*
X4242122Y-41838666D01*
X4329495Y-41660544D01*
X4379224Y-41468480D01*
X4389272Y-41270337D01*
X4359230Y-41074227D01*
X4290325Y-40888180D01*
X4185380Y-40719811D01*
X4048691Y-40576014D01*
X3885854Y-40462676D01*
X3885852Y-40462675D01*
X3885849Y-40462673D01*
X3703540Y-40384439D01*
X3703538Y-40384438D01*
X3703535Y-40384437D01*
X3703532Y-40384436D01*
X3703531Y-40384436D01*
X3582389Y-40359541D01*
X3509199Y-40344500D01*
X3360527Y-40344500D01*
X3360526Y-40344500D01*
X3212620Y-40359540D01*
X3212615Y-40359541D01*
X3023323Y-40418932D01*
X2849853Y-40515216D01*
X2849852Y-40515217D01*
X2699319Y-40644445D01*
X2577878Y-40801332D01*
X2577877Y-40801333D01*
X2545999Y-40866321D01*
X2502708Y-40910947D01*
X2441454Y-40921605D01*
X2402723Y-40907548D01*
X2354201Y-40877505D01*
X2163418Y-40803595D01*
X1962303Y-40766000D01*
X1757697Y-40766000D01*
X1556581Y-40803595D01*
X1365798Y-40877505D01*
X1365790Y-40877509D01*
X1276406Y-40932852D01*
X1276406Y-40932853D01*
X1863553Y-41520000D01*
X1830995Y-41520000D01*
X1744784Y-41534386D01*
X1642053Y-41589981D01*
X1562940Y-41675921D01*
X1516018Y-41782892D01*
X1506372Y-41899302D01*
X1535047Y-42012538D01*
X1598936Y-42110327D01*
X1691115Y-42182072D01*
X1801595Y-42220000D01*
X1863551Y-42220000D01*
X1276405Y-42807145D01*
X-1276405Y-42807145D01*
X-1863551Y-42220000D01*
X-1830995Y-42220000D01*
X-1744784Y-42205614D01*
X-1642053Y-42150019D01*
X-1562940Y-42064079D01*
X-1516018Y-41957108D01*
X-1508800Y-41869999D01*
X-1506446Y-41869999D01*
X-919678Y-42456767D01*
X-917335Y-42453665D01*
X-826143Y-42270527D01*
X-826140Y-42270520D01*
X-770147Y-42073725D01*
X-770147Y-42073724D01*
X-751270Y-41870000D01*
X751270Y-41870000D01*
X770147Y-42073724D01*
X770147Y-42073725D01*
X826140Y-42270520D01*
X826143Y-42270527D01*
X917335Y-42453665D01*
X919678Y-42456767D01*
X1506446Y-41869999D01*
X919678Y-41283231D01*
X919677Y-41283231D01*
X917342Y-41286323D01*
X826141Y-41469477D01*
X826140Y-41469479D01*
X770147Y-41666274D01*
X770147Y-41666275D01*
X751270Y-41870000D01*
X-751270Y-41870000D01*
X-770147Y-41666275D01*
X-770147Y-41666274D01*
X-826140Y-41469479D01*
X-826141Y-41469477D01*
X-917342Y-41286323D01*
X-919677Y-41283231D01*
X-919678Y-41283231D01*
X-1506446Y-41869999D01*
X-1508800Y-41869999D01*
X-1506372Y-41840698D01*
X-1535047Y-41727462D01*
X-1598936Y-41629673D01*
X-1691115Y-41557928D01*
X-1801595Y-41520000D01*
X-1863553Y-41520000D01*
X-1276406Y-40932853D01*
X-1276406Y-40932852D01*
X-1365790Y-40877509D01*
X-1365798Y-40877505D01*
X-1556581Y-40803595D01*
X-1757697Y-40766000D01*
X-1962303Y-40766000D01*
X-2163418Y-40803595D01*
X-2354201Y-40877505D01*
X-2354209Y-40877509D01*
X-2400336Y-40906069D01*
X-2460724Y-40920862D01*
X-2518275Y-40897334D01*
X-2538667Y-40873751D01*
X-2634617Y-40719814D01*
X-2634620Y-40719811D01*
X-2771306Y-40576016D01*
X-2934150Y-40462673D01*
X-3116459Y-40384439D01*
X-3116468Y-40384436D01*
X-3242996Y-40358434D01*
X-3310801Y-40344500D01*
X-3459473Y-40344500D01*
X-3459474Y-40344500D01*
X-3607379Y-40359540D01*
X-3607384Y-40359541D01*
X-3796676Y-40418932D01*
X-3970146Y-40515216D01*
X-3970147Y-40515217D01*
X-4120680Y-40644445D01*
X-4214771Y-40766000D01*
X-4242122Y-40801334D01*
X-4329495Y-40979456D01*
X-4379224Y-41171520D01*
X-4389272Y-41369663D01*
X-4359230Y-41565773D01*
X-4290325Y-41751820D01*
X-4233790Y-41842520D01*
X-4218818Y-41902861D01*
X-4242173Y-41960481D01*
X-4282823Y-41989537D01*
X-4329195Y-42007502D01*
X-4329209Y-42007509D01*
X-4418592Y-42062852D01*
X-4418593Y-42062853D01*
X-5324931Y-42062853D01*
X-5362066Y-42050787D01*
X-5398611Y-42000487D01*
X-5401286Y-41988982D01*
X-5402201Y-41985864D01*
X-5411232Y-41966091D01*
X-5418319Y-41904322D01*
X-5387746Y-41850184D01*
X-5331190Y-41824356D01*
X-5319723Y-41823700D01*
X-5239937Y-41823700D01*
X-5239936Y-41823700D01*
X-5180520Y-41811881D01*
X-5113140Y-41766860D01*
X-5068119Y-41699480D01*
X-5068118Y-41699479D01*
X-5057283Y-41645007D01*
X-5056300Y-41640064D01*
X-5056300Y-39799936D01*
X-5068119Y-39740520D01*
X-5068118Y-39740520D01*
X-5068119Y-39740518D01*
X-5087747Y-39711142D01*
X-5104700Y-39655254D01*
X-5104700Y-39259882D01*
X-5085487Y-39200751D01*
X-5058489Y-39175253D01*
X-5033835Y-39159409D01*
X-4948399Y-39060811D01*
X-4948398Y-39060809D01*
X-4948397Y-39060808D01*
X-4894202Y-38942136D01*
X-4875635Y-38813000D01*
X4951635Y-38813000D01*
X4970202Y-38942136D01*
X5024398Y-39060810D01*
X5030070Y-39067356D01*
X5080128Y-39125125D01*
X5104331Y-39182394D01*
X5104700Y-39191004D01*
X5104700Y-39655254D01*
X5087747Y-39711142D01*
X5068119Y-39740518D01*
X5068119Y-39740520D01*
X5056300Y-39799936D01*
X5056300Y-41640064D01*
X5057283Y-41645007D01*
X5068118Y-41699479D01*
X5068119Y-41699480D01*
X5113140Y-41766860D01*
X5180520Y-41811881D01*
X5239936Y-41823700D01*
X5395723Y-41823700D01*
X5454854Y-41842913D01*
X5491399Y-41893213D01*
X5491399Y-41955387D01*
X5487232Y-41966091D01*
X5478202Y-41985863D01*
X5460176Y-42111237D01*
X5458502Y-42114639D01*
X5460176Y-42118762D01*
X5478202Y-42244136D01*
X5532399Y-42362812D01*
X5535426Y-42366305D01*
X5559631Y-42423574D01*
X5560000Y-42432186D01*
X5560000Y-43235000D01*
X14959400Y-43235000D01*
X15018531Y-43254213D01*
X15055076Y-43304513D01*
X15060000Y-43335600D01*
X15060000Y-44700000D01*
X15107828Y-44700000D01*
X15167375Y-44693597D01*
X15167380Y-44693596D01*
X15302085Y-44643355D01*
X15302087Y-44643354D01*
X15417188Y-44557188D01*
X15503354Y-44442087D01*
X15503355Y-44442085D01*
X15553596Y-44307380D01*
X15553597Y-44307375D01*
X15560000Y-44247827D01*
X15560000Y-43937145D01*
X15901405Y-43937145D01*
X15901406Y-43937146D01*
X15990798Y-43992494D01*
X16181581Y-44066404D01*
X16382697Y-44104000D01*
X16587302Y-44104000D01*
X16788418Y-44066404D01*
X16979201Y-43992494D01*
X17153156Y-43884788D01*
X17153160Y-43884785D01*
X17201449Y-43840763D01*
X17258091Y-43815124D01*
X17318985Y-43827675D01*
X17360872Y-43873621D01*
X17369395Y-43924388D01*
X17351270Y-44119999D01*
X17370147Y-44323724D01*
X17370147Y-44323725D01*
X17426140Y-44520520D01*
X17426143Y-44520527D01*
X17517335Y-44703665D01*
X17519678Y-44706767D01*
X18109012Y-44117433D01*
X18106372Y-44149302D01*
X18135047Y-44262538D01*
X18198936Y-44360327D01*
X18291115Y-44432072D01*
X18401595Y-44470000D01*
X18489005Y-44470000D01*
X18575216Y-44455614D01*
X18677947Y-44400019D01*
X18757060Y-44314079D01*
X18803982Y-44207108D01*
X18811200Y-44119999D01*
X18813553Y-44119999D01*
X19400321Y-44706767D01*
X19400322Y-44706767D01*
X19402657Y-44703677D01*
X19402658Y-44703674D01*
X19493858Y-44520522D01*
X19493859Y-44520520D01*
X19549852Y-44323725D01*
X19549852Y-44323724D01*
X19568729Y-44120000D01*
X19549852Y-43916275D01*
X19549852Y-43916274D01*
X19493859Y-43719479D01*
X19493858Y-43719477D01*
X19402663Y-43536334D01*
X19402659Y-43536327D01*
X19400320Y-43533231D01*
X18813553Y-44119999D01*
X18811200Y-44119999D01*
X18813628Y-44090698D01*
X18784953Y-43977462D01*
X18721064Y-43879673D01*
X18628885Y-43807928D01*
X18518405Y-43770000D01*
X18456447Y-43770000D01*
X18460000Y-43766447D01*
X19043593Y-43182853D01*
X19043592Y-43182852D01*
X18954209Y-43127509D01*
X18954192Y-43127500D01*
X18854309Y-43088805D01*
X18806111Y-43049529D01*
X18790205Y-42989424D01*
X18812665Y-42931448D01*
X18854309Y-42901192D01*
X18954205Y-42862492D01*
X19043592Y-42807146D01*
X18456446Y-42220000D01*
X18489005Y-42220000D01*
X18575216Y-42205614D01*
X18677947Y-42150019D01*
X18757060Y-42064079D01*
X18803982Y-41957108D01*
X18811200Y-41869999D01*
X18813553Y-41869999D01*
X19400321Y-42456767D01*
X19400322Y-42456767D01*
X19402657Y-42453677D01*
X19402658Y-42453674D01*
X19493858Y-42270522D01*
X19493859Y-42270520D01*
X19549852Y-42073725D01*
X19549852Y-42073724D01*
X19568729Y-41870000D01*
X19549852Y-41666275D01*
X19549852Y-41666274D01*
X19493859Y-41469479D01*
X19493858Y-41469477D01*
X19402663Y-41286334D01*
X19402659Y-41286327D01*
X19400320Y-41283231D01*
X18813553Y-41869999D01*
X18811200Y-41869999D01*
X18813628Y-41840698D01*
X18784953Y-41727462D01*
X18721064Y-41629673D01*
X18628885Y-41557928D01*
X18518405Y-41520000D01*
X18456447Y-41520000D01*
X18460000Y-41516447D01*
X19043593Y-40932853D01*
X19043592Y-40932852D01*
X18954209Y-40877509D01*
X18954201Y-40877505D01*
X18763418Y-40803595D01*
X18562303Y-40766000D01*
X18357697Y-40766000D01*
X18156581Y-40803595D01*
X17965798Y-40877505D01*
X17965792Y-40877508D01*
X17919661Y-40906070D01*
X17859272Y-40920862D01*
X17801722Y-40897333D01*
X17781331Y-40873751D01*
X17685380Y-40719811D01*
X17548691Y-40576014D01*
X17385854Y-40462676D01*
X17385852Y-40462675D01*
X17385849Y-40462673D01*
X17203540Y-40384439D01*
X17203538Y-40384438D01*
X17203535Y-40384437D01*
X17203532Y-40384436D01*
X17203531Y-40384436D01*
X17082389Y-40359541D01*
X17009199Y-40344500D01*
X16860527Y-40344500D01*
X16860526Y-40344500D01*
X16712620Y-40359540D01*
X16712615Y-40359541D01*
X16523323Y-40418932D01*
X16349853Y-40515216D01*
X16349852Y-40515217D01*
X16199319Y-40644445D01*
X16077879Y-40801331D01*
X15990505Y-40979455D01*
X15990504Y-40979457D01*
X15940775Y-41171523D01*
X15940775Y-41171524D01*
X15930728Y-41369660D01*
X15930728Y-41369663D01*
X15960770Y-41565773D01*
X16029675Y-41751820D01*
X16058998Y-41798864D01*
X16086207Y-41842518D01*
X16101180Y-41902862D01*
X16077824Y-41960483D01*
X16037176Y-41989537D01*
X15990801Y-42007503D01*
X15990790Y-42007509D01*
X15901406Y-42062852D01*
X15901406Y-42062853D01*
X16488553Y-42650000D01*
X16455995Y-42650000D01*
X16369784Y-42664386D01*
X16267053Y-42719981D01*
X16187940Y-42805921D01*
X16141018Y-42912892D01*
X16131372Y-43029302D01*
X16160047Y-43142538D01*
X16223936Y-43240327D01*
X16316115Y-43312072D01*
X16426595Y-43350000D01*
X16488551Y-43350000D01*
X15901405Y-43937145D01*
X15560000Y-43937145D01*
X15560000Y-43697102D01*
X15552342Y-43678615D01*
X15554251Y-43677823D01*
X15540081Y-43650011D01*
X15549807Y-43588603D01*
X15568307Y-43563139D01*
X16131446Y-42999999D01*
X15544997Y-42413550D01*
X15521874Y-42377570D01*
X15500838Y-42321168D01*
X15503512Y-42320170D01*
X15494327Y-42271320D01*
X15500095Y-42251138D01*
X15499770Y-42251043D01*
X15501798Y-42244135D01*
X15520365Y-42115000D01*
X15520365Y-42114999D01*
X15517695Y-42096432D01*
X15501798Y-41985864D01*
X15447601Y-41867189D01*
X15362165Y-41768591D01*
X15362164Y-41768590D01*
X15309414Y-41734690D01*
X15270056Y-41686558D01*
X15264348Y-41645007D01*
X15263700Y-41645007D01*
X15263700Y-41640287D01*
X15263687Y-41640193D01*
X15263700Y-41640061D01*
X15263700Y-39799936D01*
X15251881Y-39740520D01*
X15251880Y-39740518D01*
X15206860Y-39673140D01*
X15139480Y-39628119D01*
X15139479Y-39628118D01*
X15091882Y-39618650D01*
X15080064Y-39616300D01*
X15080063Y-39616300D01*
X15074450Y-39616300D01*
X15015319Y-39597087D01*
X14978774Y-39546787D01*
X14978774Y-39484613D01*
X14982941Y-39473909D01*
X14993798Y-39450136D01*
X15012365Y-39321000D01*
X14993798Y-39191864D01*
X14939601Y-39073189D01*
X14854165Y-38974591D01*
X14744412Y-38904057D01*
X14619232Y-38867300D01*
X14488768Y-38867300D01*
X14426178Y-38885678D01*
X14363587Y-38904057D01*
X14253833Y-38974592D01*
X14168397Y-39073191D01*
X14114202Y-39191863D01*
X14095635Y-39320999D01*
X14095635Y-39321001D01*
X14104274Y-39381090D01*
X14103908Y-39398610D01*
X14104700Y-39398610D01*
X14104700Y-39417908D01*
X14102028Y-39440939D01*
X14099743Y-39450652D01*
X14099743Y-39450658D01*
X14103735Y-39479271D01*
X14104700Y-39493171D01*
X14104700Y-39515700D01*
X14085487Y-39574831D01*
X14035187Y-39611376D01*
X14004100Y-39616300D01*
X13815900Y-39616300D01*
X13756769Y-39597087D01*
X13720224Y-39546787D01*
X13715300Y-39515700D01*
X13715300Y-39293301D01*
X13734513Y-39234170D01*
X13761509Y-39208672D01*
X13838165Y-39159409D01*
X13923601Y-39060811D01*
X13977798Y-38942136D01*
X13996365Y-38813000D01*
X13977798Y-38683864D01*
X13923601Y-38565189D01*
X13838165Y-38466591D01*
X13728412Y-38396057D01*
X13603232Y-38359300D01*
X13472768Y-38359300D01*
X13410178Y-38377678D01*
X13347587Y-38396057D01*
X13237833Y-38466592D01*
X13152397Y-38565191D01*
X13098202Y-38683863D01*
X13079635Y-38812999D01*
X13079635Y-38813000D01*
X13098202Y-38942138D01*
X13100228Y-38949037D01*
X13098456Y-38949557D01*
X13104700Y-38978247D01*
X13104700Y-39042324D01*
X13085487Y-39101455D01*
X13035187Y-39138000D01*
X12973013Y-39138000D01*
X12922713Y-39101455D01*
X12912592Y-39084116D01*
X12907603Y-39073193D01*
X12907602Y-39073192D01*
X12907601Y-39073189D01*
X12822165Y-38974591D01*
X12712412Y-38904057D01*
X12587232Y-38867300D01*
X12456768Y-38867300D01*
X12394178Y-38885678D01*
X12331587Y-38904057D01*
X12221833Y-38974592D01*
X12136397Y-39073191D01*
X12082202Y-39191863D01*
X12063635Y-39320999D01*
X12063635Y-39321000D01*
X12082201Y-39450135D01*
X12093059Y-39473909D01*
X12100146Y-39535678D01*
X12069574Y-39589816D01*
X12013018Y-39615644D01*
X12001550Y-39616300D01*
X11815900Y-39616300D01*
X11756769Y-39597087D01*
X11720224Y-39546787D01*
X11715300Y-39515700D01*
X11715300Y-39272735D01*
X11734513Y-39213604D01*
X11761506Y-39188108D01*
X11806165Y-39159409D01*
X11891601Y-39060811D01*
X11945798Y-38942136D01*
X11964365Y-38813000D01*
X11945798Y-38683864D01*
X11891601Y-38565189D01*
X11806165Y-38466591D01*
X11696412Y-38396057D01*
X11571232Y-38359300D01*
X11440768Y-38359300D01*
X11378178Y-38377678D01*
X11315587Y-38396057D01*
X11205833Y-38466592D01*
X11120397Y-38565191D01*
X11066202Y-38683863D01*
X11047635Y-38812999D01*
X11047635Y-38813000D01*
X11066201Y-38942135D01*
X11095609Y-39006527D01*
X11104700Y-39048318D01*
X11104700Y-39112394D01*
X11085487Y-39171525D01*
X11035187Y-39208070D01*
X10973013Y-39208070D01*
X10922713Y-39171525D01*
X10912591Y-39154185D01*
X10875602Y-39073191D01*
X10875601Y-39073190D01*
X10875601Y-39073189D01*
X10790165Y-38974591D01*
X10680412Y-38904057D01*
X10555232Y-38867300D01*
X10424768Y-38867300D01*
X10362178Y-38885678D01*
X10299587Y-38904057D01*
X10189833Y-38974592D01*
X10104397Y-39073191D01*
X10050202Y-39191863D01*
X10031635Y-39320999D01*
X10031635Y-39321000D01*
X10050201Y-39450135D01*
X10061059Y-39473909D01*
X10068146Y-39535678D01*
X10037574Y-39589816D01*
X9981018Y-39615644D01*
X9969550Y-39616300D01*
X9815900Y-39616300D01*
X9756769Y-39597087D01*
X9720224Y-39546787D01*
X9715300Y-39515700D01*
X9715300Y-39252170D01*
X9734513Y-39193039D01*
X9761514Y-39167539D01*
X9774165Y-39159409D01*
X9859601Y-39060811D01*
X9913798Y-38942136D01*
X9932365Y-38813000D01*
X9913798Y-38683864D01*
X9859601Y-38565189D01*
X9774165Y-38466591D01*
X9664412Y-38396057D01*
X9539232Y-38359300D01*
X9408768Y-38359300D01*
X9346178Y-38377678D01*
X9283587Y-38396057D01*
X9173833Y-38466592D01*
X9088397Y-38565191D01*
X9034202Y-38683863D01*
X9015635Y-38812999D01*
X9015635Y-38813000D01*
X9034202Y-38942136D01*
X9088400Y-39060814D01*
X9088730Y-39061327D01*
X9088901Y-39061911D01*
X9091388Y-39067356D01*
X9090605Y-39067713D01*
X9104700Y-39115715D01*
X9104700Y-39224327D01*
X9085487Y-39283458D01*
X9035187Y-39320003D01*
X8973013Y-39320003D01*
X8922713Y-39283458D01*
X8904524Y-39238644D01*
X8902465Y-39224327D01*
X8897798Y-39191864D01*
X8843601Y-39073189D01*
X8758165Y-38974591D01*
X8648412Y-38904057D01*
X8523232Y-38867300D01*
X8392768Y-38867300D01*
X8330178Y-38885678D01*
X8267587Y-38904057D01*
X8157833Y-38974592D01*
X8072397Y-39073191D01*
X8018202Y-39191863D01*
X7999635Y-39320999D01*
X7999635Y-39321000D01*
X8018201Y-39450135D01*
X8029059Y-39473909D01*
X8036146Y-39535678D01*
X8005574Y-39589816D01*
X7949018Y-39615644D01*
X7937550Y-39616300D01*
X7815900Y-39616300D01*
X7756769Y-39597087D01*
X7720224Y-39546787D01*
X7715300Y-39515700D01*
X7715300Y-39227935D01*
X7734513Y-39168804D01*
X7739871Y-39162056D01*
X7742165Y-39159409D01*
X7827601Y-39060811D01*
X7881798Y-38942136D01*
X7900365Y-38813000D01*
X7881798Y-38683864D01*
X7827601Y-38565189D01*
X7742165Y-38466591D01*
X7632412Y-38396057D01*
X7507232Y-38359300D01*
X7376768Y-38359300D01*
X7314178Y-38377678D01*
X7251587Y-38396057D01*
X7141833Y-38466592D01*
X7056397Y-38565191D01*
X7002202Y-38683863D01*
X6983635Y-38812999D01*
X6983635Y-38813000D01*
X7002202Y-38942136D01*
X7056398Y-39060810D01*
X7056846Y-39061327D01*
X7080128Y-39088195D01*
X7104331Y-39145463D01*
X7104700Y-39154074D01*
X7104700Y-39515700D01*
X7085487Y-39574831D01*
X7035187Y-39611376D01*
X7004100Y-39616300D01*
X6946450Y-39616300D01*
X6887319Y-39597087D01*
X6850774Y-39546787D01*
X6850774Y-39484613D01*
X6854941Y-39473909D01*
X6865798Y-39450136D01*
X6884365Y-39321000D01*
X6865798Y-39191864D01*
X6811601Y-39073189D01*
X6726165Y-38974591D01*
X6616412Y-38904057D01*
X6491232Y-38867300D01*
X6360768Y-38867300D01*
X6298178Y-38885678D01*
X6235587Y-38904057D01*
X6125833Y-38974592D01*
X6040397Y-39073191D01*
X5986202Y-39191863D01*
X5967635Y-39320999D01*
X5967635Y-39321000D01*
X5986201Y-39450135D01*
X5997059Y-39473909D01*
X6004146Y-39535678D01*
X5973574Y-39589816D01*
X5917018Y-39615644D01*
X5905550Y-39616300D01*
X5815900Y-39616300D01*
X5756769Y-39597087D01*
X5720224Y-39546787D01*
X5715300Y-39515700D01*
X5715300Y-39191004D01*
X5734513Y-39131873D01*
X5739864Y-39125133D01*
X5795601Y-39060811D01*
X5849798Y-38942136D01*
X5868365Y-38813000D01*
X5849798Y-38683864D01*
X5795601Y-38565189D01*
X5710165Y-38466591D01*
X5600412Y-38396057D01*
X5475232Y-38359300D01*
X5344768Y-38359300D01*
X5282178Y-38377678D01*
X5219587Y-38396057D01*
X5109833Y-38466592D01*
X5024397Y-38565191D01*
X4970202Y-38683863D01*
X4951635Y-38812999D01*
X4951635Y-38813000D01*
X-4875635Y-38813000D01*
X-4875635Y-38812999D01*
X-4894202Y-38683863D01*
X-4948397Y-38565191D01*
X-5033833Y-38466592D01*
X-5143587Y-38396057D01*
X-5206178Y-38377678D01*
X-5268768Y-38359300D01*
X-5399232Y-38359300D01*
X-5524412Y-38396057D01*
X-5634165Y-38466591D01*
X-5719601Y-38565189D01*
X-5773798Y-38683864D01*
X-5792365Y-38813000D01*
X-5773798Y-38942136D01*
X-5724390Y-39050323D01*
X-5715300Y-39092112D01*
X-5715300Y-39156188D01*
X-5734513Y-39215319D01*
X-5784813Y-39251864D01*
X-5846987Y-39251864D01*
X-5897287Y-39215319D01*
X-5907409Y-39197979D01*
X-5964397Y-39073191D01*
X-6049833Y-38974592D01*
X-6159587Y-38904057D01*
X-6222178Y-38885678D01*
X-6284768Y-38867300D01*
X-6415232Y-38867300D01*
X-6540412Y-38904057D01*
X-6650165Y-38974591D01*
X-6735601Y-39073189D01*
X-6789798Y-39191864D01*
X-6808365Y-39321000D01*
X-6789798Y-39450136D01*
X-6778941Y-39473909D01*
X-6771854Y-39535678D01*
X-6802426Y-39589816D01*
X-6858982Y-39615644D01*
X-6870450Y-39616300D01*
X-7004100Y-39616300D01*
X-7063231Y-39597087D01*
X-7099776Y-39546787D01*
X-7104700Y-39515700D01*
X-7104700Y-39239027D01*
X-7085487Y-39179896D01*
X-7069971Y-39162991D01*
X-7065841Y-39159413D01*
X-7065835Y-39159409D01*
X-6980399Y-39060811D01*
X-6980398Y-39060809D01*
X-6980397Y-39060808D01*
X-6926202Y-38942136D01*
X-6907635Y-38813000D01*
X-6907635Y-38812999D01*
X-6926202Y-38683863D01*
X-6980397Y-38565191D01*
X-7065833Y-38466592D01*
X-7175587Y-38396057D01*
X-7238178Y-38377678D01*
X-7300768Y-38359300D01*
X-7431232Y-38359300D01*
X-7556412Y-38396057D01*
X-7666165Y-38466591D01*
X-7751601Y-38565189D01*
X-7805798Y-38683864D01*
X-7824365Y-38813000D01*
X-7805798Y-38942136D01*
X-7751601Y-39060811D01*
X-7739872Y-39074346D01*
X-7715669Y-39131615D01*
X-7715300Y-39140226D01*
X-7715300Y-39515700D01*
X-7734513Y-39574831D01*
X-7784813Y-39611376D01*
X-7815900Y-39616300D01*
X-7861550Y-39616300D01*
X-7920681Y-39597087D01*
X-7957226Y-39546787D01*
X-7957226Y-39484613D01*
X-7953059Y-39473909D01*
X-7942201Y-39450135D01*
X-7923635Y-39321000D01*
X-7923635Y-39320999D01*
X-7942202Y-39191863D01*
X-7996397Y-39073191D01*
X-8081833Y-38974592D01*
X-8191587Y-38904057D01*
X-8254178Y-38885678D01*
X-8316768Y-38867300D01*
X-8447232Y-38867300D01*
X-8572412Y-38904057D01*
X-8682165Y-38974591D01*
X-8767601Y-39073189D01*
X-8821798Y-39191864D01*
X-8840365Y-39321000D01*
X-8821798Y-39450136D01*
X-8810941Y-39473909D01*
X-8803854Y-39535678D01*
X-8834426Y-39589816D01*
X-8890982Y-39615644D01*
X-8902450Y-39616300D01*
X-9004100Y-39616300D01*
X-9063231Y-39597087D01*
X-9099776Y-39546787D01*
X-9104700Y-39515700D01*
X-9104700Y-39204853D01*
X-9085487Y-39145722D01*
X-9080128Y-39138974D01*
X-9012398Y-39060810D01*
X-8958202Y-38942136D01*
X-8939635Y-38813000D01*
X-8939635Y-38812999D01*
X-8958202Y-38683863D01*
X-9012397Y-38565191D01*
X-9097833Y-38466592D01*
X-9207587Y-38396057D01*
X-9270178Y-38377678D01*
X-9332768Y-38359300D01*
X-9463232Y-38359300D01*
X-9588412Y-38396057D01*
X-9698165Y-38466591D01*
X-9783601Y-38565189D01*
X-9837798Y-38683864D01*
X-9856365Y-38813000D01*
X-9837798Y-38942136D01*
X-9783601Y-39060811D01*
X-9748383Y-39101455D01*
X-9739873Y-39111275D01*
X-9715669Y-39168544D01*
X-9715300Y-39177155D01*
X-9715300Y-39515700D01*
X-9734513Y-39574831D01*
X-9784813Y-39611376D01*
X-9815900Y-39616300D01*
X-9893550Y-39616300D01*
X-9952681Y-39597087D01*
X-9989226Y-39546787D01*
X-9989226Y-39484613D01*
X-9985059Y-39473909D01*
X-9974201Y-39450135D01*
X-9955635Y-39321000D01*
X-9955635Y-39320999D01*
X-9974202Y-39191863D01*
X-10028397Y-39073191D01*
X-10113833Y-38974592D01*
X-10223587Y-38904057D01*
X-10286178Y-38885678D01*
X-10348768Y-38867300D01*
X-10479232Y-38867300D01*
X-10604412Y-38904057D01*
X-10714165Y-38974591D01*
X-10799601Y-39073189D01*
X-10853798Y-39191864D01*
X-10872365Y-39321000D01*
X-10853798Y-39450136D01*
X-10842941Y-39473909D01*
X-10835854Y-39535678D01*
X-10866426Y-39589816D01*
X-10922982Y-39615644D01*
X-10934450Y-39616300D01*
X-11004100Y-39616300D01*
X-11063231Y-39597087D01*
X-11099776Y-39546787D01*
X-11104700Y-39515700D01*
X-11104700Y-39167923D01*
X-11085487Y-39108792D01*
X-11080127Y-39102043D01*
X-11044399Y-39060812D01*
X-10990202Y-38942136D01*
X-10971635Y-38813000D01*
X-10971635Y-38812999D01*
X-10990202Y-38683863D01*
X-11044397Y-38565191D01*
X-11129833Y-38466592D01*
X-11239587Y-38396057D01*
X-11302178Y-38377678D01*
X-11364768Y-38359300D01*
X-11495232Y-38359300D01*
X-11620412Y-38396057D01*
X-11730165Y-38466591D01*
X-11815601Y-38565189D01*
X-11869798Y-38683864D01*
X-11888365Y-38813000D01*
X-11869798Y-38942136D01*
X-11815601Y-39060811D01*
X-11739872Y-39148206D01*
X-11715669Y-39205476D01*
X-11715300Y-39214085D01*
X-11715300Y-39515700D01*
X-11734513Y-39574831D01*
X-11784813Y-39611376D01*
X-11815900Y-39616300D01*
X-11925550Y-39616300D01*
X-11984681Y-39597087D01*
X-12021226Y-39546787D01*
X-12021226Y-39484613D01*
X-12017059Y-39473909D01*
X-12006201Y-39450135D01*
X-11987635Y-39321000D01*
X-11987635Y-39320999D01*
X-12006202Y-39191863D01*
X-12060397Y-39073191D01*
X-12145833Y-38974592D01*
X-12255587Y-38904057D01*
X-12318178Y-38885678D01*
X-12380768Y-38867300D01*
X-12511232Y-38867300D01*
X-12636412Y-38904057D01*
X-12746165Y-38974591D01*
X-12831601Y-39073189D01*
X-12885798Y-39191864D01*
X-12904365Y-39321000D01*
X-12885798Y-39450136D01*
X-12874941Y-39473909D01*
X-12867854Y-39535678D01*
X-12898426Y-39589816D01*
X-12954982Y-39615644D01*
X-12966450Y-39616300D01*
X-13004100Y-39616300D01*
X-13063231Y-39597087D01*
X-13099776Y-39546787D01*
X-13104700Y-39515700D01*
X-13104700Y-39334211D01*
X-13100986Y-39322782D01*
X-13104700Y-39307788D01*
X-13104700Y-39130993D01*
X-13085487Y-39071862D01*
X-13080127Y-39065113D01*
X-13076398Y-39060810D01*
X-13022202Y-38942136D01*
X-13003635Y-38813000D01*
X-13003635Y-38812999D01*
X-13022202Y-38683863D01*
X-13076397Y-38565191D01*
X-13161833Y-38466592D01*
X-13271587Y-38396057D01*
X-13334178Y-38377678D01*
X-13396768Y-38359300D01*
X-13527232Y-38359300D01*
X-13652412Y-38396057D01*
X-13762165Y-38466591D01*
X-13847601Y-38565189D01*
X-13901798Y-38683864D01*
X-13920365Y-38813000D01*
X-13901798Y-38942136D01*
X-13847601Y-39060811D01*
X-13762165Y-39159409D01*
X-13761516Y-39159825D01*
X-13761109Y-39160323D01*
X-13756728Y-39164120D01*
X-13757384Y-39164877D01*
X-13722157Y-39207953D01*
X-13715300Y-39244458D01*
X-13715300Y-39515700D01*
X-13734513Y-39574831D01*
X-13784813Y-39611376D01*
X-13815900Y-39616300D01*
X-13957550Y-39616300D01*
X-14016681Y-39597087D01*
X-14053226Y-39546787D01*
X-14053226Y-39484613D01*
X-14049059Y-39473909D01*
X-14038201Y-39450135D01*
X-14019635Y-39321000D01*
X-14019635Y-39320999D01*
X-14038202Y-39191863D01*
X-14092397Y-39073191D01*
X-14177833Y-38974592D01*
X-14287587Y-38904057D01*
X-14350178Y-38885678D01*
X-14412768Y-38867300D01*
X-14543232Y-38867300D01*
X-14668412Y-38904057D01*
X-14778165Y-38974591D01*
X-14863601Y-39073189D01*
X-14917798Y-39191864D01*
X-14936365Y-39321000D01*
X-14917798Y-39450136D01*
X-14906941Y-39473909D01*
X-14899854Y-39535678D01*
X-14930426Y-39589816D01*
X-14986982Y-39615644D01*
X-14998450Y-39616300D01*
X-15080064Y-39616300D01*
X-15091882Y-39618650D01*
X-15139479Y-39628118D01*
X-15139480Y-39628119D01*
X-15206860Y-39673140D01*
X-15251881Y-39740520D01*
X-15263700Y-39799936D01*
X-15263700Y-41640064D01*
X-15256604Y-41675734D01*
X-15263911Y-41737474D01*
X-15282516Y-41762231D01*
X-15281453Y-41763153D01*
X-15286165Y-41768591D01*
X-15371601Y-41867189D01*
X-15425798Y-41985864D01*
X-15444365Y-42115000D01*
X-15434119Y-42186259D01*
X-15444721Y-42247521D01*
X-15453161Y-42260863D01*
X-15503351Y-42327909D01*
X-15503355Y-42327915D01*
X-15521875Y-42377570D01*
X-15544997Y-42413550D01*
X-16131446Y-42999999D01*
X-16133800Y-42999999D01*
X-16131372Y-42970698D01*
X-16160047Y-42857462D01*
X-16223936Y-42759673D01*
X-16316115Y-42687928D01*
X-16426595Y-42650000D01*
X-16488553Y-42650000D01*
X-15901406Y-42062853D01*
X-15901406Y-42062852D01*
X-15990790Y-42007509D01*
X-15990804Y-42007502D01*
X-16032559Y-41991326D01*
X-16080756Y-41952050D01*
X-16096662Y-41891945D01*
X-16078813Y-41844103D01*
X-16080580Y-41843002D01*
X-16077880Y-41838670D01*
X-16042655Y-41766860D01*
X-15990505Y-41660544D01*
X-15985235Y-41640193D01*
X-15940775Y-41468476D01*
X-15940775Y-41468475D01*
X-15930728Y-41270339D01*
X-15930728Y-41270336D01*
X-15960770Y-41074227D01*
X-15960772Y-41074220D01*
X-16029674Y-40888182D01*
X-16134621Y-40719809D01*
X-16271306Y-40576016D01*
X-16434150Y-40462673D01*
X-16616459Y-40384439D01*
X-16616468Y-40384436D01*
X-16742996Y-40358434D01*
X-16810801Y-40344500D01*
X-16959473Y-40344500D01*
X-16959474Y-40344500D01*
X-17107379Y-40359540D01*
X-17107384Y-40359541D01*
X-17296676Y-40418932D01*
X-17470146Y-40515216D01*
X-17470147Y-40515217D01*
X-17620680Y-40644445D01*
X-17742121Y-40801332D01*
X-17773998Y-40866318D01*
X-17817288Y-40910946D01*
X-17878542Y-40921604D01*
X-17917274Y-40907548D01*
X-17965792Y-40877508D01*
X-17965798Y-40877505D01*
X-18156581Y-40803595D01*
X-18357697Y-40766000D01*
X-18562303Y-40766000D01*
X-18763418Y-40803595D01*
X-18954201Y-40877505D01*
X-18954209Y-40877509D01*
X-19043592Y-40932852D01*
X-19043593Y-40932853D01*
X-18460000Y-41516447D01*
X-18456447Y-41520000D01*
X-18489005Y-41520000D01*
X-18575216Y-41534386D01*
X-18677947Y-41589981D01*
X-18757060Y-41675921D01*
X-18803982Y-41782892D01*
X-18813628Y-41899302D01*
X-18784953Y-42012538D01*
X-18721064Y-42110327D01*
X-18628885Y-42182072D01*
X-18518405Y-42220000D01*
X-18456446Y-42220000D01*
X-19043592Y-42807146D01*
X-18954205Y-42862492D01*
X-18854309Y-42901192D01*
X-18806112Y-42940468D01*
X-18790205Y-43000573D01*
X-18812664Y-43058549D01*
X-18854309Y-43088805D01*
X-18954192Y-43127500D01*
X-18954209Y-43127509D01*
X-19043592Y-43182852D01*
X-19043593Y-43182853D01*
X-22859500Y-43182853D01*
X-22859500Y-41870000D01*
X-19568729Y-41870000D01*
X-19549852Y-42073724D01*
X-19549852Y-42073725D01*
X-19493859Y-42270520D01*
X-19493858Y-42270522D01*
X-19402658Y-42453674D01*
X-19402657Y-42453677D01*
X-19400322Y-42456767D01*
X-19400321Y-42456767D01*
X-18813553Y-41869999D01*
X-19400320Y-41283231D01*
X-19402659Y-41286327D01*
X-19402663Y-41286334D01*
X-19493858Y-41469477D01*
X-19493859Y-41469479D01*
X-19549852Y-41666274D01*
X-19549852Y-41666275D01*
X-19568729Y-41870000D01*
X-22859500Y-41870000D01*
X-22859500Y-16812428D01*
X-18769250Y-16812428D01*
X-18730121Y-17097108D01*
X-18652594Y-17373808D01*
X-18538111Y-17637375D01*
X-18388805Y-17882897D01*
X-18207458Y-18105803D01*
X-17997448Y-18301939D01*
X-17762686Y-18467651D01*
X-17507547Y-18599854D01*
X-17236782Y-18696084D01*
X-16955436Y-18754548D01*
X-16955426Y-18754548D01*
X-16955424Y-18754549D01*
X-16758481Y-18768020D01*
X-16740502Y-18769250D01*
X-16740495Y-18769250D01*
X-16597005Y-18769250D01*
X-16596998Y-18769250D01*
X-16596971Y-18769248D01*
X-16596968Y-18769248D01*
X-16382075Y-18754549D01*
X-16382071Y-18754548D01*
X-16382064Y-18754548D01*
X-16100718Y-18696084D01*
X-15829953Y-18599854D01*
X-15574814Y-18467651D01*
X-15340052Y-18301939D01*
X-15130042Y-18105803D01*
X-14948695Y-17882897D01*
X-14799389Y-17637375D01*
X-14799387Y-17637372D01*
X-14799387Y-17637371D01*
X-14684909Y-17373817D01*
X-14607379Y-17097107D01*
X-14568250Y-16812434D01*
X14568250Y-16812434D01*
X14607379Y-17097107D01*
X14684909Y-17373817D01*
X14799387Y-17637371D01*
X14799387Y-17637372D01*
X14799389Y-17637375D01*
X14948695Y-17882897D01*
X15130042Y-18105803D01*
X15340052Y-18301939D01*
X15574814Y-18467651D01*
X15829953Y-18599854D01*
X16100718Y-18696084D01*
X16382064Y-18754548D01*
X16382071Y-18754548D01*
X16382075Y-18754549D01*
X16596968Y-18769248D01*
X16596971Y-18769248D01*
X16596998Y-18769250D01*
X16597005Y-18769250D01*
X16740495Y-18769250D01*
X16740502Y-18769250D01*
X16758481Y-18768020D01*
X16955424Y-18754549D01*
X16955426Y-18754548D01*
X16955436Y-18754548D01*
X17236782Y-18696084D01*
X17507547Y-18599854D01*
X17762686Y-18467651D01*
X17997448Y-18301939D01*
X18207458Y-18105803D01*
X18388805Y-17882897D01*
X18538111Y-17637375D01*
X18652594Y-17373808D01*
X18730121Y-17097108D01*
X18769250Y-16812428D01*
X18769250Y-16525072D01*
X18730121Y-16240392D01*
X18652594Y-15963692D01*
X18538111Y-15700125D01*
X18388805Y-15454603D01*
X18207458Y-15231697D01*
X17997448Y-15035561D01*
X17762686Y-14869849D01*
X17762682Y-14869847D01*
X17762679Y-14869845D01*
X17507545Y-14737645D01*
X17406764Y-14701827D01*
X17236782Y-14641416D01*
X17236778Y-14641415D01*
X17236775Y-14641414D01*
X16955438Y-14582952D01*
X16955424Y-14582950D01*
X16740531Y-14568251D01*
X16740506Y-14568250D01*
X16740502Y-14568250D01*
X16596998Y-14568250D01*
X16596993Y-14568250D01*
X16596968Y-14568251D01*
X16382075Y-14582950D01*
X16382061Y-14582952D01*
X16100725Y-14641414D01*
X16100724Y-14641414D01*
X15829954Y-14737645D01*
X15574820Y-14869845D01*
X15574807Y-14869853D01*
X15340049Y-15035563D01*
X15130042Y-15231696D01*
X14948695Y-15454602D01*
X14948693Y-15454605D01*
X14799387Y-15700127D01*
X14799387Y-15700128D01*
X14684909Y-15963682D01*
X14607379Y-16240392D01*
X14568250Y-16525065D01*
X14568250Y-16812434D01*
X-14568250Y-16812434D01*
X-14568250Y-16525065D01*
X-14607379Y-16240392D01*
X-14684909Y-15963682D01*
X-14799387Y-15700128D01*
X-14799387Y-15700127D01*
X-14948693Y-15454605D01*
X-14948695Y-15454602D01*
X-15130042Y-15231696D01*
X-15340049Y-15035563D01*
X-15574807Y-14869853D01*
X-15574820Y-14869845D01*
X-15829954Y-14737645D01*
X-16100724Y-14641414D01*
X-16382061Y-14582952D01*
X-16382075Y-14582950D01*
X-16596968Y-14568251D01*
X-16596993Y-14568250D01*
X-16596998Y-14568250D01*
X-16740502Y-14568250D01*
X-16740506Y-14568250D01*
X-16740531Y-14568251D01*
X-16955424Y-14582950D01*
X-16955438Y-14582952D01*
X-17236774Y-14641414D01*
X-17236775Y-14641414D01*
X-17236778Y-14641415D01*
X-17236782Y-14641416D01*
X-17406764Y-14701827D01*
X-17507545Y-14737645D01*
X-17762679Y-14869845D01*
X-17762682Y-14869847D01*
X-17762686Y-14869849D01*
X-17997448Y-15035561D01*
X-18207458Y-15231697D01*
X-18388805Y-15454603D01*
X-18538111Y-15700125D01*
X-18652594Y-15963692D01*
X-18730121Y-16240392D01*
X-18769250Y-16525072D01*
X-18769250Y-16812428D01*
X-22859500Y-16812428D01*
X-22859500Y-8890000D01*
X-13359492Y-8890000D01*
X-13339646Y-9015304D01*
X-13282050Y-9128342D01*
X-13192342Y-9218050D01*
X-13079304Y-9275646D01*
X-13016652Y-9285569D01*
X-12954003Y-9295492D01*
X-12954000Y-9295492D01*
X-12953997Y-9295492D01*
X-12878817Y-9283584D01*
X-12828696Y-9275646D01*
X-12715658Y-9218050D01*
X-12625950Y-9128342D01*
X-12568354Y-9015304D01*
X-12568353Y-9015301D01*
X-12548508Y-8890002D01*
X12548508Y-8890002D01*
X12568353Y-9015301D01*
X12568354Y-9015304D01*
X12625950Y-9128342D01*
X12715658Y-9218050D01*
X12828696Y-9275646D01*
X12878817Y-9283584D01*
X12953997Y-9295492D01*
X12954000Y-9295492D01*
X12954003Y-9295492D01*
X13016652Y-9285569D01*
X13079304Y-9275646D01*
X13192342Y-9218050D01*
X13282050Y-9128342D01*
X13339646Y-9015304D01*
X13359492Y-8890000D01*
X13339646Y-8764696D01*
X13282050Y-8651658D01*
X13192342Y-8561950D01*
X13192341Y-8561949D01*
X13079304Y-8504354D01*
X13079301Y-8504353D01*
X12954003Y-8484508D01*
X12953997Y-8484508D01*
X12828698Y-8504353D01*
X12828695Y-8504354D01*
X12715658Y-8561949D01*
X12625949Y-8651658D01*
X12568354Y-8764695D01*
X12568353Y-8764698D01*
X12548508Y-8889997D01*
X12548508Y-8890002D01*
X-12548508Y-8890002D01*
X-12548508Y-8889997D01*
X-12568353Y-8764698D01*
X-12568354Y-8764695D01*
X-12625949Y-8651658D01*
X-12715658Y-8561949D01*
X-12828695Y-8504354D01*
X-12828698Y-8504353D01*
X-12953997Y-8484508D01*
X-12954003Y-8484508D01*
X-13079301Y-8504353D01*
X-13079304Y-8504354D01*
X-13192341Y-8561949D01*
X-13192342Y-8561950D01*
X-13282050Y-8651658D01*
X-13339646Y-8764696D01*
X-13359492Y-8890000D01*
X-22859500Y-8890000D01*
X-22859500Y-7874000D01*
X-13105492Y-7874000D01*
X-13085646Y-7999304D01*
X-13028050Y-8112342D01*
X-12938342Y-8202050D01*
X-12825304Y-8259646D01*
X-12762652Y-8269569D01*
X-12700003Y-8279492D01*
X-12700000Y-8279492D01*
X-12699997Y-8279492D01*
X-12624817Y-8267584D01*
X-12574696Y-8259646D01*
X-12461658Y-8202050D01*
X-12371950Y-8112342D01*
X-12314354Y-7999304D01*
X-12314353Y-7999301D01*
X-12294508Y-7874002D01*
X-12294508Y-7873997D01*
X-12314353Y-7748698D01*
X-12314354Y-7748695D01*
X-12371949Y-7635658D01*
X-12461658Y-7545949D01*
X-12574695Y-7488354D01*
X-12574698Y-7488353D01*
X-12659001Y-7475001D01*
X-7004775Y-7475001D01*
X-6985711Y-7692890D01*
X-6929101Y-7904161D01*
X-6836665Y-8102390D01*
X-6793125Y-8164570D01*
X-6233077Y-7604523D01*
X-6209493Y-7684844D01*
X-6131761Y-7805798D01*
X-6023100Y-7899952D01*
X-5892315Y-7959680D01*
X-5882533Y-7961086D01*
X-6439570Y-8518125D01*
X-6439571Y-8518125D01*
X-6377390Y-8561665D01*
X-6179161Y-8654101D01*
X-5967890Y-8710711D01*
X-5750002Y-8729775D01*
X-5749998Y-8729775D01*
X-5532109Y-8710711D01*
X-5320838Y-8654101D01*
X-5122617Y-8561669D01*
X-5122609Y-8561664D01*
X-5060428Y-8518124D01*
X-5617466Y-7961086D01*
X-5607685Y-7959680D01*
X-5476900Y-7899952D01*
X-5368239Y-7805798D01*
X-5290507Y-7684844D01*
X-5266922Y-7604521D01*
X-4706874Y-8164570D01*
X-4663335Y-8102390D01*
X-4663330Y-8102382D01*
X-4570898Y-7904161D01*
X-4514288Y-7692890D01*
X-4495225Y-7475001D01*
X4495225Y-7475001D01*
X4514288Y-7692890D01*
X4570898Y-7904161D01*
X4663330Y-8102382D01*
X4663335Y-8102390D01*
X4706874Y-8164570D01*
X5266922Y-7604521D01*
X5290507Y-7684844D01*
X5368239Y-7805798D01*
X5476900Y-7899952D01*
X5607685Y-7959680D01*
X5617466Y-7961086D01*
X5060428Y-8518124D01*
X5122609Y-8561664D01*
X5122617Y-8561669D01*
X5320838Y-8654101D01*
X5532109Y-8710711D01*
X5749998Y-8729775D01*
X5750002Y-8729775D01*
X5967890Y-8710711D01*
X6179161Y-8654101D01*
X6377390Y-8561665D01*
X6439570Y-8518125D01*
X5882533Y-7961086D01*
X5892315Y-7959680D01*
X6023100Y-7899952D01*
X6131761Y-7805798D01*
X6209493Y-7684844D01*
X6233077Y-7604523D01*
X6793125Y-8164570D01*
X6836665Y-8102390D01*
X6929101Y-7904161D01*
X6937182Y-7874002D01*
X12294508Y-7874002D01*
X12314353Y-7999301D01*
X12314354Y-7999304D01*
X12371950Y-8112342D01*
X12461658Y-8202050D01*
X12574696Y-8259646D01*
X12624817Y-8267584D01*
X12699997Y-8279492D01*
X12700000Y-8279492D01*
X12700003Y-8279492D01*
X12762652Y-8269569D01*
X12825304Y-8259646D01*
X12938342Y-8202050D01*
X13028050Y-8112342D01*
X13085646Y-7999304D01*
X13105492Y-7874000D01*
X13085646Y-7748696D01*
X13028050Y-7635658D01*
X12938342Y-7545950D01*
X12938341Y-7545949D01*
X12825304Y-7488354D01*
X12825301Y-7488353D01*
X12700003Y-7468508D01*
X12699997Y-7468508D01*
X12574698Y-7488353D01*
X12574695Y-7488354D01*
X12461658Y-7545949D01*
X12371949Y-7635658D01*
X12314354Y-7748695D01*
X12314353Y-7748698D01*
X12294508Y-7873997D01*
X12294508Y-7874002D01*
X6937182Y-7874002D01*
X6985711Y-7692890D01*
X7004775Y-7475001D01*
X7004775Y-7474998D01*
X6985711Y-7257109D01*
X6929101Y-7045838D01*
X6841511Y-6858002D01*
X12040508Y-6858002D01*
X12060353Y-6983301D01*
X12060354Y-6983304D01*
X12117950Y-7096342D01*
X12207658Y-7186050D01*
X12320696Y-7243646D01*
X12370817Y-7251584D01*
X12445997Y-7263492D01*
X12446000Y-7263492D01*
X12446003Y-7263492D01*
X12508652Y-7253569D01*
X12571304Y-7243646D01*
X12684342Y-7186050D01*
X12774050Y-7096342D01*
X12831646Y-6983304D01*
X12851492Y-6858000D01*
X12851385Y-6857326D01*
X12833434Y-6743986D01*
X12831646Y-6732696D01*
X12774050Y-6619658D01*
X12684342Y-6529950D01*
X12684341Y-6529949D01*
X12571304Y-6472354D01*
X12571301Y-6472353D01*
X12446003Y-6452508D01*
X12445997Y-6452508D01*
X12320698Y-6472353D01*
X12320695Y-6472354D01*
X12207658Y-6529949D01*
X12117949Y-6619658D01*
X12060354Y-6732695D01*
X12060353Y-6732698D01*
X12040508Y-6857997D01*
X12040508Y-6858002D01*
X6841511Y-6858002D01*
X6836669Y-6847618D01*
X6836661Y-6847604D01*
X6793124Y-6785427D01*
X6233076Y-7345475D01*
X6209493Y-7265156D01*
X6131761Y-7144202D01*
X6023100Y-7050048D01*
X5892315Y-6990320D01*
X5882530Y-6988913D01*
X6439570Y-6431874D01*
X6377390Y-6388335D01*
X6377382Y-6388330D01*
X6179161Y-6295898D01*
X5967890Y-6239288D01*
X5750002Y-6220225D01*
X5749998Y-6220225D01*
X5532109Y-6239288D01*
X5320838Y-6295898D01*
X5122613Y-6388332D01*
X5122605Y-6388337D01*
X5060428Y-6431873D01*
X5060428Y-6431874D01*
X5617467Y-6988913D01*
X5607685Y-6990320D01*
X5476900Y-7050048D01*
X5368239Y-7144202D01*
X5290507Y-7265156D01*
X5266922Y-7345476D01*
X4706874Y-6785428D01*
X4706873Y-6785428D01*
X4663337Y-6847605D01*
X4663332Y-6847613D01*
X4570898Y-7045838D01*
X4514288Y-7257109D01*
X4495225Y-7474998D01*
X4495225Y-7475001D01*
X-4495225Y-7475001D01*
X-4495225Y-7474998D01*
X-4514288Y-7257109D01*
X-4570898Y-7045838D01*
X-4663332Y-6847613D01*
X-4663337Y-6847605D01*
X-4706873Y-6785428D01*
X-4706874Y-6785428D01*
X-5266922Y-7345476D01*
X-5290507Y-7265156D01*
X-5368239Y-7144202D01*
X-5476900Y-7050048D01*
X-5607685Y-6990320D01*
X-5617467Y-6988913D01*
X-5060428Y-6431874D01*
X-5060428Y-6431873D01*
X-5122607Y-6388336D01*
X-5122619Y-6388329D01*
X-5320838Y-6295898D01*
X-5532109Y-6239288D01*
X-5749998Y-6220225D01*
X-5750002Y-6220225D01*
X-5967890Y-6239288D01*
X-6179161Y-6295898D01*
X-6377379Y-6388329D01*
X-6377391Y-6388336D01*
X-6439570Y-6431873D01*
X-6439570Y-6431874D01*
X-5882530Y-6988913D01*
X-5892315Y-6990320D01*
X-6023100Y-7050048D01*
X-6131761Y-7144202D01*
X-6209493Y-7265156D01*
X-6233076Y-7345475D01*
X-6793125Y-6785427D01*
X-6836661Y-6847604D01*
X-6836669Y-6847618D01*
X-6929101Y-7045838D01*
X-6985711Y-7257109D01*
X-7004775Y-7474998D01*
X-7004775Y-7475001D01*
X-12659001Y-7475001D01*
X-12699997Y-7468508D01*
X-12700003Y-7468508D01*
X-12825301Y-7488353D01*
X-12825304Y-7488354D01*
X-12938341Y-7545949D01*
X-12938342Y-7545950D01*
X-13028050Y-7635658D01*
X-13085646Y-7748696D01*
X-13105492Y-7874000D01*
X-22859500Y-7874000D01*
X-22859500Y-6858000D01*
X-12851492Y-6858000D01*
X-12831646Y-6983304D01*
X-12774050Y-7096342D01*
X-12684342Y-7186050D01*
X-12571304Y-7243646D01*
X-12508652Y-7253569D01*
X-12446003Y-7263492D01*
X-12446000Y-7263492D01*
X-12445997Y-7263492D01*
X-12370817Y-7251584D01*
X-12320696Y-7243646D01*
X-12207658Y-7186050D01*
X-12117950Y-7096342D01*
X-12060354Y-6983304D01*
X-12060353Y-6983301D01*
X-12040508Y-6858002D01*
X-12040508Y-6857997D01*
X-12060353Y-6732698D01*
X-12060354Y-6732695D01*
X-12117949Y-6619658D01*
X-12207658Y-6529949D01*
X-12320695Y-6472354D01*
X-12320698Y-6472353D01*
X-12445997Y-6452508D01*
X-12446003Y-6452508D01*
X-12571301Y-6472353D01*
X-12571304Y-6472354D01*
X-12684341Y-6529949D01*
X-12684342Y-6529950D01*
X-12774050Y-6619658D01*
X-12831646Y-6732696D01*
X-12833434Y-6743986D01*
X-12851385Y-6857326D01*
X-12851492Y-6858000D01*
X-22859500Y-6858000D01*
X-22859500Y-5842000D01*
X-12597492Y-5842000D01*
X-12577646Y-5967304D01*
X-12520050Y-6080342D01*
X-12430342Y-6170050D01*
X-12317304Y-6227646D01*
X-12254652Y-6237569D01*
X-12192003Y-6247492D01*
X-12192000Y-6247492D01*
X-12191997Y-6247492D01*
X-12116817Y-6235584D01*
X-12066696Y-6227646D01*
X-11953658Y-6170050D01*
X-11863950Y-6080342D01*
X-11848318Y-6049663D01*
X-4729272Y-6049663D01*
X-4699230Y-6245773D01*
X-4630325Y-6431820D01*
X-4525380Y-6600189D01*
X-4388691Y-6743986D01*
X-4225854Y-6857324D01*
X-4043535Y-6935563D01*
X-3849199Y-6975500D01*
X-3849198Y-6975500D01*
X-3700526Y-6975500D01*
X-3552620Y-6960459D01*
X-3552615Y-6960458D01*
X-3412970Y-6916644D01*
X-3363322Y-6901067D01*
X-3189854Y-6804784D01*
X-3039318Y-6675553D01*
X-2926612Y-6529950D01*
X-2917879Y-6518668D01*
X-2875304Y-6431874D01*
X-2830505Y-6340544D01*
X-2805968Y-6245779D01*
X-2780775Y-6148476D01*
X-2780775Y-6148475D01*
X-2775764Y-6049663D01*
X2770728Y-6049663D01*
X2800770Y-6245772D01*
X2800772Y-6245779D01*
X2819334Y-6295898D01*
X2869675Y-6431820D01*
X2974620Y-6600189D01*
X3111309Y-6743986D01*
X3274146Y-6857324D01*
X3274148Y-6857325D01*
X3274150Y-6857326D01*
X3347073Y-6888619D01*
X3456465Y-6935563D01*
X3650801Y-6975500D01*
X3650802Y-6975500D01*
X3799474Y-6975500D01*
X3947379Y-6960459D01*
X3947384Y-6960458D01*
X4037380Y-6932221D01*
X4136678Y-6901067D01*
X4310146Y-6804784D01*
X4460682Y-6675553D01*
X4582122Y-6518666D01*
X4669495Y-6340544D01*
X4719224Y-6148480D01*
X4729272Y-5950337D01*
X4712676Y-5842002D01*
X11786508Y-5842002D01*
X11806353Y-5967301D01*
X11806354Y-5967304D01*
X11848316Y-6049660D01*
X11863950Y-6080342D01*
X11953658Y-6170050D01*
X12066696Y-6227646D01*
X12116817Y-6235584D01*
X12191997Y-6247492D01*
X12192000Y-6247492D01*
X12192003Y-6247492D01*
X12254652Y-6237569D01*
X12317304Y-6227646D01*
X12430342Y-6170050D01*
X12520050Y-6080342D01*
X12577646Y-5967304D01*
X12597492Y-5842000D01*
X12577646Y-5716696D01*
X12520050Y-5603658D01*
X12430342Y-5513950D01*
X12430341Y-5513949D01*
X12317304Y-5456354D01*
X12317301Y-5456353D01*
X12192003Y-5436508D01*
X12191997Y-5436508D01*
X12066698Y-5456353D01*
X12066695Y-5456354D01*
X11953658Y-5513949D01*
X11863949Y-5603658D01*
X11806354Y-5716695D01*
X11806353Y-5716698D01*
X11786508Y-5841997D01*
X11786508Y-5842002D01*
X4712676Y-5842002D01*
X4699230Y-5754227D01*
X4630325Y-5568180D01*
X4525380Y-5399811D01*
X4388691Y-5256014D01*
X4225854Y-5142676D01*
X4225852Y-5142675D01*
X4225849Y-5142673D01*
X4043540Y-5064439D01*
X4043538Y-5064438D01*
X4043535Y-5064437D01*
X4043532Y-5064436D01*
X4043531Y-5064436D01*
X3922389Y-5039541D01*
X3849199Y-5024500D01*
X3700527Y-5024500D01*
X3700526Y-5024500D01*
X3552620Y-5039540D01*
X3552615Y-5039541D01*
X3363323Y-5098932D01*
X3189853Y-5195216D01*
X3189852Y-5195217D01*
X3039319Y-5324445D01*
X2917879Y-5481331D01*
X2830505Y-5659455D01*
X2830504Y-5659457D01*
X2780775Y-5851523D01*
X2780775Y-5851524D01*
X2770728Y-6049660D01*
X2770728Y-6049663D01*
X-2775764Y-6049663D01*
X-2770728Y-5950339D01*
X-2770728Y-5950336D01*
X-2800770Y-5754227D01*
X-2800772Y-5754220D01*
X-2869674Y-5568182D01*
X-2974621Y-5399809D01*
X-3111306Y-5256016D01*
X-3274150Y-5142673D01*
X-3456459Y-5064439D01*
X-3456468Y-5064436D01*
X-3582996Y-5038434D01*
X-3650801Y-5024500D01*
X-3799473Y-5024500D01*
X-3799474Y-5024500D01*
X-3947379Y-5039540D01*
X-3947384Y-5039541D01*
X-4136676Y-5098932D01*
X-4310146Y-5195216D01*
X-4310147Y-5195217D01*
X-4380969Y-5256016D01*
X-4460682Y-5324447D01*
X-4582122Y-5481334D01*
X-4669495Y-5659456D01*
X-4719224Y-5851520D01*
X-4729272Y-6049663D01*
X-11848318Y-6049663D01*
X-11848316Y-6049660D01*
X-11806354Y-5967304D01*
X-11806353Y-5967301D01*
X-11786508Y-5842002D01*
X-11786508Y-5841997D01*
X-11806353Y-5716698D01*
X-11806354Y-5716695D01*
X-11863949Y-5603658D01*
X-11953658Y-5513949D01*
X-12066695Y-5456354D01*
X-12066698Y-5456353D01*
X-12191997Y-5436508D01*
X-12192003Y-5436508D01*
X-12317301Y-5456353D01*
X-12317304Y-5456354D01*
X-12430341Y-5513949D01*
X-12430342Y-5513950D01*
X-12520050Y-5603658D01*
X-12577646Y-5716696D01*
X-12597492Y-5842000D01*
X-22859500Y-5842000D01*
X-22859500Y-4826000D01*
X-12343492Y-4826000D01*
X-12323646Y-4951304D01*
X-12266050Y-5064342D01*
X-12176342Y-5154050D01*
X-12063304Y-5211646D01*
X-12000652Y-5221569D01*
X-11938003Y-5231492D01*
X-11938000Y-5231492D01*
X-11937997Y-5231492D01*
X-11862817Y-5219584D01*
X-11812696Y-5211646D01*
X-11699658Y-5154050D01*
X-11609950Y-5064342D01*
X-11597312Y-5039540D01*
X-11552354Y-4951304D01*
X-11552353Y-4951301D01*
X-11532508Y-4826002D01*
X11532508Y-4826002D01*
X11552353Y-4951301D01*
X11552354Y-4951304D01*
X11597312Y-5039540D01*
X11609950Y-5064342D01*
X11699658Y-5154050D01*
X11812696Y-5211646D01*
X11862817Y-5219584D01*
X11937997Y-5231492D01*
X11938000Y-5231492D01*
X11938003Y-5231492D01*
X12000652Y-5221569D01*
X12063304Y-5211646D01*
X12176342Y-5154050D01*
X12266050Y-5064342D01*
X12323646Y-4951304D01*
X12343492Y-4826000D01*
X12323646Y-4700696D01*
X12266050Y-4587658D01*
X12176342Y-4497950D01*
X12176341Y-4497949D01*
X12063304Y-4440354D01*
X12063301Y-4440353D01*
X11938003Y-4420508D01*
X11937997Y-4420508D01*
X11812698Y-4440353D01*
X11812695Y-4440354D01*
X11699658Y-4497949D01*
X11609949Y-4587658D01*
X11552354Y-4700695D01*
X11552353Y-4700698D01*
X11532508Y-4825997D01*
X11532508Y-4826002D01*
X-11532508Y-4826002D01*
X-11532508Y-4825997D01*
X-11552353Y-4700698D01*
X-11552354Y-4700695D01*
X-11609949Y-4587658D01*
X-11699658Y-4497949D01*
X-11812695Y-4440354D01*
X-11812698Y-4440353D01*
X-11937997Y-4420508D01*
X-11938003Y-4420508D01*
X-12063301Y-4440353D01*
X-12063304Y-4440354D01*
X-12176341Y-4497949D01*
X-12176342Y-4497950D01*
X-12266050Y-4587658D01*
X-12323646Y-4700696D01*
X-12343492Y-4826000D01*
X-22859500Y-4826000D01*
X-22859500Y-3810000D01*
X-12089492Y-3810000D01*
X-12069646Y-3935304D01*
X-12012050Y-4048342D01*
X-11922342Y-4138050D01*
X-11809304Y-4195646D01*
X-11746652Y-4205569D01*
X-11684003Y-4215492D01*
X-11684000Y-4215492D01*
X-11683997Y-4215492D01*
X-11608817Y-4203584D01*
X-11558696Y-4195646D01*
X-11445658Y-4138050D01*
X-11355950Y-4048342D01*
X-11298354Y-3935304D01*
X-11298353Y-3935301D01*
X-11278508Y-3810002D01*
X11278508Y-3810002D01*
X11298353Y-3935301D01*
X11298354Y-3935304D01*
X11355950Y-4048342D01*
X11445658Y-4138050D01*
X11558696Y-4195646D01*
X11608817Y-4203584D01*
X11683997Y-4215492D01*
X11684000Y-4215492D01*
X11684003Y-4215492D01*
X11746652Y-4205569D01*
X11809304Y-4195646D01*
X11922342Y-4138050D01*
X12012050Y-4048342D01*
X12069646Y-3935304D01*
X12089492Y-3810000D01*
X12069646Y-3684696D01*
X12012050Y-3571658D01*
X11922342Y-3481950D01*
X11922341Y-3481949D01*
X11809304Y-3424354D01*
X11809301Y-3424353D01*
X11684003Y-3404508D01*
X11683997Y-3404508D01*
X11558698Y-3424353D01*
X11558695Y-3424354D01*
X11445658Y-3481949D01*
X11355949Y-3571658D01*
X11298354Y-3684695D01*
X11298353Y-3684698D01*
X11278508Y-3809997D01*
X11278508Y-3810002D01*
X-11278508Y-3810002D01*
X-11278508Y-3809997D01*
X-11298353Y-3684698D01*
X-11298354Y-3684695D01*
X-11355949Y-3571658D01*
X-11445658Y-3481949D01*
X-11558695Y-3424354D01*
X-11558698Y-3424353D01*
X-11683997Y-3404508D01*
X-11684003Y-3404508D01*
X-11809301Y-3424353D01*
X-11809304Y-3424354D01*
X-11922341Y-3481949D01*
X-11922342Y-3481950D01*
X-12012050Y-3571658D01*
X-12069646Y-3684696D01*
X-12089492Y-3810000D01*
X-22859500Y-3810000D01*
X-22859500Y-2794000D01*
X-11835492Y-2794000D01*
X-11815646Y-2919304D01*
X-11758050Y-3032342D01*
X-11668342Y-3122050D01*
X-11555304Y-3179646D01*
X-11492652Y-3189569D01*
X-11430003Y-3199492D01*
X-11430000Y-3199492D01*
X-11429997Y-3199492D01*
X-11354817Y-3187584D01*
X-11304696Y-3179646D01*
X-11191658Y-3122050D01*
X-11101950Y-3032342D01*
X-11044354Y-2919304D01*
X-11044353Y-2919301D01*
X-11024508Y-2794002D01*
X11024508Y-2794002D01*
X11044353Y-2919301D01*
X11044354Y-2919304D01*
X11101950Y-3032342D01*
X11191658Y-3122050D01*
X11304696Y-3179646D01*
X11354817Y-3187584D01*
X11429997Y-3199492D01*
X11430000Y-3199492D01*
X11430003Y-3199492D01*
X11492652Y-3189569D01*
X11555304Y-3179646D01*
X11668342Y-3122050D01*
X11758050Y-3032342D01*
X11815646Y-2919304D01*
X11835492Y-2794000D01*
X11815646Y-2668696D01*
X11758050Y-2555658D01*
X11668342Y-2465950D01*
X11668341Y-2465949D01*
X11555304Y-2408354D01*
X11555301Y-2408353D01*
X11430003Y-2388508D01*
X11429997Y-2388508D01*
X11304698Y-2408353D01*
X11304695Y-2408354D01*
X11191658Y-2465949D01*
X11101949Y-2555658D01*
X11044354Y-2668695D01*
X11044353Y-2668698D01*
X11024508Y-2793997D01*
X11024508Y-2794002D01*
X-11024508Y-2794002D01*
X-11024508Y-2793997D01*
X-11044353Y-2668698D01*
X-11044354Y-2668695D01*
X-11101949Y-2555658D01*
X-11191658Y-2465949D01*
X-11304695Y-2408354D01*
X-11304698Y-2408353D01*
X-11429997Y-2388508D01*
X-11430003Y-2388508D01*
X-11555301Y-2408353D01*
X-11555304Y-2408354D01*
X-11668341Y-2465949D01*
X-11668342Y-2465950D01*
X-11758050Y-2555658D01*
X-11815646Y-2668696D01*
X-11835492Y-2794000D01*
X-22859500Y-2794000D01*
X-22859500Y-1778000D01*
X-11581492Y-1778000D01*
X-11561646Y-1903304D01*
X-11504050Y-2016342D01*
X-11414342Y-2106050D01*
X-11301304Y-2163646D01*
X-11238652Y-2173569D01*
X-11176003Y-2183492D01*
X-11176000Y-2183492D01*
X-11175997Y-2183492D01*
X-11100817Y-2171584D01*
X-11050696Y-2163646D01*
X-10937658Y-2106050D01*
X-10847950Y-2016342D01*
X-10790354Y-1903304D01*
X-10790353Y-1903301D01*
X-10770508Y-1778002D01*
X10770508Y-1778002D01*
X10790353Y-1903301D01*
X10790354Y-1903304D01*
X10847950Y-2016342D01*
X10937658Y-2106050D01*
X11050696Y-2163646D01*
X11100817Y-2171584D01*
X11175997Y-2183492D01*
X11176000Y-2183492D01*
X11176003Y-2183492D01*
X11238652Y-2173569D01*
X11301304Y-2163646D01*
X11414342Y-2106050D01*
X11504050Y-2016342D01*
X11561646Y-1903304D01*
X11581492Y-1778000D01*
X11561646Y-1652696D01*
X11504050Y-1539658D01*
X11414342Y-1449950D01*
X11414341Y-1449949D01*
X11301304Y-1392354D01*
X11301301Y-1392353D01*
X11176003Y-1372508D01*
X11175997Y-1372508D01*
X11050698Y-1392353D01*
X11050695Y-1392354D01*
X10937658Y-1449949D01*
X10847949Y-1539658D01*
X10790354Y-1652695D01*
X10790353Y-1652698D01*
X10770508Y-1777997D01*
X10770508Y-1778002D01*
X-10770508Y-1778002D01*
X-10770508Y-1777997D01*
X-10790353Y-1652698D01*
X-10790354Y-1652695D01*
X-10847949Y-1539658D01*
X-10937658Y-1449949D01*
X-11050695Y-1392354D01*
X-11050698Y-1392353D01*
X-11175997Y-1372508D01*
X-11176003Y-1372508D01*
X-11301301Y-1392353D01*
X-11301304Y-1392354D01*
X-11414341Y-1449949D01*
X-11414342Y-1449950D01*
X-11504050Y-1539658D01*
X-11561646Y-1652696D01*
X-11581492Y-1778000D01*
X-22859500Y-1778000D01*
X-22859500Y-762000D01*
X-11327492Y-762000D01*
X-11307646Y-887304D01*
X-11250050Y-1000342D01*
X-11160342Y-1090050D01*
X-11047304Y-1147646D01*
X-10984652Y-1157569D01*
X-10922003Y-1167492D01*
X-10922000Y-1167492D01*
X-10921997Y-1167492D01*
X-10846817Y-1155584D01*
X-10796696Y-1147646D01*
X-10683658Y-1090050D01*
X-10593950Y-1000342D01*
X-10536354Y-887304D01*
X-10536353Y-887301D01*
X-10516508Y-762002D01*
X10516508Y-762002D01*
X10536353Y-887301D01*
X10536354Y-887304D01*
X10593950Y-1000342D01*
X10683658Y-1090050D01*
X10796696Y-1147646D01*
X10846817Y-1155584D01*
X10921997Y-1167492D01*
X10922000Y-1167492D01*
X10922003Y-1167492D01*
X10984652Y-1157569D01*
X11047304Y-1147646D01*
X11160342Y-1090050D01*
X11250050Y-1000342D01*
X11307646Y-887304D01*
X11327492Y-762000D01*
X11307646Y-636696D01*
X11250050Y-523658D01*
X11160342Y-433950D01*
X11160341Y-433949D01*
X11047304Y-376354D01*
X11047301Y-376353D01*
X10922003Y-356508D01*
X10921997Y-356508D01*
X10796698Y-376353D01*
X10796695Y-376354D01*
X10683658Y-433949D01*
X10593949Y-523658D01*
X10536354Y-636695D01*
X10536353Y-636698D01*
X10516508Y-761997D01*
X10516508Y-762002D01*
X-10516508Y-762002D01*
X-10516508Y-761997D01*
X-10536353Y-636698D01*
X-10536354Y-636695D01*
X-10593949Y-523658D01*
X-10683658Y-433949D01*
X-10796695Y-376354D01*
X-10796698Y-376353D01*
X-10921997Y-356508D01*
X-10922003Y-356508D01*
X-11047301Y-376353D01*
X-11047304Y-376354D01*
X-11160341Y-433949D01*
X-11160342Y-433950D01*
X-11250050Y-523658D01*
X-11307646Y-636696D01*
X-11327492Y-762000D01*
X-22859500Y-762000D01*
X-22859500Y254000D01*
X-11073492Y254000D01*
X-11053646Y128696D01*
X-10996050Y15658D01*
X-10906342Y-74050D01*
X-10793304Y-131646D01*
X-10730652Y-141569D01*
X-10668003Y-151492D01*
X-10668000Y-151492D01*
X-10667997Y-151492D01*
X-10592817Y-139584D01*
X-10542696Y-131646D01*
X-10429658Y-74050D01*
X-10339949Y15658D01*
X-10282354Y128695D01*
X-10282353Y128698D01*
X-10262508Y253997D01*
X10262508Y253997D01*
X10282353Y128698D01*
X10282354Y128695D01*
X10339949Y15658D01*
X10429658Y-74050D01*
X10542696Y-131646D01*
X10592817Y-139584D01*
X10667997Y-151492D01*
X10668000Y-151492D01*
X10668003Y-151492D01*
X10730652Y-141569D01*
X10793304Y-131646D01*
X10906342Y-74050D01*
X10996050Y15658D01*
X11053646Y128696D01*
X11073492Y254000D01*
X11053646Y379304D01*
X10996050Y492342D01*
X10906342Y582050D01*
X10793304Y639646D01*
X10730652Y649569D01*
X10668003Y659492D01*
X10667997Y659492D01*
X10592817Y647584D01*
X10542696Y639646D01*
X10429658Y582050D01*
X10339949Y492341D01*
X10282354Y379304D01*
X10282353Y379301D01*
X10262508Y254002D01*
X10262508Y253997D01*
X-10262508Y253997D01*
X-10262508Y254002D01*
X-10282353Y379301D01*
X-10282354Y379304D01*
X-10339949Y492341D01*
X-10429658Y582050D01*
X-10542696Y639646D01*
X-10592817Y647584D01*
X-10667997Y659492D01*
X-10668003Y659492D01*
X-10730652Y649569D01*
X-10793304Y639646D01*
X-10906342Y582050D01*
X-10996050Y492342D01*
X-11053646Y379304D01*
X-11073492Y254000D01*
X-22859500Y254000D01*
X-22859500Y1270000D01*
X-10819492Y1270000D01*
X-10799646Y1144696D01*
X-10799645Y1144695D01*
X-10742050Y1031658D01*
X-10652341Y941949D01*
X-10539304Y884354D01*
X-10539301Y884353D01*
X-10414003Y864508D01*
X-10414000Y864508D01*
X-10413997Y864508D01*
X-10288698Y884353D01*
X-10288695Y884354D01*
X-10175658Y941949D01*
X-10085949Y1031658D01*
X-10028354Y1144695D01*
X-10028353Y1144698D01*
X-10008508Y1269997D01*
X10008508Y1269997D01*
X10028353Y1144698D01*
X10028354Y1144695D01*
X10085949Y1031658D01*
X10175658Y941949D01*
X10288695Y884354D01*
X10288698Y884353D01*
X10413997Y864508D01*
X10414000Y864508D01*
X10414003Y864508D01*
X10539301Y884353D01*
X10539304Y884354D01*
X10652341Y941949D01*
X10742050Y1031658D01*
X10799645Y1144695D01*
X10799646Y1144696D01*
X10819492Y1270000D01*
X10799646Y1395304D01*
X10742050Y1508342D01*
X10652342Y1598050D01*
X10539304Y1655646D01*
X10476652Y1665569D01*
X10414003Y1675492D01*
X10413997Y1675492D01*
X10338817Y1663584D01*
X10288696Y1655646D01*
X10175658Y1598050D01*
X10085949Y1508341D01*
X10028354Y1395304D01*
X10028353Y1395301D01*
X10008508Y1270002D01*
X10008508Y1269997D01*
X-10008508Y1269997D01*
X-10008508Y1270002D01*
X-10028353Y1395301D01*
X-10028354Y1395304D01*
X-10085949Y1508341D01*
X-10175658Y1598050D01*
X-10288696Y1655646D01*
X-10338817Y1663584D01*
X-10413997Y1675492D01*
X-10414003Y1675492D01*
X-10476652Y1665569D01*
X-10539304Y1655646D01*
X-10652342Y1598050D01*
X-10742050Y1508342D01*
X-10799646Y1395304D01*
X-10819492Y1270000D01*
X-22859500Y1270000D01*
X-22859500Y2286000D01*
X-10565492Y2286000D01*
X-10545646Y2160696D01*
X-10545645Y2160695D01*
X-10488050Y2047658D01*
X-10398341Y1957949D01*
X-10285304Y1900354D01*
X-10285301Y1900353D01*
X-10160003Y1880508D01*
X-10160000Y1880508D01*
X-10159997Y1880508D01*
X-10034698Y1900353D01*
X-10034695Y1900354D01*
X-9921658Y1957949D01*
X-9831949Y2047658D01*
X-9774354Y2160695D01*
X-9774353Y2160698D01*
X-9754508Y2285997D01*
X9754508Y2285997D01*
X9774353Y2160698D01*
X9774354Y2160695D01*
X9831949Y2047658D01*
X9921658Y1957949D01*
X10034695Y1900354D01*
X10034698Y1900353D01*
X10159997Y1880508D01*
X10160000Y1880508D01*
X10160003Y1880508D01*
X10285301Y1900353D01*
X10285304Y1900354D01*
X10398341Y1957949D01*
X10488050Y2047658D01*
X10545645Y2160695D01*
X10545646Y2160696D01*
X10565492Y2286000D01*
X10545646Y2411304D01*
X10488050Y2524342D01*
X10398342Y2614050D01*
X10285304Y2671646D01*
X10222652Y2681569D01*
X10160003Y2691492D01*
X10159997Y2691492D01*
X10084817Y2679584D01*
X10034696Y2671646D01*
X9921658Y2614050D01*
X9831949Y2524341D01*
X9774354Y2411304D01*
X9774353Y2411301D01*
X9754508Y2286002D01*
X9754508Y2285997D01*
X-9754508Y2285997D01*
X-9754508Y2286002D01*
X-9774353Y2411301D01*
X-9774354Y2411304D01*
X-9831949Y2524341D01*
X-9921658Y2614050D01*
X-10034696Y2671646D01*
X-10084817Y2679584D01*
X-10159997Y2691492D01*
X-10160003Y2691492D01*
X-10222652Y2681569D01*
X-10285304Y2671646D01*
X-10398342Y2614050D01*
X-10488050Y2524342D01*
X-10545646Y2411304D01*
X-10565492Y2286000D01*
X-22859500Y2286000D01*
X-22859500Y3302000D01*
X-10311492Y3302000D01*
X-10291646Y3176696D01*
X-10291645Y3176695D01*
X-10234050Y3063658D01*
X-10144341Y2973949D01*
X-10031304Y2916354D01*
X-10031301Y2916353D01*
X-9906003Y2896508D01*
X-9906000Y2896508D01*
X-9905997Y2896508D01*
X-9780698Y2916353D01*
X-9780695Y2916354D01*
X-9667658Y2973949D01*
X-9577949Y3063658D01*
X-9520354Y3176695D01*
X-9520353Y3176698D01*
X-9500508Y3301997D01*
X9500508Y3301997D01*
X9520353Y3176698D01*
X9520354Y3176695D01*
X9577949Y3063658D01*
X9667658Y2973949D01*
X9780695Y2916354D01*
X9780698Y2916353D01*
X9905997Y2896508D01*
X9906000Y2896508D01*
X9906003Y2896508D01*
X10031301Y2916353D01*
X10031304Y2916354D01*
X10144341Y2973949D01*
X10234050Y3063658D01*
X10291645Y3176695D01*
X10291646Y3176696D01*
X10311492Y3302000D01*
X10291646Y3427304D01*
X10234050Y3540342D01*
X10144342Y3630050D01*
X10031304Y3687646D01*
X9968652Y3697569D01*
X9906003Y3707492D01*
X9905997Y3707492D01*
X9830817Y3695584D01*
X9780696Y3687646D01*
X9667658Y3630050D01*
X9577949Y3540341D01*
X9520354Y3427304D01*
X9520353Y3427301D01*
X9500508Y3302002D01*
X9500508Y3301997D01*
X-9500508Y3301997D01*
X-9500508Y3302002D01*
X-9520353Y3427301D01*
X-9520354Y3427304D01*
X-9577949Y3540341D01*
X-9667658Y3630050D01*
X-9780696Y3687646D01*
X-9830817Y3695584D01*
X-9905997Y3707492D01*
X-9906003Y3707492D01*
X-9968652Y3697569D01*
X-10031304Y3687646D01*
X-10144342Y3630050D01*
X-10234050Y3540342D01*
X-10291646Y3427304D01*
X-10311492Y3302000D01*
X-22859500Y3302000D01*
X-22859500Y4318000D01*
X-10057492Y4318000D01*
X-10037646Y4192696D01*
X-10037645Y4192695D01*
X-9980050Y4079658D01*
X-9890341Y3989949D01*
X-9777304Y3932354D01*
X-9777301Y3932353D01*
X-9652003Y3912508D01*
X-9652000Y3912508D01*
X-9651997Y3912508D01*
X-9526698Y3932353D01*
X-9526695Y3932354D01*
X-9413658Y3989949D01*
X-9323949Y4079658D01*
X-9266354Y4192695D01*
X-9266353Y4192698D01*
X-9246508Y4317997D01*
X9246508Y4317997D01*
X9266353Y4192698D01*
X9266354Y4192695D01*
X9323949Y4079658D01*
X9413658Y3989949D01*
X9526695Y3932354D01*
X9526698Y3932353D01*
X9651997Y3912508D01*
X9652000Y3912508D01*
X9652003Y3912508D01*
X9777301Y3932353D01*
X9777304Y3932354D01*
X9890341Y3989949D01*
X9980050Y4079658D01*
X10037645Y4192695D01*
X10037646Y4192696D01*
X10057492Y4318000D01*
X10037646Y4443304D01*
X9980050Y4556342D01*
X9890342Y4646050D01*
X9777304Y4703646D01*
X9714652Y4713569D01*
X9652003Y4723492D01*
X9651997Y4723492D01*
X9576817Y4711584D01*
X9526696Y4703646D01*
X9413658Y4646050D01*
X9323949Y4556341D01*
X9266354Y4443304D01*
X9266353Y4443301D01*
X9246508Y4318002D01*
X9246508Y4317997D01*
X-9246508Y4317997D01*
X-9246508Y4318002D01*
X-9266353Y4443301D01*
X-9266354Y4443304D01*
X-9323949Y4556341D01*
X-9413658Y4646050D01*
X-9526696Y4703646D01*
X-9576817Y4711584D01*
X-9651997Y4723492D01*
X-9652003Y4723492D01*
X-9714652Y4713569D01*
X-9777304Y4703646D01*
X-9890342Y4646050D01*
X-9980050Y4556342D01*
X-10037646Y4443304D01*
X-10057492Y4318000D01*
X-22859500Y4318000D01*
X-22859500Y5334000D01*
X-9803492Y5334000D01*
X-9783646Y5208696D01*
X-9750007Y5142676D01*
X-9726050Y5095658D01*
X-9636341Y5005949D01*
X-9523304Y4948354D01*
X-9523301Y4948353D01*
X-9398003Y4928508D01*
X-9398000Y4928508D01*
X-9397997Y4928508D01*
X-9272698Y4948353D01*
X-9272695Y4948354D01*
X-9159658Y5005949D01*
X-9069949Y5095658D01*
X-9012354Y5208695D01*
X-9012353Y5208698D01*
X-8992508Y5333997D01*
X-8992508Y5334002D01*
X-9012353Y5459301D01*
X-9012354Y5459304D01*
X-9069949Y5572341D01*
X-9159658Y5662050D01*
X-9272696Y5719646D01*
X-9322817Y5727584D01*
X-9397997Y5739492D01*
X-9398003Y5739492D01*
X-9460652Y5729569D01*
X-9523304Y5719646D01*
X-9636342Y5662050D01*
X-9726050Y5572342D01*
X-9783646Y5459304D01*
X-9803492Y5334000D01*
X-22859500Y5334000D01*
X-22859500Y6349997D01*
X-9549492Y6349997D01*
X-9547994Y6340542D01*
X-9529646Y6224696D01*
X-9490812Y6148480D01*
X-9472050Y6111658D01*
X-9382341Y6021949D01*
X-9269304Y5964354D01*
X-9269301Y5964353D01*
X-9144003Y5944508D01*
X-9144000Y5944508D01*
X-9143997Y5944508D01*
X-9107193Y5950337D01*
X-4729272Y5950337D01*
X-4699230Y5754227D01*
X-4630325Y5568180D01*
X-4525380Y5399811D01*
X-4388691Y5256014D01*
X-4225854Y5142676D01*
X-4225852Y5142675D01*
X-4225849Y5142673D01*
X-4043540Y5064439D01*
X-4043535Y5064437D01*
X-4043532Y5064436D01*
X-4043531Y5064436D01*
X-3953338Y5045901D01*
X-3849199Y5024500D01*
X-3849198Y5024500D01*
X-3700526Y5024500D01*
X-3552620Y5039540D01*
X-3552615Y5039541D01*
X-3363323Y5098932D01*
X-3189853Y5195216D01*
X-3189852Y5195217D01*
X-3039319Y5324445D01*
X-2917879Y5481331D01*
X-2830505Y5659455D01*
X-2830504Y5659457D01*
X-2780775Y5851523D01*
X-2780775Y5851524D01*
X-2775764Y5950337D01*
X2770728Y5950337D01*
X2785866Y5851520D01*
X2800770Y5754227D01*
X2800772Y5754220D01*
X2869674Y5568182D01*
X2974621Y5399809D01*
X3111306Y5256016D01*
X3274150Y5142673D01*
X3456459Y5064439D01*
X3456468Y5064436D01*
X3577615Y5039540D01*
X3650801Y5024500D01*
X3650802Y5024500D01*
X3799474Y5024500D01*
X3947379Y5039540D01*
X3947384Y5039541D01*
X4136676Y5098932D01*
X4310146Y5195216D01*
X4310147Y5195217D01*
X4460680Y5324445D01*
X4468075Y5333997D01*
X8992508Y5333997D01*
X9012353Y5208698D01*
X9012354Y5208695D01*
X9069949Y5095658D01*
X9159658Y5005949D01*
X9272695Y4948354D01*
X9272698Y4948353D01*
X9397997Y4928508D01*
X9398000Y4928508D01*
X9398003Y4928508D01*
X9523301Y4948353D01*
X9523304Y4948354D01*
X9636341Y5005949D01*
X9726050Y5095658D01*
X9750007Y5142676D01*
X9783646Y5208696D01*
X9803492Y5334000D01*
X9783646Y5459304D01*
X9726050Y5572342D01*
X9636342Y5662050D01*
X9523304Y5719646D01*
X9460652Y5729569D01*
X9398003Y5739492D01*
X9397997Y5739492D01*
X9322817Y5727584D01*
X9272696Y5719646D01*
X9159658Y5662050D01*
X9069949Y5572341D01*
X9012354Y5459304D01*
X9012353Y5459301D01*
X8992508Y5334002D01*
X8992508Y5333997D01*
X4468075Y5333997D01*
X4468077Y5334000D01*
X4565067Y5459301D01*
X4582120Y5481331D01*
X4582120Y5481332D01*
X4582122Y5481334D01*
X4669495Y5659456D01*
X4719224Y5851520D01*
X4729272Y6049663D01*
X4699230Y6245773D01*
X4630325Y6431820D01*
X4525380Y6600189D01*
X4388691Y6743986D01*
X4225854Y6857324D01*
X4043535Y6935563D01*
X3849199Y6975500D01*
X3700527Y6975500D01*
X3700526Y6975500D01*
X3552620Y6960459D01*
X3552615Y6960458D01*
X3412970Y6916644D01*
X3363322Y6901067D01*
X3189854Y6804784D01*
X3189853Y6804783D01*
X3189852Y6804782D01*
X3039319Y6675554D01*
X2917879Y6518668D01*
X2917878Y6518666D01*
X2875304Y6431873D01*
X2830505Y6340544D01*
X2830504Y6340542D01*
X2780775Y6148476D01*
X2780775Y6148475D01*
X2771439Y5964354D01*
X2770728Y5950337D01*
X-2775764Y5950337D01*
X-2770728Y6049660D01*
X-2770728Y6049663D01*
X-2800770Y6245772D01*
X-2800772Y6245779D01*
X-2869674Y6431817D01*
X-2869675Y6431820D01*
X-2974620Y6600189D01*
X-3111309Y6743986D01*
X-3274146Y6857324D01*
X-3274148Y6857325D01*
X-3274150Y6857326D01*
X-3376080Y6901067D01*
X-3456465Y6935563D01*
X-3650801Y6975500D01*
X-3799473Y6975500D01*
X-3799474Y6975500D01*
X-3947379Y6960459D01*
X-3947384Y6960458D01*
X-4026730Y6935563D01*
X-4136678Y6901067D01*
X-4310146Y6804784D01*
X-4460682Y6675553D01*
X-4582122Y6518666D01*
X-4669495Y6340544D01*
X-4719224Y6148480D01*
X-4729272Y5950337D01*
X-9107193Y5950337D01*
X-9018698Y5964353D01*
X-9018695Y5964354D01*
X-8905658Y6021949D01*
X-8815949Y6111658D01*
X-8758354Y6224695D01*
X-8758353Y6224698D01*
X-8738508Y6349997D01*
X-8738508Y6350002D01*
X-8758353Y6475301D01*
X-8758354Y6475304D01*
X-8815949Y6588341D01*
X-8905658Y6678050D01*
X-9018696Y6735646D01*
X-9071353Y6743986D01*
X-9143997Y6755492D01*
X-9144003Y6755492D01*
X-9206652Y6745569D01*
X-9269304Y6735646D01*
X-9382342Y6678050D01*
X-9472050Y6588342D01*
X-9529646Y6475304D01*
X-9541553Y6400121D01*
X-9549492Y6350002D01*
X-9549492Y6349997D01*
X-22859500Y6349997D01*
X-22859500Y7366000D01*
X-9295492Y7366000D01*
X-9275646Y7240696D01*
X-9275645Y7240695D01*
X-9218050Y7127658D01*
X-9128341Y7037949D01*
X-9015304Y6980354D01*
X-9015301Y6980353D01*
X-8890003Y6960508D01*
X-8890000Y6960508D01*
X-8889997Y6960508D01*
X-8764698Y6980353D01*
X-8764695Y6980354D01*
X-8651658Y7037949D01*
X-8561949Y7127658D01*
X-8504354Y7240695D01*
X-8504353Y7240698D01*
X-8484508Y7365997D01*
X-8484508Y7366002D01*
X-8501771Y7474998D01*
X-7004775Y7474998D01*
X-6985711Y7257109D01*
X-6929101Y7045838D01*
X-6836669Y6847617D01*
X-6836664Y6847609D01*
X-6793124Y6785428D01*
X-6233076Y7345475D01*
X-6209493Y7265156D01*
X-6131761Y7144202D01*
X-6023100Y7050048D01*
X-5892315Y6990320D01*
X-5882532Y6988913D01*
X-6439570Y6431874D01*
X-6377390Y6388335D01*
X-6377382Y6388330D01*
X-6179161Y6295898D01*
X-5967890Y6239288D01*
X-5750002Y6220225D01*
X-5749998Y6220225D01*
X-5532109Y6239288D01*
X-5320838Y6295898D01*
X-5122619Y6388329D01*
X-5122607Y6388336D01*
X-5060428Y6431873D01*
X-5060428Y6431874D01*
X-5617466Y6988913D01*
X-5607685Y6990320D01*
X-5476900Y7050048D01*
X-5368239Y7144202D01*
X-5290507Y7265156D01*
X-5266922Y7345476D01*
X-4706874Y6785428D01*
X-4706873Y6785428D01*
X-4663336Y6847607D01*
X-4663329Y6847619D01*
X-4570898Y7045838D01*
X-4514288Y7257109D01*
X-4495225Y7474998D01*
X4495225Y7474998D01*
X4514288Y7257109D01*
X4570898Y7045838D01*
X4663329Y6847619D01*
X4663336Y6847607D01*
X4706873Y6785428D01*
X4706874Y6785428D01*
X5266922Y7345476D01*
X5290507Y7265156D01*
X5368239Y7144202D01*
X5476900Y7050048D01*
X5607685Y6990320D01*
X5617466Y6988913D01*
X5060428Y6431874D01*
X5060428Y6431873D01*
X5122607Y6388336D01*
X5122619Y6388329D01*
X5320838Y6295898D01*
X5532109Y6239288D01*
X5749998Y6220225D01*
X5750002Y6220225D01*
X5967890Y6239288D01*
X6179161Y6295898D01*
X6295177Y6349997D01*
X8738508Y6349997D01*
X8758353Y6224698D01*
X8758354Y6224695D01*
X8815949Y6111658D01*
X8905658Y6021949D01*
X9018695Y5964354D01*
X9018698Y5964353D01*
X9143997Y5944508D01*
X9144000Y5944508D01*
X9144003Y5944508D01*
X9269301Y5964353D01*
X9269304Y5964354D01*
X9382341Y6021949D01*
X9472050Y6111658D01*
X9490812Y6148480D01*
X9529646Y6224696D01*
X9547994Y6340542D01*
X9549492Y6349997D01*
X9549492Y6350002D01*
X9541553Y6400121D01*
X9529646Y6475304D01*
X9472050Y6588342D01*
X9382342Y6678050D01*
X9269304Y6735646D01*
X9206652Y6745569D01*
X9144003Y6755492D01*
X9143997Y6755492D01*
X9071353Y6743986D01*
X9018696Y6735646D01*
X8905658Y6678050D01*
X8815949Y6588341D01*
X8758354Y6475304D01*
X8758353Y6475301D01*
X8738508Y6350002D01*
X8738508Y6349997D01*
X6295177Y6349997D01*
X6377382Y6388330D01*
X6377390Y6388335D01*
X6439570Y6431874D01*
X5882532Y6988913D01*
X5892315Y6990320D01*
X6023100Y7050048D01*
X6131761Y7144202D01*
X6209493Y7265156D01*
X6233076Y7345475D01*
X6793124Y6785428D01*
X6836664Y6847609D01*
X6836669Y6847617D01*
X6929101Y7045838D01*
X6985711Y7257109D01*
X6995238Y7365997D01*
X8484508Y7365997D01*
X8504353Y7240698D01*
X8504354Y7240695D01*
X8561949Y7127658D01*
X8651658Y7037949D01*
X8764695Y6980354D01*
X8764698Y6980353D01*
X8889997Y6960508D01*
X8890000Y6960508D01*
X8890003Y6960508D01*
X9015301Y6980353D01*
X9015304Y6980354D01*
X9128341Y7037949D01*
X9218050Y7127658D01*
X9275645Y7240695D01*
X9275646Y7240696D01*
X9295492Y7366000D01*
X9275646Y7491304D01*
X9218050Y7604342D01*
X9128342Y7694050D01*
X9015304Y7751646D01*
X8952652Y7761569D01*
X8890003Y7771492D01*
X8889997Y7771492D01*
X8814817Y7759584D01*
X8764696Y7751646D01*
X8651658Y7694050D01*
X8561949Y7604341D01*
X8504354Y7491304D01*
X8504353Y7491301D01*
X8484508Y7366002D01*
X8484508Y7365997D01*
X6995238Y7365997D01*
X7004775Y7474998D01*
X7004775Y7475001D01*
X6985711Y7692890D01*
X6929101Y7904161D01*
X6836669Y8102381D01*
X6836664Y8102389D01*
X6793124Y8164570D01*
X6233077Y7604523D01*
X6209493Y7684844D01*
X6131761Y7805798D01*
X6023100Y7899952D01*
X5892315Y7959680D01*
X5882532Y7961086D01*
X6303442Y8381997D01*
X8230508Y8381997D01*
X8250353Y8256698D01*
X8250354Y8256695D01*
X8307949Y8143658D01*
X8397658Y8053949D01*
X8510695Y7996354D01*
X8510698Y7996353D01*
X8635997Y7976508D01*
X8636000Y7976508D01*
X8636003Y7976508D01*
X8761301Y7996353D01*
X8761304Y7996354D01*
X8874341Y8053949D01*
X8964050Y8143658D01*
X9021645Y8256695D01*
X9021646Y8256696D01*
X9041492Y8382000D01*
X9021646Y8507304D01*
X8964050Y8620342D01*
X8874342Y8710050D01*
X8761304Y8767646D01*
X8698652Y8777569D01*
X8636003Y8787492D01*
X8635997Y8787492D01*
X8560817Y8775584D01*
X8510696Y8767646D01*
X8398955Y8710711D01*
X8397658Y8710050D01*
X8307949Y8620341D01*
X8250354Y8507304D01*
X8250353Y8507301D01*
X8230508Y8382002D01*
X8230508Y8381997D01*
X6303442Y8381997D01*
X6439570Y8518125D01*
X6439571Y8518125D01*
X6377390Y8561665D01*
X6179161Y8654101D01*
X5967890Y8710711D01*
X5750002Y8729775D01*
X5749998Y8729775D01*
X5532109Y8710711D01*
X5320838Y8654101D01*
X5122618Y8561669D01*
X5122604Y8561661D01*
X5060427Y8518125D01*
X5617465Y7961086D01*
X5607685Y7959680D01*
X5476900Y7899952D01*
X5368239Y7805798D01*
X5290507Y7684844D01*
X5266922Y7604521D01*
X4706874Y8164570D01*
X4706873Y8164570D01*
X4663336Y8102391D01*
X4663329Y8102379D01*
X4570898Y7904161D01*
X4514288Y7692890D01*
X4495225Y7475001D01*
X4495225Y7474998D01*
X-4495225Y7474998D01*
X-4495225Y7475001D01*
X-4514288Y7692890D01*
X-4570898Y7904161D01*
X-4663329Y8102379D01*
X-4663336Y8102391D01*
X-4706873Y8164570D01*
X-4706874Y8164570D01*
X-5266922Y7604521D01*
X-5290507Y7684844D01*
X-5368239Y7805798D01*
X-5476900Y7899952D01*
X-5607685Y7959680D01*
X-5617465Y7961086D01*
X-5060428Y8518124D01*
X-5122609Y8561664D01*
X-5122617Y8561669D01*
X-5320838Y8654101D01*
X-5532109Y8710711D01*
X-5749998Y8729775D01*
X-5750002Y8729775D01*
X-5967890Y8710711D01*
X-6179161Y8654101D01*
X-6377381Y8561669D01*
X-6377389Y8561664D01*
X-6439570Y8518124D01*
X-5882532Y7961086D01*
X-5892315Y7959680D01*
X-6023100Y7899952D01*
X-6131761Y7805798D01*
X-6209493Y7684844D01*
X-6233077Y7604523D01*
X-6793124Y8164570D01*
X-6836664Y8102389D01*
X-6836669Y8102381D01*
X-6929101Y7904161D01*
X-6985711Y7692890D01*
X-7004775Y7475001D01*
X-7004775Y7474998D01*
X-8501771Y7474998D01*
X-8504353Y7491301D01*
X-8504354Y7491304D01*
X-8561949Y7604341D01*
X-8651658Y7694050D01*
X-8764696Y7751646D01*
X-8814817Y7759584D01*
X-8889997Y7771492D01*
X-8890003Y7771492D01*
X-8952652Y7761569D01*
X-9015304Y7751646D01*
X-9128342Y7694050D01*
X-9218050Y7604342D01*
X-9275646Y7491304D01*
X-9295492Y7366000D01*
X-22859500Y7366000D01*
X-22859500Y8382000D01*
X-9041492Y8382000D01*
X-9021646Y8256696D01*
X-9021645Y8256695D01*
X-8964050Y8143658D01*
X-8874341Y8053949D01*
X-8761304Y7996354D01*
X-8761301Y7996353D01*
X-8636003Y7976508D01*
X-8636000Y7976508D01*
X-8635997Y7976508D01*
X-8510698Y7996353D01*
X-8510695Y7996354D01*
X-8397658Y8053949D01*
X-8307949Y8143658D01*
X-8250354Y8256695D01*
X-8250353Y8256698D01*
X-8230508Y8381997D01*
X-8230508Y8382002D01*
X-8250353Y8507301D01*
X-8250354Y8507304D01*
X-8307949Y8620341D01*
X-8397658Y8710050D01*
X-8398955Y8710711D01*
X-8510696Y8767646D01*
X-8560817Y8775584D01*
X-8635997Y8787492D01*
X-8636003Y8787492D01*
X-8698652Y8777569D01*
X-8761304Y8767646D01*
X-8874342Y8710050D01*
X-8964050Y8620342D01*
X-9021646Y8507304D01*
X-9041492Y8382000D01*
X-22859500Y8382000D01*
X-22859500Y9398000D01*
X-8787492Y9398000D01*
X-8767646Y9272696D01*
X-8767645Y9272695D01*
X-8710050Y9159658D01*
X-8620341Y9069949D01*
X-8507304Y9012354D01*
X-8507301Y9012353D01*
X-8382003Y8992508D01*
X-8382000Y8992508D01*
X-8381997Y8992508D01*
X-8256698Y9012353D01*
X-8256695Y9012354D01*
X-8143658Y9069949D01*
X-8053949Y9159658D01*
X-7996354Y9272695D01*
X-7996353Y9272698D01*
X-7976508Y9397997D01*
X7976508Y9397997D01*
X7996353Y9272698D01*
X7996354Y9272695D01*
X8053949Y9159658D01*
X8143658Y9069949D01*
X8256695Y9012354D01*
X8256698Y9012353D01*
X8381997Y8992508D01*
X8382000Y8992508D01*
X8382003Y8992508D01*
X8507301Y9012353D01*
X8507304Y9012354D01*
X8620341Y9069949D01*
X8710050Y9159658D01*
X8767645Y9272695D01*
X8767646Y9272696D01*
X8787492Y9398000D01*
X8767646Y9523304D01*
X8710050Y9636342D01*
X8620342Y9726050D01*
X8507304Y9783646D01*
X8444652Y9793569D01*
X8382003Y9803492D01*
X8381997Y9803492D01*
X8306817Y9791584D01*
X8256696Y9783646D01*
X8143658Y9726050D01*
X8053949Y9636341D01*
X7996354Y9523304D01*
X7996353Y9523301D01*
X7976508Y9398002D01*
X7976508Y9397997D01*
X-7976508Y9397997D01*
X-7976508Y9398002D01*
X-7996353Y9523301D01*
X-7996354Y9523304D01*
X-8053949Y9636341D01*
X-8143658Y9726050D01*
X-8256696Y9783646D01*
X-8306817Y9791584D01*
X-8381997Y9803492D01*
X-8382003Y9803492D01*
X-8444652Y9793569D01*
X-8507304Y9783646D01*
X-8620342Y9726050D01*
X-8710050Y9636342D01*
X-8767646Y9523304D01*
X-8787492Y9398000D01*
X-22859500Y9398000D01*
X-22859500Y10414000D01*
X-8533492Y10414000D01*
X-8513646Y10288696D01*
X-8513645Y10288695D01*
X-8456050Y10175658D01*
X-8366341Y10085949D01*
X-8253304Y10028354D01*
X-8253301Y10028353D01*
X-8128003Y10008508D01*
X-8128000Y10008508D01*
X-8127997Y10008508D01*
X-8002698Y10028353D01*
X-8002695Y10028354D01*
X-7889658Y10085949D01*
X-7799949Y10175658D01*
X-7742354Y10288695D01*
X-7742353Y10288698D01*
X-7722508Y10413997D01*
X7722508Y10413997D01*
X7742353Y10288698D01*
X7742354Y10288695D01*
X7799949Y10175658D01*
X7889658Y10085949D01*
X8002695Y10028354D01*
X8002698Y10028353D01*
X8127997Y10008508D01*
X8128000Y10008508D01*
X8128003Y10008508D01*
X8253301Y10028353D01*
X8253304Y10028354D01*
X8366341Y10085949D01*
X8456050Y10175658D01*
X8513645Y10288695D01*
X8513646Y10288696D01*
X8533492Y10414000D01*
X8513646Y10539304D01*
X8456050Y10652342D01*
X8366342Y10742050D01*
X8253304Y10799646D01*
X8190652Y10809569D01*
X8128003Y10819492D01*
X8127997Y10819492D01*
X8052817Y10807584D01*
X8002696Y10799646D01*
X7889658Y10742050D01*
X7799949Y10652341D01*
X7742354Y10539304D01*
X7742353Y10539301D01*
X7722508Y10414002D01*
X7722508Y10413997D01*
X-7722508Y10413997D01*
X-7722508Y10414002D01*
X-7742353Y10539301D01*
X-7742354Y10539304D01*
X-7799949Y10652341D01*
X-7889658Y10742050D01*
X-8002696Y10799646D01*
X-8052817Y10807584D01*
X-8127997Y10819492D01*
X-8128003Y10819492D01*
X-8190652Y10809569D01*
X-8253304Y10799646D01*
X-8366342Y10742050D01*
X-8456050Y10652342D01*
X-8513646Y10539304D01*
X-8533492Y10414000D01*
X-22859500Y10414000D01*
X-22859500Y16525072D01*
X-18769250Y16525072D01*
X-18730121Y16240392D01*
X-18652594Y15963692D01*
X-18538111Y15700125D01*
X-18388805Y15454603D01*
X-18207458Y15231697D01*
X-17997448Y15035561D01*
X-17762686Y14869849D01*
X-17762682Y14869847D01*
X-17762679Y14869845D01*
X-17507545Y14737645D01*
X-17406764Y14701827D01*
X-17236782Y14641416D01*
X-17236778Y14641415D01*
X-17236775Y14641414D01*
X-16955438Y14582952D01*
X-16955424Y14582950D01*
X-16740531Y14568251D01*
X-16740506Y14568250D01*
X-16740502Y14568250D01*
X-16740495Y14568250D01*
X-16597005Y14568250D01*
X-16596998Y14568250D01*
X-16596993Y14568250D01*
X-16596968Y14568251D01*
X-16382075Y14582950D01*
X-16382061Y14582952D01*
X-16100725Y14641414D01*
X-16100724Y14641414D01*
X-15829954Y14737645D01*
X-15574820Y14869845D01*
X-15574807Y14869853D01*
X-15340049Y15035563D01*
X-15130042Y15231696D01*
X-14948695Y15454602D01*
X-14948693Y15454605D01*
X-14799387Y15700127D01*
X-14799387Y15700128D01*
X-14684909Y15963682D01*
X-14607379Y16240392D01*
X-14568250Y16525065D01*
X14568250Y16525065D01*
X14607379Y16240392D01*
X14684909Y15963682D01*
X14799387Y15700128D01*
X14799387Y15700127D01*
X14948693Y15454605D01*
X14948695Y15454602D01*
X15130042Y15231696D01*
X15340049Y15035563D01*
X15574807Y14869853D01*
X15574820Y14869845D01*
X15829954Y14737645D01*
X16100724Y14641414D01*
X16382061Y14582952D01*
X16382075Y14582950D01*
X16596968Y14568251D01*
X16596993Y14568250D01*
X16596998Y14568250D01*
X16597005Y14568250D01*
X16740495Y14568250D01*
X16740502Y14568250D01*
X16740506Y14568250D01*
X16740531Y14568251D01*
X16955424Y14582950D01*
X16955438Y14582952D01*
X17236774Y14641414D01*
X17236775Y14641414D01*
X17236778Y14641415D01*
X17236782Y14641416D01*
X17406764Y14701827D01*
X17507545Y14737645D01*
X17762679Y14869845D01*
X17762682Y14869847D01*
X17762686Y14869849D01*
X17997448Y15035561D01*
X18207458Y15231697D01*
X18388805Y15454603D01*
X18538111Y15700125D01*
X18652594Y15963692D01*
X18730121Y16240392D01*
X18769250Y16525072D01*
X18769250Y16812428D01*
X18730121Y17097108D01*
X18652594Y17373808D01*
X18538111Y17637375D01*
X18388805Y17882897D01*
X18207458Y18105803D01*
X17997448Y18301939D01*
X17762686Y18467651D01*
X17507547Y18599854D01*
X17236782Y18696084D01*
X16955436Y18754548D01*
X16955426Y18754548D01*
X16955424Y18754549D01*
X16740531Y18769248D01*
X16740502Y18769250D01*
X16596998Y18769250D01*
X16596971Y18769248D01*
X16596968Y18769248D01*
X16382075Y18754549D01*
X16382071Y18754548D01*
X16382064Y18754548D01*
X16100718Y18696084D01*
X15829953Y18599854D01*
X15574814Y18467651D01*
X15340052Y18301939D01*
X15340049Y18301936D01*
X15130042Y18105803D01*
X14948695Y17882897D01*
X14948693Y17882894D01*
X14799387Y17637372D01*
X14799387Y17637371D01*
X14684909Y17373817D01*
X14607379Y17097107D01*
X14568250Y16812434D01*
X14568250Y16525065D01*
X-14568250Y16525065D01*
X-14568250Y16812434D01*
X-14607379Y17097107D01*
X-14684909Y17373817D01*
X-14799387Y17637371D01*
X-14799387Y17637372D01*
X-14948693Y17882894D01*
X-14948695Y17882897D01*
X-15130042Y18105803D01*
X-15340049Y18301936D01*
X-15340052Y18301939D01*
X-15574814Y18467651D01*
X-15829953Y18599854D01*
X-16100718Y18696084D01*
X-16382064Y18754548D01*
X-16382071Y18754548D01*
X-16382075Y18754549D01*
X-16596968Y18769248D01*
X-16596971Y18769248D01*
X-16596998Y18769250D01*
X-16740502Y18769250D01*
X-16740531Y18769248D01*
X-16955424Y18754549D01*
X-16955426Y18754548D01*
X-16955436Y18754548D01*
X-17236782Y18696084D01*
X-17507547Y18599854D01*
X-17762686Y18467651D01*
X-17997448Y18301939D01*
X-18207458Y18105803D01*
X-18388805Y17882897D01*
X-18538111Y17637375D01*
X-18652594Y17373808D01*
X-18730121Y17097108D01*
X-18769250Y16812428D01*
X-18769250Y16525072D01*
X-22859500Y16525072D01*
X-22859500Y20856700D01*
X-22859285Y20863281D01*
X-22854035Y20943364D01*
X-22853994Y20943960D01*
X-22841186Y21123034D01*
X-22839509Y21135482D01*
X-22817022Y21248536D01*
X-22816656Y21250295D01*
X-22785935Y21391516D01*
X-22782895Y21402468D01*
X-22743675Y21518008D01*
X-22742671Y21520829D01*
X-22694525Y21649911D01*
X-22690493Y21659248D01*
X-22635355Y21771057D01*
X-22633424Y21774776D01*
X-22568650Y21893400D01*
X-22564002Y21901077D01*
X-22494035Y22005791D01*
X-22490923Y22010188D01*
X-22410638Y22117436D01*
X-22405739Y22123479D01*
X-22322363Y22218551D01*
X-22317863Y22223356D01*
X-22223356Y22317863D01*
X-22218551Y22322363D01*
X-22123479Y22405739D01*
X-22117436Y22410638D01*
X-22010188Y22490923D01*
X-22005791Y22494035D01*
X-21901077Y22564002D01*
X-21893400Y22568650D01*
X-21774776Y22633424D01*
X-21771057Y22635355D01*
X-21659248Y22690493D01*
X-21649911Y22694525D01*
X-21520829Y22742671D01*
X-21518008Y22743675D01*
X-21402468Y22782895D01*
X-21391516Y22785935D01*
X-21250295Y22816656D01*
X-21248536Y22817022D01*
X-21135482Y22839509D01*
X-21123034Y22841186D01*
X-20943960Y22853994D01*
X-20943364Y22854035D01*
X-20866854Y22859050D01*
X-20863279Y22859285D01*
X-20856700Y22859500D01*
X20856700Y22859500D01*
X20863279Y22859285D01*
G37*
G04 #@! TD.AperFunction*
M02*
