G04 #@! TF.GenerationSoftware,KiCad,Pcbnew,8.0.4*
G04 #@! TF.CreationDate,2024-12-13T15:25:53-05:00*
G04 #@! TF.ProjectId,LoomRide-v2,4c6f6f6d-5269-4646-952d-76322e6b6963,rev?*
G04 #@! TF.SameCoordinates,Original*
G04 #@! TF.FileFunction,Copper,L1,Top*
G04 #@! TF.FilePolarity,Positive*
%FSLAX46Y46*%
G04 Gerber Fmt 4.6, Leading zero omitted, Abs format (unit mm)*
G04 Created by KiCad (PCBNEW 8.0.4) date 2024-12-13 15:25:53*
%MOMM*%
%LPD*%
G01*
G04 APERTURE LIST*
G04 #@! TA.AperFunction,SMDPad,CuDef*
%ADD10R,0.300000X1.800000*%
G04 #@! TD*
G04 #@! TA.AperFunction,SMDPad,CuDef*
%ADD11R,0.300000X1.630000*%
G04 #@! TD*
G04 #@! TA.AperFunction,ComponentPad*
%ADD12C,2.000000*%
G04 #@! TD*
G04 #@! TA.AperFunction,ComponentPad*
%ADD13C,1.000000*%
G04 #@! TD*
G04 #@! TA.AperFunction,ViaPad*
%ADD14C,0.500000*%
G04 #@! TD*
G04 #@! TA.AperFunction,Conductor*
%ADD15C,0.508000*%
G04 #@! TD*
G04 #@! TA.AperFunction,Conductor*
%ADD16C,0.152400*%
G04 #@! TD*
G04 APERTURE END LIST*
D10*
X-4746000Y-9896000D03*
D11*
X-4746000Y-7221000D03*
D10*
X-4246000Y-9896000D03*
D11*
X-4246000Y-7221000D03*
D10*
X-3746000Y-9896000D03*
D11*
X-3746000Y-7221000D03*
D10*
X-3246000Y-9896000D03*
D11*
X-3246000Y-7221000D03*
D10*
X-2746000Y-9896000D03*
D11*
X-2746000Y-7221000D03*
D10*
X-2246000Y-9896000D03*
D11*
X-2246000Y-7221000D03*
D10*
X-1746000Y-9896000D03*
D11*
X-1746000Y-7221000D03*
D10*
X-1246000Y-9896000D03*
D11*
X-1246000Y-7221000D03*
D10*
X-746000Y-9896000D03*
D11*
X-746000Y-7221000D03*
D10*
X-246000Y-9896000D03*
D11*
X-246000Y-7221000D03*
D10*
X254000Y-9896000D03*
D11*
X254000Y-7221000D03*
D10*
X754000Y-9896000D03*
D11*
X754000Y-7221000D03*
D10*
X1254000Y-9896000D03*
D11*
X1254000Y-7221000D03*
D10*
X1754000Y-9896000D03*
D11*
X1754000Y-7221000D03*
D10*
X2254000Y-9896000D03*
D11*
X2254000Y-7221000D03*
D10*
X2754000Y-9896000D03*
D11*
X2754000Y-7221000D03*
D10*
X3254000Y-9896000D03*
D11*
X3254000Y-7221000D03*
D10*
X3754000Y-9896000D03*
D11*
X3754000Y-7221000D03*
D10*
X4254000Y-9896000D03*
D11*
X4254000Y-7221000D03*
D10*
X4754000Y-9896000D03*
D11*
X4754000Y-7221000D03*
D12*
X5954000Y-2646000D03*
X-5946000Y-2646000D03*
D13*
X2286000Y-3302000D03*
X3111500Y-4493000D03*
X-1841500Y-4493000D03*
X-6858000Y-8382000D03*
X-1016000Y-3302000D03*
X635000Y-3302000D03*
X5842000Y-7112000D03*
X3937000Y-3302000D03*
X4572000Y-11684000D03*
X-190500Y-4493000D03*
X-5842000Y-7112000D03*
X-6604000Y-9906000D03*
X6096000Y-11430000D03*
X6604000Y-9906000D03*
X-2667000Y-3302000D03*
X1460500Y-4493000D03*
X-4572000Y-11684000D03*
X-6096000Y-11430000D03*
X-3492500Y-4493000D03*
X6858000Y-8382000D03*
D14*
X-3333248Y-11461248D03*
X-2794000Y-11938000D03*
X-2256600Y-11430000D03*
X-1778000Y-11938000D03*
X-1270000Y-11430000D03*
X-762000Y-11938000D03*
X-231565Y-11430000D03*
X254000Y-11938000D03*
X762021Y-11430021D03*
X1296915Y-11938000D03*
X1777990Y-11430000D03*
X2286000Y-11938000D03*
X2794000Y-11430000D03*
X3302000Y-11938000D03*
D15*
X4754000Y-7231000D02*
X-4746000Y-7231000D01*
D16*
X-4746000Y-11510000D02*
X-4572000Y-11684000D01*
X-4746000Y-9896000D02*
X-4746000Y-11510000D01*
X-5044000Y-8686800D02*
X-5334000Y-8976800D01*
X-4246000Y-9896000D02*
X-4246000Y-8843600D01*
X-5334000Y-10668000D02*
X-6096000Y-11430000D01*
X-4402800Y-8686800D02*
X-5044000Y-8686800D01*
X-5334000Y-8976800D02*
X-5334000Y-10668000D01*
X-4246000Y-8843600D02*
X-4402800Y-8686800D01*
X-6604000Y-9398000D02*
X-6604000Y-9906000D01*
X-3746000Y-9896000D02*
X-3746000Y-8843600D01*
X-3746000Y-8843600D02*
X-4207600Y-8382000D01*
X-5588000Y-8382000D02*
X-6604000Y-9398000D01*
X-4207600Y-8382000D02*
X-5588000Y-8382000D01*
X-3333248Y-11461248D02*
X-3333248Y-10900378D01*
X-3333248Y-10900378D02*
X-3246000Y-10813130D01*
X-3246000Y-10813130D02*
X-3246000Y-9896000D01*
X-2794000Y-11938000D02*
X-2746000Y-11890000D01*
X-2746000Y-11890000D02*
X-2746000Y-9896000D01*
X-2246000Y-11419400D02*
X-2246000Y-9896000D01*
X-2256600Y-11430000D02*
X-2246000Y-11419400D01*
X-1778000Y-9928000D02*
X-1746000Y-9896000D01*
X-1778000Y-11938000D02*
X-1778000Y-9928000D01*
X-1246000Y-11406000D02*
X-1270000Y-11430000D01*
X-1246000Y-9896000D02*
X-1246000Y-11406000D01*
X-746000Y-11922000D02*
X-746000Y-9896000D01*
X-762000Y-11938000D02*
X-746000Y-11922000D01*
X-231565Y-11430000D02*
X-246000Y-11415565D01*
X-246000Y-11415565D02*
X-246000Y-9896000D01*
X254000Y-11938000D02*
X254000Y-9896000D01*
X754000Y-11422000D02*
X762021Y-11430021D01*
X754000Y-9896000D02*
X754000Y-11422000D01*
X1296915Y-11938000D02*
X1254000Y-11895085D01*
X1254000Y-11895085D02*
X1254000Y-9896000D01*
X1777990Y-11430000D02*
X1754000Y-11406010D01*
X1754000Y-11406010D02*
X1754000Y-9896000D01*
X2286000Y-9928000D02*
X2254000Y-9896000D01*
X2286000Y-11938000D02*
X2286000Y-9928000D01*
X2754000Y-11390000D02*
X2754000Y-9896000D01*
X2794000Y-11430000D02*
X2754000Y-11390000D01*
X3254000Y-10903200D02*
X3254000Y-9896000D01*
X3302000Y-11938000D02*
X3302000Y-10951200D01*
X3302000Y-10951200D02*
X3254000Y-10903200D01*
X6604000Y-9398000D02*
X6604000Y-9906000D01*
X3754000Y-9896000D02*
X3754000Y-8843600D01*
X4215600Y-8382000D02*
X5588000Y-8382000D01*
X5588000Y-8382000D02*
X6604000Y-9398000D01*
X3754000Y-8843600D02*
X4215600Y-8382000D01*
X6096000Y-11430000D02*
X5334000Y-10668000D01*
X5334000Y-10668000D02*
X5334000Y-9021400D01*
X4410800Y-8686800D02*
X4254000Y-8843600D01*
X4999400Y-8686800D02*
X4410800Y-8686800D01*
X5334000Y-9021400D02*
X4999400Y-8686800D01*
X4254000Y-8843600D02*
X4254000Y-9896000D01*
X4754000Y-11502000D02*
X4572000Y-11684000D01*
X4754000Y-9896000D02*
X4754000Y-11502000D01*
G04 #@! TA.AperFunction,Conductor*
G36*
X7119822Y-1771739D02*
G01*
X7133358Y-1773882D01*
X7177071Y-1780806D01*
X7206997Y-1790528D01*
X7251513Y-1813210D01*
X7276971Y-1831707D01*
X7312292Y-1867028D01*
X7330790Y-1892488D01*
X7353469Y-1936998D01*
X7363193Y-1966927D01*
X7372261Y-2024174D01*
X7373500Y-2039913D01*
X7373500Y-7691411D01*
X7354287Y-7750542D01*
X7303987Y-7787087D01*
X7241813Y-7787087D01*
X7226149Y-7780488D01*
X7109370Y-7719198D01*
X7109372Y-7719198D01*
X7012764Y-7695386D01*
X6943445Y-7678300D01*
X6772555Y-7678300D01*
X6772554Y-7678300D01*
X6606628Y-7719198D01*
X6455315Y-7798613D01*
X6455314Y-7798614D01*
X6327408Y-7911930D01*
X6327404Y-7911934D01*
X6230329Y-8052571D01*
X6230329Y-8052572D01*
X6169729Y-8212360D01*
X6169728Y-8212362D01*
X6156138Y-8324290D01*
X6129938Y-8380674D01*
X6075600Y-8410890D01*
X6013879Y-8403395D01*
X5985137Y-8383299D01*
X5926128Y-8324290D01*
X5759862Y-8158024D01*
X5696037Y-8121175D01*
X5624850Y-8102100D01*
X4252450Y-8102100D01*
X4178750Y-8102100D01*
X4107563Y-8121175D01*
X4107561Y-8121175D01*
X4107561Y-8121176D01*
X4043740Y-8158022D01*
X3530022Y-8671740D01*
X3489879Y-8741272D01*
X3487237Y-8739746D01*
X3455032Y-8777467D01*
X3402455Y-8792300D01*
X3083935Y-8792300D01*
X3023625Y-8804296D01*
X2984375Y-8804296D01*
X2924065Y-8792300D01*
X2924064Y-8792300D01*
X2583936Y-8792300D01*
X2583935Y-8792300D01*
X2523625Y-8804296D01*
X2484375Y-8804296D01*
X2424065Y-8792300D01*
X2424064Y-8792300D01*
X2083936Y-8792300D01*
X2083935Y-8792300D01*
X2023625Y-8804296D01*
X1984375Y-8804296D01*
X1924065Y-8792300D01*
X1924064Y-8792300D01*
X1583936Y-8792300D01*
X1583935Y-8792300D01*
X1523625Y-8804296D01*
X1484375Y-8804296D01*
X1424065Y-8792300D01*
X1424064Y-8792300D01*
X1083936Y-8792300D01*
X1083935Y-8792300D01*
X1023625Y-8804296D01*
X984375Y-8804296D01*
X924065Y-8792300D01*
X924064Y-8792300D01*
X583936Y-8792300D01*
X583935Y-8792300D01*
X523625Y-8804296D01*
X484375Y-8804296D01*
X424065Y-8792300D01*
X424064Y-8792300D01*
X83936Y-8792300D01*
X83935Y-8792300D01*
X23625Y-8804296D01*
X-15625Y-8804296D01*
X-75935Y-8792300D01*
X-75936Y-8792300D01*
X-416064Y-8792300D01*
X-416065Y-8792300D01*
X-476375Y-8804296D01*
X-515625Y-8804296D01*
X-575935Y-8792300D01*
X-575936Y-8792300D01*
X-916064Y-8792300D01*
X-916065Y-8792300D01*
X-976375Y-8804296D01*
X-1015625Y-8804296D01*
X-1075935Y-8792300D01*
X-1075936Y-8792300D01*
X-1416064Y-8792300D01*
X-1416065Y-8792300D01*
X-1476375Y-8804296D01*
X-1515625Y-8804296D01*
X-1575935Y-8792300D01*
X-1575936Y-8792300D01*
X-1916064Y-8792300D01*
X-1916065Y-8792300D01*
X-1976375Y-8804296D01*
X-2015625Y-8804296D01*
X-2075935Y-8792300D01*
X-2075936Y-8792300D01*
X-2416064Y-8792300D01*
X-2416065Y-8792300D01*
X-2476375Y-8804296D01*
X-2515625Y-8804296D01*
X-2575935Y-8792300D01*
X-2575936Y-8792300D01*
X-2916064Y-8792300D01*
X-2916065Y-8792300D01*
X-2976375Y-8804296D01*
X-3015625Y-8804296D01*
X-3075935Y-8792300D01*
X-3075936Y-8792300D01*
X-3394455Y-8792300D01*
X-3453586Y-8773087D01*
X-3479668Y-8739995D01*
X-3481879Y-8741272D01*
X-3522022Y-8671740D01*
X-4035740Y-8158022D01*
X-4099561Y-8121176D01*
X-4099561Y-8121175D01*
X-4099563Y-8121175D01*
X-4170750Y-8102100D01*
X-5551150Y-8102100D01*
X-5624850Y-8102100D01*
X-5696037Y-8121175D01*
X-5759862Y-8158024D01*
X-5926128Y-8324290D01*
X-5985137Y-8383299D01*
X-6040535Y-8411525D01*
X-6101944Y-8401799D01*
X-6145907Y-8357835D01*
X-6156138Y-8324290D01*
X-6169728Y-8212362D01*
X-6169729Y-8212360D01*
X-6230329Y-8052572D01*
X-6230329Y-8052571D01*
X-6327404Y-7911934D01*
X-6327408Y-7911930D01*
X-6455314Y-7798614D01*
X-6455315Y-7798613D01*
X-6606629Y-7719198D01*
X-6606627Y-7719198D01*
X-6772554Y-7678300D01*
X-6772555Y-7678300D01*
X-6943445Y-7678300D01*
X-7109368Y-7719197D01*
X-7109371Y-7719198D01*
X-7226148Y-7780487D01*
X-7287435Y-7790954D01*
X-7343170Y-7763399D01*
X-7372063Y-7708346D01*
X-7373499Y-7691410D01*
X-7373499Y-7112000D01*
X-6550868Y-7112000D01*
X-6530270Y-7281643D01*
X-6469671Y-7441427D01*
X-6372595Y-7582066D01*
X-6244683Y-7695387D01*
X-6093368Y-7774803D01*
X-5927445Y-7815700D01*
X-5927441Y-7815700D01*
X-5756559Y-7815700D01*
X-5756555Y-7815700D01*
X-5590632Y-7774803D01*
X-5439317Y-7695387D01*
X-5439315Y-7695386D01*
X-5439314Y-7695385D01*
X-5311408Y-7582069D01*
X-5311404Y-7582065D01*
X-5214329Y-7441428D01*
X-5214329Y-7441427D01*
X-5153730Y-7281642D01*
X-5133132Y-7112000D01*
X5133132Y-7112000D01*
X5153730Y-7281642D01*
X5214329Y-7441427D01*
X5214329Y-7441428D01*
X5311404Y-7582065D01*
X5311408Y-7582069D01*
X5439314Y-7695385D01*
X5439315Y-7695386D01*
X5439317Y-7695387D01*
X5590628Y-7774801D01*
X5590629Y-7774801D01*
X5590632Y-7774803D01*
X5756555Y-7815700D01*
X5756559Y-7815700D01*
X5927441Y-7815700D01*
X5927445Y-7815700D01*
X6093368Y-7774803D01*
X6244683Y-7695387D01*
X6372595Y-7582066D01*
X6469671Y-7441427D01*
X6530270Y-7281643D01*
X6550868Y-7112000D01*
X6530270Y-6942357D01*
X6469671Y-6782573D01*
X6372595Y-6641934D01*
X6372591Y-6641930D01*
X6244685Y-6528614D01*
X6244684Y-6528613D01*
X6093370Y-6449198D01*
X6093372Y-6449198D01*
X5927445Y-6408300D01*
X5756555Y-6408300D01*
X5756554Y-6408300D01*
X5590628Y-6449198D01*
X5439315Y-6528613D01*
X5439314Y-6528614D01*
X5311408Y-6641930D01*
X5311404Y-6641934D01*
X5214329Y-6782571D01*
X5214329Y-6782572D01*
X5153730Y-6942357D01*
X5133132Y-7112000D01*
X-5133132Y-7112000D01*
X-5153730Y-6942357D01*
X-5214329Y-6782572D01*
X-5214329Y-6782571D01*
X-5311404Y-6641934D01*
X-5311408Y-6641930D01*
X-5439314Y-6528614D01*
X-5439315Y-6528613D01*
X-5590629Y-6449198D01*
X-5590627Y-6449198D01*
X-5756554Y-6408300D01*
X-5756555Y-6408300D01*
X-5927445Y-6408300D01*
X-6093368Y-6449197D01*
X-6093371Y-6449198D01*
X-6244684Y-6528613D01*
X-6244685Y-6528614D01*
X-6372591Y-6641930D01*
X-6372595Y-6641934D01*
X-6469671Y-6782573D01*
X-6530270Y-6942357D01*
X-6550868Y-7112000D01*
X-7373499Y-7112000D01*
X-7373499Y-4999922D01*
X-6471500Y-4999922D01*
X-6471500Y-5192078D01*
X-6434012Y-5380543D01*
X-6360477Y-5558073D01*
X-6253720Y-5717845D01*
X-6117845Y-5853720D01*
X-5958073Y-5960477D01*
X-5780543Y-6034012D01*
X-5592078Y-6071500D01*
X-5592077Y-6071500D01*
X-5399923Y-6071500D01*
X-5399922Y-6071500D01*
X-5211457Y-6034012D01*
X-5211455Y-6034011D01*
X-5211454Y-6034011D01*
X-5122692Y-5997244D01*
X-5033927Y-5960477D01*
X-4874155Y-5853720D01*
X-4738280Y-5717845D01*
X-4738278Y-5717843D01*
X-4685263Y-5638500D01*
X-4631523Y-5558073D01*
X-4631521Y-5558069D01*
X-4557988Y-5380545D01*
X-4532996Y-5254899D01*
X-4520500Y-5192078D01*
X-4520500Y-4999922D01*
X-4557988Y-4811454D01*
X-4631521Y-4633930D01*
X-4725687Y-4493000D01*
X-4201368Y-4493000D01*
X-4180770Y-4662643D01*
X-4120171Y-4822427D01*
X-4023095Y-4963066D01*
X-3895183Y-5076387D01*
X-3743868Y-5155803D01*
X-3577945Y-5196700D01*
X-3577941Y-5196700D01*
X-3407059Y-5196700D01*
X-3407055Y-5196700D01*
X-3241132Y-5155803D01*
X-3089817Y-5076387D01*
X-3089815Y-5076386D01*
X-3089814Y-5076385D01*
X-2961908Y-4963069D01*
X-2961904Y-4963065D01*
X-2864829Y-4822428D01*
X-2864829Y-4822427D01*
X-2804230Y-4662642D01*
X-2783632Y-4493000D01*
X-2804230Y-4323357D01*
X-2864829Y-4163572D01*
X-2864830Y-4163571D01*
X-2868496Y-4158260D01*
X-2886275Y-4098682D01*
X-2865638Y-4040032D01*
X-2814470Y-4004713D01*
X-2761630Y-4003436D01*
X-2752445Y-4005700D01*
X-2752441Y-4005700D01*
X-2581559Y-4005700D01*
X-2581555Y-4005700D01*
X-2572370Y-4003436D01*
X-2510359Y-4007940D01*
X-2462838Y-4048033D01*
X-2447959Y-4108401D01*
X-2465504Y-4158260D01*
X-2469171Y-4163573D01*
X-2529770Y-4323357D01*
X-2550368Y-4493000D01*
X-2529770Y-4662643D01*
X-2469171Y-4822427D01*
X-2372095Y-4963066D01*
X-2244183Y-5076387D01*
X-2092868Y-5155803D01*
X-1926945Y-5196700D01*
X-1926941Y-5196700D01*
X-1756059Y-5196700D01*
X-1756055Y-5196700D01*
X-1590132Y-5155803D01*
X-1438817Y-5076387D01*
X-1438815Y-5076386D01*
X-1438814Y-5076385D01*
X-1310908Y-4963069D01*
X-1310904Y-4963065D01*
X-1213829Y-4822428D01*
X-1213829Y-4822427D01*
X-1153230Y-4662642D01*
X-1132632Y-4493000D01*
X-1153230Y-4323357D01*
X-1213829Y-4163572D01*
X-1213830Y-4163571D01*
X-1217496Y-4158260D01*
X-1235275Y-4098682D01*
X-1214638Y-4040032D01*
X-1163470Y-4004713D01*
X-1110630Y-4003436D01*
X-1101445Y-4005700D01*
X-1101441Y-4005700D01*
X-930559Y-4005700D01*
X-930555Y-4005700D01*
X-921370Y-4003436D01*
X-859359Y-4007940D01*
X-811838Y-4048033D01*
X-796959Y-4108401D01*
X-814504Y-4158260D01*
X-818171Y-4163573D01*
X-878770Y-4323357D01*
X-899368Y-4493000D01*
X-878770Y-4662643D01*
X-818171Y-4822427D01*
X-721095Y-4963066D01*
X-593183Y-5076387D01*
X-441868Y-5155803D01*
X-275945Y-5196700D01*
X-275941Y-5196700D01*
X-105059Y-5196700D01*
X-105055Y-5196700D01*
X60868Y-5155803D01*
X212183Y-5076387D01*
X340095Y-4963066D01*
X437171Y-4822427D01*
X497770Y-4662643D01*
X518368Y-4493000D01*
X497770Y-4323357D01*
X437171Y-4163573D01*
X433505Y-4158262D01*
X415724Y-4098688D01*
X436357Y-4040037D01*
X487523Y-4004715D01*
X540370Y-4003436D01*
X549555Y-4005700D01*
X549559Y-4005700D01*
X720441Y-4005700D01*
X720445Y-4005700D01*
X729629Y-4003436D01*
X791639Y-4007939D01*
X839160Y-4048032D01*
X854040Y-4108399D01*
X836496Y-4158260D01*
X832830Y-4163571D01*
X832829Y-4163572D01*
X772230Y-4323357D01*
X751632Y-4493000D01*
X772230Y-4662642D01*
X832829Y-4822427D01*
X832829Y-4822428D01*
X929904Y-4963065D01*
X929908Y-4963069D01*
X1057814Y-5076385D01*
X1057815Y-5076386D01*
X1057817Y-5076387D01*
X1209128Y-5155801D01*
X1209129Y-5155801D01*
X1209132Y-5155803D01*
X1375055Y-5196700D01*
X1375059Y-5196700D01*
X1545941Y-5196700D01*
X1545945Y-5196700D01*
X1711868Y-5155803D01*
X1863183Y-5076387D01*
X1991095Y-4963066D01*
X2088171Y-4822427D01*
X2148770Y-4662643D01*
X2169368Y-4493000D01*
X2148770Y-4323357D01*
X2088171Y-4163573D01*
X2084505Y-4158262D01*
X2066724Y-4098688D01*
X2087357Y-4040037D01*
X2138523Y-4004715D01*
X2191370Y-4003436D01*
X2200555Y-4005700D01*
X2200559Y-4005700D01*
X2371441Y-4005700D01*
X2371445Y-4005700D01*
X2380629Y-4003436D01*
X2442639Y-4007939D01*
X2490160Y-4048032D01*
X2505040Y-4108399D01*
X2487496Y-4158260D01*
X2483830Y-4163571D01*
X2483829Y-4163572D01*
X2423230Y-4323357D01*
X2402632Y-4493000D01*
X2423230Y-4662642D01*
X2483829Y-4822427D01*
X2483829Y-4822428D01*
X2580904Y-4963065D01*
X2580908Y-4963069D01*
X2708814Y-5076385D01*
X2708815Y-5076386D01*
X2708817Y-5076387D01*
X2860128Y-5155801D01*
X2860129Y-5155801D01*
X2860132Y-5155803D01*
X3026055Y-5196700D01*
X3026059Y-5196700D01*
X3196941Y-5196700D01*
X3196945Y-5196700D01*
X3362868Y-5155803D01*
X3514183Y-5076387D01*
X3600493Y-4999922D01*
X4528500Y-4999922D01*
X4528500Y-5192078D01*
X4540996Y-5254899D01*
X4565988Y-5380545D01*
X4639521Y-5558069D01*
X4639523Y-5558073D01*
X4693263Y-5638500D01*
X4746278Y-5717843D01*
X4746280Y-5717845D01*
X4882155Y-5853720D01*
X5041927Y-5960477D01*
X5130692Y-5997244D01*
X5219454Y-6034011D01*
X5219455Y-6034011D01*
X5219457Y-6034012D01*
X5407922Y-6071500D01*
X5407923Y-6071500D01*
X5600077Y-6071500D01*
X5600078Y-6071500D01*
X5788543Y-6034012D01*
X5966073Y-5960477D01*
X6125845Y-5853720D01*
X6261720Y-5717845D01*
X6368477Y-5558073D01*
X6442012Y-5380543D01*
X6479500Y-5192078D01*
X6479500Y-4999922D01*
X6442012Y-4811457D01*
X6368477Y-4633927D01*
X6261720Y-4474155D01*
X6125845Y-4338280D01*
X6125843Y-4338278D01*
X6046500Y-4285263D01*
X5966073Y-4231523D01*
X5966070Y-4231521D01*
X5966069Y-4231521D01*
X5788545Y-4157988D01*
X5662899Y-4132996D01*
X5600078Y-4120500D01*
X5407922Y-4120500D01*
X5360805Y-4129872D01*
X5219454Y-4157988D01*
X5041930Y-4231521D01*
X4882156Y-4338278D01*
X4882155Y-4338280D01*
X4746280Y-4474155D01*
X4746278Y-4474156D01*
X4639521Y-4633930D01*
X4565988Y-4811454D01*
X4528500Y-4999922D01*
X3600493Y-4999922D01*
X3642095Y-4963066D01*
X3739171Y-4822427D01*
X3799770Y-4662643D01*
X3820368Y-4493000D01*
X3799770Y-4323357D01*
X3739171Y-4163573D01*
X3735505Y-4158262D01*
X3717724Y-4098688D01*
X3738357Y-4040037D01*
X3789523Y-4004715D01*
X3842370Y-4003436D01*
X3851555Y-4005700D01*
X3851559Y-4005700D01*
X4022441Y-4005700D01*
X4022445Y-4005700D01*
X4188368Y-3964803D01*
X4339683Y-3885387D01*
X4467595Y-3772066D01*
X4564671Y-3631427D01*
X4625270Y-3471643D01*
X4645868Y-3302000D01*
X4625270Y-3132357D01*
X4564671Y-2972573D01*
X4467595Y-2831934D01*
X4467591Y-2831930D01*
X4339685Y-2718614D01*
X4339684Y-2718613D01*
X4188370Y-2639198D01*
X4188372Y-2639198D01*
X4022445Y-2598300D01*
X3851555Y-2598300D01*
X3851554Y-2598300D01*
X3685628Y-2639198D01*
X3534315Y-2718613D01*
X3534314Y-2718614D01*
X3406408Y-2831930D01*
X3406404Y-2831934D01*
X3309329Y-2972571D01*
X3309329Y-2972572D01*
X3309329Y-2972573D01*
X3248730Y-3132357D01*
X3228132Y-3302000D01*
X3248730Y-3471643D01*
X3309329Y-3631427D01*
X3312994Y-3636737D01*
X3330775Y-3696313D01*
X3310141Y-3754963D01*
X3258974Y-3790284D01*
X3206134Y-3791564D01*
X3196951Y-3789301D01*
X3196947Y-3789300D01*
X3196945Y-3789300D01*
X3026055Y-3789300D01*
X3026053Y-3789300D01*
X3026045Y-3789301D01*
X3016864Y-3791564D01*
X2954853Y-3787057D01*
X2907335Y-3746961D01*
X2892460Y-3686592D01*
X2910007Y-3636734D01*
X2913671Y-3631427D01*
X2974270Y-3471643D01*
X2994868Y-3302000D01*
X2974270Y-3132357D01*
X2913671Y-2972573D01*
X2816595Y-2831934D01*
X2816591Y-2831930D01*
X2688685Y-2718614D01*
X2688684Y-2718613D01*
X2537370Y-2639198D01*
X2537372Y-2639198D01*
X2371445Y-2598300D01*
X2200555Y-2598300D01*
X2200554Y-2598300D01*
X2034628Y-2639198D01*
X1883315Y-2718613D01*
X1883314Y-2718614D01*
X1755408Y-2831930D01*
X1755404Y-2831934D01*
X1658329Y-2972571D01*
X1658329Y-2972572D01*
X1658329Y-2972573D01*
X1597730Y-3132357D01*
X1577132Y-3302000D01*
X1597730Y-3471643D01*
X1658329Y-3631427D01*
X1661994Y-3636737D01*
X1679775Y-3696313D01*
X1659141Y-3754963D01*
X1607974Y-3790284D01*
X1555134Y-3791564D01*
X1545951Y-3789301D01*
X1545947Y-3789300D01*
X1545945Y-3789300D01*
X1375055Y-3789300D01*
X1375053Y-3789300D01*
X1375045Y-3789301D01*
X1365864Y-3791564D01*
X1303853Y-3787057D01*
X1256335Y-3746961D01*
X1241460Y-3686592D01*
X1259007Y-3636734D01*
X1262671Y-3631427D01*
X1323270Y-3471643D01*
X1343868Y-3302000D01*
X1323270Y-3132357D01*
X1262671Y-2972573D01*
X1165595Y-2831934D01*
X1165591Y-2831930D01*
X1037685Y-2718614D01*
X1037684Y-2718613D01*
X886370Y-2639198D01*
X886372Y-2639198D01*
X720445Y-2598300D01*
X549555Y-2598300D01*
X549554Y-2598300D01*
X383628Y-2639198D01*
X232315Y-2718613D01*
X232314Y-2718614D01*
X104408Y-2831930D01*
X104404Y-2831934D01*
X7329Y-2972571D01*
X7329Y-2972572D01*
X7329Y-2972573D01*
X-53270Y-3132357D01*
X-73868Y-3302000D01*
X-53270Y-3471643D01*
X7329Y-3631427D01*
X10992Y-3636734D01*
X28776Y-3696306D01*
X8146Y-3754958D01*
X-43019Y-3790282D01*
X-95864Y-3791564D01*
X-105045Y-3789301D01*
X-105053Y-3789300D01*
X-105055Y-3789300D01*
X-275945Y-3789300D01*
X-275947Y-3789300D01*
X-275951Y-3789301D01*
X-285134Y-3791564D01*
X-347145Y-3787057D01*
X-394663Y-3746962D01*
X-409539Y-3686594D01*
X-391995Y-3636738D01*
X-388329Y-3631427D01*
X-327730Y-3471643D01*
X-307132Y-3302000D01*
X-327730Y-3132357D01*
X-388329Y-2972573D01*
X-388329Y-2972572D01*
X-388329Y-2972571D01*
X-485404Y-2831934D01*
X-485408Y-2831930D01*
X-613314Y-2718614D01*
X-613315Y-2718613D01*
X-764629Y-2639198D01*
X-764627Y-2639198D01*
X-930554Y-2598300D01*
X-930555Y-2598300D01*
X-1101445Y-2598300D01*
X-1267368Y-2639197D01*
X-1267371Y-2639198D01*
X-1418684Y-2718613D01*
X-1418685Y-2718614D01*
X-1546591Y-2831930D01*
X-1546595Y-2831934D01*
X-1643671Y-2972573D01*
X-1704270Y-3132357D01*
X-1724868Y-3302000D01*
X-1704270Y-3471643D01*
X-1643671Y-3631427D01*
X-1640007Y-3636734D01*
X-1622224Y-3696306D01*
X-1642854Y-3754958D01*
X-1694019Y-3790282D01*
X-1746864Y-3791564D01*
X-1756045Y-3789301D01*
X-1756053Y-3789300D01*
X-1756055Y-3789300D01*
X-1926945Y-3789300D01*
X-1926947Y-3789300D01*
X-1926951Y-3789301D01*
X-1936134Y-3791564D01*
X-1998145Y-3787057D01*
X-2045663Y-3746962D01*
X-2060539Y-3686594D01*
X-2042995Y-3636738D01*
X-2039329Y-3631427D01*
X-1978730Y-3471643D01*
X-1958132Y-3302000D01*
X-1978730Y-3132357D01*
X-2039329Y-2972573D01*
X-2039329Y-2972572D01*
X-2039329Y-2972571D01*
X-2136404Y-2831934D01*
X-2136408Y-2831930D01*
X-2264314Y-2718614D01*
X-2264315Y-2718613D01*
X-2415629Y-2639198D01*
X-2415627Y-2639198D01*
X-2581554Y-2598300D01*
X-2581555Y-2598300D01*
X-2752445Y-2598300D01*
X-2918368Y-2639197D01*
X-2918371Y-2639198D01*
X-3069684Y-2718613D01*
X-3069685Y-2718614D01*
X-3197591Y-2831930D01*
X-3197595Y-2831934D01*
X-3294671Y-2972573D01*
X-3355270Y-3132357D01*
X-3375868Y-3302000D01*
X-3355270Y-3471643D01*
X-3294671Y-3631427D01*
X-3291007Y-3636734D01*
X-3273224Y-3696306D01*
X-3293854Y-3754958D01*
X-3345019Y-3790282D01*
X-3397864Y-3791564D01*
X-3407045Y-3789301D01*
X-3407053Y-3789300D01*
X-3407055Y-3789300D01*
X-3577945Y-3789300D01*
X-3743868Y-3830197D01*
X-3743871Y-3830198D01*
X-3895184Y-3909613D01*
X-3895185Y-3909614D01*
X-4023091Y-4022930D01*
X-4023095Y-4022934D01*
X-4116507Y-4158265D01*
X-4120171Y-4163573D01*
X-4180770Y-4323357D01*
X-4201368Y-4493000D01*
X-4725687Y-4493000D01*
X-4738278Y-4474156D01*
X-4738280Y-4474155D01*
X-4874155Y-4338280D01*
X-4874156Y-4338278D01*
X-5033930Y-4231521D01*
X-5211454Y-4157988D01*
X-5352805Y-4129872D01*
X-5399922Y-4120500D01*
X-5592078Y-4120500D01*
X-5654899Y-4132996D01*
X-5780545Y-4157988D01*
X-5958069Y-4231521D01*
X-5958070Y-4231521D01*
X-5958073Y-4231523D01*
X-6038500Y-4285263D01*
X-6117843Y-4338278D01*
X-6117845Y-4338280D01*
X-6253720Y-4474155D01*
X-6360477Y-4633927D01*
X-6434012Y-4811457D01*
X-6471500Y-4999922D01*
X-7373499Y-4999922D01*
X-7373499Y-2039913D01*
X-7372260Y-2024174D01*
X-7363192Y-1966927D01*
X-7353468Y-1936998D01*
X-7330789Y-1892488D01*
X-7312291Y-1867028D01*
X-7276970Y-1831707D01*
X-7251512Y-1813210D01*
X-7206996Y-1790528D01*
X-7177070Y-1780806D01*
X-7133357Y-1773882D01*
X-7119821Y-1771739D01*
X-7104084Y-1770500D01*
X-7046107Y-1770500D01*
X7046108Y-1770500D01*
X7104085Y-1770500D01*
X7119822Y-1771739D01*
G37*
G04 #@! TD.AperFunction*
M02*
