G04 #@! TF.GenerationSoftware,KiCad,Pcbnew,8.0.4*
G04 #@! TF.CreationDate,2024-12-13T15:25:53-05:00*
G04 #@! TF.ProjectId,LoomRide-v2,4c6f6f6d-5269-4646-952d-76322e6b6963,rev?*
G04 #@! TF.SameCoordinates,Original*
G04 #@! TF.FileFunction,Copper,L2,Bot*
G04 #@! TF.FilePolarity,Positive*
%FSLAX46Y46*%
G04 Gerber Fmt 4.6, Leading zero omitted, Abs format (unit mm)*
G04 Created by KiCad (PCBNEW 8.0.4) date 2024-12-13 15:25:53*
%MOMM*%
%LPD*%
G01*
G04 APERTURE LIST*
G04 #@! TA.AperFunction,ComponentPad*
%ADD10C,2.000000*%
G04 #@! TD*
G04 #@! TA.AperFunction,ComponentPad*
%ADD11C,1.000000*%
G04 #@! TD*
G04 #@! TA.AperFunction,ViaPad*
%ADD12C,0.500000*%
G04 #@! TD*
G04 #@! TA.AperFunction,Conductor*
%ADD13C,0.152400*%
G04 #@! TD*
G04 APERTURE END LIST*
D10*
X5954000Y-2646000D03*
X-5946000Y-2646000D03*
D11*
X2286000Y-3302000D03*
X3111500Y-4493000D03*
X-1841500Y-4493000D03*
X-6858000Y-8382000D03*
X-1016000Y-3302000D03*
X635000Y-3302000D03*
X5842000Y-7112000D03*
X3937000Y-3302000D03*
X4572000Y-11684000D03*
X-190500Y-4493000D03*
X-5842000Y-7112000D03*
X-6604000Y-9906000D03*
X6096000Y-11430000D03*
X6604000Y-9906000D03*
X-2667000Y-3302000D03*
X1460500Y-4493000D03*
X-4572000Y-11684000D03*
X-6096000Y-11430000D03*
X-3492500Y-4493000D03*
X6858000Y-8382000D03*
D12*
X-3333248Y-11461248D03*
X-2794000Y-11938000D03*
X-2256600Y-11430000D03*
X-1778000Y-11938000D03*
X-1270000Y-11430000D03*
X-762000Y-11938000D03*
X-231565Y-11430000D03*
X254000Y-11938000D03*
X762021Y-11430021D03*
X1296915Y-11938000D03*
X1777990Y-11430000D03*
X2286000Y-11938000D03*
X2794000Y-11430000D03*
X3302000Y-11938000D03*
D13*
X-3333248Y-8636000D02*
X-3587248Y-8382000D01*
X-3333248Y-11461248D02*
X-3333248Y-8636000D01*
X-3587248Y-8382000D02*
X-6858000Y-8382000D01*
X-2794000Y-11938000D02*
X-2794000Y-8204948D01*
X-2794000Y-8204948D02*
X-3886948Y-7112000D01*
X-3886948Y-7112000D02*
X-5842000Y-7112000D01*
X-2256600Y-8311296D02*
X-3492500Y-7075396D01*
X-2256600Y-11430000D02*
X-2256600Y-8311296D01*
X-3492500Y-7075396D02*
X-3492500Y-4493000D01*
X-1778000Y-8358844D02*
X-2667000Y-7469844D01*
X-1778000Y-11938000D02*
X-1778000Y-8358844D01*
X-2667000Y-7469844D02*
X-2667000Y-3302000D01*
X-1841500Y-4493000D02*
X-1841500Y-7864292D01*
X-1270000Y-8435792D02*
X-1270000Y-11430000D01*
X-1841500Y-7864292D02*
X-1270000Y-8435792D01*
X-710165Y-11685035D02*
X-710165Y-11174965D01*
X-762000Y-11938000D02*
X-762000Y-11736870D01*
X-762000Y-11736870D02*
X-710165Y-11685035D01*
X-710165Y-11174965D02*
X-710165Y-8433835D01*
X-710165Y-8433835D02*
X-1016000Y-8128000D01*
X-1016000Y-8128000D02*
X-1016000Y-3302000D01*
X-231565Y-11430000D02*
X-242383Y-11419182D01*
X-242383Y-11419182D02*
X-190500Y-11367299D01*
X-190500Y-11367299D02*
X-190500Y-4493000D01*
X254000Y-8382000D02*
X635000Y-8001000D01*
X254000Y-11938000D02*
X254000Y-8382000D01*
X635000Y-8001000D02*
X635000Y-3302000D01*
X1460500Y-4493000D02*
X1460500Y-7683500D01*
X762000Y-8382000D02*
X762000Y-11430000D01*
X1460500Y-7683500D02*
X762000Y-8382000D01*
X762000Y-11430000D02*
X762021Y-11430021D01*
X1296915Y-11938000D02*
X1296915Y-8393559D01*
X1296915Y-8393559D02*
X2286000Y-7404474D01*
X2286000Y-7404474D02*
X2286000Y-3302000D01*
X3111500Y-7010026D02*
X3111500Y-4493000D01*
X1777990Y-11430000D02*
X1777990Y-8343536D01*
X1777990Y-8343536D02*
X3111500Y-7010026D01*
X2286000Y-11938000D02*
X2286000Y-8266578D01*
X3937000Y-6615578D02*
X3937000Y-3302000D01*
X2286000Y-8266578D02*
X3937000Y-6615578D01*
X3871630Y-7112000D02*
X5842000Y-7112000D01*
X2844800Y-8138830D02*
X3871630Y-7112000D01*
X2794000Y-11430000D02*
X2844800Y-11379200D01*
X2844800Y-11379200D02*
X2844800Y-8138830D01*
X3302000Y-8636000D02*
X3556000Y-8382000D01*
X3556000Y-8382000D02*
X6858000Y-8382000D01*
X3302000Y-11938000D02*
X3302000Y-8636000D01*
G04 #@! TA.AperFunction,Conductor*
G36*
X7119822Y-1771739D02*
G01*
X7133358Y-1773882D01*
X7177071Y-1780806D01*
X7206997Y-1790528D01*
X7251513Y-1813210D01*
X7276971Y-1831707D01*
X7312292Y-1867028D01*
X7330790Y-1892488D01*
X7353469Y-1936998D01*
X7363193Y-1966927D01*
X7372261Y-2024174D01*
X7373500Y-2039913D01*
X7373500Y-7691411D01*
X7354287Y-7750542D01*
X7303987Y-7787087D01*
X7241813Y-7787087D01*
X7226149Y-7780488D01*
X7109370Y-7719198D01*
X7109372Y-7719198D01*
X7012764Y-7695386D01*
X6943445Y-7678300D01*
X6772555Y-7678300D01*
X6772554Y-7678300D01*
X6606628Y-7719198D01*
X6455315Y-7798613D01*
X6455314Y-7798614D01*
X6327408Y-7911930D01*
X6327404Y-7911934D01*
X6226872Y-8057581D01*
X6224632Y-8056035D01*
X6188071Y-8091698D01*
X6143520Y-8102100D01*
X3520238Y-8102100D01*
X3461107Y-8082887D01*
X3424562Y-8032587D01*
X3424562Y-7970413D01*
X3449103Y-7930365D01*
X3958103Y-7421365D01*
X4013501Y-7393139D01*
X4029238Y-7391900D01*
X5127520Y-7391900D01*
X5186651Y-7411113D01*
X5209410Y-7437427D01*
X5210872Y-7436419D01*
X5311404Y-7582065D01*
X5311408Y-7582069D01*
X5439314Y-7695385D01*
X5439315Y-7695386D01*
X5439317Y-7695387D01*
X5590628Y-7774801D01*
X5590629Y-7774801D01*
X5590632Y-7774803D01*
X5756555Y-7815700D01*
X5756559Y-7815700D01*
X5927441Y-7815700D01*
X5927445Y-7815700D01*
X6093368Y-7774803D01*
X6244683Y-7695387D01*
X6372595Y-7582066D01*
X6469671Y-7441427D01*
X6530270Y-7281643D01*
X6550868Y-7112000D01*
X6530270Y-6942357D01*
X6469671Y-6782573D01*
X6416444Y-6705461D01*
X6372595Y-6641934D01*
X6372591Y-6641930D01*
X6244685Y-6528614D01*
X6244684Y-6528613D01*
X6093370Y-6449198D01*
X6093372Y-6449198D01*
X5927445Y-6408300D01*
X5756555Y-6408300D01*
X5756554Y-6408300D01*
X5590628Y-6449198D01*
X5439315Y-6528613D01*
X5439314Y-6528614D01*
X5311408Y-6641930D01*
X5311404Y-6641934D01*
X5210872Y-6787581D01*
X5208632Y-6786035D01*
X5172071Y-6821698D01*
X5127520Y-6832100D01*
X4299861Y-6832100D01*
X4240730Y-6812887D01*
X4204185Y-6762587D01*
X4202689Y-6705461D01*
X4216900Y-6652428D01*
X4216900Y-6578728D01*
X4216900Y-4999922D01*
X4528500Y-4999922D01*
X4528500Y-5192077D01*
X4565988Y-5380545D01*
X4639521Y-5558069D01*
X4639523Y-5558073D01*
X4693263Y-5638500D01*
X4746278Y-5717843D01*
X4746280Y-5717845D01*
X4882155Y-5853720D01*
X5041927Y-5960477D01*
X5130692Y-5997244D01*
X5219454Y-6034011D01*
X5219455Y-6034011D01*
X5219457Y-6034012D01*
X5407922Y-6071500D01*
X5407923Y-6071500D01*
X5600077Y-6071500D01*
X5600078Y-6071500D01*
X5788543Y-6034012D01*
X5966073Y-5960477D01*
X6125845Y-5853720D01*
X6261720Y-5717845D01*
X6368477Y-5558073D01*
X6442012Y-5380543D01*
X6479500Y-5192078D01*
X6479500Y-4999922D01*
X6442012Y-4811457D01*
X6368477Y-4633927D01*
X6261720Y-4474155D01*
X6125845Y-4338280D01*
X6125843Y-4338278D01*
X6046500Y-4285263D01*
X5966073Y-4231523D01*
X5966070Y-4231521D01*
X5966069Y-4231521D01*
X5788545Y-4157988D01*
X5662899Y-4132996D01*
X5600078Y-4120500D01*
X5407922Y-4120500D01*
X5360805Y-4129872D01*
X5219454Y-4157988D01*
X5041930Y-4231521D01*
X4882156Y-4338278D01*
X4882155Y-4338280D01*
X4746280Y-4474155D01*
X4746278Y-4474156D01*
X4639521Y-4633930D01*
X4565988Y-4811454D01*
X4528500Y-4999922D01*
X4216900Y-4999922D01*
X4216900Y-4010643D01*
X4236113Y-3951512D01*
X4270749Y-3921566D01*
X4293522Y-3909614D01*
X4339683Y-3885387D01*
X4467595Y-3772066D01*
X4564671Y-3631427D01*
X4625270Y-3471643D01*
X4645868Y-3302000D01*
X4625270Y-3132357D01*
X4564671Y-2972573D01*
X4467595Y-2831934D01*
X4467591Y-2831930D01*
X4339685Y-2718614D01*
X4339684Y-2718613D01*
X4188370Y-2639198D01*
X4188372Y-2639198D01*
X4022445Y-2598300D01*
X3851555Y-2598300D01*
X3851554Y-2598300D01*
X3685628Y-2639198D01*
X3534315Y-2718613D01*
X3534314Y-2718614D01*
X3406408Y-2831930D01*
X3406404Y-2831934D01*
X3309329Y-2972571D01*
X3309329Y-2972572D01*
X3309329Y-2972573D01*
X3248730Y-3132357D01*
X3228132Y-3302000D01*
X3248730Y-3471643D01*
X3309329Y-3631427D01*
X3312994Y-3636737D01*
X3330775Y-3696313D01*
X3310141Y-3754963D01*
X3258974Y-3790284D01*
X3206134Y-3791564D01*
X3196951Y-3789301D01*
X3196947Y-3789300D01*
X3196945Y-3789300D01*
X3026055Y-3789300D01*
X3026053Y-3789300D01*
X3026045Y-3789301D01*
X3016864Y-3791564D01*
X2954853Y-3787057D01*
X2907335Y-3746961D01*
X2892460Y-3686592D01*
X2910007Y-3636734D01*
X2913671Y-3631427D01*
X2974270Y-3471643D01*
X2994868Y-3302000D01*
X2974270Y-3132357D01*
X2913671Y-2972573D01*
X2816595Y-2831934D01*
X2816591Y-2831930D01*
X2688685Y-2718614D01*
X2688684Y-2718613D01*
X2537370Y-2639198D01*
X2537372Y-2639198D01*
X2371445Y-2598300D01*
X2200555Y-2598300D01*
X2200554Y-2598300D01*
X2034628Y-2639198D01*
X1883315Y-2718613D01*
X1883314Y-2718614D01*
X1755408Y-2831930D01*
X1755404Y-2831934D01*
X1658329Y-2972571D01*
X1658329Y-2972572D01*
X1658329Y-2972573D01*
X1597730Y-3132357D01*
X1577132Y-3302000D01*
X1597730Y-3471643D01*
X1658329Y-3631427D01*
X1661994Y-3636737D01*
X1679775Y-3696313D01*
X1659141Y-3754963D01*
X1607974Y-3790284D01*
X1555134Y-3791564D01*
X1545951Y-3789301D01*
X1545947Y-3789300D01*
X1545945Y-3789300D01*
X1375055Y-3789300D01*
X1375053Y-3789300D01*
X1375045Y-3789301D01*
X1365864Y-3791564D01*
X1303853Y-3787057D01*
X1256335Y-3746961D01*
X1241460Y-3686592D01*
X1259007Y-3636734D01*
X1262671Y-3631427D01*
X1323270Y-3471643D01*
X1343868Y-3302000D01*
X1323270Y-3132357D01*
X1262671Y-2972573D01*
X1165595Y-2831934D01*
X1165591Y-2831930D01*
X1037685Y-2718614D01*
X1037684Y-2718613D01*
X886370Y-2639198D01*
X886372Y-2639198D01*
X720445Y-2598300D01*
X549555Y-2598300D01*
X549554Y-2598300D01*
X383628Y-2639198D01*
X232315Y-2718613D01*
X232314Y-2718614D01*
X104408Y-2831930D01*
X104404Y-2831934D01*
X7329Y-2972571D01*
X7329Y-2972572D01*
X7329Y-2972573D01*
X-53270Y-3132357D01*
X-73868Y-3302000D01*
X-53270Y-3471643D01*
X7329Y-3631427D01*
X10992Y-3636734D01*
X28776Y-3696306D01*
X8146Y-3754958D01*
X-43019Y-3790282D01*
X-95864Y-3791564D01*
X-105045Y-3789301D01*
X-105053Y-3789300D01*
X-105055Y-3789300D01*
X-275945Y-3789300D01*
X-275947Y-3789300D01*
X-275951Y-3789301D01*
X-285134Y-3791564D01*
X-347145Y-3787057D01*
X-394663Y-3746962D01*
X-409539Y-3686594D01*
X-391995Y-3636738D01*
X-388329Y-3631427D01*
X-327730Y-3471643D01*
X-307132Y-3302000D01*
X-327730Y-3132357D01*
X-388329Y-2972573D01*
X-388329Y-2972572D01*
X-388329Y-2972571D01*
X-485404Y-2831934D01*
X-485408Y-2831930D01*
X-613314Y-2718614D01*
X-613315Y-2718613D01*
X-764629Y-2639198D01*
X-764627Y-2639198D01*
X-930554Y-2598300D01*
X-930555Y-2598300D01*
X-1101445Y-2598300D01*
X-1267368Y-2639197D01*
X-1267371Y-2639198D01*
X-1418684Y-2718613D01*
X-1418685Y-2718614D01*
X-1546591Y-2831930D01*
X-1546595Y-2831934D01*
X-1643671Y-2972573D01*
X-1704270Y-3132357D01*
X-1724868Y-3302000D01*
X-1704270Y-3471643D01*
X-1643671Y-3631427D01*
X-1640007Y-3636734D01*
X-1622224Y-3696306D01*
X-1642854Y-3754958D01*
X-1694019Y-3790282D01*
X-1746864Y-3791564D01*
X-1756045Y-3789301D01*
X-1756053Y-3789300D01*
X-1756055Y-3789300D01*
X-1926945Y-3789300D01*
X-1926947Y-3789300D01*
X-1926951Y-3789301D01*
X-1936134Y-3791564D01*
X-1998145Y-3787057D01*
X-2045663Y-3746962D01*
X-2060539Y-3686594D01*
X-2042995Y-3636738D01*
X-2039329Y-3631427D01*
X-1978730Y-3471643D01*
X-1958132Y-3302000D01*
X-1978730Y-3132357D01*
X-2039329Y-2972573D01*
X-2039329Y-2972572D01*
X-2039329Y-2972571D01*
X-2136404Y-2831934D01*
X-2136408Y-2831930D01*
X-2264314Y-2718614D01*
X-2264315Y-2718613D01*
X-2415629Y-2639198D01*
X-2415627Y-2639198D01*
X-2581554Y-2598300D01*
X-2581555Y-2598300D01*
X-2752445Y-2598300D01*
X-2918368Y-2639197D01*
X-2918371Y-2639198D01*
X-3069684Y-2718613D01*
X-3069685Y-2718614D01*
X-3197591Y-2831930D01*
X-3197595Y-2831934D01*
X-3294671Y-2972573D01*
X-3355270Y-3132357D01*
X-3375868Y-3302000D01*
X-3355270Y-3471643D01*
X-3294671Y-3631427D01*
X-3291007Y-3636734D01*
X-3273224Y-3696306D01*
X-3293854Y-3754958D01*
X-3345019Y-3790282D01*
X-3397864Y-3791564D01*
X-3407045Y-3789301D01*
X-3407053Y-3789300D01*
X-3407055Y-3789300D01*
X-3577945Y-3789300D01*
X-3743868Y-3830197D01*
X-3743871Y-3830198D01*
X-3895184Y-3909613D01*
X-3895185Y-3909614D01*
X-4023091Y-4022930D01*
X-4023095Y-4022934D01*
X-4120171Y-4163573D01*
X-4180770Y-4323357D01*
X-4201368Y-4493000D01*
X-4180770Y-4662643D01*
X-4120171Y-4822427D01*
X-4023095Y-4963066D01*
X-3895183Y-5076387D01*
X-3858194Y-5095800D01*
X-3826249Y-5112566D01*
X-3782820Y-5157058D01*
X-3772400Y-5201643D01*
X-3772400Y-6731500D01*
X-3791613Y-6790631D01*
X-3841913Y-6827176D01*
X-3873000Y-6832100D01*
X-5127520Y-6832100D01*
X-5186651Y-6812887D01*
X-5209410Y-6786572D01*
X-5210872Y-6787581D01*
X-5311404Y-6641934D01*
X-5311408Y-6641930D01*
X-5439314Y-6528614D01*
X-5439315Y-6528613D01*
X-5590629Y-6449198D01*
X-5590627Y-6449198D01*
X-5756554Y-6408300D01*
X-5756555Y-6408300D01*
X-5927445Y-6408300D01*
X-6093368Y-6449197D01*
X-6093371Y-6449198D01*
X-6244684Y-6528613D01*
X-6244685Y-6528614D01*
X-6372591Y-6641930D01*
X-6372595Y-6641934D01*
X-6416444Y-6705461D01*
X-6469671Y-6782573D01*
X-6530270Y-6942357D01*
X-6550868Y-7112000D01*
X-6530270Y-7281643D01*
X-6469671Y-7441427D01*
X-6372595Y-7582066D01*
X-6244683Y-7695387D01*
X-6093368Y-7774803D01*
X-5927445Y-7815700D01*
X-5927441Y-7815700D01*
X-5756559Y-7815700D01*
X-5756555Y-7815700D01*
X-5590632Y-7774803D01*
X-5583736Y-7771184D01*
X-5439315Y-7695386D01*
X-5439314Y-7695385D01*
X-5311408Y-7582069D01*
X-5311404Y-7582065D01*
X-5210872Y-7436419D01*
X-5208632Y-7437964D01*
X-5172071Y-7402302D01*
X-5127520Y-7391900D01*
X-4044556Y-7391900D01*
X-3985425Y-7411113D01*
X-3973421Y-7421365D01*
X-3463168Y-7931617D01*
X-3434944Y-7987013D01*
X-3444670Y-8048421D01*
X-3488633Y-8092385D01*
X-3543804Y-8101866D01*
X-3543804Y-8102100D01*
X-3545161Y-8102100D01*
X-3547430Y-8102490D01*
X-3550394Y-8102100D01*
X-3550398Y-8102100D01*
X-6143520Y-8102100D01*
X-6202651Y-8082887D01*
X-6225410Y-8056572D01*
X-6226872Y-8057581D01*
X-6327404Y-7911934D01*
X-6327408Y-7911930D01*
X-6455314Y-7798614D01*
X-6455315Y-7798613D01*
X-6606629Y-7719198D01*
X-6606627Y-7719198D01*
X-6772554Y-7678300D01*
X-6772555Y-7678300D01*
X-6943445Y-7678300D01*
X-7109368Y-7719197D01*
X-7109371Y-7719198D01*
X-7226148Y-7780487D01*
X-7287435Y-7790954D01*
X-7343170Y-7763399D01*
X-7372063Y-7708346D01*
X-7373499Y-7691410D01*
X-7373499Y-4999922D01*
X-6471500Y-4999922D01*
X-6471500Y-5192078D01*
X-6434012Y-5380543D01*
X-6360477Y-5558073D01*
X-6253720Y-5717845D01*
X-6117845Y-5853720D01*
X-5958073Y-5960477D01*
X-5780543Y-6034012D01*
X-5592078Y-6071500D01*
X-5592077Y-6071500D01*
X-5399923Y-6071500D01*
X-5399922Y-6071500D01*
X-5211457Y-6034012D01*
X-5211455Y-6034011D01*
X-5211454Y-6034011D01*
X-5122692Y-5997244D01*
X-5033927Y-5960477D01*
X-4874155Y-5853720D01*
X-4738280Y-5717845D01*
X-4738278Y-5717843D01*
X-4685263Y-5638500D01*
X-4631523Y-5558073D01*
X-4631521Y-5558069D01*
X-4557988Y-5380545D01*
X-4520500Y-5192077D01*
X-4520500Y-4999922D01*
X-4557988Y-4811454D01*
X-4631521Y-4633930D01*
X-4738278Y-4474156D01*
X-4738280Y-4474155D01*
X-4874155Y-4338280D01*
X-4874156Y-4338278D01*
X-5033930Y-4231521D01*
X-5211454Y-4157988D01*
X-5352805Y-4129872D01*
X-5399922Y-4120500D01*
X-5592078Y-4120500D01*
X-5654899Y-4132996D01*
X-5780545Y-4157988D01*
X-5958069Y-4231521D01*
X-5958070Y-4231521D01*
X-5958073Y-4231523D01*
X-6038500Y-4285263D01*
X-6117843Y-4338278D01*
X-6117845Y-4338280D01*
X-6253720Y-4474155D01*
X-6360477Y-4633927D01*
X-6434012Y-4811457D01*
X-6471500Y-4999922D01*
X-7373499Y-4999922D01*
X-7373499Y-2039913D01*
X-7372260Y-2024174D01*
X-7363192Y-1966927D01*
X-7353468Y-1936998D01*
X-7330789Y-1892488D01*
X-7312291Y-1867028D01*
X-7276970Y-1831707D01*
X-7251512Y-1813210D01*
X-7206996Y-1790528D01*
X-7177070Y-1780806D01*
X-7133357Y-1773882D01*
X-7119821Y-1771739D01*
X-7104084Y-1770500D01*
X-7046107Y-1770500D01*
X7046108Y-1770500D01*
X7104085Y-1770500D01*
X7119822Y-1771739D01*
G37*
G04 #@! TD.AperFunction*
M02*
