M48
; DRILL file {KiCad 8.0.4} date 2024-12-13T15:25:54-0500
; FORMAT={-:-/ absolute / inch / decimal}
; #@! TF.CreationDate,2024-12-13T15:25:54-05:00
; #@! TF.GenerationSoftware,Kicad,Pcbnew,8.0.4
; #@! TF.FileFunction,Plated,1,2,PTH
FMAT,2
INCH
; #@! TA.AperFunction,Plated,PTH,ViaDrill
T1C0.0118
; #@! TA.AperFunction,Plated,PTH,ComponentDrill
T2C0.0197
; #@! TA.AperFunction,Plated,PTH,ComponentDrill
T3C0.0453
%
G90
G05
T1
X-0.1312Y-0.4512
X-0.11Y-0.47
X-0.0888Y-0.45
X-0.07Y-0.47
X-0.05Y-0.45
X-0.03Y-0.47
X-0.0091Y-0.45
X0.01Y-0.47
X0.03Y-0.45
X0.0511Y-0.47
X0.07Y-0.45
X0.09Y-0.47
X0.11Y-0.45
X0.13Y-0.47
T2
X-0.27Y-0.33
X-0.26Y-0.39
X-0.24Y-0.45
X-0.23Y-0.28
X-0.18Y-0.46
X-0.1375Y-0.1769
X-0.105Y-0.13
X-0.0725Y-0.1769
X-0.04Y-0.13
X-0.0075Y-0.1769
X0.025Y-0.13
X0.0575Y-0.1769
X0.09Y-0.13
X0.1225Y-0.1769
X0.155Y-0.13
X0.18Y-0.46
X0.23Y-0.28
X0.24Y-0.45
X0.26Y-0.39
X0.27Y-0.33
T3
X-0.2341Y-0.1042
X0.2344Y-0.1042
M30
