G04 #@! TF.GenerationSoftware,KiCad,Pcbnew,7.0.10*
G04 #@! TF.CreationDate,2024-07-14T22:48:30-04:00*
G04 #@! TF.ProjectId,ARS_Igloo-v2,4152535f-4967-46c6-9f6f-2d76322e6b69,rev?*
G04 #@! TF.SameCoordinates,Original*
G04 #@! TF.FileFunction,Copper,L2,Bot*
G04 #@! TF.FilePolarity,Positive*
%FSLAX46Y46*%
G04 Gerber Fmt 4.6, Leading zero omitted, Abs format (unit mm)*
G04 Created by KiCad (PCBNEW 7.0.10) date 2024-07-14 22:48:30*
%MOMM*%
%LPD*%
G01*
G04 APERTURE LIST*
G04 #@! TA.AperFunction,ComponentPad*
%ADD10C,3.900000*%
G04 #@! TD*
G04 #@! TA.AperFunction,ConnectorPad*
%ADD11C,7.000000*%
G04 #@! TD*
G04 #@! TA.AperFunction,SMDPad,CuDef*
%ADD12R,1.250000X0.175000*%
G04 #@! TD*
G04 #@! TA.AperFunction,SMDPad,CuDef*
%ADD13R,1.500000X0.300000*%
G04 #@! TD*
G04 #@! TA.AperFunction,ComponentPad*
%ADD14C,1.500000*%
G04 #@! TD*
G04 #@! TA.AperFunction,ViaPad*
%ADD15C,0.500000*%
G04 #@! TD*
G04 #@! TA.AperFunction,ViaPad*
%ADD16C,0.800000*%
G04 #@! TD*
G04 #@! TA.AperFunction,Conductor*
%ADD17C,0.152400*%
G04 #@! TD*
G04 APERTURE END LIST*
D10*
X0Y8890000D03*
D11*
X0Y8890000D03*
D12*
X-3175000Y3562500D03*
X-3175000Y3187500D03*
X-3175000Y2812500D03*
X-3175000Y2437500D03*
X-3175000Y2062500D03*
X-3175000Y1687500D03*
X-3175000Y1312500D03*
X-3175000Y937500D03*
X-3175000Y562500D03*
X-3175000Y187500D03*
X-3175000Y-187500D03*
X-3175000Y-562500D03*
X-3175000Y-937500D03*
X-3175000Y-1312500D03*
X-3175000Y-1687500D03*
X-3175000Y-2062500D03*
X-3175000Y-2437500D03*
X-3175000Y-2812500D03*
X-3175000Y-3187500D03*
X-3175000Y-3562500D03*
D10*
X0Y-8890000D03*
D11*
X0Y-8890000D03*
D12*
X3175000Y-3562500D03*
X3175000Y-3187500D03*
X3175000Y-2812500D03*
X3175000Y-2437500D03*
X3175000Y-2062500D03*
X3175000Y-1687500D03*
X3175000Y-1312500D03*
X3175000Y-937500D03*
X3175000Y-562500D03*
X3175000Y-187500D03*
X3175000Y187500D03*
X3175000Y562500D03*
X3175000Y937500D03*
X3175000Y1312500D03*
X3175000Y1687500D03*
X3175000Y2062500D03*
X3175000Y2437500D03*
X3175000Y2812500D03*
X3175000Y3187500D03*
X3175000Y3562500D03*
D13*
X-13915000Y-4750000D03*
X-10215000Y-4750000D03*
X-13915000Y-4250000D03*
X-10215000Y-4250000D03*
X-13915000Y-3750000D03*
X-10215000Y-3750000D03*
X-13915000Y-3250000D03*
X-10215000Y-3250000D03*
X-13915000Y-2750000D03*
X-10215000Y-2750000D03*
X-13915000Y-2250000D03*
X-10215000Y-2250000D03*
X-13915000Y-1750000D03*
X-10215000Y-1750000D03*
X-13915000Y-1250000D03*
X-10215000Y-1250000D03*
X-13915000Y-750000D03*
X-10215000Y-750000D03*
X-13915000Y-250000D03*
X-10215000Y-250000D03*
X-13915000Y250000D03*
X-10215000Y250000D03*
X-13915000Y750000D03*
X-10215000Y750000D03*
X-13915000Y1250000D03*
X-10215000Y1250000D03*
X-13915000Y1750000D03*
X-10215000Y1750000D03*
X-13915000Y2250000D03*
X-10215000Y2250000D03*
X-13915000Y2750000D03*
X-10215000Y2750000D03*
X-13915000Y3250000D03*
X-10215000Y3250000D03*
X-13915000Y3750000D03*
X-10215000Y3750000D03*
X-13915000Y4250000D03*
X-10215000Y4250000D03*
X-13915000Y4750000D03*
X-10215000Y4750000D03*
D14*
X-13215000Y7475000D03*
X-13215000Y-7475000D03*
D13*
X13915000Y4750000D03*
X10215000Y4750000D03*
X13915000Y4250000D03*
X10215000Y4250000D03*
X13915000Y3750000D03*
X10215000Y3750000D03*
X13915000Y3250000D03*
X10215000Y3250000D03*
X13915000Y2750000D03*
X10215000Y2750000D03*
X13915000Y2250000D03*
X10215000Y2250000D03*
X13915000Y1750000D03*
X10215000Y1750000D03*
X13915000Y1250000D03*
X10215000Y1250000D03*
X13915000Y750000D03*
X10215000Y750000D03*
X13915000Y250000D03*
X10215000Y250000D03*
X13915000Y-250000D03*
X10215000Y-250000D03*
X13915000Y-750000D03*
X10215000Y-750000D03*
X13915000Y-1250000D03*
X10215000Y-1250000D03*
X13915000Y-1750000D03*
X10215000Y-1750000D03*
X13915000Y-2250000D03*
X10215000Y-2250000D03*
X13915000Y-2750000D03*
X10215000Y-2750000D03*
X13915000Y-3250000D03*
X10215000Y-3250000D03*
X13915000Y-3750000D03*
X10215000Y-3750000D03*
X13915000Y-4250000D03*
X10215000Y-4250000D03*
X13915000Y-4750000D03*
X10215000Y-4750000D03*
D14*
X13215000Y-7475000D03*
X13215000Y7475000D03*
D15*
X-15367000Y4826000D03*
X-11811000Y4318010D03*
X-15367000Y3810000D03*
X-12619529Y3302000D03*
X-15367000Y2794000D03*
X-11811000Y2286000D03*
X-15367000Y1778000D03*
X-12573000Y1250010D03*
X-15367000Y762000D03*
X-11811000Y254000D03*
X-15367000Y-254000D03*
X-12573000Y-762000D03*
X-15367008Y-1270000D03*
X-11811000Y-1778000D03*
X-15367000Y-2286000D03*
X-12616061Y-2794000D03*
X-15367000Y-3302000D03*
X-11811000Y-3810000D03*
X-15367000Y-4317994D03*
X-12572996Y-4826000D03*
X12572996Y4826000D03*
X15367000Y4317994D03*
X11811000Y3810000D03*
X15367000Y3302000D03*
X12616061Y2794000D03*
X15367000Y2286000D03*
X11811000Y1778000D03*
X15367008Y1270000D03*
X12573000Y762000D03*
X15367000Y254000D03*
X11811000Y-254000D03*
X15367000Y-762000D03*
X12573000Y-1250010D03*
X15367000Y-1778000D03*
X11811000Y-2286000D03*
X15367000Y-2794000D03*
X12619529Y-3302000D03*
X15367000Y-3810000D03*
X11811000Y-4318010D03*
X15367000Y-4826000D03*
X0Y6350000D03*
D16*
X-1905000Y-6985000D03*
X7620000Y-10795000D03*
D15*
X0Y5080000D03*
X0Y-5080000D03*
X3810000Y6350000D03*
D16*
X-4445000Y11430000D03*
X-7620000Y10795000D03*
X4445000Y11430000D03*
D15*
X-3810000Y6350000D03*
D16*
X-4445000Y-8890000D03*
X4445000Y8890000D03*
X4445000Y-8890000D03*
X1905000Y-6985000D03*
D15*
X2540000Y-5080000D03*
X-3810000Y-6350000D03*
D16*
X-7620000Y-10160000D03*
X-4445000Y-11430000D03*
D15*
X-2540000Y-5080000D03*
D16*
X-4445000Y8890000D03*
D15*
X-2540000Y5080000D03*
X3810000Y-6350000D03*
X0Y-6350000D03*
D16*
X4445000Y-11430000D03*
D15*
X2540000Y5080000D03*
D16*
X1905000Y6985000D03*
X7620000Y10795000D03*
X-1905000Y6985000D03*
D17*
X10215000Y-4750000D02*
X5258000Y-4750000D01*
X5258000Y-4750000D02*
X4070500Y-3562500D01*
X4070500Y-3562500D02*
X3175000Y-3562500D01*
X5296636Y-4250000D02*
X4234136Y-3187500D01*
X10215000Y-4250000D02*
X5296636Y-4250000D01*
X4234136Y-3187500D02*
X3175000Y-3187500D01*
X10215000Y-3750000D02*
X5227688Y-3750000D01*
X10215000Y-3750000D02*
X10155000Y-3810000D01*
X4290188Y-2812500D02*
X3175000Y-2812500D01*
X5227688Y-3750000D02*
X4290188Y-2812500D01*
X5158740Y-3250000D02*
X4346240Y-2437500D01*
X4346240Y-2437500D02*
X3175000Y-2437500D01*
X10215000Y-3250000D02*
X5158740Y-3250000D01*
X10215000Y-3250000D02*
X10163000Y-3302000D01*
X10215000Y-2750000D02*
X5089792Y-2750000D01*
X4402292Y-2062500D02*
X3175000Y-2062500D01*
X5089792Y-2750000D02*
X4402292Y-2062500D01*
X10215000Y-2750000D02*
X10171000Y-2794000D01*
X5020844Y-2250000D02*
X4458344Y-1687500D01*
X10215000Y-2250000D02*
X5020844Y-2250000D01*
X4458344Y-1687500D02*
X3175000Y-1687500D01*
X10215000Y-2250000D02*
X10179000Y-2286000D01*
X4951896Y-1750000D02*
X4514396Y-1312500D01*
X4514396Y-1312500D02*
X3175000Y-1312500D01*
X10215000Y-1750000D02*
X4951896Y-1750000D01*
X10215000Y-1750000D02*
X10187000Y-1778000D01*
X10215000Y-1250000D02*
X10195000Y-1270000D01*
X4570448Y-937500D02*
X3175000Y-937500D01*
X10215000Y-1250000D02*
X4882948Y-1250000D01*
X4882948Y-1250000D02*
X4570448Y-937500D01*
X10215000Y-750000D02*
X10203000Y-762000D01*
X4814000Y-750000D02*
X4626500Y-562500D01*
X4626500Y-562500D02*
X3175000Y-562500D01*
X10215000Y-750000D02*
X4814000Y-750000D01*
X4759500Y-187500D02*
X3175000Y-187500D01*
X9312600Y-250000D02*
X9308600Y-254000D01*
X10215000Y-250000D02*
X9312600Y-250000D01*
X10215000Y-250000D02*
X10211000Y-254000D01*
X4826000Y-254000D02*
X4759500Y-187500D01*
X9308600Y-254000D02*
X4826000Y-254000D01*
X4826000Y187500D02*
X3175000Y187500D01*
X10211000Y254000D02*
X4892500Y254000D01*
X4892500Y254000D02*
X4826000Y187500D01*
X10215000Y250000D02*
X10211000Y254000D01*
X4838000Y750000D02*
X4650500Y562500D01*
X4650500Y562500D02*
X3175000Y562500D01*
X10215000Y750000D02*
X4838000Y750000D01*
X10215000Y750000D02*
X10203000Y762000D01*
X4570448Y937500D02*
X3175000Y937500D01*
X10215000Y1250000D02*
X10195000Y1270000D01*
X4882948Y1250000D02*
X4570448Y937500D01*
X10215000Y1250000D02*
X4882948Y1250000D01*
X10215000Y1750000D02*
X4951896Y1750000D01*
X10215000Y1750000D02*
X10187000Y1778000D01*
X4951896Y1750000D02*
X4514396Y1312500D01*
X4514396Y1312500D02*
X3175000Y1312500D01*
X10215000Y2250000D02*
X10179000Y2286000D01*
X10215000Y2250000D02*
X5020844Y2250000D01*
X5020844Y2250000D02*
X4458344Y1687500D01*
X4458344Y1687500D02*
X3175000Y1687500D01*
X10215000Y2750000D02*
X10171000Y2794000D01*
X4400748Y2062500D02*
X3175000Y2062500D01*
X10215000Y2750000D02*
X5088248Y2750000D01*
X5088248Y2750000D02*
X4400748Y2062500D01*
X10215000Y3250000D02*
X10163000Y3302000D01*
X5157196Y3250000D02*
X4344696Y2437500D01*
X4344696Y2437500D02*
X3175000Y2437500D01*
X10215000Y3250000D02*
X5157196Y3250000D01*
X4288644Y2812500D02*
X3175000Y2812500D01*
X10215000Y3750000D02*
X5226144Y3750000D01*
X10215000Y3750000D02*
X10155000Y3810000D01*
X5226144Y3750000D02*
X4288644Y2812500D01*
X5266000Y4250000D02*
X4203500Y3187500D01*
X10215000Y4250000D02*
X5266000Y4250000D01*
X10215000Y4250000D02*
X10147000Y4318000D01*
X4203500Y3187500D02*
X3175000Y3187500D01*
X10215000Y4750000D02*
X10139000Y4826000D01*
X5258000Y4750000D02*
X4070500Y3562500D01*
X10215000Y4750000D02*
X5258000Y4750000D01*
X4070500Y3562500D02*
X3175000Y3562500D01*
X-3175000Y-3562500D02*
X-4070500Y-3562500D01*
X-5258000Y-4750000D02*
X-10215000Y-4750000D01*
X-4070500Y-3562500D02*
X-5258000Y-4750000D01*
X-10215000Y-4750000D02*
X-10139000Y-4826000D01*
X-4203500Y-3187500D02*
X-5266000Y-4250000D01*
X-5266000Y-4250000D02*
X-10215000Y-4250000D01*
X-10215000Y-4250000D02*
X-10147000Y-4318000D01*
X-3175000Y-3187500D02*
X-4203500Y-3187500D01*
X-4288644Y-2812500D02*
X-5226144Y-3750000D01*
X-5226144Y-3750000D02*
X-10215000Y-3750000D01*
X-3175000Y-2812500D02*
X-4288644Y-2812500D01*
X-10215000Y-3750000D02*
X-10155000Y-3810000D01*
X-10215000Y-3250000D02*
X-10163000Y-3302000D01*
X-3175000Y-2437500D02*
X-4344696Y-2437500D01*
X-5157196Y-3250000D02*
X-10215000Y-3250000D01*
X-4344696Y-2437500D02*
X-5157196Y-3250000D01*
X-4400748Y-2062500D02*
X-5088248Y-2750000D01*
X-5088248Y-2750000D02*
X-10215000Y-2750000D01*
X-10215000Y-2750000D02*
X-10171000Y-2794000D01*
X-3175000Y-2062500D02*
X-4400748Y-2062500D01*
X-10215000Y-2250000D02*
X-10179000Y-2286000D01*
X-4458344Y-1687500D02*
X-5020844Y-2250000D01*
X-5020844Y-2250000D02*
X-10215000Y-2250000D01*
X-3175000Y-1687500D02*
X-4458344Y-1687500D01*
X-4951896Y-1750000D02*
X-10215000Y-1750000D01*
X-10215000Y-1750000D02*
X-10187000Y-1778000D01*
X-3175000Y-1312500D02*
X-4514396Y-1312500D01*
X-4514396Y-1312500D02*
X-4951896Y-1750000D01*
X-4570448Y-937500D02*
X-4882948Y-1250000D01*
X-4882948Y-1250000D02*
X-10215000Y-1250000D01*
X-10215000Y-1250000D02*
X-10195000Y-1270000D01*
X-3175000Y-937500D02*
X-4570448Y-937500D01*
X-4838000Y-750000D02*
X-10215000Y-750000D01*
X-4650500Y-562500D02*
X-4838000Y-750000D01*
X-3175000Y-562500D02*
X-4650500Y-562500D01*
X-10215000Y-750000D02*
X-10203000Y-762000D01*
X-3175000Y-187500D02*
X-4826000Y-187500D01*
X-10211000Y-254000D02*
X-10215000Y-250000D01*
X-4826000Y-187500D02*
X-4892500Y-254000D01*
X-4892500Y-254000D02*
X-10211000Y-254000D01*
X-4759500Y187500D02*
X-4826000Y254000D01*
X-9312600Y250000D02*
X-10215000Y250000D01*
X-9308600Y254000D02*
X-9312600Y250000D01*
X-10215000Y250000D02*
X-10211000Y254000D01*
X-4826000Y254000D02*
X-9308600Y254000D01*
X-3175000Y187500D02*
X-4759500Y187500D01*
X-10215000Y750000D02*
X-10203000Y762000D01*
X-4626500Y562500D02*
X-4814000Y750000D01*
X-3175000Y562500D02*
X-4626500Y562500D01*
X-4814000Y750000D02*
X-10215000Y750000D01*
X-3175000Y937500D02*
X-4570448Y937500D01*
X-4570448Y937500D02*
X-4882948Y1250000D01*
X-10215000Y1250000D02*
X-10195000Y1270000D01*
X-4882948Y1250000D02*
X-10215000Y1250000D01*
X-3175000Y1312500D02*
X-4514396Y1312500D01*
X-4951896Y1750000D02*
X-10215000Y1750000D01*
X-10215000Y1750000D02*
X-10187000Y1778000D01*
X-4514396Y1312500D02*
X-4951896Y1750000D01*
X-4458344Y1687500D02*
X-5020844Y2250000D01*
X-10215000Y2250000D02*
X-10179000Y2286000D01*
X-3175000Y1687500D02*
X-4458344Y1687500D01*
X-5020844Y2250000D02*
X-10215000Y2250000D01*
X-4402292Y2062500D02*
X-3175000Y2062500D01*
X-5089792Y2750000D02*
X-4402292Y2062500D01*
X-10215000Y2750000D02*
X-5089792Y2750000D01*
X-10215000Y2750000D02*
X-10171000Y2794000D01*
X-5158740Y3250000D02*
X-10215000Y3250000D01*
X-3175000Y2437500D02*
X-4346240Y2437500D01*
X-4346240Y2437500D02*
X-5158740Y3250000D01*
X-10215000Y3250000D02*
X-10163000Y3302000D01*
X-10215000Y3750000D02*
X-5227688Y3750000D01*
X-10215000Y3750000D02*
X-10155000Y3810000D01*
X-4290188Y2812500D02*
X-3175000Y2812500D01*
X-5227688Y3750000D02*
X-4290188Y2812500D01*
X-4234136Y3187500D02*
X-3175000Y3187500D01*
X-10215000Y4250000D02*
X-5296636Y4250000D01*
X-5296636Y4250000D02*
X-4234136Y3187500D01*
X-5258000Y4750000D02*
X-4070500Y3562500D01*
X-10215000Y4750000D02*
X-5258000Y4750000D01*
X-4070500Y3562500D02*
X-3175000Y3562500D01*
X-15367000Y4826000D02*
X-15291000Y4750000D01*
X-15291000Y4750000D02*
X-13915000Y4750000D01*
X-11879010Y4250000D02*
X-11811000Y4318010D01*
X-13915000Y4250000D02*
X-11879010Y4250000D01*
X-15307000Y3750000D02*
X-15367000Y3810000D01*
X-13915000Y3750000D02*
X-15307000Y3750000D01*
X-12671529Y3250000D02*
X-12619529Y3302000D01*
X-13915000Y3250000D02*
X-12671529Y3250000D01*
X-13915000Y2750000D02*
X-15323000Y2750000D01*
X-15323000Y2750000D02*
X-15367000Y2794000D01*
X-11811000Y2286000D02*
X-11847000Y2250000D01*
X-11847000Y2250000D02*
X-13915000Y2250000D01*
X-15339000Y1750000D02*
X-15367000Y1778000D01*
X-13915000Y1750000D02*
X-15339000Y1750000D01*
X-13915000Y1250000D02*
X-12573010Y1250000D01*
X-12573010Y1250000D02*
X-12573000Y1250010D01*
X-13915000Y750000D02*
X-15355000Y750000D01*
X-15355000Y750000D02*
X-15367000Y762000D01*
X-11811000Y254000D02*
X-13911000Y254000D01*
X-13911000Y254000D02*
X-13915000Y250000D01*
X-15363000Y-250000D02*
X-15367000Y-254000D01*
X-13915000Y-250000D02*
X-15363000Y-250000D01*
X-12585000Y-750000D02*
X-13915000Y-750000D01*
X-12573000Y-762000D02*
X-12585000Y-750000D01*
X-13915000Y-1250000D02*
X-15347008Y-1250000D01*
X-15347008Y-1250000D02*
X-15367008Y-1270000D01*
X-11839000Y-1750000D02*
X-13915000Y-1750000D01*
X-11811000Y-1778000D02*
X-11839000Y-1750000D01*
X-15331000Y-2250000D02*
X-15367000Y-2286000D01*
X-13915000Y-2250000D02*
X-15331000Y-2250000D01*
X-12616061Y-2794000D02*
X-12660061Y-2750000D01*
X-12660061Y-2750000D02*
X-13915000Y-2750000D01*
X-15315000Y-3250000D02*
X-15367000Y-3302000D01*
X-13915000Y-3250000D02*
X-15315000Y-3250000D01*
X-13915000Y-3750000D02*
X-11871000Y-3750000D01*
X-11871000Y-3750000D02*
X-11811000Y-3810000D01*
X-15299006Y-4250000D02*
X-15367000Y-4317994D01*
X-13915000Y-4250000D02*
X-15299006Y-4250000D01*
X-13915000Y-4750000D02*
X-12648996Y-4750000D01*
X-12648996Y-4750000D02*
X-12572996Y-4826000D01*
X12648996Y4750000D02*
X12572996Y4826000D01*
X13915000Y4750000D02*
X12648996Y4750000D01*
X13915000Y4250000D02*
X15299006Y4250000D01*
X15299006Y4250000D02*
X15367000Y4317994D01*
X11871000Y3750000D02*
X11811000Y3810000D01*
X13915000Y3750000D02*
X11871000Y3750000D01*
X13915000Y3250000D02*
X15315000Y3250000D01*
X15315000Y3250000D02*
X15367000Y3302000D01*
X12616061Y2794000D02*
X12660061Y2750000D01*
X12660061Y2750000D02*
X13915000Y2750000D01*
X15331000Y2250000D02*
X15367000Y2286000D01*
X13915000Y2250000D02*
X15331000Y2250000D01*
X11839000Y1750000D02*
X13915000Y1750000D01*
X11811000Y1778000D02*
X11839000Y1750000D01*
X15347008Y1250000D02*
X15367008Y1270000D01*
X13915000Y1250000D02*
X15347008Y1250000D01*
X12573000Y762000D02*
X12585000Y750000D01*
X12585000Y750000D02*
X13915000Y750000D01*
X13915000Y250000D02*
X15363000Y250000D01*
X15363000Y250000D02*
X15367000Y254000D01*
X11811000Y-254000D02*
X13911000Y-254000D01*
X13911000Y-254000D02*
X13915000Y-250000D01*
X13915000Y-750000D02*
X15355000Y-750000D01*
X15355000Y-750000D02*
X15367000Y-762000D01*
X12573010Y-1250000D02*
X12573000Y-1250010D01*
X13915000Y-1250000D02*
X12573010Y-1250000D01*
X13915000Y-1750000D02*
X15339000Y-1750000D01*
X15339000Y-1750000D02*
X15367000Y-1778000D01*
X11847000Y-2250000D02*
X13915000Y-2250000D01*
X11811000Y-2286000D02*
X11847000Y-2250000D01*
X13915000Y-2750000D02*
X15323000Y-2750000D01*
X15323000Y-2750000D02*
X15367000Y-2794000D01*
X12671529Y-3250000D02*
X12619529Y-3302000D01*
X13915000Y-3250000D02*
X12671529Y-3250000D01*
X13915000Y-3750000D02*
X15307000Y-3750000D01*
X15307000Y-3750000D02*
X15367000Y-3810000D01*
X13915000Y-4250000D02*
X11879010Y-4250000D01*
X11879010Y-4250000D02*
X11811000Y-4318010D01*
X15291000Y-4750000D02*
X13915000Y-4750000D01*
X15367000Y-4826000D02*
X15291000Y-4750000D01*
G04 #@! TA.AperFunction,Conductor*
G36*
X14482058Y12699234D02*
G01*
X14561214Y12694045D01*
X14561949Y12693995D01*
X14743946Y12680978D01*
X14759292Y12678911D01*
X14872138Y12656464D01*
X14874304Y12656013D01*
X15016878Y12624998D01*
X15030378Y12621252D01*
X15145969Y12582015D01*
X15149445Y12580777D01*
X15279589Y12532235D01*
X15291098Y12527266D01*
X15403069Y12472049D01*
X15407653Y12469668D01*
X15527159Y12404412D01*
X15536623Y12398682D01*
X15641505Y12328602D01*
X15646924Y12324768D01*
X15754967Y12243889D01*
X15762416Y12237849D01*
X15857674Y12154309D01*
X15863596Y12148762D01*
X15958762Y12053596D01*
X15964309Y12047674D01*
X16047849Y11952416D01*
X16053889Y11944967D01*
X16134768Y11836924D01*
X16138602Y11831505D01*
X16208682Y11726623D01*
X16214412Y11717159D01*
X16279668Y11597653D01*
X16282049Y11593069D01*
X16337266Y11481098D01*
X16342235Y11469589D01*
X16390777Y11339445D01*
X16392015Y11335969D01*
X16431252Y11220378D01*
X16434998Y11206878D01*
X16466013Y11064304D01*
X16466464Y11062138D01*
X16488911Y10949292D01*
X16490978Y10933946D01*
X16503995Y10751949D01*
X16504045Y10751214D01*
X16509234Y10672057D01*
X16509500Y10663946D01*
X16509500Y-10663946D01*
X16509234Y-10672057D01*
X16504045Y-10751214D01*
X16503995Y-10751949D01*
X16490978Y-10933946D01*
X16488911Y-10949292D01*
X16466464Y-11062138D01*
X16466013Y-11064304D01*
X16434998Y-11206878D01*
X16431252Y-11220378D01*
X16392015Y-11335969D01*
X16390777Y-11339445D01*
X16342235Y-11469589D01*
X16337266Y-11481098D01*
X16282049Y-11593069D01*
X16279668Y-11597653D01*
X16214412Y-11717159D01*
X16208682Y-11726623D01*
X16138602Y-11831505D01*
X16134768Y-11836924D01*
X16053889Y-11944967D01*
X16047849Y-11952416D01*
X15964309Y-12047674D01*
X15958762Y-12053596D01*
X15863596Y-12148762D01*
X15857674Y-12154309D01*
X15762416Y-12237849D01*
X15754967Y-12243889D01*
X15646924Y-12324768D01*
X15641505Y-12328602D01*
X15536623Y-12398682D01*
X15527159Y-12404412D01*
X15407653Y-12469668D01*
X15403069Y-12472049D01*
X15291098Y-12527266D01*
X15279589Y-12532235D01*
X15149445Y-12580777D01*
X15145969Y-12582015D01*
X15030378Y-12621252D01*
X15016878Y-12624998D01*
X14874304Y-12656013D01*
X14872138Y-12656464D01*
X14759292Y-12678911D01*
X14743946Y-12680978D01*
X14561949Y-12693995D01*
X14561214Y-12694045D01*
X14482058Y-12699234D01*
X14473947Y-12699500D01*
X-14473947Y-12699500D01*
X-14482058Y-12699234D01*
X-14561214Y-12694045D01*
X-14561949Y-12693995D01*
X-14743946Y-12680978D01*
X-14759292Y-12678911D01*
X-14872138Y-12656464D01*
X-14874304Y-12656013D01*
X-15016878Y-12624998D01*
X-15030378Y-12621252D01*
X-15145969Y-12582015D01*
X-15149445Y-12580777D01*
X-15279589Y-12532235D01*
X-15291098Y-12527266D01*
X-15403069Y-12472049D01*
X-15407653Y-12469668D01*
X-15527159Y-12404412D01*
X-15536623Y-12398682D01*
X-15641505Y-12328602D01*
X-15646924Y-12324768D01*
X-15754967Y-12243889D01*
X-15762416Y-12237849D01*
X-15857674Y-12154309D01*
X-15863596Y-12148762D01*
X-15958762Y-12053596D01*
X-15964309Y-12047674D01*
X-16047849Y-11952416D01*
X-16053889Y-11944967D01*
X-16134768Y-11836924D01*
X-16138602Y-11831505D01*
X-16208682Y-11726623D01*
X-16214412Y-11717159D01*
X-16279668Y-11597653D01*
X-16282049Y-11593069D01*
X-16337266Y-11481098D01*
X-16342235Y-11469589D01*
X-16390777Y-11339445D01*
X-16392015Y-11335969D01*
X-16431252Y-11220378D01*
X-16434998Y-11206878D01*
X-16466013Y-11064304D01*
X-16466464Y-11062138D01*
X-16488911Y-10949292D01*
X-16490978Y-10933946D01*
X-16503995Y-10751949D01*
X-16504045Y-10751214D01*
X-16509234Y-10672057D01*
X-16509500Y-10663946D01*
X-16509500Y-8890005D01*
X-2454844Y-8890005D01*
X-2435488Y-9197663D01*
X-2435487Y-9197670D01*
X-2377719Y-9500499D01*
X-2282455Y-9793689D01*
X-2282453Y-9793694D01*
X-2151197Y-10072626D01*
X-2151194Y-10072632D01*
X-1986014Y-10332916D01*
X-1900198Y-10436646D01*
X-1402721Y-9939168D01*
X-1372042Y-9984167D01*
X-1193640Y-10176438D01*
X-1048572Y-10292124D01*
X-1549231Y-10792783D01*
X-1549230Y-10792785D01*
X-1315382Y-10962685D01*
X-1315364Y-10962697D01*
X-1045221Y-11111209D01*
X-1045213Y-11111213D01*
X-758593Y-11224693D01*
X-459991Y-11301361D01*
X-459982Y-11301363D01*
X-154152Y-11339999D01*
X-154139Y-11340000D01*
X154139Y-11340000D01*
X154152Y-11339999D01*
X459982Y-11301363D01*
X459991Y-11301361D01*
X758593Y-11224693D01*
X1045213Y-11111213D01*
X1045221Y-11111209D01*
X1315364Y-10962697D01*
X1315382Y-10962685D01*
X1549230Y-10792785D01*
X1549231Y-10792783D01*
X1048572Y-10292124D01*
X1193640Y-10176438D01*
X1372042Y-9984167D01*
X1402721Y-9939168D01*
X1900199Y-10436647D01*
X1986014Y-10332916D01*
X2151194Y-10072632D01*
X2151197Y-10072626D01*
X2282453Y-9793694D01*
X2282455Y-9793689D01*
X2377719Y-9500499D01*
X2435487Y-9197670D01*
X2435488Y-9197663D01*
X2454844Y-8890005D01*
X2454844Y-8889994D01*
X2435488Y-8582336D01*
X2435487Y-8582329D01*
X2377719Y-8279500D01*
X2282455Y-7986310D01*
X2282453Y-7986305D01*
X2151197Y-7707373D01*
X2151194Y-7707367D01*
X2003730Y-7475000D01*
X12209659Y-7475000D01*
X12228975Y-7671129D01*
X12286188Y-7859733D01*
X12379086Y-8033532D01*
X12379090Y-8033539D01*
X12504116Y-8185883D01*
X12656460Y-8310909D01*
X12656467Y-8310913D01*
X12830266Y-8403811D01*
X12830269Y-8403811D01*
X12830273Y-8403814D01*
X13018868Y-8461024D01*
X13215000Y-8480341D01*
X13411132Y-8461024D01*
X13599727Y-8403814D01*
X13773538Y-8310910D01*
X13925883Y-8185883D01*
X14050910Y-8033538D01*
X14143814Y-7859727D01*
X14201024Y-7671132D01*
X14220341Y-7475000D01*
X14201024Y-7278868D01*
X14143814Y-7090273D01*
X14143811Y-7090269D01*
X14143811Y-7090266D01*
X14050913Y-6916467D01*
X14050909Y-6916460D01*
X13925883Y-6764116D01*
X13773539Y-6639090D01*
X13773532Y-6639086D01*
X13599733Y-6546188D01*
X13599727Y-6546186D01*
X13411132Y-6488976D01*
X13411129Y-6488975D01*
X13215000Y-6469659D01*
X13018870Y-6488975D01*
X12830266Y-6546188D01*
X12656467Y-6639086D01*
X12656460Y-6639090D01*
X12504116Y-6764116D01*
X12379090Y-6916460D01*
X12379086Y-6916467D01*
X12286188Y-7090266D01*
X12228975Y-7278870D01*
X12209659Y-7475000D01*
X2003730Y-7475000D01*
X1986017Y-7447088D01*
X1900198Y-7343351D01*
X1402720Y-7840829D01*
X1372042Y-7795833D01*
X1193640Y-7603562D01*
X1048572Y-7487874D01*
X1549231Y-6987215D01*
X1549230Y-6987214D01*
X1315382Y-6817314D01*
X1315364Y-6817302D01*
X1045221Y-6668790D01*
X1045213Y-6668786D01*
X758593Y-6555306D01*
X459991Y-6478638D01*
X459982Y-6478636D01*
X154152Y-6440000D01*
X-154152Y-6440000D01*
X-459982Y-6478636D01*
X-459991Y-6478638D01*
X-758593Y-6555306D01*
X-1045213Y-6668786D01*
X-1045221Y-6668790D01*
X-1315364Y-6817302D01*
X-1315382Y-6817314D01*
X-1549230Y-6987214D01*
X-1549231Y-6987215D01*
X-1048572Y-7487874D01*
X-1193640Y-7603562D01*
X-1372042Y-7795833D01*
X-1402720Y-7840830D01*
X-1900199Y-7343351D01*
X-1986017Y-7447088D01*
X-2151194Y-7707367D01*
X-2151197Y-7707373D01*
X-2282453Y-7986305D01*
X-2282455Y-7986310D01*
X-2377719Y-8279500D01*
X-2435487Y-8582329D01*
X-2435488Y-8582336D01*
X-2454844Y-8889994D01*
X-2454844Y-8890005D01*
X-16509500Y-8890005D01*
X-16509500Y-7475000D01*
X-14220341Y-7475000D01*
X-14201024Y-7671132D01*
X-14143814Y-7859727D01*
X-14050910Y-8033538D01*
X-13925883Y-8185883D01*
X-13773538Y-8310910D01*
X-13599727Y-8403814D01*
X-13411132Y-8461024D01*
X-13215000Y-8480341D01*
X-13018868Y-8461024D01*
X-12830273Y-8403814D01*
X-12830269Y-8403811D01*
X-12830266Y-8403811D01*
X-12656467Y-8310913D01*
X-12656460Y-8310909D01*
X-12504116Y-8185883D01*
X-12379090Y-8033539D01*
X-12379086Y-8033532D01*
X-12286188Y-7859733D01*
X-12228975Y-7671129D01*
X-12209659Y-7475000D01*
X-12228975Y-7278870D01*
X-12286188Y-7090266D01*
X-12379086Y-6916467D01*
X-12379090Y-6916460D01*
X-12504116Y-6764116D01*
X-12656460Y-6639090D01*
X-12656467Y-6639086D01*
X-12830266Y-6546188D01*
X-13018870Y-6488975D01*
X-13215000Y-6469659D01*
X-13411129Y-6488975D01*
X-13411132Y-6488976D01*
X-13599727Y-6546186D01*
X-13599733Y-6546188D01*
X-13773532Y-6639086D01*
X-13773539Y-6639090D01*
X-13925883Y-6764116D01*
X-14050909Y-6916460D01*
X-14050913Y-6916467D01*
X-14143811Y-7090266D01*
X-14143811Y-7090269D01*
X-14143814Y-7090273D01*
X-14201024Y-7278868D01*
X-14220341Y-7475000D01*
X-16509500Y-7475000D01*
X-16509500Y-1270000D01*
X-15872655Y-1270000D01*
X-15852173Y-1412457D01*
X-15792385Y-1543373D01*
X-15698136Y-1652143D01*
X-15664614Y-1673686D01*
X-15618858Y-1726489D01*
X-15608914Y-1795647D01*
X-15637938Y-1859203D01*
X-15664612Y-1882317D01*
X-15690866Y-1899190D01*
X-15698128Y-1903857D01*
X-15792377Y-2012627D01*
X-15852165Y-2143543D01*
X-15872647Y-2286000D01*
X-15852165Y-2428457D01*
X-15792377Y-2559373D01*
X-15698128Y-2668143D01*
X-15664609Y-2689684D01*
X-15618854Y-2742488D01*
X-15608910Y-2811647D01*
X-15637935Y-2875202D01*
X-15664607Y-2898314D01*
X-15698128Y-2919857D01*
X-15792377Y-3028627D01*
X-15852165Y-3159543D01*
X-15872647Y-3302000D01*
X-15852165Y-3444457D01*
X-15792377Y-3575373D01*
X-15698128Y-3684143D01*
X-15698125Y-3684144D01*
X-15698125Y-3684145D01*
X-15664614Y-3705681D01*
X-15618858Y-3758484D01*
X-15608914Y-3827643D01*
X-15637938Y-3891199D01*
X-15664614Y-3914313D01*
X-15698125Y-3935848D01*
X-15698125Y-3935849D01*
X-15698128Y-3935851D01*
X-15792377Y-4044621D01*
X-15852165Y-4175537D01*
X-15872647Y-4317994D01*
X-15852165Y-4460451D01*
X-15792377Y-4591367D01*
X-15698128Y-4700137D01*
X-15577053Y-4777947D01*
X-15577050Y-4777948D01*
X-15546121Y-4787029D01*
X-15438962Y-4818493D01*
X-15438962Y-4818494D01*
X-15438961Y-4818494D01*
X-15295038Y-4818494D01*
X-15295036Y-4818493D01*
X-15156949Y-4777948D01*
X-15156948Y-4777948D01*
X-15134967Y-4763821D01*
X-15106538Y-4745551D01*
X-15039501Y-4725867D01*
X-14972461Y-4745551D01*
X-14926706Y-4798355D01*
X-14915500Y-4849867D01*
X-14915500Y-4924674D01*
X-14900966Y-4997740D01*
X-14845601Y-5080601D01*
X-14762740Y-5135966D01*
X-14689677Y-5150499D01*
X-14689676Y-5150500D01*
X-14689674Y-5150500D01*
X-13140324Y-5150500D01*
X-13140321Y-5150499D01*
X-13055281Y-5133584D01*
X-13054555Y-5137233D01*
X-13006376Y-5132053D01*
X-12943896Y-5163327D01*
X-12934691Y-5172866D01*
X-12904124Y-5208143D01*
X-12783049Y-5285953D01*
X-12644958Y-5326499D01*
X-12644958Y-5326500D01*
X-12644957Y-5326500D01*
X-12501034Y-5326500D01*
X-12501032Y-5326499D01*
X-12494036Y-5324445D01*
X-12470103Y-5317417D01*
X-12362945Y-5285954D01*
X-12362943Y-5285953D01*
X-12241868Y-5208143D01*
X-12147619Y-5099373D01*
X-12147618Y-5099371D01*
X-12087830Y-4968456D01*
X-12067349Y-4826000D01*
X-12087830Y-4683543D01*
X-12147618Y-4552628D01*
X-12147619Y-4552626D01*
X-12241869Y-4443856D01*
X-12362946Y-4366045D01*
X-12362945Y-4366045D01*
X-12501032Y-4325500D01*
X-12501035Y-4325500D01*
X-12644957Y-4325500D01*
X-12644960Y-4325500D01*
X-12755566Y-4357976D01*
X-12825436Y-4357976D01*
X-12884214Y-4320201D01*
X-12913238Y-4256645D01*
X-12914500Y-4238999D01*
X-12914500Y-4200700D01*
X-12894815Y-4133661D01*
X-12842011Y-4087906D01*
X-12790500Y-4076700D01*
X-12298788Y-4076700D01*
X-12231749Y-4096385D01*
X-12205074Y-4119498D01*
X-12142128Y-4192143D01*
X-12021053Y-4269953D01*
X-11882962Y-4310499D01*
X-11882962Y-4310500D01*
X-11882961Y-4310500D01*
X-11739038Y-4310500D01*
X-11739036Y-4310499D01*
X-11726383Y-4306784D01*
X-11704481Y-4300353D01*
X-11600949Y-4269954D01*
X-11580239Y-4256645D01*
X-11522436Y-4219497D01*
X-11479873Y-4192144D01*
X-11465483Y-4175537D01*
X-11433211Y-4138293D01*
X-11374436Y-4100520D01*
X-11304566Y-4100520D01*
X-11245788Y-4138294D01*
X-11216762Y-4201849D01*
X-11215500Y-4219497D01*
X-11215500Y-4424674D01*
X-11205328Y-4475811D01*
X-11205328Y-4524188D01*
X-11210985Y-4552628D01*
X-11215500Y-4575326D01*
X-11215500Y-4907489D01*
X-11235185Y-4974528D01*
X-11287989Y-5020283D01*
X-11326954Y-5030853D01*
X-11412380Y-5039541D01*
X-11601670Y-5098930D01*
X-11601673Y-5098931D01*
X-11601678Y-5098933D01*
X-11775146Y-5195216D01*
X-11775147Y-5195217D01*
X-11775148Y-5195217D01*
X-11925680Y-5324445D01*
X-11925682Y-5324446D01*
X-12047120Y-5481331D01*
X-12047122Y-5481334D01*
X-12134495Y-5659456D01*
X-12184224Y-5851520D01*
X-12194272Y-6049663D01*
X-12164230Y-6245773D01*
X-12095325Y-6431820D01*
X-11990380Y-6600189D01*
X-11853691Y-6743986D01*
X-11690854Y-6857324D01*
X-11508535Y-6935563D01*
X-11314199Y-6975500D01*
X-11165526Y-6975500D01*
X-11017619Y-6960459D01*
X-10873422Y-6915217D01*
X-10828322Y-6901067D01*
X-10654854Y-6804784D01*
X-10654852Y-6804782D01*
X-10654851Y-6804782D01*
X-10504319Y-6675554D01*
X-10504317Y-6675553D01*
X-10382879Y-6518668D01*
X-10382877Y-6518664D01*
X-10295503Y-6340540D01*
X-10245777Y-6148488D01*
X-10245776Y-6148482D01*
X-10235728Y-5950337D01*
X-10235728Y-5950332D01*
X-10265768Y-5754235D01*
X-10265771Y-5754222D01*
X-10334673Y-5568184D01*
X-10334677Y-5568175D01*
X-10439616Y-5399815D01*
X-10439621Y-5399809D01*
X-10477528Y-5359931D01*
X-10509448Y-5297779D01*
X-10502699Y-5228236D01*
X-10459424Y-5173382D01*
X-10393362Y-5150632D01*
X-10387653Y-5150500D01*
X-10206550Y-5150500D01*
X-10174455Y-5154726D01*
X-10167915Y-5156478D01*
X-10167914Y-5156477D01*
X-10167914Y-5156478D01*
X-10130466Y-5153201D01*
X-10104983Y-5150972D01*
X-10094175Y-5150500D01*
X-9440324Y-5150500D01*
X-9440321Y-5150499D01*
X-9367264Y-5135967D01*
X-9367260Y-5135966D01*
X-9309836Y-5097597D01*
X-9243158Y-5076720D01*
X-9240946Y-5076700D01*
X-5277680Y-5076700D01*
X-5266871Y-5077171D01*
X-5229086Y-5080478D01*
X-5192443Y-5070659D01*
X-5181900Y-5068321D01*
X-5144538Y-5061734D01*
X-5144536Y-5061733D01*
X-5144535Y-5061733D01*
X-5139673Y-5059963D01*
X-5122503Y-5052852D01*
X-5117798Y-5050658D01*
X-5086720Y-5028897D01*
X-5077604Y-5023089D01*
X-5044762Y-5004128D01*
X-5039401Y-4997740D01*
X-5020381Y-4975072D01*
X-5013073Y-4967097D01*
X-3976768Y-3930792D01*
X-1905500Y-3930792D01*
X-1905499Y-3930800D01*
X-1889189Y-4002260D01*
X-1880002Y-4042510D01*
X-1830284Y-4145750D01*
X-1758839Y-4235339D01*
X-1669250Y-4306784D01*
X-1566010Y-4356502D01*
X-1454300Y-4381999D01*
X-1454296Y-4381999D01*
X-1454294Y-4382000D01*
X-1454292Y-4382000D01*
X1454292Y-4382000D01*
X1454294Y-4382000D01*
X1454296Y-4381999D01*
X1454300Y-4381999D01*
X1566010Y-4356502D01*
X1669250Y-4306784D01*
X1758839Y-4235339D01*
X1830284Y-4145750D01*
X1880002Y-4042510D01*
X1889189Y-4002260D01*
X1905499Y-3930800D01*
X1905500Y-3930792D01*
X1905500Y-3674678D01*
X2299500Y-3674678D01*
X2314032Y-3747735D01*
X2314033Y-3747739D01*
X2332405Y-3775235D01*
X2369399Y-3830601D01*
X2410467Y-3858041D01*
X2452260Y-3885966D01*
X2452264Y-3885967D01*
X2525321Y-3900499D01*
X2525324Y-3900500D01*
X2525326Y-3900500D01*
X3824674Y-3900500D01*
X3861261Y-3893222D01*
X3930851Y-3899448D01*
X3973134Y-3927158D01*
X5013073Y-4967097D01*
X5020381Y-4975072D01*
X5039401Y-4997740D01*
X5044762Y-5004128D01*
X5077604Y-5023089D01*
X5086720Y-5028897D01*
X5117798Y-5050658D01*
X5122503Y-5052852D01*
X5139673Y-5059963D01*
X5144535Y-5061733D01*
X5144536Y-5061733D01*
X5144538Y-5061734D01*
X5181896Y-5068320D01*
X5192444Y-5070659D01*
X5229087Y-5080478D01*
X5266872Y-5077171D01*
X5277681Y-5076700D01*
X9240946Y-5076700D01*
X9307985Y-5096385D01*
X9309836Y-5097597D01*
X9367260Y-5135966D01*
X9367264Y-5135967D01*
X9440321Y-5150499D01*
X9440324Y-5150500D01*
X9440326Y-5150500D01*
X10386172Y-5150500D01*
X10453211Y-5170185D01*
X10498966Y-5222989D01*
X10508910Y-5292147D01*
X10484228Y-5350401D01*
X10382879Y-5481332D01*
X10382877Y-5481335D01*
X10295503Y-5659459D01*
X10245777Y-5851511D01*
X10245776Y-5851517D01*
X10235728Y-6049662D01*
X10235728Y-6049663D01*
X10265768Y-6245764D01*
X10265771Y-6245777D01*
X10334673Y-6431815D01*
X10334677Y-6431824D01*
X10439616Y-6600184D01*
X10439621Y-6600191D01*
X10576306Y-6743983D01*
X10576309Y-6743986D01*
X10739146Y-6857324D01*
X10921465Y-6935563D01*
X11115801Y-6975500D01*
X11264474Y-6975500D01*
X11412380Y-6960459D01*
X11484478Y-6937838D01*
X11601678Y-6901067D01*
X11775146Y-6804784D01*
X11925682Y-6675553D01*
X12047122Y-6518666D01*
X12134495Y-6340544D01*
X12184224Y-6148480D01*
X12194272Y-5950337D01*
X12164230Y-5754227D01*
X12095325Y-5568180D01*
X12095322Y-5568175D01*
X11990383Y-5399815D01*
X11990378Y-5399808D01*
X11853693Y-5256016D01*
X11853692Y-5256015D01*
X11690853Y-5142675D01*
X11508536Y-5064437D01*
X11314538Y-5024569D01*
X11252834Y-4991792D01*
X11218645Y-4930858D01*
X11215500Y-4903107D01*
X11215500Y-4727507D01*
X11235185Y-4660468D01*
X11287989Y-4614713D01*
X11357147Y-4604769D01*
X11420703Y-4633794D01*
X11433205Y-4646296D01*
X11479858Y-4700137D01*
X11479873Y-4700154D01*
X11480723Y-4700700D01*
X11600947Y-4777963D01*
X11600950Y-4777964D01*
X11600949Y-4777964D01*
X11708107Y-4809427D01*
X11738981Y-4818493D01*
X11739036Y-4818509D01*
X11739038Y-4818510D01*
X11739039Y-4818510D01*
X11882962Y-4818510D01*
X11882962Y-4818509D01*
X12021053Y-4777963D01*
X12142128Y-4700153D01*
X12212016Y-4619496D01*
X12270794Y-4581723D01*
X12305729Y-4576700D01*
X12790500Y-4576700D01*
X12857539Y-4596385D01*
X12903294Y-4649189D01*
X12914500Y-4700700D01*
X12914500Y-4924678D01*
X12929032Y-4997735D01*
X12929033Y-4997739D01*
X12929034Y-4997740D01*
X12984399Y-5080601D01*
X13057626Y-5129529D01*
X13067260Y-5135966D01*
X13067264Y-5135967D01*
X13140321Y-5150499D01*
X13140324Y-5150500D01*
X13140326Y-5150500D01*
X14689676Y-5150500D01*
X14689677Y-5150499D01*
X14762740Y-5135966D01*
X14805150Y-5107628D01*
X14871826Y-5086751D01*
X14939207Y-5105235D01*
X14967753Y-5129529D01*
X15024671Y-5195217D01*
X15035872Y-5208143D01*
X15156947Y-5285953D01*
X15156950Y-5285954D01*
X15156949Y-5285954D01*
X15264107Y-5317417D01*
X15288040Y-5324445D01*
X15295036Y-5326499D01*
X15295038Y-5326500D01*
X15295039Y-5326500D01*
X15438962Y-5326500D01*
X15438962Y-5326499D01*
X15577053Y-5285953D01*
X15698128Y-5208143D01*
X15792377Y-5099373D01*
X15852165Y-4968457D01*
X15872647Y-4826000D01*
X15852165Y-4683543D01*
X15792377Y-4552627D01*
X15698128Y-4443857D01*
X15664608Y-4422315D01*
X15618854Y-4369512D01*
X15608910Y-4300353D01*
X15637935Y-4236798D01*
X15664609Y-4213684D01*
X15698128Y-4192143D01*
X15792377Y-4083373D01*
X15852165Y-3952457D01*
X15872647Y-3810000D01*
X15852165Y-3667543D01*
X15792377Y-3536627D01*
X15698128Y-3427857D01*
X15664608Y-3406315D01*
X15618854Y-3353512D01*
X15608910Y-3284353D01*
X15637935Y-3220798D01*
X15664609Y-3197684D01*
X15668809Y-3194985D01*
X15698128Y-3176143D01*
X15792377Y-3067373D01*
X15852165Y-2936457D01*
X15872647Y-2794000D01*
X15852165Y-2651543D01*
X15792377Y-2520627D01*
X15698128Y-2411857D01*
X15664608Y-2390315D01*
X15618854Y-2337512D01*
X15608910Y-2268353D01*
X15637935Y-2204798D01*
X15664609Y-2181684D01*
X15698128Y-2160143D01*
X15792377Y-2051373D01*
X15852165Y-1920457D01*
X15872647Y-1778000D01*
X15852165Y-1635543D01*
X15792377Y-1504627D01*
X15698128Y-1395857D01*
X15664608Y-1374315D01*
X15618854Y-1321512D01*
X15608910Y-1252353D01*
X15637935Y-1188798D01*
X15664609Y-1165684D01*
X15698128Y-1144143D01*
X15792377Y-1035373D01*
X15852165Y-904457D01*
X15872647Y-762000D01*
X15852165Y-619543D01*
X15792377Y-488627D01*
X15698128Y-379857D01*
X15664608Y-358315D01*
X15618854Y-305512D01*
X15608910Y-236353D01*
X15637935Y-172798D01*
X15664609Y-149684D01*
X15698128Y-128143D01*
X15792377Y-19373D01*
X15852165Y111543D01*
X15872647Y254000D01*
X15852165Y396457D01*
X15792377Y527373D01*
X15698128Y636143D01*
X15664613Y657681D01*
X15618858Y710484D01*
X15608914Y779643D01*
X15637938Y843199D01*
X15664612Y866312D01*
X15698133Y887855D01*
X15698136Y887857D01*
X15792385Y996627D01*
X15852173Y1127543D01*
X15872655Y1270000D01*
X15852173Y1412457D01*
X15792385Y1543373D01*
X15698136Y1652143D01*
X15664613Y1673686D01*
X15618858Y1726489D01*
X15608914Y1795647D01*
X15637938Y1859203D01*
X15664612Y1882317D01*
X15698125Y1903855D01*
X15698126Y1903856D01*
X15698128Y1903857D01*
X15792377Y2012627D01*
X15852165Y2143543D01*
X15872647Y2286000D01*
X15852165Y2428457D01*
X15792377Y2559373D01*
X15698128Y2668143D01*
X15664608Y2689684D01*
X15618854Y2742488D01*
X15608910Y2811647D01*
X15637935Y2875202D01*
X15664609Y2898316D01*
X15698126Y2919856D01*
X15698128Y2919857D01*
X15792377Y3028627D01*
X15852165Y3159543D01*
X15872647Y3302000D01*
X15852165Y3444457D01*
X15792377Y3575373D01*
X15698128Y3684143D01*
X15664613Y3705681D01*
X15618858Y3758484D01*
X15608914Y3827643D01*
X15637938Y3891199D01*
X15664614Y3914313D01*
X15698125Y3935848D01*
X15698125Y3935849D01*
X15698128Y3935851D01*
X15792377Y4044621D01*
X15852165Y4175537D01*
X15872647Y4317994D01*
X15852165Y4460451D01*
X15792377Y4591367D01*
X15698128Y4700137D01*
X15577053Y4777947D01*
X15576995Y4777964D01*
X15546121Y4787029D01*
X15438962Y4818493D01*
X15438962Y4818494D01*
X15438961Y4818494D01*
X15295039Y4818494D01*
X15295038Y4818494D01*
X15295036Y4818493D01*
X15156949Y4777948D01*
X15156948Y4777948D01*
X15134967Y4763821D01*
X15106538Y4745551D01*
X15039501Y4725867D01*
X14972461Y4745551D01*
X14926706Y4798355D01*
X14915500Y4849867D01*
X14915500Y4924676D01*
X14915499Y4924678D01*
X14906299Y4970927D01*
X14900966Y4997740D01*
X14845601Y5080601D01*
X14762740Y5135966D01*
X14762735Y5135967D01*
X14689677Y5150500D01*
X14689674Y5150500D01*
X13140326Y5150500D01*
X13140323Y5150500D01*
X13055281Y5133584D01*
X13054555Y5137233D01*
X13006376Y5132053D01*
X12943896Y5163327D01*
X12934691Y5172866D01*
X12904124Y5208143D01*
X12783049Y5285953D01*
X12644958Y5326499D01*
X12644958Y5326500D01*
X12644957Y5326500D01*
X12501035Y5326500D01*
X12501034Y5326500D01*
X12501032Y5326499D01*
X12470103Y5317417D01*
X12362945Y5285954D01*
X12362943Y5285953D01*
X12241868Y5208143D01*
X12185141Y5142676D01*
X12147619Y5099373D01*
X12147618Y5099371D01*
X12087830Y4968456D01*
X12067349Y4826000D01*
X12087830Y4683543D01*
X12147618Y4552628D01*
X12147619Y4552626D01*
X12241869Y4443856D01*
X12362946Y4366045D01*
X12362945Y4366045D01*
X12501032Y4325500D01*
X12501035Y4325500D01*
X12644960Y4325500D01*
X12755566Y4357976D01*
X12825436Y4357976D01*
X12884214Y4320201D01*
X12913238Y4256645D01*
X12914500Y4238999D01*
X12914500Y4200700D01*
X12894815Y4133661D01*
X12842011Y4087906D01*
X12790500Y4076700D01*
X12298788Y4076700D01*
X12231749Y4096385D01*
X12205075Y4119498D01*
X12144053Y4189921D01*
X12142128Y4192143D01*
X12021053Y4269953D01*
X11882962Y4310499D01*
X11882962Y4310500D01*
X11882961Y4310500D01*
X11739039Y4310500D01*
X11739038Y4310500D01*
X11739036Y4310499D01*
X11708107Y4301417D01*
X11600949Y4269954D01*
X11600947Y4269953D01*
X11552782Y4238999D01*
X11479873Y4192144D01*
X11479872Y4192143D01*
X11433212Y4138294D01*
X11374436Y4100520D01*
X11304566Y4100520D01*
X11245788Y4138294D01*
X11216762Y4201849D01*
X11215500Y4219497D01*
X11215500Y4424673D01*
X11211684Y4443857D01*
X11205328Y4475811D01*
X11205328Y4524188D01*
X11215500Y4575326D01*
X11215500Y4907489D01*
X11235185Y4974528D01*
X11287989Y5020283D01*
X11326954Y5030853D01*
X11412380Y5039541D01*
X11601670Y5098930D01*
X11601673Y5098931D01*
X11601678Y5098933D01*
X11775146Y5195216D01*
X11775147Y5195217D01*
X11775148Y5195217D01*
X11925680Y5324445D01*
X11925682Y5324446D01*
X12047120Y5481331D01*
X12047122Y5481335D01*
X12089720Y5568175D01*
X12134495Y5659456D01*
X12184224Y5851520D01*
X12194272Y6049663D01*
X12164230Y6245773D01*
X12095325Y6431820D01*
X11990380Y6600189D01*
X11853691Y6743986D01*
X11690854Y6857324D01*
X11508535Y6935563D01*
X11314199Y6975500D01*
X11165527Y6975500D01*
X11165526Y6975500D01*
X11017619Y6960459D01*
X10877406Y6916467D01*
X10828322Y6901067D01*
X10654854Y6804784D01*
X10654852Y6804782D01*
X10654851Y6804782D01*
X10504319Y6675554D01*
X10504317Y6675553D01*
X10382879Y6518668D01*
X10382877Y6518664D01*
X10295503Y6340540D01*
X10245777Y6148488D01*
X10245776Y6148482D01*
X10235728Y5950337D01*
X10265768Y5754235D01*
X10265771Y5754222D01*
X10334673Y5568184D01*
X10334677Y5568175D01*
X10439616Y5399815D01*
X10439621Y5399809D01*
X10477528Y5359931D01*
X10509448Y5297779D01*
X10502699Y5228236D01*
X10459424Y5173382D01*
X10393362Y5150632D01*
X10387653Y5150500D01*
X10206550Y5150500D01*
X10174455Y5154726D01*
X10167915Y5156478D01*
X10167914Y5156477D01*
X10167914Y5156478D01*
X10147890Y5154726D01*
X10104983Y5150972D01*
X10094175Y5150500D01*
X9440323Y5150500D01*
X9367264Y5135967D01*
X9367260Y5135966D01*
X9309836Y5097597D01*
X9243158Y5076720D01*
X9240946Y5076700D01*
X5277681Y5076700D01*
X5266872Y5077172D01*
X5229087Y5080478D01*
X5192444Y5070659D01*
X5181896Y5068320D01*
X5144538Y5061734D01*
X5144536Y5061733D01*
X5144535Y5061733D01*
X5139673Y5059963D01*
X5122503Y5052852D01*
X5117798Y5050658D01*
X5086720Y5028897D01*
X5077604Y5023089D01*
X5044762Y5004128D01*
X5044760Y5004125D01*
X5044759Y5004125D01*
X5020381Y4975072D01*
X5013073Y4967097D01*
X3973134Y3927158D01*
X3911811Y3893673D01*
X3861262Y3893222D01*
X3824674Y3900500D01*
X2525326Y3900500D01*
X2525323Y3900500D01*
X2452264Y3885967D01*
X2452260Y3885966D01*
X2369399Y3830601D01*
X2350623Y3802500D01*
X2314033Y3747739D01*
X2314032Y3747735D01*
X2299500Y3674678D01*
X2299500Y3450326D01*
X2309671Y3399190D01*
X2309671Y3350810D01*
X2299500Y3299673D01*
X2299500Y3075326D01*
X2309671Y3024190D01*
X2309671Y2975810D01*
X2299500Y2924673D01*
X2299500Y2700326D01*
X2309671Y2649190D01*
X2309671Y2600810D01*
X2299500Y2549673D01*
X2299500Y2325326D01*
X2309671Y2274190D01*
X2309671Y2225810D01*
X2299500Y2174673D01*
X2299500Y1950326D01*
X2309671Y1899190D01*
X2309671Y1850810D01*
X2299500Y1799673D01*
X2299500Y1575326D01*
X2309671Y1524190D01*
X2309671Y1475810D01*
X2299500Y1424673D01*
X2299500Y1200326D01*
X2309671Y1149190D01*
X2309671Y1100810D01*
X2299500Y1049673D01*
X2299500Y825326D01*
X2309671Y774190D01*
X2309671Y725810D01*
X2299500Y674673D01*
X2299500Y450326D01*
X2309671Y399190D01*
X2309671Y350810D01*
X2299500Y299673D01*
X2299500Y75326D01*
X2309671Y24190D01*
X2309671Y-24190D01*
X2299500Y-75326D01*
X2299500Y-299673D01*
X2309671Y-350810D01*
X2309671Y-399190D01*
X2299500Y-450326D01*
X2299500Y-674673D01*
X2309671Y-725810D01*
X2309671Y-774190D01*
X2299500Y-825326D01*
X2299500Y-1049673D01*
X2309671Y-1100810D01*
X2309671Y-1149190D01*
X2299500Y-1200326D01*
X2299500Y-1424673D01*
X2309671Y-1475810D01*
X2309671Y-1524190D01*
X2299500Y-1575326D01*
X2299500Y-1799673D01*
X2309671Y-1850810D01*
X2309671Y-1899190D01*
X2299500Y-1950326D01*
X2299500Y-2174673D01*
X2309671Y-2225810D01*
X2309671Y-2274190D01*
X2299500Y-2325326D01*
X2299500Y-2549673D01*
X2309671Y-2600810D01*
X2309671Y-2649190D01*
X2299500Y-2700326D01*
X2299500Y-2924673D01*
X2309671Y-2975810D01*
X2309671Y-3024190D01*
X2299500Y-3075326D01*
X2299500Y-3299673D01*
X2309671Y-3350810D01*
X2309671Y-3399190D01*
X2299500Y-3450326D01*
X2299500Y-3674678D01*
X1905500Y-3674678D01*
X1905500Y3930792D01*
X1905499Y3930800D01*
X1880002Y4042510D01*
X1878978Y4044637D01*
X1830284Y4145750D01*
X1758839Y4235339D01*
X1669250Y4306784D01*
X1566010Y4356502D01*
X1524190Y4366047D01*
X1454300Y4381999D01*
X1454296Y4381999D01*
X1454294Y4382000D01*
X1397099Y4382000D01*
X-1396500Y4382000D01*
X-1397000Y4382000D01*
X-1454294Y4382000D01*
X-1454296Y4381999D01*
X-1454300Y4381999D01*
X-1524190Y4366047D01*
X-1566010Y4356502D01*
X-1669250Y4306784D01*
X-1758839Y4235339D01*
X-1830284Y4145750D01*
X-1878978Y4044637D01*
X-1880002Y4042510D01*
X-1905499Y3930800D01*
X-1905500Y3930792D01*
X-1905500Y-3930792D01*
X-3976768Y-3930792D01*
X-3973134Y-3927158D01*
X-3911811Y-3893673D01*
X-3861262Y-3893222D01*
X-3824674Y-3900500D01*
X-2525324Y-3900500D01*
X-2525321Y-3900499D01*
X-2452264Y-3885967D01*
X-2452260Y-3885966D01*
X-2410467Y-3858041D01*
X-2369399Y-3830601D01*
X-2332405Y-3775235D01*
X-2314033Y-3747739D01*
X-2314032Y-3747735D01*
X-2299500Y-3674678D01*
X-2299500Y-3450326D01*
X-2309671Y-3399190D01*
X-2309671Y-3350810D01*
X-2299500Y-3299673D01*
X-2299500Y-3075326D01*
X-2309671Y-3024190D01*
X-2309671Y-2975810D01*
X-2299500Y-2924673D01*
X-2299500Y-2700326D01*
X-2309671Y-2649190D01*
X-2309671Y-2600810D01*
X-2299500Y-2549673D01*
X-2299500Y-2325326D01*
X-2309671Y-2274190D01*
X-2309671Y-2225810D01*
X-2299500Y-2174673D01*
X-2299500Y-1950326D01*
X-2309671Y-1899190D01*
X-2309671Y-1850810D01*
X-2299500Y-1799673D01*
X-2299500Y-1575326D01*
X-2309671Y-1524190D01*
X-2309671Y-1475810D01*
X-2299500Y-1424673D01*
X-2299500Y-1200326D01*
X-2309671Y-1149190D01*
X-2309671Y-1100810D01*
X-2299500Y-1049673D01*
X-2299500Y-825326D01*
X-2309671Y-774190D01*
X-2309671Y-725810D01*
X-2299500Y-674673D01*
X-2299500Y-450326D01*
X-2309671Y-399190D01*
X-2309671Y-350810D01*
X-2299500Y-299673D01*
X-2299500Y-75326D01*
X-2309671Y-24190D01*
X-2309671Y24190D01*
X-2299500Y75326D01*
X-2299500Y299673D01*
X-2309671Y350810D01*
X-2309671Y399190D01*
X-2299500Y450326D01*
X-2299500Y674673D01*
X-2309671Y725810D01*
X-2309671Y774190D01*
X-2299500Y825326D01*
X-2299500Y1049673D01*
X-2309671Y1100810D01*
X-2309671Y1149190D01*
X-2299500Y1200326D01*
X-2299500Y1424673D01*
X-2309671Y1475810D01*
X-2309671Y1524190D01*
X-2299500Y1575326D01*
X-2299500Y1799673D01*
X-2309671Y1850810D01*
X-2309671Y1899190D01*
X-2299500Y1950326D01*
X-2299500Y2174673D01*
X-2309671Y2225810D01*
X-2309671Y2274190D01*
X-2299500Y2325326D01*
X-2299500Y2549673D01*
X-2309671Y2600810D01*
X-2309671Y2649190D01*
X-2299500Y2700326D01*
X-2299500Y2924673D01*
X-2309671Y2975810D01*
X-2309671Y3024190D01*
X-2299500Y3075326D01*
X-2299500Y3299673D01*
X-2309671Y3350810D01*
X-2309671Y3399190D01*
X-2299500Y3450326D01*
X-2299500Y3674678D01*
X-2314032Y3747735D01*
X-2314033Y3747739D01*
X-2350623Y3802500D01*
X-2369399Y3830601D01*
X-2452260Y3885966D01*
X-2452264Y3885967D01*
X-2525323Y3900500D01*
X-2525326Y3900500D01*
X-3824674Y3900500D01*
X-3861261Y3893222D01*
X-3930851Y3899448D01*
X-3973134Y3927158D01*
X-5013073Y4967097D01*
X-5020381Y4975072D01*
X-5044759Y5004125D01*
X-5044760Y5004125D01*
X-5044762Y5004128D01*
X-5077604Y5023089D01*
X-5086720Y5028897D01*
X-5117798Y5050658D01*
X-5122503Y5052852D01*
X-5139673Y5059963D01*
X-5144535Y5061733D01*
X-5144536Y5061733D01*
X-5144538Y5061734D01*
X-5181900Y5068321D01*
X-5192443Y5070659D01*
X-5229086Y5080478D01*
X-5266871Y5077172D01*
X-5277680Y5076700D01*
X-9240946Y5076700D01*
X-9307985Y5096385D01*
X-9309836Y5097597D01*
X-9367260Y5135966D01*
X-9367264Y5135967D01*
X-9440323Y5150500D01*
X-9440326Y5150500D01*
X-10386172Y5150500D01*
X-10453211Y5170185D01*
X-10498966Y5222989D01*
X-10508910Y5292147D01*
X-10484228Y5350401D01*
X-10382879Y5481332D01*
X-10382877Y5481335D01*
X-10295503Y5659459D01*
X-10245777Y5851511D01*
X-10245776Y5851517D01*
X-10235728Y6049663D01*
X-10235728Y6049667D01*
X-10265768Y6245764D01*
X-10265771Y6245777D01*
X-10334673Y6431815D01*
X-10334677Y6431824D01*
X-10439616Y6600184D01*
X-10439621Y6600191D01*
X-10576306Y6743983D01*
X-10576307Y6743984D01*
X-10576309Y6743986D01*
X-10739146Y6857324D01*
X-10921465Y6935563D01*
X-11115801Y6975500D01*
X-11264473Y6975500D01*
X-11264474Y6975500D01*
X-11412380Y6960459D01*
X-11484478Y6937838D01*
X-11601678Y6901067D01*
X-11775146Y6804784D01*
X-11925682Y6675553D01*
X-12047122Y6518666D01*
X-12134495Y6340544D01*
X-12184224Y6148480D01*
X-12194272Y5950337D01*
X-12164230Y5754227D01*
X-12095325Y5568180D01*
X-12095322Y5568175D01*
X-11990383Y5399815D01*
X-11990378Y5399808D01*
X-11853693Y5256016D01*
X-11853692Y5256015D01*
X-11690853Y5142675D01*
X-11508536Y5064437D01*
X-11314538Y5024569D01*
X-11252834Y4991792D01*
X-11218645Y4930858D01*
X-11215500Y4903107D01*
X-11215500Y4727507D01*
X-11235185Y4660468D01*
X-11287989Y4614713D01*
X-11357147Y4604769D01*
X-11420703Y4633794D01*
X-11433205Y4646296D01*
X-11479872Y4700153D01*
X-11479873Y4700154D01*
X-11550513Y4745551D01*
X-11600947Y4777963D01*
X-11600950Y4777964D01*
X-11600949Y4777964D01*
X-11708107Y4809427D01*
X-11739036Y4818509D01*
X-11739038Y4818510D01*
X-11739039Y4818510D01*
X-11882961Y4818510D01*
X-11882962Y4818510D01*
X-11882962Y4818509D01*
X-12021053Y4777963D01*
X-12142128Y4700153D01*
X-12212016Y4619497D01*
X-12270794Y4581723D01*
X-12305729Y4576700D01*
X-12790500Y4576700D01*
X-12857539Y4596385D01*
X-12903294Y4649189D01*
X-12914500Y4700700D01*
X-12914500Y4924678D01*
X-12929032Y4997735D01*
X-12929033Y4997739D01*
X-12965858Y5052852D01*
X-12984399Y5080601D01*
X-13067260Y5135966D01*
X-13067264Y5135967D01*
X-13140323Y5150500D01*
X-13140326Y5150500D01*
X-14689674Y5150500D01*
X-14689677Y5150500D01*
X-14762735Y5135967D01*
X-14762740Y5135966D01*
X-14805150Y5107628D01*
X-14871826Y5086751D01*
X-14939207Y5105235D01*
X-14967753Y5129529D01*
X-15035870Y5208141D01*
X-15035872Y5208143D01*
X-15156947Y5285953D01*
X-15156950Y5285954D01*
X-15156949Y5285954D01*
X-15264107Y5317417D01*
X-15295036Y5326499D01*
X-15295038Y5326500D01*
X-15295039Y5326500D01*
X-15438961Y5326500D01*
X-15438962Y5326500D01*
X-15438962Y5326499D01*
X-15577053Y5285953D01*
X-15698128Y5208143D01*
X-15792377Y5099373D01*
X-15852165Y4968457D01*
X-15872647Y4826000D01*
X-15852165Y4683543D01*
X-15792377Y4552627D01*
X-15698128Y4443857D01*
X-15666141Y4423300D01*
X-15664609Y4422316D01*
X-15618854Y4369512D01*
X-15608910Y4300353D01*
X-15637935Y4236798D01*
X-15664607Y4213685D01*
X-15698128Y4192143D01*
X-15792377Y4083373D01*
X-15852165Y3952457D01*
X-15872647Y3810000D01*
X-15852165Y3667543D01*
X-15792377Y3536627D01*
X-15698128Y3427857D01*
X-15693174Y3424673D01*
X-15664609Y3406316D01*
X-15618854Y3353512D01*
X-15608910Y3284353D01*
X-15637935Y3220798D01*
X-15664607Y3197685D01*
X-15698128Y3176143D01*
X-15792377Y3067373D01*
X-15852165Y2936457D01*
X-15872647Y2794000D01*
X-15852165Y2651543D01*
X-15792377Y2520627D01*
X-15698128Y2411857D01*
X-15665439Y2390849D01*
X-15664609Y2390316D01*
X-15618854Y2337512D01*
X-15608910Y2268353D01*
X-15637935Y2204798D01*
X-15664607Y2181685D01*
X-15698128Y2160143D01*
X-15792377Y2051373D01*
X-15852165Y1920457D01*
X-15872647Y1778000D01*
X-15852165Y1635543D01*
X-15792377Y1504627D01*
X-15698128Y1395857D01*
X-15698126Y1395856D01*
X-15664609Y1374316D01*
X-15618854Y1321512D01*
X-15608910Y1252353D01*
X-15637935Y1188798D01*
X-15664607Y1165685D01*
X-15698128Y1144143D01*
X-15792377Y1035373D01*
X-15852165Y904457D01*
X-15872647Y762000D01*
X-15852165Y619543D01*
X-15792377Y488627D01*
X-15698128Y379857D01*
X-15687054Y372740D01*
X-15664609Y358316D01*
X-15618854Y305512D01*
X-15608910Y236353D01*
X-15637935Y172798D01*
X-15664607Y149685D01*
X-15698128Y128143D01*
X-15792377Y19373D01*
X-15852165Y-111543D01*
X-15872647Y-254000D01*
X-15852165Y-396457D01*
X-15792377Y-527373D01*
X-15698128Y-636143D01*
X-15698125Y-636144D01*
X-15698125Y-636145D01*
X-15664614Y-657681D01*
X-15618858Y-710484D01*
X-15608914Y-779643D01*
X-15637938Y-843199D01*
X-15664612Y-866312D01*
X-15685657Y-879837D01*
X-15698136Y-887857D01*
X-15792385Y-996627D01*
X-15852173Y-1127543D01*
X-15872655Y-1270000D01*
X-16509500Y-1270000D01*
X-16509500Y7475000D01*
X-14220341Y7475000D01*
X-14201024Y7278868D01*
X-14143814Y7090273D01*
X-14143811Y7090269D01*
X-14143811Y7090266D01*
X-14050913Y6916467D01*
X-14050909Y6916460D01*
X-13925883Y6764116D01*
X-13773539Y6639090D01*
X-13773532Y6639086D01*
X-13599733Y6546188D01*
X-13599727Y6546186D01*
X-13473997Y6508046D01*
X-13411129Y6488975D01*
X-13215000Y6469659D01*
X-13018870Y6488975D01*
X-12830266Y6546188D01*
X-12656467Y6639086D01*
X-12656460Y6639090D01*
X-12504116Y6764116D01*
X-12379090Y6916460D01*
X-12379086Y6916467D01*
X-12286188Y7090266D01*
X-12228975Y7278870D01*
X-12209659Y7475000D01*
X-12228975Y7671129D01*
X-12286188Y7859733D01*
X-12379086Y8033532D01*
X-12379090Y8033539D01*
X-12504116Y8185883D01*
X-12656460Y8310909D01*
X-12656467Y8310913D01*
X-12830266Y8403811D01*
X-12830269Y8403811D01*
X-12830273Y8403814D01*
X-13018868Y8461024D01*
X-13215000Y8480341D01*
X-13411132Y8461024D01*
X-13599727Y8403814D01*
X-13773538Y8310910D01*
X-13925883Y8185883D01*
X-14050910Y8033538D01*
X-14143814Y7859727D01*
X-14201024Y7671132D01*
X-14220341Y7475000D01*
X-16509500Y7475000D01*
X-16509500Y8889994D01*
X-2454844Y8889994D01*
X-2435488Y8582336D01*
X-2435487Y8582329D01*
X-2377719Y8279500D01*
X-2282455Y7986310D01*
X-2282453Y7986305D01*
X-2151197Y7707373D01*
X-2151194Y7707367D01*
X-1986017Y7447088D01*
X-1900198Y7343351D01*
X-1402720Y7840829D01*
X-1372042Y7795833D01*
X-1193640Y7603562D01*
X-1048572Y7487874D01*
X-1549231Y6987215D01*
X-1549230Y6987214D01*
X-1315382Y6817314D01*
X-1315364Y6817302D01*
X-1045221Y6668790D01*
X-1045213Y6668786D01*
X-758593Y6555306D01*
X-459991Y6478638D01*
X-459982Y6478636D01*
X-154152Y6440000D01*
X154152Y6440000D01*
X459982Y6478636D01*
X459991Y6478638D01*
X758593Y6555306D01*
X1045213Y6668786D01*
X1045221Y6668790D01*
X1315364Y6817302D01*
X1315382Y6817314D01*
X1549230Y6987214D01*
X1549231Y6987215D01*
X1048572Y7487874D01*
X1193640Y7603562D01*
X1372042Y7795833D01*
X1402720Y7840830D01*
X1900199Y7343351D01*
X1986017Y7447088D01*
X2003730Y7475000D01*
X12209659Y7475000D01*
X12228975Y7278870D01*
X12286188Y7090266D01*
X12379086Y6916467D01*
X12379090Y6916460D01*
X12504116Y6764116D01*
X12656460Y6639090D01*
X12656467Y6639086D01*
X12830266Y6546188D01*
X13018870Y6488975D01*
X13215000Y6469659D01*
X13411129Y6488975D01*
X13473997Y6508046D01*
X13599727Y6546186D01*
X13599733Y6546188D01*
X13773532Y6639086D01*
X13773539Y6639090D01*
X13925883Y6764116D01*
X14050909Y6916460D01*
X14050913Y6916467D01*
X14143811Y7090266D01*
X14143811Y7090269D01*
X14143814Y7090273D01*
X14201024Y7278868D01*
X14220341Y7475000D01*
X14201024Y7671132D01*
X14143814Y7859727D01*
X14050910Y8033538D01*
X13925883Y8185883D01*
X13773538Y8310910D01*
X13599727Y8403814D01*
X13411132Y8461024D01*
X13215000Y8480341D01*
X13018868Y8461024D01*
X12830273Y8403814D01*
X12830269Y8403811D01*
X12830266Y8403811D01*
X12656467Y8310913D01*
X12656460Y8310909D01*
X12504116Y8185883D01*
X12379090Y8033539D01*
X12379086Y8033532D01*
X12286188Y7859733D01*
X12228975Y7671129D01*
X12209659Y7475000D01*
X2003730Y7475000D01*
X2151194Y7707367D01*
X2151197Y7707373D01*
X2282453Y7986305D01*
X2282455Y7986310D01*
X2377719Y8279500D01*
X2435487Y8582329D01*
X2435488Y8582336D01*
X2454844Y8889994D01*
X2454844Y8890005D01*
X2435488Y9197663D01*
X2435487Y9197670D01*
X2377719Y9500499D01*
X2282455Y9793689D01*
X2282453Y9793694D01*
X2151197Y10072626D01*
X2151194Y10072632D01*
X1986014Y10332916D01*
X1900198Y10436646D01*
X1402721Y9939168D01*
X1372042Y9984167D01*
X1193640Y10176438D01*
X1048572Y10292124D01*
X1549231Y10792783D01*
X1549230Y10792785D01*
X1315382Y10962685D01*
X1315364Y10962697D01*
X1045221Y11111209D01*
X1045213Y11111213D01*
X758593Y11224693D01*
X459991Y11301361D01*
X459982Y11301363D01*
X154152Y11339999D01*
X154139Y11340000D01*
X-154139Y11340000D01*
X-154152Y11339999D01*
X-459982Y11301363D01*
X-459991Y11301361D01*
X-758593Y11224693D01*
X-1045213Y11111213D01*
X-1045221Y11111209D01*
X-1315364Y10962697D01*
X-1315382Y10962685D01*
X-1549230Y10792785D01*
X-1549231Y10792783D01*
X-1048572Y10292124D01*
X-1193640Y10176438D01*
X-1372042Y9984167D01*
X-1402721Y9939168D01*
X-1900199Y10436647D01*
X-1986014Y10332916D01*
X-2151194Y10072632D01*
X-2151197Y10072626D01*
X-2282453Y9793694D01*
X-2282455Y9793689D01*
X-2377719Y9500499D01*
X-2435487Y9197670D01*
X-2435488Y9197663D01*
X-2454844Y8890005D01*
X-2454844Y8889994D01*
X-16509500Y8889994D01*
X-16509500Y10663946D01*
X-16509234Y10672057D01*
X-16504045Y10751214D01*
X-16503995Y10751949D01*
X-16490978Y10933946D01*
X-16488911Y10949292D01*
X-16466464Y11062138D01*
X-16466013Y11064304D01*
X-16434998Y11206878D01*
X-16431252Y11220378D01*
X-16392015Y11335969D01*
X-16390777Y11339445D01*
X-16342235Y11469589D01*
X-16337266Y11481098D01*
X-16282049Y11593069D01*
X-16279668Y11597653D01*
X-16214412Y11717159D01*
X-16208682Y11726623D01*
X-16138602Y11831505D01*
X-16134768Y11836924D01*
X-16053889Y11944967D01*
X-16047849Y11952416D01*
X-15964309Y12047674D01*
X-15958762Y12053596D01*
X-15863596Y12148762D01*
X-15857674Y12154309D01*
X-15762416Y12237849D01*
X-15754967Y12243889D01*
X-15646924Y12324768D01*
X-15641505Y12328602D01*
X-15536623Y12398682D01*
X-15527159Y12404412D01*
X-15407653Y12469668D01*
X-15403069Y12472049D01*
X-15291098Y12527266D01*
X-15279589Y12532235D01*
X-15149445Y12580777D01*
X-15145969Y12582015D01*
X-15030378Y12621252D01*
X-15016878Y12624998D01*
X-14874304Y12656013D01*
X-14872138Y12656464D01*
X-14759292Y12678911D01*
X-14743946Y12680978D01*
X-14561949Y12693995D01*
X-14561214Y12694045D01*
X-14482058Y12699234D01*
X-14473947Y12699500D01*
X14473947Y12699500D01*
X14482058Y12699234D01*
G37*
G04 #@! TD.AperFunction*
M02*
