G04 #@! TF.GenerationSoftware,KiCad,Pcbnew,7.0.10*
G04 #@! TF.CreationDate,2024-07-14T22:48:30-04:00*
G04 #@! TF.ProjectId,ARS_Igloo-v2,4152535f-4967-46c6-9f6f-2d76322e6b69,rev?*
G04 #@! TF.SameCoordinates,Original*
G04 #@! TF.FileFunction,Soldermask,Top*
G04 #@! TF.FilePolarity,Negative*
%FSLAX46Y46*%
G04 Gerber Fmt 4.6, Leading zero omitted, Abs format (unit mm)*
G04 Created by KiCad (PCBNEW 7.0.10) date 2024-07-14 22:48:30*
%MOMM*%
%LPD*%
G01*
G04 APERTURE LIST*
%ADD10C,3.900000*%
%ADD11C,7.000000*%
%ADD12R,1.250000X0.175000*%
%ADD13C,1.550000*%
%ADD14C,1.600000*%
G04 APERTURE END LIST*
D10*
X0Y8890000D03*
D11*
X0Y8890000D03*
D12*
X-3175000Y-3562500D03*
X-3175000Y-3187500D03*
X-3175000Y-2812500D03*
X-3175000Y-2437500D03*
X-3175000Y-2062500D03*
X-3175000Y-1687500D03*
X-3175000Y-1312500D03*
X-3175000Y-937500D03*
X-3175000Y-562500D03*
X-3175000Y-187500D03*
X-3175000Y187500D03*
X-3175000Y562500D03*
X-3175000Y937500D03*
X-3175000Y1312500D03*
X-3175000Y1687500D03*
X-3175000Y2062500D03*
X-3175000Y2437500D03*
X-3175000Y2812500D03*
X-3175000Y3187500D03*
X-3175000Y3562500D03*
D10*
X0Y-8890000D03*
D11*
X0Y-8890000D03*
D12*
X3175000Y3562500D03*
X3175000Y3187500D03*
X3175000Y2812500D03*
X3175000Y2437500D03*
X3175000Y2062500D03*
X3175000Y1687500D03*
X3175000Y1312500D03*
X3175000Y937500D03*
X3175000Y562500D03*
X3175000Y187500D03*
X3175000Y-187500D03*
X3175000Y-562500D03*
X3175000Y-937500D03*
X3175000Y-1312500D03*
X3175000Y-1687500D03*
X3175000Y-2062500D03*
X3175000Y-2437500D03*
X3175000Y-2812500D03*
X3175000Y-3187500D03*
X3175000Y-3562500D03*
D13*
X-11215000Y6000000D03*
X-11215000Y-6000000D03*
D14*
X-13215000Y7475000D03*
X-13215000Y-7475000D03*
D13*
X11215000Y-6000000D03*
X11215000Y6000000D03*
D14*
X13215000Y-7475000D03*
X13215000Y7475000D03*
M02*
