G04 #@! TF.GenerationSoftware,KiCad,Pcbnew,7.0.10*
G04 #@! TF.CreationDate,2024-07-14T22:48:30-04:00*
G04 #@! TF.ProjectId,ARS_Igloo-v2,4152535f-4967-46c6-9f6f-2d76322e6b69,rev?*
G04 #@! TF.SameCoordinates,Original*
G04 #@! TF.FileFunction,Legend,Top*
G04 #@! TF.FilePolarity,Positive*
%FSLAX46Y46*%
G04 Gerber Fmt 4.6, Leading zero omitted, Abs format (unit mm)*
G04 Created by KiCad (PCBNEW 7.0.10) date 2024-07-14 22:48:30*
%MOMM*%
%LPD*%
G01*
G04 APERTURE LIST*
%ADD10C,0.120000*%
%ADD11C,0.150000*%
G04 APERTURE END LIST*
D10*
X-5351144Y-1428571D02*
X-6151144Y-1428571D01*
X-6151144Y-1428571D02*
X-5351144Y-971428D01*
X-5351144Y-971428D02*
X-6151144Y-971428D01*
X-5351144Y-476191D02*
X-5389240Y-552381D01*
X-5389240Y-552381D02*
X-5427335Y-590476D01*
X-5427335Y-590476D02*
X-5503525Y-628572D01*
X-5503525Y-628572D02*
X-5732097Y-628572D01*
X-5732097Y-628572D02*
X-5808287Y-590476D01*
X-5808287Y-590476D02*
X-5846382Y-552381D01*
X-5846382Y-552381D02*
X-5884478Y-476191D01*
X-5884478Y-476191D02*
X-5884478Y-361905D01*
X-5884478Y-361905D02*
X-5846382Y-285714D01*
X-5846382Y-285714D02*
X-5808287Y-247619D01*
X-5808287Y-247619D02*
X-5732097Y-209524D01*
X-5732097Y-209524D02*
X-5503525Y-209524D01*
X-5503525Y-209524D02*
X-5427335Y-247619D01*
X-5427335Y-247619D02*
X-5389240Y-285714D01*
X-5389240Y-285714D02*
X-5351144Y-361905D01*
X-5351144Y-361905D02*
X-5351144Y-476191D01*
X-5351144Y133333D02*
X-5884478Y133333D01*
X-5732097Y133333D02*
X-5808287Y171428D01*
X-5808287Y171428D02*
X-5846382Y209523D01*
X-5846382Y209523D02*
X-5884478Y285714D01*
X-5884478Y285714D02*
X-5884478Y361904D01*
X-5884478Y514285D02*
X-5884478Y819047D01*
X-6151144Y628571D02*
X-5465430Y628571D01*
X-5465430Y628571D02*
X-5389240Y666666D01*
X-5389240Y666666D02*
X-5351144Y742856D01*
X-5351144Y742856D02*
X-5351144Y819047D01*
X-5351144Y1085714D02*
X-6151144Y1085714D01*
X-5351144Y1428571D02*
X-5770192Y1428571D01*
X-5770192Y1428571D02*
X-5846382Y1390476D01*
X-5846382Y1390476D02*
X-5884478Y1314285D01*
X-5884478Y1314285D02*
X-5884478Y1199999D01*
X-5884478Y1199999D02*
X-5846382Y1123809D01*
X-5846382Y1123809D02*
X-5808287Y1085714D01*
D11*
X14139104Y-5071428D02*
X14139104Y-4595238D01*
X14424819Y-5166666D02*
X13424819Y-4833333D01*
X13424819Y-4833333D02*
X14424819Y-4500000D01*
X14424819Y-3595238D02*
X13948628Y-3928571D01*
X14424819Y-4166666D02*
X13424819Y-4166666D01*
X13424819Y-4166666D02*
X13424819Y-3785714D01*
X13424819Y-3785714D02*
X13472438Y-3690476D01*
X13472438Y-3690476D02*
X13520057Y-3642857D01*
X13520057Y-3642857D02*
X13615295Y-3595238D01*
X13615295Y-3595238D02*
X13758152Y-3595238D01*
X13758152Y-3595238D02*
X13853390Y-3642857D01*
X13853390Y-3642857D02*
X13901009Y-3690476D01*
X13901009Y-3690476D02*
X13948628Y-3785714D01*
X13948628Y-3785714D02*
X13948628Y-4166666D01*
X14377200Y-3214285D02*
X14424819Y-3071428D01*
X14424819Y-3071428D02*
X14424819Y-2833333D01*
X14424819Y-2833333D02*
X14377200Y-2738095D01*
X14377200Y-2738095D02*
X14329580Y-2690476D01*
X14329580Y-2690476D02*
X14234342Y-2642857D01*
X14234342Y-2642857D02*
X14139104Y-2642857D01*
X14139104Y-2642857D02*
X14043866Y-2690476D01*
X14043866Y-2690476D02*
X13996247Y-2738095D01*
X13996247Y-2738095D02*
X13948628Y-2833333D01*
X13948628Y-2833333D02*
X13901009Y-3023809D01*
X13901009Y-3023809D02*
X13853390Y-3119047D01*
X13853390Y-3119047D02*
X13805771Y-3166666D01*
X13805771Y-3166666D02*
X13710533Y-3214285D01*
X13710533Y-3214285D02*
X13615295Y-3214285D01*
X13615295Y-3214285D02*
X13520057Y-3166666D01*
X13520057Y-3166666D02*
X13472438Y-3119047D01*
X13472438Y-3119047D02*
X13424819Y-3023809D01*
X13424819Y-3023809D02*
X13424819Y-2785714D01*
X13424819Y-2785714D02*
X13472438Y-2642857D01*
X14520057Y-2452381D02*
X14520057Y-1690476D01*
X14424819Y-1452380D02*
X13758152Y-1452380D01*
X13424819Y-1452380D02*
X13472438Y-1499999D01*
X13472438Y-1499999D02*
X13520057Y-1452380D01*
X13520057Y-1452380D02*
X13472438Y-1404761D01*
X13472438Y-1404761D02*
X13424819Y-1452380D01*
X13424819Y-1452380D02*
X13520057Y-1452380D01*
X13758152Y-547619D02*
X14567676Y-547619D01*
X14567676Y-547619D02*
X14662914Y-595238D01*
X14662914Y-595238D02*
X14710533Y-642857D01*
X14710533Y-642857D02*
X14758152Y-738095D01*
X14758152Y-738095D02*
X14758152Y-880952D01*
X14758152Y-880952D02*
X14710533Y-976190D01*
X14377200Y-547619D02*
X14424819Y-642857D01*
X14424819Y-642857D02*
X14424819Y-833333D01*
X14424819Y-833333D02*
X14377200Y-928571D01*
X14377200Y-928571D02*
X14329580Y-976190D01*
X14329580Y-976190D02*
X14234342Y-1023809D01*
X14234342Y-1023809D02*
X13948628Y-1023809D01*
X13948628Y-1023809D02*
X13853390Y-976190D01*
X13853390Y-976190D02*
X13805771Y-928571D01*
X13805771Y-928571D02*
X13758152Y-833333D01*
X13758152Y-833333D02*
X13758152Y-642857D01*
X13758152Y-642857D02*
X13805771Y-547619D01*
X14424819Y71428D02*
X14377200Y-23809D01*
X14377200Y-23809D02*
X14281961Y-71428D01*
X14281961Y-71428D02*
X13424819Y-71428D01*
X14424819Y595238D02*
X14377200Y500000D01*
X14377200Y500000D02*
X14329580Y452381D01*
X14329580Y452381D02*
X14234342Y404762D01*
X14234342Y404762D02*
X13948628Y404762D01*
X13948628Y404762D02*
X13853390Y452381D01*
X13853390Y452381D02*
X13805771Y500000D01*
X13805771Y500000D02*
X13758152Y595238D01*
X13758152Y595238D02*
X13758152Y738095D01*
X13758152Y738095D02*
X13805771Y833333D01*
X13805771Y833333D02*
X13853390Y880952D01*
X13853390Y880952D02*
X13948628Y928571D01*
X13948628Y928571D02*
X14234342Y928571D01*
X14234342Y928571D02*
X14329580Y880952D01*
X14329580Y880952D02*
X14377200Y833333D01*
X14377200Y833333D02*
X14424819Y738095D01*
X14424819Y738095D02*
X14424819Y595238D01*
X14424819Y1500000D02*
X14377200Y1404762D01*
X14377200Y1404762D02*
X14329580Y1357143D01*
X14329580Y1357143D02*
X14234342Y1309524D01*
X14234342Y1309524D02*
X13948628Y1309524D01*
X13948628Y1309524D02*
X13853390Y1357143D01*
X13853390Y1357143D02*
X13805771Y1404762D01*
X13805771Y1404762D02*
X13758152Y1500000D01*
X13758152Y1500000D02*
X13758152Y1642857D01*
X13758152Y1642857D02*
X13805771Y1738095D01*
X13805771Y1738095D02*
X13853390Y1785714D01*
X13853390Y1785714D02*
X13948628Y1833333D01*
X13948628Y1833333D02*
X14234342Y1833333D01*
X14234342Y1833333D02*
X14329580Y1785714D01*
X14329580Y1785714D02*
X14377200Y1738095D01*
X14377200Y1738095D02*
X14424819Y1642857D01*
X14424819Y1642857D02*
X14424819Y1500000D01*
X13758152Y3690477D02*
X14424819Y3928572D01*
X14424819Y3928572D02*
X13758152Y4166667D01*
X13520057Y4500001D02*
X13472438Y4547620D01*
X13472438Y4547620D02*
X13424819Y4642858D01*
X13424819Y4642858D02*
X13424819Y4880953D01*
X13424819Y4880953D02*
X13472438Y4976191D01*
X13472438Y4976191D02*
X13520057Y5023810D01*
X13520057Y5023810D02*
X13615295Y5071429D01*
X13615295Y5071429D02*
X13710533Y5071429D01*
X13710533Y5071429D02*
X13853390Y5023810D01*
X13853390Y5023810D02*
X14424819Y4452382D01*
X14424819Y4452382D02*
X14424819Y5071429D01*
X-14515180Y-5928571D02*
X-14515180Y-5357143D01*
X-13515180Y-5642857D02*
X-14515180Y-5642857D01*
X-13515180Y-4595238D02*
X-14038990Y-4595238D01*
X-14038990Y-4595238D02*
X-14134228Y-4642857D01*
X-14134228Y-4642857D02*
X-14181847Y-4738095D01*
X-14181847Y-4738095D02*
X-14181847Y-4928571D01*
X-14181847Y-4928571D02*
X-14134228Y-5023809D01*
X-13562800Y-4595238D02*
X-13515180Y-4690476D01*
X-13515180Y-4690476D02*
X-13515180Y-4928571D01*
X-13515180Y-4928571D02*
X-13562800Y-5023809D01*
X-13562800Y-5023809D02*
X-13658038Y-5071428D01*
X-13658038Y-5071428D02*
X-13753276Y-5071428D01*
X-13753276Y-5071428D02*
X-13848514Y-5023809D01*
X-13848514Y-5023809D02*
X-13896133Y-4928571D01*
X-13896133Y-4928571D02*
X-13896133Y-4690476D01*
X-13896133Y-4690476D02*
X-13943752Y-4595238D01*
X-13515180Y-4119047D02*
X-14181847Y-4119047D01*
X-14515180Y-4119047D02*
X-14467561Y-4166666D01*
X-14467561Y-4166666D02*
X-14419942Y-4119047D01*
X-14419942Y-4119047D02*
X-14467561Y-4071428D01*
X-14467561Y-4071428D02*
X-14515180Y-4119047D01*
X-14515180Y-4119047D02*
X-14419942Y-4119047D01*
X-14181847Y-3785714D02*
X-14181847Y-3404762D01*
X-14515180Y-3642857D02*
X-13658038Y-3642857D01*
X-13658038Y-3642857D02*
X-13562800Y-3595238D01*
X-13562800Y-3595238D02*
X-13515180Y-3500000D01*
X-13515180Y-3500000D02*
X-13515180Y-3404762D01*
X-13515180Y-2309523D02*
X-14515180Y-2309523D01*
X-14515180Y-2309523D02*
X-14515180Y-1928571D01*
X-14515180Y-1928571D02*
X-14467561Y-1833333D01*
X-14467561Y-1833333D02*
X-14419942Y-1785714D01*
X-14419942Y-1785714D02*
X-14324704Y-1738095D01*
X-14324704Y-1738095D02*
X-14181847Y-1738095D01*
X-14181847Y-1738095D02*
X-14086609Y-1785714D01*
X-14086609Y-1785714D02*
X-14038990Y-1833333D01*
X-14038990Y-1833333D02*
X-13991371Y-1928571D01*
X-13991371Y-1928571D02*
X-13991371Y-2309523D01*
X-13515180Y-1309523D02*
X-14515180Y-1309523D01*
X-13515180Y-880952D02*
X-14038990Y-880952D01*
X-14038990Y-880952D02*
X-14134228Y-928571D01*
X-14134228Y-928571D02*
X-14181847Y-1023809D01*
X-14181847Y-1023809D02*
X-14181847Y-1166666D01*
X-14181847Y-1166666D02*
X-14134228Y-1261904D01*
X-14134228Y-1261904D02*
X-14086609Y-1309523D01*
X-13515180Y-261904D02*
X-13562800Y-357142D01*
X-13562800Y-357142D02*
X-13610419Y-404761D01*
X-13610419Y-404761D02*
X-13705657Y-452380D01*
X-13705657Y-452380D02*
X-13991371Y-452380D01*
X-13991371Y-452380D02*
X-14086609Y-404761D01*
X-14086609Y-404761D02*
X-14134228Y-357142D01*
X-14134228Y-357142D02*
X-14181847Y-261904D01*
X-14181847Y-261904D02*
X-14181847Y-119047D01*
X-14181847Y-119047D02*
X-14134228Y-23809D01*
X-14134228Y-23809D02*
X-14086609Y23809D01*
X-14086609Y23809D02*
X-13991371Y71428D01*
X-13991371Y71428D02*
X-13705657Y71428D01*
X-13705657Y71428D02*
X-13610419Y23809D01*
X-13610419Y23809D02*
X-13562800Y-23809D01*
X-13562800Y-23809D02*
X-13515180Y-119047D01*
X-13515180Y-119047D02*
X-13515180Y-261904D01*
X-14181847Y357143D02*
X-14181847Y738095D01*
X-14515180Y500000D02*
X-13658038Y500000D01*
X-13658038Y500000D02*
X-13562800Y547619D01*
X-13562800Y547619D02*
X-13515180Y642857D01*
X-13515180Y642857D02*
X-13515180Y738095D01*
X-13515180Y1214286D02*
X-13562800Y1119048D01*
X-13562800Y1119048D02*
X-13610419Y1071429D01*
X-13610419Y1071429D02*
X-13705657Y1023810D01*
X-13705657Y1023810D02*
X-13991371Y1023810D01*
X-13991371Y1023810D02*
X-14086609Y1071429D01*
X-14086609Y1071429D02*
X-14134228Y1119048D01*
X-14134228Y1119048D02*
X-14181847Y1214286D01*
X-14181847Y1214286D02*
X-14181847Y1357143D01*
X-14181847Y1357143D02*
X-14134228Y1452381D01*
X-14134228Y1452381D02*
X-14086609Y1500000D01*
X-14086609Y1500000D02*
X-13991371Y1547619D01*
X-13991371Y1547619D02*
X-13705657Y1547619D01*
X-13705657Y1547619D02*
X-13610419Y1500000D01*
X-13610419Y1500000D02*
X-13562800Y1452381D01*
X-13562800Y1452381D02*
X-13515180Y1357143D01*
X-13515180Y1357143D02*
X-13515180Y1214286D01*
X-14181847Y1976191D02*
X-13515180Y1976191D01*
X-14086609Y1976191D02*
X-14134228Y2023810D01*
X-14134228Y2023810D02*
X-14181847Y2119048D01*
X-14181847Y2119048D02*
X-14181847Y2261905D01*
X-14181847Y2261905D02*
X-14134228Y2357143D01*
X-14134228Y2357143D02*
X-14038990Y2404762D01*
X-14038990Y2404762D02*
X-13515180Y2404762D01*
X-13515180Y4119048D02*
X-13515180Y3642858D01*
X-13515180Y3642858D02*
X-14515180Y3642858D01*
X-13515180Y4880953D02*
X-14038990Y4880953D01*
X-14038990Y4880953D02*
X-14134228Y4833334D01*
X-14134228Y4833334D02*
X-14181847Y4738096D01*
X-14181847Y4738096D02*
X-14181847Y4547620D01*
X-14181847Y4547620D02*
X-14134228Y4452382D01*
X-13562800Y4880953D02*
X-13515180Y4785715D01*
X-13515180Y4785715D02*
X-13515180Y4547620D01*
X-13515180Y4547620D02*
X-13562800Y4452382D01*
X-13562800Y4452382D02*
X-13658038Y4404763D01*
X-13658038Y4404763D02*
X-13753276Y4404763D01*
X-13753276Y4404763D02*
X-13848514Y4452382D01*
X-13848514Y4452382D02*
X-13896133Y4547620D01*
X-13896133Y4547620D02*
X-13896133Y4785715D01*
X-13896133Y4785715D02*
X-13943752Y4880953D01*
X-13515180Y5357144D02*
X-14515180Y5357144D01*
X-14134228Y5357144D02*
X-14181847Y5452382D01*
X-14181847Y5452382D02*
X-14181847Y5642858D01*
X-14181847Y5642858D02*
X-14134228Y5738096D01*
X-14134228Y5738096D02*
X-14086609Y5785715D01*
X-14086609Y5785715D02*
X-13991371Y5833334D01*
X-13991371Y5833334D02*
X-13705657Y5833334D01*
X-13705657Y5833334D02*
X-13610419Y5785715D01*
X-13610419Y5785715D02*
X-13562800Y5738096D01*
X-13562800Y5738096D02*
X-13515180Y5642858D01*
X-13515180Y5642858D02*
X-13515180Y5452382D01*
X-13515180Y5452382D02*
X-13562800Y5357144D01*
D10*
X9714855Y8752994D02*
X10286283Y8752994D01*
X10286283Y8752994D02*
X10400569Y8714899D01*
X10400569Y8714899D02*
X10476760Y8638708D01*
X10476760Y8638708D02*
X10514855Y8524423D01*
X10514855Y8524423D02*
X10514855Y8448232D01*
X9981521Y9476804D02*
X10514855Y9476804D01*
X9981521Y9133947D02*
X10400569Y9133947D01*
X10400569Y9133947D02*
X10476760Y9172042D01*
X10476760Y9172042D02*
X10514855Y9248232D01*
X10514855Y9248232D02*
X10514855Y9362518D01*
X10514855Y9362518D02*
X10476760Y9438709D01*
X10476760Y9438709D02*
X10438664Y9476804D01*
X10514855Y9972042D02*
X10476760Y9895852D01*
X10476760Y9895852D02*
X10400569Y9857757D01*
X10400569Y9857757D02*
X9714855Y9857757D01*
X9981521Y10200614D02*
X10514855Y10391090D01*
X9981521Y10581567D02*
X10514855Y10391090D01*
X10514855Y10391090D02*
X10705331Y10314900D01*
X10705331Y10314900D02*
X10743426Y10276805D01*
X10743426Y10276805D02*
X10781521Y10200614D01*
X11079045Y8486327D02*
X11040950Y8524423D01*
X11040950Y8524423D02*
X11002855Y8600613D01*
X11002855Y8600613D02*
X11002855Y8791089D01*
X11002855Y8791089D02*
X11040950Y8867280D01*
X11040950Y8867280D02*
X11079045Y8905375D01*
X11079045Y8905375D02*
X11155236Y8943470D01*
X11155236Y8943470D02*
X11231426Y8943470D01*
X11231426Y8943470D02*
X11345712Y8905375D01*
X11345712Y8905375D02*
X11802855Y8448232D01*
X11802855Y8448232D02*
X11802855Y8943470D01*
X11002855Y9438709D02*
X11002855Y9514899D01*
X11002855Y9514899D02*
X11040950Y9591090D01*
X11040950Y9591090D02*
X11079045Y9629185D01*
X11079045Y9629185D02*
X11155236Y9667280D01*
X11155236Y9667280D02*
X11307617Y9705375D01*
X11307617Y9705375D02*
X11498093Y9705375D01*
X11498093Y9705375D02*
X11650474Y9667280D01*
X11650474Y9667280D02*
X11726664Y9629185D01*
X11726664Y9629185D02*
X11764760Y9591090D01*
X11764760Y9591090D02*
X11802855Y9514899D01*
X11802855Y9514899D02*
X11802855Y9438709D01*
X11802855Y9438709D02*
X11764760Y9362518D01*
X11764760Y9362518D02*
X11726664Y9324423D01*
X11726664Y9324423D02*
X11650474Y9286328D01*
X11650474Y9286328D02*
X11498093Y9248232D01*
X11498093Y9248232D02*
X11307617Y9248232D01*
X11307617Y9248232D02*
X11155236Y9286328D01*
X11155236Y9286328D02*
X11079045Y9324423D01*
X11079045Y9324423D02*
X11040950Y9362518D01*
X11040950Y9362518D02*
X11002855Y9438709D01*
X11079045Y10010137D02*
X11040950Y10048233D01*
X11040950Y10048233D02*
X11002855Y10124423D01*
X11002855Y10124423D02*
X11002855Y10314899D01*
X11002855Y10314899D02*
X11040950Y10391090D01*
X11040950Y10391090D02*
X11079045Y10429185D01*
X11079045Y10429185D02*
X11155236Y10467280D01*
X11155236Y10467280D02*
X11231426Y10467280D01*
X11231426Y10467280D02*
X11345712Y10429185D01*
X11345712Y10429185D02*
X11802855Y9972042D01*
X11802855Y9972042D02*
X11802855Y10467280D01*
X11269521Y11152995D02*
X11802855Y11152995D01*
X10964760Y10962519D02*
X11536188Y10772042D01*
X11536188Y10772042D02*
X11536188Y11267281D01*
X6040760Y-1542858D02*
X6078855Y-1428572D01*
X6078855Y-1428572D02*
X6078855Y-1238096D01*
X6078855Y-1238096D02*
X6040760Y-1161905D01*
X6040760Y-1161905D02*
X6002664Y-1123810D01*
X6002664Y-1123810D02*
X5926474Y-1085715D01*
X5926474Y-1085715D02*
X5850283Y-1085715D01*
X5850283Y-1085715D02*
X5774093Y-1123810D01*
X5774093Y-1123810D02*
X5735998Y-1161905D01*
X5735998Y-1161905D02*
X5697902Y-1238096D01*
X5697902Y-1238096D02*
X5659807Y-1390477D01*
X5659807Y-1390477D02*
X5621712Y-1466667D01*
X5621712Y-1466667D02*
X5583617Y-1504762D01*
X5583617Y-1504762D02*
X5507426Y-1542858D01*
X5507426Y-1542858D02*
X5431236Y-1542858D01*
X5431236Y-1542858D02*
X5355045Y-1504762D01*
X5355045Y-1504762D02*
X5316950Y-1466667D01*
X5316950Y-1466667D02*
X5278855Y-1390477D01*
X5278855Y-1390477D02*
X5278855Y-1200000D01*
X5278855Y-1200000D02*
X5316950Y-1085715D01*
X6078855Y-628572D02*
X6040760Y-704762D01*
X6040760Y-704762D02*
X6002664Y-742857D01*
X6002664Y-742857D02*
X5926474Y-780953D01*
X5926474Y-780953D02*
X5697902Y-780953D01*
X5697902Y-780953D02*
X5621712Y-742857D01*
X5621712Y-742857D02*
X5583617Y-704762D01*
X5583617Y-704762D02*
X5545521Y-628572D01*
X5545521Y-628572D02*
X5545521Y-514286D01*
X5545521Y-514286D02*
X5583617Y-438095D01*
X5583617Y-438095D02*
X5621712Y-400000D01*
X5621712Y-400000D02*
X5697902Y-361905D01*
X5697902Y-361905D02*
X5926474Y-361905D01*
X5926474Y-361905D02*
X6002664Y-400000D01*
X6002664Y-400000D02*
X6040760Y-438095D01*
X6040760Y-438095D02*
X6078855Y-514286D01*
X6078855Y-514286D02*
X6078855Y-628572D01*
X5545521Y323809D02*
X6078855Y323809D01*
X5545521Y-19047D02*
X5964569Y-19047D01*
X5964569Y-19047D02*
X6040760Y19047D01*
X6040760Y19047D02*
X6078855Y95237D01*
X6078855Y95237D02*
X6078855Y209523D01*
X6078855Y209523D02*
X6040760Y285714D01*
X6040760Y285714D02*
X6002664Y323809D01*
X5545521Y590476D02*
X5545521Y895238D01*
X5278855Y704762D02*
X5964569Y704762D01*
X5964569Y704762D02*
X6040760Y742857D01*
X6040760Y742857D02*
X6078855Y819047D01*
X6078855Y819047D02*
X6078855Y895238D01*
X6078855Y1161905D02*
X5278855Y1161905D01*
X6078855Y1504762D02*
X5659807Y1504762D01*
X5659807Y1504762D02*
X5583617Y1466667D01*
X5583617Y1466667D02*
X5545521Y1390476D01*
X5545521Y1390476D02*
X5545521Y1276190D01*
X5545521Y1276190D02*
X5583617Y1200000D01*
X5583617Y1200000D02*
X5621712Y1161905D01*
M02*
